<svg xmlns="http://www.w3.org/2000/svg" width="80" height="80" viewBox="0 0 80 80">
  <g id="Grupo_119346" data-name="Grupo 119346" transform="translate(-285 -2040.5)">
    <g id="Elipse_6763" data-name="Elipse 6763" transform="translate(285 2040.5)" fill="#fff" stroke="#2631a0" stroke-width="4">
      <circle cx="40" cy="40" r="40" stroke="none"/>
      <circle cx="40" cy="40" r="38" fill="none"/>
    </g>
    <g id="Grupo_119218" data-name="Grupo 119218" transform="translate(-21.893 3121.46)">
      <path id="Trazado_168909" data-name="Trazado 168909" d="M327.634-1017.286c-.451-.034-.663.138-.583.621a3.49,3.49,0,0,1,0,.7c-.03.728-.448.972-1.083.608q-2.773-1.589-5.533-3.2a5.461,5.461,0,0,1-1.4-.908v-.544a14.865,14.865,0,0,1,1.854-1.087.551.551,0,0,1,.606.067c1.905,1.1,3.82,2.19,5.716,3.307C327.387-1017.619,327.64-1017.568,327.634-1017.286Z" transform="translate(0 -36.286)" fill="#ee4424"/>
      <path id="Trazado_168910" data-name="Trazado 168910" d="M483.805-831.633c2.41.007,4.821.009,7.232.025.294,0,.382-.106.364-.381s-.005-.544,0-.815c.006-.9.354-1.1,1.151-.638q2.213,1.273,4.421,2.555c.643.372,1.289.737,1.927,1.116s.649.818.026,1.181q-3.262,1.9-6.539,3.775c-.6.343-.966.112-.986-.588,0-.018,0-.036,0-.054-.022-1.269-.022-1.269-1.319-1.269q-9.191,0-18.382,0a17.42,17.42,0,0,1-6.73-1.277.529.529,0,0,1-.07-.46,8.788,8.788,0,0,0,.184-2.5.47.47,0,0,1,.086-.3c.324-.213.595.021.861.131a14.085,14.085,0,0,0,5.772,1.1,14.194,14.194,0,0,0,5.775-1.347,2.745,2.745,0,0,1,1.01-.378c1.535-.055,3.07-.018,4.6-.023A.863.863,0,0,1,483.805-831.633Z" transform="translate(-124.635 -196.51)" fill="#01cffa"/>
      <path id="Trazado_168911" data-name="Trazado 168911" d="M338.535-1035.256q-2.111-1.247-4.222-2.492c-.636-.373-1.284-.726-1.919-1.1a1.021,1.021,0,0,0-.6-.215c1.7-.987,3.4-1.979,5.112-2.957.626-.358.988-.129,1,.609.029,1.285.029,1.285,1.3,1.285,5.885,0,11.77.014,17.654-.007a20.04,20.04,0,0,1,7.342,1.205c.271.166.143.414.112.627a10.032,10.032,0,0,0-.181,1.97c-.035.242.052.523-.22.688a1.1,1.1,0,0,1-.678-.142,14.342,14.342,0,0,0-11.907.441,1.826,1.826,0,0,1-.719.234c-1.445.012-2.889,0-4.333.024a1.189,1.189,0,0,1-.784-.135l-6.374-.023C338.931-1035.245,338.733-1035.252,338.535-1035.256Z" transform="translate(-10.902 -18.316)" fill="#fc5426"/>
      <path id="Trazado_168912" data-name="Trazado 168912" d="M553.249-1054.671c-.081-.87.212-1.709.212-2.573a2.2,2.2,0,0,0,.356-.839,8.657,8.657,0,0,1,8.965-5.489,8.76,8.76,0,0,1,7.551,7.115,8.64,8.64,0,0,1-6.415,9.784.988.988,0,0,0-.15.064,4.609,4.609,0,0,1-2.467.337c-.268-.015-.535-.065-.8-.094a12.643,12.643,0,0,1-2.234-.674,9.017,9.017,0,0,1-4.512-4.7,6.938,6.938,0,0,1-.515-2.161A1.283,1.283,0,0,0,553.249-1054.671Z" transform="translate(-200.15)" fill="#fde87d"/>
      <path id="Trazado_168913" data-name="Trazado 168913" d="M366.58-863.5a9.523,9.523,0,0,1-.255,3.263,9.23,9.23,0,0,1-2.243,3.729,8.6,8.6,0,0,1-11.267.715,8.614,8.614,0,0,1,1.263-14.459,17.074,17.074,0,0,1,1.962-.768,4.844,4.844,0,0,1,1.817-.367,4.659,4.659,0,0,1,1.37.142,7.975,7.975,0,0,1,2.322.629,9.174,9.174,0,0,1,4.7,4.987,10.186,10.186,0,0,1,.4,1.511A.67.67,0,0,1,366.58-863.5Z" transform="translate(-25.994 -164.28)" fill="#fde87d"/>
      <path id="Trazado_168914" data-name="Trazado 168914" d="M563.789-895.373l-5.325,0c.037-.306.313-.373.518-.5a14.386,14.386,0,0,0,6.148-7.8,14.262,14.262,0,0,0,.706-3.88c.011-.246-.033-.524.281-.643a15.778,15.778,0,0,1,2.577-.038c.506.016.544.135.446.95a16.769,16.769,0,0,1-2.78,8.766A20.635,20.635,0,0,1,563.789-895.373Z" transform="translate(-204.619 -132.769)" fill="#ee4424"/>
      <path id="Trazado_168915" data-name="Trazado 168915" d="M391.4-976.344l-1.83.221a18.352,18.352,0,0,1-.877-5.646,17.443,17.443,0,0,1,5.1-12.238c.113-.116.223-.235.335-.353l5.233-.015c-.008.108-.084.155-.173.191a19.4,19.4,0,0,1-2.438.04,1.414,1.414,0,0,0-1.109.448,17,17,0,0,0-4.733,9.853,17.26,17.26,0,0,0,.517,6.933C391.48-976.721,391.557-976.527,391.4-976.344Z" transform="translate(-59.528 -59.176)" fill="#01bff9"/>
      <path id="Trazado_168916" data-name="Trazado 168916" d="M527.794-766.08q-2.8,0-5.593,0c-.67,0-1.059-.313-1.048-.825.012-.5.39-.8,1.026-.8q5.62-.005,11.24,0c.644,0,1,.3,1.007.81s-.34.817-.985.819Q530.617-766.076,527.794-766.08Z" transform="translate(-172.732 -252.889)" fill="#01bff9"/>
      <path id="Trazado_168917" data-name="Trazado 168917" d="M406.078-1058.981q2.769,0,5.538,0c.669,0,1.008.263,1.024.777.017.531-.356.851-1.021.852q-5.619,0-11.238,0c-.758,0-1.192-.54-.938-1.137a.873.873,0,0,1,.935-.5C402.278-1058.977,404.178-1058.981,406.078-1058.981Z" transform="translate(-68.652 -3.959)" fill="#ee4424"/>
      <path id="Trazado_168918" data-name="Trazado 168918" d="M606.377-940.052c-.038-.8-.038-.8-.829-.8l-2.316,0a.494.494,0,0,1-.169-.436,15.106,15.106,0,0,0-.915-4.611.727.727,0,0,1-.059-.627,10.511,10.511,0,0,0,3.387-.09,18.807,18.807,0,0,1,.968,5.644A2.585,2.585,0,0,1,606.377-940.052Z" transform="translate(-241.856 -99.998)" fill="#fc5426"/>
      <path id="Trazado_168919" data-name="Trazado 168919" d="M484.259-949.757a15.8,15.8,0,0,1,1.143,5.674,14.5,14.5,0,0,1-3.28,9.117,14.289,14.289,0,0,1-3.707,3.234c-.185.112-.362.236-.543.354a16.437,16.437,0,0,1-4.7,1.568,14.353,14.353,0,0,1-8.15-1.084c-.129-.057-.249-.155-.407-.123a15.1,15.1,0,0,0-.449-2.176c.245-.1.416.082.6.181a12.294,12.294,0,0,0,6.405,1.6,12.5,12.5,0,0,0,8.523-3.543,12.429,12.429,0,0,0,3.891-8.259,12.274,12.274,0,0,0-1.217-6.384c-.121-.251-.345-.481-.239-.8Z" transform="translate(-124.027 -96.762)" fill="#fcd69a"/>
      <path id="Trazado_168920" data-name="Trazado 168920" d="M417.446-1004.768l.159-.081a18.422,18.422,0,0,1,3.858-1.431,14.591,14.591,0,0,1,9.283.981c.064.053.167.022.219.1a11.687,11.687,0,0,0,.547,2.176c-.267.1-.443-.1-.644-.206a12.37,12.37,0,0,0-13.422.657,12.109,12.109,0,0,0-5.36,8.709,12.351,12.351,0,0,0,.975,6.843,1.584,1.584,0,0,1,.287.966,10.643,10.643,0,0,0-2.282-.628,20.222,20.222,0,0,1-.936-3.9,14.393,14.393,0,0,1,1.057-7.232,14.439,14.439,0,0,1,5.214-6.4A4.456,4.456,0,0,1,417.446-1004.768Z" transform="translate(-77.772 -48.702)" fill="#fcd69a"/>
      <path id="Trazado_168921" data-name="Trazado 168921" d="M552.69-1001.306a.23.23,0,0,1-.219-.1c.213-.191.053-.452.125-.669C552.751-1001.834,552.672-1001.564,552.69-1001.306Z" transform="translate(-199.497 -52.595)" fill="#fc854c"/>
      <path id="Trazado_168922" data-name="Trazado 168922" d="M423.706-976.52a12.815,12.815,0,0,1-1.508-7.008,12.6,12.6,0,0,1,3.285-7.674,12.458,12.458,0,0,1,5.924-3.737,12.533,12.533,0,0,1,10.129,1.27c.109.064.223.121.334.18a9.353,9.353,0,0,0,4.356,4.567,14.225,14.225,0,0,1,1.439,4.125,12.657,12.657,0,0,1-.737,6.955,12.657,12.657,0,0,1-6.184,6.708,12.581,12.581,0,0,1-4.5,1.275,12.722,12.722,0,0,1-7.972-1.86c-.408-.617-.638-1.333-1.091-1.927A9.635,9.635,0,0,0,423.706-976.52Z" transform="translate(-88.13 -58.236)" fill="#fdf0d9"/>
      <path id="Trazado_168923" data-name="Trazado 168923" d="M587.9-1052.124a6.951,6.951,0,0,1,6.74,5.524,6.956,6.956,0,0,1-5.492,8.235,3.412,3.412,0,0,1-1.919.062c.24-.2.011-.248-.107-.328a7.636,7.636,0,0,1-2.354-2.513,7.688,7.688,0,0,1-.091-7.958,7.586,7.586,0,0,1,2.447-2.643A7.272,7.272,0,0,1,587.9-1052.124Z" transform="translate(-226.112 -9.821)" fill="#fdd302"/>
      <path id="Trazado_168924" data-name="Trazado 168924" d="M571.685-1052.155a12.281,12.281,0,0,0-2.2,1.815,7.949,7.949,0,0,0-1.833,3.973,7.374,7.374,0,0,0,.458,3.975,7.507,7.507,0,0,0,3.166,3.789l.268.164c-.183.154-.371.066-.528.1a6.488,6.488,0,0,1-5.488-3.544,6.949,6.949,0,0,1,5.129-10.257A7.917,7.917,0,0,1,571.685-1052.155Z" transform="translate(-209.897 -9.79)" fill="#f9c500"/>
      <path id="Trazado_168925" data-name="Trazado 168925" d="M383.667-858.992a4.857,4.857,0,0,1,2.91.333,6.75,6.75,0,0,1,4.633,6.109,6.89,6.89,0,0,1-6.766,7.377,6.756,6.756,0,0,1-2.99-2.633c-.125-.176-.234-.41.133-.482a7.493,7.493,0,0,0,1.456.147c.381-.015.565.184.569.563a2.288,2.288,0,0,0,.033.433.613.613,0,0,0,.632.558.552.552,0,0,0,.623-.552c-.052-.844.405-1.08,1.129-1.272a2.132,2.132,0,0,0,1.4-2.373,2.286,2.286,0,0,0-2.043-1.945c-.469-.038-.942-.009-1.413-.013a4.4,4.4,0,0,1-.6-.021.984.984,0,0,1-.9-.929.955.955,0,0,1,.922-.959c.849-.064,1.7-.014,2.553-.024a3.385,3.385,0,0,0,.65-.032.615.615,0,0,0,.554-.637.607.607,0,0,0-.559-.631,5.066,5.066,0,0,0-.976-.03c-.442.006-.69-.166-.673-.637a1.426,1.426,0,0,0-.033-.378.642.642,0,0,0-.618-.583.554.554,0,0,0-.623.553c.039.82-.434,1.016-1.1,1.237a2.072,2.072,0,0,0-1.434,1.935,2.157,2.157,0,0,0,1.06,2.066,2.617,2.617,0,0,0,1.447.4c.525,0,1.052-.03,1.575.018a.944.944,0,0,1,.873.827.905.905,0,0,1-.646.956,2.283,2.283,0,0,1-.854.132c-.743,0-1.486.021-2.228-.006a.948.948,0,0,0-1.073.707c-.386.333-.42-.1-.492-.267a6.917,6.917,0,0,1-.624-2.564,7.823,7.823,0,0,1,3.49-7.048C383.89-858.815,383.841-858.878,383.667-858.992Z" transform="translate(-52.243 -174.793)" fill="#fdd302"/>
      <path id="Trazado_168926" data-name="Trazado 168926" d="M367.019-858.4l.67.033c-.416.3-.771.528-1.1.792a7.592,7.592,0,0,0-2.827,4.869,7.694,7.694,0,0,0,.448,4.074.8.8,0,0,0,.326.46c.292.075.341.292.321.55-.046.475.313.746.57,1.045a10.277,10.277,0,0,0,2.367,2,6.925,6.925,0,0,1-7.1-6.784,7.009,7.009,0,0,1,5.626-6.983A5.847,5.847,0,0,1,367.019-858.4Z" transform="translate(-35.595 -175.389)" fill="#f9c500"/>
      <path id="Trazado_168927" data-name="Trazado 168927" d="M410.512-994.1a18.878,18.878,0,0,0-3.083,2.445,14.341,14.341,0,0,0-3.3,15.16c.046.142.324.324,0,.482l-1.418-.136a29.158,29.158,0,0,1-.687-3.488,18.654,18.654,0,0,1-.042-3.409,14.769,14.769,0,0,1,.717-3.59,17.472,17.472,0,0,1,3.2-5.914c.116-.137.215-.289.327-.43a2.432,2.432,0,0,1,2.441-1.13A11.141,11.141,0,0,0,410.512-994.1Z" transform="translate(-70.838 -59.374)" fill="#01cffa"/>
      <path id="Trazado_168928" data-name="Trazado 168928" d="M449.527-957.819a10.319,10.319,0,0,1-10.412-10.421,10.306,10.306,0,0,1,10.4-10.341A10.3,10.3,0,0,1,459.9-968.175,10.317,10.317,0,0,1,449.527-957.819Z" transform="translate(-102.619 -72.674)" fill="#fdde30"/>
      <path id="Trazado_168929" data-name="Trazado 168929" d="M592.484-1035.676c.489,0,.978.009,1.467,0a.838.838,0,0,0,.9-.753.823.823,0,0,0-.859-.86c-.633-.031-1.268,0-1.9-.014a2.349,2.349,0,0,1-2.238-2.171,2.345,2.345,0,0,1,2.042-2.615c.35-.033.5-.156.459-.5a2.29,2.29,0,0,1,0-.272c.008-.551.306-.934.745-.957a.907.907,0,0,1,.885.917c.056.714.056.72.8.713a2.994,2.994,0,0,1,.859.1.725.725,0,0,1,.534.88.654.654,0,0,1-.716.654c-.887.007-1.775,0-2.662.008a4.491,4.491,0,0,0-.7.078.692.692,0,0,0-.612.862.7.7,0,0,0,.768.677c.543.008,1.087,0,1.63,0a2.5,2.5,0,0,1,2.6,2.27,2.432,2.432,0,0,1-2.029,2.565c-.47.088-.478.3-.474.647.006.627-.249.974-.725,1.038a.762.762,0,0,1-.9-.823c-.037-.809-.037-.809-.865-.809a4.905,4.905,0,0,1-.651-.009.8.8,0,0,1-.754-.787.789.789,0,0,1,.767-.826c.542-.028,1.086-.007,1.63-.007Z" transform="translate(-231.445 -16.918)" fill="#c89b56"/>
      <path id="Trazado_168930" data-name="Trazado 168930" d="M386.13-840.607l-.321-.55c.133-.705.321-.874,1-.877.852,0,1.7-.006,2.555,0a2.108,2.108,0,0,0,.694-.107.711.711,0,0,0,.526-.839.726.726,0,0,0-.73-.672c-.579-.023-1.16,0-1.74-.009a2.566,2.566,0,0,1-2.383-1.592,2.448,2.448,0,0,1,.846-2.813.87.87,0,0,1,.319-.2c.76-.168,1.372-.391,1.3-1.4-.028-.386.448-.587.879-.5a.8.8,0,0,1,.647.772c.1.852.1.853.986.853s1.284.254,1.285.815-.4.816-1.283.816c-.834,0-1.667,0-2.5,0-.6,0-.967.3-.983.784-.017.5.367.832.985.839.562.007,1.124-.006,1.685,0a2.419,2.419,0,0,1,2.331,2.218,2.347,2.347,0,0,1-2.049,2.567c-.35.043-.491.166-.454.507a2.013,2.013,0,0,1,0,.272c-.016.586-.336.955-.823.949a.81.81,0,0,1-.794-.965c.049-.582-.174-.73-.7-.67A2.361,2.361,0,0,1,386.13-840.607Z" transform="translate(-56.866 -182.401)" fill="#c89b56"/>
      <path id="Trazado_168931" data-name="Trazado 168931" d="M474.886-967.633a4.417,4.417,0,0,1,2.235.056,8.224,8.224,0,0,1,4.579,2.3,8.565,8.565,0,0,1,2.669,5.756,8.527,8.527,0,0,1-1.817,5.952,8.592,8.592,0,0,1-5.282,3.243,10.271,10.271,0,0,1-1.944.106,7.56,7.56,0,0,1-3.454-2.609,9.762,9.762,0,0,1-.276-11.9,10.048,10.048,0,0,1,2.841-2.565C474.591-967.4,474.824-967.4,474.886-967.633Z" transform="translate(-128.764 -81.919)" fill="#f9c500"/>
      <path id="Trazado_168932" data-name="Trazado 168932" d="M458.257-966.861c.07.009.172-.007.205.033.083.1-.05.1-.093.13a15.334,15.334,0,0,0-1.821,1.26,8.828,8.828,0,0,0-2.553,3.446,9.43,9.43,0,0,0-.3,6.821,9.435,9.435,0,0,0,4.637,5.486c.125.068.24.154.36.231a8.488,8.488,0,0,1-7.08-4.053,8.013,8.013,0,0,1-1.367-4.608,8.546,8.546,0,0,1,2.176-5.8A8.709,8.709,0,0,1,457.5-966.8C457.75-966.844,458.005-966.842,458.257-966.861Z" transform="translate(-112.135 -82.691)" fill="#e7b700"/>
      <path id="Trazado_168933" data-name="Trazado 168933" d="M486.788-944.1c.58,0,1.159,0,1.739,0a1.22,1.22,0,0,0,1.34-1.191,1.214,1.214,0,0,0-1.3-1.185c-.688-.021-1.377,0-2.065-.006a2.8,2.8,0,0,1-2.831-2.694,2.792,2.792,0,0,1,2.668-2.859c.352-.018.492-.138.473-.485a6.668,6.668,0,0,1,0-.869.705.705,0,0,1,.788-.713.7.7,0,0,1,.746.7,3.929,3.929,0,0,1,0,.76c-.056.493.161.639.626.6s.905-.006,1.358-.007a.751.751,0,0,1,.821.7.742.742,0,0,1-.675.89,6.482,6.482,0,0,1-1.027.043c-.978,0-1.956,0-2.934,0a1.176,1.176,0,0,0-1.218,1.125,1.2,1.2,0,0,0,1.227,1.175,17.58,17.58,0,0,1,2.653.085,2.8,2.8,0,0,1,2.311,2.915,2.827,2.827,0,0,1-2.636,2.63c-.416.018-.546.145-.505.539a4.81,4.81,0,0,1,0,.76.822.822,0,0,1-.762.772.818.818,0,0,1-.777-.755,9.007,9.007,0,0,1,0-.924c.013-.282-.1-.389-.38-.38-.452.015-.906.005-1.358,0-.685,0-1.067-.289-1.077-.8s.388-.827,1.1-.829C485.665-944.1,486.226-944.1,486.788-944.1Z" transform="translate(-140.7 -93.593)" fill="#c89b56"/>
    </g>
  </g>
</svg>
