<svg xmlns="http://www.w3.org/2000/svg" xmlns:xlink="http://www.w3.org/1999/xlink" width="162" height="173.845" viewBox="0 0 162 173.845">
  <defs>
    <clipPath id="clip-path">
      <path id="Trazado_167196" data-name="Trazado 167196" d="M81.407-11.845C126.142-11.845,162,36.265,162,81A81,81,0,0,1,0,81C0,36.265,36.672-11.845,81.407-11.845Z" transform="translate(377 810.628)" fill="none"/>
    </clipPath>
  </defs>
  <g id="Grupo_119341" data-name="Grupo 119341" transform="translate(-377 -798.783)">
    <path id="Trazado_167195" data-name="Trazado 167195" d="M81,0A81,81,0,1,1,0,81,81,81,0,0,1,81,0Z" transform="translate(377 810.628)" fill="#4c53b5"/>
    <g id="Enmascarar_grupo_146" data-name="Enmascarar grupo 146" clip-path="url(#clip-path)">
      <g id="Grupo_118694" data-name="Grupo 118694" transform="translate(623.037 1920.193)">
        <path id="Trazado_167100" data-name="Trazado 167100" d="M-121.751-1088.469a2.519,2.519,0,0,0-2.485-2.746c-2.978-.428-5.964-.8-8.952-1.145-.579-.067-.908-.214-1.1-.812a34.534,34.534,0,0,0-2.281-5.544,1,1,0,0,1,.139-1.265c1.872-2.366,3.7-4.763,5.544-7.154a2.454,2.454,0,0,0-.162-3.667q-6.991-7.016-14.008-14.007a2.435,2.435,0,0,0-3.579-.189c-2.256,1.758-4.493,3.541-6.757,5.289-.5.384-.952.9-1.762.442a31.9,31.9,0,0,0-5.536-2.3.937.937,0,0,1-.767-.885c-.3-2.759-.649-5.512-.95-8.271-.249-2.284-1.088-3.352-2.99-3.365q-9.727-.066-19.455,0a2.557,2.557,0,0,0-2.818,2.543c-.431,2.938-.8,5.886-1.131,8.836-.071.627-.224.98-.867,1.187a32.63,32.63,0,0,0-5.435,2.235,1.072,1.072,0,0,1-1.366-.151q-3.158-2.544-6.4-4.985c-.73-.55-1.373-1.357-2.438-1.2a2.259,2.259,0,0,0-1.9.792q-7.039,7.052-14.083,14.1a2.422,2.422,0,0,0-.2,3.492c1.865,2.422,3.727,4.846,5.623,7.242a1,1,0,0,1,.168,1.261,37.091,37.091,0,0,0-2.328,5.652.872.872,0,0,1-.807.708c-2.758.308-5.512.663-8.272.951-2.289.238-3.406,1.056-3.421,2.935-.053,6.524-.038,13.049-.006,19.573a2.7,2.7,0,0,0,2.477,2.79c2.954.288,5.89.767,8.841,1.1.676.076,1.051.239,1.268.927a31.244,31.244,0,0,0,2.186,5.327,1.146,1.146,0,0,1-.159,1.465c-1.884,2.356-3.71,4.758-5.551,7.15a2.443,2.443,0,0,0,.237,3.578q6.992,7.015,14.007,14.006a2.444,2.444,0,0,0,3.58.2c2.392-1.839,4.79-3.671,7.154-5.546a1.091,1.091,0,0,1,1.361-.187,38.3,38.3,0,0,0,5.429,2.25c.474.154.822.317.885.923.289,2.76.647,5.512.947,8.271.248,2.28,1.09,3.356,2.987,3.368q9.727.066,19.455,0a2.557,2.557,0,0,0,2.821-2.541c.431-2.938.8-5.886,1.131-8.836.071-.625.218-.978.865-1.186a33.026,33.026,0,0,0,5.436-2.234,1.076,1.076,0,0,1,1.366.143c2.3,1.829,4.637,3.611,6.972,5.4,1.61,1.23,2.6,1.164,4.013-.248q6.758-6.749,13.507-13.507c1.5-1.5,1.561-2.451.279-4.1-1.71-2.195-3.437-4.375-5.12-6.59-.322-.424-.858-.808-.477-1.549a37.715,37.715,0,0,0,2.38-5.757.927.927,0,0,1,.932-.709c2.8-.3,5.595-.62,8.387-.973,2.191-.278,3.169-1.1,3.183-2.91Q-121.681-1078.682-121.751-1088.469Zm-55.565,34.781c-14.579-.258-24.913-10.613-24.931-25.382a24.734,24.734,0,0,1,25.227-24.773,24.722,24.722,0,0,1,24.986,24.772C-152.056-1064.339-162.383-1053.773-177.316-1053.688Z" transform="translate(12.704 15.836)" fill="#c9c9c8"/>
        <g id="Grupo_118693" data-name="Grupo 118693" transform="translate(-242.417 -1083.203)">
          <path id="Trazado_167101" data-name="Trazado 167101" d="M38.906-586.771a32.433,32.433,0,0,1-5.234.655c-.269.006-.607-.093-.74.29h-2.39a.74.74,0,0,1-.193-.4c.022-1.315.768-2.434,1-3.694,1.4-5.322,3.07-10.564,4.58-15.854.2-.715.427-1.424.61-2.145,1.211-3.946,2.349-7.913,3.507-11.874a6.462,6.462,0,0,1,1.193-2.857,2.547,2.547,0,0,1,1.869.146c1.56.464,3.1,1,4.638,1.524,1,.34,1.479.946,1.076,2.026-2.034,5.116-3.967,10.274-5.929,15.42-.51,1.339-.487,1.361.957,1.5,1.524.146,1.753.432,1.231,1.719-1.637,4.047-3.258,8.1-4.983,12.114C39.838-587.607,39.6-587,38.906-586.771Z" transform="translate(49.507 730.176)" fill="#2a2f4f"/>
          <path id="Trazado_167102" data-name="Trazado 167102" d="M-39.011-585.94c-1.838-.647-3.821-.42-5.679-.944-.677-.114-.971-.608-1.205-1.183-1.631-4.005-3.307-7.992-4.913-12.008-.644-1.609-.435-1.988,1.261-2.055,1.165-.046,1.178-.489.841-1.391-1.932-5.169-3.979-10.293-5.913-15.462a1.391,1.391,0,0,1,1-2.068c1.973-.643,3.9-1.434,5.931-1.9a1.19,1.19,0,0,1,.7.191,3.231,3.231,0,0,1,.722,1.6c1.277,4.48,2.61,8.944,3.947,13.407,1.565,5.572,3.286,11.1,4.865,16.665a10.876,10.876,0,0,1,.362,1.438c.139.629.408,1.215.6,1.825.31.979.255,1.764-1.024,1.88Z" transform="translate(109.203 730.29)" fill="#2a2f4f"/>
          <path id="Trazado_167103" data-name="Trazado 167103" d="M3.006-563.23c.927-.367,1.052-.978.637-1.841a16.009,16.009,0,0,1-.621-1.776c1.054-4.739,2.45-9.393,3.561-14.119a3.308,3.308,0,0,0-.618-2.517c-.858-1.5-2.069-2.792-2.552-4.5a5.714,5.714,0,0,1,5.358-2.495c.879.416,1.665,1,2.529,1.441a1.329,1.329,0,0,1,.856,1.093,16.934,16.934,0,0,1-2.423,4.23,4.1,4.1,0,0,0-.581,3.507c1.132,4.357,2.235,8.721,3.4,13.069l-1.176,3.6c-.759.41-1.636-.113-2.394.3H6.59a3.884,3.884,0,0,0-2.39,0Z" transform="translate(68.679 707.58)" fill="#3d4159"/>
          <path id="Trazado_167104" data-name="Trazado 167104" d="M252.581-845.845a7.346,7.346,0,0,1-6.189,1.777c-.492-1.049.172-2.021.2-3.036.038-1.27,1-1.657,1.933-2.178,1.326-.739,1.493-2.919.156-3.445-2.08-.818-2.144-2.486-2.415-4.175a2.328,2.328,0,0,1-.052-1.03,1.5,1.5,0,0,1,2.013-.457c2.438.622,4.582,1.661,5.725,4.089.29.615.534,1.251.8,1.877v2.987C254.356-848.042,254.171-846.518,252.581-845.845Z" transform="translate(-101.826 895.513)" fill="#d2a389"/>
          <path id="Trazado_167105" data-name="Trazado 167105" d="M-230.648-834.927a7.156,7.156,0,0,1-4.446-2.124c-1.372-.535-1.361-1.9-1.8-3v-3.286c1-2.174,2.224-4.128,4.686-4.935.275-.09.445-.5.664-.758.824.365,1.755.088,2.584.429a.523.523,0,0,1,.262.359,10.973,10.973,0,0,1-.535,3.073,1.927,1.927,0,0,1-1.168,1.441,2.144,2.144,0,0,0-1.551,1.989,1.959,1.959,0,0,0,1.6,1.906,1.394,1.394,0,0,1,1.047,1.148c.174,1.286.977,2.52.352,3.88A1.564,1.564,0,0,1-230.648-834.927Z" transform="translate(236.894 888.811)" fill="#f5c9ad"/>
          <path id="Trazado_167106" data-name="Trazado 167106" d="M7-499.909a2.235,2.235,0,0,1,2.39,0Z" transform="translate(65.876 644.259)" fill="#455570"/>
          <path id="Trazado_167107" data-name="Trazado 167107" d="M23-499.863c.735-.595,1.6-.168,2.394-.3q0,.152,0,.3Z" transform="translate(54.661 644.213)" fill="#45546f"/>
          <path id="Trazado_167108" data-name="Trazado 167108" d="M-165.369-962.8l1.13-.332a31.153,31.153,0,0,1,12.352,2.2c9.608,4.185,15.367,11.415,17.025,21.818.091.568.112,1.111.855,1.167.074.5-.352.533-.647.65a23.366,23.366,0,0,0-8.38,5.753,3.785,3.785,0,0,1-1.9,1.366,17.476,17.476,0,0,1-5-.614c-.868-.309-1.747-.586-2.621-.881a17.872,17.872,0,0,1-11.033-13.121,16.078,16.078,0,0,1-12.966,9.174,3.124,3.124,0,0,1-2.311-.224c-.582-1.022-.079-2.065.036-3.062.848-7.334,2.947-14.2,7.882-19.92A13.983,13.983,0,0,1-165.369-962.8Z" transform="translate(196.399 968.824)" fill="#cb7a3b"/>
          <path id="Trazado_167109" data-name="Trazado 167109" d="M-25.6-887.372a5.41,5.41,0,0,1,2.353-.169c4.362.1,8.729-.246,13.089.2a23.709,23.709,0,0,1,4.623,1c.73.226.962.16.958-.636a5.029,5.029,0,0,1,.232-2.2,1.364,1.364,0,0,1,.4,1.36,2.148,2.148,0,0,0,1.638,2.446,18.93,18.93,0,0,1,4.392,2.752c.755.612,1.57,1.147,2.292,1.8,4.745,5.085,7.437,11,7.263,18.061-.11,3.613.231,7.226-.073,10.834a1.417,1.417,0,0,1-.24.489,10.114,10.114,0,0,1-5.273.233c-.875-.109-.9-.961-.925-1.662-.055-1.84-.006-3.682-.025-5.523-.019-1.765-.126-1.865-1.908-2.193q-18.13-3.339-36.25-6.735a3.1,3.1,0,0,1-1.8-.608,2.424,2.424,0,0,1,.006-2.157c2.688-8.4,8.178-14.022,16.6-16.736.671-.216,1.381-.159,1.917-.317a57.98,57.98,0,0,1-8.357.178A1.006,1.006,0,0,1-25.6-887.372Z" transform="translate(95.412 916.97)" fill="#3d4159"/>
          <path id="Trazado_167110" data-name="Trazado 167110" d="M127.184-976.154c4.664.086,9.327.159,13.99.27a2.135,2.135,0,0,0,1.7-.726c1.668-1.7,3.4-3.342,5.033-5.078.666-.709.987-.6,1.587.078a16.6,16.6,0,0,1,.659,20.887c-.325.428-.8.763-.906,1.339-1.248,1.962-3.249,2.942-5.208,3.964a20.308,20.308,0,0,1-2.193.889c-5.4,1.433-10.442.723-14.93-2.7a6.757,6.757,0,0,0-4.523-1.452c-3.567.084-7.138.027-10.707.029a3.843,3.843,0,0,1-1.776-.287,3.171,3.171,0,0,1-.4-2.7,16.425,16.425,0,0,1,10.107-13.5,8.22,8.22,0,0,1,2.163-.485,70.851,70.851,0,0,1-9.3.178,1.028,1.028,0,0,1-.909-.417,4.682,4.682,0,0,1,2.339-.236C118.331-976.141,122.758-976.142,127.184-976.154Z" transform="translate(-5.917 982.172)" fill="#3d4159"/>
          <path id="Trazado_167111" data-name="Trazado 167111" d="M-59.579-883.15h10.211a26.111,26.111,0,0,0-12.582,6.626,21.963,21.963,0,0,0-5.614,8.282,11.752,11.752,0,0,0-1.187,4.252,1.239,1.239,0,0,1-1.041.322c-1.86-.306-3.7-.714-5.566-1.009-1.381-.219-1.573-.089-1.584,1.337-.033,4.269-.01,8.539-.013,12.808,0,.6.018,1.192-.018,1.787-.092,1.5-.412,1.915-1.866,1.908s-2.977.4-4.37-.4a3.468,3.468,0,0,1-.353-2.014c0-3.611-.024-7.222,0-10.831a23.428,23.428,0,0,1,.931-5.259,26.425,26.425,0,0,1,3.412-7.49,3.607,3.607,0,0,1,1.514-1.573c2.6-2.67,5.325-5.177,8.821-6.664l1.885-.8A21.684,21.684,0,0,1-59.579-883.15Z" transform="translate(129.387 912.748)" fill="#2a2f4f"/>
          <path id="Trazado_167112" data-name="Trazado 167112" d="M82.44-961.085H93.546c-7.72,1.962-13.2,8.638-12.82,16.73-.742.732-1.685.432-2.549.467-1.683.069-1.818.141-2.1,1.836-.422,2.549-.736,5.114-1.166,7.662-.107.633-.107,1.305-.721,1.723a21.808,21.808,0,0,0-5.579-3.282,1.029,1.029,0,0,1-.723-1.136c0-.839-.023-1.678-.037-2.517a47.311,47.311,0,0,1,.652-9.159C69.851-955.154,76.1-960.672,82.44-961.085Z" transform="translate(23.21 967.386)" fill="#2a2f4f"/>
          <path id="Trazado_167113" data-name="Trazado 167113" d="M-140.039-698.711c-2,.688-3.978,1.435-6,2.039-.968.289-1.024.74-.631,1.493-.128.588-.6.889-1.028,1.224a23.424,23.424,0,0,0-9.1,15.355,41.548,41.548,0,0,0-.494,7.406,2.873,2.873,0,0,1-.321,2.009,74.688,74.688,0,0,1-17.695-11.454,77.97,77.97,0,0,1-10.431-11.051,9.549,9.549,0,0,1-.615-1.009,47.746,47.746,0,0,1-.134-5.946c-.016-5.956-.122-11.916.029-17.868A20.106,20.106,0,0,1-180.5-730.4a2.579,2.579,0,0,1,1.466-.955c.789.222.8.936.95,1.544.563,2.367,1.066,4.748,1.572,7.128,1.155,4.888,2.131,9.815,3.207,14.721.4,1.843,1.011,3.519,2.755,4.575a5.61,5.61,0,0,0,8.485-3.478c.711-2.949,1.3-5.927,1.928-8.894a7.016,7.016,0,0,1,.849-2.681c1.022-.629,2.118.142,3.157-.171a2.824,2.824,0,0,0,.734-.118c2.693-1.035,2.632-.506,3.7,1.606a30.546,30.546,0,0,0,10.478,11.589c.62.417,1.3.764,1.5,1.575C-139.682-702.2-139.222-700.415-140.039-698.711Z" transform="translate(201.584 806.301)" fill="#66b9ec"/>
          <path id="Trazado_167114" data-name="Trazado 167114" d="M-89.735-584.3c.052-3.625-.149-7.272.645-10.843A24.1,24.1,0,0,1-78.8-610.292c2.09,5.463,4.162,10.932,6.289,16.381.337.865.1,1-.708,1.03-2.271.086-2.287.122-1.436,2.231Q-72.4-585.066-70.1-579.5c.221.538.348,1.149.9,1.489A71.793,71.793,0,0,1-89.735-584.3Z" transform="translate(133.708 721.415)" fill="#3d4159"/>
          <path id="Trazado_167115" data-name="Trazado 167115" d="M-198.922-741.155a19.406,19.406,0,0,0-7.122,14.953c-.157,7.3-.034,14.607-.051,21.911,0,.57.219,1.2-.281,1.7a66.6,66.6,0,0,1-8.718-15.01c.017-2.137.13-4.277.036-6.409a21.007,21.007,0,0,1,15.064-21.451A4.286,4.286,0,0,1-198.922-741.155Z" transform="translate(221.608 816.194)" fill="#2ba0ce"/>
          <path id="Trazado_167116" data-name="Trazado 167116" d="M126-751.216a21.787,21.787,0,0,1,16.108,21c-.045,2.588-.016,5.177.006,7.766,0,.471-.2,1,.251,1.405a76.563,76.563,0,0,1-13.492,20.38,76.789,76.789,0,0,1-22.954,17.193,10.118,10.118,0,0,1-.967.365,4.259,4.259,0,0,1-.289-2.331,43.687,43.687,0,0,0-.779-8.6A24.08,24.08,0,0,0,96.8-706.42c-.536-.5-1.195-.925-1.356-1.731-.2-5.511-.146-11.021-.033-16.529a3.056,3.056,0,0,1,.694-1.6,33.264,33.264,0,0,0,3.664-6.041,1.207,1.207,0,0,1,1.088-.859c.828.088,1.593.466,2.427.53a7.515,7.515,0,0,0,7.3-2.841c.455-.542.724-1.353,1.686-1.16,1.061.6.918,1.537.671,2.489-1.051,4.042-2.188,8.06-3.277,12.09q-1.615,5.974-3.263,11.939a3.1,3.1,0,0,0,.625,3.032c1.794,2.257,3.579,4.521,5.386,6.768.866,1.077,1.037,1.066,1.9.012,1.887-2.31,3.7-4.68,5.568-7a2.666,2.666,0,0,0,.489-2.624c-2.078-7.574-4.089-15.167-6.244-22.719a5.384,5.384,0,0,1,.807-5.32c.749-.916,1.052-2.157,2.081-2.874,1.487-.217,2.479.865,3.623,1.467,2.266,1.191,2.223,1.255,2.735-1.218.623-3.01,1.3-6.008,1.926-9.018A2.305,2.305,0,0,1,126-751.216Z" transform="translate(3.958 820.229)" fill="#dce7ec"/>
          <path id="Trazado_167117" data-name="Trazado 167117" d="M70.344-609.038a24.646,24.646,0,0,1,8.792,15.4,69.167,69.167,0,0,1,.348,9.358,73.275,73.275,0,0,1-20.5,6.288c1.72-3.026,2.7-6.373,4.136-9.524.656-1.441,1.178-2.944,1.818-4.393.32-.724.181-.935-.615-.986-2.5-.159-2.458-.171-1.532-2.532,1.737-4.427,3.417-8.877,5.126-13.315.2-.508.429-1,.645-1.5C69.547-610.42,69.9-609.663,70.344-609.038Z" transform="translate(29.428 721.4)" fill="#3d4159"/>
          <path id="Trazado_167118" data-name="Trazado 167118" d="M-192.388-962.023c.08.108.524.162.255.271-5.252,2.114-7.967,6.511-10.156,11.329a45.28,45.28,0,0,0-3.521,15.269,1.292,1.292,0,0,1-1.155.41,16.462,16.462,0,0,1-6.179-1.949c-.848-.5-1.12-.365-1.258.678-.293,2.221-.173,4.441-.261,6.66-.024.6.313,1.445-.68,1.7v0a1.064,1.064,0,0,0-.7-.144c-1.617-.047-1.617-.047-1.635-1.684.724-1.2.389-2.522.378-3.781a27.981,27.981,0,0,1,4.166-15.715C-208.277-956.557-201.418-961.039-192.388-962.023Z" transform="translate(223.418 968.044)" fill="#a25418"/>
          <path id="Trazado_167119" data-name="Trazado 167119" d="M-218.6-853.122c.125,1.443,1.223,1.643,2.333,1.829-.9-.226-2.041.607-2.726-.6Z" transform="translate(224.341 891.684)" fill="#e9b498"/>
          <path id="Trazado_167120" data-name="Trazado 167120" d="M218.211-901.411a27.21,27.21,0,0,0,7.137-4.5l.635,9.409a9.791,9.791,0,0,1,.471,3.887,8.017,8.017,0,0,1-.3,1.888c-1.594,1.334-3.621,1.52-5.521,1.963-1,.232-1.1-.837-1.213-1.531q-.523-3.3-1-6.613c-.151-1.029-.319-2.057-.437-3.09A1.658,1.658,0,0,1,218.211-901.411Z" transform="translate(-82.023 928.699)" fill="#2a2f4f"/>
          <path id="Trazado_167121" data-name="Trazado 167121" d="M132.239-900.715l1.843,12.49,5.941-1.749c.864,1.53.4,3.193.4,4.786a21.814,21.814,0,0,1-1.378,6.8,2.441,2.441,0,0,1-.818,1.208,27.227,27.227,0,0,1-16.489,15.283,1.11,1.11,0,0,1-.537.328,8.239,8.239,0,0,0-.815.328,7.792,7.792,0,0,1-5.249.147,30.218,30.218,0,0,1-10.185-5.108c-1.458-1.13-2.414-2.386-2.149-4.4a11.465,11.465,0,0,0-.062-3.552c.016-6.862-2.65-12.615-7.265-17.561a3.275,3.275,0,0,1,.121-2.175,28.75,28.75,0,0,1,4.238-9.243,4.019,4.019,0,0,1,1.955-1.738q6.414-.023,12.829-.05a1.685,1.685,0,0,1,1.233.39c4.676,4.172,10.072,5.317,16.1,3.8A1.066,1.066,0,0,1,132.239-900.715Z" transform="translate(3.949 928.002)" fill="#d2a388"/>
          <path id="Trazado_167122" data-name="Trazado 167122" d="M164.273-760.935h.482c1.262,1.209,3.1,1.565,4.278,2.9-.873,4.141-1.772,8.276-2.6,12.426-.191.957-.463,1.1-1.331.646-1.648-.867-3.14-2.044-4.969-2.557a6.407,6.407,0,0,1-3.458-2.206c.324-.673,1.027-.6,1.586-.808a7.468,7.468,0,0,0,5.58-7.136C163.9-758.757,163.461-759.936,164.273-760.935Z" transform="translate(-39.072 827.044)" fill="#bed4dd"/>
          <path id="Trazado_167123" data-name="Trazado 167123" d="M238.894-846.31a31,31,0,0,0,1.8-12.8q.032-.9.063-1.79c.37.306.045.925.532,1.179.105.531.209,1.063.317,1.593.281,1.394.2,2.913,2.193,3.324.9.185,1.12,1.282,1.082,2.246a2.015,2.015,0,0,1-1.34,2.109,2.041,2.041,0,0,0-1.727,2.306,11.914,11.914,0,0,1-.526,2.449C240.392-845.521,239.709-846.172,238.894-846.31Z" transform="translate(-96.722 897.137)" fill="#be8e75"/>
          <path id="Trazado_167124" data-name="Trazado 167124" d="M-218.528-871.363c.526-.415.326-1,.324-1.518a64.433,64.433,0,0,1,.388-8.856,18.554,18.554,0,0,0,7.646,2.948,2.486,2.486,0,0,1,.386,1.848c.012,3.085.006,6.169.005,9.254a9.736,9.736,0,0,0,.528,3.447c1.753-1.139,3.421-1.274,4.952.2a3.2,3.2,0,0,1,.73,3.709,3.562,3.562,0,0,1-4,2.149,23.258,23.258,0,0,0,6.586,8.946A24.773,24.773,0,0,0-191.03-844a8.3,8.3,0,0,0,4.406.116c.55-.152,1.152-.427,1.693.08a2.9,2.9,0,0,1,.1,2.174,2.814,2.814,0,0,1-2.081,1.294,29.98,29.98,0,0,1-6.766,1.05c-1.224.042-1.33.226-.851,1.328a7.46,7.46,0,0,0,2.808,3.214c.432.291,1.051.425,1.078,1.117-1.255,1.133-2.717.7-4.033.337a7.826,7.826,0,0,1-5.744-7.621,17.411,17.411,0,0,0-.163-2.949c-1.976-1.081-4.138-1.789-6.044-3.011-2.58-1.127-4.394-3.152-6.139-5.253a19.777,19.777,0,0,1-2.913-4.483c-.447-1-.867-1.666-2.079-1.109a.611.611,0,0,1-.786-.245c-.185-.708-.427-1.406-.541-2.125-.182-1.144-.2-2.107-1.762-2.55a2.148,2.148,0,0,1-.247-3.885c1.881-.765,1.865-2.271,2.257-3.718C-218.739-870.614-218.632-870.988-218.528-871.363Z" transform="translate(226.602 911.749)" fill="#e9b498"/>
          <path id="Trazado_167125" data-name="Trazado 167125" d="M-214.324-803.024c2.018-.986,2.733.144,3.56,1.832a25.92,25.92,0,0,0,8.357,9.259c-4.215.013-8.431.013-12.646.054-.8.007-1.156-.21-1.142-1.082.052-3.322.046-6.645.061-9.967Z" transform="translate(222.38 856.814)" fill="#a25418"/>
          <path id="Trazado_167126" data-name="Trazado 167126" d="M-160.163-754.973c.982.255.555,1.063.547,1.608a9.655,9.655,0,0,0,1.542,5.925,7.146,7.146,0,0,0,7.744,2.62c1,.185,1.031.256.853,1.78-.353.69-.746.249-1.054-.013a2.482,2.482,0,0,0-3.145-.152c-2.112,1.193-4.219,2.4-6.367,3.525-.432.227-.813.585-1.357.526q-.89-3.85-1.783-7.7c-.077-.33-.207-.648-.312-.972a11.807,11.807,0,0,0-1.074-4.3C-163.292-753.378-161.542-753.888-160.163-754.973Z" transform="translate(186.18 822.863)" fill="#d7d4cf"/>
          <path id="Trazado_167127" data-name="Trazado 167127" d="M25.248-561.592c-.621.05-.535-.453-.627-.809-1.141-4.41-2.265-8.826-3.432-13.229a2.122,2.122,0,0,1,.368-1.81c1.062-1.675,2.108-3.361,3.16-5.042a.706.706,0,0,1,.829-.067,22.364,22.364,0,0,1,4.82,2.786c-.894,4.124-2.329,8.1-3.434,12.16C26.387-565.595,25.811-563.6,25.248-561.592Z" transform="translate(55.98 702.034)" fill="#66b9ec"/>
          <path id="Trazado_167128" data-name="Trazado 167128" d="M70.128-646.782l-1.782-1.208c.306-.782.3-1.274-.744-1.548-2.17-.573-4.293-1.325-6.436-2a2.911,2.911,0,0,1-2.353-1.492c-.323-2.6-.224-2.745,1.984-3.982a34.865,34.865,0,0,0,8.148-6.332c.323-.337.533-.877,1.166-.728Q70.119-655.429,70.128-646.782Z" transform="translate(29.645 759.145)" fill="#bed4dd"/>
          <path id="Trazado_167129" data-name="Trazado 167129" d="M33.343-631.067l2.108,1.447q-1.945,6.587-3.894,13.173a3.588,3.588,0,0,1-.57,1.494c-2.05-.56-3.6-2.164-5.649-2.719-.935-.978-2.284-1.309-3.322-2.127-.091-.465.305-.57.569-.776a4.43,4.43,0,0,1,.783-.357c4.066-1.257,6.092-4.259,5.99-8.886a7.769,7.769,0,0,1,.2-2.641.755.755,0,0,1,.568-.379,5.788,5.788,0,0,1,2.936,1.44Q33.207-631.239,33.343-631.067Z" transform="translate(55.36 737.223)" fill="#2ba0ce"/>
          <path id="Trazado_167130" data-name="Trazado 167130" d="M-8.571-582.471c1.026,1.641,2.033,3.3,3.089,4.918a2.51,2.51,0,0,1,.35,2.227c-1.152,4.258-2.215,8.541-3.317,12.813-.117.454-.019,1.038-.651,1.223q-2.329-8.065-4.655-16.131c-.191-.665-.337-1.342-.5-2.014a.521.521,0,0,1,.273-.627,40.56,40.56,0,0,1,4.578-2.476A.742.742,0,0,1-8.571-582.471Z" transform="translate(80.803 702.023)" fill="#66b9ec"/>
          <path id="Trazado_167131" data-name="Trazado 167131" d="M-19-617.648a32.249,32.249,0,0,0-5.688,3.035l-4.45-14.964c-.029-.147-.045-.323.077-.407a15.5,15.5,0,0,1,5.224-2.82c.767.185.765.821.8,1.409.051.888,0,1.779.026,2.668a8.138,8.138,0,0,0,7.942,7.991c.623.021,1.305-.129,1.8.448l-.583.514a1.561,1.561,0,0,0-1.664-.027C-16.655-619.038-18.014-618.641-19-617.648Z" transform="translate(91.236 737.2)" fill="#2ba0ce"/>
          <path id="Trazado_167132" data-name="Trazado 167132" d="M-156.916-860.815c-3.478,1.423-6.688.254-9.858-1.067a25.237,25.237,0,0,1-13.26-13.76c1.2.221,2.35.4,3.35-.486a3.047,3.047,0,0,0,.546-4.361,2.969,2.969,0,0,0-4.448-.419c-.246.2-.411.663-.837.407-.346-.207-.236-.615-.28-.953-.614-4.751-.158-9.523-.29-14.284l1.174-.07c7.243.028,12.278-3.388,15.377-10.1,1.134,6.824,4.9,11.324,10.9,14.058-.041.746-.682.564-1.1.671a4.1,4.1,0,0,0-1.928,1c-1.19,1.172-1.133,1.839.244,2.988a2.636,2.636,0,0,1-.009,1.033,2.5,2.5,0,0,0,2.443,2.923c1.581-.012,2.459-1.106,2.359-2.939-.011-.2-.069-.391-.094-.589a1.288,1.288,0,0,1,.03-.416c1.5-1.162,1.5-1.16.441-2.916-.166-.275-.467-.531-.217-.908a.142.142,0,0,1,.112-.039.517.517,0,0,1,.137.048l5.385.632a30.056,30.056,0,0,0-4.555,8.923c-1.613,1.47-2.125,3.128-.869,5.088l.041,13.131c.166.331-.027.567-.214.8a17.836,17.836,0,0,1-3.966,1.778A.7.7,0,0,1-156.916-860.815Z" transform="translate(198.427 928.698)" fill="#f5c9ad"/>
          <path id="Trazado_167133" data-name="Trazado 167133" d="M-103.487-854.059c-.336-.639-1.76.027-1.532-1.352a4.334,4.334,0,0,1,3.2-3.173c.423-.075.909.135,1.256-.281A7.626,7.626,0,0,1-98.14-858c-.067.934.98,1.217,1.169,2.048.2.888.576,1.707-.906,1.56a.626.626,0,0,0-.6.371.922.922,0,0,1-.755-.306c-1.408-1.016-1.9-1.033-3.327-.1C-102.845-854.241-103.1-853.978-103.487-854.059Z" transform="translate(144.443 895.711)" fill="#e9b498"/>
          <path id="Trazado_167134" data-name="Trazado 167134" d="M-21.865-763.206l-.555.092a6.91,6.91,0,0,1-5.25,1.052,30.376,30.376,0,0,1-24.12-24.627,85.345,85.345,0,0,1-.462-17.977A30.208,30.208,0,0,1-48.9-817.527a2.914,2.914,0,0,1,1.042-1.414l.89-.059c3.484.934,7.059,1.411,10.594,2.081q14.43,2.733,28.882,5.354c.88.159.857.606.855,1.224-.007,2.287.053,4.576-.027,6.86-.038,1.08.343,1.364,1.357,1.306,1.437-.082,2.882-.033,4.324-.04.611.6.368,1.38.458,2.09.005,1.438.035,2.877-.018,4.315a37.366,37.366,0,0,1-1.884,14.5,3.628,3.628,0,0,1-.336.821c-1.1.291-.931,1.415-1.356,2.134-1.153,1.952-2.407,3.83-3.729,5.667a32.9,32.9,0,0,1-10.2,7.913,1.309,1.309,0,0,0-.849,1.393c.037.591,0,1.187,0,1.78a.388.388,0,0,1-.268-.11Z" transform="translate(107.601 867.759)" fill="#f5c9ad"/>
          <path id="Trazado_167135" data-name="Trazado 167135" d="M132.63-778.964c-.413.42-1.112.1-1.5.578a.644.644,0,0,1-.587.2,3.2,3.2,0,0,1-1.026-.358,3.768,3.768,0,0,1-1.007-1.245,7.664,7.664,0,0,0-4.156-3.328,2.088,2.088,0,0,1-1.23-.746,6.226,6.226,0,0,1-.47-2.982,4.577,4.577,0,0,0-.3-2.414c-.672-.542-1.661-.558-2.2-1.321q-.007-5.688-.014-11.376a5.475,5.475,0,0,1,.2,3.205,4.386,4.386,0,0,0,2.046,4.287,28.732,28.732,0,0,0,12,5.575c1.26.257,2.425-.332,3.632-.541a2.059,2.059,0,0,1-.625,3.258,26.574,26.574,0,0,1-7.43,1.334c-1.611.08-1.826.415-1.078,1.881a7.839,7.839,0,0,0,2.733,2.873C132.031-779.8,132.673-779.684,132.63-778.964Z" transform="translate(-13.451 855.807)" fill="#be8d75"/>
          <path id="Trazado_167136" data-name="Trazado 167136" d="M97.4-904.992c-3.466,3.732-5.28,8.256-6.314,13.156l-2.019-1.57c.485-3.174,1-6.344,1.444-9.523.294-2.094.251-2.093,2.416-2.1.891,0,1.783-.041,2.674-.063Z" transform="translate(8.335 928.127)" fill="#be8d75"/>
          <path id="Trazado_167137" data-name="Trazado 167137" d="M-80.446-822.282a58.182,58.182,0,0,0-3.168,7.994,39.591,39.591,0,0,0-.961,8.07,99.632,99.632,0,0,0,.258,14.121,28.974,28.974,0,0,0,5.881,14.869,30.5,30.5,0,0,0,17.044,11.222c2.258.587,4.279-.01,6.383-.449q-.034,1.484-.068,2.968a3.2,3.2,0,0,1-1.8.965,28.59,28.59,0,0,1-8.344,1.227c-1.442-.017-1.579.186-1.045,1.539a7.76,7.76,0,0,0,3.388,4c.512.3,1.266.413,1.264,1.253l-.615.314c-4.212.3-7.482-1.149-9.419-5.071-.919-1.86-.747-3.864-.785-5.846-.01-.521.339-1.259-.575-1.45l-5.622-2.6a30.434,30.434,0,0,1-12.58-13.827c-.324-.714-.663-1-1.461-.6a2.828,2.828,0,0,1-1.828.42c-.887-.828-.775-2-1.007-3.042a2.288,2.288,0,0,0-1.519-1.969,3.006,3.006,0,0,1-1.949-2.918,2.724,2.724,0,0,1,1.694-2.75,2.828,2.828,0,0,0,1.845-2.6,10.251,10.251,0,0,1,.691-2.582,3.583,3.583,0,0,0,.443-2.018,23.017,23.017,0,0,1,.114-4.025l.305-.558c1.441.014,2.885-.032,4.32.063,1.057.07,1.337-.3,1.326-1.337-.05-5.169,0-10.338-.043-15.507-.01-1.141.137-1.6,1.456-1.247C-84.731-823.079-82.516-823.016-80.446-822.282Z" transform="translate(140.191 871.099)" fill="#e9b498"/>
          <path id="Trazado_167138" data-name="Trazado 167138" d="M-84.789-818.919c-1.828-1.692-1.456-3.869.869-5.088Z" transform="translate(131.052 871.269)" fill="#e7b398"/>
          <path id="Trazado_167139" data-name="Trazado 167139" d="M-153.963-713.907a69.119,69.119,0,0,1,8.643-4.862c1.27-.624,2.209.338,2.987,1.286.452.346.4.881.48,1.352a7.5,7.5,0,0,0,4.278,5.507c.466.245,1.067.309,1.266.922-.818,3.831-1.616,7.666-2.459,11.491a6.271,6.271,0,0,1-5.858,4.88,6.123,6.123,0,0,1-5.963-4.72C-151.78-703.321-152.845-708.62-153.963-713.907Z" transform="translate(178.744 797.617)" fill="#f1efeb"/>
          <path id="Trazado_167140" data-name="Trazado 167140" d="M-121.167-729.377c-3.659-1.315-5.974-3.671-6.023-7.781-.154-.706.524-1.635-.561-2.091a8.571,8.571,0,0,1-4.442-4.713c-.345-.924-.241-1.318.888-1.29a24.051,24.051,0,0,0,8.4-1.376,6.224,6.224,0,0,0,.794-.4,1.73,1.73,0,0,0,2.474,1.335,1.548,1.548,0,0,1,1.737.477c-.3,1.447-.644,2.888-.881,4.345-.1.6-.442.645-.892.772a2.92,2.92,0,0,0-2.391,2.839c-.044,1.292.955,2.344,2.586,2.773a.809.809,0,0,1,.692.786c.26,1.455.575,2.9.869,4.348C-119-728.828-120.082-729.4-121.167-729.377Z" transform="translate(163.601 817.292)" fill="#f5c9ad"/>
          <path id="Trazado_167141" data-name="Trazado 167141" d="M137.524-723.144l.614.019c1.118.719,2.445,1.1,3.385,2.109-2.959,3.292-3.269,6.769-1.823,11.031,2.242,6.613,3.776,13.466,5.624,20.214a1.689,1.689,0,0,1-.23,1.769c-2.235,2.73-4.416,5.5-6.572,8.3-.57.739-.861.822-1.483,0-2.075-2.729-4.229-5.4-6.387-8.064a2.032,2.032,0,0,1-.406-2.042c2.277-8.276,4.492-16.57,6.775-24.844a2.076,2.076,0,0,0-.386-2.188.874.874,0,0,1-.425-1.132,16.243,16.243,0,0,0,.308-4.679C136.7-723.128,137.109-723.14,137.524-723.144Z" transform="translate(-20.462 800.545)" fill="#f64f4f"/>
          <path id="Trazado_167142" data-name="Trazado 167142" d="M130.458-736.508a7.688,7.688,0,0,1,.03,4.328c-.128.511-.4,1.01-.092,1.546-.881.034-1.009.869-1.388,1.384-1.6,2.178-5.188,3.547-7.554,2.812-.388-1.728.293-3.3.737-4.9.114-.411.594-.5.976-.605a2.447,2.447,0,0,0,1.948-2.353,2.249,2.249,0,0,0-1.755-2.318,2.116,2.116,0,0,1-1.557-1.952c-.17-1.256-.862-2.452-.423-3.778a2.238,2.238,0,0,1,2.8.044c3,.555,4.848,2.531,6.225,5.079A.574.574,0,0,1,130.458-736.508Z" transform="translate(-14.223 814.342)" fill="#f5c9ad"/>
          <path id="Trazado_167143" data-name="Trazado 167143" d="M115.921-741.292c.3,1.445.645,2.883.88,4.338.1.6.426.656.883.777a2.91,2.91,0,0,1,2.4,2.824c.058,1.312-.938,2.388-2.562,2.784-.581.141-.639.44-.726.914-.256,1.4-.575,2.794-.87,4.19a4.7,4.7,0,0,1-2.391-.634,1.11,1.11,0,0,1-.063-1.112,35.956,35.956,0,0,0,1.863-14.1A.4.4,0,0,1,115.921-741.292Z" transform="translate(-8.695 813.367)" fill="#e9b499"/>
          <path id="Trazado_167144" data-name="Trazado 167144" d="M190.711-679.478c-1.538,0-3.077-.036-4.613.015-.882.029-1.311-.245-1.214-1.179a8.2,8.2,0,0,0,0-1.338c-.044-.723.185-1.1,1-1.09,3.224.027,6.448.021,9.673,0,.68,0,1.02.233.986.947a14.029,14.029,0,0,0,0,1.636c.055.8-.338,1.028-1.073,1.014C193.886-679.5,192.3-679.478,190.711-679.478Z" transform="translate(-58.842 772.446)" fill="#bed4dd"/>
          <path id="Trazado_167145" data-name="Trazado 167145" d="M150.767-750.208c-1.828-1.106-3.609-2.258-4.416-4.392-.633-1.673-.5-1.877,1.245-1.882a26.609,26.609,0,0,0,7.134-1.091c1.947-.546,2.15-1.052,1.416-3.1a.619.619,0,0,1,.643-.269c-.228,1.768.157,3.561-.33,5.329C155.707-752.884,153.167-750.409,150.767-750.208Z" transform="translate(-31.589 827.051)" fill="#d2a388"/>
          <path id="Trazado_167146" data-name="Trazado 167146" d="M139.319-811.055a15.968,15.968,0,0,1-6.4-1.645c-.61-.33-1.2-.676-.876-1.464.346-.84,1-.933,1.852-.635a30.571,30.571,0,0,0,3.231,1.068,10.6,10.6,0,0,0,6.632-.9,3.02,3.02,0,0,1,1.272-.365,1.151,1.151,0,0,1,1.027.721c.289.518.043.838-.3,1.162a6.867,6.867,0,0,1-3.21,1.473C141.4-811.353,140.218-811.211,139.319-811.055Z" transform="translate(-21.731 864.948)" fill="#be8e75"/>
          <path id="Trazado_167147" data-name="Trazado 167147" d="M122.491-858.665a3.132,3.132,0,0,1-3.06,3.012,3.059,3.059,0,0,1-2.951-3.085,3.073,3.073,0,0,1,2.953-2.96A3.182,3.182,0,0,1,122.491-858.665Z" transform="translate(-10.886 897.697)" fill="#3e4259"/>
          <path id="Trazado_167148" data-name="Trazado 167148" d="M180.839-858.992c.018,1.863-.734,2.944-2.307,3.313a2.98,2.98,0,0,1-3.343-1.611,2.948,2.948,0,0,1,.865-3.623c1.361-1.1,3.036-.814,4.24.714a.746.746,0,0,1-.344.222,2.862,2.862,0,0,1-.582.033.864.864,0,0,0-.968.7.716.716,0,0,0,.279.778c.463.331.822.09,1.15-.248a2.628,2.628,0,0,1,.431-.393A.489.489,0,0,1,180.839-858.992Z" transform="translate(-51.845 897.613)" fill="#3e4259"/>
          <path id="Trazado_167149" data-name="Trazado 167149" d="M145.555-832.327c-.995,0-1.991.038-2.984-.012a1.291,1.291,0,0,1-1.38-1.288,1.377,1.377,0,0,1,1.368-1.336c1.937-.07,3.88-.072,5.817,0,.766.03,1.478.4,1.394,1.4-.078.93-.665,1.258-1.53,1.249-.9-.009-1.791,0-2.686,0Z" transform="translate(-28.214 878.988)" fill="#be8e75"/>
          <path id="Trazado_167150" data-name="Trazado 167150" d="M191.679-856.956l.337-.015a1.259,1.259,0,0,1,.544,1.208h-.454A.894.894,0,0,1,191.679-856.956Z" transform="translate(-63.566 894.383)" fill="#5f5e6e"/>
          <path id="Trazado_167151" data-name="Trazado 167151" d="M-93.847-750.8a4.53,4.53,0,0,0-2.758.042c-1.362.416-1.548-.161-1.433-1.26a4.215,4.215,0,0,0-.019-.594q.009-1.191.018-2.381l.572.007a9.829,9.829,0,0,1,4.208,2.41C-93.3-751.937-93.031-751.191-93.847-750.8Z" transform="translate(139.55 822.88)" fill="#d7d4cf"/>
          <path id="Trazado_167152" data-name="Trazado 167152" d="M13.242-613.055c-1.412-1.035-3.186-1.627-4.064-3.32-.089-.172-.268-.3-.359-.469-.539-1.005-1.351-2.179-.912-3.16.31-.693,1.717-.209,2.629-.232a32.39,32.39,0,0,0,9.245-1.8C20.011-617.5,17.145-613.56,13.242-613.055Z" transform="translate(65.331 729.653)" fill="#f5c9ad"/>
          <path id="Trazado_167153" data-name="Trazado 167153" d="M-138.953-795.752a13.565,13.565,0,0,1-5.757-1.419c-.678-.335-1.411-.712-.9-1.69.463-.888,1.1-.734,1.877-.367a10.668,10.668,0,0,0,9.609-.028c.805-.388,1.423-.426,1.851.449.441.9-.217,1.273-.851,1.6A13.5,13.5,0,0,1-138.953-795.752Z" transform="translate(173.007 854.098)" fill="#e9b499"/>
          <path id="Trazado_167154" data-name="Trazado 167154" d="M-167.029-853.941c-.593-.144-1.412.324-1.761-.377s.243-1.337.6-1.9a4.2,4.2,0,0,1,6.641-.677,3.8,3.8,0,0,1,1,2.111c.147,1.24-1.25.5-1.532,1.2a.755.755,0,0,1-.671-.208,2.661,2.661,0,0,0-3.583-.288A.916.916,0,0,1-167.029-853.941Z" transform="translate(189.215 895.256)" fill="#e9b498"/>
          <path id="Trazado_167155" data-name="Trazado 167155" d="M-163.612-846.592c1.986-1.62,3.2-1.533,4.949.353a2.921,2.921,0,0,1-3.294,4.154C-163.859-842.614-164.537-844.341-163.612-846.592Z" transform="translate(185.797 887.907)" fill="#3f425a"/>
          <path id="Trazado_167156" data-name="Trazado 167156" d="M-100.53-846.258c1.733-1.854,3.355-1.972,4.518-.33-.093.559-.636.35-.942.548a.79.79,0,0,0-.429.864.539.539,0,0,0,.367.43.789.789,0,0,0,.919-.3c.255-.3.264-.754.6-1.011a2.5,2.5,0,0,1-.677,3.418,2.628,2.628,0,0,1-3.311.183,2.682,2.682,0,0,1-1.2-3.227C-100.631-845.874-100.582-846.066-100.53-846.258Z" transform="translate(141.485 887.909)" fill="#3e4259"/>
          <path id="Trazado_167157" data-name="Trazado 167157" d="M-132.627-821.993c.895,0,1.791.026,2.685-.008a1.236,1.236,0,0,1,1.382,1.247c.068.785-.53,1.133-1.26,1.141-1.889.02-3.779.013-5.668,0a1.158,1.158,0,0,1-1.315-1.129c-.033-.85.533-1.236,1.343-1.25C-134.517-822.005-133.572-821.992-132.627-821.993Z" transform="translate(166.713 869.864)" fill="#e9b498"/>
          <path id="Trazado_167158" data-name="Trazado 167158" d="M-88.7-843.355c-.007.2-.007.392-.022.587-.067.894-.526,1.388-1.446,1.271a1.02,1.02,0,0,1-.948-1.266c.137-.843.589-1.346,1.553-.977.085.032.23-.093.347-.145l.493.362A.265.265,0,0,0-88.7-843.355Z" transform="translate(134.691 885.206)" fill="#f7f7f8"/>
          <path id="Trazado_167159" data-name="Trazado 167159" d="M-.145-689.364a15.948,15.948,0,0,1-6.4-1.6c-.879-.374-1.614-.969-1.112-2.056.468-1.013,1.255-.86,2.129-.433a12.482,12.482,0,0,0,11.576-.064c.853-.424,1.562-.407,2,.493s-.063,1.548-.851,1.918A16.362,16.362,0,0,1-.145-689.364Z" transform="translate(76.271 779.962)" fill="#e9b499"/>
          <path id="Trazado_167160" data-name="Trazado 167160" d="M47.454-742.589a3.417,3.417,0,0,1-3.445,3.347,3.388,3.388,0,0,1-3.265-3.518,3.353,3.353,0,0,1,3.361-3.263A3.377,3.377,0,0,1,47.454-742.589Z" transform="translate(42.219 816.588)" fill="#3e4259"/>
          <path id="Trazado_167161" data-name="Trazado 167161" d="M-18.506-742.682a3.392,3.392,0,0,1-3.346,3.44,3.4,3.4,0,0,1-3.363-3.427,3.358,3.358,0,0,1,3.275-3.353A3.353,3.353,0,0,1-18.506-742.682Z" transform="translate(88.467 816.588)" fill="#3e4259"/>
          <path id="Trazado_167162" data-name="Trazado 167162" d="M7.8-720.032q1.715,0,3.43,0a1.238,1.238,0,0,1,1.323.973,1.367,1.367,0,0,1-.719,1.637,2.453,2.453,0,0,1-1.267.376c-1.839-.011-3.679.034-5.517-.02-1.042-.031-2.053-.3-1.994-1.66s1.078-1.325,2.06-1.311C6.009-720.024,6.9-720.034,7.8-720.032Z" transform="translate(68.647 798.369)" fill="#e9b499"/>
          <path id="Trazado_167163" data-name="Trazado 167163" d="M120.569-754.979l-.586-.024q0-2.248,0-4.5l2.391-1.451c.826.144.555.8.567,1.285a17.315,17.315,0,0,0,.365,4.651A9.055,9.055,0,0,0,120.569-754.979Z" transform="translate(-13.343 827.054)" fill="#bfd4dc"/>
          <path id="Trazado_167164" data-name="Trazado 167164" d="M151.986-723.374l-.046-.714c.312.028.665-.068.873.282Z" transform="translate(-35.751 801.207)" fill="#c5c3c9"/>
          <path id="Trazado_167165" data-name="Trazado 167165" d="M127.192-857.613a1.232,1.232,0,0,1,1.308,1.152,1.183,1.183,0,0,1-1.188,1.4A1.159,1.159,0,0,1,126-856.191C125.918-857.024,126.413-857.453,127.192-857.613Z" transform="translate(-17.558 894.833)" fill="#fafafb"/>
          <path id="Trazado_167166" data-name="Trazado 167166" d="M186.967-857.364a2.135,2.135,0,0,1,.428,1.194c-.155.9-.7,1.33-1.576,1.094a1.135,1.135,0,0,1-.869-1.5C185.265-857.621,186.048-857.725,186.967-857.364Z" transform="translate(-58.855 894.79)" fill="#fafafb"/>
          <path id="Trazado_167167" data-name="Trazado 167167" d="M-153.938-841.432a1.1,1.1,0,0,1-1.179-1.2,1.105,1.105,0,0,1,1.186-1.207,1.128,1.128,0,0,1,1.208,1.2A1.149,1.149,0,0,1-153.938-841.432Z" transform="translate(179.553 885.174)" fill="#f7f7f8"/>
          <path id="Trazado_167168" data-name="Trazado 167168" d="M53.333-741.6c.825.084,1.459.451,1.486,1.342a1.334,1.334,0,0,1-1.428,1.525,1.3,1.3,0,0,1-1.416-1.382C51.946-741.018,52.519-741.436,53.333-741.6Z" transform="translate(34.344 813.488)" fill="#f9f9fa"/>
          <path id="Trazado_167169" data-name="Trazado 167169" d="M-13.065-738.654a1.385,1.385,0,0,1-1.489-1.385,1.335,1.335,0,0,1,1.489-1.474,1.325,1.325,0,0,1,1.363,1.449A1.359,1.359,0,0,1-13.065-738.654Z" transform="translate(80.993 813.427)" fill="#fbfbfb"/>
        </g>
      </g>
    </g>
  </g>
</svg>
