<svg xmlns="http://www.w3.org/2000/svg" width="162" height="166" viewBox="0 0 162 166">
  <g id="Grupo_119339" data-name="Grupo 119339" transform="translate(-1074 -806.628)">
    <circle id="Elipse_6768" data-name="Elipse 6768" cx="81" cy="81" r="81" transform="translate(1074 810.628)" fill="#4c53b5"/>
    <g id="Grupo_118700" data-name="Grupo 118700" transform="translate(2026.34 1793.859)">
      <path id="Trazado_167197" data-name="Trazado 167197" d="M-669.755-834.749c3.732-3.7,7.6-7.27,11.154-11.134,2.666-2.9,6.817-2.248,7.961,1.879.747,2.692,1.751,5.312,2.594,7.978a1.738,1.738,0,0,0,1.259,1.266c2.577.817,5.121,1.739,7.71,2.512a5.569,5.569,0,0,1,3.957,3.288v2.216a4.848,4.848,0,0,1-1.6,2.784q-5.558,5.5-11.051,11.059c-.816.808-1.656,1.593-2.426,2.44a5.178,5.178,0,0,1-5.1,1.688c-2.485-.831-5.005-1.571-7.447-2.515-1.357-.525-2.371-.438-3.224.772a3.708,3.708,0,0,1-.481.493c-2.1,2.033-4.153,4.123-6.213,6.2-3.082,3.05-6.107,6.156-9.217,9.177-.944.918-1.969,1.9-3.511,1.143a1.339,1.339,0,0,1-.194-.42c-.2-2.952-.111-5.9-.056-8.852a1.938,1.938,0,0,1,.077-.438,6.374,6.374,0,0,1,1.684-1.967c1.657-1.65,3.3-3.311,4.806-5.1A82.657,82.657,0,0,0-672.9-816.2c1.744-1.2,2-2.643,1.156-4.614a58.321,58.321,0,0,1-2.234-6.678,4.328,4.328,0,0,1,1.172-4.543C-671.854-833.006-671.066-834.178-669.755-834.749Z" transform="translate(-155.22 -87.888)" fill="#004691"/>
      <path id="Trazado_167198" data-name="Trazado 167198" d="M-757.661-741.414a6.242,6.242,0,0,0-2.726-.654,41.9,41.9,0,0,1-17.273-7.654c-2.364-1.025-3.966-2.978-5.6-4.815a39.976,39.976,0,0,1-9.34-17.947,32.075,32.075,0,0,1-.91-6.835,35.765,35.765,0,0,1,.287-8.166,39.426,39.426,0,0,1,6.427-16.562,40.325,40.325,0,0,1,7.768-8.657,39.021,39.021,0,0,1,21.9-9.177c1.309-.119,2.623-.588,3.917.072l-.025.1a1.47,1.47,0,0,1,.408,1.129c0,2.238.14,4.477-.08,6.711a1.309,1.309,0,0,1-.2.427c-1.088.644-2.339.435-3.5.564a30.584,30.584,0,0,0-18.643,8.9,30.409,30.409,0,0,0-9.224,20.616,30.55,30.55,0,0,0,6.52,21.065,30.961,30.961,0,0,0,21.247,11.983,11.847,11.847,0,0,1,3.535.522,1.2,1.2,0,0,1,.244.423,59.006,59.006,0,0,1,.108,6.823,1.632,1.632,0,0,1-.4,1.133h-.277a2.12,2.12,0,0,0-1.662,0Z" transform="translate(-87.26 -103.952)" fill="#ff004c"/>
      <path id="Trazado_167199" data-name="Trazado 167199" d="M-684.524-698.743q0-4.117.01-8.235c.337-.522.884-.421,1.374-.44a31.581,31.581,0,0,0,30.05-27.346,31.236,31.236,0,0,0-1.267-13.787c-.181-.585-.613-1.173-.2-1.834a4.756,4.756,0,0,0,4.853-1.589c.766-.856,1.64-1.616,2.466-2.419a41.9,41.9,0,0,1,2.94,12.986c.641,13.138-3.978,24.1-13.76,32.811a38.091,38.091,0,0,1-21.876,9.6c-.189.02-.36.052-.437.255Z" transform="translate(-155.964 -146.622)" fill="#ff2f6d"/>
      <path id="Trazado_167200" data-name="Trazado 167200" d="M-689.761-604.641a1.251,1.251,0,0,1,1.662,0Z" transform="translate(-152.667 -240.725)" fill="#fe861a"/>
      <path id="Trazado_167201" data-name="Trazado 167201" d="M-886.467-853.69q-20.768.006-41.537.007a4.287,4.287,0,0,1-4.188-4.257q-.008-58.359.006-116.718c0-5.133,4.5-10.672,9.5-12a19.579,19.579,0,0,1,5.74-.554c6.94.354,12.287,7.431,11.773,13.923-.156,1.968-.025,3.958-.023,5.938a9.262,9.262,0,0,0,.077,1.516,3.634,3.634,0,0,0,3.952,3.422c4.328.028,8.657-.007,12.985.021.753,0,1.623-.147,2,.828.209,4.355.064,8.711.081,13.066.009,2.29.131,4.584-.088,6.87-.229.685-.877.743-1.429.947a3.6,3.6,0,0,0-2.651,3.628,3.594,3.594,0,0,0,2.676,3.607c.51.187,1.1.243,1.366.84a27.6,27.6,0,0,1,.125,4.8c0,3.666.079,7.333-.04,11a1.33,1.33,0,0,1-.157.436c-.341.438-.88.455-1.351.616a3.6,3.6,0,0,0-2.633,3.624,3.587,3.587,0,0,0,2.646,3.614,3.253,3.253,0,0,1,1.266.527,1.389,1.389,0,0,1,.207.434c.24,4.964.1,9.928.076,14.891a1.363,1.363,0,0,1-1.039,1.447c-.386.244-.823.389-1.228.6a3.509,3.509,0,0,0-1.911,3.766A3.337,3.337,0,0,0-887.9-883.8c.668.247,1.472.3,1.737,1.163a6.4,6.4,0,0,1,.132,1.653q.007,12.59,0,25.181A2.949,2.949,0,0,1-886.467-853.69Z" fill="#ecf4fe"/>
      <path id="Trazado_167202" data-name="Trazado 167202" d="M-860.539-961.7c-.41-.448-.951-.267-1.435-.268-4.422-.013-8.848-.111-13.266.029a4.2,4.2,0,0,1-4.4-4.4c-.062-2.532-.084-5.07,0-7.6.206-6.257-4.817-11.989-10.9-12.992a1.651,1.651,0,0,1-.465-.251l30.484.025a3.129,3.129,0,0,1,.425,2.254c.014,6.505,0,13.01.01,19.516,0,2.89.082,2.963,2.919,2.963q24.637,0,49.273.01c.852,0,1.771-.218,2.511.458-1.094.536-2.257.194-3.385.242-1.518.065-3.044.071-4.562,0-1-.048-1.238.343-1.233,1.279.034,6.039.015,12.077.018,18.116q0,8.3.016,16.594a41.15,41.15,0,0,0-25.879,9.509,6.351,6.351,0,0,1-2.427.414c-5.1-.013-10.209,0-15.314-.013a3.28,3.28,0,0,1-2.129-.377,19.614,19.614,0,0,1-.106-3.829c-.005-4.26-.05-8.522.02-12.782.615-.691,1.449-.5,2.207-.5q12.184-.026,24.368-.011a11.1,11.1,0,0,0,1.934-.081,3.894,3.894,0,0,0,3.179-3.68,3.9,3.9,0,0,0-3.248-3.62,12.46,12.46,0,0,0-1.935-.07q-12.115,0-24.229-.01c-.765,0-1.586.171-2.244-.435-.138-6.333-.019-12.666-.067-19A2.941,2.941,0,0,0-860.539-961.7Z" transform="translate(-25.936 -0.027)" fill="#cde7fe"/>
      <path id="Trazado_167203" data-name="Trazado 167203" d="M-753.566-961.981-806.428-962c-2.154,0-2.284-.113-2.285-2.354q-.008-11.417.01-22.833c15.458-.008,30.916-.079,46.374.007,5.873.033,11.55,5.668,12.084,11.528a45.528,45.528,0,0,1-.013,10.461A3.574,3.574,0,0,1-753.566-961.981Z" transform="translate(-77.759 -0.008)" fill="#add9fe"/>
      <path id="Trazado_167204" data-name="Trazado 167204" d="M-808.714-677.3q-.005-14.682-.011-29.364a1.03,1.03,0,0,1,.428-.283c1.859-.087,3.733-.467,5.555.258a40.485,40.485,0,0,0,8.557,22.375,48.507,48.507,0,0,0,7.016,7.03Z" transform="translate(-77.753 -176.386)" fill="#cde7fe"/>
      <path id="Trazado_167205" data-name="Trazado 167205" d="M-684.528-812.808l-.019-8.187a35.882,35.882,0,0,1,15.522,3.028c-.861.894-1.7,1.806-2.588,2.677a4.339,4.339,0,0,0-1.34,4.506c-.577.438-1.148.132-1.7-.042a29.61,29.61,0,0,0-8.507-1.519C-683.655-812.352-684.193-812.3-684.528-812.808Z" transform="translate(-155.95 -104.67)" fill="#fe4800"/>
      <path id="Trazado_167206" data-name="Trazado 167206" d="M-655.345-748.485a32.412,32.412,0,0,1,2.126,11.993,31.906,31.906,0,0,1-7.535,19.973,32.169,32.169,0,0,1-21.238,11.326c-1.09.143-2.207.081-3.311.114l-.012-.1a1.251,1.251,0,0,1-.376-.86,64.657,64.657,0,0,1,.108-8.47c.333-.745,1.029-.649,1.66-.709,8.427-.795,14.745-4.862,18.429-12.492,3.239-6.707,2.8-13.477-.68-20.053-.274-.517-.734-.974-.592-1.644,1.971-2.312,1.973-2.32,4.739-1.381C-659.8-750.031-657.573-749.253-655.345-748.485Z" transform="translate(-155.174 -148.523)" fill="#febf10"/>
      <path id="Trazado_167207" data-name="Trazado 167207" d="M-666.748-746.063a20.951,20.951,0,0,1,3.8,12.34,21.689,21.689,0,0,1-9.2,17.98,21.312,21.312,0,0,1-13.148,4.232c-.058-.061-.115-.123-.174-.184a34.842,34.842,0,0,1-.132-7.74,1.237,1.237,0,0,1,.209-.416,2.137,2.137,0,0,1,1.31-.333,13.558,13.558,0,0,0,12.321-11.709,13.576,13.576,0,0,0-.792-6.634,2.168,2.168,0,0,1-.267-1.462Q-669.912-743.155-666.748-746.063Z" transform="translate(-155.192 -151.868)" fill="#ff2f6d"/>
      <path id="Trazado_167208" data-name="Trazado 167208" d="M-708.455-742.6l-.032.279a6.942,6.942,0,0,1-1.981,2.412c-2.632,2.7-2.067,5.489,1.432,6.963a3.389,3.389,0,0,1,.59.345l0,.095a1.532,1.532,0,0,1,.4,1.132c.046,2.464.051,4.928,0,7.392a1.684,1.684,0,0,1-.414,1.133l.023.036a1.749,1.749,0,0,1-1.317.264,14.387,14.387,0,0,1-12.215-10.19,14.218,14.218,0,0,1,12.192-18.109,1.958,1.958,0,0,1,1.34.2,1.1,1.1,0,0,1,.261.413,52.021,52.021,0,0,1,.118,6.473A2.055,2.055,0,0,1-708.455-742.6Z" transform="translate(-132.024 -148.837)" fill="#f9e424"/>
      <path id="Trazado_167209" data-name="Trazado 167209" d="M-684.522-709.488l.016-9.657a4.774,4.774,0,0,0,3.488-1.631c2.973-2.979,5.981-5.925,8.975-8.883C-667.142-720.364-674.313-709.174-684.522-709.488Z" transform="translate(-155.966 -162.197)" fill="#febf10"/>
      <path id="Trazado_167210" data-name="Trazado 167210" d="M-685.316-798.859a37.065,37.065,0,0,1,11.574,2.024c.9,2.669,1.76,5.356,2.732,8,.363.986.366,1.707-.543,2.351a13.7,13.7,0,0,0-1.312,1.2,3.093,3.093,0,0,1-1.654-.631,21.7,21.7,0,0,0-9.46-2.794c-.59-.041-1.226.016-1.58-.631a53.884,53.884,0,0,1-.126-8.68,1.111,1.111,0,0,1,.356-.731Z" transform="translate(-155.162 -118.62)" fill="#febf10"/>
      <path id="Trazado_167211" data-name="Trazado 167211" d="M-685.327-772.449a20.814,20.814,0,0,1,12.459,3.792q-2.864,3.1-5.969,5.955a1.943,1.943,0,0,1-1.342-.128,12.382,12.382,0,0,0-4.14-.937,1.58,1.58,0,0,1-1.011-.374l.023-.036a.973.973,0,0,1-.336-.584,31.166,31.166,0,0,1,.131-7.493Z" transform="translate(-155.158 -135.251)" fill="#fe4800"/>
      <path id="Trazado_167212" data-name="Trazado 167212" d="M-684.522-750.055a13.288,13.288,0,0,1,6.493,1.44c-2.07,2.264-4.258,4.41-6.484,6.518Q-684.518-746.077-684.522-750.055Z" transform="translate(-155.966 -149.338)" fill="#febf10"/>
      <path id="Trazado_167213" data-name="Trazado 167213" d="M-691.362-718.05a3.829,3.829,0,0,1-3.72-2.575,3.94,3.94,0,0,1,.909-4.459c.9-.922,1.845-1.793,2.771-2.686Q-691.383-722.91-691.362-718.05Z" transform="translate(-149.107 -163.387)" fill="#0066b1"/>
      <path id="Trazado_167214" data-name="Trazado 167214" d="M-738.464-798.664q0,4.837,0,9.674l.021.035a7.781,7.781,0,0,1-2.963.56,21.919,21.919,0,0,0-18.538,18.53,21.808,21.808,0,0,0,17.308,24.4c1.39.3,2.853.191,4.193.758l-.021.035q0,4.837,0,9.674a31.245,31.245,0,0,1-20.832-7.9,30.349,30.349,0,0,1-10.253-17.719,31.058,31.058,0,0,1,6.958-26.831,31.248,31.248,0,0,1,19.318-10.867A17.827,17.827,0,0,1-738.464-798.664Z" transform="translate(-102.026 -118.711)" fill="#f9e424"/>
      <path id="Trazado_167215" data-name="Trazado 167215" d="M-811.723-757.39a1.442,1.442,0,0,0,1.144-1.653c-.076-4.964-.042-9.93-.046-14.895a1.96,1.96,0,0,1,1.662-.478q4.688-.034,9.377,0a2.024,2.024,0,0,1,1.669.466,43.369,43.369,0,0,0-6.364,16.4,3.784,3.784,0,0,1-2.269.332,25.933,25.933,0,0,0-3.98.179A1.272,1.272,0,0,1-811.723-757.39Z" transform="translate(-75.865 -134.004)" fill="#cde7fe"/>
      <path id="Trazado_167216" data-name="Trazado 167216" d="M-796.8-787.506l-12.708.013.027-.084a1.37,1.37,0,0,1-.417-1q-.107-3.115,0-6.231a1.37,1.37,0,0,1,.417-1l-.028-.084a.179.179,0,0,1,.288,0q8.893.021,17.786.043c.689,0,1.378.026,2.067.039A51.14,51.14,0,0,0-796.8-787.506Z" transform="translate(-76.978 -120.448)" fill="#ff5e8e"/>
      <path id="Trazado_167217" data-name="Trazado 167217" d="M-809.488-728.734c2.1-.412,4.216-.1,6.324-.177a60.664,60.664,0,0,0-.348,8.475l-5.731-.071a1.02,1.02,0,0,1-.628-.993c-.1-2.12-.1-4.242,0-6.363A1.5,1.5,0,0,1-809.488-728.734Z" transform="translate(-76.982 -162.643)" fill="#ff5e8e"/>
      <path id="Trazado_167218" data-name="Trazado 167218" d="M-890.985-735.413a3.931,3.931,0,0,1,3.27,1.535c.7.859,1.132.689,1.8-.037,1.279-1.392,2.649-2.7,4-4.027,1.941-1.913,4.4-2.042,6.159-.341s1.655,4.276-.308,6.257q-3.75,3.785-7.536,7.534a4.224,4.224,0,0,1-6.465-.009c-1.315-1.294-2.646-2.576-3.9-3.925a4,4,0,0,1-.751-4.62A3.88,3.88,0,0,1-890.985-735.413Z" transform="translate(-23.334 -156.017)" fill="#ff5e8e"/>
      <path id="Trazado_167219" data-name="Trazado 167219" d="M-895-867.015a3.74,3.74,0,0,1,2.4-3.117,3.715,3.715,0,0,1,4.569.843c1.066,1.211,1.672,1.02,2.615-.073,1.173-1.359,2.507-2.581,3.8-3.833a4.191,4.191,0,0,1,5.961-.131,4.1,4.1,0,0,1-.07,5.944q-3.97,4.057-8.028,8.027a4.071,4.071,0,0,1-6.041-.049c-1.325-1.286-2.61-2.611-3.922-3.91A4.551,4.551,0,0,1-895-867.015Z" transform="translate(-23.42 -70.985)" fill="#ff5e8e"/>
      <path id="Trazado_167220" data-name="Trazado 167220" d="M-895.042-798.287a3.925,3.925,0,0,1,2.39-3.738,3.73,3.73,0,0,1,4.576.812c1.036,1.143,1.646,1.122,2.617-.031,1.125-1.337,2.446-2.509,3.7-3.738a4.218,4.218,0,0,1,6.06-.267c1.746,1.7,1.673,4.23-.22,6.146q-3.844,3.89-7.736,7.732a4.112,4.112,0,0,1-6.242-.012c-1.286-1.26-2.542-2.549-3.823-3.813A4.131,4.131,0,0,1-895.042-798.287Z" transform="translate(-23.397 -113.867)" fill="#ff5e8e"/>
      <path id="Trazado_167221" data-name="Trazado 167221" d="M-815.986-728.392q0,3.45-.008,6.9a2.087,2.087,0,0,0,.252,1.328,2.682,2.682,0,0,0-.252.1c-2.1-.328-3.759-1.209-4.187-3.5-.41-2.2.628-3.783,3.076-4.837Z" transform="translate(-70.484 -162.986)" fill="#ff5e8e"/>
      <path id="Trazado_167222" data-name="Trazado 167222" d="M-815.963-795.536v8.225a4.084,4.084,0,0,1-4.279-4.183A4.084,4.084,0,0,1-815.963-795.536Z" transform="translate(-70.5 -120.714)" fill="#ff5e8e"/>
      <path id="Trazado_167223" data-name="Trazado 167223" d="M-815.969-854.713c-2.717-.324-4.309-1.914-4.273-4.267.035-2.3,1.608-3.816,4.273-4.129.049.072.1.144.147.215a24.555,24.555,0,0,1,0,7.966Z" transform="translate(-70.5 -78.162)" fill="#ff5e8e"/>
      <path id="Trazado_167224" data-name="Trazado 167224" d="M-808.743-918.358c.471.458.261,1.044.262,1.57q.022,9.444.01,18.889a.2.2,0,0,1-.286.095l.02-.1Z" transform="translate(-77.733 -43.371)" fill="#cde7fe"/>
      <path id="Trazado_167225" data-name="Trazado 167225" d="M-808.474-824.1h-.288q.012-8.271.023-16.541l-.021-.1a.2.2,0,0,1,.286.094Z" transform="translate(-77.729 -92.235)" fill="#cde7fe"/>
      <path id="Trazado_167226" data-name="Trazado 167226" d="M-808.471-854.712l-.286-.094v-8.2l.286-.095q13.9.021,27.8.044a4.209,4.209,0,0,1,4.249,3.74,4.238,4.238,0,0,1-3.028,4.414,5.955,5.955,0,0,1-1.636.149Q-794.779-854.726-808.471-854.712Z" transform="translate(-77.733 -78.164)" fill="#ff5e8e"/>
      <path id="Trazado_167227" data-name="Trazado 167227" d="M-721.955-728.145a22.06,22.06,0,0,1-21.606-17.687A22.07,22.07,0,0,1-727.8-771.618a17.029,17.029,0,0,1,5.848-.778v8.236c-6.9.405-11.829,4.411-13.387,10.89A13.8,13.8,0,0,0-724.411-736.7c.812.14,1.637.212,2.455.315Q-721.955-732.262-721.955-728.145Z" transform="translate(-118.509 -135.269)" fill="#ff004c"/>
    </g>
  </g>
</svg>
