<svg xmlns="http://www.w3.org/2000/svg" width="80" height="80" viewBox="0 0 80 80">
  <g id="Grupo_119343" data-name="Grupo 119343" transform="translate(-284.705 -1670)">
    <g id="Elipse_6756" data-name="Elipse 6756" transform="translate(284.705 1670)" fill="#fff" stroke="#2631a0" stroke-width="4">
      <circle cx="40" cy="40" r="40" stroke="none"/>
      <circle cx="40" cy="40" r="38" fill="none"/>
    </g>
    <g id="Grupo_119215" data-name="Grupo 119215" transform="translate(387.208 2253.981)">
      <path id="Trazado_168849" data-name="Trazado 168849" d="M-64.951-566.76c0-.4.034-.805,0-1.2-.045-.475.155-.572.593-.57,3.648.016,7.3.009,10.945.009,1.569,0,3.138.027,4.706-.007A7.169,7.169,0,0,1-43.933-567c.113.09.243.16.364.239a1.1,1.1,0,0,1,.683.839,13.976,13.976,0,0,1,.03,1.478q0,5.693,0,11.387a7.365,7.365,0,0,1-.023.874c-.029.324-.273.444-.53.555a12.322,12.322,0,0,0-3.744,2.495,12.241,12.241,0,0,0-2.72,4.044c-.1.225-.14.51-.476.523a7.492,7.492,0,0,0-2.324-.11.672.672,0,0,0-.7.688.7.7,0,0,0,.681.711c.468.057.942.009,1.412.028.249.01.521-.022.665.263a2.572,2.572,0,0,1-.3,1.687,1.4,1.4,0,0,1-.743.114c-.8,0-1.6,0-2.4,0a1.733,1.733,0,0,0-.54.054.651.651,0,0,0-.513.733.679.679,0,0,0,.715.618c.889.049,1.779.009,2.669.022a1.522,1.522,0,0,1,.8.114,2.535,2.535,0,0,1,.3,1.706c-.172.289-.465.248-.73.251-.873.011-1.746,0-2.618.005a1.95,1.95,0,0,0-.648.063.658.658,0,0,0-.488.7.644.644,0,0,0,.524.618.4.4,0,0,0,.107.021,23.438,23.438,0,0,0,4.078-.1c.277-.027.38.17.464.376a13.309,13.309,0,0,0,2.418,3.845c.138.154.469.375.011.574a2.871,2.871,0,0,1-.709.05q-7.93,0-15.861,0a1.456,1.456,0,0,1-.9-.148,1.223,1.223,0,0,1-.154-.79q0-16.754,0-33.508A1.052,1.052,0,0,1-64.951-566.76Z" transform="translate(-19.468 -0.003)" fill="#e8edf1"/>
      <path id="Trazado_168850" data-name="Trazado 168850" d="M97.205-566.769a7.97,7.97,0,0,1,3.142-1.573,6.877,6.877,0,0,1,1.452-.188q7.2.01,14.39-.006c.482,0,.709.1.648.626a9.773,9.773,0,0,0,0,1.148,1.409,1.409,0,0,1,.172,1q.007,9.941,0,19.883,0,6.6,0,13.2a1.771,1.771,0,0,1-.129.963.73.73,0,0,1-.556.171c-1.812,0-3.624.04-5.435-.02a3.436,3.436,0,0,1-1.711-1.613,2.442,2.442,0,0,1,.515-1.069,12.022,12.022,0,0,0,1.728-6.3,12.118,12.118,0,0,0-2.269-7.009c-.162-.232-.405-.433-.358-.767.179-.252.453-.2.7-.2.657-.015,1.314.013,1.97-.015a.735.735,0,0,0,.776-.563.607.607,0,0,0-.485-.79,12.909,12.909,0,0,0-4.338.154.557.557,0,0,1-.49-.177,11.687,11.687,0,0,0-2.385-1.5c-.188-.092-.53-.139-.374-.512a1.6,1.6,0,0,1,.856-.117c1.987,0,3.975,0,5.963,0a2.669,2.669,0,0,0,.707-.048.647.647,0,0,0,.542-.662.656.656,0,0,0-.55-.657,2.491,2.491,0,0,0-.653-.047c-3.738,0-7.476.007-11.214-.008a1.265,1.265,0,0,0-1.339.721,2.357,2.357,0,0,1-1.784.26.658.658,0,0,1-.2-.547c0-4.3-.044-8.593.02-12.889A1.094,1.094,0,0,1,97.205-566.769Z" transform="translate(-157.413)" fill="#e8edf1"/>
      <path id="Trazado_168851" data-name="Trazado 168851" d="M-84.419-556.582q0,17.169,0,34.338c0,.237.011.474.017.711a1.014,1.014,0,0,1,.157.678c.006.6,0,1.2,0,1.806,0,.825.021.841.87.846h.493q10.017,0,20.034,0c1.04,0,2.08.031,3.119.024.208,0,.416.008.624-.009.612-.007,1.225-.005,1.837,0,.24.022.481.01.721.011,2.31-.026,4.62-.021,6.93-.02a6.311,6.311,0,0,1,.816.025.906.906,0,0,1,.57.273c.428.41.846.83,1.257,1.256a.574.574,0,0,1,.206.423c-.408.533-.616,1.061.042,1.57.036.028.014.1-.052.117-.182.006-.364.016-.547.016q-19.991,0-39.983.01c-.472,0-.637-.082-.636-.607q.025-20.427,0-40.855c0-.477.086-.662.611-.634C-86.356-556.556-85.387-556.586-84.419-556.582Z" transform="translate(0 -10.18)" fill="#ea423f"/>
      <path id="Trazado_168852" data-name="Trazado 168852" d="M230.744-521.482c.006-.237.017-.474.017-.711q0-17.169,0-34.338c1.041,0,2.081,0,3.122-.018.325-.007.389.114.387.409-.012,1.57-.006,3.14-.006,4.71v36.092c0,.848,0,.848-.84.885-.129.068-.2-.024-.277-.1-.95-1-1.955-1.947-2.908-2.944-.139-.145-.487-.319-.11-.59a.53.53,0,0,0,.466-.613c-.007-.7-.006-1.406,0-2.11A1.014,1.014,0,0,1,230.744-521.482Z" transform="translate(-271.347 -10.232)" fill="#ea423f"/>
      <path id="Trazado_168853" data-name="Trazado 168853" d="M194.844-303.532l3.475,3.507a3.384,3.384,0,0,1,.784,2.795,2.867,2.867,0,0,1-2.025,2.3,3.041,3.041,0,0,1-3.181-.758c-1.379-1.322-2.713-2.69-4.068-4.038-.116-.115-.241-.22-.362-.329a1.1,1.1,0,0,0-.093-.131c-.736-.773-.736-.773.065-1.5a.792.792,0,0,1,.256-.519c.774-.755,1.51-1.549,2.309-2.279a5.857,5.857,0,0,0,.77-.68c.141-.124.315-.252.478-.091A6.876,6.876,0,0,1,194.844-303.532Z" transform="translate(-236.237 -224.66)" fill="#3396e7"/>
      <path id="Trazado_168854" data-name="Trazado 168854" d="M84.918-556.468l-.542.647a3.675,3.675,0,0,1-.6.9.328.328,0,0,1-.554,0,3.64,3.64,0,0,1-.6-.9l-.541-.646Z" transform="translate(-145.125 -10.301)" fill="#ea423f"/>
      <path id="Trazado_168855" data-name="Trazado 168855" d="M43.9-437.285H42.03a1.8,1.8,0,0,0-.565-.038,10.5,10.5,0,0,1-5.278-1.857,11.6,11.6,0,0,1-1.471-1.125c-.151-.129-.319-.248-.338-.473a14.071,14.071,0,0,1-2.947-4.617,2.341,2.341,0,0,1-.461-1.63l-.229-1.637a2.079,2.079,0,0,1,0-1.753l.229-1.637a2.354,2.354,0,0,1,.461-1.63,13.542,13.542,0,0,1,2.741-4.369,13.6,13.6,0,0,1,4.463-2.986,2.915,2.915,0,0,1,1.867-.545l1.637-.228a2.079,2.079,0,0,1,1.331-.148,11.51,11.51,0,0,1,3.793.738.94.94,0,0,1,.581.379,14.758,14.758,0,0,1,3.187,1.982,3.254,3.254,0,0,1,1.511,1.547,12.749,12.749,0,0,1,2.556,5.665,12.2,12.2,0,0,1-1.873,8.92c-.107.166-.262.309-.268.527a8.637,8.637,0,0,1-1.793,2.018c-.275.235-.553.467-.826.705a14.67,14.67,0,0,1-4.009,1.9,8.415,8.415,0,0,1-1.767.251A2.415,2.415,0,0,0,43.9-437.285Z" transform="translate(-101.132 -90.939)" fill="#3396e7"/>
      <path id="Trazado_168856" data-name="Trazado 168856" d="M-40.025-524.727c0-.438.023-.878-.007-1.314-.024-.354.118-.446.441-.419.272.023.552-.028.82.011a.811.811,0,0,0,1.027-.674c.1-.334.106-.545-.171-.745a.233.233,0,0,1-.039-.038c-.353-.411-1.053-.718-1.034-1.2s.686-.793,1.06-1.188.76-.738,1.116-1.13c.22-.242.37-.281.6-.011.309.359.68.664.99,1.022.39.452.684-.032,1.022-.069.289-.031.318-.235.31-.478-.012-.419.01-.84-.008-1.259-.012-.276.068-.388.366-.383q1.4.025,2.793,0c.308-.005.369.128.355.392-.015.291.031.589-.011.875a.8.8,0,0,0,.674,1.017.6.6,0,0,0,.75-.167c.3-.342.65-.641.959-.976.186-.2.313-.234.524-.015q1.045,1.085,2.129,2.13c.221.213.182.339-.018.524-.335.309-.636.657-.976.96a.614.614,0,0,0-.176.745c.166.627.534.685,1.081.668,1.2-.037,1.2-.011,1.2,1.172,0,.639-.013,1.278.006,1.917.008.3-.069.438-.393.411-.29-.024-.589.029-.875-.012a.8.8,0,0,0-1.018.674.57.57,0,0,0,.15.7c.365.331.694.7,1.053,1.038.176.166.165.279,0,.444q-1.095,1.074-2.169,2.167c-.185.188-.322.174-.5-.01-.352-.37-.732-.715-1.08-1.089-.38-.408-.652.062-.976.1-.269.028-.372.2-.333.457a.488.488,0,0,1,0,.109c-.042.5.228,1.189-.112,1.46-.318.253-.975.085-1.483.091s-1.023-.01-1.533.006c-.275.009-.4-.066-.382-.366s-.031-.625.012-.93c.077-.541-.115-.807-.649-.981a.608.608,0,0,0-.789.184c-.283.333-.617.622-.915.943-.189.2-.333.218-.538.007q-1.05-1.08-2.129-2.131c-.194-.19-.167-.321.015-.493.357-.339.684-.713,1.054-1.037a.444.444,0,0,0,.065-.667c-.165-.258-.071-.734-.614-.678-.38.039-.769-.024-1.149.016-.433.045-.532-.134-.5-.527C-40-523.885-40.025-524.307-40.025-524.727Z" transform="translate(-40.884 -30.676)" fill="#3396e7"/>
      <path id="Trazado_168857" data-name="Trazado 168857" d="M-46.326-317.1a12.833,12.833,0,0,0,6.027,3.23c.355.076.715.126,1.072.187l.005.075c-.182.006-.364.017-.547.017q-11.8,0-23.6.011c-.488,0-.658-.1-.632-.619.049-.965.024-1.933.03-2.9Z" transform="translate(-20.428 -214.615)" fill="#d9dbdd"/>
      <path id="Trazado_168858" data-name="Trazado 168858" d="M-36.479-397.378c0,1-.012,2.007.007,3.009.007.353-.1.482-.463.473-.875-.022-1.751-.02-2.626,0-.348.008-.43-.132-.428-.452q.015-3.064,0-6.128c0-.327.094-.453.435-.445.875.019,1.751.022,2.626,0,.373-.01.463.135.457.48C-36.491-399.421-36.479-398.4-36.479-397.378Z" transform="translate(-40.923 -143.069)" fill="#c2c5c6"/>
      <path id="Trazado_168859" data-name="Trazado 168859" d="M87.642-538.45l-1.867.545q0-7.073,0-14.146a3.684,3.684,0,0,1,.688.832c.137.18.235.181.372,0a3.646,3.646,0,0,1,.687-.833q0,6.49.007,12.979C87.53-538.862,87.448-538.628,87.642-538.45Z" transform="translate(-148.272 -14.071)" fill="#d9dbdd"/>
      <path id="Trazado_168860" data-name="Trazado 168860" d="M6.564-359.762l.461,1.63a1.689,1.689,0,0,1-.984.245c-1.035-.016-2.071,0-3.107-.007-.611,0-.969-.324-.979-.855-.011-.556.352-.891.994-.9,1.018-.006,2.035,0,3.053,0C6.192-359.65,6.406-359.579,6.564-359.762Z" transform="translate(-76.726 -178.202)" fill="#d9dbdd"/>
      <path id="Trazado_168861" data-name="Trazado 168861" d="M6.334-382.921q0,.877,0,1.753c-1.13,0-2.26,0-3.39,0-.641,0-1.007-.344-.991-.9.015-.531.372-.845.991-.848C4.074-382.925,5.2-382.921,6.334-382.921Z" transform="translate(-76.725 -158.433)" fill="#d9dbdd"/>
      <path id="Trazado_168862" data-name="Trazado 168862" d="M17.24-406.829l-.461,1.63a6,6,0,0,0-1.936-.111c-.585-.046-.947-.388-.919-.927.02-.388.217-.742.581-.766A5.085,5.085,0,0,1,17.24-406.829Z" transform="translate(-86.942 -137.792)" fill="#d9dbdd"/>
      <path id="Trazado_168863" data-name="Trazado 168863" d="M165.664-324.2c.245-.44.708-.647,1.061-.97.557-.51.941-1.178,1.543-1.642l1.472,1.42a25.507,25.507,0,0,1,2.468,2.4.269.269,0,0,1,.065.2c-.646.793-1.43,1.452-2.128,2.195-.173.185-.333.382-.5.573-.1-.444-.51-.632-.779-.933-.3-.335-.646-.629-.971-.941-.391-.109-.608-.439-.878-.7-.377-.363-.749-.732-1.109-1.112C165.782-323.838,165.571-323.946,165.664-324.2Z" transform="translate(-216.443 -206.33)" fill="#2978b7"/>
      <path id="Trazado_168864" data-name="Trazado 168864" d="M115.408-464.872a13.378,13.378,0,0,0-5.7-.97c.114-.641.356-.873.966-.873q6.046-.006,12.091,0a.852.852,0,0,1,.968.871.851.851,0,0,1-.961.878c-2.261.006-4.523,0-6.784.005C115.79-464.961,115.579-465.03,115.408-464.872Z" transform="translate(-168.696 -86.908)" fill="#d9dbdd"/>
      <path id="Trazado_168865" data-name="Trazado 168865" d="M166.208-508.641c.729,0,1.459.01,2.188,0,.3-.006.424.088.419.4-.015.912-.013,1.823,0,2.735,0,.292-.117.376-.391.375q-2.243-.012-4.486,0c-.275,0-.394-.084-.39-.375.012-.912.014-1.824,0-2.735-.005-.316.119-.409.419-.4C164.713-508.631,165.461-508.641,166.208-508.641Z" transform="translate(-214.655 -51.12)" fill="#c2c5c6"/>
      <path id="Trazado_168866" data-name="Trazado 168866" d="M196.166-314.511l-2.533-2.6,6.1,0c.006.978-.02,1.959.031,2.935.026.5-.146.65-.6.576a1.006,1.006,0,0,0-.217.011c-.508-.5-1.026-.981-1.517-1.492-.21-.218-.343-.242-.565-.012C196.654-314.875,196.5-314.582,196.166-314.511Z" transform="translate(-240.336 -214.605)" fill="#d9dbdd"/>
      <path id="Trazado_168867" data-name="Trazado 168867" d="M161.11-538.551c.838,0,1.677,0,2.515,0,.615,0,.973.322.984.854.012.558-.353.894-1,.9q-2.515.007-5.03,0c-.616,0-.973-.322-.984-.854-.012-.558.352-.891,1-.9C159.434-538.555,160.272-538.551,161.11-538.551Z" transform="translate(-209.578 -25.593)" fill="#d9dbdd"/>
      <path id="Trazado_168868" data-name="Trazado 168868" d="M112.389-514.615c.546,0,1.093-.008,1.639,0a.851.851,0,0,1,.936.9.845.845,0,0,1-.934.848q-1.694.014-3.388,0a.848.848,0,0,1-.936-.9.848.848,0,0,1,.934-.848C111.223-514.623,111.806-514.615,112.389-514.615Z" transform="translate(-168.699 -46.022)" fill="#d9dbdd"/>
      <path id="Trazado_168869" data-name="Trazado 168869" d="M112.322-488.931c-.565,0-1.129.009-1.694,0a.845.845,0,0,1-.919-.862.838.838,0,0,1,.9-.884q1.721-.019,3.442,0a.842.842,0,0,1,.919.862.853.853,0,0,1-.951.886C113.451-488.924,112.886-488.931,112.322-488.931Z" transform="translate(-168.701 -66.448)" fill="#d9dbdd"/>
      <path id="Trazado_168870" data-name="Trazado 168870" d="M171.936-440.946l-1.511-1.547a1.436,1.436,0,0,1,1.008-.328c1,.021,2.006.006,3.009.007.746,0,1.124.3,1.116.889s-.379.862-1.142.863c-.657,0-1.313,0-1.97,0C172.272-441.057,172.076-441.116,171.936-440.946Z" transform="translate(-220.526 -107.305)" fill="#d9dbdd"/>
      <path id="Trazado_168871" data-name="Trazado 168871" d="M123.434-536.85c-.309,0-.62.016-.928,0a.84.84,0,0,1-.827-.9.827.827,0,0,1,.823-.844c.618-.023,1.238-.023,1.855,0a.83.83,0,0,1,.827.895.837.837,0,0,1-.823.846C124.054-536.834,123.744-536.85,123.434-536.85Z" transform="translate(-178.919 -25.542)" fill="#d9dbdd"/>
      <path id="Trazado_168872" data-name="Trazado 168872" d="M131.743-308.967l2.231,2.3h-8.038c-.033-.022-.042-.04-.029-.056a.051.051,0,0,1,.038-.022,12.385,12.385,0,0,0,5.27-1.963A1,1,0,0,1,131.743-308.967Z" transform="translate(-182.522 -221.558)" fill="#d9dbdd"/>
      <path id="Trazado_168873" data-name="Trazado 168873" d="M122.382-293.855c0,.026-.007.052-.009.078h-.646A1.084,1.084,0,0,1,122.382-293.855Z" transform="translate(-178.96 -234.447)" fill="#aac8e0"/>
      <path id="Trazado_168874" data-name="Trazado 168874" d="M105.188-293.762c0-.025,0-.05-.005-.075a.812.812,0,0,1,.553.075Z" transform="translate(-164.838 -234.462)" fill="#b4ccdf"/>
      <path id="Trazado_168875" data-name="Trazado 168875" d="M64.563-419.251a8.774,8.774,0,0,1-8.733-8.812,8.77,8.77,0,0,1,8.826-8.718A8.772,8.772,0,0,1,73.361-428,8.774,8.774,0,0,1,64.563-419.251Z" transform="translate(-122.712 -112.462)" fill="#e8edf1"/>
      <path id="Trazado_168876" data-name="Trazado 168876" d="M1.231-493.988a2.642,2.642,0,0,1-2.616,2.613,2.642,2.642,0,0,1-2.64-2.644,2.641,2.641,0,0,1,2.671-2.612A2.642,2.642,0,0,1,1.231-493.988Z" transform="translate(-71.622 -61.375)" fill="#e8edf1"/>
    </g>
  </g>
</svg>
