<svg xmlns="http://www.w3.org/2000/svg" width="1098.746" height="537.732" viewBox="0 0 1098.746 537.732">
  <g id="Grupo_120608" data-name="Grupo 120608" transform="translate(-236.254 -344.975)">
    <g id="Grupo_120584" data-name="Grupo 120584">
      <rect id="Rectángulo_42964" data-name="Rectángulo 42964" width="241.846" height="75.347" transform="translate(672.395 562.833)" fill="#242ca3"/>
      <rect id="Rectángulo_42965" data-name="Rectángulo 42965" width="241.846" height="75.347" transform="translate(672.395 562.833)" fill="none" stroke="#2f528f" stroke-miterlimit="10" stroke-width="0.96"/>
      <path id="Trazado_169685" data-name="Trazado 169685" d="M261.58,383.16v29.078l.588-1.176.588.588V383.16Z" transform="translate(131.42 150.311)" fill="#4472c4" stroke="#242ca3" stroke-width="2"/>
      <rect id="Rectángulo_42966" data-name="Rectángulo 42966" width="241.987" height="54.182" transform="translate(338.269 354.146)" fill="#fec62c"/>
      <rect id="Rectángulo_42967" data-name="Rectángulo 42967" width="218.291" height="48.905" transform="translate(285 495.063)" fill="#fec62c"/>
      <rect id="Rectángulo_42968" data-name="Rectángulo 42968" width="241.845" height="54.182" transform="translate(273.222 571.581)" fill="#fec62c"/>
      <rect id="Rectángulo_42969" data-name="Rectángulo 42969" width="241.987" height="54.182" transform="translate(728.271 354.146)" fill="#fec62c"/>
      <rect id="Rectángulo_42970" data-name="Rectángulo 42970" width="241.845" height="54.182" transform="translate(1071.566 344.975)" fill="#fec62c"/>
      <rect id="Rectángulo_42971" data-name="Rectángulo 42971" width="241.845" height="54.182" transform="translate(1071.566 408.328)" fill="#fec62c"/>
      <rect id="Rectángulo_42972" data-name="Rectángulo 42972" width="241.845" height="54.182" transform="translate(1071.566 471.683)" fill="#fec62c"/>
      <rect id="Rectángulo_42973" data-name="Rectángulo 42973" width="241.845" height="54.182" transform="translate(1071.566 534.895)" fill="#fec62c"/>
      <rect id="Rectángulo_42974" data-name="Rectángulo 42974" width="241.845" height="54.182" transform="translate(1071.566 598.672)" fill="#fec62c"/>
      <rect id="Rectángulo_42975" data-name="Rectángulo 42975" width="241.845" height="54.182" transform="translate(1071.566 662.592)" fill="#fec62c"/>
      <rect id="Rectángulo_42976" data-name="Rectángulo 42976" width="241.987" height="54.182" transform="translate(410.23 717.338)" fill="#fec62c"/>
      <rect id="Rectángulo_42977" data-name="Rectángulo 42977" width="241.987" height="54.182" transform="translate(236.254 828.524)" fill="#fec62c"/>
      <rect id="Rectángulo_42978" data-name="Rectángulo 42978" width="241.845" height="54.182" transform="translate(531.295 828.524)" fill="#fec62c"/>
      <rect id="Rectángulo_42979" data-name="Rectángulo 42979" width="241.845" height="54.182" transform="translate(1093.154 801.434)" fill="#fec62c"/>
      <rect id="Rectángulo_42980" data-name="Rectángulo 42980" width="241.845" height="54.182" transform="translate(812.225 803.55)" fill="#fec62c"/>
      <text id="Sistema_de_gestión" data-name="Sistema de gestión" transform="translate(719.834 619.885)" fill="#fff" font-size="18" font-family="Roboto-Regular, Roboto"><tspan x="0" y="0">Sist</tspan><tspan y="0" letter-spacing="-0.003em">e</tspan><tspan y="0">ma </tspan><tspan y="0" letter-spacing="-0.003em">d</tspan><tspan y="0">e</tspan><tspan y="0" letter-spacing="0.005em"> </tspan><tspan y="0">g</tspan><tspan y="0" letter-spacing="-0.005em">e</tspan><tspan y="0">stión</tspan></text>
      <path id="Trazado_168813" data-name="Trazado 168813" d="M255.335,172.895l-7.055-3.527,7.055-3.528Zm150.248,78.111H326.344V169.367l.588.588H254.159V168.78h73.36v81.638l-.588-.588h78.652Z" transform="translate(266.788 350.148)" fill="#242ca3" stroke="#242ca3" stroke-width="2"/>
      <path id="Trazado_168814" data-name="Trazado 168814" d="M149.015,210.35l-3.528,7.055-3.527-7.055Zm-2.94,1.176h0Z" transform="translate(248.093 350.812)" fill="#242ca3" stroke="#242ca3" stroke-width="2"/>
      <path id="Trazado_168815" data-name="Trazado 168815" d="M537.38,81.335l3.528-7.055,3.527,7.055Zm-52.96,147.5V150.968h56.487l-.588.588v-71.4h1.176v71.985H485.008l.588-.588v77.276Z" transform="translate(308.309 334.049)" fill="#242ca3" stroke="#242ca3" stroke-width="2"/>
      <path id="Trazado_168816" data-name="Trazado 168816" d="M310.775,55.295l-7.055-3.527,7.055-3.527Zm85.13,216.389H349.225V51.767l.588.588H309.6V51.18h40.8V271.1l-.588-.588h46.093Z" transform="translate(276.536 329.47)" fill="#242ca3" stroke="#242ca3" stroke-width="2"/>
      <path id="Trazado_168817" data-name="Trazado 168817" d="M729.749,47.495l7.055-3.527-7.055-3.528ZM635.4,53.668h51.29v-9.7l-.588.588h44.823V43.38H685.514v9.7l.588-.588H635.4Z" transform="translate(334.856 328.099)" fill="#4472c4" stroke="#242ca3" stroke-width="2"/>
      <path id="Trazado_168818" data-name="Trazado 168818" d="M729.749,101.995l7.055,3.527-7.055,3.527ZM635.4,50.74h51.29v54.782l-.588-.588h44.823v1.176H685.514V51.328l.588.588H635.4Z" transform="translate(334.856 329.909)" fill="#4472c4" stroke="#242ca3" stroke-width="2"/>
      <path id="Trazado_168819" data-name="Trazado 168819" d="M722.215,171.439l7.055-3.528-7.055-3.527ZM677.98,56.16V168.5h45.411v-1.176H678.568l.588.588V56.16Z" transform="translate(342.343 330.863)" fill="#242ca3" stroke="#242ca3" stroke-width="2"/>
      <path id="Trazado_168820" data-name="Trazado 168820" d="M729.749,228.6l7.055,3.527-7.055,3.527ZM635.4,50.74h51.29V232.124l-.588-.588h44.823v1.176H685.514V51.328l.588.588H635.4Z" transform="translate(334.856 329.909)" fill="#242ca3" stroke="#242ca3" stroke-width="2"/>
      <path id="Trazado_168821" data-name="Trazado 168821" d="M729.749,292.4l7.055,3.527-7.055,3.527ZM635.4,50.74h51.29V295.925l-.588-.588h44.823v1.176H685.514V51.328l.588.588H635.4Z" transform="translate(334.856 329.909)" fill="#242ca3" stroke="#242ca3" stroke-width="2"/>
      <path id="Trazado_168822" data-name="Trazado 168822" d="M729.749,356.21l7.055,3.527-7.055,3.527ZM635.4,50.74h51.29v309l-.588-.588h44.823v1.176H685.514v-309l.588.588H635.4Z" transform="translate(334.856 329.909)" fill="#242ca3" stroke="#242ca3" stroke-width="2"/>
      <path id="Trazado_168823" data-name="Trazado 168823" d="M266.135,341.78l-3.527,7.055-3.527-7.055Zm259.177-72.02v40.131h-262.7l.588-.588v33.652H262.02v-34.24h262.7l-.588.588V269.76Z" transform="translate(268.687 368.421)" fill="#4472c4" stroke="#242ca3" stroke-width="2"/>
      <path id="Trazado_168824" data-name="Trazado 168824" d="M118.175,433.086l-3.527,7.055-3.528-7.055ZM289.212,383.16v29.078H114.647l.588-.588v22.611H114.06v-23.2H288.624l-.588.588V383.16Z" transform="translate(242.671 388.36)" fill="#242ca3" stroke="#242ca3" stroke-width="2"/>
      <path id="Trazado_168825" data-name="Trazado 168825" d="M379.587,433.086l3.527,7.055,3.528-7.055ZM261.58,383.16v29.078H383.114l-.588-.588v22.611H383.7v-23.2H262.168l.588.588V383.16Z" transform="translate(269.127 388.36)" fill="#4472c4" stroke="#242ca3" stroke-width="2"/>
      <path id="Trazado_168826" data-name="Trazado 168826" d="M621.263,427.992l3.527,7.055,3.528-7.055ZM484.42,269.76V353H624.791l-.588-.588v76.758h1.176V351.821H485.008l.588.588V269.76Z" transform="translate(308.309 368.421)" fill="#242ca3" stroke="#242ca3" stroke-width="2"/>
      <path id="Trazado_168827" data-name="Trazado 168827" d="M902.217,425.864l3.527,7.055,3.528-7.055Zm-417.8-156.1v82.167H905.745l-.588-.588v75.7h1.176V350.751H485.008l.588.588V269.76Z" transform="translate(308.309 368.421)" fill="#242ca3" stroke="#242ca3" stroke-width="2"/>
    </g>
    <text id="Implementación_del_" data-name="Implementación del " transform="translate(718 594.486)" fill="#fff" font-size="18" font-family="Roboto-Regular, Roboto"><tspan x="0" y="0">Impl</tspan><tspan y="0" letter-spacing="-0.005em">e</tspan><tspan y="0">me</tspan><tspan y="0" letter-spacing="-0.005em">n</tspan><tspan y="0">taci</tspan><tspan y="0" letter-spacing="-0.005em">ó</tspan><tspan y="0">n</tspan><tspan y="0" letter-spacing="0.012em"> </tspan><tspan y="0">d</tspan><tspan y="0" letter-spacing="-0.005em">e</tspan><tspan y="0">l </tspan></text>
    <text id="Documento_y_registro" data-name="Documento y registro" transform="translate(381.164 386.667)" font-size="14" font-family="Roboto-Regular, Roboto"><tspan x="0" y="0" letter-spacing="-0.004em">D</tspan><tspan y="0">o</tspan><tspan y="0" letter-spacing="0.002em">c</tspan><tspan y="0">u</tspan><tspan y="0" letter-spacing="-0.004em">m</tspan><tspan y="0">en</tspan><tspan y="0" letter-spacing="0.002em">t</tspan><tspan y="0">o</tspan><tspan y="0" letter-spacing="-0.03em"> </tspan><tspan y="0" letter-spacing="-0.013em">y</tspan><tspan y="0" letter-spacing="0.012em"> </tspan><tspan y="0">regi</tspan><tspan y="0" letter-spacing="0.002em">s</tspan><tspan y="0" letter-spacing="0.003em">t</tspan><tspan y="0">ro</tspan></text>
    <text id="Gráficos" transform="translate(370 523.969)" font-size="14" font-family="Roboto-Regular, Roboto"><tspan x="0" y="0">Grá</tspan><tspan y="0" letter-spacing="0.003em">fi</tspan><tspan y="0" letter-spacing="0.002em">c</tspan><tspan y="0">os</tspan></text>
    <text id="Diferentes_clases" data-name="Diferentes clases" transform="translate(340.146 604.22)" font-size="14" font-family="Roboto-Regular, Roboto"><tspan x="0" y="0" letter-spacing="-0.004em">D</tspan><tspan y="0">i</tspan><tspan y="0" letter-spacing="0.003em">f</tspan><tspan y="0">eren</tspan><tspan y="0" letter-spacing="0.002em">t</tspan><tspan y="0">e</tspan><tspan y="0" letter-spacing="-0.005em">s</tspan><tspan y="0" letter-spacing="-0.029em"> </tspan><tspan y="0" letter-spacing="0.003em">c</tspan><tspan y="0">la</tspan><tspan y="0" letter-spacing="0.002em">s</tspan><tspan y="0">es</tspan></text>
    <text id="Comunicación_organizacional" data-name="Comunicación organizacional" transform="translate(741.815 386.667)" font-size="14" font-family="Roboto-Regular, Roboto"><tspan x="0" y="0" letter-spacing="-0.004em">C</tspan><tspan y="0">o</tspan><tspan y="0" letter-spacing="-0.004em">m</tspan><tspan y="0">uni</tspan><tspan y="0" letter-spacing="0.003em">c</tspan><tspan y="0">a</tspan><tspan y="0" letter-spacing="0.003em">c</tspan><tspan y="0">ió</tspan><tspan y="0" letter-spacing="-0.009em">n</tspan><tspan y="0" letter-spacing="-0.021em"> </tspan><tspan y="0">organi</tspan><tspan y="0" letter-spacing="0.002em">z</tspan><tspan y="0">a</tspan><tspan y="0" letter-spacing="-0.005em">c</tspan><tspan y="0">io</tspan><tspan y="0" letter-spacing="-0.009em">n</tspan><tspan y="0">al</tspan></text>
    <text id="Comunicación_interna_y_" data-name="Comunicación interna y " transform="translate(1121.601 367.677)" font-size="14" font-family="Roboto-Regular, Roboto"><tspan x="0" y="0" letter-spacing="-0.004em">C</tspan><tspan y="0">o</tspan><tspan y="0" letter-spacing="-0.004em">m</tspan><tspan y="0">uni</tspan><tspan y="0" letter-spacing="0.003em">c</tspan><tspan y="0">a</tspan><tspan y="0" letter-spacing="0.003em">c</tspan><tspan y="0">ió</tspan><tspan y="0" letter-spacing="-0.009em">n</tspan><tspan y="0" letter-spacing="-0.021em"> </tspan><tspan y="0">in</tspan><tspan y="0" letter-spacing="0.003em">t</tspan><tspan y="0">erna</tspan><tspan y="0" letter-spacing="-0.03em"> </tspan><tspan y="0" letter-spacing="-0.013em">y</tspan><tspan y="0"> </tspan></text>
    <text id="externa_" data-name="externa " transform="translate(1179.733 387.431)" font-size="14" font-family="Roboto-Regular, Roboto"><tspan x="0" y="0">e</tspan><tspan y="0" letter-spacing="-0.012em">x</tspan><tspan y="0" letter-spacing="0.003em">t</tspan><tspan y="0">erna </tspan></text>
    <text id="Plan_estratégico_de_" data-name="Plan estratégico de " transform="translate(1136.84 430.996)" font-size="14" font-family="Roboto-Regular, Roboto"><tspan x="0" y="0">Plan</tspan><tspan y="0" letter-spacing="-0.004em"> </tspan><tspan y="0">e</tspan><tspan y="0" letter-spacing="0.003em">st</tspan><tspan y="0">ra</tspan><tspan y="0" letter-spacing="-0.004em">t</tspan><tspan y="0">é</tspan><tspan y="0" letter-spacing="-0.009em">g</tspan><tspan y="0">i</tspan><tspan y="0" letter-spacing="0.003em">c</tspan><tspan y="0" letter-spacing="-0.009em">o</tspan><tspan y="0" letter-spacing="-0.021em"> </tspan><tspan y="0">de </tspan></text>
    <text id="comunicaciones" transform="translate(1148.128 450.75)" font-size="14" font-family="Roboto-Regular, Roboto"><tspan x="0" y="0" letter-spacing="0.003em">c</tspan><tspan y="0">o</tspan><tspan y="0" letter-spacing="-0.004em">m</tspan><tspan y="0">uni</tspan><tspan y="0" letter-spacing="0.003em">c</tspan><tspan y="0">a</tspan><tspan y="0" letter-spacing="-0.004em">c</tspan><tspan y="0">io</tspan><tspan y="0" letter-spacing="-0.009em">n</tspan><tspan y="0">es</tspan></text>
    <text id="Análisis_del_entorno_interno_y_" data-name="Análisis del entorno interno y " transform="translate(1101.988 494.326)" font-size="14" font-family="Roboto-Regular, Roboto"><tspan x="0" y="0">Análi</tspan><tspan y="0" letter-spacing="0.002em">s</tspan><tspan y="0">i</tspan><tspan y="0" letter-spacing="0.003em">s</tspan><tspan y="0" letter-spacing="-0.021em"> </tspan><tspan y="0">del</tspan><tspan y="0" letter-spacing="-0.004em"> </tspan><tspan y="0">en</tspan><tspan y="0" letter-spacing="0.002em">t</tspan><tspan y="0">orno</tspan><tspan y="0" letter-spacing="-0.03em"> </tspan><tspan y="0">in</tspan><tspan y="0" letter-spacing="0.003em">t</tspan><tspan y="0">erno</tspan><tspan y="0" letter-spacing="-0.03em"> </tspan><tspan y="0" letter-spacing="-0.013em">y</tspan><tspan y="0"> </tspan></text>
    <text id="externo" transform="translate(1179.733 514.08)" font-size="14" font-family="Roboto-Regular, Roboto"><tspan x="0" y="0">e</tspan><tspan y="0" letter-spacing="-0.012em">x</tspan><tspan y="0" letter-spacing="0.003em">t</tspan><tspan y="0">erno</tspan></text>
    <text id="Objetivos_de_la_comunicación" data-name="Objetivos de la comunicación" transform="translate(1100.154 567.499)" font-size="14" font-family="Roboto-Regular, Roboto"><tspan x="0" y="0">Obje</tspan><tspan y="0" letter-spacing="0.002em">t</tspan><tspan y="0">i</tspan><tspan y="0" letter-spacing="-0.013em">v</tspan><tspan y="0">o</tspan><tspan y="0" letter-spacing="0.002em">s</tspan><tspan y="0" letter-spacing="-0.012em"> </tspan><tspan y="0">de</tspan><tspan y="0" letter-spacing="-0.013em"> </tspan><tspan y="0">la</tspan><tspan y="0" letter-spacing="-0.004em"> </tspan><tspan y="0" letter-spacing="0.002em">c</tspan><tspan y="0">o</tspan><tspan y="0" letter-spacing="-0.004em">m</tspan><tspan y="0">uni</tspan><tspan y="0" letter-spacing="0.003em">c</tspan><tspan y="0">a</tspan><tspan y="0" letter-spacing="-0.004em">c</tspan><tspan y="0">ión</tspan></text>
    <text id="Elección_de_estrategias" data-name="Elección de estrategias" transform="translate(1122.164 631.334)" font-size="14" font-family="Roboto-Regular, Roboto"><tspan x="0" y="0">Ele</tspan><tspan y="0" letter-spacing="0.003em">cc</tspan><tspan y="0">ión</tspan><tspan y="0" letter-spacing="-0.021em"> </tspan><tspan y="0">de</tspan><tspan y="0" letter-spacing="-0.013em"> </tspan><tspan y="0">e</tspan><tspan y="0" letter-spacing="0.003em">st</tspan><tspan y="0">ra</tspan><tspan y="0" letter-spacing="0.003em">t</tspan><tspan y="0">e</tspan><tspan y="0" letter-spacing="-0.009em">g</tspan><tspan y="0">ias</tspan></text>
    <text id="Definir_planes_de_acción" data-name="Definir planes de acción" transform="translate(1119.485 695.136)" font-size="14" font-family="Roboto-Regular, Roboto"><tspan x="0" y="0" letter-spacing="-0.004em">D</tspan><tspan y="0">e</tspan><tspan y="0" letter-spacing="0.003em">fi</tspan><tspan y="0">nir</tspan><tspan y="0" letter-spacing="-0.012em"> </tspan><tspan y="0">planes</tspan><tspan y="0" letter-spacing="-0.018em"> </tspan><tspan y="0">de</tspan><tspan y="0" letter-spacing="-0.013em"> </tspan><tspan y="0">a</tspan><tspan y="0" letter-spacing="0.003em">cc</tspan><tspan y="0">ión</tspan></text>
    <text id="Planes_de_acción" data-name="Planes de acción" transform="translate(475 749.94)" font-size="14" font-family="Roboto-Regular, Roboto"><tspan x="0" y="0">Planes</tspan><tspan y="0" letter-spacing="-0.009em"> </tspan><tspan y="0">de</tspan><tspan y="0" letter-spacing="-0.013em"> </tspan><tspan y="0">a</tspan><tspan y="0" letter-spacing="0.003em">cc</tspan><tspan y="0">ión</tspan></text>
    <text id="Seguimiento_y_cumplimiento" data-name="Seguimiento y cumplimiento" transform="translate(265 861.131)" font-size="14" font-family="Roboto-Regular, Roboto"><tspan x="0" y="0">Segui</tspan><tspan y="0" letter-spacing="-0.005em">m</tspan><tspan y="0">ien</tspan><tspan y="0" letter-spacing="0.002em">t</tspan><tspan y="0">o</tspan><tspan y="0" letter-spacing="-0.03em"> </tspan><tspan y="0" letter-spacing="-0.013em">y</tspan><tspan y="0" letter-spacing="0.012em"> </tspan><tspan y="0" letter-spacing="0.002em">c</tspan><tspan y="0">u</tspan><tspan y="0" letter-spacing="-0.004em">m</tspan><tspan y="0">pli</tspan><tspan y="0" letter-spacing="-0.004em">m</tspan><tspan y="0">ien</tspan><tspan y="0" letter-spacing="0.002em">t</tspan><tspan y="0">o</tspan></text>
    <text id="Identificación_de_las_partes_" data-name="Identificación de las partes " transform="translate(564.857 851.253)" font-size="14" font-family="Roboto-Regular, Roboto"><tspan x="0" y="0" letter-spacing="0.003em">I</tspan><tspan y="0">denti</tspan><tspan y="0" letter-spacing="0.006em">fi</tspan><tspan y="0" letter-spacing="-0.004em">c</tspan><tspan y="0">a</tspan><tspan y="0" letter-spacing="-0.005em">c</tspan><tspan y="0">ió</tspan><tspan y="0" letter-spacing="-0.009em">n</tspan><tspan y="0" letter-spacing="-0.029em"> </tspan><tspan y="0">de</tspan><tspan y="0" letter-spacing="-0.004em"> </tspan><tspan y="0">la</tspan><tspan y="0" letter-spacing="0.003em">s</tspan><tspan y="0" letter-spacing="-0.012em"> </tspan><tspan y="0">par</tspan><tspan y="0" letter-spacing="0.002em">t</tspan><tspan y="0">e</tspan><tspan y="0" letter-spacing="0.003em">s</tspan><tspan y="0"> </tspan></text>
    <text id="interesadas" transform="translate(619.629 871.007)" font-size="14" font-family="Roboto-Regular, Roboto"><tspan x="0" y="0">in</tspan><tspan y="0" letter-spacing="0.003em">t</tspan><tspan y="0">ere</tspan><tspan y="0" letter-spacing="0.003em">s</tspan><tspan y="0">a</tspan><tspan y="0" letter-spacing="-0.009em">d</tspan><tspan y="0">as</tspan></text>
    <text id="Mejora_continua" data-name="Mejora continua" transform="translate(1161.662 834.036)" font-size="14" font-family="Roboto-Regular, Roboto"><tspan x="0" y="0" letter-spacing="-0.004em">M</tspan><tspan y="0">ejora</tspan><tspan y="0" letter-spacing="-0.021em"> </tspan><tspan y="0" letter-spacing="0.003em">c</tspan><tspan y="0">on</tspan><tspan y="0" letter-spacing="0.002em">t</tspan><tspan y="0">inua</tspan></text>
    <text id="Medición_de_cumplimiento" data-name="Medición de cumplimiento" transform="translate(853.128 836.152)" font-size="14" font-family="Roboto-Regular, Roboto"><tspan x="0" y="0" letter-spacing="-0.004em">M</tspan><tspan y="0">edi</tspan><tspan y="0" letter-spacing="0.003em">c</tspan><tspan y="0">ión</tspan><tspan y="0" letter-spacing="-0.021em"> </tspan><tspan y="0">de</tspan><tspan y="0" letter-spacing="-0.013em"> </tspan><tspan y="0" letter-spacing="0.002em">c</tspan><tspan y="0">u</tspan><tspan y="0" letter-spacing="-0.004em">m</tspan><tspan y="0">pli</tspan><tspan y="0" letter-spacing="-0.004em">m</tspan><tspan y="0">ien</tspan><tspan y="0" letter-spacing="0.002em">t</tspan><tspan y="0">o</tspan></text>
  </g>
</svg>
