<svg xmlns="http://www.w3.org/2000/svg" width="88" height="88" viewBox="0 0 88 88">
  <g id="Grupo_120572" data-name="Grupo 120572" transform="translate(-495 -1773)">
    <g id="Elipse_6761" data-name="Elipse 6761" transform="translate(495 1773)" fill="#fff" stroke="#2631a0" stroke-width="4">
      <circle cx="44" cy="44" r="44" stroke="none"/>
      <circle cx="44" cy="44" r="42" fill="none"/>
    </g>
    <g id="Grupo_118964" data-name="Grupo 118964" transform="translate(507.607 1785.727)">
      <path id="Trazado_168338" data-name="Trazado 168338" d="M-6457.579,3117h-.978a.87.87,0,0,1-.269-.772q-.015-7.032,0-14.064a.873.873,0,0,1,.4-.888,1.016,1.016,0,0,1,.636-.164,14.866,14.866,0,0,0,9.02-3.548,14.723,14.723,0,0,0,5.317-9.515,14.819,14.819,0,0,0-3.547-12.178,15.065,15.065,0,0,0-10.229-5.29c-.507-.052-1.133.1-1.5-.469a2.113,2.113,0,0,1-.1-.9q-.009-5.18,0-10.36a1.861,1.861,0,0,1,.139-1.011,1.442,1.442,0,0,1,.554-.634c1.082-.72,2.141-1.475,3.2-2.227a4.292,4.292,0,0,1,2.762-.493,3.454,3.454,0,0,1,2.893,1.954c.6.965,1.178,1.947,1.761,2.924a.865.865,0,0,0,1.069.442c1.087-.257,2.192-.412,3.286-.638a3.953,3.953,0,0,1,4.913,3.539c.122,1.168.275,2.335.445,3.5a.755.755,0,0,0,.677.719c1.188.271,2.376.532,3.555.842a3.983,3.983,0,0,1,3.094,3.576,6.054,6.054,0,0,1-.445,2.257c-.267.916-.536,1.832-.824,2.742a.683.683,0,0,0,.241.851c.887.712,1.794,1.4,2.686,2.1a3.034,3.034,0,0,1,1.468,2.642c.031.248-.067.506.062.747v.61c-.037,1.387-1.025,2.242-1.808,3.207-.422.52-.845,1.041-1.288,1.543a.64.64,0,0,0-.084.833c.524.894.985,1.824,1.509,2.719a4.989,4.989,0,0,1,.831,2.579,3.661,3.661,0,0,1-2.026,3.369c-1.141.629-2.336,1.146-3.516,1.7a.87.87,0,0,0-.569.953c.077,1.357.209,2.71.275,4.069a3.923,3.923,0,0,1-3.834,3.853,29.449,29.449,0,0,0-3.594.061,1.068,1.068,0,0,0-1.008.865c-.379,1.117-.713,2.249-1.16,3.341a3.9,3.9,0,0,1-3.855,2.54,6.95,6.95,0,0,1-2.2-.677c-.841-.36-1.692-.7-2.524-1.074a.769.769,0,0,0-.977.171c-.827.786-1.546,1.672-2.335,2.492A3.366,3.366,0,0,1-6457.579,3117Z" transform="translate(6489.88 -3054.458)" fill="#fecb00"/>
      <path id="Trazado_168339" data-name="Trazado 168339" d="M-6579.938,3057.713a1.626,1.626,0,0,0-.106.837q-.009,5.8-.012,11.6c-.012.029-.023.059-.037.088a1.36,1.36,0,0,1-.9.307,14.8,14.8,0,0,0-8.85,3.486,14.891,14.891,0,0,0-5.427,10.031,14.565,14.565,0,0,0,2.254,9.828,15.2,15.2,0,0,0,10.953,7.051c.687.106,1.38.047,2.06.188a.339.339,0,0,1,.319.2c-.438.119-.362.476-.362.793v12.444c0,.793-.009,1.586-.012,2.379h-.978c-1.465-.116-2.2-1.276-3.078-2.2-.474-.5-.96-.993-1.431-1.5a.7.7,0,0,0-.877-.155c-1.172.464-2.313,1-3.49,1.45a3.78,3.78,0,0,1-3.35-.177,3.885,3.885,0,0,1-1.842-2.188c-.387-1.135-.834-2.251-1.176-3.4a.911.911,0,0,0-1.023-.732c-1.159.015-2.322.055-3.479-.012a3.846,3.846,0,0,1-3.618-2.448,6.373,6.373,0,0,1-.184-2.9c.057-.91.178-1.815.221-2.729a.654.654,0,0,0-.434-.7c-1.1-.566-2.251-1.042-3.356-1.606a3.862,3.862,0,0,1-1.771-5.59c.531-.982,1.041-1.979,1.631-2.929a.979.979,0,0,0-.1-1.354c-.7-.788-1.318-1.656-2.038-2.421a4.349,4.349,0,0,1-.94-3.412,3.5,3.5,0,0,1,1.621-2.725c.871-.666,1.726-1.355,2.6-2.015a.726.726,0,0,0,.3-.894c-.348-1.19-.679-2.386-1.071-3.56a3.92,3.92,0,0,1,2.809-5.017c1.186-.281,2.368-.578,3.56-.829a.865.865,0,0,0,.784-.842c.173-1.307.26-2.627.529-3.919a3.849,3.849,0,0,1,4.612-3.046c1.2.228,2.4.442,3.587.694a.74.74,0,0,0,.9-.4c.592-1,1.2-1.98,1.786-2.981a3.841,3.841,0,0,1,4.055-1.977,3.894,3.894,0,0,1,1.906.723c1.012.716,2.035,1.416,3.055,2.122C-6580.178,3057.389-6579.988,3057.489-6579.938,3057.713Z" transform="translate(6611.384 -3054.399)" fill="#fee275"/>
      <path id="Trazado_168340" data-name="Trazado 168340" d="M-6304.424,3189.312a.09.09,0,0,1,.1.036v.733A1.1,1.1,0,0,1-6304.424,3189.312Z" transform="translate(6366.91 -3161.853)" fill="#fed42c"/>
      <path id="Trazado_168341" data-name="Trazado 168341" d="M-6458.2,3162.971l-.375-.03c-.33-.249-.272-.617-.271-.953.018-3.167-.062-6.335.043-9.5a.472.472,0,0,1,.17-.473c2.152-2.266,4.408-4.43,6.6-6.662a2.238,2.238,0,0,0,.762-1.416,1.5,1.5,0,0,0-.905-1.462,1.539,1.539,0,0,0-1.8.33c-1.234,1.207-2.449,2.434-3.669,3.654a2.858,2.858,0,0,1-.5.445c-.261.16-.5.188-.648-.151a2.746,2.746,0,0,1-.056-.667q-.01-6.639,0-13.278c0-.332-.081-.708.277-.943a.065.065,0,0,0-.006-.069,16.114,16.114,0,0,1,7.082,1.766,15.117,15.117,0,0,1,8.283,11.7,15.059,15.059,0,0,1-5.35,14.044,14.889,14.889,0,0,1-7.824,3.534A17.227,17.227,0,0,1-6458.2,3162.971Z" transform="translate(6489.899 -3116.044)" fill="#e0eaef"/>
      <path id="Trazado_168342" data-name="Trazado 168342" d="M-6518.468,3132.136q0,7.559,0,15.115a.237.237,0,0,1,.038.167,15,15,0,0,1-2.367,2.524.71.71,0,0,1-1.084-.075c-.484-.463-.946-.951-1.431-1.416a1.532,1.532,0,0,0-2.274-.139,1.61,1.61,0,0,0,.1,2.34q1.474,1.5,2.978,2.975a1.594,1.594,0,0,0,2.337.155,9.984,9.984,0,0,0,.9-.818c.193-.179.367-.394.674-.357a1,1,0,0,1,.117.7q0,4.951,0,9.9a14.617,14.617,0,0,1-8.722-2.639,15.194,15.194,0,0,1-6.6-10.074,15.578,15.578,0,0,1,12.486-18.12A15.964,15.964,0,0,1-6518.468,3132.136Z" transform="translate(6549.801 -3116.315)" fill="#fefefe"/>
      <path id="Trazado_168343" data-name="Trazado 168343" d="M-6488.334,3212.142a13.513,13.513,0,0,1-1.482,1.442,1.765,1.765,0,0,1-2.479-.1c-1.109-1.073-2.2-2.163-3.271-3.276a1.815,1.815,0,0,1,.061-2.578,1.789,1.789,0,0,1,2.526.034c.53.5,1.055,1.015,1.548,1.552.3.328.5.354.827.014.771-.807,1.585-1.572,2.383-2.354a.54.54,0,0,1,.261.517c.033,1.3.031,2.6,0,3.907a5.862,5.862,0,0,1-.134.594Z" transform="translate(6519.541 -3175.849)" fill="#b2d0d6"/>
      <path id="Trazado_168344" data-name="Trazado 168344" d="M-6457.363,3192.254c-.174-.212-.109-.466-.111-.7-.011-1.438-.014-2.877-.019-4.316a.542.542,0,0,0,.02-.1c1.457-1.447,2.9-2.907,4.375-4.338a1.836,1.836,0,0,1,3.138.808,2,2,0,0,1-.7,1.967c-1.5,1.492-2.99,2.992-4.488,4.486C-6455.887,3190.8-6456.626,3191.523-6457.363,3192.254Z" transform="translate(6488.812 -3156.204)" fill="#6ea2a7"/>
    </g>
  </g>
</svg>
