<svg xmlns="http://www.w3.org/2000/svg" width="210" height="106.838" viewBox="0 0 210 106.838">
  <g id="Grupo_119043" data-name="Grupo 119043" transform="translate(-18.016 -145.812)">
    <g id="Grupo_119038" data-name="Grupo 119038" transform="translate(18.015 167.25)">
      <g id="Grupo_119037" data-name="Grupo 119037" transform="translate(0 29.652)">
        <path id="Trazado_168399" data-name="Trazado 168399" d="M19.354,249.931H204.207c1.784,0,1.784-4.931,0-4.931H19.354c-1.784,0-1.784,4.931,0,4.931Z" transform="translate(-18.015 -245)" fill="#707070"/>
      </g>
      <path id="Trazado_168400" data-name="Trazado 168400" d="M18.016,184.867,51.466,214.52H30.281Z" transform="translate(-18.016 -184.867)" fill="#707070"/>
      <path id="Trazado_168401" data-name="Trazado 168401" d="M18.016,284.652,51.466,255H30.281Z" transform="translate(-18.016 -220.416)" fill="#707070"/>
      <path id="Trazado_168402" data-name="Trazado 168402" d="M368.159,184.867V249.1a32.118,32.118,0,0,0,0-64.236Zm15.2,20.941a3.78,3.78,0,1,1,3.781-3.78A3.78,3.78,0,0,1,383.354,205.808Z" transform="translate(-190.277 -184.867)" fill="#707070"/>
    </g>
    <g id="Grupo_119040" data-name="Grupo 119040" transform="translate(56.012 145.812)">
      <g id="Grupo_119039" data-name="Grupo 119039">
        <path id="Trazado_168403" data-name="Trazado 168403" d="M145.085,311.808H92.32v19.507h45.574Z" transform="translate(-92.32 -225.622)" fill="#ff004c"/>
        <path id="Trazado_168404" data-name="Trazado 168404" d="M138.266,300.6H92.32v-1.986h45.073l17.384-49.659,1.272.906Z" transform="translate(-92.32 -193.763)" fill="#ff004c"/>
        <path id="Trazado_168405" data-name="Trazado 168405" d="M145.085,165.778H92.32V146.271h45.574Z" transform="translate(-92.32 -146.044)" fill="#ff004c"/>
        <path id="Trazado_168406" data-name="Trazado 168406" d="M138.266,145.812H92.32V147.8h45.073l17.384,49.659,1.272-.906Z" transform="translate(-92.32 -145.812)" fill="#ff004c"/>
      </g>
    </g>
    <path id="Trazado_168407" data-name="Trazado 168407" d="M154.125,206.779H103.189v-7.235h48.628Z" transform="translate(-41.748 -26.032)" fill="#939eac"/>
    <path id="Trazado_168408" data-name="Trazado 168408" d="M162.391,229.744H111.455v-7.235h48.628Z" transform="translate(-45.799 -37.158)" fill="#939eac"/>
    <path id="Trazado_168409" data-name="Trazado 168409" d="M154.125,285.343H103.189v7.235h48.628Z" transform="translate(-41.748 -67.599)" fill="#939eac"/>
    <path id="Trazado_168410" data-name="Trazado 168410" d="M162.391,262.379H111.455v7.235h48.628Z" transform="translate(-45.799 -56.473)" fill="#939eac"/>
    <g id="Grupo_119042" data-name="Grupo 119042" transform="translate(124.885 145.812)">
      <g id="Grupo_119041" data-name="Grupo 119041">
        <path id="Trazado_168411" data-name="Trazado 168411" d="M279.769,311.808H227v19.507h45.574Z" transform="translate(-227.003 -225.622)" fill="#242ca3"/>
        <path id="Trazado_168412" data-name="Trazado 168412" d="M272.95,300.6H227v-1.986h45.073l17.384-49.659,1.272.906Z" transform="translate(-227.003 -193.763)" fill="#242ca3"/>
        <path id="Trazado_168413" data-name="Trazado 168413" d="M279.769,165.778H227V146.271h45.574Z" transform="translate(-227.003 -146.044)" fill="#242ca3"/>
        <path id="Trazado_168414" data-name="Trazado 168414" d="M272.95,145.812H227V147.8h45.073l17.384,49.659,1.272-.906Z" transform="translate(-227.003 -145.812)" fill="#242ca3"/>
      </g>
    </g>
    <path id="Trazado_168415" data-name="Trazado 168415" d="M288.809,206.779H237.873v-7.235H286.5Z" transform="translate(-107.763 -26.032)" fill="#939eac"/>
    <path id="Trazado_168416" data-name="Trazado 168416" d="M297.074,229.744H246.139v-7.235h48.628Z" transform="translate(-111.814 -37.158)" fill="#939eac"/>
    <path id="Trazado_168417" data-name="Trazado 168417" d="M288.809,285.343H237.873v7.235H286.5Z" transform="translate(-107.763 -67.599)" fill="#939eac"/>
    <path id="Trazado_168418" data-name="Trazado 168418" d="M297.074,262.379H246.139v7.235h48.628Z" transform="translate(-111.814 -56.473)" fill="#939eac"/>
  </g>
</svg>
