<svg xmlns="http://www.w3.org/2000/svg" width="88" height="88" viewBox="0 0 88 88">
  <g id="Grupo_120571" data-name="Grupo 120571" transform="translate(-495 -1689)">
    <g id="Elipse_6760" data-name="Elipse 6760" transform="translate(495 1689)" fill="#fff" stroke="#2631a0" stroke-width="4">
      <circle cx="44" cy="44" r="44" stroke="none"/>
      <circle cx="44" cy="44" r="42" fill="none"/>
    </g>
    <g id="Grupo_118963" data-name="Grupo 118963" transform="translate(511.589 1703.807)">
      <path id="Trazado_168322" data-name="Trazado 168322" d="M-6514.936,3794.362h27.12a1.81,1.81,0,0,1,1.605,2.045c.013.93-.027,1.861.034,2.791-.052,1.881-.016,3.764-.021,5.645-.007,2.617,0,5.233,0,7.85a2.09,2.09,0,0,1-.076.8c-.178.339-.453.219-.7.125a19.685,19.685,0,0,0-2.03-.706,15.585,15.585,0,0,0-14.823,3.4,15.05,15.05,0,0,0-5.316,10.191c-.61,5.933,1.594,10.721,6.13,14.5a22.587,22.587,0,0,0,1.981,1.387c.161.107.563.223.161.535a1.925,1.925,0,0,1-.8.083q-10.557,0-21.111,0a4.491,4.491,0,0,1-.643-.034,29.408,29.408,0,0,1-2.956.019,1.837,1.837,0,0,1-1.848-1.894c0-.108,0-.215,0-.323q0-16.29,0-32.58c0-.223-.088-.47.109-.665a2.513,2.513,0,0,1,1.054-.148q5,0,10,0c1.354,0,1.9-.543,1.9-1.887q.006-5,0-10a3.476,3.476,0,0,1,.1-.958A.875.875,0,0,1-6514.936,3794.362Z" transform="translate(6528.242 -3794.362)" fill="#f8e9af"/>
      <path id="Trazado_168323" data-name="Trazado 168323" d="M-6212.854,4108.158c-.145.058-.123.209-.164.317a3.014,3.014,0,0,1-5.025,1.134c-1.119-1.08-2.213-2.186-3.319-3.28a.691.691,0,0,1-.446-.274q-1.109-1.1-2.205-2.206c-.148-.151-.318-.3-.3-.546.067-.2.242-.3.4-.41a16.793,16.793,0,0,0,3.5-3.186c.162-.2.279-.536.661-.379,1.788,1.8,3.565,3.6,5.369,5.385a4.987,4.987,0,0,1,1.519,2.261Z" transform="translate(6268.025 -4055.432)" fill="#e54c3c"/>
      <path id="Trazado_168324" data-name="Trazado 168324" d="M-6368.135,3875.407c-.151-.021-.222.086-.3.186a16.539,16.539,0,0,1-4.226,3.823.927.927,0,0,1-.518.516,16.148,16.148,0,0,1-6.679,2.042,16.218,16.218,0,0,1-8.456-1.553c-.238-.112-.518-.183-.594-.493a18.548,18.548,0,0,1-4.1-3.18,16.039,16.039,0,0,1-4.414-8.779,15.737,15.737,0,0,1,3.469-12.809,15.673,15.673,0,0,1,9.986-5.691,16.057,16.057,0,0,1,9.022,1.184c.114.049.235.078.355.116.251-.087.452.056.655.159a15.387,15.387,0,0,1,3.271,2.24c.154.137.275.333.523.346a1.115,1.115,0,0,0,.065-.628q0-7.093.007-14.186c0-.326-.09-.69.228-.948a1.082,1.082,0,0,1,.087.68q0,7.666,0,15.333a1.379,1.379,0,0,0,.417,1.041,15.317,15.317,0,0,1,4,8.1,15.938,15.938,0,0,1-.972,9,14.475,14.475,0,0,1-1.52,2.837C-6367.967,3874.939-6368.161,3875.125-6368.135,3875.407Z" transform="translate(6416.417 -3831.511)" fill="#ebeff0"/>
      <path id="Trazado_168325" data-name="Trazado 168325" d="M-6472.083,4127.954a16.537,16.537,0,0,0,7.308,1.916,16.218,16.218,0,0,0,8.938-2.428q1.274,1.3,2.549,2.6c.124.126.235.264.354.4-.032.266-.049.536-.1.8a1.835,1.835,0,0,1-1.7,1.473c-.2.011-.394.006-.592.006h-37.111c-1.677,0-2.353-.671-2.354-2.334q0-1.21,0-2.42Z" transform="translate(6499.598 -4079.536)" fill="#e3bf5c"/>
      <path id="Trazado_168326" data-name="Trazado 168326" d="M-6527.07,3808.194c.081-.094.157-.195.244-.283q6.3-6.3,12.611-12.608c.087-.088.188-.164.283-.244,0,3.782.01,7.564,0,11.346a1.7,1.7,0,0,1-1.794,1.793C-6519.506,3808.2-6523.288,3808.2-6527.07,3808.194Z" transform="translate(6527.239 -3794.959)" fill="#f2d45b"/>
      <path id="Trazado_168327" data-name="Trazado 168327" d="M-6232.634,3828.825v16.269c-.234.07-.3-.118-.41-.216a16.767,16.767,0,0,0-4.027-2.829,2.837,2.837,0,0,1-.312-.207q0-6.892.006-13.783a1.3,1.3,0,0,1,.1-.732c.839,0,1.678,0,2.517,0A1.962,1.962,0,0,1-6232.634,3828.825Z" transform="translate(6279.217 -3822.584)" fill="#e3bf5c"/>
      <path id="Trazado_168328" data-name="Trazado 168328" d="M-6491.828,3921.811q-4.14,0-8.279,0a1.072,1.072,0,0,1-.924-.326.929.929,0,0,1,.517-1.514,2.438,2.438,0,0,1,.482-.021q8.278,0,16.559,0a1.111,1.111,0,0,1,1.007.375.915.915,0,0,1-.6,1.473,4.558,4.558,0,0,1-.59.016Z" transform="translate(6505.135 -3901.885)" fill="#a48f78"/>
      <path id="Trazado_168329" data-name="Trazado 168329" d="M-6492.814,3946.231h7.264a2.34,2.34,0,0,1,.483.016.917.917,0,0,1,.8.881.864.864,0,0,1-.694.956,2.47,2.47,0,0,1-.637.064q-7.21.005-14.421,0a1.715,1.715,0,0,1-.687-.082.93.93,0,0,1-.631-.962.941.941,0,0,1,.881-.869c.142-.014.286-.006.43-.006Z" transform="translate(6505.206 -3924.385)" fill="#a49078"/>
      <path id="Trazado_168330" data-name="Trazado 168330" d="M-6493.95,3974.438c-2.132,0-4.266,0-6.4,0a.97.97,0,0,1-1.045-.873.983.983,0,0,1,.9-1.02,3.7,3.7,0,0,1,.589-.025q5.082,0,10.163,0c.663,0,1.326,0,1.989,0a1.418,1.418,0,0,1,.681.125.9.9,0,0,1,.522,1.018.89.89,0,0,1-.949.774c-1.486.012-2.975,0-4.463,0Z" transform="translate(6505.258 -3946.893)" fill="#a49078"/>
      <path id="Trazado_168331" data-name="Trazado 168331" d="M-6494.73,4025.513q2.793,0,5.587,0a.994.994,0,0,1,.96.564.864.864,0,0,1-.111.959,1.158,1.158,0,0,1-1.011.4c-1.057,0-2.113,0-3.17,0q-3.734,0-7.468,0a3.408,3.408,0,0,1-.587-.032.978.978,0,0,1-.869-.993.969.969,0,0,1,1.027-.891c1.486-.01,2.973,0,4.459,0Z" transform="translate(6505.263 -3992.266)" fill="#a59078"/>
      <path id="Trazado_168332" data-name="Trazado 168332" d="M-6494.469,4001.109q-2.9,0-5.8,0a.939.939,0,0,1-1-.653.9.9,0,0,1,.348-1.042.864.864,0,0,1,.607-.163q5.8,0,11.607,0c.661,0,1.021.332,1.029.906.011.6-.352.946-1.043.949C-6490.635,4001.113-6492.552,4001.109-6494.469,4001.109Z" transform="translate(6505.194 -3969.782)" fill="#a48f78"/>
      <path id="Trazado_168333" data-name="Trazado 168333" d="M-6296.575,3817.172c0,.735.008,1.47,0,2.2a.968.968,0,0,1-.909,1.056.964.964,0,0,1-1.009-1.023q-.04-1.585,0-3.172c.011-.425-.123-.561-.549-.549-1.021.027-2.044.012-3.065.008a1.029,1.029,0,0,1-1.126-.849.978.978,0,0,1,.947-1.024,21.077,21.077,0,0,1,2.9-.049,8.826,8.826,0,0,1,1.93.06.95.95,0,0,1,.886,1.08C-6296.566,3815.666-6296.575,3816.419-6296.575,3817.172Z" transform="translate(6335.602 -3810.96)" fill="#fefefe"/>
      <path id="Trazado_168334" data-name="Trazado 168334" d="M-6504.988,4071.834c-.664,0-1.327,0-1.99,0-.829,0-1.26-.35-1.283-1.178-.039-1.432-.018-2.867,0-4.3a1.767,1.767,0,0,1,.16-.674.8.8,0,0,1,.97-.491.926.926,0,0,1,.783.957c.011,1.058.029,2.116-.006,3.172-.018.489.15.61.612.595,1-.032,2.008-.014,3.012-.008.668,0,1.107.361,1.122.9.018.613-.4,1.012-1.119,1.027C-6503.482,4071.846-6504.235,4071.834-6504.988,4071.834Z" transform="translate(6511.154 -4026.217)" fill="#fefefe"/>
      <path id="Trazado_168335" data-name="Trazado 168335" d="M-6330.946,3958.858a13.152,13.152,0,0,1,3.709,7.129,14.159,14.159,0,0,1-11.213,16.6,13.891,13.891,0,0,1-10.184-1.763,5.3,5.3,0,0,1-.43-.313,3.842,3.842,0,0,1-.78-1.389,16.4,16.4,0,0,1-1.12-5.161.829.829,0,0,1,.152-.657c.314-.126.458.138.623.3,1.011.993,2.008,2,3.011,3a4.675,4.675,0,0,0,.472.44.964.964,0,0,0,1.363-.026q5.361-4.613,10.737-9.208c1.114-.958,2.228-1.918,3.353-2.864.777-.654.814-1.022.186-1.794-.239-.292-.491-.571-.737-.856a.914.914,0,0,0-1.518-.13c-1.253,1.045-2.481,2.118-3.722,3.179q-3.208,2.744-6.41,5.5c-.64.549-1.263,1.117-1.918,1.646-.451.365-.635.359-1.067-.043-.288-.269-.549-.568-.841-.832-.947-.848-1.65-1.988-2.931-2.436a1.04,1.04,0,0,1,.1-.781,15.186,15.186,0,0,1,13.119-10.309,13.469,13.469,0,0,1,5.332.421A2.242,2.242,0,0,1-6330.946,3958.858Z" transform="translate(6376.465 -3934.451)" fill="#24ad5f"/>
      <path id="Trazado_168336" data-name="Trazado 168336" d="M-6377.6,3951.917a8.826,8.826,0,0,0,.2,2.8,19.925,19.925,0,0,0,1.444,4.412,13.191,13.191,0,0,1-4.79-5.26,14.219,14.219,0,0,1,10.2-20.633,13.9,13.9,0,0,1,12.4,3.871,3.743,3.743,0,0,1,.3.37c-.931-.161-1.834-.441-2.781-.544a15.28,15.28,0,0,0-7.12.828,15.043,15.043,0,0,0-5.729,3.772,15.132,15.132,0,0,0-3.5,5.961,2.421,2.421,0,0,0-.057.368c-.036.324-.331.448-.516.654-.238.265-.5.506-.753.76-.658.671-.642,1.017-.01,1.731C-6378.057,3951.29-6377.606,3951.437-6377.6,3951.917Z" transform="translate(6403.365 -3913.067)" fill="#4fb96f"/>
      <path id="Trazado_168337" data-name="Trazado 168337" d="M-6357.43,3994.871c-.335-.342-.672-.682-1-1.029a.949.949,0,0,1-.009-1.532,12.039,12.039,0,0,1,1.583-1.5,1.144,1.144,0,0,1,1.157.384c.915.934,1.855,1.845,2.767,2.783.236.244.379.259.646.029q6.026-5.193,12.072-10.364c.766-.657,1.2-.631,1.846.13.291.34.586.678.875,1.021a.989.989,0,0,1-.119,1.62q-3.155,2.72-6.323,5.425-3.917,3.358-7.837,6.716c-.886.76-1.191.749-2.033-.089Q-6355.618,3996.669-6357.43,3994.871Z" transform="translate(6383.192 -3956.021)" fill="#fefefe"/>
    </g>
  </g>
</svg>
