<svg xmlns="http://www.w3.org/2000/svg" width="210" height="165.026" viewBox="0 0 210 165.026">
  <g id="Grupo_119033" data-name="Grupo 119033" transform="translate(-933.474 -395.041)">
    <g id="Grupo_118990" data-name="Grupo 118990" transform="translate(960.14 395.868)">
      <g id="Grupo_118979" data-name="Grupo 118979" transform="translate(0 134.765)">
        <g id="Grupo_118978" data-name="Grupo 118978">
          <path id="Trazado_168365" data-name="Trazado 168365" d="M1158.429,613.982h-181.4a.827.827,0,1,1,0-1.654h181.4a.827.827,0,0,1,0,1.654Z" transform="translate(-976.207 -612.328)" fill="#c4c4c4"/>
        </g>
      </g>
      <g id="Grupo_118981" data-name="Grupo 118981" transform="translate(0 107.811)">
        <g id="Grupo_118980" data-name="Grupo 118980">
          <path id="Trazado_168366" data-name="Trazado 168366" d="M1158.429,570.788h-181.4a.827.827,0,1,1,0-1.654h181.4a.827.827,0,0,1,0,1.654Z" transform="translate(-976.207 -569.134)" fill="#c4c4c4"/>
        </g>
      </g>
      <g id="Grupo_118983" data-name="Grupo 118983" transform="translate(0 80.858)">
        <g id="Grupo_118982" data-name="Grupo 118982">
          <path id="Trazado_168367" data-name="Trazado 168367" d="M1158.429,527.595h-181.4a.827.827,0,1,1,0-1.654h181.4a.827.827,0,0,1,0,1.654Z" transform="translate(-976.207 -525.941)" fill="#c4c4c4"/>
        </g>
      </g>
      <g id="Grupo_118985" data-name="Grupo 118985" transform="translate(0 53.904)">
        <g id="Grupo_118984" data-name="Grupo 118984">
          <path id="Trazado_168368" data-name="Trazado 168368" d="M1158.429,484.4h-181.4a.827.827,0,0,1,0-1.654h181.4a.827.827,0,0,1,0,1.654Z" transform="translate(-976.207 -482.747)" fill="#c4c4c4"/>
        </g>
      </g>
      <g id="Grupo_118987" data-name="Grupo 118987" transform="translate(0 26.95)">
        <g id="Grupo_118986" data-name="Grupo 118986">
          <path id="Trazado_168369" data-name="Trazado 168369" d="M1158.429,441.208h-181.4a.827.827,0,1,1,0-1.654h181.4a.827.827,0,0,1,0,1.654Z" transform="translate(-976.207 -439.554)" fill="#c4c4c4"/>
        </g>
      </g>
      <g id="Grupo_118989" data-name="Grupo 118989" transform="translate(0 0)">
        <g id="Grupo_118988" data-name="Grupo 118988">
          <path id="Trazado_168370" data-name="Trazado 168370" d="M1158.429,398.02h-181.4a.827.827,0,1,1,0-1.654h181.4a.827.827,0,0,1,0,1.654Z" transform="translate(-976.207 -396.366)" fill="#c4c4c4"/>
        </g>
      </g>
    </g>
    <g id="Grupo_118991" data-name="Grupo 118991" transform="translate(951.436 395.041)">
      <path id="Trazado_168371" data-name="Trazado 168371" d="M1152.642,560.067H963.912a1.652,1.652,0,0,1-1.654-1.654V396.695a1.654,1.654,0,1,1,3.307,0V556.76h187.077a1.654,1.654,0,0,1,0,3.307Z" transform="translate(-962.258 -395.041)" fill="#c4c4c4"/>
    </g>
    <g id="Grupo_118996" data-name="Grupo 118996" transform="translate(935.264 540.313)">
      <g id="Grupo_118995" data-name="Grupo 118995" transform="translate(0)">
        <g id="Grupo_118994" data-name="Grupo 118994">
          <g id="Grupo_118992" data-name="Grupo 118992" transform="translate(0 0.123)">
            <path id="Trazado_168372" data-name="Trazado 168372" d="M939.858,636.209h-1.124v-6.974l-1.9,1.159-.487-.794,2.529-1.563h.987Z" transform="translate(-936.342 -628.037)" fill="#c4c4c4"/>
          </g>
          <g id="Grupo_118993" data-name="Grupo 118993" transform="translate(5.533)">
            <path id="Trazado_168373" data-name="Trazado 168373" d="M950.679,632.055c0,2.71-.9,4.225-2.736,4.225s-2.736-1.515-2.736-4.225.9-4.215,2.736-4.215S950.679,629.355,950.679,632.055Zm-4.3,0c0,2.406.536,3.333,1.563,3.333s1.563-.927,1.563-3.333-.548-3.324-1.563-3.324S946.38,629.661,946.38,632.055Z" transform="translate(-945.208 -627.84)" fill="#c4c4c4"/>
          </g>
        </g>
      </g>
    </g>
    <g id="Grupo_119001" data-name="Grupo 119001" transform="translate(933.622 513.32)">
      <g id="Grupo_119000" data-name="Grupo 119000" transform="translate(0 0)">
        <g id="Grupo_118999" data-name="Grupo 118999">
          <g id="Grupo_118997" data-name="Grupo 118997">
            <path id="Trazado_168374" data-name="Trazado 168374" d="M938.647,586.819c0,1.528-.979,2.617-3.481,5.119h3.675l-.137.94h-4.823v-.892c2.883-3,3.593-3.785,3.593-5.119a1.261,1.261,0,0,0-1.344-1.353,2.015,2.015,0,0,0-1.665.892l-.755-.588a3.023,3.023,0,0,1,2.476-1.234A2.247,2.247,0,0,1,938.647,586.819Z" transform="translate(-933.712 -584.584)" fill="#c4c4c4"/>
          </g>
          <g id="Grupo_118998" data-name="Grupo 118998" transform="translate(6.41)">
            <path id="Trazado_168375" data-name="Trazado 168375" d="M949.455,588.8c0,2.71-.9,4.225-2.736,4.225s-2.736-1.515-2.736-4.225.9-4.215,2.736-4.215S949.455,586.1,949.455,588.8Zm-4.3,0c0,2.406.541,3.334,1.563,3.334s1.565-.927,1.565-3.334-.55-3.324-1.565-3.324S945.157,586.406,945.157,588.8Z" transform="translate(-943.984 -584.584)" fill="#c4c4c4"/>
          </g>
        </g>
      </g>
    </g>
    <g id="Grupo_119006" data-name="Grupo 119006" transform="translate(933.474 486.334)">
      <g id="Grupo_119005" data-name="Grupo 119005" transform="translate(0 0)">
        <g id="Grupo_119004" data-name="Grupo 119004">
          <g id="Grupo_119002" data-name="Grupo 119002">
            <path id="Trazado_168376" data-name="Trazado 168376" d="M938.456,543.416a1.948,1.948,0,0,0,.26,3.86,2.536,2.536,0,0,1-2.789,2.5,3.079,3.079,0,0,1-2.454-1.1l.672-.62a2.3,2.3,0,0,0,1.746.8,1.514,1.514,0,0,0,1.652-1.6c0-1.124-.638-1.466-1.624-1.466h-.612l.134-.865h.416a1.374,1.374,0,0,0,1.475-1.444,1.215,1.215,0,0,0-1.352-1.243,2.3,2.3,0,0,0-1.687.733l-.587-.672a3.3,3.3,0,0,1,2.331-.966A2.16,2.16,0,0,1,938.456,543.416Z" transform="translate(-933.474 -541.339)" fill="#c4c4c4"/>
          </g>
          <g id="Grupo_119003" data-name="Grupo 119003" transform="translate(6.586)">
            <path id="Trazado_168377" data-name="Trazado 168377" d="M949.5,545.551c0,2.713-.9,4.228-2.736,4.228s-2.736-1.515-2.736-4.228.9-4.212,2.736-4.212S949.5,542.854,949.5,545.551Zm-4.3,0c0,2.406.536,3.337,1.563,3.337,1.011,0,1.563-.93,1.563-3.337s-.552-3.32-1.563-3.32C945.737,542.231,945.2,543.157,945.2,545.551Z" transform="translate(-944.028 -541.339)" fill="#c4c4c4"/>
          </g>
        </g>
      </g>
    </g>
    <g id="Grupo_119011" data-name="Grupo 119011" transform="translate(933.581 459.345)">
      <g id="Grupo_119010" data-name="Grupo 119010" transform="translate(0 0)">
        <g id="Grupo_119009" data-name="Grupo 119009">
          <g id="Grupo_119007" data-name="Grupo 119007">
            <path id="Trazado_168378" data-name="Trazado 168378" d="M939.286,504.365h-1.063v2.016h-1.088v-2.016h-3.49v-.8l2.455-5.471.939.391-2.213,4.993h2.323l.1-2.2h.979v2.2h1.063Z" transform="translate(-933.645 -498.089)" fill="#c4c4c4"/>
          </g>
          <g id="Grupo_119008" data-name="Grupo 119008" transform="translate(6.68)">
            <path id="Trazado_168379" data-name="Trazado 168379" d="M949.82,502.3c0,2.713-.9,4.228-2.736,4.228s-2.736-1.515-2.736-4.228.9-4.212,2.736-4.212S949.82,499.6,949.82,502.3Zm-4.3,0c0,2.407.538,3.337,1.563,3.337s1.563-.93,1.563-3.337-.55-3.32-1.563-3.32S945.521,499.907,945.521,502.3Z" transform="translate(-944.349 -498.089)" fill="#c4c4c4"/>
          </g>
        </g>
      </g>
    </g>
    <g id="Grupo_119016" data-name="Grupo 119016" transform="translate(933.597 432.356)">
      <g id="Grupo_119015" data-name="Grupo 119015">
        <g id="Grupo_119014" data-name="Grupo 119014">
          <g id="Grupo_119012" data-name="Grupo 119012" transform="translate(0 0.122)">
            <path id="Trazado_168380" data-name="Trazado 168380" d="M938.482,455.914H935.3v2.406A2.825,2.825,0,0,1,936.6,458a2.3,2.3,0,0,1,2.321,2.59,2.66,2.66,0,0,1-2.833,2.759,3.2,3.2,0,0,1-2.419-1.037l.685-.659a2.2,2.2,0,0,0,1.72.782c1.027,0,1.674-.672,1.674-1.87,0-1.257-.647-1.7-1.489-1.7a2.561,2.561,0,0,0-1.159.278h-.882v-4.115h4.42Z" transform="translate(-933.671 -455.035)" fill="#c4c4c4"/>
          </g>
          <g id="Grupo_119013" data-name="Grupo 119013" transform="translate(6.476)">
            <path id="Trazado_168381" data-name="Trazado 168381" d="M949.52,459.054c0,2.71-.9,4.225-2.736,4.225s-2.736-1.515-2.736-4.225.9-4.215,2.736-4.215S949.52,456.354,949.52,459.054Zm-4.3,0c0,2.407.536,3.334,1.563,3.334,1.01,0,1.563-.927,1.563-3.334s-.553-3.324-1.563-3.324C945.758,455.73,945.221,456.661,945.221,459.054Z" transform="translate(-944.049 -454.839)" fill="#c4c4c4"/>
          </g>
        </g>
      </g>
    </g>
    <g id="Grupo_119021" data-name="Grupo 119021" transform="translate(933.755 405.367)">
      <g id="Grupo_119020" data-name="Grupo 119020" transform="translate(0)">
        <g id="Grupo_119019" data-name="Grupo 119019">
          <g id="Grupo_119017" data-name="Grupo 119017">
            <path id="Trazado_168382" data-name="Trazado 168382" d="M939.277,417.108a2.671,2.671,0,0,1-2.6,2.92c-1.989,0-2.748-1.637-2.748-3.982,0-2.674,1.163-4.457,3.09-4.457a2.932,2.932,0,0,1,1.686.5l-.439.743A2.42,2.42,0,0,0,937,412.48c-1.185,0-1.893,1.234-1.954,3.1a2.3,2.3,0,0,1,4.228,1.528Zm-1.137.036c0-1.3-.549-1.747-1.321-1.747a2.106,2.106,0,0,0-1.757,1.124c.048,1.783.525,2.613,1.611,2.613C937.639,419.133,938.14,418.342,938.14,417.144Z" transform="translate(-933.925 -411.588)" fill="#c4c4c4"/>
          </g>
          <g id="Grupo_119018" data-name="Grupo 119018" transform="translate(6.511)">
            <path id="Trazado_168383" data-name="Trazado 168383" d="M949.831,415.8c0,2.713-.9,4.228-2.736,4.228s-2.736-1.515-2.736-4.228.9-4.212,2.736-4.212S949.831,413.1,949.831,415.8Zm-4.3,0c0,2.406.537,3.333,1.564,3.333s1.563-.927,1.563-3.333-.549-3.32-1.563-3.32S945.531,413.407,945.531,415.8Z" transform="translate(-944.359 -411.588)" fill="#c4c4c4"/>
          </g>
        </g>
      </g>
    </g>
    <g id="Grupo_119022" data-name="Grupo 119022" transform="translate(959.53 449.772)">
      <rect id="Rectángulo_42920" data-name="Rectángulo 42920" width="22.569" height="100.916" transform="translate(0 0)" fill="#febf10"/>
    </g>
    <g id="Grupo_119023" data-name="Grupo 119023" transform="translate(983.325 469.67)">
      <rect id="Rectángulo_42921" data-name="Rectángulo 42921" width="22.569" height="81.018" transform="translate(0 0)" fill="#616161"/>
    </g>
    <g id="Grupo_119024" data-name="Grupo 119024" transform="translate(1007.121 469.67)">
      <rect id="Rectángulo_42922" data-name="Rectángulo 42922" width="22.569" height="81.018" transform="translate(0 0)" fill="#242ca3"/>
    </g>
    <g id="Grupo_119025" data-name="Grupo 119025" transform="translate(1030.916 480.29)">
      <rect id="Rectángulo_42923" data-name="Rectángulo 42923" width="22.569" height="70.397" transform="translate(0 0)" fill="#febf10"/>
    </g>
    <g id="Grupo_119026" data-name="Grupo 119026" transform="translate(1054.711 503.243)">
      <rect id="Rectángulo_42924" data-name="Rectángulo 42924" width="22.569" height="47.444" transform="translate(0 0)" fill="#616161"/>
    </g>
    <g id="Grupo_119027" data-name="Grupo 119027" transform="translate(1078.506 509.465)">
      <rect id="Rectángulo_42925" data-name="Rectángulo 42925" width="22.569" height="41.222" transform="translate(0 0)" fill="#242ca3"/>
    </g>
    <g id="Grupo_119028" data-name="Grupo 119028" transform="translate(1102.302 516.031)">
      <rect id="Rectángulo_42926" data-name="Rectángulo 42926" width="22.569" height="34.657" transform="translate(0)" fill="#ff004c"/>
    </g>
    <g id="Grupo_119029" data-name="Grupo 119029" transform="translate(984.322 404.722)">
      <path id="Trazado_168384" data-name="Trazado 168384" d="M1110.976,410.555c-31.479,0-52.7,7.666-66.294,15.685-22.524,13.291-29.44,30-29.725,30.705l2.773,1.116c.064-.163,6.922-16.607,28.671-29.365,20.144-11.82,57.556-22.811,121.349-8.06l.676-2.912C1146.292,412.607,1127.261,410.555,1110.976,410.555Z" transform="translate(-1014.958 -410.555)" fill="#ff004c"/>
    </g>
    <g id="Grupo_119030" data-name="Grupo 119030" transform="translate(1100.747 404.245)">
      <path id="Trazado_168385" data-name="Trazado 168385" d="M1209.841,413.946a4.155,4.155,0,1,0-4.157,4.157A4.157,4.157,0,0,0,1209.841,413.946Z" transform="translate(-1201.53 -409.791)" fill="#ff004c"/>
    </g>
    <g id="Grupo_119031" data-name="Grupo 119031" transform="translate(1035.602 406.653)">
      <path id="Trazado_168386" data-name="Trazado 168386" d="M1105.448,417.8a4.157,4.157,0,1,0-4.157,4.157A4.157,4.157,0,0,0,1105.448,417.8Z" transform="translate(-1097.134 -413.65)" fill="#ff004c"/>
    </g>
    <g id="Grupo_119032" data-name="Grupo 119032" transform="translate(993.28 431.001)">
      <path id="Trazado_168387" data-name="Trazado 168387" d="M1037.627,456.822a4.156,4.156,0,1,0-4.159,4.157A4.157,4.157,0,0,0,1037.627,456.822Z" transform="translate(-1029.314 -452.667)" fill="#ff004c"/>
    </g>
  </g>
</svg>
