<svg xmlns="http://www.w3.org/2000/svg" width="210" height="168.396" viewBox="0 0 210 168.396">
  <g id="Grupo_119067" data-name="Grupo 119067" transform="translate(7500.857 -2624.787)">
    <path id="Trazado_168481" data-name="Trazado 168481" d="M-7500.857,2624.891h168.129c.26.928-.489,1.36-.985,1.858q-19.742,19.786-39.521,39.537a2.963,2.963,0,0,1-1.684,1.089c-1.476-.278-2.219-1.529-3.13-2.491-.947-1-1.543-.906-2.471.039-4.774,4.862-9.611,9.663-14.441,14.47-.71.706-1.33,1.6-2.509,1.595-1.256-.267-2.12-1.212-3.154-1.854a45.472,45.472,0,0,0-24.871-6.986,44.046,44.046,0,0,0-32.141,13.5,44.574,44.574,0,0,0-12.816,27.474,46.143,46.143,0,0,0,2.146,18.958,6.881,6.881,0,0,1,.466,1.985,3.112,3.112,0,0,1-1.225,1.817q-10.021,10.044-20.062,20.07a4.238,4.238,0,0,1-2.582,1.526c-2.357.181-4.714.078-7.069.079a2.916,2.916,0,0,1-2.08-.615Z" transform="translate(0 -0.047)" fill="#939eac"/>
    <path id="Trazado_168482" data-name="Trazado 168482" d="M-7490.875,2847.371q10.57-10.5,21.145-21c.524-.522,1.1-.989,1.658-1.482a1.079,1.079,0,0,1,.863.77c2.235,5.464,5.8,10.059,9.524,14.546a1.188,1.188,0,0,1,.048.582,7.041,7.041,0,0,1-1.714,2.006c-11.69,11.733-23.45,23.4-35.105,35.166a2.057,2.057,0,0,1-.649.484,17.434,17.434,0,0,1-4.979-8c-.2-.612-.1-1.374-.773-1.791v-6.972c.74-5.845,4.59-9.726,8.55-13.536A4.222,4.222,0,0,1-7490.875,2847.371Z" transform="translate(0 -90.429)" fill="#c66e59"/>
    <path id="Trazado_168483" data-name="Trazado 168483" d="M-7292.041,2667.089c.417-.346.864-.662,1.246-1.043q19.986-19.971,39.957-39.96c.381-.382.7-.827,1.046-1.243,13.117,0,26.234.031,39.352-.056,1.941-.013,2.522.467,2.52,2.47q-.086,63.644,0,127.289c0,1.886-.5,2.394-2.389,2.389q-40.273-.091-80.547-.041c-.956,0-1.913.011-2.869.017a1.417,1.417,0,0,1-.646.162c-6.56-.089-13.12.005-19.681-.053-1.121-.011-2.794.516-3.208-.59-.447-1.2,1.26-1.694,2.117-2.349,12.306-9.421,18.365-21.982,18.4-37.356a44.015,44.015,0,0,0-7.744-24.688c-.58-.877-1.533-1.654-1.093-2.928,2.3-3.173,5.334-5.641,8.061-8.4a1.569,1.569,0,0,1,2.37-.018c.778.669,1.483,1.412,2.208,2.136q7.1,7.1,14.2,14.2c1.8,1.79,1.98,1.79,3.771,0q13.627-13.612,27.254-27.226c.783-.78,1.56-2.248,2.733-1.727,1.14.507.619,2.084.646,3.2q.085,3.584,0,7.172c-.037,1.5.589,2.087,2.068,2.052,2.391-.057,4.781-.029,7.172-.012,1.363.01,1.983-.558,1.982-1.958q-.012-14.549,0-29.1c0-1.263-.417-1.893-1.767-1.891q-14.959.018-29.916,0c-1.079,0-1.668.4-1.668,1.551,0,2.665.006,5.328,0,7.992,0,1.415.817,1.679,2,1.671,2.868-.02,5.737-.026,8.605.006.677.008,1.541-.1,1.872.554.411.809-.364,1.385-.872,1.9q-10.107,10.177-20.279,20.291c-.912.906-1.929,1.448-3.023.358-4.691-4.669-9.557-9.167-13.945-14.135A.651.651,0,0,1-7292.041,2667.089Z" transform="translate(-82.936 0)" fill="#bec6d0"/>
    <path id="Trazado_168484" data-name="Trazado 168484" d="M-7352.588,2738.5c-.317.594.034.96.369,1.432a44.488,44.488,0,0,1,8.164,20.061,45.785,45.785,0,0,1-10.334,36.413,56.714,56.714,0,0,1-10.512,9.387h9.937c3.827,0,7.653-.01,11.48.009.663,0,1.376-.2,1.971.3-.077.1-.155.191-.232.288a5.656,5.656,0,0,1-3,.409c-6.082.015-12.163.025-18.244,0a8.449,8.449,0,0,0-4.5,1.123,40.633,40.633,0,0,1-9.1,3.689,2.5,2.5,0,0,0-2.039,2.814c.064,4.031.031,8.063.016,12.1a6.172,6.172,0,0,1-.34,2.822.422.422,0,0,1-.614.2c-.029-5.309-.093-10.618-.064-15.926.007-1.333-.309-1.853-1.742-1.578a45.241,45.241,0,0,1-23.287-1.682c-.638-.215-1.309-.337-1.964-.5-2.719-.325-4.868-1.943-7.163-3.2a48.289,48.289,0,0,1-7.633-5.709,1.755,1.755,0,0,1-.788-1.357c-.019-.119-.034-.238-.046-.358.681-1.816,2.354-2.78,3.574-4.131,1.052-1.163,2.18-2.264,3.333-3.33,1.5-1.392,2.191-1.431,3.688-.076a30.85,30.85,0,0,0,17.211,7.957c10.535,1.315,19.844-1.384,27.656-8.86a32.394,32.394,0,0,0,10.357-24.753,30.849,30.849,0,0,0-5.658-17.686c-1.016-1.887-2.614-3.36-3.725-5.183a1.179,1.179,0,0,1-.027-.574c2.476-3.134,5.628-5.623,8.238-8.63a.94.94,0,0,1,.556-.09C-7355.127,2734.984-7354.122,2736.994-7352.588,2738.5Z" transform="translate(-35.523 -49.288)" fill="#9ccefe"/>
    <path id="Trazado_168485" data-name="Trazado 168485" d="M-7363.388,2889.1a.875.875,0,0,0,.275-.035,9.3,9.3,0,0,1,2.437-.185q15.839.022,31.681,0c2.922,0,3.012-.092,3.019-2.946.014-5.724-.011-11.448.017-17.171,0-1-.166-2.069.655-2.9l-.029-.2a.822.822,0,0,0,.369.1c0,7.313.049,14.626-.018,21.938-.013,1.443.407,1.839,1.836,1.823,6.423-.073,12.849.031,19.271-.074,1.676-.027,2.063.507,2,2.069-.118,2.8-.131,5.608,0,8.4.077,1.589-.472,1.909-1.964,1.905q-28.7-.074-57.4-.033c-7.791,0-15.581-.036-23.371.032-1.426.013-1.893-.357-1.835-1.815.111-2.866.118-5.743,0-8.609-.063-1.506.327-1.973,1.9-1.95,6.354.1,12.71.053,19.065.021C-7364.786,2889.478-7363.971,2889.837-7363.388,2889.1Z" transform="translate(-51.699 -108.859)" fill="#6354b0"/>
    <path id="Trazado_168486" data-name="Trazado 168486" d="M-7452.986,2853.762a57.332,57.332,0,0,0,15.583,10.271c-8.96,8.968-17.874,17.984-26.9,26.892-7.554,7.459-18.8,7.639-26.063.564,0-.7.516-1.084.945-1.514q17.73-17.736,35.469-35.465A9.623,9.623,0,0,1-7452.986,2853.762Z" transform="translate(-4.742 -103.478)" fill="#a14f3e"/>
    <path id="Trazado_168487" data-name="Trazado 168487" d="M-7373.192,2737.088a21.2,21.2,0,0,1,4.844,9.522c2.9,10.777,1.178,20.862-5.637,29.733-6.437,8.378-15.021,12.989-25.762,13.279a32.169,32.169,0,0,1-23.837-8.828c-1.021-.958-1.627-.468-2.381.281-2.47,2.449-4.971,4.866-7.46,7.295a44.025,44.025,0,0,1-10.3-15.469,45.215,45.215,0,0,1-3.213-18.158,46.134,46.134,0,0,1,10.731-28.274,43.965,43.965,0,0,1,20.208-14.018c13.275-4.372,26.155-3.272,38.409,3.664,1.644.931,3.228,1.966,4.839,2.953,1.611,1.108,3.567,1.861,4.145,4.031-.18,1.286-1.281,1.886-2.081,2.67a74.226,74.226,0,0,1-6.289,6.083c-2.253-.424-3.315-2.605-5.227-3.535a32.61,32.61,0,0,0-28.036-4.249,33.006,33.006,0,0,0-23.865,32.781,32.168,32.168,0,0,0,7.831,20.46c1.371,1.613,1.709,1.616,3.231.1q6.385-6.36,12.751-12.741a11.6,11.6,0,0,1,1.967-1.784,1.285,1.285,0,0,1,.582-.128,4.722,4.722,0,0,1,1.9,1.5c2.337,2.294,2.332,2.3,4.71-.077q12.816-12.817,25.645-25.622C-7374.842,2737.921-7374.359,2736.939-7373.192,2737.088Z" transform="translate(-24.351 -38.444)" fill="#cfe7fe"/>
    <path id="Trazado_168488" data-name="Trazado 168488" d="M-7440.812,2681.834c-4.436,0-8.873-.07-13.307.037-1.577.038-1.973-.474-1.912-1.978.116-2.862.082-5.733.012-8.6-.031-1.257.249-1.8,1.671-1.793q13.715.088,27.432,0c1.391-.009,1.731.478,1.7,1.768-.076,2.933-.1,5.872.011,8.8.06,1.508-.518,1.811-1.887,1.789C-7431.667,2681.788-7436.24,2681.834-7440.812,2681.834Z" transform="translate(-20.255 -20.208)" fill="#fe637b"/>
    <path id="Trazado_168489" data-name="Trazado 168489" d="M-7307.4,2716.427l-4.144-4.031c5.52-5.485,11.066-10.944,16.537-16.478.967-.978,1.547-1.208,2.511-.044a37.4,37.4,0,0,0,3.071,2.985c.015.125.033.249.054.372-.142.808-.791,1.253-1.311,1.775q-7.077,7.1-14.184,14.173c-.6.59-1.062,1.489-2.149,1.316C-7307.141,2716.468-7307.27,2716.445-7307.4,2716.427Z" transform="translate(-85.555 -31.771)" fill="#00dcbf"/>
    <path id="Trazado_168490" data-name="Trazado 168490" d="M-7303.278,2702.9q7.837-7.753,15.677-15.5c.627-.618,1.311-1.176,1.968-1.763,4.566,4.507,9.17,8.978,13.674,13.548,1.094,1.11,1.689,1.223,2.852.04,6.7-6.827,13.5-13.561,20.263-20.328.375-.376.725-.778,1.452-1.562-3.8,0-7.159.015-10.521,0-3.169-.019-2.73.34-2.754-2.692-.021-2.733.033-5.468-.022-8.2-.021-1.057.325-1.426,1.4-1.422q15.787.043,31.572,0c1.172,0,1.512.387,1.507,1.535q-.053,15.479,0,30.959c0,1.121-.3,1.6-1.489,1.582-3.143-.055-6.288-.069-9.429.007-1.281.031-1.43-.572-1.419-1.618.042-3.668.017-7.337.017-11.093-.965.208-1.338.914-1.839,1.414q-14.3,14.262-28.54,28.579c-1.21,1.222-1.847,1.431-3.169.066-5.417-5.6-11-11.031-16.468-16.585-1.041-1.059-1.655-1.385-2.826-.086-2.373,2.635-4.953,5.087-7.447,7.614C-7300.933,2706.517-7301.76,2704.367-7303.278,2702.9Z" transform="translate(-89.289 -18.179)" fill="#00b4bc"/>
    <path id="Trazado_168491" data-name="Trazado 168491" d="M-7306.1,2865.937c-.008,7.235-.052,14.47.009,21.7.012,1.487-.358,2.011-1.933,2-11.329-.062-22.658-.031-33.988-.039-.659,0-1.388.185-1.895-.471-.009-5.4.008-10.793-.047-16.189-.011-1.119.259-1.65,1.453-1.968a42.731,42.731,0,0,0,11.313-4.666,2.86,2.86,0,0,1,1.534-.492Q-7317.874,2865.888-7306.1,2865.937Z" transform="translate(-70.909 -108.927)" fill="#54469b"/>
    <path id="Trazado_168492" data-name="Trazado 168492" d="M-7353.1,2743.191c1.813.962,3.156,2.529,4.786,3.728a2.673,2.673,0,0,1,.047.352c-.115.819-.758,1.273-1.278,1.794q-13.809,13.83-27.637,27.638c-.521.521-.969,1.168-1.781,1.3-.126-.012-.25-.028-.375-.048-1.743-.658-2.689-2.221-3.9-3.473a1.169,1.169,0,0,1,.065-1.667,15.27,15.27,0,0,1,1.254-1.343q13.365-13.368,26.737-26.728C-7354.574,2744.133-7354.073,2743.339-7353.1,2743.191Z" transform="translate(-53.006 -53.509)" fill="#00dcbf"/>
    <path id="Trazado_168493" data-name="Trazado 168493" d="M-7375.175,2781.368c.593-.657,1.157-1.34,1.781-1.965q13.619-13.638,27.253-27.258c.529-.528,1.107-1.006,1.663-1.508,1.528,1.41,3.072,2.808,3.733,4.882q-13.772,13.723-27.545,27.449c-2.749,2.741-2.75,2.75-5.552-.076C-7374.315,2782.412-7374.732,2781.877-7375.175,2781.368Z" transform="translate(-56.798 -56.874)" fill="#00b4bc"/>
    <path id="Trazado_168494" data-name="Trazado 168494" d="M-7371.619,2738.367q-14.5,14.539-29.031,29.053c-1.074,1.068-1.366,1.74-.043,2.8a30.654,30.654,0,0,1,2.837,2.915,42.173,42.173,0,0,1-4.511,4.725c-3.349,3.406-6.746,6.764-10.124,10.142-2.2,2.2-2.229,2.223-4.216-.237a33.325,33.325,0,0,1-7.757-23.668,32.425,32.425,0,0,1,8.4-20.114c6.672-7.393,14.8-11.35,24.9-11.459A32.067,32.067,0,0,1-7371.619,2738.367Z" transform="translate(-34.49 -48.685)" fill="#e5f7fb"/>
  </g>
</svg>
