<svg xmlns="http://www.w3.org/2000/svg" width="124" height="124" viewBox="0 0 124 124">
  <g id="Grupo_120583" data-name="Grupo 120583" transform="translate(-1210.5 -7503.017)">
    <g id="Elipse_6828" data-name="Elipse 6828" transform="translate(1210.5 7503.017)" fill="#fff" stroke="#2631a0" stroke-width="4">
      <circle cx="62" cy="62" r="62" stroke="none"/>
      <circle cx="62" cy="62" r="60" fill="none"/>
    </g>
    <g id="Grupo_119209" data-name="Grupo 119209" transform="translate(4356.051 10252.222)">
      <path id="Trazado_168797" data-name="Trazado 168797" d="M-2562.621-2730.86c.14-.864.77-.978,1.484-.978q3.89,0,7.781,0h11.738l.061-.169c-.916-.581-1.832-1.16-2.746-1.744-1.07-.684-1.119-1.292-.177-2.143h.761q3.108,1.99,6.216,3.981c1.218.784,1.219,1.5,0,2.274-1.893,1.2-3.8,2.39-5.691,3.6-.616.393-1.214.624-1.749-.078-.421-.552-.171-1.171.643-1.689a20.633,20.633,0,0,0,2.715-1.937h-.9q-8.5,0-17,.008c-.357,0-.768-.165-1.065.2-.012,2.272,0,4.545-.008,6.817,0,.823-.223,1.008-1.087,1-.668-.006-1.028-.214-1.013-1C-2562.6-2725.431-2562.667-2728.146-2562.621-2730.86Z" transform="translate(-521.953)" fill="#1f3259"/>
      <path id="Trazado_168798" data-name="Trazado 168798" d="M-3132.239-2445.526l3.988-6.207c.777-1.209,1.517-1.227,2.273-.038q1.8,2.841,3.59,5.694c.534.851.5,1.492-.115,1.8-.82.411-1.282-.07-1.678-.732-.546-.913-1.131-1.8-1.714-2.726-.285.27-.168.537-.169.769q-.012,8.64,0,17.28c0,.331-.133.7.181.984,2.4.019,4.8,0,7.2.01.822,0,1.008.224,1,1.088-.007.669-.216,1.027-1,1.012-2.84-.055-5.682.016-8.522-.039-.943-.168-.93-.883-.93-1.6q0-9.261,0-18.521v-.907l-.188-.049c-.565.895-1.127,1.792-1.7,2.684-.729,1.146-1.284,1.209-2.219.261Z" transform="translate(0 -259.556)" fill="#1f3259"/>
      <path id="Trazado_168799" data-name="Trazado 168799" d="M-3072.07-2631.051c2.742-.017,5.485-.064,8.226-.032.787.01,1-.208,1.01-1,.007-.818-.269-.979-1.028-.979-2.295,0-4.593.126-6.885-.064,2.312-.021,4.623-.07,6.933-.046.731.008,1.012-.169.966-.944-.066-1.105.009-2.219-.027-3.327-.02-.59.076-.891.777-.974,2.072-.245,4.128-.618,6.2-.884a1.43,1.43,0,0,0,1.427-1.2,18.986,18.986,0,0,1,1.836-4.467,1.076,1.076,0,0,0-.1-1.358c-1.365-1.787-2.667-3.622-4.028-5.412-.313-.411-.324-.64.052-1.014q3.912-3.887,7.77-7.828c.46-.473.752-.366,1.184-.034,1.732,1.333,3.49,2.633,5.219,3.97a1.044,1.044,0,0,0,1.346.14,21.055,21.055,0,0,1,4.712-1.987,1.058,1.058,0,0,0,.858-1.056c.281-2.259.645-4.508.934-6.767.069-.539.346-.578.768-.573,1.2.013,2.41-.028,3.613.018.635.024.8-.2.794-.81-.03-2.567-.013-5.135-.008-7.7a1.525,1.525,0,0,1,.088-.354c.018,2.66.075,5.319.031,7.976-.014.841.345.884,1,.9.7.013.987-.118.981-.919-.015-2.209-.13-4.423.057-6.63.021,2.215.073,4.429.048,6.642-.008.7.174.942.9.9,1.169-.06,2.343,0,3.514-.025.506-.012.711.13.779.671.288,2.288.644,4.568.945,6.855a.845.845,0,0,0,.653.809,23.927,23.927,0,0,1,5.146,2.169c.446.257.7.029,1-.2,1.769-1.334,3.55-2.651,5.3-4,.48-.371.781-.413,1.247.066q3.777,3.881,7.629,7.688c.407.4.491.661.1,1.16-1.319,1.7-2.554,3.464-3.866,5.17a1.3,1.3,0,0,0-.163,1.683,16.806,16.806,0,0,1,1.757,4.29,1.478,1.478,0,0,0,1.5,1.234c2.069.255,4.124.62,6.192.886.568.073.743.271.726.829-.038,1.2.019,2.407-.024,3.609-.023.635.2.8.817.8,2.533-.031,5.067-.015,7.6-.009a1.338,1.338,0,0,1,.831.1c-.345.457-.854.345-1.31.349-2.086.018-4.171.006-6.257.009a3.845,3.845,0,0,0-.943.068c-.348.088-.417.35-.41.655a.5.5,0,0,0,.432.535,4.35,4.35,0,0,0,.85.052c1.707,0,3.413-.015,5.12.012.414.007.908-.119,1.173.386-2.215.02-4.429.044-6.644.059-1.246.009-1.246,0-1.247,1.294,0,1.045-.02,2.091.009,3.135.014.5-.121.714-.663.785-2.1.273-4.188.622-6.286.908-.745.1-1.246.314-1.451,1.164a17.2,17.2,0,0,1-1.784,4.382,1.256,1.256,0,0,0,.142,1.6c1.326,1.734,2.587,3.52,3.919,5.249.355.46.313.7-.081,1.088q-3.877,3.849-7.7,7.752a.723.723,0,0,1-1.172.076c-1.722-1.342-3.49-2.626-5.216-3.962a1.089,1.089,0,0,0-1.426-.131,21.666,21.666,0,0,1-4.713,1.979.955.955,0,0,0-.805.89c-.29,2.288-.648,4.568-.943,6.856-.063.488-.245.641-.717.631-1.2-.024-2.408.028-3.61-.022-.664-.028-.865.175-.855.846.037,2.533.017,5.067.01,7.6a2.209,2.209,0,0,1-.095.452c-.461-.343-.346-.853-.35-1.308-.019-1.959-.006-3.918-.009-5.878a3.867,3.867,0,0,0-.068-.943c-.087-.347-.347-.421-.652-.414a.5.5,0,0,0-.538.428,4.22,4.22,0,0,0-.054.85c0,1.58.015,3.16-.012,4.74-.007.415.118.908-.384,1.176-.021-2.214-.07-4.428-.046-6.642.008-.7-.157-.95-.89-.91-1.168.062-2.342,0-3.513.025-.5.011-.718-.112-.786-.662-.286-2.288-.645-4.567-.943-6.854a.9.9,0,0,0-.731-.851,23.376,23.376,0,0,1-4.885-2.051.916.916,0,0,0-1.182.1c-1.75,1.358-3.541,2.663-5.289,4.022-.487.379-.79.414-1.255-.062q-3.813-3.91-7.7-7.75c-.411-.407-.393-.646-.056-1.088,1.363-1.785,2.662-3.619,4.022-5.407a1.011,1.011,0,0,0,.1-1.274,19.929,19.929,0,0,1-1.9-4.642,1.319,1.319,0,0,0-1.329-1.061c-2.128-.287-4.248-.643-6.378-.916-.553-.071-.667-.292-.656-.784.026-1.139-.038-2.282.024-3.418.042-.771-.166-1.04-.983-1.021-2.437.054-4.875.024-7.313.014C-3071.453-2630.962-3071.778-2630.863-3072.07-2631.051Z" transform="translate(-55.138 -55.134)" fill="#7676fe"/>
      <path id="Trazado_168800" data-name="Trazado 168800" d="M-2824.93-1730.195c.192-2.2.081-4.408.058-6.61-.009-.869.334-.933,1.045-.952.766-.021.942.23.935.961-.028,2.65.014,5.3.029,7.951-.18.923-.887.943-1.61.943q-6.271,0-12.541,0c-1.963,0-3.927-.005-5.89.005a1.5,1.5,0,0,0-1.006.158c.974.619,1.883,1.216,2.811,1.781.662.4,1.02.942.566,1.643-.433.669-1.045.533-1.657.141-1.972-1.26-3.963-2.49-5.935-3.75-.992-.634-.994-1.439-.01-2.067,1.972-1.26,3.96-2.5,5.932-3.755.6-.385,1.212-.55,1.659.126.465.7.1,1.214-.538,1.649a14.519,14.519,0,0,0-2.86,1.969c6.291-.049,12.583-.014,18.874-.017Z" transform="translate(-259.673 -914.669)" fill="#1f3259"/>
      <path id="Trazado_168801" data-name="Trazado 168801" d="M-2131.408-2163.691c-2.3-.194-4.6-.036-6.9-.084a1.143,1.143,0,0,1-.954-1.727c.182-.326.5-.2.767-.206,2.465-.009,4.93,0,7.4-.008.346,0,.692-.028,1.038-.043.88.171.9.84.9,1.533q-.005,6.128,0,12.256v7.2l.179.087q.736-1.157,1.473-2.314a9.166,9.166,0,0,1,.57-.873.97.97,0,0,1,1.357-.236.9.9,0,0,1,.368,1.308c-1.361,2.206-2.727,4.41-4.141,6.583a1,1,0,0,1-1.743-.07c-1.372-2.125-2.707-4.274-4.042-6.422a.93.93,0,0,1,.329-1.4.96.96,0,0,1,1.41.309c.676,1.023,1.325,2.064,1.981,3.092.3-.135.186-.354.186-.517q.01-8.788,0-17.576C-2131.236-2163.1-2131.124-2163.437-2131.408-2163.691Z" transform="translate(-909.801 -522.459)" fill="#1f3259"/>
      <path id="Trazado_168802" data-name="Trazado 168802" d="M-2197.939-1707.235a1.63,1.63,0,0,1,1.644-1.688,1.633,1.633,0,0,1,1.66,1.679,1.585,1.585,0,0,1-1.647,1.667A1.583,1.583,0,0,1-2197.939-1707.235Z" transform="translate(-856.173 -941.093)" fill="#fe8a80"/>
      <path id="Trazado_168803" data-name="Trazado 168803" d="M-3014.471-1990.237a3.069,3.069,0,0,0-2.872-2.85,3.053,3.053,0,0,0,2.846-2.891,2.941,2.941,0,0,0,2.853,2.847C-3013.254-1992.786-3014.408-1992.085-3014.471-1990.237Z" transform="translate(-105.288 -678.042)" fill="#ad9cdb"/>
      <path id="Trazado_168804" data-name="Trazado 168804" d="M-2130.256-2419.5a2.95,2.95,0,0,0-2.713,2.743,5.168,5.168,0,0,0-.872-1.86c-.51-.5-1.24-.535-2.125-.991a2.775,2.775,0,0,0,2.933-2.772C-2132.69-2420.881-2132.072-2419.688-2130.256-2419.5Z" transform="translate(-912.964 -287.291)" fill="#fe8b81"/>
      <path id="Trazado_168805" data-name="Trazado 168805" d="M-2771.069-1645.908a5.376,5.376,0,0,1-.648.077q-8.938.006-17.876,0a2.085,2.085,0,0,1-.351-.061,4.151,4.151,0,0,1,.556-.076q8.878-.006,17.757,0A5.128,5.128,0,0,1-2771.069-1645.908Z" transform="translate(-313.673 -998.781)" fill="#7676fe"/>
      <path id="Trazado_168806" data-name="Trazado 168806" d="M-2777.009-2353.726a18.41,18.41,0,0,1-7.141-12.239c-1.518-10.885,5.126-20.13,15.911-22.33,10.1-2.059,20.746,5.036,22.67,15.2,1.477,7.8-.891,14.3-6.969,19.428-.466-.186-.546-.66-.763-1.029a11.8,11.8,0,0,0-4.357-4.567,12.154,12.154,0,0,0-5.243-2.042,1.82,1.82,0,0,1-.9-.23c-.015-.627.535-.518.867-.607a10.467,10.467,0,0,0,3.745-1.709,9.846,9.846,0,0,0,3.681-7.465,2.852,2.852,0,0,0-.108-1.12,9.283,9.283,0,0,0-6.012-7.355,8.618,8.618,0,0,0-4.945-.385,2.245,2.245,0,0,0-.689.132,9.239,9.239,0,0,0-6.729,8.618,9.152,9.152,0,0,0,5.985,8.847c.444.168.907.28,1.359.424.311.1.719.1.777.565-.382.35-.889.283-1.339.377a13.151,13.151,0,0,0-8.909,6.3C-2776.377-2354.493-2776.518-2353.974-2777.009-2353.726Z" transform="translate(-318.784 -318.204)" fill="#fefefe"/>
      <path id="Trazado_168807" data-name="Trazado 168807" d="M-2631.6-2042.979c.465-.134.675.256.96.477a12.853,12.853,0,0,1,4.018,5.165,19.275,19.275,0,0,1-19.828,2.736,1.189,1.189,0,0,1-.24-1.744,13.686,13.686,0,0,1,13.745-7.037A2.771,2.771,0,0,1-2631.6-2042.979Z" transform="translate(-444.702 -634.53)" fill="#fe6698"/>
      <path id="Trazado_168808" data-name="Trazado 168808" d="M-2676.9-2065.483a21.125,21.125,0,0,0-3.58-.2c-5.228.216-8.934,2.813-11.5,7.266-.357.618.331.848.232,1.306a14.73,14.73,0,0,1-4.643-2.8,13.228,13.228,0,0,1,11.081-7.883.618.618,0,0,1,.27-.168,6.167,6.167,0,0,1,1.437-.04.65.65,0,0,1,.428.206,12.535,12.535,0,0,1,5.634,1.694C-2677.279-2065.949-2676.925-2065.88-2676.9-2065.483Z" transform="translate(-399.403 -612.026)" fill="#f82174"/>
      <path id="Trazado_168809" data-name="Trazado 168809" d="M-2613.043-2289.831c.163-.207.386-.172.606-.153a2.887,2.887,0,0,1,.4,1.351,9.2,9.2,0,0,0,9.112,7.62c.766-.006,1.429-.167,1.73-.981a7.937,7.937,0,0,1-.469,4.34,9.163,9.163,0,0,1-3.181,4.386,9.651,9.651,0,0,1-9.609-4.278A9.516,9.516,0,0,1-2613.043-2289.831Z" transform="translate(-472.993 -408.607)" fill="#fec6b2"/>
      <path id="Trazado_168810" data-name="Trazado 168810" d="M-2656.276-2287.989c.221.338-.143.42-.276.577-2.556,3-3.283,6.377-1.763,10.028a9.276,9.276,0,0,0,7.545,5.752c.888.145,1.818-.2,2.688.206a9.228,9.228,0,0,1-3.782,1.749c-.318.074-.693.037-.952.311l-.414,0a3.152,3.152,0,0,0-1.508.006l-.214-.008c-1.045-.51-2.223-.64-3.258-1.208a9.364,9.364,0,0,1-5.036-8.819,9.415,9.415,0,0,1,6.5-8.516A3.444,3.444,0,0,1-2656.276-2287.989Z" transform="translate(-429.76 -410.449)" fill="#f8ac94"/>
      <path id="Trazado_168811" data-name="Trazado 168811" d="M-2561.221-2284c.081.7.005,1.108-.931,1.191a9.45,9.45,0,0,1-10.307-9.181A9.394,9.394,0,0,1-2561.221-2284Z" transform="translate(-512.971 -406.604)" fill="#334973"/>
      <path id="Trazado_168812" data-name="Trazado 168812" d="M-2561.321-2067.395a1.526,1.526,0,0,1,1.509-.005Z" transform="translate(-523.177 -612.412)" fill="#fca2bc"/>
    </g>
  </g>
</svg>
