<svg xmlns="http://www.w3.org/2000/svg" width="124" height="124" viewBox="0 0 124 124">
  <g id="Grupo_120580" data-name="Grupo 120580" transform="translate(-265.5 -7503.017)">
    <g id="Elipse_6831" data-name="Elipse 6831" transform="translate(265.5 7503.017)" fill="#fff" stroke="#2631a0" stroke-width="4">
      <circle cx="62" cy="62" r="62" stroke="none"/>
      <circle cx="62" cy="62" r="60" fill="none"/>
    </g>
    <g id="Grupo_119204" data-name="Grupo 119204" transform="translate(6825.15 6988.896)">
      <path id="Trazado_168755" data-name="Trazado 168755" d="M-6406.8,684.106c.315-1.824-.469-2.8-2.089-3.774a13.246,13.246,0,0,1-5.972-14.1,13.54,13.54,0,0,1,11.346-10.676,13.515,13.515,0,0,1,15.417,11.605A13.451,13.451,0,0,1-6395.226,681a1.537,1.537,0,0,0-1.044,1.788,8.635,8.635,0,0,1-.019,1.319,6.72,6.72,0,0,1-3.581.169c-.489-.263-.408-.742-.412-1.168-.017-1.825-.037-3.652,0-5.476a4.116,4.116,0,0,0-.784-2.557c-.866-1.237-1.684-2.509-2.52-3.767a3.271,3.271,0,0,1-.458-.822c-.115-.377-.026-.624.429-.6a1.615,1.615,0,0,1,.466.067,5.3,5.3,0,0,0,3.428-.059c.322-.1.726-.246.98.056.31.369-.045.706-.212,1.024-.491.933-.5.93.646,1.582.921.526,1.042.509,1.555-.381q1.084-1.882,2.155-3.77a1.4,1.4,0,0,0,.083-1.595,1.376,1.376,0,0,0-1.6-.49c-1.345.329-2.694.652-4.012,1.071a4.536,4.536,0,0,1-2.862-.009c-1.289-.409-2.61-.714-3.921-1.05a1.437,1.437,0,0,0-1.635.419c-.487.639-.229,1.242.16,1.825,1.57,2.357,3.117,4.731,4.728,7.061a4.594,4.594,0,0,1,.867,2.91c-.056,1.509,0,3.021-.021,4.531-.005.425.084.9-.389,1.187A6.676,6.676,0,0,1-6406.8,684.106Z" transform="translate(-95.678 -93.997)" fill="#fec94f"/>
      <path id="Trazado_168756" data-name="Trazado 168756" d="M-6534.751,654.87a6,6,0,0,1-6.011-6.07,6.109,6.109,0,0,1,6.023-6.008,6.108,6.108,0,0,1,6.059,6.067A6,6,0,0,1-6534.751,654.87Z" transform="translate(-1.785 -84.566)" fill="#e5676d"/>
      <path id="Trazado_168757" data-name="Trazado 168757" d="M-6379.077,529.676a6.055,6.055,0,0,1,6.034,6.071,6.058,6.058,0,0,1-6.1,6.01,6.057,6.057,0,0,1-5.984-6.026A6.048,6.048,0,0,1-6379.077,529.676Z" transform="translate(-118.142)" fill="#e5676d"/>
      <path id="Trazado_168758" data-name="Trazado 168758" d="M-6217.4,649.443a6.059,6.059,0,0,1-6.056,6.05,6.055,6.055,0,0,1-6.024-6.08,6.05,6.05,0,0,1,6.007-6A6.055,6.055,0,0,1-6217.4,649.443Z" transform="translate(-234.498 -85.03)" fill="#e5676d"/>
      <path id="Trazado_168759" data-name="Trazado 168759" d="M-6468.82,835.053a6.058,6.058,0,0,1-6.1,6.009,6.052,6.052,0,0,1-5.983-6.121,6.052,6.052,0,0,1,6.048-5.96A6.055,6.055,0,0,1-6468.82,835.053Z" transform="translate(-46.538 -223.762)" fill="#e5676d"/>
      <path id="Trazado_168760" data-name="Trazado 168760" d="M-6277.266,835.019a6.06,6.06,0,0,1-6.062,6.043,6.054,6.054,0,0,1-6.018-6.086,6.05,6.05,0,0,1,6.014-5.995A6.055,6.055,0,0,1-6277.266,835.019Z" transform="translate(-189.745 -223.762)" fill="#e5676d"/>
      <path id="Trazado_168761" data-name="Trazado 168761" d="M-6293.229,562.9c.282,2.738.568,5.316.8,7.9.058.645.525,1.482.068,1.891-.423.378-1.235-.1-1.87-.2-2.381-.4-4.75-.874-7.129-1.29-.555-.1-.586-.261-.2-.616.671-.617,1.314-1.268,2.02-1.842.574-.467.694-.764.061-1.347a39,39,0,0,0-14.129-8.453c-.772-.258-.95-.522-.707-1.3.629-2.013.592-2.021,2.556-1.289a42.356,42.356,0,0,1,14.613,9.118c.461.44.713.4,1.134-.013C-6295.147,564.607-6294.229,563.813-6293.229,562.9Z" transform="translate(-171.002 -19.61)" fill="#8d9eb2"/>
      <path id="Trazado_168762" data-name="Trazado 168762" d="M-6226.429,736.357l-9.193,4.121c-.459-3.334-.9-6.569-1.375-9.98,1.13.627,2.146,1.161,3.132,1.749.5.3.764.325,1.045-.294a38.9,38.9,0,0,0,3.591-13.483c.061-.877.143-1.753.153-2.631.006-.5.173-.7.66-.638a1.33,1.33,0,0,0,.188,0c2.309-.036,2.319-.035,2.155,2.3a42.949,42.949,0,0,1-4.084,15.859c-.292.606-.169.859.4,1.145C-6228.7,735.043-6227.676,735.658-6226.429,736.357Z" transform="translate(-228.882 -138.692)" fill="#8d9eb2"/>
      <path id="Trazado_168763" data-name="Trazado 168763" d="M-6484.91,552.883a35.549,35.549,0,0,1,4.567.407c1.53.126,3.052.361,4.58.535.409.047.809.062.558.649q-1.8,4.2-3.6,8.4c-.02.046-.1.068-.209.138-.589-1-1.216-1.969-1.75-2.99-.3-.571-.574-.6-1.094-.3a39.219,39.219,0,0,0-10.676,8.87c-.543.651-1.074,1.314-1.571,2-.288.4-.541.461-.9.12a6.35,6.35,0,0,0-.607-.445c-1.346-.985-1.348-.986-.3-2.325a42.225,42.225,0,0,1,12.553-10.832c.548-.309.618-.546.3-1.06C-6483.687,555.043-6484.26,554-6484.91,552.883Z" transform="translate(-34.75 -17.344)" fill="#8d9eb2"/>
      <path id="Trazado_168764" data-name="Trazado 168764" d="M-6543.149,725.681c1.123-1.989,2.17-3.844,3.219-5.7.479-.848.969-1.691,1.438-2.545.225-.41.417-.452.761-.09,2.122,2.23,4.263,4.443,6.486,6.755a16.029,16.029,0,0,1-3.38.454c-.776.041-1.028.224-.823,1.083a38.813,38.813,0,0,0,6.033,13.517c.42.6.493.934-.187,1.406-1.732,1.2-1.714,1.239-2.885-.526a40.778,40.778,0,0,1-5.914-13.88c-.165-.748-.35-1.128-1.272-.9A28.4,28.4,0,0,1-6543.149,725.681Z" transform="translate(0 -140.119)" fill="#8d9eb2"/>
      <path id="Trazado_168765" data-name="Trazado 168765" d="M-6400.573,865.6c-2.242-2.389-4.365-4.654-6.49-6.917-.3-.322-.21-.5.167-.691q3.916-1.965,7.813-3.968c.527-.272.477.131.449.365a26.824,26.824,0,0,1-.441,2.879c-.139.6-.028.732.582.789a37.694,37.694,0,0,0,13.6-1.293c.777-.213,1-.045,1.208.681.585,2.011.618,1.989-1.454,2.541a42.027,42.027,0,0,1-14.011,1.147c-.458-.034-.609.058-.683.491C-6400.047,862.887-6400.3,864.146-6400.573,865.6Z" transform="translate(-101.605 -242.415)" fill="#8d9eb2"/>
      <path id="Trazado_168766" data-name="Trazado 168766" d="M-6375.337,768.089l3.734.028c.007,1.413.072,2.829.009,4.239a5.259,5.259,0,0,1-5.408,4.823,5.259,5.259,0,0,1-5.131-4.916c-.042-1.38.008-2.763.016-4.145l3.734-.028A3.905,3.905,0,0,1-6375.337,768.089Z" transform="translate(-120.365 -178.008)" fill="#596c80"/>
      <path id="Trazado_168767" data-name="Trazado 168767" d="M-6308.59,759.286c-.082.362-.37.527-.582.742-1.443,1.466-1.446,1.463-2.884.026l-.133-.133c-1.836-1.835-1.833-1.831.174-3.471.224-.183.368-.293.616-.04.854.874,1.726,1.731,2.587,2.6A3.05,3.05,0,0,1-6308.59,759.286Z" transform="translate(-171.655 -169.397)" fill="#fec94f"/>
      <path id="Trazado_168768" data-name="Trazado 168768" d="M-6423.13,645.077c-.075.309-.324.47-.518.668-1.479,1.511-1.481,1.51-2.942.049-.089-.089-.185-.172-.266-.268-.442-.52-1.438-1.008-1.277-1.495.238-.725,1.074-1.253,1.657-1.863.145-.152.31-.235.486-.06q1.37,1.361,2.732,2.732A.921.921,0,0,1-6423.13,645.077Z" transform="translate(-85.974 -83.982)" fill="#fec94f"/>
      <path id="Trazado_168769" data-name="Trazado 168769" d="M-6308.424,644.235a4.859,4.859,0,0,1-.338.423c-.773.782-1.566,1.545-2.324,2.341-.345.362-.574.313-.927-.009-1.766-1.611-1.774-1.6-.091-3.283.044-.044.086-.093.134-.133.523-.437,1-1.436,1.5-1.272.725.241,1.252,1.079,1.86,1.666A1.91,1.91,0,0,1-6308.424,644.235Z" transform="translate(-171.798 -84.187)" fill="#fec94f"/>
      <path id="Trazado_168770" data-name="Trazado 168770" d="M-6426.256,761.637c-.384-.448-.73-.9-1.122-1.3-.858-.885-.868-.877.018-1.764.622-.622,1.26-1.229,1.859-1.871.316-.339.515-.392.895-.036,1.779,1.671,1.792,1.657.059,3.391-.378.378-.751.759-1.135,1.13C-6425.812,761.313-6425.967,761.413-6426.256,761.637Z" transform="translate(-86.07 -169.516)" fill="#fec94f"/>
      <path id="Trazado_168771" data-name="Trazado 168771" d="M-6364.255,621.493c0,2.277,0,2.26-2.266,2.23-.544-.007-.794-.111-.768-.723.047-1.067-.1-2.153.042-3.2.169-1.266,1.235-.426,1.869-.579.369-.089,1.162-.411,1.126.577C-6364.271,620.361-6364.255,620.927-6364.255,621.493Z" transform="translate(-131.459 -66.843)" fill="#fec94f"/>
      <path id="Trazado_168772" data-name="Trazado 168772" d="M-6448.877,706.261c-2.414,0-2.4,0-2.278-2.41.025-.519.218-.629.678-.619q1.6.035,3.207,0c.465-.01.65.108.675.623C-6446.481,706.262-6446.464,706.261-6448.877,706.261Z" transform="translate(-68.746 -129.751)" fill="#fec94f"/>
      <path id="Trazado_168773" data-name="Trazado 168773" d="M-6287.253,706.268h-.094c-2.417,0-2.41,0-2.236-2.445.026-.367.081-.588.519-.581q1.745.027,3.49,0c.421-.007.567.173.531.563a1.518,1.518,0,0,0,0,.189C-6284.982,706.268-6284.982,706.268-6287.253,706.268Z" transform="translate(-189.518 -129.759)" fill="#fec94f"/>
      <path id="Trazado_168774" data-name="Trazado 168774" d="M-6382.055,715.327h-3.047c0-2.139,0-4.278.02-6.417a2.2,2.2,0,0,0-.444-1.3c-1.733-2.581-3.436-5.182-5.177-7.758a1.622,1.622,0,0,1-.15-2,1.634,1.634,0,0,1,1.945-.538c1.788.468,3.574,1.3,5.363,1.306,1.755,0,3.513-.829,5.269-1.3a1.656,1.656,0,0,1,1.958.505,1.661,1.661,0,0,1-.111,2.01q-1.276,2.09-2.434,4.25c-.286.531-.569.574-1.033.279-.606-.385-1.521-.612-1.768-1.151-.266-.583.667-1.165.912-2.082-1.781.535-3.494.963-5.213.037l-.081.265c1.021,1.536,2.012,3.094,3.076,4.6a4.639,4.639,0,0,1,.923,2.975C-6382.118,711.11-6382.059,713.22-6382.055,715.327Z" transform="translate(-113.646 -125.246)" fill="#b28c37"/>
    </g>
  </g>
</svg>
