<svg xmlns="http://www.w3.org/2000/svg" width="124" height="124" viewBox="0 0 124 124">
  <g id="Grupo_120582" data-name="Grupo 120582" transform="translate(-895.5 -7503.017)">
    <g id="Elipse_6829" data-name="Elipse 6829" transform="translate(895.5 7503.017)" fill="#fff" stroke="#2631a0" stroke-width="4">
      <circle cx="62" cy="62" r="62" stroke="none"/>
      <circle cx="62" cy="62" r="60" fill="none"/>
    </g>
    <g id="Grupo_119208" data-name="Grupo 119208" transform="translate(3765.313 6915.106)">
      <path id="Trazado_168788" data-name="Trazado 168788" d="M-2556.464,691.651c-2.09,1-4.177,2.007-6.272,3-1.309.618-2.609,1.251-3.953,1.8a7.032,7.032,0,0,1-6.666-.437,21.451,21.451,0,0,0-6.289-2.39c-1.069-.275-2.14-.544-3.2-.86a2.986,2.986,0,0,1-2.076-1.689c-.254-.64-.625-.629-1.151-.471q-4.382,1.313-8.769,2.607a15.018,15.018,0,0,1-5.186.855c-1.881-.117-3.329-1.379-3.245-3.081a4.363,4.363,0,0,1,2.4-3.917c1.763-.891,3.658-1.476,5.5-2.192,4.02-1.567,8.068-3.061,12.076-4.656a11.008,11.008,0,0,1,8.147-.146c1.849.67,3.792,1.077,5.672,1.667a5.058,5.058,0,0,0,3.959-.414c1.223-.617,2.456-1.215,3.685-1.821.545.364.656,1,.886,1.531,1.413,3.279,2.906,6.522,4.3,9.808C-2556.539,691.095-2556.341,691.338-2556.464,691.651Z" transform="translate(-220.806 -61.449)" fill="#eec6a3"/>
      <path id="Trazado_168789" data-name="Trazado 168789" d="M-2762.91,1200.531c2.925-1.391,5.883-2.718,8.766-4.191a8.513,8.513,0,0,1,9.512.6c1.167.841,2.553.924,3.841,1.336s2.593.674,3.886,1.025a3.441,3.441,0,0,1,2.561,2.029c.228.6.615.369.958.269,2.953-.862,5.9-1.745,8.85-2.613a15,15,0,0,1,5.185-.857c1.875.116,3.379,1.457,3.247,3.081a4.463,4.463,0,0,1-2.687,4.061c-1.958.837-3.956,1.581-5.944,2.348-3.731,1.44-7.482,2.828-11.195,4.311a11.162,11.162,0,0,1-8.3.188c-1.922-.7-3.937-1.14-5.9-1.734a4.587,4.587,0,0,0-3.438.36c-1.33.638-2.649,1.3-3.974,1.944-.544-.364-.656-1-.886-1.531-1.413-3.279-2.906-6.522-4.3-9.808C-2762.835,1201.087-2763.032,1200.844-2762.91,1200.531Z" transform="translate(-75.441 -531.032)" fill="#eec6a3"/>
      <path id="Trazado_168790" data-name="Trazado 168790" d="M-2837.987,1233.339l5.372,12.154c.324.747.684,1.481.965,2.243a1.587,1.587,0,0,1-.889,2.156q-1.929.9-3.9,1.7a1.7,1.7,0,0,1-2.081-.982c-1.595-3.631-3.171-7.271-4.76-10.9q-.964-2.2-1.953-4.394a1.7,1.7,0,0,1,.873-2.366q1.8-.81,3.614-1.57a1.659,1.659,0,0,1,2.292.877C-2838.281,1232.609-2838.142,1232.978-2837.987,1233.339Z" transform="translate(-0.363 -563.84)" fill="#e3e7ea"/>
      <path id="Trazado_168791" data-name="Trazado 168791" d="M-2146.8,630.2l-5.372-12.154c-.317-.721-.667-1.43-.945-2.166a1.633,1.633,0,0,1,.937-2.271q1.867-.841,3.757-1.635a1.67,1.67,0,0,1,2.154.949c1.6,3.63,3.172,7.268,4.76,10.9.61,1.4,1.238,2.784,1.843,4.183.6,1.378.251,2.161-1.13,2.72-.9.365-1.8.747-2.671,1.168-1.93.928-2.631.185-3.183-1.249C-2146.712,630.5-2146.756,630.35-2146.8,630.2Z" transform="translate(-630.464)" fill="#e3e7ea"/>
      <path id="Trazado_168792" data-name="Trazado 168792" d="M-2397.521,755a37,37,0,0,1,4,1.028c1.886.453,3.741,1.041,5.628,1.49a3.573,3.573,0,0,1,2.815,3.59c-.052.65-.27.652-.752.523-2.406-.647-4.818-1.276-7.223-1.925-2.608-.7-5.206-1.448-7.823-2.12-.594-.153-.481-.362-.28-.737C-2400.486,755.6-2399.477,754.936-2397.521,755Z" transform="translate(-404.657 -130.312)" fill="#d4a788"/>
      <path id="Trazado_168793" data-name="Trazado 168793" d="M-2611.138,1248.312a37.021,37.021,0,0,1-3.99-1.027c-1.887-.452-3.741-1.041-5.628-1.49a3.6,3.6,0,0,1-2.822-3.589c.053-.784.394-.622.831-.505q4.523,1.213,9.042,2.434c1.975.533,3.941,1.1,5.928,1.59.594.146.487.357.283.736C-2608.165,1247.71-2609.172,1248.378-2611.138,1248.312Z" transform="translate(-202.311 -573.301)" fill="#d4a788"/>
      <path id="Trazado_168794" data-name="Trazado 168794" d="M-2550.7,891.591a1.044,1.044,0,0,0-1.021-1.1,4.037,4.037,0,0,1-.932-.149,3.112,3.112,0,0,1-1.363-4.925c.636-.858.624-1.063-.118-1.815-.482-.488-.966-.974-1.456-1.454-.682-.668-.937-.712-1.687-.092a3.109,3.109,0,0,1-5.143-2.188c.006-.722-.456-1.092-1.182-1.095-.791,0-1.583-.009-2.374,0a1.056,1.056,0,0,0-1.14,1.062,3.51,3.51,0,0,1-.16.929,3.106,3.106,0,0,1-4.881,1.345c-.91-.672-1.077-.661-1.873.128q-.7.7-1.4,1.4c-.7.713-.746.955-.1,1.747a3.11,3.11,0,0,1-2.175,5.108c-.8.01-1.112.413-1.131,1.225-.017.712-.011,1.424,0,2.136.012.944.309,1.254,1.266,1.349a3.111,3.111,0,0,1,2.8,3.1,3.394,3.394,0,0,1-.85,2.083,1,1,0,0,0,.106,1.579c.536.508,1.042,1.047,1.57,1.563.68.666.943.712,1.688.088a3.1,3.1,0,0,1,5.139,2.188c-.013.721.453,1.092,1.179,1.1.581,0,1.161,0,1.741,0,1.493,0,1.574-.071,1.81-1.538a2.377,2.377,0,0,1,.13-.454,3.1,3.1,0,0,1,4.874-1.352c.909.669,1.087.658,1.874-.122.487-.483.958-.982,1.459-1.45a1.064,1.064,0,0,0,.1-1.648c-1.707-2.257-.634-4.757,2.184-5.149a1.078,1.078,0,0,0,1.056-1.152C-2550.684,893.226-2550.678,892.408-2550.7,891.591Zm-14.084,8.022a6.873,6.873,0,0,1-6.753-6.773,6.868,6.868,0,0,1,6.753-6.772,6.865,6.865,0,0,1,6.793,6.733A6.881,6.881,0,0,1-2564.782,899.613Z" transform="translate(-243.049 -242.99)" fill="#fccc56"/>
      <path id="Trazado_168795" data-name="Trazado 168795" d="M-2827.188,934.681a2.123,2.123,0,0,1-1.387-3.483,1.249,1.249,0,0,0,.322-.621.841.841,0,0,0-.29-.545c-.3-.3-.618-.579-.889-.9a.982.982,0,0,0-1.6-.181,2.121,2.121,0,0,1-3.326-1.212c-.3-1.179-.3-1.179-1.48-1.18-.264,0-.529.018-.791,0-.693-.056-.979.266-1.081.944a2.082,2.082,0,0,1-3.338,1.453.977.977,0,0,0-1.594.176,3.832,3.832,0,0,1-.559.559,1.025,1.025,0,0,0-.208,1.663,2.1,2.1,0,0,1-1.1,3.26c-1.29.408-1.29.408-1.29,1.794a3.681,3.681,0,0,1,0,.4c-.078.721.152,1.078.959,1.2a2.079,2.079,0,0,1,1.448,3.3c-.506.7-.456,1.163.177,1.667a4.215,4.215,0,0,1,.615.614.94.94,0,0,0,1.533.152,2.116,2.116,0,0,1,3.351,1.25c.237,1.129.237,1.129,1.377,1.13.264,0,.529-.016.791,0,.726.054,1.084-.189,1.181-1a2.116,2.116,0,0,1,3.195-1.523c1.057.616,1.057.616,1.936-.261a6.272,6.272,0,0,1,.45-.445.928.928,0,0,0,.15-1.526,2.107,2.107,0,0,1,1.182-3.33c1.167-.313,1.167-.313,1.167-1.565,0-.237-.018-.477,0-.712C-2826.225,935.092-2826.465,934.794-2827.188,934.681Zm-8.859,6.359a4.734,4.734,0,0,1-4.681-4.693,4.728,4.728,0,0,1,4.661-4.711,4.683,4.683,0,0,1,4.7,4.731A4.687,4.687,0,0,1-2836.048,941.04Z" transform="translate(0 -286.488)" fill="#636c77"/>
      <path id="Trazado_168796" data-name="Trazado 168796" d="M-2197.229,934.706a2.13,2.13,0,0,1-1.407-3.482,1.04,1.04,0,0,0,.3-.682.747.747,0,0,0-.307-.554c-.282-.277-.582-.541-.835-.843a.981.981,0,0,0-1.6-.175,2.116,2.116,0,0,1-3.318-1.215c-.27-1.177-.27-1.177-1.5-1.178-.237,0-.476.013-.712,0-.683-.044-1.051.168-1.143.946a2.123,2.123,0,0,1-3.162,1.6c-1.117-.627-1.117-.627-2,.261a4.737,4.737,0,0,1-.393.39c-.6.477-.686.916-.165,1.588a2.108,2.108,0,0,1-1.089,3.269c-1.28.408-1.28.408-1.28,1.793a2.788,2.788,0,0,1,0,.316c-.089.77.132,1.174,1.015,1.311a2.055,2.055,0,0,1,1.412,3.212c-.565.761-.5,1.244.194,1.775a2.983,2.983,0,0,1,.5.5c.5.619.947.711,1.653.18a2.075,2.075,0,0,1,3.289,1.359c.116.882.5,1.135,1.285,1.064a4.073,4.073,0,0,1,.791,0c.8.084,1.186-.205,1.3-1.063a2.1,2.1,0,0,1,3.231-1.423c.975.607.975.607,1.813-.229a7.061,7.061,0,0,1,.507-.5c.578-.469.625-.907.15-1.543a2.116,2.116,0,0,1,1.031-3.288c1.338-.448,1.338-.448,1.338-1.914,0-.132-.011-.265,0-.4C-2196.25,935.107-2196.518,934.817-2197.229,934.706Zm-8.848,6.352a4.687,4.687,0,0,1-4.675-4.678,4.685,4.685,0,0,1,4.706-4.725,4.728,4.728,0,0,1,4.656,4.717A4.732,4.732,0,0,1-2206.077,941.058Z" transform="translate(-573.501 -286.506)" fill="#636c77"/>
    </g>
  </g>
</svg>
