<svg xmlns="http://www.w3.org/2000/svg" width="138" height="138" viewBox="0 0 138 138">
  <g id="Grupo_120536" data-name="Grupo 120536" transform="translate(-1082 -820.962)">
    <g id="Elipse_6827" data-name="Elipse 6827" transform="translate(1082 820.962)" fill="#fff" stroke="#2631a0" stroke-width="4">
      <circle cx="69" cy="69" r="69" stroke="none"/>
      <circle cx="69" cy="69" r="67" fill="none"/>
    </g>
    <g id="Grupo_118951" data-name="Grupo 118951" transform="translate(6511.775 -2791.447)">
      <path id="Trazado_168212" data-name="Trazado 168212" d="M-5341.384,3791.657c-.792-2.8-.372-5.664-.389-8.5-.054-9.129-.012-18.259-.007-27.388a1.959,1.959,0,0,1,1.405-.316q27.251-.01,54.5,0a2.3,2.3,0,0,1,1.423.279,1.86,1.86,0,0,1,.346,1.391q.014,16.047,0,32.095a3.952,3.952,0,0,1-.615,2.3,8.847,8.847,0,0,1-3.938,1.723q-6.637,0-13.272,0a5.056,5.056,0,0,1-1.92-.169c-.267-.245-.6-.16-.9-.161q-8.363-.006-16.727,0c-.307,0-.637-.085-.9.161a5.143,5.143,0,0,1-1.917.168c-4.417-.012-8.832,0-13.246-.005A8.9,8.9,0,0,1-5341.384,3791.657Z" transform="translate(-47.221 -89.412)" fill="#d6e5ef"/>
      <path id="Trazado_168213" data-name="Trazado 168213" d="M-5202.381,3883.407l3.384-1.449a7.03,7.03,0,0,1,5.277-.439,16.413,16.413,0,0,1,8.015,3.172,15.163,15.163,0,0,1,1.728,22.417c-.382-.263-.307-.674-.325-1.045a6.521,6.521,0,0,0-6.728-6.3q-3.956.035-7.906,0a6.527,6.527,0,0,0-6.747,6.289c-.019.373.057.783-.323,1.048a14.218,14.218,0,0,1-3.936-7.869c-.109-.667-.312-.9-.983-.854-.875.056-1.756.027-2.634.009a5.065,5.065,0,0,1-5.05-5.025c-.008-.352,0-.7,0-1.055-.015-.734.216-1.632-.125-2.157s-1.3-.114-1.987-.2c-.944-.114-1.625-.991-1.134-1.684,1.228-1.734,2.309-3.611,4.08-4.9a2.555,2.555,0,0,1,1.72,0,1.4,1.4,0,0,1,1.178.586c.9,1.167,1.845,2.292,2.715,3.479a1.7,1.7,0,0,1,.354,1.855,1.811,1.811,0,0,1-1.751.936c-1.39.07-1.39.079-1.4,1.433-.015,2.982.081,3.077,3.055,3.075,1.476,0,1.476,0,1.822-1.455a15.628,15.628,0,0,1,6.106-9.16A2.607,2.607,0,0,1-5202.381,3883.407Z" transform="translate(-133.292 -179.709)" fill="#289ac2"/>
      <path id="Trazado_168214" data-name="Trazado 168214" d="M-5371.324,3884.242a2.549,2.549,0,0,1,1.719,0,4.783,4.783,0,0,1,.914.694c1.019,1.253,2.03,2.516,2.98,3.822a1.239,1.239,0,0,1-.948,2.065c-.684.082-1.64-.338-1.987.2s-.1,1.423-.126,2.157a12.734,12.734,0,0,1-.083,1.891,5.078,5.078,0,0,1-5.181,4.192c-1.018.01-2.208-.3-3.006.122-.779.415-.505,1.763-.82,2.67a15.084,15.084,0,0,1-3.511,5.92c-.382-.263-.308-.674-.325-1.045a6.521,6.521,0,0,0-6.727-6.3q-3.957.034-7.907,0a6.528,6.528,0,0,0-6.747,6.289c-.018.372.057.783-.323,1.049-4.069-4.469-5.252-9.645-3.3-15.323s6.1-9.008,12.035-10.075a16.509,16.509,0,0,1,6.063.246,25.536,25.536,0,0,1,3.6,1.452,2.623,2.623,0,0,1,1.593.724,15.391,15.391,0,0,1,6.176,9.575c.155.771.438,1.106,1.227,1.048.628-.047,1.262.011,1.892-.018,1.166-.051,1.615-.513,1.681-1.7.016-.28.007-.561.008-.841,0-1.768,0-1.768-1.71-1.982-1.375-.172-2.007-1.263-1.293-2.4a34.509,34.509,0,0,1,3.072-4A1.289,1.289,0,0,1-5371.324,3884.242Z" transform="translate(0 -180.572)" fill="#289ac2"/>
      <path id="Trazado_168215" data-name="Trazado 168215" d="M-5403.4,3656.672c-4.07-4.47-5.25-9.646-3.3-15.327a14.211,14.211,0,0,1,11.944-10.016c8.615-1.279,15.741,4.021,17.345,12.629.09.484.26.652.74.639q1.476-.041,2.951,0a5.061,5.061,0,0,1,4.94,4.914c.028.913.039,1.829,0,2.741-.025.578.126.843.752.783a6.764,6.764,0,0,1,1.473.012,1.183,1.183,0,0,1,.947,1.858c-1.037,1.457-2.183,2.836-3.292,4.24-.271.345-.729.383-1.083.594a.944.944,0,0,1-1,.237,3.6,3.6,0,0,1-1.9-1.418c-.715-1-1.543-1.914-2.264-2.909a1.817,1.817,0,0,1-.43-1.947,1.854,1.854,0,0,1,1.848-.958c1.279-.052,1.293-.074,1.3-1.326a15.634,15.634,0,0,0-.023-1.685,1.435,1.435,0,0,0-1.477-1.471c-.14-.014.035-.005-.1,0a6.968,6.968,0,0,0-2.609.086c-.908.385-.628,1.529-.893,2.323a17.079,17.079,0,0,1-2.723,5.2c-.3.377-.577.82-1.163.79a1.175,1.175,0,0,1-.272-.98,6.53,6.53,0,0,0-6.739-6.343q-3.952.036-7.9,0a6.528,6.528,0,0,0-6.746,6.29C-5403.1,3656-5403.02,3656.407-5403.4,3656.672Z" transform="translate(-0.003 -0.135)" fill="#289ac2"/>
      <path id="Trazado_168216" data-name="Trazado 168216" d="M-5217.609,3659.6c-1.855-1.3-2.97-3.233-4.241-5.016-.5-.7.175-1.566,1.116-1.7.7-.1,1.662.38,2.038-.271.322-.556.071-1.437.091-2.175a11.123,11.123,0,0,1,.1-1.888,5.034,5.034,0,0,1,5.039-4.1c1.054-.015,2.281.313,3.111-.123s.554-1.817.858-2.763a15.289,15.289,0,0,1,15.511-10.592,15.162,15.162,0,0,1,13.886,12.244,14.681,14.681,0,0,1-3.878,13.318c-.381-.263-.306-.674-.325-1.045a6.521,6.521,0,0,0-6.726-6.3q-3.951.035-7.9,0a6.522,6.522,0,0,0-6.756,6.306,1.464,1.464,0,0,1-.247.995c-.647.075-.925-.431-1.238-.83a14.878,14.878,0,0,1-2.992-6.55c-.147-.805-.5-1.067-1.264-1.016-.665.044-1.335-.024-2,.025a1.422,1.422,0,0,0-1.5,1.44,10.189,10.189,0,0,0-.025,1.159c0,1.691,0,1.691,1.7,1.9a1.54,1.54,0,0,1,1.186,2.587c-.85,1.25-1.829,2.4-2.752,3.6a3.135,3.135,0,0,1-1.8,1.031C-5216.976,3659.9-5217.34,3659.938-5217.609,3659.6Z" transform="translate(-133.294 0)" fill="#289ac2"/>
      <path id="Trazado_168217" data-name="Trazado 168217" d="M-5303.526,3731.819l1.164,0a11.3,11.3,0,0,1,3.111-.311c3.635.043,7.27-.054,10.9.055a12.4,12.4,0,0,1,3.648,1.465c1.085,1.667.7,3.51.631,5.315a.681.681,0,0,1-.206.3c-.421-.015-.841-.042-1.262-.042q-27.411,0-54.823,0c-.421,0-.843-.016-1.264-.024-.005-1.146.023-2.293-.027-3.436a3.925,3.925,0,0,1,.651-2.037,7.522,7.522,0,0,1,3.452-1.538c4.042-.109,8.083-.024,12.124-.05a5.718,5.718,0,0,1,1.65.3h20.247Z" transform="translate(-47.377 -72.217)" fill="#555a6e"/>
      <path id="Trazado_168218" data-name="Trazado 168218" d="M-5135.047,3791.095a25.983,25.983,0,0,0-5.277.44,5.629,5.629,0,0,0,.643-2.83q-.028-16.495-.007-32.99l-.014-.089a8.964,8.964,0,0,1,5.046.024q.01,16.913.024,33.827A4.4,4.4,0,0,1-5135.047,3791.095Z" transform="translate(-191.964 -89.285)" fill="#a4c2db"/>
      <path id="Trazado_168219" data-name="Trazado 168219" d="M-5374.445,3705.362l-3.2,1.293a16.185,16.185,0,0,1-9.074-.4,13.83,13.83,0,0,1-5.952-3.947,6.976,6.976,0,0,1,1.654-5.221,6.81,6.81,0,0,1,5.211-2.4,4.568,4.568,0,0,1,.212,2.171c.107,2.194,1.1,3.689,2.852,4.232a3.83,3.83,0,0,0,4.778-2.673,8.953,8.953,0,0,0,.246-2.3,2.309,2.309,0,0,1,.207-1.432,6.793,6.793,0,0,1,6.827,6.579c0,.348.029.7.045,1.044a.4.4,0,0,1-.069.485C-5371.832,3703.818-5372.871,3704.981-5374.445,3705.362Z" transform="translate(-10.735 -45.767)" fill="#00d1d1"/>
      <path id="Trazado_168220" data-name="Trazado 168220" d="M-5377.508,3946.1a6.794,6.794,0,0,1,6.827,6.581c0,.348.027.7.041,1.044a14.071,14.071,0,0,1-9.437,4.729,14.8,14.8,0,0,1-12.193-4.249,5.214,5.214,0,0,1-.4-.483,6.978,6.978,0,0,1,1.654-5.222,6.813,6.813,0,0,1,5.211-2.4,4.569,4.569,0,0,1,.212,2.17c.107,2.194,1.1,3.69,2.852,4.233a3.83,3.83,0,0,0,4.778-2.673,8.951,8.951,0,0,0,.246-2.3A2.309,2.309,0,0,1-5377.508,3946.1Z" transform="translate(-10.735 -226.33)" fill="#00d1d1"/>
      <path id="Trazado_168221" data-name="Trazado 168221" d="M-5165.209,3953.728a6.98,6.98,0,0,1,1.654-5.222,6.814,6.814,0,0,1,5.211-2.4,4.581,4.581,0,0,1,.212,2.17c.107,2.194,1.1,3.69,2.851,4.233a3.83,3.83,0,0,0,4.778-2.673,9,9,0,0,0,.247-2.3,2.3,2.3,0,0,1,.207-1.433,6.792,6.792,0,0,1,6.827,6.581c0,.348.027.7.042,1.044a14.072,14.072,0,0,1-9.437,4.729,14.8,14.8,0,0,1-12.192-4.249A5.208,5.208,0,0,1-5165.209,3953.728Z" transform="translate(-174.088 -226.33)" fill="#00d1d1"/>
      <path id="Trazado_168222" data-name="Trazado 168222" d="M-5158.206,3706.65l-3.2-1.289a6.326,6.326,0,0,1-3.812-3.059,7,7,0,0,1,1.657-5.22,6.817,6.817,0,0,1,5.211-2.4,4.58,4.58,0,0,1,.212,2.17c.107,2.194,1.1,3.69,2.852,4.233a3.83,3.83,0,0,0,4.778-2.672,9,9,0,0,0,.246-2.3,2.309,2.309,0,0,1,.206-1.432,6.792,6.792,0,0,1,6.827,6.581c0,.348.027.7.042,1.044a14.369,14.369,0,0,1-8.29,4.566c-.48.1-.966.163-1.45.243A6.711,6.711,0,0,1-5158.206,3706.65Z" transform="translate(-174.083 -45.767)" fill="#00d1d1"/>
      <path id="Trazado_168223" data-name="Trazado 168223" d="M-5140.327,3737.155a23.058,23.058,0,0,0,5.281.465c.747,1.624.3,3.341.389,5.017l-5.046-.024C-5139.813,3740.782-5139.3,3738.881-5140.327,3737.155Z" transform="translate(-191.962 -76.272)" fill="#463c4b"/>
      <path id="Trazado_168224" data-name="Trazado 168224" d="M-5282.826,3796.41a16.89,16.89,0,0,1-16.875-16.891,16.883,16.883,0,0,1,16.916-16.85,16.887,16.887,0,0,1,16.823,16.943A16.89,16.89,0,0,1-5282.826,3796.41Z" transform="translate(-77.505 -94.595)" fill="#fe6e90"/>
      <path id="Trazado_168225" data-name="Trazado 168225" d="M-5143.772,3892.167a6.975,6.975,0,0,1,6.941,6.884,6.971,6.971,0,0,1-6.9,6.929,6.981,6.981,0,0,1-6.942-6.886A6.981,6.981,0,0,1-5143.772,3892.167Z" transform="translate(-184.533 -187.596)" fill="#f9b890"/>
      <path id="Trazado_168226" data-name="Trazado 168226" d="M-5132.623,3946.11a18.687,18.687,0,0,1-.095,3.458,4.168,4.168,0,0,1-4.054,3.444,4.167,4.167,0,0,1-4.053-3.444,18.772,18.772,0,0,1-.093-3.458Z" transform="translate(-191.514 -226.336)" fill="#d6e5ef"/>
      <path id="Trazado_168227" data-name="Trazado 168227" d="M-5371.172,3892.167a6.975,6.975,0,0,1,6.88,6.944,6.978,6.978,0,0,1-6.958,6.869,6.976,6.976,0,0,1-6.882-6.946A6.98,6.98,0,0,1-5371.172,3892.167Z" transform="translate(-21.178 -187.596)" fill="#f9b890"/>
      <path id="Trazado_168228" data-name="Trazado 168228" d="M-5360.081,3946.11a18.687,18.687,0,0,1-.095,3.458,4.169,4.169,0,0,1-4.054,3.444,4.167,4.167,0,0,1-4.053-3.444,18.815,18.815,0,0,1-.093-3.458Z" transform="translate(-28.162 -226.336)" fill="#d6e5ef"/>
      <path id="Trazado_168229" data-name="Trazado 168229" d="M-5370.965,3654.514a6.947,6.947,0,0,1-7.171-6.516,7,7,0,0,1,6.438-7.263,6.971,6.971,0,0,1,7.386,6.634A6.953,6.953,0,0,1-5370.965,3654.514Z" transform="translate(-21.164 -7.014)" fill="#f9b890"/>
      <path id="Trazado_168230" data-name="Trazado 168230" d="M-5360.081,3694.687a18.69,18.69,0,0,1-.095,3.458,4.168,4.168,0,0,1-4.054,3.443,4.165,4.165,0,0,1-4.053-3.443,18.814,18.814,0,0,1-.093-3.458Z" transform="translate(-28.162 -45.773)" fill="#d6e5ef"/>
      <path id="Trazado_168231" data-name="Trazado 168231" d="M-5143.892,3654.545a6.966,6.966,0,0,1-6.781-7.039,6.975,6.975,0,0,1,7.268-6.761,6.988,6.988,0,0,1,6.566,7.144A6.968,6.968,0,0,1-5143.892,3654.545Z" transform="translate(-184.53 -7.027)" fill="#f9b890"/>
      <path id="Trazado_168232" data-name="Trazado 168232" d="M-5132.623,3694.687a18.69,18.69,0,0,1-.095,3.458,4.168,4.168,0,0,1-4.054,3.443,4.166,4.166,0,0,1-4.053-3.443,18.771,18.771,0,0,1-.093-3.458Z" transform="translate(-191.514 -45.773)" fill="#d6e5ef"/>
      <path id="Trazado_168233" data-name="Trazado 168233" d="M-5321.974,3738.736a1.657,1.657,0,0,1,1.708,1.631,1.661,1.661,0,0,1-1.709,1.735,1.656,1.656,0,0,1-1.655-1.684A1.656,1.656,0,0,1-5321.974,3738.736Z" transform="translate(-60.319 -77.407)" fill="#289ac1"/>
      <path id="Trazado_168234" data-name="Trazado 168234" d="M-5296.321,3740.4a1.676,1.676,0,0,1-1.63,1.707,1.674,1.674,0,0,1-1.73-1.709,1.669,1.669,0,0,1,1.681-1.653A1.672,1.672,0,0,1-5296.321,3740.4Z" transform="translate(-77.519 -77.411)" fill="#fc6d90"/>
      <path id="Trazado_168235" data-name="Trazado 168235" d="M-5274.072,3738.742a1.687,1.687,0,0,1,1.7,1.639,1.688,1.688,0,0,1-1.718,1.723,1.685,1.685,0,0,1-1.642-1.693A1.682,1.682,0,0,1-5274.072,3738.742Z" transform="translate(-94.715 -77.411)" fill="#d5e4ee"/>
      <path id="Trazado_168236" data-name="Trazado 168236" d="M-5261.1,3800.668c-1.086-.677-2.069.074-3.111.672a2.193,2.193,0,0,0-1.4,1.8,1.178,1.178,0,0,1-1.24,1.078q-2.053.05-4.107,0a1.255,1.255,0,0,1-1.325-1.235,1.772,1.772,0,0,0-1.048-1.464c-1.111-.625-2.146-1.468-3.591-.858a1.03,1.03,0,0,1-1.235-.591c-.664-1.156-1.333-2.309-1.977-3.476a1.263,1.263,0,0,1,.363-1.777,1.786,1.786,0,0,0,.736-1.737c-.027-.525-.016-1.053,0-1.579a1.485,1.485,0,0,0-.617-1.371,1.382,1.382,0,0,1-.418-2.022c.623-1.1,1.254-2.193,1.885-3.287.436-.757,1.105-.749,1.837-.559a3.829,3.829,0,0,0,4.049-2.454,1.349,1.349,0,0,1,1.39-1.187c1.3-.019,2.6-.016,3.9,0a1.293,1.293,0,0,1,1.43,1.243,1.778,1.778,0,0,0,1.049,1.463c1.112.619,2.145,1.47,3.59.86a1.03,1.03,0,0,1,1.235.59c.664,1.156,1.333,2.309,1.977,3.476a1.264,1.264,0,0,1-.363,1.777,1.785,1.785,0,0,0-.737,1.737c.028.525.016,1.053,0,1.58a1.485,1.485,0,0,0,.616,1.372,1.384,1.384,0,0,1,.419,2.022c-.621,1.1-1.257,2.191-1.884,3.288A1.316,1.316,0,0,1-5261.1,3800.668Z" transform="translate(-91.4 -107.478)" fill="#d6e5ef"/>
      <path id="Trazado_168237" data-name="Trazado 168237" d="M-5245.067,3813.962a3.369,3.369,0,0,1-3.45,3.345,3.378,3.378,0,0,1-3.292-3.4,3.362,3.362,0,0,1,3.449-3.344A3.374,3.374,0,0,1-5245.067,3813.962Z" transform="translate(-111.9 -128.992)" fill="#fe6e91"/>
    </g>
  </g>
</svg>
