<svg xmlns="http://www.w3.org/2000/svg" xmlns:xlink="http://www.w3.org/1999/xlink" width="88" height="88" viewBox="0 0 88 88">
  <defs>
    <clipPath id="clip-path">
      <rect id="Rectángulo_42912" data-name="Rectángulo 42912" width="62.043" height="29.275" fill="none"/>
    </clipPath>
  </defs>
  <g id="Grupo_120570" data-name="Grupo 120570" transform="translate(-495 -1601)">
    <g id="Elipse_6758" data-name="Elipse 6758" transform="translate(495 1601)" fill="#fff" stroke="#2631a0" stroke-width="4">
      <circle cx="44" cy="44" r="44" stroke="none"/>
      <circle cx="44" cy="44" r="42" fill="none"/>
    </g>
    <g id="Grupo_118962" data-name="Grupo 118962" transform="translate(508.152 1607.28)">
      <g id="Grupo_118959" data-name="Grupo 118959" transform="translate(14.001)">
        <path id="Trazado_168310" data-name="Trazado 168310" d="M-6148.418,3332.817c-.089-.189-.281-.131-.424-.162a9.2,9.2,0,0,1-7.5-8.968,27.573,27.573,0,0,1,.036-3.432,1.276,1.276,0,0,1,.906-1.252,2.79,2.79,0,0,1,1.095-.211c1.855,0,3.709-.013,5.563,0q.807-.023,1.613,0c.546-.018,1.09-.016,1.637,0,1.832-.032,3.666-.016,5.5,0,.224,0,.523-.066.608.279a1.142,1.142,0,0,1-.822.163c-1.986.005-3.975,0-5.963,0-.768,0-.785.018-.787.778q0,5.937,0,11.875a1.313,1.313,0,0,1-.17.928Z" transform="translate(6163.998 -3277.811)" fill="#18a6fb"/>
        <path id="Trazado_168311" data-name="Trazado 168311" d="M-6122.941,3333.435c0-4.381.007-8.762-.012-13.143,0-.5.137-.627.627-.624,2.377.019,4.756,0,7.133-.01a1.206,1.206,0,0,1,1.372.826c.05.149.051.31.1.46a27.827,27.827,0,0,1-.176,5.032,9.159,9.159,0,0,1-7.792,7.368.6.6,0,0,0-.177.092h-.214a.582.582,0,0,0-.538,0Z" transform="translate(6139.81 -3278.429)" fill="#0074ef"/>
        <path id="Trazado_168312" data-name="Trazado 168312" d="M-6121.746,3369.279a.36.36,0,0,1,.537,0Z" transform="translate(6138.937 -3314.273)" fill="#1586f2"/>
        <path id="Trazado_168313" data-name="Trazado 168313" d="M-6114.167,3237.807c-.262-.689-.633-1.253-1.469-1.286a2.744,2.744,0,0,0-1.007-.058c-1.715-.018-3.43-.023-5.143-.032a.959.959,0,0,1-.135-.668c0-2.345.008-4.69-.011-7.035a1.036,1.036,0,0,1,.688-1.071,5.016,5.016,0,0,0,2.945-4.078,2.622,2.622,0,0,0,.025-.428,1.517,1.517,0,0,0-1.392-1.562,1.462,1.462,0,0,0-1.52,1.367,2.554,2.554,0,0,1-.971,1.843,1.182,1.182,0,0,1-1.241.275.454.454,0,0,1-.1-.17,2.586,2.586,0,0,1-.059-.748q0-9.242,0-18.482c0-.314-.069-.652.184-.921a16.425,16.425,0,0,1,9.436,2.895,16.3,16.3,0,0,1,6.655,8.957,16.555,16.555,0,0,1-2.677,15.241,15.376,15.376,0,0,1-3.781,3.625.788.788,0,0,0-.422.779C-6114.129,3236.767-6114.162,3237.287-6114.167,3237.807Z" transform="translate(6140.254 -3195.291)" fill="#fbb529"/>
        <path id="Trazado_168314" data-name="Trazado 168314" d="M-6167.083,3204.753l-.012,17.395q0,1.45,0,2.9c-.479.271-.864.011-1.224-.249a2.386,2.386,0,0,1-.96-1.789,1.478,1.478,0,0,0-.8-1.255,1.459,1.459,0,0,0-2.112,1.449,4.949,4.949,0,0,0,1.318,3.266,5.286,5.286,0,0,0,1.732,1.245.94.94,0,0,1,.594.972c-.012,2.38,0,4.761-.006,7.141a.8.8,0,0,1-.152.607c-1.914.009-3.827.013-5.74.028a1.686,1.686,0,0,0-1.818,1.273,5.126,5.126,0,0,1-.045-1.44.865.865,0,0,0-.42-.841,16.216,16.216,0,0,1-5.021-5.5,16.688,16.688,0,0,1-2.115-6.64,16.478,16.478,0,0,1,1.755-9.347,16.618,16.618,0,0,1,7.442-7.4A16.961,16.961,0,0,1-6167.083,3204.753Z" transform="translate(6183.962 -3195.291)" fill="#fdea70"/>
        <path id="Trazado_168315" data-name="Trazado 168315" d="M-6150.3,3178.955a1.569,1.569,0,0,1-1.2,1.622,1.545,1.545,0,0,1-1.781-.775,18.633,18.633,0,0,1-1.19-3.1,1.551,1.551,0,0,1,.917-1.855,1.546,1.546,0,0,1,2.007.641,21.633,21.633,0,0,1,1.232,3.2A.855.855,0,0,1-6150.3,3178.955Z" transform="translate(6162.665 -3173.55)" fill="#fdea70"/>
        <path id="Trazado_168316" data-name="Trazado 168316" d="M-6106.651,3178.98a1.674,1.674,0,0,1,.13-.68c.3-.8.6-1.61.913-2.407a1.628,1.628,0,0,1,2.136-1.077,1.631,1.631,0,0,1,.91,2.215c-.312.856-.624,1.714-.978,2.553a1.567,1.567,0,0,1-1.5,1.033,1.554,1.554,0,0,1-1.443-.861A1.4,1.4,0,0,1-6106.651,3178.98Z" transform="translate(6128.014 -3173.545)" fill="#fbb529"/>
        <path id="Trazado_168317" data-name="Trazado 168317" d="M-6123.362,3170.509a1.547,1.547,0,0,1,1.6,1.565q.031,1.471,0,2.941a1.561,1.561,0,0,1-1.6,1.577.875.875,0,0,1-.183-.7q-.009-2.336,0-4.672A.906.906,0,0,1-6123.362,3170.509Z" transform="translate(6140.239 -3170.509)" fill="#fbb529"/>
        <path id="Trazado_168318" data-name="Trazado 168318" d="M-6127.148,3170.509q0,3.042,0,6.084a1.616,1.616,0,0,1-1.627-1.737c-.005-.91-.011-1.82,0-2.729A1.571,1.571,0,0,1-6127.148,3170.509Z" transform="translate(6144.026 -3170.509)" fill="#fdea70"/>
        <path id="Trazado_168319" data-name="Trazado 168319" d="M-6138.3,3280.039c0-2.6-.01-5.193.014-7.789a.752.752,0,0,0-.515-.8,5.127,5.127,0,0,1-3.138-4.618,1.669,1.669,0,0,1,1.57-1.822,1.676,1.676,0,0,1,1.648,1.636,2.051,2.051,0,0,0,2.034,2.01h0a.959.959,0,0,1,.177.709q.006,4.984,0,9.968a.955.955,0,0,1-.178.708Z" transform="translate(6153.556 -3238.896)" fill="#fdf6ca"/>
        <path id="Trazado_168320" data-name="Trazado 168320" d="M-6122.928,3280.036V3268.65a2.047,2.047,0,0,0,2.037-1.944c.126-1.062.832-1.771,1.69-1.7a1.742,1.742,0,0,1,1.529,2.121,5.191,5.191,0,0,1-3.207,4.346.615.615,0,0,0-.437.674c.008,2.628,0,5.256-.007,7.884Z" transform="translate(6139.792 -3238.896)" fill="#fdea70"/>
      </g>
      <g id="Grupo_118961" data-name="Grupo 118961" transform="translate(0 46.164)">
        <g id="Grupo_118960" data-name="Grupo 118960" transform="translate(0 0)" clip-path="url(#clip-path)">
          <path id="Trazado_168321" data-name="Trazado 168321" d="M-6167.849,3260.277c-.848-1.214-2.853-1.174-4.332-1.735-1.8-.684-3.144-3.775-2.327-5.5.091-.192.187-.382.279-.573,1.8-3.7,1.578-4.729-1.6-7.483-3.037-2.63-3.037-2.63-6.744-.809a4.51,4.51,0,0,1-6.191-2.487c-.5-1.386-.487-3.212-1.614-4.047s-2.881-.146-4.35-.308c-1.509.225-3.391-.635-4.453.414-.949.937-1.095,2.7-1.572,4.1-.693,2.04-3.944,3.407-5.884,2.458-.1-.047-.187-.1-.282-.148-3.834-1.885-4.567-1.458-7.577,1.609-2.321,2.367-2.267,4.335-.678,6.915,1.229,2-.247,5.241-2.48,5.987-4.22,1.41-4.247,1.41-4.2,5.881.014,1.525-.6,3.343.283,4.5.832,1.087,2.68,1.1,4.078,1.589,2.02.706,3.367,3.88,2.436,5.8-.022.048-.044.1-.066.145-1.968,4.041-1.591,4.615,1.7,7.858,2.187,2.157,3.9,2.327,6.405.778a4.469,4.469,0,0,1,6.44,2.634c1.323,3.963,1.323,3.963,5.541,4.044.105,0,.211.016.318.024,1.506-.217,3.386.634,4.448-.411.95-.933,1.1-2.689,1.575-4.091.746-2.2,3.908-3.686,5.82-2.443,2.743,1.782,5.059,2.026,7.105-.9a3.782,3.782,0,0,1,.811-.746c2.477-1.933,2.319-4.046.786-6.575a4.3,4.3,0,0,1,2.613-6.236c3.984-1.321,4.007-1.321,3.974-5.577C-6167.609,3263.366-6167,3261.487-6167.849,3260.277Zm-26.881,17.9a13.421,13.421,0,0,1-13.622-13.465,13.4,13.4,0,0,1,13.622-13.621h0c7.025-.5,13.688,5.86,13.689,13.53C-6181.039,3272.177-6187.464,3278.55-6194.729,3278.175Z" transform="translate(6225.534 -3264.952)" fill="#398dcb"/>
        </g>
      </g>
    </g>
  </g>
</svg>
