<svg xmlns="http://www.w3.org/2000/svg" xmlns:xlink="http://www.w3.org/1999/xlink" width="100" height="100" viewBox="0 0 100 100">
  <defs>
    <filter id="Rect치ngulo_41488" x="0" y="0" width="100" height="100" filterUnits="userSpaceOnUse">
      <feOffset dy="3" input="SourceAlpha"/>
      <feGaussianBlur stdDeviation="3" result="blur"/>
      <feFlood flood-opacity="0.161"/>
      <feComposite operator="in" in2="blur"/>
      <feComposite in="SourceGraphic"/>
    </filter>
  </defs>
  <g id="Grupo_120673" data-name="Grupo 120673" transform="translate(-1092.334 -103.001)">
    <g transform="matrix(1, 0, 0, 1, 1092.33, 103)" filter="url(#Rect치ngulo_41488)">
      <rect id="Rect치ngulo_41488-2" data-name="Rect치ngulo 41488" width="82" height="82" rx="23" transform="translate(9 6)" fill="#fff"/>
    </g>
    <g id="Grupo_118687" data-name="Grupo 118687" transform="translate(1680.401 13.269)">
      <path id="Trazado_167037" data-name="Trazado 167037" d="M-526.582,113.129a1.351,1.351,0,0,1,.138.788q0,8.079,0,16.158a1.5,1.5,0,0,1-.814.284,3.041,3.041,0,0,0-1.838,1.107,4.19,4.19,0,0,1-2.082,1.426,3.291,3.291,0,0,0-2.244,2.185,5.086,5.086,0,0,1-1.518,2.251,3,3,0,0,0-1.112,2.485,5.879,5.879,0,0,1-.632,3.143,3,3,0,0,0,.133,2.836,4.388,4.388,0,0,1,.5,2.416,3.467,3.467,0,0,0,1.474,3.2,2.8,2.8,0,0,1,.96,1.44,3.575,3.575,0,0,0,2.415,2.655.5.5,0,0,1,.286.233,3,3,0,0,1-.464,1.406c-.842,1.933-1.669,3.872-2.54,5.793-.085.188-.1.474-.41.479h-32.643a1.987,1.987,0,0,1-2.212-2.19q0-26.657,0-53.315a1.98,1.98,0,0,1,2.178-2.16q16.228,0,32.455,0c.242,0,.5-.081.724.1a33.236,33.236,0,0,1,.043,4.318c-.066,1.757.527,2.934,2.793,2.8,1.166-.071,2.339-.012,3.509-.013A1.68,1.68,0,0,1-526.582,113.129Z" transform="translate(0)" fill="#e0eefe"/>
      <path id="Trazado_167038" data-name="Trazado 167038" d="M-371.35,272.954a3.832,3.832,0,0,1-2.816-2.9A2.792,2.792,0,0,0-375.2,268.6a3.373,3.373,0,0,1-1.408-3.106,4.606,4.606,0,0,0-.532-2.592,3.2,3.2,0,0,1,.036-3.125,3.982,3.982,0,0,0,.5-2.348,3.519,3.519,0,0,1,1.424-3.286,3.3,3.3,0,0,0,1.123-1.7,3.548,3.548,0,0,1,2.574-2.574,3.13,3.13,0,0,0,1.695-1.123,3.739,3.739,0,0,1,2.964-1.5,2.878,2.878,0,0,0,2.244-.243,3.9,3.9,0,0,1,4.1.019,2.977,2.977,0,0,0,1.885.306,3.307,3.307,0,0,1,3.153,1.261,3.662,3.662,0,0,0,1.873,1.289,3.459,3.459,0,0,1,2.526,2.531,3.5,3.5,0,0,0,1.245,1.829,3.161,3.161,0,0,1,1.3,2.832,5.2,5.2,0,0,0,.562,2.834,3.191,3.191,0,0,1-.062,3.069,4.2,4.2,0,0,0-.5,2.471,3.333,3.333,0,0,1-1.272,3.04,3.189,3.189,0,0,0-1.18,1.582,3.789,3.789,0,0,1-2.824,2.885,27.237,27.237,0,0,0-2.114,1.85,3.122,3.122,0,0,1-2.248.8,5.345,5.345,0,0,0-2.965.578,2.046,2.046,0,0,1-1.572.208,1.562,1.562,0,0,1-1.256-.21,5.024,5.024,0,0,0-2.707-.572,3.617,3.617,0,0,1-3.259-1.49A12.034,12.034,0,0,0-371.35,272.954Z" transform="translate(-159.614 -117.18)" fill="#5ab9b6"/>
      <path id="Trazado_167039" data-name="Trazado 167039" d="M-357.775,405a2.73,2.73,0,0,1,1.52,1.02,3.558,3.558,0,0,0,3.314,1.468,3.971,3.971,0,0,1,2.4.505,3.948,3.948,0,0,0,1.426.412q.063.04.049.088t-.033.051q-1.476,3.3-2.952,6.61c-.127.285-.255.57-.391.851a1.414,1.414,0,0,1-2.443.421c-.435-.421-.868-.844-1.28-1.286a1.432,1.432,0,0,0-1.163-.488c-.729.022-1.46.007-2.19.006-1.394,0-1.931-.669-1.629-2.018l3.252-7.354C-357.857,405.194-357.816,405.1-357.775,405Z" transform="translate(-173.189 -249.228)" fill="#a43c50"/>
      <path id="Trazado_167040" data-name="Trazado 167040" d="M-288.765,408.572l-.016-.139a4.132,4.132,0,0,0,2.018-.554,3.149,3.149,0,0,1,1.926-.364,3.694,3.694,0,0,0,3.453-1.443,2.787,2.787,0,0,1,1.509-1.039c1.076,2.462,2.109,4.944,3.245,7.378a1.49,1.49,0,0,1-1.537,2.289c-.637-.079-1.295.022-1.939-.023a1.72,1.72,0,0,0-1.537.651c-.324.38-.7.716-1.058,1.066a1.439,1.439,0,0,1-2.551-.454c-1.055-2.312-2.1-4.63-3.156-6.94C-288.48,408.836-288.454,408.55-288.765,408.572Z" transform="translate(-233.526 -249.253)" fill="#a43c50"/>
      <path id="Trazado_167041" data-name="Trazado 167041" d="M-351.144,113.721c-1.813.006-3.626.029-5.438.012a2.06,2.06,0,0,1-1.922-1.888c-.054-1.728-.014-3.459-.007-5.188,0-.071.073-.141.112-.212C-355.944,108.834-353.5,111.235-351.144,113.721Z" transform="translate(-175.438 -0.592)" fill="#9dbacd"/>
      <path id="Trazado_167042" data-name="Trazado 167042" d="M-489.511,154.405c-2.526,0-5.051.012-7.577-.006a2.018,2.018,0,0,1-2-1.8,2.083,2.083,0,0,1,1.267-2.27,2.434,2.434,0,0,1,.912-.192q7.42,0,14.841,0a2.178,2.178,0,0,1,2.149,1.679,2.175,2.175,0,0,1-1.057,2.342,2.365,2.365,0,0,1-1.209.245q-3.663,0-7.326,0Z" transform="translate(-58.359 -36.979)" fill="#5ab9b6"/>
      <path id="Trazado_167043" data-name="Trazado 167043" d="M-521.558,209.906h-14.6a4.5,4.5,0,0,1-.5-.006,1.172,1.172,0,0,1-1.007-1.038,1.163,1.163,0,0,1,1.025-1.084,3.52,3.52,0,0,1,.376,0h29.318c.864,0,1.35.37,1.369,1.03a.984.984,0,0,1-1.012,1.1c-.417.018-.835,0-1.253,0Z" transform="translate(-26.26 -84.976)" fill="#afcbdc"/>
      <path id="Trazado_167044" data-name="Trazado 167044" d="M-522.547,239.986h13.589c.917,0,1.352.326,1.353,1.009s-.534,1.122-1.367,1.122l-27.116,0a2.158,2.158,0,0,1-.737-.1,1.029,1.029,0,0,1-.714-1.118,1.019,1.019,0,0,1,1.026-.907c1.273-.012,2.547,0,3.82,0Z" transform="translate(-26.362 -111.803)" fill="#afcbdc"/>
      <path id="Trazado_167045" data-name="Trazado 167045" d="M-525.3,369.605q-5.546,0-11.092,0a1.007,1.007,0,0,1-1-.483A1,1,0,0,1-537.39,368a1.39,1.39,0,0,1,1.215-.526c.626-.019,1.253,0,1.88,0h19.678a2.359,2.359,0,0,1,.8.082,1.05,1.05,0,0,1,.788,1.294.99.99,0,0,1-1.124.762C-517.868,369.6-521.586,369.605-525.3,369.605Z" transform="translate(-26.34 -217.97)" fill="#afcbdc"/>
      <path id="Trazado_167046" data-name="Trazado 167046" d="M-525.729,335.938h10.4c.85,0,1.32.383,1.318,1.066a1.176,1.176,0,0,1-1.308,1.062q-10.461.009-20.922,0a1.126,1.126,0,0,1-1.273-.87,1,1,0,0,1,.481-1.117,1.147,1.147,0,0,1,.782-.14Q-530.991,335.935-525.729,335.938Z" transform="translate(-26.35 -191.708)" fill="#afcbdc"/>
      <path id="Trazado_167047" data-name="Trazado 167047" d="M-484.668,305.874q-3.379,0-6.758,0c-.789,0-1.293-.412-1.281-1.038a1.16,1.16,0,0,1,1.269-1.091q6.758-.005,13.516,0a1.172,1.172,0,0,1,1.256,1.041c.018.651-.475,1.088-1.244,1.089Q-481.289,305.877-484.668,305.874Z" transform="translate(-63.697 -164.899)" fill="#afcbdc"/>
      <path id="Trazado_167048" data-name="Trazado 167048" d="M-530.7,401.829q-2.817,0-5.634,0c-.779,0-1.352-.474-1.333-1.09a1.191,1.191,0,0,1,1.321-1.04q5.634,0,11.268,0c.083,0,.167,0,.25,0a1.084,1.084,0,0,1,1.07,1.137.988.988,0,0,1-1.12.989C-526.815,401.834-528.755,401.829-530.7,401.829Z" transform="translate(-26.259 -244.809)" fill="#afcbdc"/>
      <path id="Trazado_167049" data-name="Trazado 167049" d="M-530.734,273.671q-2.851,0-5.7,0c-.731,0-1.124-.305-1.207-.916-.073-.532.272-.938.934-1.142a2.24,2.24,0,0,1,.68-.072h10.778a2.058,2.058,0,0,1,.679.074,1.09,1.09,0,0,1,.824,1.169.986.986,0,0,1-1.1.885C-526.807,273.676-528.77,273.671-530.734,273.671Z" transform="translate(-26.268 -138.081)" fill="#afcbdc"/>
      <path id="Trazado_167050" data-name="Trazado 167050" d="M-436.887,273.666c-1.211,0-2.422,0-3.632,0a1.016,1.016,0,0,1-1.155-.9,1.034,1.034,0,0,1,.861-1.125,2.228,2.228,0,0,1,.611-.1c2.213-.007,4.426,0,6.638,0,.084,0,.168,0,.25,0,.826.079,1.3.515,1.271,1.166s-.457.961-1.338.962Q-435.134,273.668-436.887,273.666Z" transform="translate(-106.188 -138.076)" fill="#afcbdc"/>
      <path id="Trazado_167051" data-name="Trazado 167051" d="M-534.983,305.834c-.522,0-1.044.015-1.565,0a1.153,1.153,0,0,1-1.115-1.055,1.139,1.139,0,0,1,1.1-1.066c1.064-.019,2.129-.021,3.193,0a1.13,1.13,0,0,1,1.083,1.084,1.148,1.148,0,0,1-1.072,1.034C-533.9,305.853-534.441,305.834-534.983,305.834Z" transform="translate(-26.258 -164.86)" fill="#afcbdc"/>
      <path id="Trazado_167052" data-name="Trazado 167052" d="M-335.977,278.25a9.585,9.585,0,0,1,9.623,9.613,9.509,9.509,0,0,1-9.6,9.622,9.506,9.506,0,0,1-9.653-9.7A9.576,9.576,0,0,1-335.977,278.25Z" transform="translate(-186.199 -143.67)" fill="#87d2cc"/>
      <path id="Trazado_167053" data-name="Trazado 167053" d="M-305.041,317.6a1.215,1.215,0,0,1-.4,1.021c-1.714,1.712-3.422,3.43-5.142,5.135a1.081,1.081,0,0,1-1.7-.008c-.331-.318-.665-.636-.971-.978a1.031,1.031,0,0,1,0-1.467.967.967,0,0,1,1.447-.063c.343.33.516.23.8-.054,1.361-1.385,2.741-2.752,4.115-4.124a1.01,1.01,0,0,1,1.189-.287A1.028,1.028,0,0,1-305.041,317.6Z" transform="translate(-212.888 -175.676)" fill="#fefefe"/>
    </g>
  </g>
</svg>
