<svg xmlns="http://www.w3.org/2000/svg" width="124" height="124" viewBox="0 0 124 124">
  <g id="Grupo_119354" data-name="Grupo 119354" transform="translate(-1210.5 -3538.594)">
    <g id="Elipse_6814" data-name="Elipse 6814" transform="translate(1210.5 3538.594)" fill="#fff" stroke="#2631a0" stroke-width="4">
      <circle cx="62" cy="62" r="62" stroke="none"/>
      <circle cx="62" cy="62" r="60" fill="none"/>
    </g>
    <g id="Grupo_119353" data-name="Grupo 119353" transform="translate(1882.904 4625.21)">
      <path id="Trazado_169390" data-name="Trazado 169390" d="M-652.9-754.116a3.267,3.267,0,0,0,.393-1.388,15.8,15.8,0,0,1,7.674-10.2c.19-.11.375-.225.563-.338.366-.1.561.174.756.381a8.949,8.949,0,0,0,5.662,2.7,1.238,1.238,0,0,1,.774.228.862.862,0,0,1,.125.27,20.892,20.892,0,0,1,.066,2.884q.016,4.413,0,8.826a1.686,1.686,0,0,1-.256,1.258c-4.443.008-8.887.025-13.33.018A2.747,2.747,0,0,1-652.9-751.3Z" transform="translate(0 -239.928)" fill="#fe6c6c"/>
      <path id="Trazado_169391" data-name="Trazado 169391" d="M-460.851-1074.3c.955.4,1.969.614,2.9,1.1a9.169,9.169,0,0,1,3.069,13.255,6.112,6.112,0,0,0-.335.567,7.447,7.447,0,0,1-4.138,3.062,7.854,7.854,0,0,1-2.09.446c-.4.035-.845.075-1.066-.411a3.94,3.94,0,0,1-.1-1.231q0-7.682,0-15.365a2.014,2.014,0,0,1,.266-1.426Z" transform="translate(-148.115)" fill="#feccbd"/>
      <path id="Trazado_169392" data-name="Trazado 169392" d="M-493.462-1074.3q0,9.117,0,18.235l-.089.093a5.794,5.794,0,0,1-3.367-.564,7.081,7.081,0,0,1-3.662-2.827,16.184,16.184,0,0,1-1.628-3.229,9.156,9.156,0,0,1,5.565-11.115c.565-.194,1.128-.4,1.692-.594Z" transform="translate(-116.996)" fill="#feddce"/>
      <path id="Trazado_169393" data-name="Trazado 169393" d="M-428.481-749.5c-4.449.007-8.9.03-13.345.012a2.484,2.484,0,0,1-2.415-2.461,20.86,20.86,0,0,1,.323-3.369c-.212-.356-.049-.7.048-1.037a17.325,17.325,0,0,1,1.185-2.911c.341-.684.308-.74-.454-.742-3.009-.008-6.018,0-9.027,0a2.262,2.262,0,0,1-.98-.105c-.167-.078-.463-.19-.1-.422a.789.789,0,0,0,.624.141q5.126,0,10.252.005a.872.872,0,0,0,.847-.378,16.215,16.215,0,0,1,5.915-5.278c.365-.095.56.178.757.386a8.927,8.927,0,0,0,5.579,2.686,1.389,1.389,0,0,1,.855.238.868.868,0,0,1,.125.269,23.164,23.164,0,0,1,.066,3.049q.018,4.331,0,8.662A1.7,1.7,0,0,1-428.481-749.5Z" transform="translate(-155.276 -239.925)" fill="#a1e685"/>
      <path id="Trazado_169394" data-name="Trazado 169394" d="M-581.84-749.524l-.01-13.207c.184-.271.479-.219.743-.251a8.606,8.606,0,0,0,5.519-2.6c.228-.245.439-.588.874-.5a15.86,15.86,0,0,1,8.193,10.387,13.3,13.3,0,0,1,.425,3.848,2.406,2.406,0,0,1-2.331,2.34C-572.9-749.493-577.369-749.516-581.84-749.524Z" transform="translate(-55.307 -239.903)" fill="#fe405c"/>
      <path id="Trazado_169395" data-name="Trazado 169395" d="M-462.332-1003.649a8.713,8.713,0,0,0,6.42-2.634c.233-.23.474-.451.712-.676a15.873,15.873,0,0,1,8.2,10.408,16.9,16.9,0,0,1,.45,3.023,2.222,2.222,0,0,1-.613,2.621,2.842,2.842,0,0,1-3.13.556q-5.393-.013-10.786-.027c-.411,0-.822-.015-1.234-.022a1.393,1.393,0,0,1-.279-1.086q-.011-5.527,0-11.054a1.422,1.422,0,0,1,.279-1.087Z" transform="translate(-148.13 -52.42)" fill="#fe9e22"/>
      <path id="Trazado_169396" data-name="Trazado 169396" d="M-340.911-749.511l-.006-13.215c.191-.267.487-.216.754-.246a8.692,8.692,0,0,0,5.493-2.592c.234-.244.441-.593.88-.505a15.94,15.94,0,0,1,7.846,9.2,14.412,14.412,0,0,1,.774,4.953,2.425,2.425,0,0,1-2.423,2.425C-332.033-749.484-336.472-749.5-340.911-749.511Z" transform="translate(-242.845 -239.914)" fill="#00b89f"/>
      <path id="Trazado_169397" data-name="Trazado 169397" d="M-516.656-1003.582q0,6.614,0,13.227c-4.439.007-8.877.028-13.316.014a2.428,2.428,0,0,1-2.439-2.584,15.567,15.567,0,0,1,7.986-13.6c.211-.127.423-.253.635-.38.554.494,1.08,1.025,1.668,1.474A9.143,9.143,0,0,0-516.656-1003.582Z" transform="translate(-93.79 -52.466)" fill="#fec377"/>
      <path id="Trazado_169398" data-name="Trazado 169398" d="M-407.078-943.176c.356-.009.712-.023,1.068-.025a2.454,2.454,0,0,0,2.651-2.659c0-.164.015-.328.023-.493q3.055,4.32,6.109,8.64c.2.289.414.574.718.994.158-.817.277-1.5.422-2.175a2.451,2.451,0,0,1,2.843-2.029,2.415,2.415,0,0,1,2.025,2.837q-.66,4.083-1.414,8.151a2.441,2.441,0,0,1-3,2.026q-4-.668-7.987-1.387a2.5,2.5,0,0,1-2.063-2.987,2.523,2.523,0,0,1,2.942-1.921c.649.107,1.3.228,2.131.376Z" transform="translate(-191.347 -99.594)" fill="#002659"/>
      <path id="Trazado_169399" data-name="Trazado 169399" d="M-483.36-760.92c.114.269.114.277.388.278,1.3,0,2.594,0,3.891,0H-472a18.8,18.8,0,0,0-2.029,4.943h-9.621c.631.6,1.111,1.033,1.56,1.5a2.52,2.52,0,0,1,.091,3.626,2.476,2.476,0,0,1-3.617-.133q-2.825-2.8-5.62-5.624a2.455,2.455,0,0,1-.014-3.731q2.824-2.857,5.68-5.682a2.476,2.476,0,0,1,3.563-.1,2.522,2.522,0,0,1-.016,3.569C-482.46-761.816-482.915-761.373-483.36-760.92Z" transform="translate(-125.162 -239.546)" fill="#002659"/>
      <path id="Trazado_169400" data-name="Trazado 169400" d="M-587.75-887.264l6.519-9.269a7.156,7.156,0,0,0-1.952.251,2.543,2.543,0,0,1-3.088-1.917,2.516,2.516,0,0,1,2.25-2.994c2.608-.447,5.212-.919,7.82-1.365a2.459,2.459,0,0,1,2.985,2.046q.741,4.026,1.4,8.067a2.428,2.428,0,0,1-2.028,2.909,2.455,2.455,0,0,1-2.832-2.044c-.141-.664-.254-1.333-.415-2.191l-5.24,7.474c-.288.129-.53-.035-.782-.126a9.076,9.076,0,0,0-3.286-.613C-586.846-887.143-587.37-886.781-587.75-887.264Z" transform="translate(-50.715 -133.649)" fill="#145481"/>
      <path id="Trazado_169401" data-name="Trazado 169401" d="M-582.783-833.292a7.894,7.894,0,0,1,4.1.933,9.05,9.05,0,0,1,4.99,9.048,8.012,8.012,0,0,1-1.628,4.346,5.643,5.643,0,0,0-.334.567,9.882,9.882,0,0,1-4.943,3.076,10.927,10.927,0,0,1-2.193.276l.012-.068a1.372,1.372,0,0,1-.273-1.091q-.012-8,0-15.99A1.415,1.415,0,0,1-582.783-833.292Z" transform="translate(-54.371 -187.586)" fill="#feccbd"/>
      <path id="Trazado_169402" data-name="Trazado 169402" d="M-334.747-818.4a9.9,9.9,0,0,1-4.858,3.045,11.2,11.2,0,0,1-2.268.3l0-.072a1.37,1.37,0,0,1-.269-1.092q-.012-8,0-16a1.457,1.457,0,0,1,.272-1.1,9.113,9.113,0,0,1,8.954,7.386,8.878,8.878,0,0,1-1.6,7.092A3.43,3.43,0,0,0-334.747-818.4Z" transform="translate(-241.888 -187.58)" fill="#feccbd"/>
      <path id="Trazado_169403" data-name="Trazado 169403" d="M-613.916-833.352q0,9.088.009,18.176A8.7,8.7,0,0,1-620-817.5c-.349-.309-.687-.63-1.031-.946a16.157,16.157,0,0,1-1.627-3.227,9.149,9.149,0,0,1,5.557-11.111c.622-.213,1.252-.4,1.879-.6C-614.795-833.189-614.35-833.475-613.916-833.352Z" transform="translate(-23.238 -187.527)" fill="#feddce"/>
      <path id="Trazado_169404" data-name="Trazado 169404" d="M-373.055-833.356q0,9.092,0,18.184a8.626,8.626,0,0,1-5.973-2.2c-.4-.337-.768-.707-1.15-1.062a14.37,14.37,0,0,1-1.718-3.54,9.178,9.178,0,0,1,7.293-11.24A6.6,6.6,0,0,1-373.055-833.356Z" transform="translate(-210.703 -187.539)" fill="#feddce"/>
    </g>
  </g>
</svg>
