<svg xmlns="http://www.w3.org/2000/svg" width="124" height="124" viewBox="0 0 124 124">
  <g id="Grupo_119356" data-name="Grupo 119356" transform="translate(-580.5 -3538.594)">
    <g id="Elipse_6812" data-name="Elipse 6812" transform="translate(580.5 3538.594)" fill="#fff" stroke="#2631a0" stroke-width="4">
      <circle cx="62" cy="62" r="62" stroke="none"/>
      <circle cx="62" cy="62" r="60" fill="none"/>
    </g>
    <g id="Grupo_119351" data-name="Grupo 119351" transform="translate(1006.729 4193.753)">
      <path id="Trazado_169297" data-name="Trazado 169297" d="M-163.273-344.757c-.693,1.545-1.916,1.976-3.555,1.967-9.2-.05-18.392-.024-27.588-.025-2.227,0-3.22-1-3.222-3.246q-.005-7.281,0-14.563c0-2.015.579-2.791,2.481-3.353,2.143-.307,4.3-.044,6.449-.183a5.872,5.872,0,0,0,1.267.034q10.584,0,21.168,0a3.251,3.251,0,0,1,2.225.7,2.45,2.45,0,0,1,.775,1.63Z" transform="translate(-162.455 -212.094)" fill="#e58e39"/>
      <path id="Trazado_169298" data-name="Trazado 169298" d="M-402.233-614.4c-.005-3.975-.048-7.95,0-11.924a5.143,5.143,0,0,1,3.665-4.833c.181-.059.4-.073.5-.277h25.887a9.152,9.152,0,0,1,2.551,1.4,4.988,4.988,0,0,1,1.654,3.662,1.278,1.278,0,0,1,.056.589c0,3.586-.013,7.171.016,10.757,0,.626-.2.879-.805.84-.174-.011-.349,0-.523,0q-15.892,0-31.783,0C-401.428-614.189-401.872-614.079-402.233-614.4Z" transform="translate(-0.084)" fill="#4bdcdc"/>
      <path id="Trazado_169299" data-name="Trazado 169299" d="M-102.236-606.19v18.384a1.366,1.366,0,0,1-.99.241q-8.25.007-16.5,0a1.332,1.332,0,0,1-.925-.21,1.626,1.626,0,0,1-.06-.735q0-8.468,0-16.935c0-.908.033-.951.974-.952q8.291-.009,16.581,0A1.251,1.251,0,0,1-102.236-606.19Z" transform="translate(-223.492 -19.864)" fill="#4bdcdc"/>
      <path id="Trazado_169300" data-name="Trazado 169300" d="M-120.65-516.327h18.383v3.288a3.235,3.235,0,0,1-3.459,1.986c-4.086-.077-8.175-.018-12.263-.03a2.532,2.532,0,0,1-2.7-2.25A12.536,12.536,0,0,1-120.65-516.327Z" transform="translate(-223.462 -91.343)" fill="#5085f1"/>
      <path id="Trazado_169301" data-name="Trazado 169301" d="M-120.708-629.058a2.764,2.764,0,0,1,1.976-2.377h14.365a2.265,2.265,0,0,1,2.095,2.093v3.139a1.184,1.184,0,0,1-.658.07c-5.682,0-11.365-.007-17.047.017-.618,0-.841-.156-.782-.781C-120.692-627.614-120.8-628.339-120.708-629.058Z" transform="translate(-223.456)" fill="#5085f1"/>
      <path id="Trazado_169302" data-name="Trazado 169302" d="M-51.85-429.889a3.906,3.906,0,0,1-1.37,1.6,2.8,2.8,0,0,1-2.836-.141,1.932,1.932,0,0,1-1.071-2.385,2.617,2.617,0,0,1,2.292-2.375c1.441-.137,2.326.486,2.985,2.1Z" transform="translate(-273.879 -157.305)" fill="#fec831"/>
      <path id="Trazado_169303" data-name="Trazado 169303" d="M-369.936-376.095a2.467,2.467,0,0,1,1.942,2.012,7.3,7.3,0,0,1,.093,1.114q.009,8.666,0,17.332c0,1.693-.7,2.738-2.05,3.072a4.053,4.053,0,0,1-.962.086q-14.173.006-28.346,0a2.692,2.692,0,0,1-3.009-2.991q0-8.927,0-17.855A2.55,2.55,0,0,1-400.2-376.1c1.29-.137,2.583-.032,3.874-.056.971-.018,1.944.038,2.912-.012,2.607-.134,5.219-.221,7.824-.115,5.074.207,10.147.074,15.22.123A.748.748,0,0,1-369.936-376.095Z" transform="translate(-0.076 -202.433)" fill="#fec831"/>
      <path id="Trazado_169304" data-name="Trazado 169304" d="M-368.047-547.024a5.234,5.234,0,0,1-5.453,5.065c-2.737.02-5.475,0-8.212.01-.257,0-.553-.119-.766.145a35.243,35.243,0,0,1-5.045.034.465.465,0,0,1-.32-.173c-2.757,0-5.519-.108-8.271.013-3.929.172-6.63-2.429-6.2-6.586a1.681,1.681,0,0,1,.878-.076q16.216-.008,32.431,0c1.132,0,.993-.151,1,.979A1.61,1.61,0,0,1-368.047-547.024Z" transform="translate(0 -65.722)" fill="#5085f1"/>
      <path id="Trazado_169305" data-name="Trazado 169305" d="M-159.005-421.61a2.922,2.922,0,0,0,1.071,2.385l-21.273,9.647a57.079,57.079,0,0,1-6.4.013q12.96-5.88,25.921-11.759C-159.466-421.427-159.234-421.515-159.005-421.61Z" transform="translate(-172 -166.505)" fill="#2c2f47"/>
      <path id="Trazado_169306" data-name="Trazado 169306" d="M-356.872-449.663c-1.4-1.415-2.793-2.841-4.212-4.239-.319-.314-.378-.5-.008-.812.511-.428.949-1.234,1.471-1.279.547-.048.974.809,1.453,1.27.79.76,1.6,1.511,2.317,2.333.478.545.741.427,1.192-.029,3.26-3.294,6.558-6.551,9.816-9.847.436-.441.687-.493,1.072.007s1.213.853,1.174,1.348c-.038.48-.763.913-1.2,1.353q-4.928,4.952-9.862,9.9a.449.449,0,0,1-.481.075,4.355,4.355,0,0,0-2.252-.009A.438.438,0,0,1-356.872-449.663Z" transform="translate(-32.547 -133.965)" fill="#2c2f47"/>
      <path id="Trazado_169307" data-name="Trazado 169307" d="M-241.694-480.1c4.326-3.915,9.173-5.2,14.714-3.582a14.02,14.02,0,0,1,5.506,3.177c.363.329.331.5,0,.788-.485.426-.871,1.154-1.409,1.278-.572.132-.986-.681-1.494-1.048a11.907,11.907,0,0,0-14.82.742c-.45.4-.69.446-1.09-.028A16.507,16.507,0,0,0-241.694-480.1Z" transform="translate(-127.497 -116.705)" fill="#2c2f47"/>
      <path id="Trazado_169308" data-name="Trazado 169308" d="M-350.084-491.939c1.293.011,2.587.045,3.879.023.5-.008.737.1.682.647-.064.638.255,1.458-.121,1.877s-1.217.139-1.851.14c-5.275.012-10.55,0-15.825.022-.6,0-.774-.169-.719-.741.058-.613-.184-1.415.125-1.8.33-.411,1.164-.106,1.777-.128.87-.032,1.74-.024,2.611-.033a1.706,1.706,0,0,1,1-.236q3.725,0,7.449,0A1.55,1.55,0,0,1-350.084-491.939Z" transform="translate(-30.382 -110.513)" fill="#2c2f47"/>
      <path id="Trazado_169309" data-name="Trazado 169309" d="M-332.6-511.11l-9.444.007,2.066-5.22,4.582,0a1.271,1.271,0,0,1,.784.142Z" transform="translate(-47.863 -91.342)" fill="#3a66d5"/>
      <path id="Trazado_169310" data-name="Trazado 169310" d="M-348.688-400.982a4.613,4.613,0,0,1,3.212,0,3.9,3.9,0,0,1,2.3,3.443c.151,1.58.151,1.58-1.4,1.58-1.913,0-3.826,0-5.74,0-.241,0-.5.078-.722-.086a14.837,14.837,0,0,1,.108-2.142A4.057,4.057,0,0,1-348.688-400.982Z" transform="translate(-40.732 -182.647)" fill="#e58e39"/>
      <path id="Trazado_169311" data-name="Trazado 169311" d="M-223.258-455.992c2.824-3.206,8.246-3.687,11.839-1.112,1.319.946,1.319.946.209,2.052a2.332,2.332,0,0,0-.262.265c-.381.529-.7.51-1.22.073a6.434,6.434,0,0,0-8.052,0c-.486.4-.79.485-1.223-.048A13.16,13.16,0,0,0-223.258-455.992Z" transform="translate(-142.127 -137.027)" fill="#2c2f47"/>
      <path id="Trazado_169312" data-name="Trazado 169312" d="M-205.318-431.957a4.018,4.018,0,0,1,5.228-.415c.325.259.4.432.044.719a6.223,6.223,0,0,0-.844.841c-.356.427-.71.72-1.281.346a.49.49,0,0,0-.427-.043c-.937.6-1.333-.2-1.857-.686C-204.729-431.446-205.013-431.688-205.318-431.957Z" transform="translate(-156.363 -157.344)" fill="#2c2f47"/>
      <path id="Trazado_169313" data-name="Trazado 169313" d="M-367.877-593.283c-.092-1.5-.092-1.5-1.655-1.5l-32.616.007q0-.081,0-.162,16.758,0,33.517.019c.632,0,.733-.23.731-.781-.013-3.736,0-7.473.009-11.209a.949.949,0,0,1,.109.647q.006,6.164,0,12.328A.973.973,0,0,1-367.877-593.283Z" transform="translate(-0.17 -19.463)" fill="#6ecce7"/>
      <path id="Trazado_169314" data-name="Trazado 169314" d="M-383.746-381.7c2.394.006,4.787,0,7.181.029.55.007.7-.2.655-.7a6.723,6.723,0,0,1,.021-.82.685.685,0,0,1,.066.132c.11.43-.19,1.013.152,1.277.376.289.961.094,1.454.095,3.712.009,7.423,0,11.135.009a1.8,1.8,0,0,1,1.089.14l-30.264-.009a1.685,1.685,0,0,1,1.01-.132C-388.746-381.686-386.246-381.689-383.746-381.7Z" transform="translate(-8.019 -196.997)" fill="#fbc743"/>
      <path id="Trazado_169315" data-name="Trazado 169315" d="M-90.614-341.314c-1.345,0-2.69-.013-4.035.008-.418.007-.547-.122-.562-.547-.073-2.125-.086-2.124,2.045-2.124,2.167,0,4.334.017,6.5-.012.547-.007.733.137.734.706,0,1.97.026,1.97-1.918,1.97Z" transform="translate(-243.72 -228.099)" fill="#2c2f47"/>
      <path id="Trazado_169316" data-name="Trazado 169316" d="M-90.541-315.618c-1.343,0-2.686-.016-4.029.009-.449.008-.592-.12-.6-.584-.04-2.026-.056-2.025,1.993-2.025,2.188,0,4.377.017,6.565-.012.552-.007.724.143.722.708-.007,1.9.015,1.9-1.89,1.9Z" transform="translate(-243.762 -248.54)" fill="#2c2f47"/>
      <path id="Trazado_169317" data-name="Trazado 169317" d="M-150.163-342.541c0,1.271,0,1.271-1.3,1.271-1.37,0-1.37,0-1.37-1.353,0-1.312,0-1.312,1.34-1.312S-150.163-343.935-150.163-342.541Z" transform="translate(-198.014 -228.143)" fill="#2d3047"/>
      <path id="Trazado_169318" data-name="Trazado 169318" d="M-178.321-342.676c0-1.259,0-1.259,1.249-1.259,1.414,0,1.414,0,1.414,1.419,0,1.246,0,1.246-1.267,1.246C-178.321-341.27-178.321-341.27-178.321-342.676Z" transform="translate(-177.786 -228.143)" fill="#2d3047"/>
      <path id="Trazado_169319" data-name="Trazado 169319" d="M-176.99-292.676c1.332,0,1.332,0,1.332,1.324s0,1.331-1.35,1.331c-1.313,0-1.313,0-1.313-1.342C-178.321-292.676-178.321-292.676-176.99-292.676Z" transform="translate(-177.786 -268.819)" fill="#2e3047"/>
      <path id="Trazado_169320" data-name="Trazado 169320" d="M-151.5-292.676c1.318,0,1.318,0,1.318,1.331s0,1.333-1.334,1.322c-1.57-.013-1.315.2-1.331-1.346C-152.856-292.676-152.845-292.676-151.5-292.676Z" transform="translate(-197.999 -268.819)" fill="#2e3047"/>
      <path id="Trazado_169321" data-name="Trazado 169321" d="M-124.433-342.538c0,1.269,0,1.269-1.3,1.269s-1.3,0-1.3-1.277c0-1.387,0-1.387,1.42-1.387h.149c1.17.015,1.019-.143,1.034,1.023C-124.431-342.786-124.433-342.662-124.433-342.538Z" transform="translate(-218.483 -228.144)" fill="#2d2f47"/>
      <path id="Trazado_169322" data-name="Trazado 169322" d="M-176.994-315.571c-1.326,0-1.326,0-1.326-1.315,0-1.287,0-1.287,1.286-1.287,1.376,0,1.376,0,1.376,1.36C-175.657-315.571-175.657-315.571-176.994-315.571Z" transform="translate(-177.787 -248.586)" fill="#2d2f47"/>
      <path id="Trazado_169323" data-name="Trazado 169323" d="M-150.162-316.881c0,1.309,0,1.309-1.335,1.309s-1.331,0-1.331-1.322c0-1.28,0-1.28,1.307-1.28h.074C-150.162-318.173-150.162-318.173-150.162-316.881Z" transform="translate(-198.016 -248.586)" fill="#2d2f47"/>
      <path id="Trazado_169324" data-name="Trazado 169324" d="M-124.433-291.344c0,1.325,0,1.325-1.345,1.325-1.259,0-1.259,0-1.259-1.268,0-1.387,0-1.387,1.426-1.387C-124.433-292.674-124.433-292.674-124.433-291.344Z" transform="translate(-218.482 -268.821)" fill="#2d2f47"/>
      <path id="Trazado_169325" data-name="Trazado 169325" d="M-125.728-318.172c1.3,0,1.3,0,1.3,1.289,0,1.312,0,1.312-1.339,1.312-1.264,0-1.264,0-1.264-1.243v-.075C-127.035-318.172-127.035-318.172-125.728-318.172Z" transform="translate(-218.484 -248.587)" fill="#2c2f47"/>
      <path id="Trazado_169326" data-name="Trazado 169326" d="M-301.755-608.032c-.105.124-.191.243-.293.345-1.973,1.974-3.952,3.94-5.916,5.922-.275.277-.461.291-.723,0-.461-.515-1.24-.958-1.337-1.524-.081-.477.784-.932,1.236-1.39,1.595-1.611,3.214-3.2,4.8-4.817.32-.326.509-.358.812,0,.336.4.733.746,1.1,1.117C-301.97-608.274-301.873-608.161-301.755-608.032Z" transform="translate(-73.271 -17.205)" fill="#2c2f47"/>
      <path id="Trazado_169327" data-name="Trazado 169327" d="M-352.818-601.445a5.291,5.291,0,0,0-.472-.61c-1.166-1.18-1.17-1.176,0-2.345,1.654-1.653,3.325-3.291,4.95-4.972.4-.417.629-.4.971.021a7.224,7.224,0,0,0,.948.95c.347.3.405.5.032.859-1.94,1.9-3.847,3.823-5.769,5.737A.859.859,0,0,1-352.818-601.445Z" transform="translate(-38.246 -17.267)" fill="#2c2f47"/>
      <path id="Trazado_169328" data-name="Trazado 169328" d="M-54.107-558.716c0,.695-.018,1.39.007,2.083.015.409-.115.55-.544.567-2.07.079-2.07.092-2.069-1.937,0-.943.013-1.885-.006-2.828-.008-.378.111-.5.5-.522,2.108-.1,2.108-.109,2.108,1.967Q-54.107-559.051-54.107-558.716Z" transform="translate(-274.282 -55.587)" fill="#2c2f47"/>
      <path id="Trazado_169329" data-name="Trazado 169329" d="M-54.082-585.326c0,1.292,0,1.292-1.3,1.292s-1.306,0-1.306-1.285c0-1.32,0-1.32,1.337-1.32C-54.082-586.64-54.082-586.64-54.082-585.326Z" transform="translate(-274.306 -35.547)" fill="#2c2f47"/>
      <path id="Trazado_169330" data-name="Trazado 169330" d="M-368.242-337.182c-2.643,0-5.287-.013-7.93.011-.516,0-.678-.13-.675-.662q.033-5.978,0-11.956c0-.554.2-.651.7-.65q7.93.021,15.86,0c.529,0,.664.152.661.669q-.031,5.978,0,11.956c0,.549-.181.65-.682.646C-362.955-337.194-365.6-337.182-368.242-337.182Z" transform="translate(-20.247 -222.98)" fill="#385ed5"/>
      <path id="Trazado_169331" data-name="Trazado 169331" d="M-272.4-290.031c-2.119-.028-2.107-.027-2.005-2.182.019-.4.146-.506.523-.5q1.488.03,2.977,0c.363-.007.5.125.455.472-.009.073,0,.149,0,.223-.052.632.282,1.47-.152,1.838C-270.975-289.862-271.784-290.06-272.4-290.031Z" transform="translate(-101.512 -268.791)" fill="#2d2f47"/>
      <path id="Trazado_169332" data-name="Trazado 169332" d="M-272.352-315.645c-1.978,0-1.963,0-1.941-1.982.005-.472.122-.658.623-.64.942.035,1.887.025,2.83,0,.388-.009.5.123.511.508C-270.241-315.645-270.23-315.645-272.352-315.645Z" transform="translate(-101.625 -248.511)" fill="#2c2f47"/>
      <path id="Trazado_169333" data-name="Trazado 169333" d="M-266.66-353.947c-1.328,0-1.328,0-1.328-1.329,0-1.281,0-1.281,1.309-1.282,1.348,0,1.348,0,1.348,1.373C-265.331-353.947-265.331-353.947-266.66-353.947Z" transform="translate(-106.632 -218.126)" fill="#2d2f47"/>
    </g>
  </g>
</svg>
