<svg xmlns="http://www.w3.org/2000/svg" width="124" height="124" viewBox="0 0 124 124">
  <g id="Grupo_119355" data-name="Grupo 119355" transform="translate(-895.5 -3538.594)">
    <g id="Elipse_6813" data-name="Elipse 6813" transform="translate(895.5 3538.594)" fill="#fff" stroke="#2631a0" stroke-width="4">
      <circle cx="62" cy="62" r="62" stroke="none"/>
      <circle cx="62" cy="62" r="60" fill="none"/>
    </g>
    <g id="Grupo_119352" data-name="Grupo 119352" transform="translate(808.021 4582.029)">
      <path id="Trazado_169334" data-name="Trazado 169334" d="M199.139-1019.245c0-1.491.046-2.984-.012-4.472-.029-.737.166-.938.923-.936,9.453.029,18.906.019,28.358.019,2.616,0,5.233.018,7.849-.013.6-.007.763.176.749.762-.036,1.546-.009,3.094-.007,4.641a1.627,1.627,0,0,1,.267,1.124q.006,12.531,0,25.062a2.806,2.806,0,0,1-.09.834c-.152.418-.542.544-.895.708a5.156,5.156,0,0,0-3.108,4.9c-.044,1.374.1,2.751-.082,4.122a2.322,2.322,0,0,1-.553.724,2.428,2.428,0,0,0-.022,3.46,2.609,2.609,0,0,1,.564.721,19.84,19.84,0,0,1,.08,3.518,9.548,9.548,0,0,0,3.455,7.94,1.492,1.492,0,0,1,.56.718,2.277,2.277,0,0,1-.163,1.662,1.774,1.774,0,0,1-1.056.2c-1.486.015-2.972-.036-4.456.09a1.341,1.341,0,0,1-.616-.253,6.667,6.667,0,0,0-4.526-1.212c-1.061.064-2.129.016-3.193.009a1.93,1.93,0,0,1-.983-.157c-.392-.74-.343-1.049.328-1.452a9.4,9.4,0,0,0,4.792-8.926c-.032-1.149,0-2.3-.01-3.451-.012-2.495,0-4.989-.008-7.483a5.189,5.189,0,0,0-5.42-5.566c-.411-.011-.852.071-1.187-.281a11.891,11.891,0,0,1-.159-3.344c-.044-1.945.139-1.747-1.79-1.759-.7,0-1.4-.009-2.107,0-.887.014-.974.092-.988.957-.017,1.039,0,2.078-.009,3.118a1.639,1.639,0,0,1-.243,1.128,1.255,1.255,0,0,1-.8.2,22.835,22.835,0,0,1-4.588-.167,1.369,1.369,0,0,1-.287-1.1c-.016-1.1-.015-2.191,0-3.287.006-.607-.249-.863-.856-.853-1.067.016-2.135.013-3.2,0-.62-.006-.844.282-.835.876.017,1.039.02,2.079,0,3.118-.013.642.248.892.895.905a6.327,6.327,0,0,1,2.5.174c.193.571-.359.6-.623.788a3.2,3.2,0,0,0-.74,4.661,3.093,3.093,0,0,0,1.357.965c.289.11.6.188.714.53-.119,3.343-.01,6.687-.063,10.029a9.28,9.28,0,0,0,4.6,8.624c.846.523.9.743.557,1.56a1.75,1.75,0,0,1-1.057.2c-.9.008-1.8.035-2.694,0a9.451,9.451,0,0,0-4.358.675,2.905,2.905,0,0,1-1.474-.837,3.638,3.638,0,0,1-.116-1.335c0-4.944.01-9.889-.007-14.833a10.473,10.473,0,0,0-4.368-8.7c-.374-.285-.828-.5-.98-1.006a3.53,3.53,0,0,1-.08-.922q-.006-10.711,0-21.422c0-.169.015-.337.024-.505-.044-1.5-.015-3-.015-4.5A1.381,1.381,0,0,1,199.139-1019.245Z" transform="translate(-68.594)" fill="#60d0df"/>
      <path id="Trazado_169335" data-name="Trazado 169335" d="M139.85-880.411a11.144,11.144,0,0,1,5.156,7.1,8.2,8.2,0,0,1,.247,1.747c.014,5.652,0,11.3,0,16.957a.6.6,0,0,1-.54.163c-1.535-.123-3.075,0-4.609-.077-.336-.01-.674-.008-1.011-.033-.319-.024-.633-.078-.723-.454a.843.843,0,0,1,.324-.971c.184-.13.389-.227.578-.348a9.427,9.427,0,0,0,4.466-7.873,5.905,5.905,0,0,0-1.712-4.782c-1.063-1.116-1.947-2.4-2.921-3.6-.525-.646-.7-.668-1.24-.04a21.475,21.475,0,0,1-6.005,4.708,21.8,21.8,0,0,1-2.822,1.208,17.375,17.375,0,0,1-2.912.816.939.939,0,0,0-.913,1.062,9.4,9.4,0,0,0,4.3,8.363c.232.157.474.3.7.467a.876.876,0,0,1,.343.966c-.093.42-.433.468-.779.494-.28.022-.56.012-.842.018-1,.031-2.008.027-3.012.012a7.947,7.947,0,0,0-2.883.391.887.887,0,0,1-.73.029c0-5.921-.023-11.841,0-17.762a10.933,10.933,0,0,1,1.364-4.809,7.29,7.29,0,0,1,2.919-3.375,10,10,0,0,1,4.465-1.854,16.017,16.017,0,0,1,3.323-.138,10.776,10.776,0,0,1,4.543.946A1.95,1.95,0,0,1,139.85-880.411Z" transform="translate(-9.311 -110.402)" fill="#feb431"/>
      <path id="Trazado_169336" data-name="Trazado 169336" d="M135.472-955.872a10.953,10.953,0,0,0-7.232,4.994q-.013-7.264-.025-14.527c0-3.829.012-7.658-.014-11.487,0-.593.161-.8.756-.753.644.048,1.294.007,1.942,0a1.634,1.634,0,0,1,1.123-.266q5.648-.008,11.295,0a1.542,1.542,0,0,1,1.118.272q-.005,11.5-.011,23.009a12.372,12.372,0,0,0-5.395-1.41,1.371,1.371,0,0,1-.255-1.035c-.012-1.04.008-2.081-.009-3.12-.014-.867-.1-.951-.988-.961-.984-.012-1.969.017-2.952-.009-.674-.018-.976.229-.953.932.033,1.011.025,2.025,0,3.036-.014.611.168.96.85.948C135-956.249,135.37-956.288,135.472-955.872Z" transform="translate(-13.884 -36.188)" fill="#5bcbd8"/>
      <path id="Trazado_169337" data-name="Trazado 169337" d="M389.555-977.649c.731,0,1.462.017,2.192,0,.357-.007.53.118.493.487-.008.084,0,.169,0,.253q0,16.021,0,32.043c0,.112-.017.223-.026.336a13.021,13.021,0,0,1-1.5-1.786c-.122-1.317-.033-2.636-.055-3.953a5.178,5.178,0,0,0-3.188-5.091c-.322-.143-.711-.213-.885-.591-.04-1.348.005-2.7-.01-4.043-.013-1.128-.045-1.163-1.2-1.168-.927,0-1.855.018-2.781-.007-.645-.018-.918.24-.906.89.019,1.067.013,2.135,0,3.2a1.6,1.6,0,0,1-.247,1.126,3.858,3.858,0,0,1-2.769-.045,2.015,2.015,0,0,1-.217-1.223q-.008-9.572,0-19.144c0-1.394.161-1.551,1.55-1.555q4.133-.011,8.265,0A1.884,1.884,0,0,1,389.555-977.649Z" transform="translate(-207.617 -36.178)" fill="#5bcbd8"/>
      <path id="Trazado_169338" data-name="Trazado 169338" d="M219.533-760.44a6.367,6.367,0,0,1,3.555-.833c1.575.052,3.152.014,4.729.015l.132.034a18.411,18.411,0,0,1,2.647,3.888c.37.684,0,1.5-.079,2.244q-.491,4.572-1.015,9.141a1.475,1.475,0,0,0,.492,1.346q1.029,1,2.043,2.017a.21.21,0,0,1-.005.254l-8.286-.016a1.8,1.8,0,0,1-.259-1.292c-.008-3.124,0-6.248-.006-9.372,0-1.128-.661-1.555-1.754-1.17-.477.168-.4.571-.4.916-.019,1.66-.007,3.321-.008,4.982,0,1.6.005,3.209,0,4.813a1.543,1.543,0,0,1-.259,1.122h-4.072a1.7,1.7,0,0,1-.248-1.185c-.029-.909.047-1.819-.049-2.727.112-3.116-.012-6.233.065-9.348,0-.1,0-.194,0-.29a6.12,6.12,0,0,1,1.378-3.616C218.495-759.961,218.86-760.445,219.533-760.44Z" transform="translate(-82.389 -203.9)" fill="#dfdfdd"/>
      <path id="Trazado_169339" data-name="Trazado 169339" d="M284.646-742.38c0-.041,0-.081,0-.122.224-.783.909-1.193,1.441-1.707a2.148,2.148,0,0,0,.735-2c-.405-3.4-.773-6.8-1.149-10.2a1.546,1.546,0,0,1,.055-.992,22.749,22.749,0,0,1,2.659-3.869l.134-.033c1.513,0,3.03.067,4.538-.02a6.615,6.615,0,0,1,4.74,1.548,3.87,3.87,0,0,1,1.607,2.55,9.025,9.025,0,0,1,.186,2.754c0,1.343.013,2.687,0,4.031.031.9.025,1.791,0,2.687.046,1.471.016,2.943.016,4.414a1.3,1.3,0,0,1-.245.944h-4.081a1.8,1.8,0,0,1-.259-1.292c-.008-3.124,0-6.248-.006-9.372,0-1.128-.661-1.555-1.754-1.17-.477.169-.4.571-.4.916-.019,1.661-.007,3.321-.008,4.982,0,1.6.005,3.209,0,4.813a1.543,1.543,0,0,1-.259,1.122Z" transform="translate(-135.001 -203.854)" fill="#dfdfdd"/>
      <path id="Trazado_169340" data-name="Trazado 169340" d="M402.7-755.983a5.44,5.44,0,0,1,4.044,5.729c0,3.633-.014,7.265.015,10.9.005.614-.124.842-.78.8-1.094-.065-2.194-.034-3.292-.043a1.61,1.61,0,0,1-.255-1.2c-.009-2.7,0-5.4-.006-8.1a1.2,1.2,0,0,0-1.853-1.139c-.328.156-.292.447-.318.719a3.751,3.751,0,0,1-.2,1.654c-.44.351-.965.224-1.46.248-.364.017-.73,0-1.1,0-1.249,0-1.611.507-1.282,1.731.107.4.389.437.705.446.7.022,1.405,0,2.107.014a1.407,1.407,0,0,1,1.035.259,3.1,3.1,0,0,1,.19,1.567q.019,1.43,0,2.861a1.238,1.238,0,0,1-.262.945h-6.765a1.738,1.738,0,0,1-.255-1.286c-.01-2.724-.006-5.449,0-8.173,0-.539-.047-1.024-.709-1.136a.766.766,0,0,1-.237-.148.744.744,0,0,1,.1-.792c1.14-1.931,2.272-3.867,3.466-5.765a1.065,1.065,0,0,1,.356-.355,1.078,1.078,0,0,1,.276-.1c1.8-.106,3.6-.047,5.4-.035A1.486,1.486,0,0,1,402.7-755.983Z" transform="translate(-218.064 -207.669)" fill="#348ed8"/>
      <path id="Trazado_169341" data-name="Trazado 169341" d="M113-760.578c1.586-.843,3.309-.66,5.006-.665.587,0,1.174.012,1.761.018a.291.291,0,0,1,0,.247c-1.022,1.479-2.146,2.882-3.212,4.329-.495.671-.5.672.259.933s1.488.511,2.239.744a1.055,1.055,0,0,1,.883,1.239c-.245,1.453.424,2.216,1.732,2.706a20.9,20.9,0,0,1,2.862,1.429c.2.113.807.222.256.682-.565.114-.746.479-.742,1.026q.018,2.215,0,4.431a1.482,1.482,0,0,1-.25,1.11l-6.755.007c-.387-.466-.241-1.025-.236-1.544a2.176,2.176,0,0,0-.626-1.589,5.922,5.922,0,0,1-1.623-5.278c.117-.638-.109-.807-.689-.794-.844.019-1.689.011-2.533,0a1.358,1.358,0,0,1-1.038-.244c-.005-1.431-.056-2.864,0-4.292A5.489,5.489,0,0,1,113-760.578Z" transform="translate(-0.006 -203.917)" fill="#348ed8"/>
      <path id="Trazado_169342" data-name="Trazado 169342" d="M381.233-995.287c-3.316,0-6.632.023-9.947-.009-.7-.007-.9.189-.9.894.025,6.912.016,13.824.016,20.735a4.215,4.215,0,0,1-2.707.17q0-13.6.008-27.209c4.211.006,8.423.027,12.634,0,.683,0,.922.146.9.869C381.179-998.32,381.226-996.8,381.233-995.287Z" transform="translate(-199.296 -18.54)" fill="#5ac5d3"/>
      <path id="Trazado_169343" data-name="Trazado 169343" d="M354.078-749.39l0,.178c-1.283.223-1.293,1.131-1.271,2.169.051,2.472.021,4.945.012,7.417a1.6,1.6,0,0,1-.259,1.2l-8.095.015q0-2.694.008-5.389a1.479,1.479,0,0,1,1.114-.26c1.065-.013,2.13-.021,3.195,0,.87.017.805-.56.814-1.136s-.023-1.068-.814-1.053c-1.065.021-2.13.012-3.195,0a1.479,1.479,0,0,1-1.114-.26c-.009-1.457-.084-2.918-.011-4.371a6.735,6.735,0,0,0-1.561-4.909,40.753,40.753,0,0,1,5.6-.192,1.467,1.467,0,0,1,1.165-.162.881.881,0,0,1,.24.091,2.155,2.155,0,0,1,.62.777C351.722-753.32,352.862-751.332,354.078-749.39Z" transform="translate(-180.104 -207.842)" fill="#348ed8"/>
      <path id="Trazado_169344" data-name="Trazado 169344" d="M363.945-839.619a3.475,3.475,0,0,1,1.323,1.689q0,.678,0,1.355a2.4,2.4,0,0,1-1.428,1.952,6.733,6.733,0,0,1-3.562.237,19.579,19.579,0,0,1-2.479-.422,17.271,17.271,0,0,0-7.748.206,13.042,13.042,0,0,1-3.674.294c-.5-.032-1.026-.037-1.327-.558-1.87-1.448-1.879-3.3-.025-4.752.419-.665,1.1-.6,1.74-.6,3.289-.017,6.579-.008,9.869-.007,1.912,0,3.824-.014,5.736.009C362.958-840.209,363.573-840.217,363.945-839.619Z" transform="translate(-180.675 -142.777)" fill="#459ce5"/>
      <path id="Trazado_169345" data-name="Trazado 169345" d="M186.169-737.223c.008,2.988.019,5.977.019,8.965a3.191,3.191,0,0,1-.133.644.5.5,0,0,1-.135.463,2.83,2.83,0,0,0-.854,2.642.928.928,0,0,1-.23.773l-6.755-.007a1.491,1.491,0,0,1-.25-1.117c-.011-1.457-.017-2.914,0-4.371.008-.586-.173-.976-.779-1.093-.422-.523.14-.6.383-.733,1.163-.62,2.335-1.227,3.534-1.77a1.389,1.389,0,0,0,.948-1.571,4.84,4.84,0,0,1,.016-1.008c.026-.259.087-.541.34-.64A11.888,11.888,0,0,1,186.169-737.223Z" transform="translate(-51.587 -222.523)" fill="#348ed8"/>
      <path id="Trazado_169346" data-name="Trazado 169346" d="M153.685-995.281l-13.536-.006c.006-1.544.047-3.089,0-4.631-.019-.653.2-.786.81-.783,4.239.02,8.479,0,12.718,0Q153.682-997.993,153.685-995.281Z" transform="translate(-23.134 -18.54)" fill="#5ac5d3"/>
      <path id="Trazado_169347" data-name="Trazado 169347" d="M110.3-719.336c1.373,0,2.746.018,4.119,0,.472-.006.618.056.481.6a5.669,5.669,0,0,0,1.728,5.8,1.135,1.135,0,0,1,.418.94c-.027.7,0,1.4,0,2.1-2.049.007-4.1,0-6.147.029-.48.006-.629-.164-.626-.634C110.289-713.441,110.289-716.389,110.3-719.336Z" transform="translate(0 -236.37)" fill="#fdc8a2"/>
      <path id="Trazado_169348" data-name="Trazado 169348" d="M414.384-822.338a3.6,3.6,0,0,0,1.327-1.706q.014,7.006.029,14.012c0,.563.007,1.125.011,1.688a58.4,58.4,0,0,0-6.763-.152c-.331-.784-.272-1,.534-1.46a9.016,9.016,0,0,0,3.818-4.23,8.727,8.727,0,0,0,.813-3.577c.011-1.176,0-2.353,0-3.529A1.635,1.635,0,0,1,414.384-822.338Z" transform="translate(-231.118 -155.308)" fill="#5bcbd8"/>
      <path id="Trazado_169349" data-name="Trazado 169349" d="M235.964-719.175c0-3.772.012-7.544-.021-11.316-.006-.675.2-.861.86-.853,1.858.023,1.859,0,1.858,1.866q0,5.151-.006,10.3Z" transform="translate(-97.296 -227.075)" fill="#cececc"/>
      <path id="Trazado_169350" data-name="Trazado 169350" d="M319.77-719.175c0-3.772.012-7.544-.021-11.316-.006-.675.2-.861.86-.853,1.858.023,1.859,0,1.858,1.866q0,5.151-.006,10.3Z" transform="translate(-162.177 -227.075)" fill="#cececc"/>
      <path id="Trazado_169351" data-name="Trazado 169351" d="M385.666-714.511q0-4.808,0-9.615c0-1.17,0-1.17,1.183-1.168.112,0,.225,0,.337,0,1.182.006,1.183.006,1.183,1.171q0,4.808,0,9.616Z" transform="translate(-213.207 -231.755)" fill="#2b78b7"/>
      <path id="Trazado_169352" data-name="Trazado 169352" d="M426.529-722.781c0-.7.021-1.408,0-2.111-.011-.426.14-.58.582-.607,2.127-.13,2.127-.143,2.126,1.93q0,4.433,0,8.866h-2.7l-.011-5.383A3.247,3.247,0,0,1,426.529-722.781Z" transform="translate(-244.618 -231.563)" fill="#2b78b7"/>
      <path id="Trazado_169353" data-name="Trazado 169353" d="M171.679-707.614c1.22.045,1.186-.23,1.184,1.173q0,2.782,0,5.564h-2.7q0-2.782,0-5.564c0-1.4-.035-1.128,1.184-1.173A.228.228,0,0,1,171.679-707.614Z" transform="translate(-46.367 -245.389)" fill="#2b78b7"/>
      <path id="Trazado_169354" data-name="Trazado 169354" d="M211.877-690.792a4.76,4.76,0,0,0,0-.669,3.078,3.078,0,0,1,1.217-3.208,20.774,20.774,0,0,1,.129,3.886Z" transform="translate(-78.629 -255.467)" fill="#fdc8a2"/>
      <path id="Trazado_169355" data-name="Trazado 169355" d="M260.868-845.266c-.038,2.212.272,4.443-.3,6.626a9.058,9.058,0,0,1-4.3,5.7c-.583.342-.9.689-.79,1.362l0-.009a1.976,1.976,0,0,1-1.2.28h-5.7a1.978,1.978,0,0,1-1.2-.28l0,.009c.114-.673-.211-1.026-.781-1.373a9.176,9.176,0,0,1-4.627-8.193c-.034-3.068,0-6.137-.014-9.205a9.089,9.089,0,0,1,.2-1.5,1.275,1.275,0,0,1,1.032-.249c4.22-.007,8.439,0,12.659-.011a1.727,1.727,0,0,1,1.663.912c.966,1.651,1.959,3.286,2.95,4.922C260.654-845.96,260.7-845.591,260.868-845.266Z" transform="translate(-101.953 -133.577)" fill="#fdc8a2"/>
      <path id="Trazado_169356" data-name="Trazado 169356" d="M368.629-818.27c-.075,2.266.286,4.555-.312,6.795a8.948,8.948,0,0,1-4.378,5.727,1.135,1.135,0,0,0-.706,1.32l-.038-.02a1.725,1.725,0,0,1-1.2.284q-2.822.005-5.643,0a1.794,1.794,0,0,1-1.2-.284l-.04.018c-.145-.8-.9-1.123-1.349-1.68a9.98,9.98,0,0,1-4.047-8.873c.051-1.093.02-2.19.027-3.286a9.841,9.841,0,0,0,5.566-.087,17.429,17.429,0,0,1,7.758.006A9.867,9.867,0,0,0,368.629-818.27Z" transform="translate(-185.363 -159.376)" fill="#fdc8a2"/>
      <path id="Trazado_169357" data-name="Trazado 169357" d="M368.654-872.045a3.741,3.741,0,0,0-1.71-.344q-7.75.018-15.5,0a3.65,3.65,0,0,0-1.709.344c0-1.517-.023-3.035,0-4.552.036-2.364,1.508-4.2,4.047-5.089a11.794,11.794,0,0,1,2.707-.17h2.7a1.252,1.252,0,0,1,.863-.248c1.113-.011,2.226-.02,3.339.006a1.192,1.192,0,0,1,1.047.407,5.394,5.394,0,0,1,4.211,5.1C368.671-875.074,368.654-873.559,368.654-872.045Z" transform="translate(-185.384 -110.351)" fill="#348ed8"/>
      <path id="Trazado_169358" data-name="Trazado 169358" d="M251.578-868.508c-1.271-1.821-2.344-3.765-3.461-5.678a1.636,1.636,0,0,0-1.656-.936c-4.531.046-9.063.025-13.594.027-2.328-.768-3.366-2.46-2.719-4.441a3.466,3.466,0,0,1,2.185-2.19,1.372,1.372,0,0,1,1.7-.161h5.4a1.091,1.091,0,0,1,.7-.229q2-.038,4.008,0a1.089,1.089,0,0,1,.7.229,21.479,21.479,0,0,1,2.517.161,5.342,5.342,0,0,1,4.221,5.039C251.63-873.961,251.583-871.234,251.578-868.508Z" transform="translate(-92.662 -110.335)" fill="#f88400"/>
      <path id="Trazado_169359" data-name="Trazado 169359" d="M229.395-899.52l-1.7.161a10.016,10.016,0,0,0-2.912-.115c-.626,0-.834-.18-.813-.814.044-1.289.042-2.582,0-3.872-.02-.613.216-.764.784-.75q1.935.05,3.873,0c.579-.016.789.159.775.759C229.37-902.608,229.394-901.063,229.395-899.52Z" transform="translate(-88.028 -92.703)" fill="#57becb"/>
      <path id="Trazado_169360" data-name="Trazado 169360" d="M224-998.036c0-.646.022-1.293-.007-1.937-.022-.494.128-.708.662-.7,1.375.029,2.752.023,4.128,0,.478-.007.639.172.632.641-.02,1.375-.027,2.752,0,4.127.012.543-.224.661-.706.653-1.348-.021-2.7-.026-4.043,0-.519.01-.7-.176-.675-.685C224.028-996.631,224-997.334,224-998.036Z" transform="translate(-88.046 -18.567)" fill="#57becb"/>
      <path id="Trazado_169361" data-name="Trazado 169361" d="M274.778-1000.951c.716.1,1.817-.381,2.367.2.5.53.122,1.608.15,2.444.024.7-.021,1.405.013,2.105.026.527-.189.678-.69.669q-2.021-.037-4.044,0c-.5.009-.7-.142-.691-.669.028-1.375.024-2.752,0-4.127-.008-.484.183-.642.647-.625C273.234-1000.932,273.936-1000.951,274.778-1000.951Z" transform="translate(-125.12 -18.277)" fill="#57becb"/>
      <path id="Trazado_169362" data-name="Trazado 169362" d="M319.491-998.473c.095-.716-.38-1.817.194-2.368.528-.507,1.608-.123,2.443-.151.7-.024,1.405.021,2.106-.013.525-.025.681.184.672.687q-.037,2.021,0,4.044c.009.5-.137.7-.666.693-1.375-.028-2.752-.024-4.128,0-.482.008-.644-.179-.627-.645C319.51-996.929,319.491-997.632,319.491-998.473Z" transform="translate(-161.904 -18.231)" fill="#57becb"/>
      <path id="Trazado_169363" data-name="Trazado 169363" d="M226.72-947.347c-.7,0-1.4-.015-2.106.005-.425.012-.607-.137-.6-.582.017-1.432.014-2.864,0-4.3,0-.4.174-.539.559-.536q2.148.016,4.3,0c.387,0,.56.137.557.538-.011,1.432-.015,2.864,0,4.3.005.448-.182.591-.6.58C228.125-947.361,227.422-947.347,226.72-947.347Z" transform="translate(-88.06 -55.661)" fill="#57becb"/>
      <path id="Trazado_169364" data-name="Trazado 169364" d="M325.2-902.184c0,.674-.022,1.349.008,2.021.022.5-.131.707-.663.7-1.375-.029-2.752-.024-4.128,0-.48.008-.636-.176-.63-.642q.031-2.064,0-4.128c-.006-.459.134-.658.622-.65,1.4.022,2.808.019,4.213,0,.443-.005.6.17.584.6C325.182-903.589,325.2-902.886,325.2-902.184Z" transform="translate(-162.204 -92.718)" fill="#57becb"/>
      <path id="Trazado_169365" data-name="Trazado 169365" d="M277.3-899.519h-5.411c0-1.545.016-3.089-.007-4.634-.008-.513.1-.772.69-.756q2.021.054,4.043,0c.592-.016.7.243.69.756C277.289-902.609,277.3-901.064,277.3-899.519Z" transform="translate(-125.124 -92.703)" fill="#57becb"/>
      <path id="Trazado_169366" data-name="Trazado 169366" d="M325.2-950.08c0,.674-.02,1.349.007,2.021.019.483-.109.718-.652.706-1.375-.029-2.752-.023-4.128,0-.469.007-.648-.154-.64-.632.021-1.376.019-2.752,0-4.128-.006-.447.109-.67.61-.662,1.4.023,2.808.018,4.212,0,.43,0,.61.147.6.588C325.18-951.484,325.2-950.782,325.2-950.08Z" transform="translate(-162.204 -55.646)" fill="#57becb"/>
      <path id="Trazado_169367" data-name="Trazado 169367" d="M277.308-950.059c0,.7-.016,1.4.005,2.106.014.439-.163.594-.595.589-1.4-.016-2.808-.021-4.212,0-.5.008-.617-.211-.611-.66.018-1.376.02-2.752,0-4.127-.007-.477.169-.64.639-.633,1.376.021,2.753.027,4.128,0,.542-.012.674.22.654.7C277.288-951.408,277.308-950.733,277.308-950.059Z" transform="translate(-125.129 -55.638)" fill="#57becb"/>
      <path id="Trazado_169368" data-name="Trazado 169368" d="M206.5-760.435a5.541,5.541,0,0,0-2.561,4.409c-.353.081-.5-.193-.66-.408-1.136-1.523-2.311-3.017-3.408-4.57a.294.294,0,0,1,.01-.233,36.84,36.84,0,0,1,5.414.13C205.713-760.914,206.239-760.913,206.5-760.435Z" transform="translate(-69.354 -203.905)" fill="#348fd8"/>
      <path id="Trazado_169369" data-name="Trazado 169369" d="M367.685-762.634c.647.4,1.617.544,1.349,1.68l-1.347-.019Q367.686-761.8,367.685-762.634Z" transform="translate(-199.289 -202.85)" fill="#5bc5d3"/>
      <path id="Trazado_169370" data-name="Trazado 169370" d="M149.054-825.141a.83.83,0,0,0-.022.137,9.289,9.289,0,0,1-1,2.626c-.479,1.158-1,2.3-1.541,3.429-.145.3-.275.616-.64.725a26.176,26.176,0,0,1-4.333.008.839.839,0,0,1-.541-.488c-.922-1.944-1.791-3.912-2.638-5.89a.656.656,0,0,1-.024-.412.812.812,0,0,0-.022-.136,3.091,3.091,0,0,0,.5-.024c.288-.06.716.21.814-.328.076-.421-.107-.648-.48-.859a9.584,9.584,0,0,1-3.794-3.845,10.9,10.9,0,0,1-1.129-5.627c.011-.424.251-.537.564-.586a30.576,30.576,0,0,0,3.5-.9.361.361,0,0,1,.107.127,1.4,1.4,0,0,0,1.905.945c.4-.1.42-.391.44-.706a2.75,2.75,0,0,1,.241-1.549,21.217,21.217,0,0,0,6.155-4.9c.454-.544.746-.586,1.206.01,1.475,1.909,3,3.782,4.5,5.666a1.011,1.011,0,0,1,.312.579c.207,4.068-.189,8.105-4.987,10.831a.713.713,0,0,0-.416.814c.071.494.46.289.73.329A5.278,5.278,0,0,0,149.054-825.141Z" transform="translate(-18.529 -140.001)" fill="#fdc8a2"/>
      <path id="Trazado_169371" data-name="Trazado 169371" d="M154.007-899.37c-.156-.16-.359-.129-.553-.135-1.3-.042-1.3-.043-1.3-1.3,0-1.094.029-2.189-.011-3.282-.022-.6.126-.858.787-.834,1.289.048,2.581.039,3.871,0,.582-.016.786.165.773.761-.035,1.542-.011,3.086-.011,4.629A31,31,0,0,0,154.007-899.37Z" transform="translate(-32.42 -92.69)" fill="#57becb"/>
      <path id="Trazado_169372" data-name="Trazado 169372" d="M154.859-820.245c.006.224.016.448.017.671.008,1.863.007,1.829-1.893,1.866-.688.013-.9-.213-.814-.852a3.262,3.262,0,0,0,0-.5Z" transform="translate(-32.425 -158.249)" fill="#92563a"/>
      <path id="Trazado_169373" data-name="Trazado 169373" d="M154.358-947.366c-.716-.1-1.816.38-2.367-.2-.507-.529-.123-1.607-.151-2.443-.024-.7.021-1.4-.013-2.1-.026-.525.186-.681.688-.672q2.021.038,4.043,0c.5-.009.7.138.693.667-.028,1.375-.023,2.752,0,4.127.007.482-.18.644-.645.627C155.9-947.384,155.2-947.366,154.358-947.366Z" transform="translate(-32.097 -55.642)" fill="#57becb"/>
      <path id="Trazado_169374" data-name="Trazado 169374" d="M396.867-899.331a40.742,40.742,0,0,0-5.248-.164c0-1.57.016-3.141-.005-4.71-.007-.494.133-.705.664-.694,1.373.028,2.748.008,4.121.011.275,0,.621-.043.616.373a46.454,46.454,0,0,1-.081,5.031A.6.6,0,0,1,396.867-899.331Z" transform="translate(-217.813 -92.711)" fill="#57becb"/>
      <path id="Trazado_169375" data-name="Trazado 169375" d="M394.5-953.066c.716.1,1.817-.381,2.367.2.506.529.122,1.608.151,2.443.024.7-.021,1.4.013,2.105.026.526-.187.68-.689.67q-2.021-.037-4.043,0c-.5.009-.7-.14-.692-.668.028-1.375.024-2.752,0-4.127-.007-.483.182-.643.646-.626C392.956-953.047,393.658-953.066,394.5-953.066Z" transform="translate(-217.808 -55.348)" fill="#57becb"/>
      <path id="Trazado_169376" data-name="Trazado 169376" d="M146.8-753.925l3-6.587a25.826,25.826,0,0,1,2.562,3.188,13.141,13.141,0,0,0,1.519,1.885c0,.062,0,.123,0,.185-1.108.382-2.208.791-3.328,1.132-.511.155-.805.39-.7.938.3,1.548-.368,2.384-1.819,2.925a17.018,17.018,0,0,0-3.424,1.749h-.335c-1.428-.892-2.979-1.547-4.478-2.3a1.168,1.168,0,0,1-.777-1.212c.03-1.928,0-1.915-1.843-2.549-.7-.241-1.749-.222-1.966-.841-.135-.382.756-1.124,1.186-1.706q1.093-1.482,2.183-2.966a1.076,1.076,0,0,1,.5-.428l3,6.588a1.713,1.713,0,0,1,.57.8c.579,1.258,1.076,2.555,1.785,3.939.71-1.384,1.207-2.682,1.786-3.939A1.721,1.721,0,0,1,146.8-753.925Z" transform="translate(-19.305 -204.492)" fill="#459ce5"/>
      <path id="Trazado_169377" data-name="Trazado 169377" d="M265.962-761.232h8.1a22.275,22.275,0,0,1-1.649,2.438,4.3,4.3,0,0,0-.857,3.74c.432,3.193.753,6.4,1.135,9.6a.981.981,0,0,1-.377.875c-.717.712-1.422,1.437-2.131,2.156a8.331,8.331,0,0,1-2.75-2.638c-.312-.431.023-1.349.1-2.042q.539-4.812,1.1-9.621a1.311,1.311,0,0,0-.3-.93C267.543-758.841,266.755-760.038,265.962-761.232Z" transform="translate(-120.536 -203.936)" fill="#348ed8"/>
      <path id="Trazado_169378" data-name="Trazado 169378" d="M349.867-713.365c1.544,0,3.088.027,4.632-.008.6-.014.759.2.761.774.008,1.941.028,1.941-1.94,1.941l-3.453,0Z" transform="translate(-185.494 -240.987)" fill="#459ce5"/>
      <path id="Trazado_169379" data-name="Trazado 169379" d="M373.835-755.278h8.046q-1.714,2.889-3.426,5.78c-.156.264-.289.541-.432.813-.308.071-.378-.189-.486-.369Q375.681-752.164,373.835-755.278Z" transform="translate(-204.05 -208.545)" fill="#dfdfdd"/>
      <path id="Trazado_169380" data-name="Trazado 169380" d="M413.567-713.313v2.695c-1.126,0-2.253-.017-3.378.013-.52.014-.668-.177-.681-.684-.052-2.028-.069-2.028,1.947-2.027Q412.511-713.317,413.567-713.313Z" transform="translate(-231.656 -241.031)" fill="#459ce5"/>
      <path id="Trazado_169381" data-name="Trazado 169381" d="M267.455-803.154a1.245,1.245,0,0,1,1.505.807,1.233,1.233,0,0,0,2.15-.083c.32-.827.858-.726,1.463-.726,1.67,0,1.813.224,1.111,1.732a4.274,4.274,0,0,1-4.232,2.313,4.413,4.413,0,0,1-3.476-3.369c-.077-.444.028-.719.552-.678C266.78-803.137,267.034-803.154,267.455-803.154Z" transform="translate(-120.53 -171.468)" fill="#fdb684"/>
      <path id="Trazado_169382" data-name="Trazado 169382" d="M298.574-825.753c0,1.412,0,1.412-1.418,1.412-1.286,0-1.286,0-1.286-1.291,0-1.412,0-1.412,1.418-1.412C298.574-827.044,298.574-827.044,298.574-825.753Z" transform="translate(-143.691 -152.985)" fill="#91563a"/>
      <path id="Trazado_169383" data-name="Trazado 169383" d="M261.225-824.341c-1.271,0-1.271,0-1.271-1.559,0-1.145,0-1.145,1.6-1.144,1.1,0,1.1,0,1.1,1.644C262.657-824.341,262.657-824.341,261.225-824.341Z" transform="translate(-115.885 -152.985)" fill="#91563a"/>
      <path id="Trazado_169384" data-name="Trazado 169384" d="M375.218-791.194a1.253,1.253,0,0,1,1.51.816,1.249,1.249,0,0,0,2.2-.175.957.957,0,0,1,1.168-.643c.084.007.169,0,.253,0,1.651,0,1.891.4,1,1.882a3.945,3.945,0,0,1-4.144,2.147,4.266,4.266,0,0,1-3.443-3.286c-.1-.466-.048-.788.543-.745C374.552-791.179,374.807-791.194,375.218-791.194Z" transform="translate(-203.957 -180.725)" fill="#fdb684"/>
      <path id="Trazado_169385" data-name="Trazado 169385" d="M370.407-813.716c0,1.344,0,1.344-1.572,1.344-1.133,0-1.133,0-1.132-1.615,0-1.09,0-1.1,1.654-1.085C370.6-815.06,370.384-815.278,370.407-813.716Z" transform="translate(-199.303 -162.251)" fill="#91563a"/>
      <path id="Trazado_169386" data-name="Trazado 169386" d="M404.992-815.077c1.331,0,1.331,0,1.331,1.581,0,1.123,0,1.123-1.624,1.122-1.081,0-1.092,0-1.076-1.667C403.635-815.265,403.419-815.054,404.992-815.077Z" transform="translate(-227.108 -162.249)" fill="#91563a"/>
      <path id="Trazado_169387" data-name="Trazado 169387" d="M159.832-797.24a1.3,1.3,0,0,1,1.546.83,1.194,1.194,0,0,0,2.118-.186.956.956,0,0,1,1.165-.646c.112.009.225,0,.337,0,1.562,0,1.728.279,1.034,1.737a4.22,4.22,0,0,1-4.214,2.311,4.334,4.334,0,0,1-3.487-3.447c-.087-.472.079-.621.516-.6C159.128-797.231,159.409-797.24,159.832-797.24Z" transform="translate(-37.194 -176.03)" fill="#fdb684"/>
      <path id="Trazado_169388" data-name="Trazado 169388" d="M170.427-731.341l-2.315,5.25c-.967-1.832-1.64-3.56-2.4-5.249Z" transform="translate(-42.928 -227.077)" fill="#5bcbd8"/>
      <path id="Trazado_169389" data-name="Trazado 169389" d="M190.875-819.629c0,1.271,0,1.271-1.558,1.271-1.146,0-1.146,0-1.145-1.6,0-1.1,0-1.115,1.645-1.1C191.069-821.045,190.851-821.275,190.875-819.629Z" transform="translate(-60.312 -157.616)" fill="#92563a"/>
    </g>
  </g>
</svg>
