<svg xmlns="http://www.w3.org/2000/svg" xmlns:xlink="http://www.w3.org/1999/xlink" width="102" height="102" viewBox="0 0 102 102">
  <defs>
    <filter id="Rect치ngulo_41487" x="0" y="0" width="102" height="102" filterUnits="userSpaceOnUse">
      <feOffset dy="3" input="SourceAlpha"/>
      <feGaussianBlur stdDeviation="3" result="blur"/>
      <feFlood flood-opacity="0.161"/>
      <feComposite operator="in" in2="blur"/>
      <feComposite in="SourceGraphic"/>
    </filter>
  </defs>
  <g id="Grupo_120672" data-name="Grupo 120672" transform="translate(-1260.334 -306.001)">
    <g transform="matrix(1, 0, 0, 1, 1260.33, 306)" filter="url(#Rect치ngulo_41487)">
      <rect id="Rect치ngulo_41487-2" data-name="Rect치ngulo 41487" width="84" height="84" rx="23" transform="translate(9 6)" fill="#fff"/>
    </g>
    <g id="Grupo_118689" data-name="Grupo 118689" transform="translate(1034.562 771.273)">
      <path id="Trazado_167074" data-name="Trazado 167074" d="M352.126-389.62v2.234c-.337.286-.745.183-1.128.2-.3.014-.6,0-.9,0-1.031,0-1.313.394-1.055,1.419.083.329.309.366.571.374.553.017,1.107,0,1.66.01a1.16,1.16,0,0,1,.851.2v2.234c-.337.286-.745.183-1.128.2-.3.014-.6,0-.9,0-1.031,0-1.313.394-1.055,1.419.083.329.309.367.571.374.553.017,1.107,0,1.66.01a1.16,1.16,0,0,1,.851.2v2.234c-.337.286-.745.184-1.128.2-.3.014-.6,0-.9,0-1.031,0-1.313.394-1.055,1.419.083.329.309.367.571.374.553.017,1.107,0,1.66.01a1.159,1.159,0,0,1,.851.2v2.234c-.337.286-.745.183-1.128.2-.3.014-.6,0-.9,0-1.031,0-1.313.394-1.055,1.419.083.329.309.366.571.375.553.017,1.107,0,1.66.01a1.159,1.159,0,0,1,.851.2q.023.559.045,1.117a2.682,2.682,0,0,1-.028,2.205c-4.277.005-8.553,0-12.83.029-.576,0-.5-.313-.5-.658q0-10.23,0-20.459c.241-.246.556-.189.849-.193.807-.011,1.615.011,2.422-.008a3.192,3.192,0,0,0,3.192-3.166c.013-.461-.005-.923,0-1.384.008-.444-.2-.617-.633-.613-.646.007-1.292,0-1.938,0a.663.663,0,0,1-.755-.765c0-.115,0-.231-.007-.346-.015-.365.053-.788-.363-.971-.464-.205-.712.2-.988.456-.4.378-.771.8-1.187,1.161-.185.163-.37.455-.691.2a7.8,7.8,0,0,1-.115-2.18c-.029-1.908-.015-3.815-.013-5.722a1.414,1.414,0,0,1,.195-.991c.008-4.157.031-8.314.009-12.471,0-.639.169-.794.8-.79q5.924.044,11.848,0c.585,0,.724.162.715.73-.04,2.355-.028,4.711-.036,7.066-.337.286-.745.183-1.128.2-.3.014-.6,0-.9,0-1.031,0-1.313.394-1.055,1.419.083.329.309.366.571.375.553.017,1.107,0,1.66.01a1.159,1.159,0,0,1,.851.2v2.234c-.337.286-.745.183-1.128.2-.3.014-.6,0-.9,0-1.031,0-1.313.394-1.055,1.419.083.329.309.367.571.374.553.017,1.107,0,1.66.01a1.159,1.159,0,0,1,.851.2v2.234c-.337.286-.745.183-1.128.2-.3.014-.6,0-.9,0-1.031,0-1.313.394-1.055,1.419.083.329.309.366.571.374.553.017,1.107,0,1.66.01a1.16,1.16,0,0,1,.851.2v2.234c-.337.286-.745.183-1.128.2-.3.014-.6,0-.9,0-1.031,0-1.313.394-1.055,1.419.083.329.309.367.571.375.553.017,1.107,0,1.66.01a1.159,1.159,0,0,1,.851.2v2.234c-.337.286-.745.184-1.128.2-.3.014-.6,0-.9,0-1.031,0-1.313.394-1.055,1.419.083.329.309.367.571.375.553.017,1.107,0,1.66.01A1.159,1.159,0,0,1,352.126-389.62Z" transform="translate(-77.059 -24.328)" fill="#fec331"/>
      <path id="Trazado_167075" data-name="Trazado 167075" d="M441.558-437.47q0-4.711,0-9.422c0-.246.043-.381.337-.38,3.159.008,6.318,0,9.709,0-.7.683-1.236,1.246-1.818,1.754-.385.336-.4.536-.015.913,2.456,2.418,4.883,4.866,7.32,7.3q5.889,5.889,11.785,11.771a1.385,1.385,0,0,1,.468,1.081c-.021,3.445-.011,6.89-.011,10.452-.246-.228-.427-.386-.6-.556q-12.2-12.194-24.378-24.4c-.491-.493-.745-.477-1.161.024-.454.547-.984,1.032-1.48,1.544Z" transform="translate(-160.914 0)" fill="#02c16a"/>
      <path id="Trazado_167076" data-name="Trazado 167076" d="M435.515-312.224q0-16.278-.017-32.556c0-.656.193-.791.807-.783,2.5.034,5,.028,7.5,0,.5-.005.613.147.61.624-.018,3.494-.007,6.988-.006,10.482a1.335,1.335,0,0,1,.22.923q.005,10.229,0,20.457a1.412,1.412,0,0,1-.178.868,1.462,1.462,0,0,1-.99.206q-3.482.009-6.963,0A1.27,1.27,0,0,1,435.515-312.224Z" transform="translate(-155.981 -82.834)" fill="#5489fe"/>
      <path id="Trazado_167077" data-name="Trazado 167077" d="M244.078-255.109q-.009-12.613-.017-25.226c0-.092.015-.184.023-.276a1.27,1.27,0,0,1,.979-.216c2.157,0,4.313-.011,6.469,0,.431-.049.685.247.926.517a5.3,5.3,0,0,0,4.145,1.738c.27,0,.562-.048.778.19l0,22.206a12.546,12.546,0,0,1-4.413,1.158c-.033,0-.07-.053-.1-.088a17.263,17.263,0,0,1-.529-3.688q-.752-6.57-1.47-13.145a15.886,15.886,0,0,1-.141-1.931c0-.037,0-.076,0-.115,0-.093.025.031,0-.058a.591.591,0,0,0,0,.065c-.079,2.183-.448,4.328-.686,6.486-.379,3.446-.813,6.886-1.2,10.331a2.493,2.493,0,0,1-.233.935.737.737,0,0,1-.454.288q-1.761.476-3.537.889A.662.662,0,0,1,244.078-255.109Z" transform="translate(-0.07 -135.553)" fill="#718698"/>
      <path id="Trazado_167078" data-name="Trazado 167078" d="M483.495-263.489V-285.7c2.747,0,5.493.023,8.24,0,.51,0,.661.117.656.645-.027,2.746-.01,5.493-.008,8.24a1.338,1.338,0,0,1,.219.923q.005,5.788,0,11.575a1.4,1.4,0,0,1-.179.867,1.368,1.368,0,0,1-.922.2q-3.552.009-7.1,0A1.078,1.078,0,0,1,483.495-263.489Z" transform="translate(-195.071 -131.587)" fill="#4976f1"/>
      <path id="Trazado_167079" data-name="Trazado 167079" d="M251.668-347.991a2.226,2.226,0,0,1-1.018.08c-2.207.008-4.413,0-6.62,0-.006-3.47-.075-6.941,0-10.408a5.433,5.433,0,0,1,5.235-5.136c.462-.016.925,0,1.388,0,.29.281.167.645.2.978.011.114,0,.23,0,.345.024,1.066.633,1.8,1.5,1.794.846,0,1.439-.744,1.457-1.825,0-.092,0-.184,0-.277.013-.352-.088-.727.211-1.018.805,0,1.611-.019,2.416.005a5.585,5.585,0,0,1,3.885,1.845c.468.474.955.93,1.433,1.394q0,3.344,0,6.688c-.162.093-.263-.025-.355-.118-1.254-1.262-2.523-2.51-3.769-3.779a.976.976,0,0,1-.179-.254,1.91,1.91,0,0,1,.071.638q0,2.53,0,5.06a1.551,1.551,0,0,1-.1.68,1.023,1.023,0,0,1-1.393-.017,43.574,43.574,0,0,1-3.744-3.8,2.579,2.579,0,0,0-1.467-2.778.878.878,0,0,0-1.132.19.9.9,0,0,0,.022,1.259,3.547,3.547,0,0,0,2.19,1.543c.137.21-.011.357-.132.483-.863.9-1.74,1.781-2.642,2.638a.367.367,0,0,1-.433.125c-.214-1.307-1.294-1.958-2.139-2.774a.882.882,0,0,0-1.3.051.9.9,0,0,0,.012,1.26,17.472,17.472,0,0,0,1.7,1.72c.538.491,1.077.134,1.614-.021.977.974,1.96,1.942,2.9,2.957C251.593-348.329,251.767-348.216,251.668-347.991Z" transform="translate(-0.016 -68.256)" fill="#5489fe"/>
      <path id="Trazado_167080" data-name="Trazado 167080" d="M531.377-224.491q0-6.662,0-13.324c2.75,0,5.5.025,8.25,0,.527,0,.647.143.644.655-.022,4.229-.015,8.458-.016,12.687a1.168,1.168,0,0,1-.914.224q-3.531.011-7.063,0A1.071,1.071,0,0,1,531.377-224.491Z" transform="translate(-234.068 -170.587)" fill="#4367df"/>
      <path id="Trazado_167081" data-name="Trazado 167081" d="M271.592-311.46c-.907-.923-1.818-1.843-2.72-2.771-.172-.176-.421-.308-.412-.609-.009-.148.052-.232.209-.228l3.23-3.229c.016-.225.089-.376.357-.282,1.065,1.052,2.162,2.074,3.183,3.168a1.826,1.826,0,0,0,1.811.688.82.82,0,0,1,.51-.192c1.154-.031,2.309-.035,3.463,0a.933.933,0,0,1,.51.2c.622-.618,1.248-1.233,1.864-1.856.259-.262.539-.467.916-.307a.877.877,0,0,1,.527.888c.028,1.282.041,1.282,1.321,1.282.531,0,1.062,0,1.592,0,.229,0,.423.032.408.329a11.432,11.432,0,0,1-.139,2.821,3.34,3.34,0,0,1-3.195,2.4c-1.108.01-2.216,0-3.323,0l-4.454.007A6.45,6.45,0,0,1,271.592-311.46Z" transform="translate(-19.94 -104.788)" fill="#fecdb5"/>
      <path id="Trazado_167082" data-name="Trazado 167082" d="M433.836-166.015l8.88.019c.948,0,1.9.011,2.844,0,.344,0,.479.1.5.468.1,1.759.114,1.758-1.637,1.758H412.512c-.3,0-.6-.01-.9-.015q.015-1.1.028-2.205h4.421l8.89-.018Z" transform="translate(-136.527 -229.063)" fill="#a5cefe"/>
      <path id="Trazado_167083" data-name="Trazado 167083" d="M244.008-147.033l4.409-1.068c.242-.1.388.084.544.2,1.2.884,2.384,1.782,3.574,2.677a1.192,1.192,0,0,1,.469.578,1.123,1.123,0,0,1-.125.985c-2.752,0-5.5,0-8.256.018-.463,0-.67-.106-.647-.614C244.018-145.182,244-146.108,244.008-147.033Z" transform="translate(0 -243.629)" fill="#dfecfe"/>
      <path id="Trazado_167084" data-name="Trazado 167084" d="M290.81-143.522q-.005-.553-.01-1.105a2.524,2.524,0,0,1,.022-2.238l4.415-1.093q1.994,1.486,3.989,2.972a1.024,1.024,0,0,1,.478.86c.013.493-.161.627-.639.623C296.314-143.525,293.562-143.519,290.81-143.522Z" transform="translate(-37.931 -243.769)" fill="#c4d9f9"/>
      <path id="Trazado_167085" data-name="Trazado 167085" d="M283.2-382.8c.006.208.03.417.015.623a1.683,1.683,0,0,1-1.689,1.594,1.678,1.678,0,0,1-1.625-1.587c-.035-.576-.018-1.156-.024-1.734q.01-1.742.02-3.484a1.858,1.858,0,0,1,1.993-1.177c.575.045,1.155,0,1.733.012a.916.916,0,0,1,.712.2c0,.646-.025,1.294,0,1.938a2.346,2.346,0,0,1-1.125,2.225c-.434.621-1.1.38-1.768.45a1.477,1.477,0,0,0,1.048.733C282.732-382.957,283-383,283.2-382.8Z" transform="translate(-29.236 -47.807)" fill="#fecdb5"/>
      <path id="Trazado_167086" data-name="Trazado 167086" d="M284.377-402.033c-.778,0-1.559.036-2.334-.014a1.749,1.749,0,0,0-1.731.7.522.522,0,0,1-.373.276c0-.694-.019-1.389,0-2.082a2.2,2.2,0,0,1,2.2-2.213c.555-.016,1.111,0,1.666,0a1.547,1.547,0,0,1,1.544.964,1.527,1.527,0,0,1-.39,1.776C284.769-402.426,284.572-402.231,284.377-402.033Z" transform="translate(-29.283 -34.124)" fill="#c37220"/>
      <path id="Trazado_167087" data-name="Trazado 167087" d="M396.906-373.2c-.923,0-1.846-.014-2.768.013-.432.013-.542-.154-.552-.565-.04-1.665-.053-1.665,1.589-1.664.577,0,1.153,0,1.73.006Z" transform="translate(-121.839 -58.521)" fill="#fea000"/>
      <path id="Trazado_167088" data-name="Trazado 167088" d="M396.906-349.256c-.923,0-1.846-.014-2.768.014-.432.013-.542-.154-.552-.565-.04-1.665-.053-1.665,1.589-1.664.577,0,1.153,0,1.73.006Z" transform="translate(-121.839 -78.023)" fill="#fea000"/>
      <path id="Trazado_167089" data-name="Trazado 167089" d="M396.906-325.312c-.923,0-1.846-.014-2.768.013-.432.013-.542-.154-.552-.565-.04-1.665-.053-1.665,1.589-1.664.577,0,1.153,0,1.73.006Z" transform="translate(-121.839 -97.523)" fill="#fea000"/>
      <path id="Trazado_167090" data-name="Trazado 167090" d="M396.906-301.368c-.923,0-1.846-.014-2.768.014-.432.013-.542-.154-.552-.565-.04-1.665-.053-1.665,1.589-1.664.577,0,1.153,0,1.73.006Z" transform="translate(-121.839 -117.024)" fill="#fea000"/>
      <path id="Trazado_167091" data-name="Trazado 167091" d="M396.906-277.423c-.923,0-1.846-.014-2.768.013-.432.013-.542-.154-.552-.565-.04-1.665-.053-1.665,1.589-1.664.577,0,1.153,0,1.73.006Z" transform="translate(-121.839 -136.525)" fill="#fea000"/>
      <path id="Trazado_167092" data-name="Trazado 167092" d="M396.906-253.479c-.923,0-1.846-.014-2.768.013-.432.013-.542-.154-.552-.565-.04-1.665-.053-1.665,1.589-1.664.577,0,1.153,0,1.73.006Z" transform="translate(-121.839 -156.026)" fill="#fea000"/>
      <path id="Trazado_167093" data-name="Trazado 167093" d="M396.906-229.535c-.923,0-1.846-.014-2.768.014-.432.013-.542-.154-.552-.565-.04-1.665-.053-1.665,1.589-1.665.577,0,1.153,0,1.73.006Z" transform="translate(-121.839 -175.527)" fill="#fea000"/>
      <path id="Trazado_167094" data-name="Trazado 167094" d="M396.906-205.59c-.923,0-1.846-.014-2.768.013-.432.013-.542-.154-.552-.565-.04-1.665-.053-1.665,1.589-1.664.577,0,1.153,0,1.73.006Z" transform="translate(-121.839 -195.028)" fill="#fea000"/>
      <path id="Trazado_167095" data-name="Trazado 167095" d="M396.906-181.646c-.923,0-1.846-.014-2.768.013-.432.013-.542-.154-.552-.565-.04-1.665-.053-1.665,1.589-1.664.577,0,1.153,0,1.73.006Z" transform="translate(-121.839 -214.529)" fill="#fea000"/>
      <path id="Trazado_167096" data-name="Trazado 167096" d="M288.827-363.553a1.926,1.926,0,0,1-1.852-.692c-.1-.128-.252-.24-.162-.42.1-.206.27-.088.421-.051a2.285,2.285,0,0,0,1.607-.225q.012.141.025.282Q288.847-364.106,288.827-363.553Z" transform="translate(-34.867 -67.053)" fill="#febea1"/>
      <path id="Trazado_167097" data-name="Trazado 167097" d="M371.964-398.221a1.088,1.088,0,0,1-1.172,1.08,1.085,1.085,0,0,1-1.046-1.138,1.087,1.087,0,0,1,1.172-1.08A1.085,1.085,0,0,1,371.964-398.221Z" transform="translate(-102.431 -39.021)" fill="#fed772"/>
      <path id="Trazado_167098" data-name="Trazado 167098" d="M252.29-313.919l-.209.228a1.179,1.179,0,0,1-1.867-.051c-.48-.467-.957-.939-1.421-1.423a1.114,1.114,0,0,1-.089-1.706,1.116,1.116,0,0,1,1.656.091c.518.494,1,1.024,1.526,1.513A1.733,1.733,0,0,1,252.29-313.919Z" transform="translate(-3.562 -105.937)" fill="#4976f1"/>
      <path id="Trazado_167099" data-name="Trazado 167099" d="M275.275-332.107l-.357.282c-1.339.106-1.919-.936-2.571-1.785a.942.942,0,0,1,.273-1.345,1.038,1.038,0,0,1,1.391.01,8.508,8.508,0,0,1,1.315,1.314A1.171,1.171,0,0,1,275.275-332.107Z" transform="translate(-22.96 -91.26)" fill="#4976f1"/>
    </g>
  </g>
</svg>
