<svg xmlns="http://www.w3.org/2000/svg" xmlns:xlink="http://www.w3.org/1999/xlink" width="100" height="100" viewBox="0 0 100 100">
  <defs>
    <filter id="Rect치ngulo_41489" x="0" y="0" width="100" height="100" filterUnits="userSpaceOnUse">
      <feOffset dy="3" input="SourceAlpha"/>
      <feGaussianBlur stdDeviation="3" result="blur"/>
      <feFlood flood-opacity="0.161"/>
      <feComposite operator="in" in2="blur"/>
      <feComposite in="SourceGraphic"/>
    </filter>
  </defs>
  <g id="Grupo_120674" data-name="Grupo 120674" transform="translate(-905.334 -218.001)">
    <g transform="matrix(1, 0, 0, 1, 905.33, 218)" filter="url(#Rect치ngulo_41489)">
      <rect id="Rect치ngulo_41489-2" data-name="Rect치ngulo 41489" width="82" height="82" rx="23" transform="translate(9 6)" fill="#fff"/>
    </g>
    <g id="Grupo_118688" data-name="Grupo 118688" transform="translate(1314.245 615.256)">
      <path id="Trazado_167054" data-name="Trazado 167054" d="M-243.929-381.2a8,8,0,0,1,7.957,8.058,8.005,8.005,0,0,1-8.042,7.912,8,8,0,0,1-7.956-8.061A8,8,0,0,1-243.929-381.2Z" transform="translate(-114.94 0)" fill="#3e9844"/>
      <path id="Trazado_167055" data-name="Trazado 167055" d="M-239.961-243.386a.9.9,0,0,1-.613.83,1.188,1.188,0,0,0-.773,1.441,5.688,5.688,0,0,1-.009,1.368,1.059,1.059,0,0,0,.619,1.164c.9.493.976.815.455,1.685-.384.641-.766,1.284-1.165,1.916-.38.6-.836.763-1.416.39a1.409,1.409,0,0,0-1.822.091,5.383,5.383,0,0,1-1.2.648,1.026,1.026,0,0,0-.713,1.044c-.008,1.032-.264,1.263-1.31,1.264-.77,0-1.54.007-2.311,0-.75-.008-1.112-.318-1.08-1.05a1.226,1.226,0,0,0-.922-1.354,5.972,5.972,0,0,1-1.243-.707,1.152,1.152,0,0,0-1.335-.062c-.942.518-1.251.418-1.811-.509-.376-.622-.76-1.239-1.126-1.867s-.289-1.045.33-1.344a1.332,1.332,0,0,0,.84-1.6,4.989,4.989,0,0,1,.015-1.305,1.031,1.031,0,0,0-.592-1.118c-.963-.545-1.016-.812-.433-1.777.366-.6.724-1.213,1.1-1.811.4-.635.84-.789,1.46-.4a1.387,1.387,0,0,0,1.769-.087,5.644,5.644,0,0,1,1.2-.647,1.074,1.074,0,0,0,.739-1.1c0-.984.275-1.231,1.279-1.232.77,0,1.54-.005,2.31,0,.789.006,1.14.311,1.111,1.081a1.175,1.175,0,0,0,.836,1.286,6.847,6.847,0,0,1,1.3.728,1.19,1.19,0,0,0,1.39.064c.894-.5,1.223-.4,1.766.5.379.62.753,1.244,1.129,1.866A1.19,1.19,0,0,1-239.961-243.386Z" transform="translate(-109.954 -109.726)" fill="#596c80"/>
      <path id="Trazado_167056" data-name="Trazado 167056" d="M-98.031-235.493a8,8,0,0,1-8,7.95,8,8,0,0,1-7.995-8.022,8,8,0,0,1,8.066-7.948A8,8,0,0,1-98.031-235.493Z" transform="translate(-229.88 -114.727)" fill="#2970cb"/>
      <path id="Trazado_167057" data-name="Trazado 167057" d="M-235.973-97.8a8,8,0,0,1-8.072,7.945,8,8,0,0,1-7.928-8.027,8,8,0,0,1,8.071-7.943A8,8,0,0,1-235.973-97.8Z" transform="translate(-114.939 -229.453)" fill="#f1a030"/>
      <path id="Trazado_167058" data-name="Trazado 167058" d="M-373.912-235.487a8,8,0,0,1-8.071,7.945,8,8,0,0,1-7.928-8.027,8,8,0,0,1,8.071-7.943A8,8,0,0,1-373.912-235.487Z" transform="translate(0 -114.727)" fill="#d8575d"/>
      <path id="Trazado_167059" data-name="Trazado 167059" d="M-350.44-363.23c1.758,1.314,3.416,2.557,5.079,3.794.238.177.141.289-.038.422-1.646,1.227-3.291,2.457-5.04,3.764,0-.905-.016-1.7.008-2.5.011-.368-.077-.526-.48-.5a23.368,23.368,0,0,0-2.988.111,4.959,4.959,0,0,0-4.03,4.745c-.029,2.181-.021,4.363,0,6.545,0,.452-.1.6-.578.6-1.432-.02-1.432,0-1.432-1.417,0-1.808-.006-3.615,0-5.423a6.993,6.993,0,0,1,7.139-7.147c.645,0,1.291-.015,1.936,0,.323.01.439-.09.431-.422C-350.454-361.463-350.44-362.273-350.44-363.23Z" transform="translate(-24.971 -14.971)" fill="#7a8798"/>
      <path id="Trazado_167060" data-name="Trazado 167060" d="M-120.1-336.809c-1.306,1.739-2.534,3.361-3.744,5-.243.329-.352.2-.535-.044-1.2-1.615-2.418-3.222-3.719-4.951.871,0,1.644-.027,2.414.01.457.022.6-.1.6-.577a6.475,6.475,0,0,0-.606-3.264,4.813,4.813,0,0,0-4.3-2.641c-2.5-.054-5-.027-7.492-.005-.477,0-.639-.1-.629-.61.029-1.4,0-1.4,1.39-1.4,2.144,0,4.288-.006,6.431,0a6.992,6.992,0,0,1,7.192,7.156c.008,1.327.008,1.327,1.323,1.327Z" transform="translate(-209.817 -29.915)" fill="#7a8798"/>
      <path id="Trazado_167061" data-name="Trazado 167061" d="M-377.882-122.875c1.314-1.752,2.557-3.407,3.8-5.066.175-.235.288-.144.424.037,1.229,1.643,2.461,3.284,3.77,5.03-.906,0-1.7.017-2.5-.008-.368-.011-.506.079-.5.479a6.68,6.68,0,0,0,.529,3.22,4.84,4.84,0,0,0,4.4,2.782c2.5.054,4.995.025,7.492,0,.452,0,.607.092.6.576-.021,1.43,0,1.431-1.418,1.431q-3.153,0-6.306,0a7,7,0,0,1-7.289-7.249c0-1.235,0-1.235-1.227-1.235Z" transform="translate(-10.023 -210.91)" fill="#7a8798"/>
      <path id="Trazado_167062" data-name="Trazado 167062" d="M-131.1-112.873c-1.754-1.31-3.4-2.541-5.048-3.767-.193-.144-.243-.258-.02-.424,1.661-1.235,3.318-2.476,5.068-3.783,0,.9.018,1.68-.007,2.46-.013.386.072.565.507.536a23.523,23.523,0,0,0,2.925-.108,4.958,4.958,0,0,0,4.069-4.838c.022-2.16.016-4.321,0-6.481,0-.415.081-.574.539-.571,1.47.008,1.47-.012,1.47,1.441,0,1.787.006,3.573,0,5.36a7,7,0,0,1-7.226,7.186c-.562,0-1.126.029-1.685-.009-.453-.031-.627.088-.6.575C-131.069-114.532-131.1-113.764-131.1-112.873Z" transform="translate(-211.309 -209.438)" fill="#7a8798"/>
      <path id="Trazado_167063" data-name="Trazado 167063" d="M-211.473-342.267a1.507,1.507,0,0,1,1.5,1.508,1.508,1.508,0,0,1-1.526,1.479,1.51,1.51,0,0,1-1.466-1.478A1.508,1.508,0,0,1-211.473-342.267Z" transform="translate(-147.438 -32.439)" fill="#f1f1f1"/>
      <path id="Trazado_167064" data-name="Trazado 167064" d="M-217.47-212.451a3.38,3.38,0,0,1-3.359,3.38,3.381,3.381,0,0,1-3.386-3.353,3.378,3.378,0,0,1,3.359-3.379A3.378,3.378,0,0,1-217.47-212.451Z" transform="translate(-138.068 -137.816)" fill="#fefefe"/>
      <path id="Trazado_167065" data-name="Trazado 167065" d="M-88.535-201.6a1.511,1.511,0,0,1-1.489-1.517,1.512,1.512,0,0,1,1.535-1.47,1.511,1.511,0,0,1,1.457,1.485A1.51,1.51,0,0,1-88.535-201.6Z" transform="translate(-249.883 -147.162)" fill="#f1f1f1"/>
      <path id="Trazado_167066" data-name="Trazado 167066" d="M-60.036-203.1a1.511,1.511,0,0,1,1.523-1.483,1.511,1.511,0,0,1,1.469,1.473,1.51,1.51,0,0,1-1.491,1.514A1.512,1.512,0,0,1-60.036-203.1Z" transform="translate(-274.87 -147.164)" fill="#f1f1f1"/>
      <path id="Trazado_167067" data-name="Trazado 167067" d="M-209.978-83.371a1.512,1.512,0,0,1-1.5,1.5,1.515,1.515,0,0,1-1.487-1.518,1.514,1.514,0,0,1,1.475-1.469A1.513,1.513,0,0,1-209.978-83.371Z" transform="translate(-147.437 -246.926)" fill="#f1f1f1"/>
      <path id="Trazado_167068" data-name="Trazado 167068" d="M-226.475-54.926a1.511,1.511,0,0,1,1.5,1.5,1.513,1.513,0,0,1-1.519,1.486,1.515,1.515,0,0,1-1.473-1.47A1.514,1.514,0,0,1-226.475-54.926Z" transform="translate(-134.943 -271.867)" fill="#f1f1f1"/>
      <path id="Trazado_167069" data-name="Trazado 167069" d="M-194.985-53.44a1.512,1.512,0,0,1-1.5,1.5,1.515,1.515,0,0,1-1.487-1.518,1.514,1.514,0,0,1,1.475-1.469A1.512,1.512,0,0,1-194.985-53.44Z" transform="translate(-159.93 -271.867)" fill="#f1f1f1"/>
      <path id="Trazado_167070" data-name="Trazado 167070" d="M-364.4-216.562a1.513,1.513,0,0,1-1.5-1.5,1.512,1.512,0,0,1,1.521-1.484,1.513,1.513,0,0,1,1.471,1.471A1.512,1.512,0,0,1-364.4-216.562Z" transform="translate(-20.006 -134.694)" fill="#f1f1f1"/>
      <path id="Trazado_167071" data-name="Trazado 167071" d="M-332.923-218.079a1.512,1.512,0,0,1-1.489,1.516,1.513,1.513,0,0,1-1.5-1.5,1.514,1.514,0,0,1,1.459-1.484A1.512,1.512,0,0,1-332.923-218.079Z" transform="translate(-44.993 -134.693)" fill="#f1f1f1"/>
      <path id="Trazado_167072" data-name="Trazado 167072" d="M-364.41-186.632a1.514,1.514,0,0,1-1.492-1.513,1.511,1.511,0,0,1,1.532-1.474,1.515,1.515,0,0,1,1.46,1.482A1.513,1.513,0,0,1-364.41-186.632Z" transform="translate(-20.005 -159.633)" fill="#f1f1f1"/>
      <path id="Trazado_167073" data-name="Trazado 167073" d="M-332.928-188.106a1.513,1.513,0,0,1-1.529,1.476,1.516,1.516,0,0,1-1.463-1.543,1.516,1.516,0,0,1,1.5-1.444A1.511,1.511,0,0,1-332.928-188.106Z" transform="translate(-44.988 -159.635)" fill="#f1f1f1"/>
    </g>
  </g>
</svg>
