<svg xmlns="http://www.w3.org/2000/svg" width="124" height="124" viewBox="0 0 124 124">
  <g id="Grupo_120586" data-name="Grupo 120586" transform="translate(-688.5 -488.408)">
    <g id="Elipse_6816" data-name="Elipse 6816" transform="translate(688.5 488.408)" fill="#fff" stroke="#2631a0" stroke-width="4">
      <circle cx="62" cy="62" r="62" stroke="none"/>
      <circle cx="62" cy="62" r="60" fill="none"/>
    </g>
    <g id="Grupo_120521" data-name="Grupo 120521" transform="translate(-164.937 830.825)">
      <path id="Trazado_169611" data-name="Trazado 169611" d="M1223.4-49.155a2.407,2.407,0,0,1-2.522,1.087c-.488-.042-.981-.035-1.471-.05a1.716,1.716,0,0,1-.245-1.243c-.006-2.686-.021-5.372,0-8.058a7.628,7.628,0,0,0-4.2-7.227c-.251-.139-.522-.259-.632-.56a.676.676,0,0,1,.942-.491c4.045.125,6.832,2.122,7.865,5.6.086.29-.024.647.265.875Z" transform="translate(-260.53 -199.322)" fill="#1fa9ed"/>
      <path id="Trazado_169612" data-name="Trazado 169612" d="M1079.163-48.6c-5.475,0-10.951,0-16.426.026a2,2,0,0,1-1.8-1.234.993.993,0,0,1-.266-.794c0-2.877-.072-5.754.036-8.629a10.278,10.278,0,0,1,1.389-3.674,8.4,8.4,0,0,1,3.948-3.063,7.31,7.31,0,0,1,2.985-.385,5.161,5.161,0,0,1,1.236.364,5.259,5.259,0,0,0,2.886.176,2.329,2.329,0,0,1,1.024-.084,7.986,7.986,0,0,1,5.238,7.736c.012,2.773.005,5.546,0,8.318A1.733,1.733,0,0,1,1079.163-48.6Z" transform="translate(-143.965 -198.841)" fill="#68daf8"/>
      <path id="Trazado_169613" data-name="Trazado 169613" d="M888.259-48.155q-8.229.007-16.457.01a1.552,1.552,0,0,1-1.732-1.466c-.029-3.2-.347-6.427.119-9.594.588-3.992,3.583-6.389,7.644-6.494.115,0,.23-.017.345-.026.445-.207.808.088,1.2.194a5.346,5.346,0,0,0,2.872.163,2.286,2.286,0,0,1,1.019-.082,7.986,7.986,0,0,1,5.235,7.737c.012,2.772.005,5.545,0,8.317A1.732,1.732,0,0,1,888.259-48.155Z" transform="translate(0 -199.283)" fill="#68daf8"/>
      <path id="Trazado_169614" data-name="Trazado 169614" d="M983.358-48.6q-8.236.011-16.473.016a1.487,1.487,0,0,1-1.6-1.169,1.08,1.08,0,0,1-.388-.837c-.01-2.873-.173-5.749.088-8.619a2.567,2.567,0,0,0,.088-.582,7.563,7.563,0,0,1,4.172-5.684c.334-.168.663-.347,1.009-.493a7.3,7.3,0,0,1,2.975-.382,5.16,5.16,0,0,1,1.234.363,5.257,5.257,0,0,0,2.885.176,2.339,2.339,0,0,1,1.024-.084,7.985,7.985,0,0,1,5.239,7.735c.012,2.773.005,5.545,0,8.318A1.719,1.719,0,0,1,983.358-48.6Z" transform="translate(-71.637 -198.841)" fill="#21c0f7"/>
      <path id="Trazado_169615" data-name="Trazado 169615" d="M1169.875-65.764a9.847,9.847,0,0,1,3.741,3.092,7.431,7.431,0,0,1,1.282,4.219c.032,3.284.01,6.569.011,9.853q-8.237.011-16.473.016a1.487,1.487,0,0,1-1.6-1.169,1.082,1.082,0,0,1-.388-.837c-.01-2.873-.173-5.749.088-8.619a2.571,2.571,0,0,0,.088-.582,7.563,7.563,0,0,1,4.172-5.684c.334-.168.663-.347,1.009-.493a7.3,7.3,0,0,1,2.977-.382,5.18,5.18,0,0,1,1.236.364,5.363,5.363,0,0,0,2.877.179C1169.21-65.879,1169.559-66.026,1169.875-65.764Z" transform="translate(-216.028 -198.841)" fill="#21c0f7"/>
      <path id="Trazado_169616" data-name="Trazado 169616" d="M1023.865-266.5a7.861,7.861,0,0,1,4.476-2.153c.733.028,1.465-.306,2.2-.01a6.809,6.809,0,0,0,2.776.45,7.86,7.86,0,0,1,4.571,6.053,26.277,26.277,0,0,0,.137,6c-.118,1.234-.028,2.469-.033,3.7a.428.428,0,0,1-.212.439c-.922.41-1.673,1.1-2.579,1.54a7.821,7.821,0,0,0-4.33-.112,1.283,1.283,0,0,1-.81.112,8.269,8.269,0,0,0-4.976-1.975.628.628,0,0,1-.393-.163c-.061-.445.326-.576.576-.781a5.767,5.767,0,0,0,2.332-4.887c-.026-.664-.037-1.332,0-1.994a5.854,5.854,0,0,0-3.122-5.587C1024.229-266.024,1023.853-266.083,1023.865-266.5Z" transform="translate(-116.324 -45.958)" fill="#fa4a59"/>
      <path id="Trazado_169617" data-name="Trazado 169617" d="M944.006-116.078a7.88,7.88,0,0,0-4.918,5.833c-.212.068-.338-.049-.446-.206a10.36,10.36,0,0,0-1.665-3.187,7.207,7.207,0,0,0-5.148-2.612c-.364-.029-.755.07-1.067-.217-.014-.365.308-.457.522-.628a5.966,5.966,0,0,0,2.584-5.368c-.056-.688-.017-1.385-.007-2.077a5.75,5.75,0,0,0-2.283-4.64c-.3-.255-.707-.414-.832-.846a7.2,7.2,0,0,1,4.75-1.767,1.6,1.6,0,0,1,1.391.06,8.517,8.517,0,0,0,2.829.512,7.787,7.787,0,0,1,4.385,5.579,28.391,28.391,0,0,0,.2,5.734,24.813,24.813,0,0,0-.049,2.669A1.97,1.97,0,0,1,944.006-116.078Z" transform="translate(-45.959 -148.495)" fill="#a2e340"/>
      <path id="Trazado_169618" data-name="Trazado 169618" d="M977.256-197.483a7.351,7.351,0,0,1,5.4-2.061c.482-.268.872.09,1.3.189a10.178,10.178,0,0,0,2.42.34,7.781,7.781,0,0,1,4.6,5.915,23.839,23.839,0,0,0,.133,5.7c-.134,1.271.052,2.549-.091,3.819a1.017,1.017,0,0,1-.651.725c-.589.274-1.118.652-1.694.95a1.633,1.633,0,0,1-.831-.171,5.752,5.752,0,0,0-3.716-.144,4.047,4.047,0,0,1-1.179.286c-.613-.2-1.066-.688-1.66-.919a6.714,6.714,0,0,0-2.839-.671,1.155,1.155,0,0,1-.828-.179c-.108-.426.268-.534.5-.71a5.951,5.951,0,0,0,2.569-5.291c-.032-.6-.026-1.213,0-1.818a5.9,5.9,0,0,0-2.924-5.354C977.543-197.028,977.2-197.091,977.256-197.483Z" transform="translate(-81.102 -98.192)" fill="#fed395"/>
      <path id="Trazado_169619" data-name="Trazado 169619" d="M1038.846-314.365a6.458,6.458,0,0,0-2.25-.218c.3-.287.719-.04,1.119-.247a5.761,5.761,0,0,1-2.9-4.211c-.252-2.585-.612-5.249,1.27-7.505a6.743,6.743,0,0,1,3.129-2.046,6.213,6.213,0,0,1,4.212,6.033c0,.895.051,1.793-.011,2.684a6.207,6.207,0,0,1-3.344,5.316A1.339,1.339,0,0,1,1038.846-314.365Z" transform="translate(-124.581 -0.811)" fill="#fecdbf"/>
      <path id="Trazado_169620" data-name="Trazado 169620" d="M943.262-177.426l-1.346-.244c.189-.3-.067-.374-.245-.519a6.177,6.177,0,0,1-2.556-5.307c.074-1.456-.194-2.928.406-4.354a6.515,6.515,0,0,1,4.293-3.82,12.338,12.338,0,0,1,2.351,1.735,5.9,5.9,0,0,1,1.693,4.131c.006.893.009,1.786,0,2.68a6.307,6.307,0,0,1-3.282,5.528A1.4,1.4,0,0,1,943.262-177.426Z" transform="translate(-52.328 -104.305)" fill="#fecdbf"/>
      <path id="Trazado_169621" data-name="Trazado 169621" d="M895.294-111.469l-1.068-.357a6.007,6.007,0,0,1-3.153-4.312c-.262-2.367-.629-4.839.866-7.019a6.613,6.613,0,0,1,3.691-2.669,12.4,12.4,0,0,1,2.354,1.739,5.892,5.892,0,0,1,1.688,4.14c0,.923.021,1.847,0,2.77a6.314,6.314,0,0,1-3.381,5.479A1.678,1.678,0,0,1,895.294-111.469Z" transform="translate(-16.048 -154.079)" fill="#fecdbf"/>
      <path id="Trazado_169622" data-name="Trazado 169622" d="M991.2-244.74l-1.212-.351c-.544-.588-1.239-1.007-1.754-1.638a5.6,5.6,0,0,1-1.375-3.639,17.415,17.415,0,0,1,.1-3.884,6.162,6.162,0,0,1,4.269-4.7,4.662,4.662,0,0,1,3.071,2.069,6.029,6.029,0,0,1,1.306,3.952c-.036.749-.009,1.5-.006,2.253a6.333,6.333,0,0,1-3.167,5.614A1.841,1.841,0,0,1,991.2-244.74Z" transform="translate(-88.407 -53.447)" fill="#fecdbf"/>
      <path id="Trazado_169623" data-name="Trazado 169623" d="M1082.966-248.615a16.888,16.888,0,0,1-.15-6.273,5.513,5.513,0,0,1,3.812-4.151l.392.021a4.584,4.584,0,0,1,3.012,1.991,6.065,6.065,0,0,1,1.365,4.006c-.038.92.014,1.843-.013,2.764a6.26,6.26,0,0,1-4.306,5.59,2.882,2.882,0,0,1-1.379-.466,6.6,6.6,0,0,1-2.545-2.591A1.123,1.123,0,0,1,1082.966-248.615Z" transform="translate(-160.882 -53.377)" fill="#fecdbf"/>
      <path id="Trazado_169624" data-name="Trazado 169624" d="M1181.993-111.48l-1.057-.357a4.336,4.336,0,0,1-2.49-2.117,7.511,7.511,0,0,1-.736-1.46,15.737,15.737,0,0,1-.214-5.639,6.731,6.731,0,0,1,3.467-4.445c.541.231.874-.385,1.371-.337a12.4,12.4,0,0,1,2.354,1.74,5.892,5.892,0,0,1,1.687,4.141c0,.924.022,1.848,0,2.771a6.316,6.316,0,0,1-3.384,5.479A1.681,1.681,0,0,1,1181.993-111.48Z" transform="translate(-232.127 -154.07)" fill="#fecdbf"/>
      <path id="Trazado_169625" data-name="Trazado 169625" d="M1133.381-191.521c.4.243.685-.21,1.051-.161a12.4,12.4,0,0,1,2.353,1.737,5.891,5.891,0,0,1,1.691,4.135c.006.98.045,1.963-.008,2.941a6.259,6.259,0,0,1-3.6,5.418,1.828,1.828,0,0,1-.92.205,1.972,1.972,0,0,1-.922-.251,6.86,6.86,0,0,1-3.216-3.751,15.494,15.494,0,0,1-.191-5.8A6.787,6.787,0,0,1,1133.381-191.521Z" transform="translate(-196.312 -104.29)" fill="#fecdbf"/>
      <path id="Trazado_169626" data-name="Trazado 169626" d="M1127.939-59.359a17.533,17.533,0,0,0-.14,4.044,35.1,35.1,0,0,0,.139,5.6c-1.05,1.573-2.647,1.188-4.145,1.156,0-3.055-.024-6.11,0-9.165a7.853,7.853,0,0,0-4.69-7.764,2.44,2.44,0,0,1-.344-.245c.151-.417.521-.487.888-.562a7.738,7.738,0,0,1,7.907,5.2,2.469,2.469,0,0,1,.226.914A1.282,1.282,0,0,0,1127.939-59.359Z" transform="translate(-188.227 -198.881)" fill="#24d0f7"/>
      <path id="Trazado_169627" data-name="Trazado 169627" d="M928.133-65.764c4.29.192,7.043,2.313,7.948,6.124.13.207.147.466.307.658a17.536,17.536,0,0,0-.141,4.044,35.117,35.117,0,0,0,.139,5.6c-1.05,1.573-2.647,1.188-4.144,1.156,0-3.055-.024-6.11,0-9.165a7.853,7.853,0,0,0-4.69-7.764,2.423,2.423,0,0,1-.345-.245A.66.66,0,0,1,928.133-65.764Z" transform="translate(-43.983 -199.258)" fill="#24d0f7"/>
      <path id="Trazado_169628" data-name="Trazado 169628" d="M1028.009-48.594c0-3.054-.034-6.108.008-9.162a7.88,7.88,0,0,0-4.693-7.761,2.841,2.841,0,0,1-.35-.242c.146-.426.521-.494.891-.57a7.8,7.8,0,0,1,7.926,5.2,4.272,4.272,0,0,1,.215,1.607l0,9.718a1.954,1.954,0,0,1-2.112,1.256C1029.266-48.586,1028.637-48.579,1028.009-48.594Z" transform="translate(-115.772 -198.847)" fill="#1fa9ed"/>
      <path id="Trazado_169629" data-name="Trazado 169629" d="M1005.783-245.784a6.241,6.241,0,0,0,4.169-6.3,21.445,21.445,0,0,0-.135-3.361,6.645,6.645,0,0,0-4.01-4.553,7.26,7.26,0,0,1,4.173,0,7.887,7.887,0,0,1,3.052,2.609,5.372,5.372,0,0,1,.92,2.928,17.308,17.308,0,0,0,.02,1.734,6.7,6.7,0,0,1-3.151,6.572,2.459,2.459,0,0,1-2.422.711A5.338,5.338,0,0,1,1005.783-245.784Z" transform="translate(-102.782 -52.409)" fill="#fcaf9f"/>
      <path id="Trazado_169630" data-name="Trazado 169630" d="M1148.572-177.93a5.364,5.364,0,0,0,3.843-3.263,5.17,5.17,0,0,0,.531-2.589,31.479,31.479,0,0,0-.064-3.368,6.105,6.105,0,0,0-3.312-4.486c-.194-.111-.666-.061-.447-.539,3.655-.706,6.881,1.07,7.606,4.6.5,2.412.721,4.992-.8,7.276a6.031,6.031,0,0,1-1.627,1.652c-.281.192-.281.307-.009.469a10.189,10.189,0,0,1-2.814.923,5.1,5.1,0,0,1-2.217-.13C1148.964-177.47,1148.636-177.536,1148.572-177.93Z" transform="translate(-210.805 -103.786)" fill="#fcaf9f"/>
      <path id="Trazado_169631" data-name="Trazado 169631" d="M914.963-112.5l-.924.41a5.924,5.924,0,0,1-3.979-.04c2.126-.887,3.74-2.373,4.011-4.679.277-2.358.661-4.845-.871-7.025a6.93,6.93,0,0,0-2.355-2.115c-.194-.107-.667-.059-.449-.537a6.575,6.575,0,0,1,4.464.489,6.314,6.314,0,0,1,3.376,6.151,18.567,18.567,0,0,1-.129,3.189A6.6,6.6,0,0,1,914.963-112.5Z" transform="translate(-30.812 -153.403)" fill="#fcaf9f"/>
      <path id="Trazado_169632" data-name="Trazado 169632" d="M1101.489-245.767a6.243,6.243,0,0,0,4.185-6.294,21.6,21.6,0,0,0-.134-3.364,6.64,6.64,0,0,0-4.011-4.56,6.216,6.216,0,0,1,8.135,5.73,18.077,18.077,0,0,1-.112,3.964,6.849,6.849,0,0,1-3.01,4.148,4.083,4.083,0,0,1-2.526.952,9.649,9.649,0,0,1-1.6-.026C1102.047-245.269,1101.6-245.261,1101.489-245.767Z" transform="translate(-175.193 -52.415)" fill="#fcaf9f"/>
      <path id="Trazado_169633" data-name="Trazado 169633" d="M1052.852-315.176a5.152,5.152,0,0,0,3.874-3.483,10.823,10.823,0,0,0,.007-7.119,5.444,5.444,0,0,0-2.911-3.163c-.227-.112-.5-.18-.6-.462a6.241,6.241,0,0,1,7.986,5.911c.01.548-.028,1.1.011,1.644a6.485,6.485,0,0,1-3.14,6.3,2.215,2.215,0,0,1-2.419.751A4.736,4.736,0,0,1,1052.852-315.176Z" transform="translate(-138.39)" fill="#fcaf9f"/>
      <path id="Trazado_169634" data-name="Trazado 169634" d="M1197.368-112.13c2.131-.882,3.742-2.371,4.015-4.676.279-2.358.662-4.846-.87-7.026a6.925,6.925,0,0,0-2.355-2.115c-.195-.107-.667-.059-.449-.537a6.193,6.193,0,0,1,7.627,4.605c.394,2.443.7,5-.827,7.283a7.733,7.733,0,0,1-2.262,2.1l-.9.415A5.991,5.991,0,0,1,1197.368-112.13Z" transform="translate(-247.502 -153.408)" fill="#fcaf9f"/>
      <path id="Trazado_169635" data-name="Trazado 169635" d="M957.015-178.086a5.348,5.348,0,0,0,3.844-3.26,5.163,5.163,0,0,0,.532-2.589,31.532,31.532,0,0,0-.064-3.368,6.107,6.107,0,0,0-3.312-4.487c-.194-.111-.666-.061-.447-.539a6.937,6.937,0,0,1,4.15.31c.367.421.931.532,1.352.9a6.237,6.237,0,0,1,2.313,5.408,13.891,13.891,0,0,1-.268,3.766,6.89,6.89,0,0,1-3.04,3.616,2.2,2.2,0,0,1-2.1.717A5.288,5.288,0,0,1,957.015-178.086Z" transform="translate(-65.882 -103.64)" fill="#fcaf9f"/>
      <path id="Trazado_169636" data-name="Trazado 169636" d="M1064.964-268.131a6.433,6.433,0,0,0,2.419-.751,8.468,8.468,0,0,1,5.7,2.284c-.084.261-.337.287-.538.386a7,7,0,0,0-3.274,3.764,8.969,8.969,0,0,0-2.585-4.442A15.386,15.386,0,0,1,1064.964-268.131Z" transform="translate(-147.561 -46.016)" fill="#f72f40"/>
      <path id="Trazado_169637" data-name="Trazado 169637" d="M1112.821-198.567a11.616,11.616,0,0,0,2.419-.728,7.963,7.963,0,0,1,5.372,1.93c0,.2-.114.294-.28.382a6.446,6.446,0,0,0-3.21,3.934c-.382.005-.351-.332-.423-.55a7.713,7.713,0,0,0-3.422-4.418C1113.074-198.138,1112.772-198.219,1112.821-198.567Z" transform="translate(-183.778 -98.715)" fill="#fa9827"/>
      <path id="Trazado_169638" data-name="Trazado 169638" d="M1161.289-130.638a13.879,13.879,0,0,1,2.766-.721,7.806,7.806,0,0,1,4.566,1.621c-.007.288-.256.363-.44.483a6.4,6.4,0,0,0-2.757,3.828c-.381-.02-.43-.346-.517-.6a7.427,7.427,0,0,0-3.142-3.982C1161.546-130.149,1161.213-130.254,1161.289-130.638Z" transform="translate(-220.466 -150.171)" fill="#8dc537"/>
      <path id="Trazado_169639" data-name="Trazado 169639" d="M1215.611-176.108c.039.553-.76.855-.782,1.344s.785.787.783,1.445a1.312,1.312,0,0,1-.668,1.227,1.18,1.18,0,0,1-1.456-.1,20.311,20.311,0,0,1-1.775-1.777,1.12,1.12,0,0,1-.025-1.521,19.037,19.037,0,0,1,1.833-1.84,1.149,1.149,0,0,1,1.381-.1A1.347,1.347,0,0,1,1215.611-176.108Z" transform="translate(-258.281 -115.147)" fill="#17998c"/>
      <path id="Trazado_169640" data-name="Trazado 169640" d="M895.591-171.83a1.412,1.412,0,0,1-1.3-.811,1.235,1.235,0,0,1,.291-1.508c.44-.391.473-.636.027-1.075a1.287,1.287,0,0,1-.04-1.925,1.313,1.313,0,0,1,1.93.07q.761.709,1.469,1.475a1.181,1.181,0,0,1,.165,1.588,10.667,10.667,0,0,1-1.951,1.959A1.952,1.952,0,0,1,895.591-171.83Z" transform="translate(-18.599 -115.203)" fill="#17998c"/>
      <path id="Trazado_169641" data-name="Trazado 169641" d="M941.033-242.72a1.167,1.167,0,0,1,.9.367c.513.507,1.039,1,1.526,1.534a1.24,1.24,0,0,1,.041,1.8,17.2,17.2,0,0,1-1.587,1.594,1.319,1.319,0,0,1-1.872-.041,1.286,1.286,0,0,1,.047-1.859c.508-.464.424-.736-.025-1.145a1.23,1.23,0,0,1-.248-1.514A1.23,1.23,0,0,1,941.033-242.72Z" transform="translate(-52.791 -65.836)" fill="#17998c"/>
      <path id="Trazado_169642" data-name="Trazado 169642" d="M1168.634-242.7a1.276,1.276,0,0,1,1.337.688,1.22,1.22,0,0,1-.2,1.518c-.452.433-.549.727-.024,1.214a1.272,1.272,0,0,1-.013,1.857,1.31,1.31,0,0,1-1.807.035,20.23,20.23,0,0,1-1.647-1.655,1.117,1.117,0,0,1-.151-1.442,9.871,9.871,0,0,1,2.066-2.073A1.093,1.093,0,0,1,1168.634-242.7Z" transform="translate(-224.109 -65.855)" fill="#17998c"/>
      <path id="Trazado_169643" data-name="Trazado 169643" d="M989.288-307.94a1.378,1.378,0,0,1-.391.908c-.49.49-.961,1-1.472,1.465a1.315,1.315,0,0,1-1.931.014,1.253,1.253,0,0,1,.048-1.855c.5-.468.4-.718-.024-1.151a1.292,1.292,0,0,1-.007-1.866,1.325,1.325,0,0,1,1.87-.009c.535.482,1.027,1.013,1.536,1.523A1.4,1.4,0,0,1,989.288-307.94Z" transform="translate(-87.2 -14.464)" fill="#17998c"/>
      <path id="Trazado_169644" data-name="Trazado 169644" d="M1123.378-305.195a1.463,1.463,0,0,1-.935-.4c-.51-.51-1.041-1-1.523-1.537a1.25,1.25,0,0,1-.026-1.8,17.465,17.465,0,0,1,1.591-1.589,1.259,1.259,0,0,1,1.8,0,1.256,1.256,0,0,1,.068,1.856c-.523.51-.481.815.03,1.278a1.181,1.181,0,0,1,.183,1.447A1.311,1.311,0,0,1,1123.378-305.195Z" transform="translate(-189.732 -14.404)" fill="#17998c"/>
      <path id="Trazado_169645" data-name="Trazado 169645" d="M1034.771-110.049a8.456,8.456,0,0,0-2.1-4.26,7.505,7.505,0,0,0-6.057-2.363c-.026-.371.305-.458.516-.628a5.944,5.944,0,0,0,2.551-5.306,18.309,18.309,0,0,1,0-1.993,5.7,5.7,0,0,0-2.208-4.682c-.322-.276-.752-.455-.9-.909a6.569,6.569,0,0,1,2.139-1.35c.889-.763,1.964-.612,3.008-.616a4.839,4.839,0,0,1,1.244.359,10.707,10.707,0,0,0,2.569.4,7.791,7.791,0,0,1,4.381,5.578,28.288,28.288,0,0,0,.2,5.729,24.765,24.765,0,0,0-.051,2.662,1.8,1.8,0,0,1-.262,1.149,8.127,8.127,0,0,0-4.294,4.047C1035.206-111.532,1035.015-110.779,1034.771-110.049Z" transform="translate(-118.387 -148.315)" fill="#27d0b2"/>
      <path id="Trazado_169646" data-name="Trazado 169646" d="M1082.969-115.239a16.229,16.229,0,0,1-.2-5.918,2.487,2.487,0,0,1,.549-1.862,6.729,6.729,0,0,1,2.717-2.489,1.885,1.885,0,0,1,1.032-.292,6.288,6.288,0,0,1,4.324,6.05c0,.894.031,1.789-.006,2.682a6.317,6.317,0,0,1-3.458,5.427,1.647,1.647,0,0,1-.917.186l-1.051-.337A4.6,4.6,0,0,1,1082.969-115.239Z" transform="translate(-160.881 -154.092)" fill="#fecdbf"/>
      <path id="Trazado_169647" data-name="Trazado 169647" d="M1101.561-112.938c2.13-.888,3.744-2.379,4.013-4.687.275-2.361.656-4.85-.879-7.034a7.23,7.23,0,0,0-3.149-2.483c.149-.551.646-.512,1.039-.551a6.667,6.667,0,0,1,3.86.662,6.7,6.7,0,0,1,3.362,4.3,19.007,19.007,0,0,1,.133,3.7,5.278,5.278,0,0,1-.5,2.776,5.116,5.116,0,0,1-2.975,2.937l-.924.412A5.923,5.923,0,0,1,1101.561-112.938Z" transform="translate(-175.23 -152.603)" fill="#fcaf9f"/>
      <path id="Trazado_169648" data-name="Trazado 169648" d="M1083.655-80.255a7.393,7.393,0,0,0,2.987,3.446,11.124,11.124,0,0,0-3.125.393A19.887,19.887,0,0,1,1083.655-80.255Z" transform="translate(-161.717 -188.948)" fill="#22b69f"/>
      <path id="Trazado_169649" data-name="Trazado 169649" d="M990.3-124.87c.376-.072.682-.378,1.094-.326,2.121.434,4.13,2.969,4.218,5.369a30.251,30.251,0,0,1-.008,3.468,6.3,6.3,0,0,1-3.525,5.222,1.657,1.657,0,0,1-.842.145l-1.057-.357a4.533,4.533,0,0,1-2.974-3.421,16.157,16.157,0,0,1-.2-5.926,2.559,2.559,0,0,1,.7-2.055A4.293,4.293,0,0,1,990.3-124.87Z" transform="translate(-88.435 -154.557)" fill="#fecdbf"/>
      <path id="Trazado_169650" data-name="Trazado 169650" d="M1005.817-112.182c2.126-.881,3.737-2.364,4.012-4.667.285-2.385.652-4.891-.894-7.1a8.985,8.985,0,0,0-2.961-2.44,5.214,5.214,0,0,1,4.017.106c.219.07.429.165.643.248a6.319,6.319,0,0,1,3.378,6,17.511,17.511,0,0,1-.142,3.285,6.627,6.627,0,0,1-3.195,4.23l-.877.381A5.991,5.991,0,0,1,1005.817-112.182Z" transform="translate(-102.808 -153.357)" fill="#fcaf9f"/>
      <path id="Trazado_169651" data-name="Trazado 169651" d="M987.878-80.241a7.236,7.236,0,0,0,2.974,3.421,10.568,10.568,0,0,0-3.1.438A18.1,18.1,0,0,1,987.878-80.241Z" transform="translate(-89.185 -188.958)" fill="#8dc638"/>
      <path id="Trazado_169652" data-name="Trazado 169652" d="M965.726-38.495c-.313-.121-.334-.379-.307-.658l.291.159Q965.718-38.744,965.726-38.495Z" transform="translate(-72.332 -219.746)" fill="#7edb79"/>
      <path id="Trazado_169653" data-name="Trazado 169653" d="M1122.468-116.714a6.364,6.364,0,0,0,3.273-6.037,18.607,18.607,0,0,0-.138-3.269,6.42,6.42,0,0,0-3.214-4.185c-.048-.44.288-.6.587-.765.533-.289,1.073-.568,1.629-.816a4.453,4.453,0,0,1,3.017-.183l.839.238a5.294,5.294,0,0,0,2.959.469,10.44,10.44,0,0,1,3.191,3.092c.395.681.49,1.477.943,2.119a16.143,16.143,0,0,0,.2,5.93,17.646,17.646,0,0,1,.117,2.885,1.607,1.607,0,0,1-.244.974,7.879,7.879,0,0,0-4.917,5.833c-.157.057-.234-.033-.291-.159C1129.511-114.4,1126.776-116.507,1122.468-116.714Z" transform="translate(-190.803 -148.31)" fill="#a2e340"/>
      <path id="Trazado_169654" data-name="Trazado 169654" d="M1179.3-76.38a18.041,18.041,0,0,1,.128-3.858,7.235,7.235,0,0,0,2.974,3.42A10.56,10.56,0,0,0,1179.3-76.38Z" transform="translate(-233.594 -188.96)" fill="#8dc638"/>
      <path id="Trazado_169655" data-name="Trazado 169655" d="M1156.97-39.153l.291.159q.008.25.016.5C1156.964-38.616,1156.944-38.873,1156.97-39.153Z" transform="translate(-217.456 -219.746)" fill="#7edb79"/>
      <path id="Trazado_169656" data-name="Trazado 169656" d="M1086.581-183.659c-.663.517-1.6.615-2.114,1.358a5.9,5.9,0,0,0-4.84-.342l-.923.318a1.636,1.636,0,0,1-.789-.316,6.568,6.568,0,0,0-3.724-1.17.911.911,0,0,1-.649-.182c-.1-.446.286-.588.522-.807a7.075,7.075,0,0,0,2.121-2.888,6.121,6.121,0,0,0,.261-2.04c-.009-.892.025-1.785-.008-2.676a5.618,5.618,0,0,0-2.086-4.193c-.45-.387-1.079-.571-1.347-1.167a7.751,7.751,0,0,1,2.654-1.681,3.845,3.845,0,0,1,2.769-.519l1.187.5c.82.55,1.754.245,2.633.352a8.631,8.631,0,0,1,4.3,5.519,16.157,16.157,0,0,0,.178,6.105,18.049,18.049,0,0,1,.108,2.76A1.615,1.615,0,0,1,1086.581-183.659Z" transform="translate(-153.47 -97.916)" fill="#fbb34d"/>
      <path id="Trazado_169657" data-name="Trazado 169657" d="M1039.141-176.858l-1.065-.362a4.571,4.571,0,0,1-2.962-3.562,15.23,15.23,0,0,1-.161-5.948,1.026,1.026,0,0,1,.123-.9,5.437,5.437,0,0,1,3.381-3.284l.668-.148a1.534,1.534,0,0,1,1.063.288,6.226,6.226,0,0,1,3.339,5.6c-.007.868.017,1.736,0,2.6a6.316,6.316,0,0,1-3.385,5.491A1.642,1.642,0,0,1,1039.141-176.858Z" transform="translate(-124.678 -104.759)" fill="#fecdbf"/>
      <path id="Trazado_169658" data-name="Trazado 169658" d="M1053.658-178.063c2.138-.879,3.747-2.376,4.017-4.683.276-2.361.657-4.851-.88-7.036a7.218,7.218,0,0,0-3.152-2.482,5.936,5.936,0,0,1,4.493.153c1.774.917,3.224,2.234,3.486,4.248.322,2.484.747,5.069-.841,7.368a8.453,8.453,0,0,1-2.105,2.032,2.46,2.46,0,0,1-2.266.755A5.792,5.792,0,0,1,1053.658-178.063Z" transform="translate(-138.991 -103.554)" fill="#fcaf9f"/>
      <path id="Trazado_169659" data-name="Trazado 169659" d="M1024.874-197.207a6.924,6.924,0,0,0-3.5,4.18,12.007,12.007,0,0,0-1.835-3.568,14.455,14.455,0,0,0-2.482-1.966,9.4,9.4,0,0,0,2.422-.71A7.122,7.122,0,0,1,1024.874-197.207Z" transform="translate(-111.317 -98.733)" fill="#fbb34d"/>
      <path id="Trazado_169660" data-name="Trazado 169660" d="M1086.426-210.8l-2.769.519a8.981,8.981,0,0,1-.059-3.833A6.448,6.448,0,0,0,1086.426-210.8Z" transform="translate(-161.67 -87.533)" fill="#f73041"/>
      <path id="Trazado_169661" data-name="Trazado 169661" d="M977.2-129.6a6.615,6.615,0,0,0-3.291,4.175c-.449-.645-.547-1.439-.942-2.121a10.423,10.423,0,0,0-3.191-3.092l2.1-.717A7.416,7.416,0,0,1,977.2-129.6Z" transform="translate(-75.554 -150.173)" fill="#8dc537"/>
      <path id="Trazado_169662" data-name="Trazado 169662" d="M1035.791-146.72a6.651,6.651,0,0,0,2.961,3.562,10.985,10.985,0,0,0-3.092.44A19.749,19.749,0,0,1,1035.791-146.72Z" transform="translate(-125.469 -138.588)" fill="#fab44f"/>
      <path id="Trazado_169663" data-name="Trazado 169663" d="M1131.4-142.229a18.13,18.13,0,0,1,.146-3.831,7.255,7.255,0,0,0,2.972,3.425A11.785,11.785,0,0,0,1131.4-142.229Z" transform="translate(-197.977 -139.092)" fill="#fa9a29"/>
      <path id="Trazado_169664" data-name="Trazado 169664" d="M1065.565-130.776l2.266-.755a7.733,7.733,0,0,1,5.16,1.794,6.651,6.651,0,0,0-3.3,4.186,9.37,9.37,0,0,0-2.353-3.863C1066.769-129.9,1066.157-130.324,1065.565-130.776Z" transform="translate(-148.035 -150.04)" fill="#20b59e"/>
    </g>
  </g>
</svg>
