<svg xmlns="http://www.w3.org/2000/svg" width="210" height="181.242" viewBox="0 0 210 181.242">
  <g id="Grupo_118967" data-name="Grupo 118967" transform="translate(7179.82 -2974.965)">
    <path id="Trazado_168345" data-name="Trazado 168345" d="M-6954.07,3016.3c3.383.024,6.767.027,10.15.074a13.412,13.412,0,0,1,13.526,13.4q.081,46.121.02,92.241a6.1,6.1,0,0,1-.064.63,2.571,2.571,0,0,1-2.011,1c-4.424.265-8.843.608-13.265.905-5.9.4-11.815.267-17.708.763a3.489,3.489,0,0,1-2.629-.5c-.884-1.506-.492-3.165-.534-4.76-.1-3.763-1.026-4.776-4.8-4.784-14.8-.033-29.6-.01-44.4-.014-4.99,0-5.018,0-4.983-5.094.021-3.1-.18-6.2.139-9.29a5.536,5.536,0,0,1,1.648-2.4,6.1,6.1,0,0,0-.287-8.721,6.1,6.1,0,0,0-8.412-.033,6.1,6.1,0,0,0-.354,8.719,5.76,5.76,0,0,1,1.668,2.4c.326,4.013.143,8.026.117,12.039a2.113,2.113,0,0,1-2.376,2.338c-5.139.008-10.279.192-15.413-.1a76.2,76.2,0,0,1-23.628-13.251c-12.519-10.5-19.11-24.094-20.767-40.206a97.849,97.849,0,0,1,.023-19.806c.076-.756.008-1.58.782-2.083a8.763,8.763,0,0,1,3.553-.331c25.1-.009,50.2-.056,75.3.036a14.339,14.339,0,0,0,11.641-5.369c3.644-4.305,7.345-8.559,11-12.858a14.917,14.917,0,0,1,11.464-5.489c6.061-.126,12.126-.04,18.19-.027A3.579,3.579,0,0,1-6954.07,3016.3Z" transform="translate(-39.467 -17.69)" fill="#f7df09"/>
    <path id="Trazado_168346" data-name="Trazado 168346" d="M-7109.6,3058.338a120.907,120.907,0,0,0-.42,16.034c.291,13.839,4.379,26.4,13.032,37.316a60.265,60.265,0,0,0,19.37,15.672c3.653,1.937,7.456,3.593,11.19,5.377-.919.922-2.107.67-3.2.674-8.956.024-17.912.011-26.869.015a15.653,15.653,0,0,0-2.744.121,3.129,3.129,0,0,0-2.894,3.119,46.322,46.322,0,0,0,0,5.92c.137,1.908,1.157,2.945,2.686,2.924,1.45-.02,2.392-.994,2.659-2.757.042-.279.044-.562.07-.843.245-2.659.579-2.989,3.5-3,11.988-.028,23.977-.01,35.965-.011,2.115,0,4.232-.051,6.346.024,2.28.081,2.67.48,2.886,2.73.041.421.034.847.108,1.264.3,1.693,1.362,2.705,2.8,2.588,1.607-.131,2.3-1.182,2.513-2.664.039-.279-.014.07.021-.211.483-3.793.715-3.976,4.472-3.542,4.589,1.189,9.312,1.45,14,1.888,9.188.86,18.4,1.267,27.635,1.325a5.3,5.3,0,0,1,1.46.182c.592.167.844.661,1.14,1.148,1.709,2.81,3.882,2.833,5.58.072a1.846,1.846,0,0,1,.661-.788c7.891-.626,15.818-.436,23.713-1.154a80.646,80.646,0,0,1,8.6-.509,10.125,10.125,0,0,0,3.11-.421c.022,6.767.162,13.537.029,20.3-.122,6.208-6.166,12.08-12.38,12.261-2.607.077-5.218.017-7.825.018-.915-.823-.722-1.938-.731-2.969-.036-4.089,0-8.178-.022-12.268-.017-2.507-.186-2.7-2.608-2.7q-15.334-.031-30.668,0c-2.422,0-2.591.2-2.607,2.7-.027,4.089.014,8.179-.022,12.268-.01,1.031.182,2.146-.732,2.969l-16.813.014c-.89-.836-.7-1.948-.713-2.98-.035-4.09.005-8.179-.021-12.269-.017-2.508-.185-2.7-2.607-2.7q-15.335-.031-30.671,0c-2.422,0-2.59.2-2.606,2.7-.026,4.09.014,8.18-.021,12.269-.009,1.033.177,2.145-.713,2.98l-16.84.009c-.88-.841-.7-1.951-.706-2.985-.034-4.09,0-8.181-.021-12.271-.016-2.511-.183-2.7-2.6-2.706q-15.338-.031-30.675,0c-2.422,0-2.589.2-2.6,2.706-.026,4.09.013,8.181-.021,12.271-.009,1.034.175,2.145-.706,2.985-3.417-.229-6.879.441-10.259-.451a13.39,13.39,0,0,1-10.018-12.961q-.025-5.156-.063-10.312a4.163,4.163,0,0,1-.6-2.834q-.014-37.221.013-74.439c.019-8.642,6.207-14.746,14.85-14.833,3.947-.039,7.894-.028,11.84.006C-7111.393,3057.621-7110.352,3057.469-7109.6,3058.338Z" transform="translate(-17.692 -35.875)" fill="#faba04"/>
    <path id="Trazado_168347" data-name="Trazado 168347" d="M-7179.427,3103.236c-.6-.669-.339-1.488-.34-2.232q-.033-44.422-.009-88.846c.011-7.775,6.035-13.465,14.088-13.469,30.953-.015,61.9-.064,92.856.046,5.664.02,10.054-1.852,13.576-6.3,3.369-4.251,7.036-8.265,10.56-12.393a13.9,13.9,0,0,1,11.142-5.078c10.012.032,20.024.014,30.036.007a13.448,13.448,0,0,1,7.6,2.093,57.363,57.363,0,0,1,.17,10.131c-.039,1.717-1.358,1.94-2.713,1.955-3.95.044-7.9.01-11.851.019-2.187.005-4.376-.073-6.561.023a13.985,13.985,0,0,0-10.539,5.069c-3.636,4.314-7.348,8.565-11,12.867a15.573,15.573,0,0,1-12.588,5.79c-30.334-.082-60.669-.041-91-.04-.917,0-1.834-.017-2.751.014-8.106.277-13.437,5.7-13.447,13.807q-.04,36.4-.011,72.81c0,4.786-.027,4.792-4.837,4.819C-7171.216,3104.352-7175.382,3104.5-7179.427,3103.236Z" transform="translate(0 0)" fill="#f6664f"/>
    <path id="Trazado_168348" data-name="Trazado 168348" d="M-7179.125,3104.848c.179-1.082.834-.642,1.412-.441,4.6,1.607,9.364.625,14.049.877.824.044,1.118-.419,1.1-1.183-.015-.563,0-1.128,0-1.692q0-37.022,0-74.046c0-8.747,5.781-14.509,14.57-14.51,31.167,0,62.334-.049,93.5.044,5.188.016,9.042-2.13,12.247-5.927,3.717-4.405,7.372-8.865,11.194-13.177a13.549,13.549,0,0,1,10.294-4.626q9.305-.12,18.614.01c1.613.021,2.276-.356,2.17-2.1-.149-2.459-.054-4.935-.027-7.4.008-.676-.243-1.427.379-2a12.777,12.777,0,0,1,6.367,11.2c.082,3.449.018,6.9.018,10.355-6.553.022-13.105.08-19.658.055a14.868,14.868,0,0,0-12.317,5.769c-3.453,4.269-7.138,8.351-10.693,12.539a14.774,14.774,0,0,1-12.021,5.455c-25.44-.094-50.881-.044-76.321-.041-.915,0-1.83.045-2.744.069-5.286-.018-10.575-.184-15.854-.019-7.372.231-12.932,6.323-12.938,14q-.031,37.325-.012,74.651c0,.916-.04,1.831-.061,2.747-3.589,0-7.179.032-10.767-.017A13.25,13.25,0,0,1-7179.125,3104.848Z" transform="translate(-0.302 -1.612)" fill="#ab4038"/>
    <path id="Trazado_168349" data-name="Trazado 168349" d="M-7102.042,3248.012c.014-5.5.075-10.993.012-16.488-.018-1.562.28-2.216,2.063-2.2q16.594.127,33.189,0c1.782-.013,2.078.643,2.061,2.2-.063,5.5,0,10.993.013,16.489-.015,5.63-.075,11.26-.01,16.89.017,1.4-.4,1.752-1.769,1.746q-16.891-.078-33.78,0c-1.366.006-1.785-.348-1.769-1.746C-7101.968,3259.273-7102.028,3253.643-7102.042,3248.012Z" transform="translate(-33.774 -110.449)" fill="#a8d41a"/>
    <path id="Trazado_168350" data-name="Trazado 168350" d="M-6910.546,3248c.023-5.635.092-11.271.037-16.905-.013-1.38.366-1.759,1.75-1.752q16.909.084,33.817,0c1.385-.007,1.764.372,1.75,1.752-.056,5.634.014,11.27.037,16.905-.023,5.558-.107,11.116-.03,16.673.022,1.578-.4,2-1.99,1.993q-16.674-.105-33.35,0c-1.585.01-2.012-.415-1.99-1.993C-6910.439,3259.115-6910.523,3253.556-6910.546,3248Z" transform="translate(-116.927 -110.458)" fill="#6886ed"/>
    <path id="Trazado_168351" data-name="Trazado 168351" d="M-7006.285,3248c.017-5.5.083-10.995.02-16.49-.018-1.566.284-2.206,2.061-2.192q16.6.129,33.193,0c1.778-.014,2.078.627,2.061,2.192-.064,5.5,0,10.994.019,16.491-.017,5.629-.079,11.26-.019,16.89.016,1.39-.394,1.761-1.767,1.755q-16.89-.079-33.781,0c-1.374.006-1.782-.365-1.768-1.755C-7006.206,3259.263-7006.268,3253.633-7006.285,3248Z" transform="translate(-75.354 -110.449)" fill="#f6664f"/>
    <path id="Trazado_168352" data-name="Trazado 168352" d="M-7010.247,3186.079c-.352-.022-.7-.058-1.055-.062-2.765-.032-2.766-.03-2.8,2.654s-1.259,4.148-3.444,4.114c-2.167-.034-3.445-1.485-3.282-4.225.121-2.027-.473-2.6-2.538-2.59q-21.365.138-42.73.009c-1.772-.009-2.418.49-2.21,2.247a4,4,0,0,1-.931,3.554,3.267,3.267,0,0,1-3.5.843,3.089,3.089,0,0,1-2.289-2.986c-.064-2.4-.1-4.8.009-7.191.1-2.023,1.707-3.191,4.225-3.2q14.807-.024,29.615-.009c.845,0,1.691-.032,2.536-.05,5.334.019,10.67,0,16,.084,1.373.022,1.819-.391,1.8-1.781-.067-4.21,0-8.423.013-12.635.217-.2.508-.373.759-.256,1.949.917,3.976-.2,5.936.261.012,3.948.14,7.9-.012,11.841-.077,2,.426,2.608,2.522,2.6,15.509-.1,31.017-.052,46.525-.051,4.164,0,5.179,1.038,5.188,5.261,0,1.62.04,3.241.062,4.861-.562,2.439-1.634,3.5-3.554,3.4-2.112-.114-3.1-1.405-3.342-3.4-.517-2.6-2.349-2.747-4.568-2.735-10.606.058-21.213.12-31.819-.024A47.155,47.155,0,0,1-7010.247,3186.079Z" transform="translate(-45.477 -82.331)" fill="#ab7123"/>
    <path id="Trazado_168353" data-name="Trazado 168353" d="M-6961.609,3097.948a11.557,11.557,0,0,1-11.484,8.469q-40.4,0-80.8,0c-7.185,0-12.14-5.066-12.208-12.225-.056-5.777,5.483-12,12.319-11.483.421.032.843.049,1.265.073a1.14,1.14,0,0,1,.383.929,14.857,14.857,0,0,0,.612,6.942,1.079,1.079,0,0,1-.146.8,2.88,2.88,0,0,1-.406.487c-1.021.906-2.091,1.825-1.5,3.4.633,1.677,2.115,1.952,3.651,1.948,13.191-.022,26.383.157,39.573-.1,3.024.276,6.056.1,9.081.1a2.615,2.615,0,0,1,1.875.741,4.237,4.237,0,0,0,5.543-.043,2.631,2.631,0,0,1,1.686-.711c2.647.114,5.292.1,7.938,0,2.936,1.846,5.871,2.33,8.82.016.088-.07.272-.007.416,0,3.528,0,7.052-.01,10.576.014C-6963.441,3097.317-6962.414,3097.17-6961.609,3097.948Z" transform="translate(-49.38 -46.773)" fill="#dcdcdc"/>
    <path id="Trazado_168354" data-name="Trazado 168354" d="M-6990.771,3097.525a22.208,22.208,0,0,1-9.314.088,2.131,2.131,0,0,1,.1-.62c1.463-3.81.56-5.126-3.624-5.135-11.521-.025-23.043,0-34.565-.024-1.159,0-2.416.288-3.4-.679-1.6-2.652-1.44-5.48-.842-8.353,5.212-.024,10.422-.067,15.633-.069q31.8-.012,63.606.007a11.816,11.816,0,0,1,12.152,12.534,21.456,21.456,0,0,1-.482,2.694c-3.908,0-7.818.016-11.726-.01-.731-.005-1.556.282-2.159-.432-.345-.712.041-1.369.163-2.042a4.364,4.364,0,0,0-2.114-4.676,3.825,3.825,0,0,0-4.544,0,4.364,4.364,0,0,0-2.115,4.675c.123.673.508,1.33.164,2.043a16.613,16.613,0,0,1-8.487,0c-.345-.712.04-1.369.164-2.042a4.365,4.365,0,0,0-2.114-4.676,3.825,3.825,0,0,0-4.543,0,4.365,4.365,0,0,0-2.115,4.675C-6990.812,3096.156-6990.427,3096.813-6990.771,3097.525Z" transform="translate(-59.482 -46.792)" fill="#f1f1f1"/>
    <path id="Trazado_168355" data-name="Trazado 168355" d="M-6975.126,3155.326a8.23,8.23,0,0,1-6.694,0c-5.1-3.368-4.029-9.565.018-11.843a6.732,6.732,0,0,1,8.69,1.789,6.665,6.665,0,0,1-.567,8.839C-6974.124,3154.551-6974.642,3154.922-6975.126,3155.326Z" transform="translate(-84.487 -72.792)" fill="#6887ed"/>
    <path id="Trazado_168356" data-name="Trazado 168356" d="M-7113.167,3116.78c0,2.185.035,4.371-.008,6.556-.045,2.307-1.414,3.714-3.468,3.661-1.958-.05-3.26-1.425-3.28-3.633q-.059-6.556,0-13.112a3.287,3.287,0,0,1,3.355-3.555,3.3,3.3,0,0,1,3.385,3.528C-7113.125,3112.408-7113.168,3114.594-7113.167,3116.78Z" transform="translate(-25.995 -57.202)" fill="#ab7123"/>
    <path id="Trazado_168357" data-name="Trazado 168357" d="M-7113.045,3076.741c1.055,0,2.111-.036,3.164.01a3.307,3.307,0,0,1,3.485,3.418c-.023,1.961-1.391,3.242-3.569,3.341-.141.006-.282,0-.421,0-2.713.044-2.713.044-2.772,2.871-.052,2.476-1.335,3.926-3.443,3.892s-3.3-1.471-3.325-4.007q-.027-2.742,0-5.485c.028-2.884,1.2-4.017,4.141-4.044C-7114.874,3076.732-7113.959,3076.74-7113.045,3076.741Z" transform="translate(-26.001 -44.189)" fill="#ab7123"/>
    <path id="Trazado_168358" data-name="Trazado 168358" d="M-6960.48,3202.543q20.951-.029,41.9-.062c2.96-.007,1.2,2.179,1.6,3.359-6.477.337-12.944-.206-19.4-.5a173.264,173.264,0,0,1-23.36-2.461A3.39,3.39,0,0,1-6960.48,3202.543Z" transform="translate(-95.244 -98.795)" fill="#f6de09"/>
    <path id="Trazado_168359" data-name="Trazado 168359" d="M-7081.691,3246.69c.406-4.014,1.364-5.365,3.642-5.3,2.226.063,3.075,1.337,3.424,5.309,1.07-.657,2.045-1.316,3.074-1.874a3.4,3.4,0,0,1,4.678.933c.99,1.488.671,3.1-.835,4.518-1.211,1.137-3.608,1.576-3.656,3.067-.029.908,2.4,1.83,3.634,2.862,1.637,1.375,1.868,3.185.736,4.667a3.568,3.568,0,0,1-4.743.71,11.436,11.436,0,0,0-2.877-1.682c-.4,3.885-1.358,5.232-3.625,5.173-2.225-.059-3.086-1.345-3.419-5.163-1.222.255-2.023,1.232-3.079,1.749-1.849.905-3.668.558-4.687-.959-.994-1.481-.677-3.115.84-4.511,1.222-1.124,3.606-1.571,3.662-3.064.034-.9-2.4-1.831-3.636-2.856a3.2,3.2,0,0,1-.875-4.492,3.389,3.389,0,0,1,4.671-.96C-7083.73,3245.366-7082.758,3246.033-7081.691,3246.69Z" transform="translate(-38.999 -115.689)" fill="#dceda2"/>
    <path id="Trazado_168360" data-name="Trazado 168360" d="M-6890.1,3246.753c.25-3.944,1.225-5.357,3.493-5.361s3.264,1.427,3.492,5.313c1.074-.658,2.028-1.285,3.021-1.842a3.439,3.439,0,0,1,4.714.807c1.073,1.521.782,3.314-.877,4.663a38.84,38.84,0,0,1-3.294,2.293c-.68.444-.684.768,0,1.214a38.714,38.714,0,0,1,3.3,2.292c1.66,1.347,1.954,3.144.877,4.66a3.439,3.439,0,0,1-4.715.809c-.966-.546-1.884-1.178-3.042-1.91-.146,1.772.137,3.494-1.327,4.621a3.382,3.382,0,0,1-2.358.759c-2.158-.146-3.027-1.484-3.266-5.172-1.208.279-2.016,1.207-3.035,1.731-1.833.943-3.67.627-4.714-.862-1.068-1.524-.758-3.316.911-4.654a31.51,31.51,0,0,1,3.136-2.151c.9-.558.815-.961-.026-1.476-.961-.588-1.906-1.211-2.808-1.886-1.928-1.444-2.354-3.279-1.2-4.932,1.087-1.558,2.928-1.843,4.883-.715C-6892.044,3245.477-6891.183,3246.067-6890.1,3246.753Z" transform="translate(-122.173 -115.691)" fill="#f1f1f1"/>
    <path id="Trazado_168361" data-name="Trazado 168361" d="M-6985.878,3246.737c.255-3.911,1.09-5.2,3.27-5.349,2.268-.151,3.2,1.094,3.851,5.269,1.05-.649,2.024-1.325,3.063-1.876a3.393,3.393,0,0,1,4.532.876,3.18,3.18,0,0,1-.715,4.512,28.083,28.083,0,0,1-3.268,2.317c-.847.542-.89.923-.009,1.474a28.364,28.364,0,0,1,3.113,2.172c1.678,1.392,1.965,3.142.884,4.653a3.545,3.545,0,0,1-4.893.723c-.888-.544-1.757-1.118-2.855-1.819-.167,1.759.151,3.489-1.314,4.615a3.421,3.421,0,0,1-2.354.766c-2.192-.131-3.068-1.464-3.28-5.157-1.1.15-1.793.988-2.655,1.471-2.179,1.223-4.114.956-5.2-.78-1.039-1.658-.525-3.4,1.482-4.879.906-.667,1.851-1.284,2.8-1.888.682-.435.679-.776,0-1.221a37.861,37.861,0,0,1-3.288-2.3c-1.683-1.383-1.964-3.105-.887-4.651,1.054-1.513,2.8-1.844,4.69-.816C-6987.936,3245.383-6987.021,3246.022-6985.878,3246.737Z" transform="translate(-80.585 -115.684)" fill="#fbc1b8"/>
    <path id="Trazado_168362" data-name="Trazado 168362" d="M-7042.816,3097.626q19.441.021,38.881.027c1.735,0,3.282.265,4.035,2.031.779,1.831.11,3.276-1.426,4.4a12.554,12.554,0,0,1-2.061.341q-19.222.031-38.442.019a3.484,3.484,0,0,1-3.636-2.311,3.038,3.038,0,0,1,.84-3.464A8.178,8.178,0,0,1-7042.816,3097.626Z" transform="translate(-58.241 -53.263)" fill="#1c357d"/>
    <path id="Trazado_168363" data-name="Trazado 168363" d="M-6951.463,3102.734c-1.194-2.261-1.246-4.439.567-6.415a4.908,4.908,0,0,1,5.6-1.194c2.9,1.2,3.778,4.118,2.28,7.609C-6946.067,3105.619-6948.425,3105.619-6951.463,3102.734Z" transform="translate(-98.789 -52.001)" fill="#1c357d"/>
    <path id="Trazado_168364" data-name="Trazado 168364" d="M-6921.535,3102.734c-1.2-2.261-1.247-4.439.567-6.415a4.906,4.906,0,0,1,5.6-1.194c2.9,1.2,3.778,4.118,2.28,7.609C-6916.139,3105.619-6918.5,3105.619-6921.535,3102.734Z" transform="translate(-111.785 -52.001)" fill="#1c357d"/>
  </g>
</svg>
