<svg xmlns="http://www.w3.org/2000/svg" xmlns:xlink="http://www.w3.org/1999/xlink" width="1102.654" height="527.566" viewBox="0 0 1102.654 527.566">
  <defs>
    <clipPath id="clip-path">
      <path id="Trazado_167863" data-name="Trazado 167863" d="M526.386,259.6c190.326,0,350.671,128.278,399.346,303.088H127.04C175.715,387.874,336.061,259.6,526.386,259.6Z" transform="translate(-127.04 -259.596)" fill="none" clip-rule="evenodd"/>
    </clipPath>
  </defs>
  <g id="Grupo_120676" data-name="Grupo 120676" transform="translate(-136.654 -3649.252)">
    <g id="Grupo_118836" data-name="Grupo 118836" transform="translate(136.654 3649.252)">
      <path id="Trazado_167864" data-name="Trazado 167864" d="M70.484,602.953c55.882-215.246,239.969-373.2,458.477-373.2s402.6,157.953,458.479,373.2" transform="translate(22.093 -103.099)" fill="none" stroke="#242ca3" stroke-linecap="round" stroke-linejoin="round" stroke-width="3" fill-rule="evenodd"/>
      <path id="Trazado_169687" data-name="Trazado 169687" d="M107.4,0A107.4,107.4,0,1,1,0,107.4,107.4,107.4,0,0,1,107.4,0Z" transform="matrix(0.528, -0.849, 0.849, 0.528, 0, 414.078)" fill="#242ca3"/>
      <g id="Grupo_118823" data-name="Grupo 118823" transform="translate(50.252 281.969)">
        <g id="Grupo_118822" data-name="Grupo 118822" transform="translate(0)">
          <circle id="Elipse_6800" data-name="Elipse 6800" cx="97.672" cy="97.672" r="97.672" fill="#01cc9b"/>
          <path id="Trazado_169688" data-name="Trazado 169688" d="M97.672,0A97.672,97.672,0,1,1,0,97.672,97.672,97.672,0,0,1,97.672,0Z" fill="#fff"/>
        </g>
        <g id="Grupo_118841" data-name="Grupo 118841" transform="translate(43.432 55.447)">
          <path id="Trazado_167865" data-name="Trazado 167865" d="M-359.927,186.116a2.116,2.116,0,0,1-2.128,1.083q-43.15-.025-86.3-.014a5.668,5.668,0,0,1-.706-.019,1.548,1.548,0,0,1-1.389-1.474,1.545,1.545,0,0,1,1.373-1.492,8.155,8.155,0,0,1,1.059-.026q42,0,84,.021c.886,0,1.1-.2,1.1-1.1q-.043-33.687-.022-67.373c0-.265,0-.531,0-.8a1.5,1.5,0,0,1,1.142-1.587,1.44,1.44,0,0,1,1.66.705c.066.093.139.182.208.273Z" transform="translate(450.449 -107.257)" fill="#5a6470"/>
          <path id="Trazado_167866" data-name="Trazado 167866" d="M-182.472,146.178q0-16-.018-31.995c0-.812.136-1.095,1.033-1.086,5.421.048,10.842.037,16.263.008.7,0,.873.185.872.877q-.028,32.3,0,64.608c0,.746-.213.924-.935.92q-8.132-.044-16.263,0c-.793.005-.972-.219-.97-.987Q-182.451,162.352-182.472,146.178Z" transform="translate(245.821 -107.115)" fill="#3d4e63"/>
          <path id="Trazado_167867" data-name="Trazado 167867" d="M-279.181,202.579c0,8.191-.009,16.381.015,24.572,0,.76-.13,1.058-.992,1.051-5.391-.044-10.784-.036-16.175-.006-.722,0-.939-.173-.938-.919q.032-24.749,0-49.5c0-.758.231-.916.945-.912q8.088.044,16.176,0c.762,0,.993.165.99.965C-279.193,186.08-279.181,194.329-279.181,202.579Z" transform="translate(333.475 -155.813)" fill="#ff004c"/>
          <path id="Trazado_167868" data-name="Trazado 167868" d="M-412.318,270.206c0-5.214.012-10.428-.015-15.642,0-.68.158-.9.874-.9q8.219.045,16.438,0c.717,0,.876.22.874.9q-.03,15.686,0,31.372c0,.674-.152.91-.874.906q-8.219-.045-16.438,0c-.724,0-.876-.233-.873-.907C-412.307,280.693-412.318,275.45-412.318,270.206Z" transform="translate(421.341 -214.462)" fill="#febf10"/>
          <path id="Trazado_167869" data-name="Trazado 167869" d="M-418.768,89.279c3.039-.34,5.839-.652,8.639-.966,1.4-.158,2.807-.321,4.21-.48.378-.043.783-.182.7.493-.5,4.261-.973,8.524-1.465,12.864a2.514,2.514,0,0,1-.954-.79c-1.135-1.115-2.284-2.22-3.367-3.384-.487-.523-.751-.565-1.287-.022-4,4.048-8.03,8.058-12.052,12.08-1.757,1.757-2.131,1.76-3.859.035-.688-.687-1.412-1.343-2.052-2.073-.449-.511-.707-.457-1.167.007-3.731,3.771-7.491,7.514-11.243,11.265q-2.532,2.532-5.064,5.064a1.514,1.514,0,0,1-1.985.381,1.44,1.44,0,0,1-.567-1.917,3.626,3.626,0,0,1,.778-.953l17.069-17.067c1.269-1.269,1.927-1.272,3.181-.021.855.854,1.721,1.7,2.557,2.57.289.3.463.316.768.009q5.863-5.891,11.757-11.75c.391-.388.193-.563-.078-.831C-415.706,92.344-417.159,90.886-418.768,89.279Z" transform="translate(450.439 -87.791)" fill="#ff2f6d"/>
        </g>
      </g>
      <path id="Trazado_169686" data-name="Trazado 169686" d="M107.4,0A107.4,107.4,0,1,1,0,107.4,107.4,107.4,0,0,1,107.4,0Z" transform="matrix(0.528, -0.849, 0.849, 0.528, 169.948, 242.759)" fill="#f9e424"/>
      <path id="Trazado_167852" data-name="Trazado 167852" d="M120.191,501.681a430.094,430.094,0,0,1,97.364-165.443,107.431,107.431,0,0,1-97.364,165.443Z" transform="translate(20.61 -14.863)" fill-rule="evenodd" opacity="0.15"/>
      <circle id="Elipse_6805" data-name="Elipse 6805" cx="107.395" cy="107.395" r="107.395" transform="translate(403.249 182.361) rotate(-58.105)" fill="#242ca3"/>
      <circle id="Elipse_6806" data-name="Elipse 6806" cx="107.395" cy="107.395" r="107.395" transform="translate(636.887 243.21) rotate(-58.105)" fill="#f9e424"/>
      <g id="Grupo_118837" data-name="Grupo 118837" transform="translate(220.2 111.101)">
        <g id="Grupo_118822-2" data-name="Grupo 118822" transform="translate(0)">
          <circle id="Elipse_6800-2" data-name="Elipse 6800" cx="97.672" cy="97.672" r="97.672" fill="#01cc9b"/>
          <circle id="Elipse_6801" data-name="Elipse 6801" cx="97.672" cy="97.672" r="97.672" fill="#fff"/>
          <g id="Grupo_118842" data-name="Grupo 118842" transform="translate(42.133 40.991)">
            <path id="Trazado_167870" data-name="Trazado 167870" d="M-676.171-229.844a15.628,15.628,0,0,1-3.279-2.509,54.944,54.944,0,0,1-18.612-32.014,51.145,51.145,0,0,1-.929-12.552,55.315,55.315,0,0,1,8.053-26.065,54.037,54.037,0,0,1,8.962-11.151,56.569,56.569,0,0,1,12.28-8.881,56.471,56.471,0,0,1,17.939-5.911,3.316,3.316,0,0,1,.347,2.253q.016,29.312.009,58.625c0,13.683-.047,27.367.031,41.05.021,3.7-1.432,4.188-4.446,3.842A55.094,55.094,0,0,1-671-227.067a29.174,29.174,0,0,1-3.378-1.742C-674.972-229.153-675.565-229.511-676.171-229.844Z" transform="translate(699.062 329.437)" fill="#d0d7d4"/>
            <path id="Trazado_167871" data-name="Trazado 167871" d="M-479.578-276.423c-1.6.013-3.194.038-4.79.038q-19.11,0-38.219,0c-2.174,0-2.758-.586-2.758-2.769q0-23.779,0-47.559c0-.779-.056-1.576.712-2.093a1.817,1.817,0,0,1,1.31-.122,54.983,54.983,0,0,1,19.033,7.327,51.44,51.44,0,0,1,10.38,8.2,55.258,55.258,0,0,1,15.668,32.215,14.74,14.74,0,0,1,.184,2.812A1.837,1.837,0,0,1-479.578-276.423Z" transform="translate(582.457 329.478)" fill="#f9dd1d"/>
            <path id="Trazado_167872" data-name="Trazado 167872" d="M-478.806-124.769q-7.4-7.358-14.8-14.717c-4.581-4.568-9.141-9.157-13.732-13.714-.756-.751-1.278-1.533-.85-2.6.436-1.087,1.38-1.233,2.436-1.232q18.363.023,36.726.012c.285,0,.571.026.857.039,1.2.223,1.568,1.028,1.549,2.142a44.129,44.129,0,0,1-1.885,10.97,52.435,52.435,0,0,1-9.058,18.092C-477.879-125.357-478.072-124.707-478.806-124.769Z" transform="translate(571.039 214.053)" fill="#fe2c02"/>
            <path id="Trazado_167873" data-name="Trazado 167873" d="M-524.362-86.278a1.9,1.9,0,0,1-.974-1.835q.019-20.982.041-41.964c.592-.088.878.376,1.211.709q13.353,13.332,26.686,26.684c1.539,1.542,1.516,2.727-.167,4.138a53.947,53.947,0,0,1-23.178,11.608A16.947,16.947,0,0,1-524.362-86.278Z" transform="translate(582.45 195.968)" fill="#3d4e63"/>
            <path id="Trazado_167874" data-name="Trazado 167874" d="M-625.379-229.821c2.067.874,4.107,1.819,6.207,2.606a49.463,49.463,0,0,0,11.849,2.839,17.515,17.515,0,0,0,2.922.216,1.873,1.873,0,0,0,1.889-1.868c.028-.367.007-.737.007-1.106q0-50.39,0-100.781c0-.573.02-1.146.032-1.719a30.014,30.014,0,0,1,3.785-.342,1.923,1.923,0,0,1,2.084,2.043c.013.286,0,.574,0,.861q0,52.024,0,104.047c0,2.393-.51,2.952-2.884,2.8a51.277,51.277,0,0,1-17.031-4.287,50.1,50.1,0,0,1-9.1-5.077C-625.671-229.806-625.634-229.926-625.379-229.821Z" transform="translate(649.777 330.143)" fill="#aeb7b5"/>
            <path id="Trazado_167875" data-name="Trazado 167875" d="M-478.123-277.422c1.573-.851,1.327-2.345,1.179-3.694A54.874,54.874,0,0,0-480.2-294.76a57.237,57.237,0,0,0-8.606-15.06,52.73,52.73,0,0,0-11.8-10.975,54.568,54.568,0,0,0-20.884-8.732c-.56-.1-1.125-.184-1.688-.275,1.129-1.158,2.515-.507,3.713-.361a53.9,53.9,0,0,1,28.441,12.128,54.549,54.549,0,0,1,19.294,32.264,49.766,49.766,0,0,1,.808,5.943,2,2,0,0,1-2.165,2.44C-474.766-277.377-476.445-277.408-478.123-277.422Z" transform="translate(581.002 330.478)" fill="#fd9c0b"/>
            <path id="Trazado_167876" data-name="Trazado 167876" d="M-524.384-93.045a21.323,21.323,0,0,1,4.454-1.129,53.716,53.716,0,0,0,21.259-10.681c.125-.1.272-.18.4-.276,2.128-1.545,2.206-2.54.346-4.4q-13.2-13.2-26.4-26.4c-.317-.317-.661-.608-.992-.911-.014-.409-.016-.818-.045-1.226a1.827,1.827,0,0,1,1.115-1.881,1.908,1.908,0,0,1,2.264.374c.241.222.471.455.7.687q14.644,14.642,29.288,29.286c1.857,1.857,1.838,2.692-.2,4.372a53.517,53.517,0,0,1-27.894,12.177C-521.513-92.877-522.951-92.372-524.384-93.045Z" transform="translate(582.472 202.735)" fill="#12263f"/>
            <path id="Trazado_167877" data-name="Trazado 167877" d="M-418.51-124.741a51.836,51.836,0,0,0,8.482-14.613,57.648,57.648,0,0,0,3.316-13.588c.185-1.4.624-3.084-1.156-4.012,1.719-.013,3.438-.047,5.157-.034a1.982,1.982,0,0,1,2.076,2.3,54.727,54.727,0,0,1-4.009,16.807,54.161,54.161,0,0,1-8.7,14.268c-1.491,1.766-2.389,1.789-4.026.141C-417.771-123.875-418.131-124.317-418.51-124.741Z" transform="translate(510.744 214.026)" fill="#e11e01"/>
            <path id="Trazado_167878" data-name="Trazado 167878" d="M-627.927-26.811l-.237.229a3.51,3.51,0,0,1-1.27-.958A2.679,2.679,0,0,1-627.927-26.811Z" transform="translate(652.324 127.134)" fill="#bcc4c2"/>
          </g>
        </g>
      </g>
      <g id="Grupo_118838" data-name="Grupo 118838" transform="translate(453.501 50.252)">
        <g id="Grupo_118822-3" data-name="Grupo 118822" transform="translate(0)">
          <circle id="Elipse_6800-3" data-name="Elipse 6800" cx="97.672" cy="97.672" r="97.672" fill="#01cc9b"/>
          <circle id="Elipse_6801-2" data-name="Elipse 6801" cx="97.672" cy="97.672" r="97.672" fill="#fff"/>
          <g id="Grupo_118843" data-name="Grupo 118843" transform="translate(47.749 31.215)">
            <path id="Trazado_167879" data-name="Trazado 167879" d="M-1285-382.107h12.728a3.619,3.619,0,0,1,3.25,0h12.726a1.782,1.782,0,0,1,1.413-.292c.924.072,1.422-.247,1.346-1.238a.967.967,0,0,1,.136-.507.226.226,0,0,1,.3-.116c.227.684-.287,1.679.253,2.028s1.451.133,2.2.134q5.169,0,10.337-.008a1.407,1.407,0,0,1,.894-.294c1.633-.132,1.633-.135,2.023-1.562a.218.218,0,0,1,.3-.084c.117,1.951.117,1.953,2.094,1.951q5.318-.007,10.635-.018a1.891,1.891,0,0,1,1.439-.283c.938.073,1.444-.252,1.358-1.259a1,1,0,0,1,.093-.418.473.473,0,0,1,.243-.243,1.709,1.709,0,0,1,.131.4c.133,1.822.13,1.822,2,1.822,3.167,0,6.335-.018,9.5.015.657.007.874-.161.85-.839-.051-1.474-.027-2.951-.011-4.427.012-1.167.66-1.9,1.619-1.876.926.022,1.541.706,1.557,1.842q.049,3.347.025,6.694a1.679,1.679,0,0,1-1.669,1.763c-.321.029-.647.01-.971.01h-95.022c-2.035,0-2.482-.449-2.482-2.461q0-15.548,0-31.095v-32.279q0-15.923,0-31.847c0-1.975.455-2.437,2.4-2.438,1.907,0,3.815-.013,5.723,0,1.258.011,2.005.659,1.966,1.65-.037.949-.759,1.518-1.971,1.526-1.368.01-2.737.039-4.1-.013-.674-.025-.847.186-.841.848.032,3.383.04,6.767,0,10.15-.01.779.235,1,.972.936a1.856,1.856,0,0,1,1.261.129.5.5,0,0,1-.25.237,1.822,1.822,0,0,1-.738.119c-.712-.016-.919.38-.922,1.022a2.712,2.712,0,0,1-.286,1.768c-.006,3.863.019,7.726-.041,11.588-.014.9.225,1.236,1.117,1.1a4.236,4.236,0,0,1,.853.035.217.217,0,0,1-.092.3.974.974,0,0,1-.507.151c-.882-.031-1.071.485-1.046,1.238a2.088,2.088,0,0,1-.292,1.539q0,6.358,0,12.715a3.624,3.624,0,0,1,0,3.251q0,6.364,0,12.727a3.628,3.628,0,0,1,0,3.253v12.725a1.413,1.413,0,0,1,.294.895c.132,1.629.135,1.629,1.564,2.024a.219.219,0,0,1,.082.3c-1.948.116-1.952.116-1.947,2.1q.012,5.115.031,10.229a4.555,4.555,0,0,0,2.358,2.355c3.7.012,7.395.011,11.092.049.61.006.843-.166.781-.783a8.771,8.771,0,0,1,.031-1.181.216.216,0,0,1,.3.087,1.17,1.17,0,0,1,.167.612c-.006.765.437.952,1.108.946A2.28,2.28,0,0,1-1285-382.107Z" transform="translate(1305.703 479.038)" fill="#5b5e8b"/>
            <path id="Trazado_167880" data-name="Trazado 167880" d="M-1163.3-412.074a8.525,8.525,0,0,0-10.426-2.519,8.363,8.363,0,0,0-4.993,8.191,8.549,8.549,0,0,0,5.994,7.867,8.493,8.493,0,0,0,9.354-2.89h0A8.534,8.534,0,0,0-1163.3-412.074Z" transform="translate(1215.377 433.775)" fill="#fe2c02"/>
            <path id="Trazado_167881" data-name="Trazado 167881" d="M-1234.274-323.9a8.6,8.6,0,0,0-10.275-2.47,8.551,8.551,0,0,0-5.142,8.244,8.715,8.715,0,0,0,6.058,7.856,8.429,8.429,0,0,0,9.28-2.813h0a1.334,1.334,0,0,0,.236-.21A8.743,8.743,0,0,0-1234.274-323.9Z" transform="translate(1265.866 370.968)" fill="#f9dd1d"/>
            <path id="Trazado_167882" data-name="Trazado 167882" d="M-1033.053-304.531a8.579,8.579,0,0,0-10.212-2.433,8.539,8.539,0,0,0-5.157,8.313,8.785,8.785,0,0,0,6.181,7.861,8.548,8.548,0,0,0,9.363-3.148h0A8.6,8.6,0,0,0-1033.053-304.531Z" transform="translate(1122.695 357.187)" fill="#fe2c02"/>
            <path id="Trazado_167883" data-name="Trazado 167883" d="M-1117.627-232.458a7.753,7.753,0,0,0-9.367-2.275c-3.029,1.287-4.694,4.145-4.543,7.8a7.817,7.817,0,0,0,5.494,6.747,7.6,7.6,0,0,0,8.352-2.632h0A7.688,7.688,0,0,0-1117.627-232.458Z" transform="translate(1181.818 305.753)" fill="#f9dd1d"/>
            <path id="Trazado_167884" data-name="Trazado 167884" d="M-1292.279-184.339c-2.472.129-2.472.129-2.358-2.355a19.392,19.392,0,0,0,2.5-2.193q4.916-4.835,9.861-9.64c.809-.788,1.9-1.307,2.333-2.453a8.6,8.6,0,0,1,2.4,2.373,5.376,5.376,0,0,0-.508.392c-3.183,3.1-6.34,6.229-9.55,9.3C-1289.178-187.406-1290.848-186-1292.279-184.339Z" transform="translate(1297.858 281.245)" fill="#3d4e63"/>
            <path id="Trazado_167885" data-name="Trazado 167885" d="M-1209.488-260.307a9.987,9.987,0,0,0-2.121-2.415c1.919-1.884,3.831-3.774,5.757-5.651q3.549-3.459,7.119-6.9a5.134,5.134,0,0,1,.6-.436,6.208,6.208,0,0,1,2.081,2.158,27.142,27.142,0,0,1-3.213,3.134q-4.71,4.549-9.376,9.145C-1208.944-260.971-1209.206-260.629-1209.488-260.307Z" transform="translate(1238.77 334.4)" fill="#3d4e63"/>
            <path id="Trazado_167886" data-name="Trazado 167886" d="M-1053.093-411.357a10.314,10.314,0,0,0-2.18-2.317q3.032-3.331,6.371-6.355c1.111-1.011,2.153-2.1,3.228-3.147q1.913-1.868,3.83-3.732a7.249,7.249,0,0,1,2.115,2.4c-2,1.9-4,3.792-5.991,5.7q-3.372,3.238-6.718,6.5C-1052.714-412.033-1053.075-411.81-1053.093-411.357Z" transform="translate(1127.563 441.956)" fill="#3d4e63"/>
            <path id="Trazado_167887" data-name="Trazado 167887" d="M-1131.754-336.753a12.869,12.869,0,0,0-2.156-2.128q4-3.842,8.007-7.683c1.581-1.515,3.169-3.024,4.748-4.542.306-.294.678-.555.719-1.038a12.288,12.288,0,0,1,2.352,2.617c-.486.033-.729.423-1.03.718q-5.449,5.325-10.9,10.651C-1130.546-337.641-1131.172-337.219-1131.754-336.753Z" transform="translate(1183.5 388.773)" fill="#3d4e63"/>
            <path id="Trazado_167888" data-name="Trazado 167888" d="M-1077.125-380.966a3.231,3.231,0,0,0-2.18-2.317c-1.974-.923-3.973-1.321-6.042-.3h0a2.56,2.56,0,0,0-.4.139c-3.021,1.625-4.038,4.74-2.783,8.505a8.86,8.86,0,0,0,2.352,2.617c3.418,1.606,6.342,1.094,8.417-1.474h0A6.4,6.4,0,0,0-1077.125-380.966Z" transform="translate(1151.595 411.565)" fill="#fe2c02"/>
            <path id="Trazado_167889" data-name="Trazado 167889" d="M-999.456-456.673a6.359,6.359,0,0,0-7.77-1.681h0a5.4,5.4,0,0,0-2.428,2.015,6.612,6.612,0,0,0-.588,6.595,9.8,9.8,0,0,0,2.115,2.4c3.523,1.808,6.541,1.358,8.672-1.292h0A6.381,6.381,0,0,0-999.456-456.673Z" transform="translate(1095.961 464.792)" fill="#f9dd1d"/>
            <path id="Trazado_167890" data-name="Trazado 167890" d="M-1234.095-230.928a3.157,3.157,0,0,0-2.121-2.415,6.466,6.466,0,0,0-6.256-.444h0a2.74,2.74,0,0,0-1.21.656c-2.578,1.952-3.19,4.848-1.779,8.375a9.86,9.86,0,0,0,2.4,2.373c.3.117.595.235.893.351a6.167,6.167,0,0,0,7.469-2.252h0A6.357,6.357,0,0,0-1234.095-230.928Z" transform="translate(1263.377 305.021)" fill="#fe2c02"/>
            <path id="Trazado_167891" data-name="Trazado 167891" d="M-1155.878-306.268a3.137,3.137,0,0,0-2.156-2.128,6.563,6.563,0,0,0-6.01-.289h0a5.014,5.014,0,0,0-2.37,1.793,6.552,6.552,0,0,0-.571,7.3,11.139,11.139,0,0,0,2.081,2.158,6.77,6.77,0,0,0,4.424.863c1.678-.3,3.222-.866,4.012-2.575h0c.448-.048.518-.449.681-.749A6.721,6.721,0,0,0-1155.878-306.268Z" transform="translate(1207.624 358.289)" fill="#f9dd1d"/>
            <path id="Trazado_167892" data-name="Trazado 167892" d="M-1189.793-162.724c0-1.112-.024-2.224,0-3.335.022-1.155.689-1.88,1.648-1.847.92.031,1.518.726,1.536,1.845s0,2.223-.007,3.335A12.218,12.218,0,0,1-1189.793-162.724Z" transform="translate(1223.26 257.719)" fill="#5c5f8b"/>
            <path id="Trazado_167893" data-name="Trazado 167893" d="M-1244.98-162.73h-.157c.008-1.112,0-2.225.029-3.336.035-1.187.682-1.883,1.652-1.842.92.039,1.509.737,1.519,1.856.009,1.039-.021,2.08-.034,3.119A4.948,4.948,0,0,1-1244.98-162.73Z" transform="translate(1262.62 257.72)" fill="#5c5f8b"/>
            <path id="Trazado_167894" data-name="Trazado 167894" d="M-1075.934-162.727l-.155,0a4.954,4.954,0,0,1-3.013-.2c-.012-1.112-.055-2.224-.027-3.335a1.566,1.566,0,0,1,1.509-1.64,1.551,1.551,0,0,1,1.632,1.52C-1075.911-165.169-1075.948-163.947-1075.934-162.727Z" transform="translate(1144.54 257.718)" fill="#5c5f8b"/>
            <path id="Trazado_167895" data-name="Trazado 167895" d="M-1131.315-162.943q-.1.008-.2.02a3.234,3.234,0,0,1-2.935-.008c-.013-1.076-.05-2.153-.031-3.228a1.61,1.61,0,0,1,1.521-1.749,1.6,1.6,0,0,1,1.651,1.734C-1131.272-165.1-1131.31-164.02-1131.315-162.943Z" transform="translate(1183.911 257.72)" fill="#5c5f8b"/>
            <path id="Trazado_167896" data-name="Trazado 167896" d="M-1288.173-260.623c1.074,0,2.148-.031,3.22,0a1.61,1.61,0,0,1,1.736,1.532,1.614,1.614,0,0,1-1.735,1.643c-1.072.029-2.147,0-3.22,0A12.273,12.273,0,0,1-1288.173-260.623Z" transform="translate(1293.306 323.682)" fill="#5c5f8b"/>
            <path id="Trazado_167897" data-name="Trazado 167897" d="M-1288.173-315.959c1.037,0,2.075-.025,3.112,0,1.169.028,1.879.683,1.844,1.646-.033.918-.728,1.515-1.841,1.532-1.037.016-2.074-.005-3.112-.01A12.325,12.325,0,0,1-1288.173-315.959Z" transform="translate(1293.305 363.042)" fill="#5c5f8b"/>
            <path id="Trazado_167898" data-name="Trazado 167898" d="M-1288.235-202.1q0-.077,0-.154a4.971,4.971,0,0,1,.2-3.009c1.037-.012,2.076-.055,3.113-.029a1.573,1.573,0,0,1,1.638,1.507,1.557,1.557,0,0,1-1.516,1.633C-1285.941-202.077-1287.09-202.115-1288.235-202.1Z" transform="translate(1293.372 284.32)" fill="#5c5f8b"/>
            <path id="Trazado_167899" data-name="Trazado 167899" d="M-1288.234-371.145q0-.081,0-.163c1.037.008,2.076-.005,3.112.029,1.162.039,1.88.708,1.839,1.656-.04.912-.741,1.5-1.853,1.517-.965.011-1.93-.022-2.9-.036A4.942,4.942,0,0,1-1288.234-371.145Z" transform="translate(1293.372 402.406)" fill="#5c5f8b"/>
            <path id="Trazado_167900" data-name="Trazado 167900" d="M-1023.789-162.931c-.012-1.114-.053-2.229-.029-3.343a1.559,1.559,0,0,1,1.52-1.627,1.5,1.5,0,0,1,1.572,1.563c.046,1.113,0,2.229,0,3.344-.04.036-.079.072-.117.109A3.387,3.387,0,0,1-1023.789-162.931Z" transform="translate(1105.193 257.715)" fill="#5b5e8b"/>
            <path id="Trazado_167901" data-name="Trazado 167901" d="M-1288.019-426.318c1-.006,2.011-.042,3.015-.009a1.552,1.552,0,0,1,1.669,1.578,1.6,1.6,0,0,1-1.73,1.528c-1,.016-2.009-.021-3.013-.035a3.406,3.406,0,0,1-.051-2.947Z" transform="translate(1293.422 441.552)" fill="#5b5e8b"/>
            <path id="Trazado_167902" data-name="Trazado 167902" d="M-1292.694-260.688a5.111,5.111,0,0,1,0,3.17l-1.938.042v-3.254Z" transform="translate(1297.827 323.747)" fill="#33304d"/>
            <path id="Trazado_167903" data-name="Trazado 167903" d="M-1292.7-316.037a5.113,5.113,0,0,1,0,3.168l-1.938.039q0-1.625,0-3.251Z" transform="translate(1297.828 363.121)" fill="#322f4c"/>
            <path id="Trazado_167904" data-name="Trazado 167904" d="M-1189.858-150.579a5.093,5.093,0,0,1,3.174,0q.019.969.037,1.939h-3.249Q-1189.878-149.61-1189.858-150.579Z" transform="translate(1223.326 245.574)" fill="#322f4c"/>
            <path id="Trazado_167905" data-name="Trazado 167905" d="M-1292.547-426.016l.051,2.947-2.137.083c-.006-.39-.015-.779-.016-1.169C-1294.652-426.175-1294.651-426.175-1292.547-426.016Z" transform="translate(1297.84 441.366)" fill="#33304d"/>
            <path id="Trazado_167906" data-name="Trazado 167906" d="M-1292.5-205.319c-.091,1,.228,2.029-.2,3.009-1.949-.046-1.949-.046-1.948-2,0-.355,0-.711.006-1.066Z" transform="translate(1297.84 284.373)" fill="#322f4c"/>
            <path id="Trazado_167907" data-name="Trazado 167907" d="M-1292.7-370.744c.429.977.1,2,.2,3l-2.14.061c0-.356-.008-.712-.008-1.068C-1294.649-370.725-1294.648-370.725-1292.7-370.744Z" transform="translate(1297.839 402.004)" fill="#312e4b"/>
            <path id="Trazado_167908" data-name="Trazado 167908" d="M-1244.593-150.539c.979-.432,2.008-.107,3.009-.2q.026,1.071.052,2.142c-.355,0-.711.007-1.066.007C-1244.553-148.59-1244.553-148.59-1244.593-150.539Z" transform="translate(1262.233 245.529)" fill="#322f4c"/>
            <path id="Trazado_167909" data-name="Trazado 167909" d="M-1134.5-150.662l2.935.007c.2,2.142.2,2.142-1.928,2.14-.354,0-.708,0-1.063-.006Q-1134.527-149.591-1134.5-150.662Z" transform="translate(1183.959 245.452)" fill="#322f4c"/>
            <path id="Trazado_167910" data-name="Trazado 167910" d="M-1079.139-150.74c1,.093,2.033-.23,3.013.2-.046,1.949-.046,1.95-2,1.948-.355,0-.711,0-1.066-.007Q-1079.164-149.669-1079.139-150.74Z" transform="translate(1144.576 245.528)" fill="#322f4c"/>
            <path id="Trazado_167911" data-name="Trazado 167911" d="M-1023.87-150.681l2.946.045c.154,2.111.154,2.112-1.956,2.109-.353,0-.706-.009-1.06-.014Q-1023.905-149.611-1023.87-150.681Z" transform="translate(1105.275 245.465)" fill="#33304d"/>
          </g>
        </g>
      </g>
      <g id="Grupo_118839" data-name="Grupo 118839" transform="translate(687.139 111.101)">
        <g id="Grupo_118822-4" data-name="Grupo 118822" transform="translate(0)">
          <circle id="Elipse_6800-4" data-name="Elipse 6800" cx="97.672" cy="97.672" r="97.672" fill="#01cc9b"/>
          <circle id="Elipse_6801-3" data-name="Elipse 6801" cx="97.672" cy="97.672" r="97.672" fill="#fff"/>
          <g id="Grupo_118844" data-name="Grupo 118844" transform="translate(52.391 36.691)">
            <path id="Trazado_167912" data-name="Trazado 167912" d="M-1918.226-580.6c-.219-.451.195-.61.412-.829,2.55-2.565,5.127-5.1,7.653-7.69.511-.523.757-.4,1.2.044,2.514,2.552,5.039,5.093,7.6,7.593.545.531.49.825-.033,1.275-.651.558-1.206,1.6-1.875,1.662s-1.239-1.032-1.844-1.626c-.829-.816-1.616-1.675-2.383-2.476-.355.13-.282.328-.282.479q-.006,13.691,0,27.381c0,.205.031.411.048.617a8.412,8.412,0,0,1,0,5.023c-.016,2.95-.046,5.9-.044,8.848,0,5.007.026,10.015.041,15.022a1.786,1.786,0,0,1,.313,1.344c.029,1.116-.02,2.232.009,3.348-.007,7.16.053,14.32-.026,21.478a17.673,17.673,0,0,1-.007,2.266c-.085,1.08.029,1.981,1.3,2.241.309.012.618.034.928.034q42.265,0,84.53,0h1.218c-1.413-1.4-2.616-2.643-3.885-3.817-.547-.506-.657-.826-.02-1.333.668-.532,1.218-1.58,1.889-1.64.7-.062,1.248,1.033,1.852,1.63,2.133,2.1,4.232,4.244,6.372,6.342.447.439.568.686.044,1.2-2.588,2.526-5.126,5.1-7.691,7.652-.219.217-.378.631-.829.412a4.418,4.418,0,0,1-2.2-1.924c-.34-.45-.024-.856.279-1.2.711-.8,1.5-1.517,2.242-2.285a2.992,2.992,0,0,0,.742-.855c-.238-.3-.573-.174-.859-.174q-42.187-.008-84.375,0c-1.464,0-1.5.048-1.51,1.506-.006,1.274.005,2.547-.005,3.821a1.921,1.921,0,0,1-.321,1.373h-3.72a1.907,1.907,0,0,1-.323-1.363c-.012-1.436-.018-2.872,0-4.307.01-.741-.293-1.044-1.035-1.035-1.435.019-2.872.013-4.308,0a1.908,1.908,0,0,1-1.363-.323v-3.72a1.921,1.921,0,0,1,1.373-.321c1.411-.011,2.823-.022,4.234,0,.795.013,1.136-.321,1.1-1.1-.019-.377,0-.757,0-1.136q0-41.667,0-83.335a2.457,2.457,0,0,0-.124-1.2,16.434,16.434,0,0,0-2.292,2.161c-1.711,1.674-1.867,1.681-3.48-.1A1.514,1.514,0,0,1-1918.226-580.6Z" transform="translate(1918.489 589.464)" fill="#231f20"/>
            <path id="Trazado_167913" data-name="Trazado 167913" d="M-1870.563-477q0-2.511,0-5.023c4.44-4.423,8.9-8.83,13.3-13.286.671-.678,1-.774,1.73-.037,7.761,7.826,15.575,15.6,23.345,23.418.6.608.884.606,1.484,0,3.914-3.977,7.888-7.894,11.807-11.866.6-.606.909-.734,1.581-.038,2.7,2.8,5.5,5.505,8.224,8.288.6.612.9.711,1.571.03,6.763-6.827,13.583-13.6,20.35-20.421.648-.654,1-.684,1.557.023.484.617,1.474,1.127,1.511,1.729.043.711-.979,1.215-1.553,1.791q-10.947,10.973-21.9,21.941c-.609.613-.891.606-1.484,0-2.764-2.837-5.6-5.6-8.374-8.43-.518-.527-.78-.6-1.349-.025-3.987,4.049-8.032,8.042-12.024,12.088-.545.553-.8.546-1.349,0q-11.7-11.758-23.425-23.484c-.623-.626-.942-.738-1.63-.037-4.174,4.252-8.407,8.447-12.623,12.658C-1870.048-477.445-1870.311-477.225-1870.563-477Z" transform="translate(1881.319 517.312)" fill="#fe2c02"/>
            <path id="Trazado_167914" data-name="Trazado 167914" d="M-1870.575-365.554q0-2.29,0-4.579c2.163-1.7,4.34-3.387,6.475-5.124.5-.4.748-.351,1.174.077,2.668,2.682,8.055,8,8.055,8s7.749,7.5,10.271,10.081c.6.612,1.032.7,1.729.14,2.9-2.326,17.715-13.289,20.727-15.574,2.631-2,5.265-3.99,7.861-6.032.595-.468.922-.519,1.489.064,2.446,2.518,4.967,4.964,7.421,7.474.5.513.751.522,1.265.005,5.943-5.983,11.921-11.932,17.867-17.912.53-.533.885-.741,1.414-.034.509.68,1.649,1.143,1.6,1.885-.041.632-1.01,1.216-1.592,1.8q-9.6,9.606-19.191,19.218c-.556.559-.858.617-1.44.019-2.52-2.59-5.111-5.111-7.64-7.694-.524-.535-.85-.621-1.487-.127-4.54,3.521-9.118,7-13.681,10.487-.272.209-.786.665-.786.665l-2.779,2.133s-7.4,5.608-11.095,8.418c-1.161.882-1.153.887-2.165-.119-3.1-3.081-9.3-9.24-9.3-9.24l-2.689-2.4s-3.893-3.9-5.841-5.849c-.837-.837-.9-.825-1.872-.046-1.639,1.313-3.271,2.635-4.93,3.923C-1869.957-365.714-1870.15-365.32-1870.575-365.554Z" transform="translate(1881.331 434.319)" fill="#fecc00"/>
            <path id="Trazado_167915" data-name="Trazado 167915" d="M-1697.9-268.3l2.778-2.133s5.33,7.265,7.931,10.943c.567.8.861.717,1.522.138,3.314-2.9,6.678-5.747,10.014-8.624a1.832,1.832,0,0,1,1.286-.51q11.154.025,22.308,0c.605,0,.825.123.834.787.038,2.767.063,2.767-2.664,2.767q-9.45,0-18.9-.011a2.2,2.2,0,0,0-1.573.561c-4.035,3.49-8.1,6.94-12.138,10.43-.506.438-.739.464-1.148-.109Q-1692.747-261.2-1697.9-268.3Z" transform="translate(1747.405 342.036)" fill="#3d4e63"/>
            <path id="Trazado_167916" data-name="Trazado 167916" d="M-1777.05-344.917l-3.037,2.267s-.365-.493-.492-.668q-4.076-5.576-8.092-11.195c-.1-.14-.2-.281-.3-.418-.737-.98-.764-.982-1.469.071-2.276,3.4-7.583,11.164-7.583,11.164l-2.74-2.66s7.252-10.752,10.876-16.169a5.669,5.669,0,0,1,1.1,1.371q5.594,7.719,11.171,15.451Z" transform="translate(1827.187 413.457)" fill="#3d4e63"/>
            <path id="Trazado_167917" data-name="Trazado 167917" d="M-1857.3-276.142l2.759,2.472s-9.279,13.953-13.916,20.931c-.245.369-.458.761-.686,1.142a6.658,6.658,0,0,0-.716.025c-.723.1-.958-.2-.92-.919.058-1.125.029-2.255.036-3.383a8.363,8.363,0,0,1,.929-1.716C-1865.912-263.422-1857.3-276.142-1857.3-276.142Z" transform="translate(1881.494 346.461)" fill="#3d4e63"/>
          </g>
        </g>
      </g>
      <path id="Trazado_167855" data-name="Trazado 167855" d="M194.386,358.573a429.768,429.768,0,0,1,165.39-94.628,107.426,107.426,0,0,1-165.39,94.628Z" transform="translate(65.908 -59)" fill-rule="evenodd" opacity="0.15"/>
      <path id="Trazado_167856" data-name="Trazado 167856" d="M411.022,252.4a431.674,431.674,0,0,1,95.023,10.549,107.421,107.421,0,0,1-190.045,0A431.7,431.7,0,0,1,411.022,252.4Z" transform="translate(140.156 -66.049)" fill-rule="evenodd" opacity="0.15"/>
      <path id="Trazado_167857" data-name="Trazado 167857" d="M452.952,263.945a429.786,429.786,0,0,1,165.391,94.628,107.426,107.426,0,0,1-165.391-94.628Z" transform="translate(223.72 -59)" fill-rule="evenodd" opacity="0.15"/>
      <circle id="Elipse_6811" data-name="Elipse 6811" cx="107.395" cy="107.395" r="107.395" transform="translate(806.806 413.703) rotate(-58.105)" fill="#242ca3"/>
      <g id="Grupo_118840" data-name="Grupo 118840" transform="translate(857.058 281.593)">
        <g id="Grupo_118822-5" data-name="Grupo 118822" transform="translate(0)">
          <circle id="Elipse_6800-5" data-name="Elipse 6800" cx="97.672" cy="97.672" r="97.672" fill="#01cc9b"/>
          <path id="Trazado_169689" data-name="Trazado 169689" d="M97.672,0A97.672,97.672,0,1,1,0,97.672,97.672,97.672,0,0,1,97.672,0Z" fill="#fff"/>
        </g>
        <g id="Grupo_118845" data-name="Grupo 118845" transform="translate(30.361 56.693)">
          <g id="Grupo_118845-2" data-name="Grupo 118845" transform="translate(0 7.907)">
            <line id="Línea_236" data-name="Línea 236" x2="136.842" transform="translate(0 53.53)" fill="none" stroke="#b2b2b2" stroke-miterlimit="10" stroke-width="1"/>
            <line id="Línea_237" data-name="Línea 237" x2="136.842" transform="translate(0 48.119)" fill="none" stroke="#b2b2b2" stroke-miterlimit="10" stroke-width="1"/>
            <line id="Línea_238" data-name="Línea 238" x2="129.112" transform="translate(7.73 42.708)" fill="none" stroke="#b2b2b2" stroke-miterlimit="10" stroke-width="1"/>
            <line id="Línea_239" data-name="Línea 239" x2="136.842" transform="translate(0 37.298)" fill="none" stroke="#b2b2b2" stroke-miterlimit="10" stroke-width="1"/>
            <line id="Línea_240" data-name="Línea 240" x2="129.197" transform="translate(7.645 31.887)" fill="none" stroke="#b2b2b2" stroke-miterlimit="10" stroke-width="1"/>
            <line id="Línea_241" data-name="Línea 241" x2="136.842" transform="translate(0 26.717)" fill="none" stroke="#b2b2b2" stroke-miterlimit="10" stroke-width="1"/>
            <line id="Línea_242" data-name="Línea 242" x2="129.282" transform="translate(7.56 21.306)" fill="none" stroke="#b2b2b2" stroke-miterlimit="10" stroke-width="1"/>
            <line id="Línea_243" data-name="Línea 243" x2="136.842" transform="translate(0 15.896)" fill="none" stroke="#b2b2b2" stroke-miterlimit="10" stroke-width="1"/>
            <line id="Línea_244" data-name="Línea 244" x2="136.842" transform="translate(0 5.289)" fill="none" stroke="#b2b2b2" stroke-miterlimit="10" stroke-width="1"/>
            <line id="Línea_245" data-name="Línea 245" x2="129.027" transform="translate(7.815 10.723)" fill="none" stroke="#b2b2b2" stroke-miterlimit="10" stroke-width="1"/>
            <line id="Línea_246" data-name="Línea 246" x2="129.027" transform="translate(7.815 0)" fill="none" stroke="#b2b2b2" stroke-miterlimit="10" stroke-width="1"/>
          </g>
          <g id="Grupo_118846" data-name="Grupo 118846" transform="translate(108.672 15.19)">
            <path id="Trazado_167918" data-name="Trazado 167918" d="M-1787.316-532.272c.217.063.433.129.651.19a4.994,4.994,0,0,1,3.585,5.619,5,5,0,0,1-5.152,4.169,4.972,4.972,0,0,1-4.739-4.515,4.982,4.982,0,0,1,3.955-5.361c.108-.024.212-.068.318-.1Z" transform="translate(1798.368 532.272)"/>
            <path id="Trazado_167919" data-name="Trazado 167919" d="M-1833.66-410.27q0-7.06,0-14.12c0-.148.044-.324-.02-.437-.086-.151-.254-.346-.394-.352s-.336.169-.423.315a1.024,1.024,0,0,0-.037.483c0,3.851,0,7.7,0,11.553a1.762,1.762,0,0,1-2.2,1.806,1.8,1.8,0,0,1-1.356-1.83c-.008-1.679,0-3.357,0-5.036q0-4.616,0-9.232a4.441,4.441,0,0,1,4.732-4.722q5.628,0,11.257,0a4.438,4.438,0,0,1,4.728,4.727q0,7.085,0,14.169a1.793,1.793,0,0,1-2.146,1.935,1.748,1.748,0,0,1-1.41-1.822q-.009-4.345,0-8.689c0-.987,0-1.975,0-2.962,0-.346-.009-.723-.468-.708-.429.014-.41.384-.41.707q0,14.145,0,28.289a2.758,2.758,0,0,1-2.235,2.9,2.729,2.729,0,0,1-3.193-2.168,5.637,5.637,0,0,1-.065-.933q-.006-7.751-.009-15.5c0-.357.186-.92-.412-.933s-.434.551-.435.91q-.013,7.825-.008,15.651a2.784,2.784,0,0,1-1.836,2.812,2.739,2.739,0,0,1-3.648-2.588c-.019-2.386-.005-4.773-.005-7.159Q-1833.66-406.739-1833.66-410.27Z" transform="translate(1838.098 443.81)"/>
          </g>
          <g id="Grupo_118847" data-name="Grupo 118847" transform="translate(88.255 19.924)">
            <path id="Trazado_167920" data-name="Trazado 167920" d="M-1963.53-492.542c.2.057.392.117.589.172a4.516,4.516,0,0,1,3.242,5.081,4.522,4.522,0,0,1-4.659,3.77,4.5,4.5,0,0,1-4.286-4.082,4.505,4.505,0,0,1,3.577-4.848c.1-.022.192-.062.287-.093Z" transform="translate(1973.524 492.542)"/>
            <path id="Trazado_167921" data-name="Trazado 167921" d="M-2005.438-382.218q0-6.384,0-12.768c0-.134.04-.293-.018-.4-.078-.137-.23-.313-.357-.318s-.3.153-.383.285a.928.928,0,0,0-.033.437c0,3.482,0,6.965,0,10.447a1.593,1.593,0,0,1-1.987,1.633,1.625,1.625,0,0,1-1.227-1.655c-.007-1.518,0-3.036,0-4.554q0-4.174,0-8.349a4.016,4.016,0,0,1,4.28-4.27q5.09,0,10.179,0a4.013,4.013,0,0,1,4.275,4.274q0,6.406,0,12.813a1.622,1.622,0,0,1-1.94,1.75,1.58,1.58,0,0,1-1.275-1.648q-.008-3.929,0-7.858c0-.893,0-1.786,0-2.679,0-.313-.008-.654-.423-.64-.388.013-.371.348-.371.64q0,12.791,0,25.582a2.494,2.494,0,0,1-2.021,2.619,2.467,2.467,0,0,1-2.887-1.961,5.076,5.076,0,0,1-.058-.844q-.005-7.009-.009-14.019c0-.323.168-.832-.372-.843s-.393.5-.394.823q-.012,7.076-.007,14.152a2.518,2.518,0,0,1-1.661,2.543,2.477,2.477,0,0,1-3.3-2.341c-.017-2.158,0-4.316,0-6.473Q-2005.438-379.026-2005.438-382.218Z" transform="translate(2009.451 412.548)"/>
          </g>
          <g id="Grupo_118848" data-name="Grupo 118848" transform="translate(69.209 23.13)">
            <path id="Trazado_167922" data-name="Trazado 167922" d="M-2126.482-465.644c.183.054.365.109.549.16a4.21,4.21,0,0,1,3.022,4.736,4.216,4.216,0,0,1-4.343,3.514,4.192,4.192,0,0,1-4-3.806,4.2,4.2,0,0,1,3.334-4.519c.091-.02.179-.057.268-.087Z" transform="translate(2135.799 465.644)"/>
            <path id="Trazado_167923" data-name="Trazado 167923" d="M-2165.549-362.8v-11.9c0-.125.037-.273-.017-.369-.073-.128-.214-.292-.332-.3s-.283.143-.357.266a.868.868,0,0,0-.031.407c0,3.246,0,6.493,0,9.739a1.485,1.485,0,0,1-1.852,1.523,1.514,1.514,0,0,1-1.143-1.543c-.007-1.415,0-2.83,0-4.245q0-3.891,0-7.783a3.744,3.744,0,0,1,3.99-3.98q4.745,0,9.489,0a3.741,3.741,0,0,1,3.986,3.985q0,5.972,0,11.945a1.512,1.512,0,0,1-1.809,1.631,1.473,1.473,0,0,1-1.189-1.536q-.008-3.662,0-7.325c0-.832,0-1.665,0-2.5,0-.292-.008-.609-.395-.6-.362.012-.346.324-.346.6q0,11.924,0,23.848a2.325,2.325,0,0,1-1.884,2.442,2.3,2.3,0,0,1-2.691-1.828,4.813,4.813,0,0,1-.054-.787q0-6.534-.008-13.068c0-.3.157-.775-.347-.786s-.366.465-.367.767q-.011,6.6-.006,13.193a2.347,2.347,0,0,1-1.548,2.371,2.309,2.309,0,0,1-3.075-2.182c-.016-2.011,0-4.023,0-6.035Z" transform="translate(2169.29 391.07)"/>
          </g>
          <g id="Grupo_118849" data-name="Grupo 118849" transform="translate(53.427 29.213)">
            <path id="Trazado_167924" data-name="Trazado 167924" d="M-2265.129-414.585c.156.046.312.093.469.137a3.6,3.6,0,0,1,2.585,4.052,3.606,3.606,0,0,1-3.715,3.006,3.586,3.586,0,0,1-3.417-3.255,3.593,3.593,0,0,1,2.852-3.865c.078-.017.153-.049.229-.074Z" transform="translate(2273.099 414.585)"/>
            <path id="Trazado_167925" data-name="Trazado 167925" d="M-2298.546-326.611q0-5.091,0-10.182c0-.107.032-.234-.014-.315-.062-.109-.183-.249-.284-.254s-.242.122-.305.227a.743.743,0,0,0-.026.349c0,2.777,0,5.554,0,8.33a1.271,1.271,0,0,1-1.584,1.3,1.3,1.3,0,0,1-.979-1.32c-.006-1.21,0-2.421,0-3.631q0-3.329,0-6.657a3.2,3.2,0,0,1,3.412-3.4q4.059,0,8.117,0a3.2,3.2,0,0,1,3.409,3.408q0,5.109,0,10.217a1.293,1.293,0,0,1-1.547,1.4,1.261,1.261,0,0,1-1.017-1.314q-.006-3.133,0-6.266c0-.712,0-1.424,0-2.136,0-.25-.007-.521-.338-.51-.31.01-.3.277-.3.51q0,10.2,0,20.4a1.989,1.989,0,0,1-1.612,2.089,1.967,1.967,0,0,1-2.3-1.564,4.051,4.051,0,0,1-.047-.673q0-5.589-.007-11.178c0-.258.134-.663-.3-.673s-.313.4-.314.656q-.01,5.643-.005,11.285a2.008,2.008,0,0,1-1.324,2.028,1.975,1.975,0,0,1-2.631-1.866c-.014-1.72,0-3.441,0-5.162Q-2298.547-324.066-2298.546-326.611Z" transform="translate(2301.746 350.796)"/>
          </g>
          <g id="Grupo_118850" data-name="Grupo 118850" transform="translate(39.371 33.995)">
            <path id="Trazado_167926" data-name="Trazado 167926" d="M-2387.813-374.454c.136.04.272.081.409.119a3.136,3.136,0,0,1,2.252,3.529,3.141,3.141,0,0,1-3.236,2.619,3.123,3.123,0,0,1-2.977-2.836,3.129,3.129,0,0,1,2.484-3.367c.068-.015.133-.043.2-.064Z" transform="translate(2394.755 374.454)"/>
            <path id="Trazado_167927" data-name="Trazado 167927" d="M-2416.921-297.823q0-4.435,0-8.869c0-.093.028-.2-.013-.275-.054-.1-.16-.217-.248-.221s-.211.106-.266.2a.643.643,0,0,0-.023.3c0,2.419,0,4.838,0,7.256a1.107,1.107,0,0,1-1.38,1.135,1.129,1.129,0,0,1-.852-1.15c-.005-1.054,0-2.109,0-3.163q0-2.9,0-5.8a2.79,2.79,0,0,1,2.972-2.966q3.535,0,7.071,0a2.787,2.787,0,0,1,2.969,2.969q0,4.45,0,8.9a1.126,1.126,0,0,1-1.348,1.216,1.1,1.1,0,0,1-.886-1.145q-.005-2.729,0-5.458,0-.93,0-1.861c0-.218-.006-.454-.294-.444-.27.009-.258.241-.257.444q0,8.884,0,17.769a1.732,1.732,0,0,1-1.4,1.819,1.714,1.714,0,0,1-2.005-1.362,3.51,3.51,0,0,1-.041-.586q0-4.868-.006-9.737c0-.224.117-.578-.258-.586s-.273.346-.273.571q-.008,4.915,0,9.83a1.75,1.75,0,0,1-1.153,1.767,1.721,1.721,0,0,1-2.292-1.626c-.012-1.5,0-3,0-4.5Z" transform="translate(2419.709 318.89)"/>
          </g>
          <g id="Grupo_118851" data-name="Grupo 118851" transform="translate(27.141 38.85)">
            <path id="Trazado_167928" data-name="Trazado 167928" d="M-2495.393-333.714c.115.034.23.069.345.1a2.651,2.651,0,0,1,1.9,2.982,2.654,2.654,0,0,1-2.735,2.213,2.639,2.639,0,0,1-2.515-2.4,2.644,2.644,0,0,1,2.1-2.845c.057-.013.113-.036.169-.055Z" transform="translate(2501.259 333.714)"/>
            <path id="Trazado_167929" data-name="Trazado 167929" d="M-2519.992-268.956q0-3.747,0-7.495c0-.078.023-.172-.011-.232-.046-.08-.135-.184-.209-.187s-.178.09-.225.167a.548.548,0,0,0-.02.257c0,2.044,0,4.088,0,6.132a.936.936,0,0,1-1.167.959.953.953,0,0,1-.72-.971c0-.891,0-1.782,0-2.673q0-2.45,0-4.9a2.357,2.357,0,0,1,2.512-2.506q2.988,0,5.975,0a2.356,2.356,0,0,1,2.51,2.509q0,3.761,0,7.521a.952.952,0,0,1-1.139,1.027.928.928,0,0,1-.749-.967q0-2.306,0-4.612c0-.524,0-1.048,0-1.572,0-.184,0-.384-.249-.376-.228.008-.218.2-.218.375q0,7.508,0,15.016a1.464,1.464,0,0,1-1.186,1.537,1.448,1.448,0,0,1-1.695-1.151,2.973,2.973,0,0,1-.034-.5q0-4.114-.005-8.229c0-.19.1-.488-.218-.5s-.23.293-.231.483q-.007,4.153,0,8.307a1.478,1.478,0,0,1-.974,1.493,1.454,1.454,0,0,1-1.937-1.374c-.01-1.266,0-2.533,0-3.8Q-2519.992-267.083-2519.992-268.956Z" transform="translate(2522.347 286.759)"/>
          </g>
          <g id="Grupo_118852" data-name="Grupo 118852" transform="translate(15.433 42.267)">
            <path id="Trazado_167930" data-name="Trazado 167930" d="M-2597.016-305.031c.1.03.2.06.3.088a2.32,2.32,0,0,1,1.665,2.61,2.323,2.323,0,0,1-2.393,1.937,2.31,2.31,0,0,1-2.2-2.1,2.314,2.314,0,0,1,1.837-2.49c.05-.011.1-.032.148-.048Z" transform="translate(2602.15 305.031)"/>
            <path id="Trazado_167931" data-name="Trazado 167931" d="M-2618.543-248.358q0-3.28,0-6.559c0-.069.02-.15-.01-.2-.04-.07-.118-.161-.183-.163s-.156.079-.2.146a.476.476,0,0,0-.017.225c0,1.789,0,3.578,0,5.366a.819.819,0,0,1-1.021.839.834.834,0,0,1-.63-.85c0-.78,0-1.559,0-2.339q0-2.144,0-4.289a2.063,2.063,0,0,1,2.2-2.193q2.614,0,5.229,0a2.061,2.061,0,0,1,2.2,2.2q0,3.291,0,6.582a.833.833,0,0,1-1,.9.812.812,0,0,1-.655-.846c0-1.345,0-2.691,0-4.036,0-.459,0-.917,0-1.376,0-.161,0-.336-.218-.329s-.19.178-.19.329q0,6.571,0,13.141a1.281,1.281,0,0,1-1.038,1.345,1.268,1.268,0,0,1-1.483-1.007,2.6,2.6,0,0,1-.03-.434q0-3.6,0-7.2c0-.166.086-.427-.191-.433s-.2.256-.2.423q-.005,3.635,0,7.27a1.293,1.293,0,0,1-.853,1.306,1.272,1.272,0,0,1-1.695-1.2c-.009-1.108,0-2.217,0-3.325Z" transform="translate(2620.605 263.938)"/>
          </g>
          <rect id="Rectángulo_42867" data-name="Rectángulo 42867" width="128.942" height="0.637" transform="translate(7.39 66.848)"/>
          <rect id="Rectángulo_42868" data-name="Rectángulo 42868" width="70.139" height="0.637" transform="translate(9.714 70.139) rotate(-90)"/>
          <path id="Trazado_167932" data-name="Trazado 167932" d="M-1606.632-113.7l1.908,1.107-1.913,1.1-1.913,1.1,0-2.206.005-2.206Z" transform="translate(1744.574 179.742)"/>
          <line id="Línea_247" data-name="Línea 247" y2="3.355" transform="translate(20.089 67.09)" fill="none" stroke="#000" stroke-miterlimit="10" stroke-width="4"/>
          <line id="Línea_248" data-name="Línea 248" x1="3.355" transform="translate(6.732 40.01)" fill="none" stroke="#000" stroke-miterlimit="10" stroke-width="4"/>
          <line id="Línea_249" data-name="Línea 249" x1="3.355" transform="translate(6.732 29.188)" fill="none" stroke="#000" stroke-miterlimit="10" stroke-width="4"/>
          <line id="Línea_250" data-name="Línea 250" x1="3.355" transform="translate(6.732 18.607)" fill="none" stroke="#000" stroke-miterlimit="10" stroke-width="4"/>
          <line id="Línea_251" data-name="Línea 251" x1="3.355" transform="translate(6.732 7.786)" fill="none" stroke="#000" stroke-miterlimit="10" stroke-width="4"/>
          <line id="Línea_252" data-name="Línea 252" y2="3.355" transform="translate(32.434 67.133)" fill="none" stroke="#000" stroke-miterlimit="10" stroke-width="4"/>
          <line id="Línea_253" data-name="Línea 253" y2="3.355" transform="translate(45.897 67.133)" fill="none" stroke="#000" stroke-miterlimit="10" stroke-width="4"/>
          <line id="Línea_254" data-name="Línea 254" y2="3.355" transform="translate(60.734 67.133)" fill="none" stroke="#000" stroke-miterlimit="10" stroke-width="4"/>
          <line id="Línea_255" data-name="Línea 255" y2="3.355" transform="translate(77.892 67.133)" fill="none" stroke="#000" stroke-miterlimit="10" stroke-width="4"/>
          <line id="Línea_256" data-name="Línea 256" y2="3.355" transform="translate(97.8 67.133)" fill="none" stroke="#000" stroke-miterlimit="10" stroke-width="4"/>
          <line id="Línea_257" data-name="Línea 257" y2="3.355" transform="translate(118.919 67.133)" fill="none" stroke="#000" stroke-miterlimit="10" stroke-width="4"/>
          <line id="Línea_258" data-name="Línea 258" x1="3.355" transform="translate(6.732 50.831)" fill="none" stroke="#000" stroke-miterlimit="10" stroke-width="4"/>
        </g>
      </g>
      <path id="Trazado_167859" data-name="Trazado 167859" d="M575.863,336.238a430.055,430.055,0,0,1,97.364,165.443,107.432,107.432,0,0,1-97.364-165.443Z" transform="translate(288.326 -14.863)" fill-rule="evenodd" opacity="0.15"/>
      <g id="Grupo_118835" data-name="Grupo 118835" transform="translate(102.431 197.941)">
        <path id="Trazado_167860" data-name="Trazado 167860" d="M545.113,444.338c247.836,0,448.746,2.487,448.746,5.556s-200.91,5.555-448.746,5.555-448.746-2.487-448.746-5.555S297.277,444.338,545.113,444.338Z" transform="translate(-96.367 -146.806)" stroke="#2a5869" stroke-miterlimit="22.926" stroke-width="0.567" fill-rule="evenodd" opacity="0.15"/>
        <path id="Trazado_167861" data-name="Trazado 167861" d="M526.386,259.6c190.326,0,350.671,128.278,399.346,303.088H127.04C175.715,387.874,336.061,259.6,526.386,259.6Z" transform="translate(-77.64 -259.596)" fill="#fff" fill-rule="evenodd"/>
        <g id="Grupo_118834" data-name="Grupo 118834" transform="translate(49.4)">
          <g id="Grupo_118833" data-name="Grupo 118833" clip-path="url(#clip-path)">
            <g id="Grupo_118832" data-name="Grupo 118832">
              <path id="Trazado_167862" data-name="Trazado 167862" d="M127.04,562.684C175.715,387.874,336.061,259.6,526.386,259.6S877.058,387.874,925.733,562.684" transform="translate(-127.04 -259.596)" fill="none" stroke="#fff" stroke-linecap="round" stroke-linejoin="round" stroke-width="14.4" fill-rule="evenodd"/>
            </g>
          </g>
        </g>
      </g>
    </g>
    <g id="Grupo_120605" data-name="Grupo 120605" transform="translate(21.965 33.11)">
      <g id="Grupo_118853" data-name="Grupo 118853" transform="translate(608.754 3905.467)">
        <path id="Trazado_167933" data-name="Trazado 167933" d="M345.379,175.325H322.269l-4.27,2.26V312.26h23.11l4.269-2.26Z" transform="translate(-230.89 -175.325)" fill="#ff004c"/>
        <path id="Trazado_167934" data-name="Trazado 167934" d="M270.744,254.444V342h23.109l4.27-2.26v-87.56h-23.11Z" transform="translate(-212.602 -205.07)" fill="#febf10"/>
        <path id="Trazado_167935" data-name="Trazado 167935" d="M223.488,281.426v71.021H246.6l4.269-2.26V279.166H227.758Z" transform="translate(-194.314 -215.512)" fill="#242ca3"/>
        <path id="Trazado_167936" data-name="Trazado 167936" d="M175.9,308.856v54.206H199l4.269-2.26V306.6H180.165Z" transform="translate(-175.895 -226.127)" fill="#687687"/>
        <rect id="Rectángulo_42869" data-name="Rectángulo 42869" width="23.109" height="134.675" transform="translate(87.109 2.26)" fill="#ff2f6d"/>
        <rect id="Rectángulo_42870" data-name="Rectángulo 42870" width="23.109" height="87.56" transform="translate(58.142 49.375)" fill="#fbeb5c"/>
        <rect id="Rectángulo_42871" data-name="Rectángulo 42871" width="23.109" height="71.021" transform="translate(29.174 65.914)" fill="#757ac6"/>
        <rect id="Rectángulo_42872" data-name="Rectángulo 42872" width="23.109" height="54.206" transform="translate(0 82.729)" fill="#bec6d0"/>
      </g>
      <rect id="Rectángulo_42873" data-name="Rectángulo 42873" width="51" height="6" transform="translate(608.69 4050.142)" fill="#242ca3"/>
      <rect id="Rectángulo_42877" data-name="Rectángulo 42877" width="52" height="6" transform="translate(670.69 4050.142)" fill="#242ca3"/>
      <rect id="Rectángulo_42874" data-name="Rectángulo 42874" width="51" height="7" transform="translate(608.69 4061.142)" fill="#242ca3"/>
      <rect id="Rectángulo_42878" data-name="Rectángulo 42878" width="52" height="7" transform="translate(670.69 4061.142)" fill="#242ca3"/>
      <rect id="Rectángulo_42875" data-name="Rectángulo 42875" width="51" height="6" transform="translate(608.69 4072.142)" fill="#242ca3"/>
      <rect id="Rectángulo_42876" data-name="Rectángulo 42876" width="52" height="6" transform="translate(670.69 4072.142)" fill="#242ca3"/>
    </g>
  </g>
</svg>
