<svg xmlns="http://www.w3.org/2000/svg" width="210.109" height="175.606" viewBox="0 0 210.109 175.606">
  <g id="Grupo_119036" data-name="Grupo 119036" transform="translate(-733.82 -276)">
    <g id="Grupo_119035" data-name="Grupo 119035" transform="translate(733.93 276)">
      <path id="Trazado_168388" data-name="Trazado 168388" d="M943.93,451.606h-210V276h6.807V445.914H943.93Z" transform="translate(-733.93 -276)" fill="#242ca3"/>
      <rect id="Rectángulo_42927" data-name="Rectángulo 42927" width="11.518" height="6.159" transform="translate(3.08 139.913)" fill="#242ca3"/>
      <rect id="Rectángulo_42928" data-name="Rectángulo 42928" width="11.518" height="6.159" transform="translate(3.08 130.684)" fill="#242ca3"/>
      <rect id="Rectángulo_42929" data-name="Rectángulo 42929" width="11.518" height="6.159" transform="translate(3.08 117.76)" fill="#242ca3"/>
      <rect id="Rectángulo_42930" data-name="Rectángulo 42930" width="11.518" height="6.159" transform="translate(3.08 104.837)" fill="#242ca3"/>
      <rect id="Rectángulo_42931" data-name="Rectángulo 42931" width="11.518" height="6.159" transform="translate(3.08 91.914)" fill="#242ca3"/>
      <rect id="Rectángulo_42932" data-name="Rectángulo 42932" width="11.518" height="6.159" transform="translate(3.08 78.997)" fill="#242ca3"/>
      <rect id="Rectángulo_42933" data-name="Rectángulo 42933" width="11.518" height="6.159" transform="translate(3.08 66.074)" fill="#242ca3"/>
      <rect id="Rectángulo_42934" data-name="Rectángulo 42934" width="11.518" height="6.159" transform="translate(3.08 53.15)" fill="#242ca3"/>
      <rect id="Rectángulo_42935" data-name="Rectángulo 42935" width="11.518" height="6.159" transform="translate(3.08 40.227)" fill="#242ca3"/>
      <rect id="Rectángulo_42936" data-name="Rectángulo 42936" width="11.518" height="6.159" transform="translate(3.08 31.214)" fill="#242ca3"/>
      <rect id="Rectángulo_42937" data-name="Rectángulo 42937" width="6.159" height="11.518" transform="translate(174.209 161.009)" fill="#242ca3"/>
      <rect id="Rectángulo_42938" data-name="Rectángulo 42938" width="6.159" height="11.518" transform="translate(155.44 161.009)" fill="#242ca3"/>
      <rect id="Rectángulo_42939" data-name="Rectángulo 42939" width="6.159" height="11.518" transform="translate(139.897 161.009)" fill="#242ca3"/>
      <rect id="Rectángulo_42940" data-name="Rectángulo 42940" width="6.159" height="11.518" transform="translate(124.352 161.009)" fill="#242ca3"/>
      <rect id="Rectángulo_42941" data-name="Rectángulo 42941" width="6.159" height="11.518" transform="translate(108.806 161.009)" fill="#242ca3"/>
      <rect id="Rectángulo_42942" data-name="Rectángulo 42942" width="6.159" height="11.518" transform="translate(93.267 161.009)" fill="#242ca3"/>
      <rect id="Rectángulo_42943" data-name="Rectángulo 42943" width="6.159" height="11.518" transform="translate(77.721 161.009)" fill="#242ca3"/>
      <rect id="Rectángulo_42944" data-name="Rectángulo 42944" width="6.159" height="11.518" transform="translate(62.176 161.009)" fill="#242ca3"/>
      <rect id="Rectángulo_42945" data-name="Rectángulo 42945" width="6.159" height="11.518" transform="translate(46.63 161.009)" fill="#242ca3"/>
      <rect id="Rectángulo_42946" data-name="Rectángulo 42946" width="6.159" height="11.518" transform="translate(28.041 161.009)" fill="#242ca3"/>
      <path id="Trazado_168389" data-name="Trazado 168389" d="M756.674,419.693a8.177,8.177,0,1,1,8.18,8.174A8.179,8.179,0,0,1,756.674,419.693Z" transform="translate(-733.734 -286.158)" fill="#ff004c"/>
      <path id="Trazado_168390" data-name="Trazado 168390" d="M784.469,377.991a8.18,8.18,0,1,1,8.181,8.18A8.176,8.176,0,0,1,784.469,377.991Z" transform="translate(-727.623 -283.033)" fill="#febf10"/>
      <path id="Trazado_168391" data-name="Trazado 168391" d="M881.765,377.991a8.179,8.179,0,1,1,8.181,8.18A8.174,8.174,0,0,1,881.765,377.991Z" transform="translate(-712.657 -283.033)" fill="#febf10"/>
      <path id="Trazado_168392" data-name="Trazado 168392" d="M798.37,322.394a8.177,8.177,0,1,1,8.18,8.18A8.176,8.176,0,0,1,798.37,322.394Z" transform="translate(-725.889 -278.865)" fill="#f48f31"/>
      <path id="Trazado_168393" data-name="Trazado 168393" d="M812.271,405.792a8.177,8.177,0,1,1,8.18,8.174A8.177,8.177,0,0,1,812.271,405.792Z" transform="translate(-724.154 -285.116)" fill="#febf10"/>
      <path id="Trazado_168394" data-name="Trazado 168394" d="M853.967,391.891a8.177,8.177,0,1,1,8.18,8.181A8.176,8.176,0,0,1,853.967,391.891Z" transform="translate(-718.952 -284.075)" fill="#ff004c"/>
      <path id="Trazado_168395" data-name="Trazado 168395" d="M867.868,433.594a8.177,8.177,0,1,1,8.177,8.174A8.173,8.173,0,0,1,867.868,433.594Z" transform="translate(-717.217 -289.101)" fill="#ff004c"/>
      <path id="Trazado_168396" data-name="Trazado 168396" d="M826.166,350.195a8.177,8.177,0,1,1,8.18,8.175A8.18,8.18,0,0,1,826.166,350.195Z" transform="translate(-722.421 -280.949)" fill="#ff004c"/>
      <path id="Trazado_168397" data-name="Trazado 168397" d="M881.765,336.294a8.179,8.179,0,1,1,8.181,8.181A8.179,8.179,0,0,1,881.765,336.294Z" transform="translate(-712.657 -279.907)" fill="#f48f31"/>
    </g>
    <path id="Trazado_168398" data-name="Trazado 168398" d="M0,157.96,182.04,0" transform="translate(738.052 289.247)" fill="none" stroke="#242ca3" stroke-linecap="round" stroke-width="6"/>
  </g>
</svg>
