<svg xmlns="http://www.w3.org/2000/svg" width="124" height="124" viewBox="0 0 124 124">
  <g id="Grupo_120585" data-name="Grupo 120585" transform="translate(-373.5 -488.408)">
    <g id="Elipse_6817" data-name="Elipse 6817" transform="translate(373.5 488.408)" fill="#fff" stroke="#2631a0" stroke-width="4">
      <circle cx="62" cy="62" r="62" stroke="none"/>
      <circle cx="62" cy="62" r="60" fill="none"/>
    </g>
    <g id="Grupo_120520" data-name="Grupo 120520" transform="translate(-132.499 456.135)">
      <path id="Trazado_169580" data-name="Trazado 169580" d="M581.659,141.578a44.825,44.825,0,0,1-9.718-3.835,1.031,1.031,0,0,1-.342-.658q-1.235-5.55-2.438-11.106a1.126,1.126,0,0,1-.006-.469c.407-.562,1.09-.394,1.63-.607.322-.127.678-.153,1.077-.3-.668-1.22-1.385-2.394-2.049-3.6-.823-1.494-1.809-2.9-2.521-4.454a.334.334,0,0,1,.159-.246,53.011,53.011,0,0,1,7.214-1.583c7.566,1.084,15.116,2.271,22.675,3.4q6.069.908,12.136,1.83a6.137,6.137,0,0,1,.933.178c.652.424.473,1.193.726,1.784a1.516,1.516,0,0,0,1.615,1.039,1.589,1.589,0,0,0,1.216-1.5,4.519,4.519,0,0,0-.152-1.126c-.646-2.967-1.274-5.939-1.946-8.9-.518-2.283-.972-4.58-1.5-6.861a2.064,2.064,0,0,1-.08-1.213c.241-.383.672-.449,1.042-.613a6.125,6.125,0,0,0,3.715-6.95,6.353,6.353,0,0,0-5.75-4.988,3.348,3.348,0,0,0-1.64.363c-.327-.128-.325-.437-.384-.708-1.126-5.223-2.3-10.436-3.433-15.656a11.566,11.566,0,0,0-.51-1.923,1.432,1.432,0,0,0-2.792.605c.007.636.323,1.226.269,1.869-1.777,1.255-3.626,2.4-5.451,3.589q-5.26,3.415-10.512,6.843c-4.836,3.138-9.626,6.345-14.5,9.431-2.926.826-5.92,1.347-8.88,2.017-3.424.775-6.857,1.509-10.288,2.255-.278.061-.558.113-.839.162-.655.113-1.061-.047-.961-.826a6.832,6.832,0,0,1,.066-1.224,43.365,43.365,0,0,1,8.765-24.319c.226-.3.5-.57.745-.853.29.063.4.3.491.536a12.1,12.1,0,0,0,3.291,4.491,2.487,2.487,0,0,1,.8,2.476,27.343,27.343,0,0,1-2.031,7.515,36.472,36.472,0,0,0,6.74-4.413,4.474,4.474,0,0,1,4.108-1.064,18.587,18.587,0,0,0,16.247-4.62,11.985,11.985,0,0,0,1.669-16.281,16.985,16.985,0,0,0-3.765-3.6c-.3-.213-.7-.354-.734-.81a13.679,13.679,0,0,1,3.442-.531,43.245,43.245,0,0,1,29.646,8.4,6.293,6.293,0,0,1,.55.516,1.949,1.949,0,0,1-1.451.292c-2.918.012-5.836,0-8.754.009-1.258.005-1.354.1-1.358,1.357q-.013,4.282,0,8.564c0,1.186.075,1.265,1.219,1.267q7.422.012,14.844,0c1.154,0,1.21-.07,1.219-1.261.009-1.142-.011-2.284.01-3.426.007-.4-.037-.837.331-1.143a38.83,38.83,0,0,1,6.983,10.563,43.293,43.293,0,0,1,3.365,25.645c-.2,1.15-.451,2.291-.678,3.436-.394.378-.893.262-1.354.262q-7.733.014-15.467.008a4.165,4.165,0,0,0-1.224.075.682.682,0,0,0-.238.233c-.157,2.307-.035,4.615-.064,6.921-.019,1.549-.011,3.1,0,4.648.008,1.161.087,1.249,1.235,1.253,3.131.012,6.262,0,9.392.011.492,0,1.026-.1,1.43.321A43.289,43.289,0,0,1,606.881,140.8a2.986,2.986,0,0,0-1.291.552,2.172,2.172,0,0,1-1.626-1.652,1.048,1.048,0,0,1,.543-1.293,3.3,3.3,0,0,1,.8-.3c1.429-.413,1.388-.414,1.432-1.875.026-.872-.236-1.4-1.147-1.527a3.253,3.253,0,0,1-.99-.332,1.155,1.155,0,0,1-.4-1.886,4.844,4.844,0,0,1,.664-.68,1.139,1.139,0,0,0,.2-1.672c-.814-1.413-.835-1.537-2.357-.966a1.291,1.291,0,0,1-1.752-1.725c.042-.119,0,.032.024-.092a1.853,1.853,0,0,0-1.568-2.58.782.782,0,0,0-.772.241c-.326.3-.614.644-.959.924a1.213,1.213,0,0,1-2-.525c-.023-.059-.038-.121-.057-.182-.593-1.856-.215-1.7-2.532-1.7a.844.844,0,0,0-.936.745,5.642,5.642,0,0,1-.411,1.265,1.1,1.1,0,0,1-1.732.468,4.028,4.028,0,0,1-.958-.776.993.993,0,0,0-1.5-.165c-.264.174-.537.339-.815.489a.851.851,0,0,0-.431,1.121,8.149,8.149,0,0,1,.319,1.194,1.143,1.143,0,0,1-1.344,1.37c-.126-.015-.249-.047-.373-.074-1.721-.372-1.69-.354-2.555,1.136a1.082,1.082,0,0,0,.228,1.5c1.592,1.672,1.449,2.243-.748,2.928-.645.2-.991.511-.912,1.211a2.984,2.984,0,0,1,0,.665,1.159,1.159,0,0,0,1.085,1.468,2.787,2.787,0,0,1,.638.189,1.247,1.247,0,0,1,.476,2.23C582.7,140.919,582.4,141.555,581.659,141.578Z" transform="translate(-24.102 -5.643)" fill="#7dcddb"/>
      <path id="Trazado_169581" data-name="Trazado 169581" d="M611.813,51.008a16.979,16.979,0,0,1,5.483,5.435,12.211,12.211,0,0,1-1.238,14.1,18.209,18.209,0,0,1-12.329,6.2,21.168,21.168,0,0,1-6.974-.447,1.107,1.107,0,0,0-1.085.341,51.268,51.268,0,0,1-8.331,5.577c-.24-.165-.114-.307-.052-.435a26.511,26.511,0,0,0,2.1-7.951,1.571,1.571,0,0,0-.55-1.591,13.144,13.144,0,0,1-3.849-5.46c-2.3-6.754,1.277-12.934,7.082-15.927a20.17,20.17,0,0,1,19.129-.1C611.4,50.848,611.609,50.923,611.813,51.008Z" transform="translate(-50.144 0)" fill="#fcd97e"/>
      <path id="Trazado_169582" data-name="Trazado 169582" d="M538.6,211.859c.09,1.977.087,1.961,2.031,1.534q9.2-2.019,18.4-4.02c.185-.04.364-.1.546-.156a6.31,6.31,0,0,1,.644,2.161c1.14,5.487,2.394,10.948,3.571,16.426.1.449.343.914-.029,1.358L556.55,230.7c-.231.419-.663.45-1.059.539-3.241.726-6.479,1.466-9.739,2.1a8.924,8.924,0,0,1-2.364.4,13.335,13.335,0,0,0-3.137.574c-1.179.182-1.395.038-1.611-1.143-.091-.5,0-1.129-.788-1.155.083-1.9-.609-3.67-.976-5.491-.508-2.514-1.1-5.011-1.659-7.515a1.793,1.793,0,0,1-.032-1.386c-.107-.586-.221-1.171-.318-1.759-.117-.7-.022-1.255.855-1.382.652-.095,1.285-.317,1.937-.427.6-.1.865-.365.8-1.009A1.509,1.509,0,0,1,538.6,211.859Z" transform="translate(-13.266 -119.91)" fill="#f2f2f2"/>
      <path id="Trazado_169583" data-name="Trazado 169583" d="M672.99,338.634c.475-.463.962-.914,1.421-1.392a.952.952,0,0,0-.4-1.675c-.03-.011-.062-.014-.092-.024-2.1-.7-2.226-.911-1.958-3.2.039-.33.138-.511.48-.59a16.169,16.169,0,0,0,1.641-.471.921.921,0,0,0,.405-1.554c-.021-.024-.044-.046-.065-.069-1.446-1.584-1.419-1.568-.387-3.4.325-.577.652-.764,1.271-.539a8.834,8.834,0,0,0,1.376.355.888.888,0,0,0,1.061-1.02c-.021-.156-.081-.307-.1-.463-.087-.607-.692-1.332-.268-1.771a9.34,9.34,0,0,1,2.257-1.373c.26-.145.394.121.547.259.424.381.824.79,1.258,1.16a.9.9,0,0,0,1.478-.409c.023-.059.038-.121.063-.179.273-.627.116-1.63.727-1.859a8.128,8.128,0,0,1,2.54-.1c.322-.008.43.181.506.45q.231.822.494,1.636a.933.933,0,0,0,1.6.412c.517-.464,1.01-1.292,1.542-1.315.652-.028,1.326.628,2,.962.47.232.661.511.441,1.052a8.061,8.061,0,0,0-.393,1.465.9.9,0,0,0,1.165,1.089c2.231-.488,2.215-.48,3.3,1.533a.726.726,0,0,1-.159,1.054,13.174,13.174,0,0,0-1.063,1.088.924.924,0,0,0,.352,1.5c.088.036.177.069.267.1,2.131.684,2.244.883,1.987,3.175a.593.593,0,0,1-.49.586c-.548.156-1.1.3-1.64.477a.921.921,0,0,0-.482,1.546c.38.459.832.86,1.252,1.287.1.152.287.275.169.5-.1.2-.216.386-.326.578-1.04,1.826-1.04,1.826-3.1,1.343a.92.92,0,0,0-1.185,1.2c.474,2.055.453,2.022-1.331,3.107a.938.938,0,0,1-1.432-.209,8.084,8.084,0,0,0-.954-.924.955.955,0,0,0-1.5.407c-.011.029-.012.062-.022.092-.728,2.186-.728,2.168-3.044,2.119-.512-.011-.73-.176-.826-.663a12.634,12.634,0,0,0-.42-1.456.934.934,0,0,0-1.589-.446c-.517.462-.981,1.249-1.545,1.325-.721.1-1.355-.69-2.069-1.009a.648.648,0,0,1-.4-.956,10.524,10.524,0,0,0,.383-1.466.918.918,0,0,0-1.2-1.122c-2.072.48-2.074.482-3.107-1.343C673.256,339.206,673.129,338.917,672.99,338.634Z" transform="translate(-115.433 -202.7)" fill="#474f59"/>
      <path id="Trazado_169584" data-name="Trazado 169584" d="M577.461,296.086q5.124-1.124,10.248-2.249c.212-.047.419-.123.629-.185a.451.451,0,0,0,.005.182c.967,2.154,1.187,4.5,1.717,6.764.152.648.544,1.308.187,2.016q1.3,5.891,2.6,11.783a3.955,3.955,0,0,1,.044.565,1.992,1.992,0,0,1-1.609,1.884c-2.049.5-4.114.948-6.184,1.359a2.015,2.015,0,0,1-2.647-1.716c-.549-2.4-1-4.814-1.579-7.2a44.339,44.339,0,0,0-1.5-6.123,49.819,49.819,0,0,1-1.215-5.036A6.793,6.793,0,0,0,577.461,296.086Z" transform="translate(-45.054 -182.861)" fill="#d9d8d7"/>
      <path id="Trazado_169585" data-name="Trazado 169585" d="M825.518,283.434c-3.773-.009-7.545-.045-11.317-.007-.837.009-1.065-.2-1.054-1.05.048-3.867.018-7.736.027-11.6,0-.3-.128-.639.162-.893a25.982,25.982,0,0,1,4.073,3.25c1.842,1.5,3.6,3.112,5.407,4.652a.82.82,0,0,0,1.244.038c2.9-2.534,5.869-5,8.782-7.59a2.394,2.394,0,0,0-1-.083q-8.517-.007-17.034-.006a2.288,2.288,0,0,1-1.469-.26c.339-.262.733-.138,1.1-.139q8.687-.031,17.373-.042c1.912.069,1.912.069,1.912,1.983,0,3.611-.019,7.222.016,10.832.007.71-.19.917-.9.907C830.4,283.389,827.956,283.425,825.518,283.434Z" transform="translate(-220.773 -165.004)" fill="#fcd97f"/>
      <path id="Trazado_169586" data-name="Trazado 169586" d="M795.984,97.3c-.011,1.806-.045,3.612-.021,5.417.008.581-.163.758-.75.756q-8.176-.03-16.352,0c-.648,0-.8-.223-.791-.822.023-3.359.03-6.718,0-10.077-.007-.722.23-.914.927-.911,3.643.017,7.287-.011,10.931-.024,1.71.014,3.419.06,5.128.026.688-.014.942.146.918.886C795.92,94.132,795.973,95.716,795.984,97.3Z" transform="translate(-194.619 -32.246)" fill="#f27c5a"/>
      <path id="Trazado_169587" data-name="Trazado 169587" d="M521.918,242.274q1.5,6.741,3,13.48c.09.4.157.747-.335.912-.93.178-1.86.354-2.79.535a1.846,1.846,0,0,1-2.493-1.619q-1.112-5.145-2.2-10.295a1.748,1.748,0,0,1,1.479-2.309C519.688,242.727,520.8,242.508,521.918,242.274Z" transform="translate(0 -144.555)" fill="#474f59"/>
      <path id="Trazado_169588" data-name="Trazado 169588" d="M570.764,303.219c.241.039.509.011.576.358a53.915,53.915,0,0,1,1.332,6.721,36.612,36.612,0,0,1-4.194-6.468A8.366,8.366,0,0,1,570.764,303.219Z" transform="translate(-38.356 -189.994)" fill="#7dcddb"/>
      <path id="Trazado_169589" data-name="Trazado 169589" d="M636.311,171.891c-.342-1.689-.67-3.382-1.031-5.068q-.9-4.178-1.829-8.349c-.4-1.8-.806-3.607-1.239-5.4a5.715,5.715,0,0,1-.087-1.125q7.739-5.069,15.479-10.138,6.911-4.516,13.838-9.007c.265-.172.492-.543.911-.34.392.258.414.691.5,1.086q4.68,21.259,9.326,42.526c.086.393.259.8-.049,1.181a51.354,51.354,0,0,1-6.357-.843c-4.5-.633-8.987-1.349-13.478-2.034q-7.3-1.112-14.6-2.233A3.23,3.23,0,0,1,636.311,171.891Z" transform="translate(-85.809 -62.638)" fill="#fefefe"/>
      <path id="Trazado_169590" data-name="Trazado 169590" d="M759.557,165.854c-.989-4.577-1.97-9.155-2.97-13.73q-3.4-15.533-6.807-31.063c-.119-.554-.26-1.1-.353-1.662a1.774,1.774,0,0,1,1.327-2.255,1.885,1.885,0,0,1,2.111,1.6c.458,2,.888,4.009,1.331,6.014q1.317,5.959,2.636,11.918a1.4,1.4,0,0,1,.472,1c.728,3.337,1.471,6.67,2.192,10.009a1.91,1.91,0,0,1,.043,1.209q1.265,5.888,2.53,11.776c.438,2.041.907,4.075,1.3,6.125a1.716,1.716,0,0,1-1.393,2.043,1.761,1.761,0,0,1-2.011-1.338c-.037-.12-.046-.249-.077-.371C759.779,166.7,759.667,166.278,759.557,165.854Z" transform="translate(-173.235 -51.239)" fill="#474f59"/>
      <path id="Trazado_169591" data-name="Trazado 169591" d="M781.361,204.695q-1.242-5.549-2.484-11.1c-.082-.37-.149-.743-.223-1.116.159-.6.665-.5,1.085-.515a6.58,6.58,0,0,1,6.521,5.168,6.46,6.46,0,0,1-4.17,7.358C781.852,204.575,781.6,204.627,781.361,204.695Z" transform="translate(-195.057 -107.043)" fill="#fefefe"/>
      <path id="Trazado_169592" data-name="Trazado 169592" d="M622.135,303.148q-.952-4.389-1.9-8.779a25.091,25.091,0,0,1,2.134,3.447c.832,1.38,1.6,2.8,2.437,4.177.245.407.245.613-.256.692A13.832,13.832,0,0,1,622.135,303.148Z" transform="translate(-76.942 -183.396)" fill="#474f59"/>
      <path id="Trazado_169593" data-name="Trazado 169593" d="M829.536,233.646c-.151.45-.447.33-.757.214-1.628-.605-3.26-1.2-4.887-1.807q-3.728-1.391-7.451-2.8c-.272-.1-.758-.12-.623-.534.149-.455.57-.233.891-.111L828.85,233.2C829.107,233.3,829.412,233.327,829.536,233.646Z" transform="translate(-222.747 -134.248)" fill="#fcfdfe"/>
      <path id="Trazado_169594" data-name="Trazado 169594" d="M817.9,152.673c-.146.172-.275.35-.429.5q-4.6,4.606-9.209,9.2c-.2.2-.407.631-.759.308-.373-.342.067-.56.263-.754q4.655-4.614,9.331-9.209c.167-.164.3-.45.622-.295C817.789,152.463,817.825,152.569,817.9,152.673Z" transform="translate(-216.456 -77.536)" fill="#fdfefe"/>
      <path id="Trazado_169595" data-name="Trazado 169595" d="M816.9,205.069c-.209.02-.419.02-.473-.216-.068-.292.174-.375.395-.423q3.105-.673,6.213-1.332c.211-.045.482-.069.528.238.036.239-.176.308-.366.35Q820.051,204.379,816.9,205.069Z" transform="translate(-223.212 -115.327)" fill="#f9fcfd"/>
      <path id="Trazado_169596" data-name="Trazado 169596" d="M643.329,98.038a2.933,2.933,0,0,1-3.094-3.1,3.11,3.11,0,0,1,3.1-3.172,3.344,3.344,0,0,1,3.175,3.188A3.1,3.1,0,0,1,643.329,98.038Z" transform="translate(-91.856 -32.339)" fill="#fefefe"/>
      <path id="Trazado_169597" data-name="Trazado 169597" d="M681.279,94.975a2.932,2.932,0,0,1-3.121,3.063,3.057,3.057,0,0,1-3.124-3.125,3.244,3.244,0,0,1,3.189-3.15A3.1,3.1,0,0,1,681.279,94.975Z" transform="translate(-117.801 -32.339)" fill="#fefefe"/>
      <path id="Trazado_169598" data-name="Trazado 169598" d="M607.58,98.038a3.106,3.106,0,0,1-3.06-3.207,3.36,3.36,0,0,1,3.2-3.067,3.126,3.126,0,0,1,3.081,3.3A2.943,2.943,0,0,1,607.58,98.038Z" transform="translate(-65.226 -32.339)" fill="#fefefe"/>
      <path id="Trazado_169599" data-name="Trazado 169599" d="M575.262,246.712c.023.118-.163.257-.449.294-.423.055-.551-.26-.624-.571-.256-1.1-.493-2.21-.733-3.316-.794-3.658-1.581-7.317-2.387-10.972-.08-.361-.254-.644.317-.754.509-.1.591.172.671.54q1.527,7.1,3.061,14.2C575.144,246.258,575.178,246.38,575.262,246.712Z" transform="translate(-40.222 -136.428)" fill="#d9d8d7"/>
      <path id="Trazado_169600" data-name="Trazado 169600" d="M562.5,233.9a.571.571,0,0,1,.505-.686c.446-.105.4.247.456.523q1.547,7.1,3.121,14.2c.107.479.126.84-.408.952-.589.124-.46-.436-.52-.7-1.05-4.667-2.075-9.34-3.1-14.012C562.53,234.087,562.517,233.993,562.5,233.9Z" transform="translate(-33.893 -137.786)" fill="#d9d8d7"/>
      <path id="Trazado_169601" data-name="Trazado 169601" d="M548.864,252.232c.144.333-.069.469-.334.538-.413.108-.56-.137-.637-.5-.308-1.449-.626-2.9-.944-4.343q-1.1-4.987-2.209-9.972c-.088-.393-.1-.637.363-.8.521-.183.543.2.6.469q1.582,7.156,3.137,14.318A1.98,1.98,0,0,1,548.864,252.232Z" transform="translate(-20.621 -140.704)" fill="#d9d8d7"/>
      <path id="Trazado_169602" data-name="Trazado 169602" d="M553.548,236.02c0-.377-.02-.675.394-.71.345-.029.487.1.564.459q1.568,7.242,3.17,14.476c.064.29.12.575-.3.655-.477.091-.613-.224-.693-.581q-.519-2.3-1.021-4.607-1.005-4.611-2-9.224C553.619,236.3,553.572,236.121,553.548,236.02Z" transform="translate(-27.225 -139.36)" fill="#d9d8d7"/>
      <path id="Trazado_169603" data-name="Trazado 169603" d="M601.341,225.884a3.15,3.15,0,0,1,3.266-3.372,3.414,3.414,0,1,1,.07,6.827A3.231,3.231,0,0,1,601.341,225.884Z" transform="translate(-62.836 -129.82)" fill="#fcfcfc"/>
      <path id="Trazado_169604" data-name="Trazado 169604" d="M701.986,342.971c4.163-.264,7.5,3.639,7.489,7.431a7.5,7.5,0,0,1-14.995,0A7.362,7.362,0,0,1,701.986,342.971Z" transform="translate(-132.299 -219.622)" fill="#25313b"/>
      <path id="Trazado_169605" data-name="Trazado 169605" d="M813.887,270.407h20.29c-1.268,1.125-2.326,2.089-3.41,3.02-2.081,1.788-4.182,3.551-6.262,5.341-.318.273-.514.464-.936.1-3.139-2.734-6.3-5.438-9.457-8.155a1.656,1.656,0,0,1-.223-.3Z" transform="translate(-221.325 -165.529)" fill="#f5ba53"/>
      <path id="Trazado_169606" data-name="Trazado 169606" d="M805.963,102.112l5.692,3.33-5.692,3.254Z" transform="translate(-215.418 -40.055)" fill="#fefefe"/>
      <path id="Trazado_169607" data-name="Trazado 169607" d="M605.727,225.017c-.039-.514.339-.434.638-.433a2.891,2.891,0,0,1,2.765,2.516,2.917,2.917,0,1,1-4.256-2.2c.208-.1.517-.4.665.1a1.246,1.246,0,0,1,.259.887c.054.208.259.374.207.505.024-.1-.075-.278-.181-.453C605.822,225.631,605.723,225.329,605.727,225.017Z" transform="translate(-64.341 -131.362)" fill="#474f59"/>
      <path id="Trazado_169608" data-name="Trazado 169608" d="M612.2,226.262c.274.278.167.626.176.953-.065.075-.119.072-.162-.021l-.2-.945A.988.988,0,0,1,612.2,226.262Z" transform="translate(-70.814 -132.607)" fill="#c0c3c6"/>
      <path id="Trazado_169609" data-name="Trazado 169609" d="M699.2,353.7a6.319,6.319,0,0,1,12.638-.085,6.363,6.363,0,0,1-6.3,6.389A6.218,6.218,0,0,1,699.2,353.7Z" transform="translate(-135.822 -222.921)" fill="#7dcddb"/>
      <path id="Trazado_169610" data-name="Trazado 169610" d="M612.8,229.964a.824.824,0,0,1,.162.021c.274.209.2.478.108.891Z" transform="translate(-71.403 -135.377)" fill="#979ba1"/>
    </g>
  </g>
</svg>
