<svg xmlns="http://www.w3.org/2000/svg" width="124" height="124" viewBox="0 0 124 124">
  <g id="Grupo_120587" data-name="Grupo 120587" transform="translate(-1003.5 -488.408)">
    <g id="Elipse_6815" data-name="Elipse 6815" transform="translate(1003.5 488.408)" fill="#fff" stroke="#2631a0" stroke-width="4">
      <circle cx="62" cy="62" r="62" stroke="none"/>
      <circle cx="62" cy="62" r="60" fill="none"/>
    </g>
    <g id="Grupo_120522" data-name="Grupo 120522" transform="translate(137.358 1313.699)">
      <path id="Trazado_169665" data-name="Trazado 169665" d="M924.686-716.544a12.182,12.182,0,0,0-2.908-.495c-18.914-3.355-31.58-14.123-37.863-32.231a43.434,43.434,0,0,1-1.4-22.655c3.518-18.442,16.883-32.477,35.377-37a44.873,44.873,0,0,1,31.612,3.743,46.457,46.457,0,0,1,16.029,13.2c.165.213.342.416.618.75.159-1.042.3-1.951.438-2.86a6.1,6.1,0,0,1,.129-.717,1.391,1.391,0,0,1,1.613-1.137,1.406,1.406,0,0,1,1.139,1.628c-.323,2.291-.667,4.579-1.047,6.861-.165.992-.6,1.349-1.581,1.2-2.288-.335-4.568-.729-6.84-1.163a1.306,1.306,0,0,1-1.09-1.558,1.306,1.306,0,0,1,1.5-1.151c1.056.1,2.1.307,3.26.484a9.036,9.036,0,0,0-1.393-1.916,42.492,42.492,0,0,0-23.514-14.56c-13.772-3.115-26.413-.4-37.545,8.355a42.592,42.592,0,0,0-16.185,27.844,44.011,44.011,0,0,0,34.146,49.543,44.033,44.033,0,0,0,51.791-31.41,43.908,43.908,0,0,0,.677-20.277c-.272-1.388.009-2.126.9-2.325,1-.224,1.6.353,1.876,1.819a48.587,48.587,0,0,1,.772,5.7c.01.148-.006.309.181.371v1.464a12.962,12.962,0,0,0,0,3.477v1.647a56.936,56.936,0,0,1-.826,6.4,46.625,46.625,0,0,1-10.011,20.4,46.657,46.657,0,0,1-23.906,15.239,31.21,31.21,0,0,1-8.014,1.237c-.149,0-.306-.027-.43.094h-.732c-.113-.123-.263-.086-.4-.094-.173.019-.363-.054-.512.094H926.7c-.2-.174-.444-.061-.666-.094-.148.011-.31-.039-.432.094Z" fill="#1b86b2"/>
      <path id="Trazado_169666" data-name="Trazado 169666" d="M1289.717-609.516a6.95,6.95,0,0,1,0-3.477Z" transform="translate(-314.342 -152.044)" fill="#5aa8c7"/>
      <path id="Trazado_169667" data-name="Trazado 169667" d="M1074.73-402.273c.26,0,.542-.111.742.162h-.732c-.057-.033-.078-.067-.062-.1S1074.712-402.273,1074.73-402.273Z" transform="translate(-148.773 -314.432)" fill="#63acca"/>
      <path id="Trazado_169668" data-name="Trazado 169668" d="M1094.918-402.086c.137-.225.352-.179.559-.162.053.039.069.076.048.111s-.039.051-.058.051Z" transform="translate(-164.376 -314.458)" fill="#63adca"/>
      <path id="Trazado_169669" data-name="Trazado 169669" d="M1073.724-402.215a1.437,1.437,0,0,1,.01.162h-.366C1073.429-402.233,1073.575-402.228,1073.724-402.215Z" transform="translate(-147.767 -314.491)" fill="#88c0d7"/>
      <path id="Trazado_169670" data-name="Trazado 169670" d="M1097.312-402.053a1.382,1.382,0,0,1,.01-.162c.149-.013.295-.018.356.162Z" transform="translate(-166.222 -314.491)" fill="#88c0d7"/>
      <path id="Trazado_169671" data-name="Trazado 169671" d="M1051.509-764.475a33.131,33.131,0,0,1,10.458,2.99,35.325,35.325,0,0,1,11.233,8.017,36.776,36.776,0,0,1,9.234,17.238,35.777,35.777,0,0,1,.687,12.512,36.22,36.22,0,0,1-7.552,18.308,36.717,36.717,0,0,1-23.074,13.7,2.229,2.229,0,0,1-.455-.01c-6.137-.736-11.448-3.4-16.353-7.011a2.233,2.233,0,0,1-.281-.234c-.189-.195-.447-.388-.36-.689.093-.322.425-.3.692-.32.334-.03.67-.014,1.006-.014q11.3,0,22.591,0a3.733,3.733,0,0,0,1.358-.1,2.389,2.389,0,0,0,1.73-2.584c-.028-.577.024-1.157-.019-1.733a2.048,2.048,0,0,0-2.133-2.031,2.614,2.614,0,0,1-1.251-.166.59.59,0,0,1-.172-.236c-.2-2.368-.03-4.74-.09-7.11a10.283,10.283,0,0,0-4.088-8.2c-1.676-1.314-3.463-2.478-5.2-3.713q-1.1-.745-2.16-1.538c-.653-.486-.657-.781-.022-1.282.717-.567,1.482-1.071,2.217-1.618,2.2-1.588,4.567-2.943,6.473-4.911a9.7,9.7,0,0,0,2.765-6.684c.061-2.1,0-4.208.019-6.312,0-.439-.11-.934.353-1.255a3.45,3.45,0,0,1,1.081-.158,2.223,2.223,0,0,0,2.174-2.264,17.5,17.5,0,0,0,0-1.92,2.125,2.125,0,0,0-2.135-2.173c-.365-.028-.732-.015-1.1-.015q-11.3,0-22.594,0a5.168,5.168,0,0,1-1.453-.093c-.7-.534,0-.8.267-1.012a37.214,37.214,0,0,1,4.047-2.79,39.565,39.565,0,0,1,10.609-4.274A5.243,5.243,0,0,0,1051.509-764.475Z" transform="translate(-118.035 -35.293)" fill="#3e9cc2"/>
      <path id="Trazado_169672" data-name="Trazado 169672" d="M976.9-701.16c-.322.264-.7.145-1.057.145q-11.793.011-23.586.005h-1.124a7.69,7.69,0,0,0,2.141,1.8,38.877,38.877,0,0,0,12.38,5.627,18.994,18.994,0,0,1,2.453.589,35.923,35.923,0,0,1-29.5-8.536,35.249,35.249,0,0,1-12.411-23.219,35.773,35.773,0,0,1,9.641-29.76A35.612,35.612,0,0,1,956.56-765.6a33.883,33.883,0,0,1,11.011-.15c.047.144.114.287-.128.329a35.014,35.014,0,0,0-13.676,5.628,12.207,12.207,0,0,0-2.854,2.218,1.186,1.186,0,0,1-1.1.269c-1.985-.171-3.239.684-3.038,3.1a2.363,2.363,0,0,1-.1.988,49.767,49.767,0,0,0-4.117,5.917,37.026,37.026,0,0,0-4.171,11.839,35.944,35.944,0,0,0,2.032,19.56,31.772,31.772,0,0,0,5.934,9.912,1.526,1.526,0,0,1,.376.621,10.951,10.951,0,0,1,.1,1.73,2.045,2.045,0,0,0,2.215,2.149c2.618.035,5.236.011,7.854.011q9.224,0,18.449.008C975.871-701.474,976.451-701.618,976.9-701.16Z" transform="translate(-34.095 -34.016)" fill="#3992b6"/>
      <path id="Trazado_169673" data-name="Trazado 169673" d="M1076.1-699.408q0,3.467,0,6.933a10.3,10.3,0,0,1-3.9,8.371,56.371,56.371,0,0,1-5.569,3.942.781.781,0,0,1-.682-.178c-1.991-1.491-4.183-2.71-5.94-4.516a10.341,10.341,0,0,1-2.984-6.959c-.1-2.215-.03-4.437-.015-6.656,0-.412-.06-.875.425-1.118a3.7,3.7,0,0,1,1.269-.122q7.957,0,15.913,0C1075.129-699.706,1075.672-699.814,1076.1-699.408Z" transform="translate(-135.136 -85.202)" fill="#eaeaef"/>
      <path id="Trazado_169674" data-name="Trazado 169674" d="M1066.492-597.024c2.575,1.821,5.44,3.284,7.416,5.853a9.857,9.857,0,0,1,2.077,5.932c.047,2.469,0,4.939,0,7.409a1.24,1.24,0,0,1-1.025.269q-8.407.006-16.814,0c-1.048,0-1.233-.182-1.242-1.227-.021-2.224-.112-4.453.022-6.669a10.563,10.563,0,0,1,3.92-7.77c1.526-1.259,3.2-2.326,4.809-3.484A1.369,1.369,0,0,1,1066.492-597.024Z" transform="translate(-135.036 -164.351)" fill="#eaeaef"/>
      <path id="Trazado_169675" data-name="Trazado 169675" d="M1046.291-676.189c-1.742,1.265-3.508,2.5-5.219,3.8a10.218,10.218,0,0,0-4.093,8c-.1,2.189,0,4.387-.032,6.581-.009.63.175.841.823.838,6-.027,12.006-.023,18.009-.029a.174.174,0,0,1,.039.125c-.227.382-.62.362-.975.363q-11.568.024-23.135,0a1.854,1.854,0,0,1-.539-.082.72.72,0,0,1-.476-.8,69.025,69.025,0,0,1,.134-8.129,10.748,10.748,0,0,1,4.824-7.652c2.077-1.446,4.123-2.934,6.2-4.382.794-.554.8-.665.024-1.216-1.991-1.408-3.961-2.847-5.974-4.225a11.349,11.349,0,0,1-5.231-10.085c.022-1.768-.007-3.537.011-5.305,0-.438-.1-.941.414-1.218a36.015,36.015,0,0,1,5.306-.078.723.723,0,0,1,.558.256c0,2.346-.014,4.692,0,7.038a10.6,10.6,0,0,0,4.694,8.895c1.547,1.123,3.12,2.21,4.681,3.314-.729.538-1.44,1.105-2.2,1.6-.516.341-.4.549.024.841C1044.885-677.234,1045.583-676.7,1046.291-676.189Z" transform="translate(-114.834 -85.186)" fill="#d1d1d6"/>
      <path id="Trazado_169676" data-name="Trazado 169676" d="M1024.983-721.835h-6.026a2.861,2.861,0,0,1-3.613-1.177,1.375,1.375,0,0,1-.1-1.384c.011-.664.018-1.328.034-1.991a2.326,2.326,0,0,1,2.406-2.395c.663-.019,1.327-.024,1.991-.035q6.673.017,13.347.032c3.9.005,7.8,0,11.7,0,1.89,0,2.763.891,2.768,2.8,0,.488,0,.975,0,1.463a2.4,2.4,0,0,1-2.665,2.645c-.334,0-.668.025-1,.038q-6.54-.02-13.08-.037C1028.823-721.872,1026.9-721.847,1024.983-721.835Z" transform="translate(-102.857 -62.776)" fill="#f34545"/>
      <path id="Trazado_169677" data-name="Trazado 169677" d="M1019.252-513.5c2.127.021,4.253.057,6.38.06q8.892.013,17.785,0c.241,0,.483-.036.724-.055.484.016.969.025,1.453.05a2.249,2.249,0,0,1,2.183,2.14,22.863,22.863,0,0,1,0,2.548,2.359,2.359,0,0,1-1.816,2.143c-9.115,0-18.229-.045-27.343.03-2.2.018-3.25-1.173-3.048-3.092a10.749,10.749,0,0,0-.023-1.369,2.105,2.105,0,0,1,1.667-2.547A3.278,3.278,0,0,1,1019.252-513.5Z" transform="translate(-103.156 -228.567)" fill="#f34545"/>
      <path id="Trazado_169678" data-name="Trazado 169678" d="M989.661-664.427c-.334.016-.668.042-1,.045a2.37,2.37,0,0,0-2.707,2.411,17.016,17.016,0,0,1-3.513-4.619,34.531,34.531,0,0,1-4.221-10.047,40.969,40.969,0,0,1-1.045-7.081,35.905,35.905,0,0,1,4.038-18.963,25.446,25.446,0,0,1,4.741-6.856,2.447,2.447,0,0,0,2.8,2.525c.3,0,.606.024.909.036q0,3.335,0,6.669a10.825,10.825,0,0,0,4.944,9.44c2.127,1.47,4.228,2.979,6.338,4.474.949.673.941.668-.038,1.366-2.427,1.731-4.891,3.415-7.261,5.221a10.007,10.007,0,0,0-3.961,7.978C989.6-669.363,989.663-666.893,989.661-664.427Z" transform="translate(-73.565 -77.637)" fill="#3e9cc2"/>
    </g>
  </g>
</svg>
