<svg xmlns="http://www.w3.org/2000/svg" width="210" height="168.658" viewBox="0 0 210 168.658">
  <g id="Grupo_119065" data-name="Grupo 119065" transform="translate(-1132.251 244.723)">
    <g id="Grupo_119058" data-name="Grupo 119058" transform="translate(1132.251 -244.723)">
      <g id="Grupo_119056" data-name="Grupo 119056" transform="translate(0 0.845)">
        <g id="Grupo_119045" data-name="Grupo 119045" transform="translate(0 137.731)">
          <g id="Grupo_119044" data-name="Grupo 119044" transform="translate(0 0)">
            <path id="Trazado_168419" data-name="Trazado 168419" d="M1146.046,45.054h-13.732a5.734,5.734,0,0,1,0-1.69h13.732a5.746,5.746,0,0,1,0,1.69Z" transform="translate(-1132.251 -43.364)" fill="#c4c4c4"/>
          </g>
        </g>
        <g id="Grupo_119047" data-name="Grupo 119047" transform="translate(0 110.188)">
          <g id="Grupo_119046" data-name="Grupo 119046">
            <path id="Trazado_168420" data-name="Trazado 168420" d="M1146.046-12.206h-13.732a2.917,2.917,0,0,1-.063-.845,2.921,2.921,0,0,1,.063-.845h13.732a2.909,2.909,0,0,1,.063.845A2.9,2.9,0,0,1,1146.046-12.206Z" transform="translate(-1132.251 13.896)" fill="#c4c4c4"/>
          </g>
        </g>
        <g id="Grupo_119049" data-name="Grupo 119049" transform="translate(0 82.64)">
          <g id="Grupo_119048" data-name="Grupo 119048">
            <path id="Trazado_168421" data-name="Trazado 168421" d="M1146.046-69.474h-13.732a2.921,2.921,0,0,1-.063-.845,2.921,2.921,0,0,1,.063-.845h13.732a2.909,2.909,0,0,1,.063.845A2.909,2.909,0,0,1,1146.046-69.474Z" transform="translate(-1132.251 71.164)" fill="#c4c4c4"/>
          </g>
        </g>
        <g id="Grupo_119051" data-name="Grupo 119051" transform="translate(0 55.094)">
          <g id="Grupo_119050" data-name="Grupo 119050">
            <path id="Trazado_168422" data-name="Trazado 168422" d="M1146.046-126.741h-13.732a2.921,2.921,0,0,1-.063-.845,2.921,2.921,0,0,1,.063-.845h13.732a2.909,2.909,0,0,1,.063.845A2.909,2.909,0,0,1,1146.046-126.741Z" transform="translate(-1132.251 128.431)" fill="#c4c4c4"/>
          </g>
        </g>
        <g id="Grupo_119053" data-name="Grupo 119053" transform="translate(0 27.547)">
          <g id="Grupo_119052" data-name="Grupo 119052">
            <path id="Trazado_168423" data-name="Trazado 168423" d="M1146.046-184.008h-13.732a2.919,2.919,0,0,1-.063-.845,2.919,2.919,0,0,1,.063-.845h13.732a2.906,2.906,0,0,1,.063.845A2.907,2.907,0,0,1,1146.046-184.008Z" transform="translate(-1132.251 185.698)" fill="#c4c4c4"/>
          </g>
        </g>
        <g id="Grupo_119055" data-name="Grupo 119055">
          <g id="Grupo_119054" data-name="Grupo 119054">
            <path id="Trazado_168424" data-name="Trazado 168424" d="M1146.046-241.276h-13.732a2.921,2.921,0,0,1-.063-.845,2.921,2.921,0,0,1,.063-.845h13.732a2.909,2.909,0,0,1,.063.845A2.909,2.909,0,0,1,1146.046-241.276Z" transform="translate(-1132.251 242.966)" fill="#c4c4c4"/>
          </g>
        </g>
      </g>
      <g id="Grupo_119057" data-name="Grupo 119057" transform="translate(13.739)">
        <path id="Trazado_168425" data-name="Trazado 168425" d="M1355.384-76.065H1162.5a1.689,1.689,0,0,1-1.69-1.69V-243.033a1.689,1.689,0,0,1,1.69-1.69,1.691,1.691,0,0,1,1.69,1.69V-79.445h191.191a1.689,1.689,0,0,1,1.69,1.69A1.689,1.689,0,0,1,1355.384-76.065Z" transform="translate(-1160.813 244.723)" fill="#c4c4c4"/>
      </g>
    </g>
    <g id="Grupo_119059" data-name="Grupo 119059" transform="translate(1240.389 -222.263)">
      <rect id="Rectángulo_42947" data-name="Rectángulo 42947" width="22.987" height="136.321" transform="translate(0 0)" fill="#616161"/>
    </g>
    <g id="Grupo_119060" data-name="Grupo 119060" transform="translate(1266.993 -149.083)">
      <rect id="Rectángulo_42948" data-name="Rectángulo 42948" width="22.987" height="63.142" transform="translate(0 0)" fill="#ff2f6d"/>
    </g>
    <g id="Grupo_119061" data-name="Grupo 119061" transform="translate(1292.995 -196.637)">
      <rect id="Rectángulo_42949" data-name="Rectángulo 42949" width="22.983" height="110.696" fill="#febf10"/>
    </g>
    <g id="Grupo_119062" data-name="Grupo 119062" transform="translate(1185.277 -222.263)">
      <rect id="Rectángulo_42950" data-name="Rectángulo 42950" width="22.983" height="136.321" transform="translate(0 0)" fill="#616161"/>
    </g>
    <g id="Grupo_119063" data-name="Grupo 119063" transform="translate(1212.517 -196.637)">
      <rect id="Rectángulo_42951" data-name="Rectángulo 42951" width="22.987" height="110.696" transform="translate(0)" fill="#febf10"/>
    </g>
    <g id="Grupo_119064" data-name="Grupo 119064" transform="translate(1157.622 -149.083)">
      <rect id="Rectángulo_42952" data-name="Rectángulo 42952" width="22.983" height="63.142" transform="translate(0 0)" fill="#ff2f6d"/>
    </g>
  </g>
</svg>
