<svg xmlns="http://www.w3.org/2000/svg" width="179.497" height="175.961" viewBox="0 0 179.497 175.961">
  <g id="Grupo_119066" data-name="Grupo 119066" transform="translate(7223.52 -3419.526)">
    <path id="Trazado_168426" data-name="Trazado 168426" d="M-6892.512,3524.3c-1.144,2.249-3,2.865-5.457,2.847-11.9-.089-23.794-.039-35.689-.041-3.316,0-4.78-1.469-4.78-4.794q0-13.208.008-26.418c.848-3.583,2.3-4.987,6-5.521s7.444-.13,11.167-.231a4.179,4.179,0,0,0,2.79-.787,3.758,3.758,0,0,0,1.273-3.112c-.008-3.32-.047-6.64.012-9.959.071-4.009,1.672-6.157,5.388-7.368,4.636,0,9.275.1,13.907-.049a5.264,5.264,0,0,1,5.385,3.2Z" transform="translate(-151.511 -26.223)" fill="#e7ecf1"/>
    <path id="Trazado_168427" data-name="Trazado 168427" d="M-7040.031,3701.2c-1.052.688-2.027,1.557-3.42,1.433a4.514,4.514,0,0,1-1.9.136q-27.555.012-55.106.007c-.207,0-.419,0-.626,0-2.715-.116-5.1-2.844-5.574-6.491a7.1,7.1,0,0,1,.122-3.283c.5-.638.927-.15,1.31.137a17.147,17.147,0,0,1,1.439,1.238c.31.365.327.889.674,1.233,1.325-.256,2.973.818,3.905-.974a6.592,6.592,0,0,1,2.034-1.917,1.137,1.137,0,0,1,.453-.071,1.338,1.338,0,0,0,1.222-.291,3.879,3.879,0,0,0,.245-.368,23.332,23.332,0,0,0,.2-2.384,3.676,3.676,0,0,1,.11-.448c.091-.408.276-.83-.208-1.134a8.476,8.476,0,0,1-.869-.312c-.561-.362-.8-.984-1.208-1.473a5.524,5.524,0,0,0-7.5-1.148c-.522.337-.951,1.124-1.771.533-.947-3.917.636-7.715,3.725-9.232a38.492,38.492,0,0,1-6.674-.12c-.564-2.01-2.1-1.522-3.509-1.357a2.13,2.13,0,0,1-1.411-1.026c-.612-2.019-.825-4.172-2.032-5.989v-11.569c1.146-.718.138-1.67.271-2.5a.4.4,0,0,1,.069-.316,28.43,28.43,0,0,1,6.22-5.25,42.2,42.2,0,0,1,6.768-.046c-3.123-2.124-4.381-5.519-3.441-9.587.994-.649,1.283.442,1.812.8a5.852,5.852,0,0,0,6.285.212,5.147,5.147,0,0,0,2.061-5.385,5.142,5.142,0,0,0-8.124-3.067c-.58.411-.991,1.46-2.022.78-1.094-4.5.949-8.848,4.122-9.713-2.061.125-4.626.766-7.144-.345a40.058,40.058,0,0,1,8.025-.151c7.707.324,15.414.108,23.12.146,11.156.054,22.313.008,33.47.017,5.009,0,7.677,2.674,7.684,7.658,0,3.388-.188,6.789.048,10.161.314,4.517-1.232,7.684-5.628,9.221a6.974,6.974,0,0,1-3.416.552c-18.2.013-36.4.048-54.6,0-1.48-.056-3.018-.4-4.232.878-1.413,1.489-1.923,3.121-.849,5.027a7.569,7.569,0,0,1-.093,3.11c-1.994,1.269-1.79,2.908-.781,4.682a1.481,1.481,0,0,1-.014.716c-.783.915.242,1.072.635,1.5a1.775,1.775,0,0,1,.221.469,8.215,8.215,0,0,1-.066,3.278,3.891,3.891,0,0,0,.747,4.374,4.161,4.161,0,0,0,4.121,1.592,36.231,36.231,0,0,0,5.064.264c17.144-.024,34.287.028,51.43-.028a2.475,2.475,0,0,1,1.523.253c.119.527.533.617.979.663a5.361,5.361,0,0,0,3.572,2.8c1.384,1.283,1.206,3.091,1.273,4.659.169,3.942.023,7.9,0,11.85-.562.561.158,1.294-.253,1.875.112.434-.341.6-.44.931a5.028,5.028,0,0,1-1.136.916,2.039,2.039,0,0,0-.364.5A4.8,4.8,0,0,1-7040.031,3701.2Z" transform="translate(-56.93 -107.416)" fill="#7a8b97"/>
    <path id="Trazado_168428" data-name="Trazado 168428" d="M-7055.788,3419.9c.463-.525,1.086-.337,1.647-.338q6.746-.019,13.494,0c3.714.011,5.513,1.669,5.523,5.4q.067,23.835,0,47.67c-.009,3.855-1.767,5.464-5.633,5.464q-17.526,0-35.051,0c-3.7,0-5.491-1.523-5.533-5.2-.1-8.82-.035-17.642-.038-26.464a1.108,1.108,0,0,1,.337-.95,6.857,6.857,0,0,1,7.041-4.357c3.15.078,6.3.042,9.457.008,3.188-.034,4.722-1.57,4.751-4.743.028-3.035.091-6.074-.016-9.1A7.626,7.626,0,0,1-7055.788,3419.9Z" transform="translate(-75.536 0)" fill="#e7ecf1"/>
    <path id="Trazado_168429" data-name="Trazado 168429" d="M-7196.886,3468.969c4.847,0,9.694-.017,14.541,0,3.093.009,4.75,1.674,4.75,4.737q0,24.353,0,48.705c0,3.3-1.478,4.752-4.832,4.752q-18.134,0-36.267,0c-3.35,0-4.826-1.454-4.826-4.759q0-13.227.008-26.455c.828-3.492,2.295-4.854,5.9-5.456,3.538-.59,7.105-.216,10.658-.283,3.652-.07,4.657-1.035,4.667-4.713.008-3.093-.051-6.186.02-9.278A7.085,7.085,0,0,1-7196.886,3468.969Z" transform="translate(0 -26.272)" fill="#e7ecf1"/>
    <path id="Trazado_168430" data-name="Trazado 168430" d="M-7031.729,3706.283a4.736,4.736,0,0,1-2.224.339q-26.55-.007-53.1.021c-1.129,0-2.167-.452-3.282-.382-3.081-1-4.849-3.437-4.57-6.3q.005-1.932.011-3.865c.864-.131,1.16.671,1.7,1.059a5.615,5.615,0,0,0,5.953.232,5.17,5.17,0,0,0,2.314-5.286,5.14,5.14,0,0,0-4.158-4.2,5.01,5.01,0,0,0-4.109,1.037c-.5.386-.891.954-1.62.938a.264.264,0,0,1-.09-.428q0-1.751,0-3.5a5.976,5.976,0,0,1,4.918-6.308c18.333,0,36.664-.023,55,.033,1.19,0,2.379-.745,3.568-.042,3.813,1.129,5.574,3.456,5.579,7.408.006,4.261.04,8.521-.015,12.781A6.42,6.42,0,0,1-7031.729,3706.283Z" transform="translate(-68.314 -138.072)" fill="#8c9ba7"/>
    <path id="Trazado_168431" data-name="Trazado 168431" d="M-7195.4,3641.391c1.017-1.536,1.824-2.8,2.679-4.034,1.578-2.276,3.655-2.2,4.891.237q5.144,10.151,10.194,20.348c1.134,2.29.028,4.04-2.517,3.917-7.464-.359-14.927-.753-22.384-1.232-3.359-.216-4.417-2.208-2.3-4.754,2.58-3.1,2.545-5.424.295-9.013-6.042-9.635-7.513-20.324-5.165-31.489a5.422,5.422,0,0,1,6.613-4.426,5.364,5.364,0,0,1,3.979,6.569A33.555,33.555,0,0,0-7195.4,3641.391Z" transform="translate(-6.777 -101.66)" fill="#fd646f"/>
    <path id="Trazado_168432" data-name="Trazado 168432" d="M-6906.622,3641.342a32.971,32.971,0,0,0,4.367-19.435c-.136-1.564-.446-3.116-.726-4.664a5.492,5.492,0,0,1,3.8-6.271,5.264,5.264,0,0,1,6.627,3.629,39.1,39.1,0,0,1,1.168,13.012,43.866,43.866,0,0,1-8.215,22.744,1.3,1.3,0,0,0,.016,1.723c.986,1.448,1.986,2.89,2.884,4.392,1.167,1.954.41,3.682-1.828,3.977-2.31.3-4.648.4-6.978.537-5.3.3-10.609.6-15.916.843-3.147.146-4.172-1.466-2.762-4.3q4.915-9.874,9.874-19.727c1.383-2.745,3.417-2.832,5.166-.253C-6908.356,3638.707-6907.594,3639.877-6906.622,3641.342Z" transform="translate(-158.759 -101.64)" fill="#fd646f"/>
    <path id="Trazado_168433" data-name="Trazado 168433" d="M-7106.313,3754.056c-.125,3.1-.1,6.122,2.5,8.445.715.637,1.617.844,2.33,1.414-2.1.4-4.229.073-6.343.181a6.913,6.913,0,0,0-2.052.122,6.844,6.844,0,0,1-6.653-6.871c-.024-4.306-.011-8.612-.005-12.917,0-3.852,1.775-6.152,5.519-7.2a.814.814,0,0,1,1.15.026h8.659c-4.831,2.115-5.4,5.81-5.1,9.9a1.148,1.148,0,0,1,.132,1.155,6.7,6.7,0,0,0,0,4.592A1.124,1.124,0,0,1-7106.313,3754.056Z" transform="translate(-56.855 -168.732)" fill="#596c76"/>
    <path id="Trazado_168434" data-name="Trazado 168434" d="M-7106.343,3638.752a28.872,28.872,0,0,0,.063,3.849c.447,3.079,1.316,4.264,4.494,6.345h-8.445a.909.909,0,0,1-1.069,0,6.49,6.49,0,0,1-5.226-6.328c-.036-4.432-.02-8.865-.01-13.3.01-4.247,2.628-6.915,6.931-7.09h8.005c-4.655,2.081-4.925,6.075-4.7,10.3A25.92,25.92,0,0,0-7106.343,3638.752Z" transform="translate(-56.852 -107.73)" fill="#596c76"/>
    <path id="Trazado_168435" data-name="Trazado 168435" d="M-7055.383,3420.315c.752.122.371.308.034.512a6.858,6.858,0,0,0-3.559,6.514c.1,3.322.035,6.649.021,9.974a4.474,4.474,0,0,1-4.685,4.736c-3.441.017-6.885.081-10.324-.02a6.711,6.711,0,0,0-6.191,3.487c-.112.174-.061.7-.545.385a10.428,10.428,0,0,1,3.056-7.05q7.7-7.8,15.49-15.5A10.592,10.592,0,0,1-7055.383,3420.315Z" transform="translate(-75.94 -0.419)" fill="#d8e6eb"/>
    <path id="Trazado_168436" data-name="Trazado 168436" d="M-7196.877,3468.98c-2.27,1.217-4.1,2.766-4.7,5.47a18.464,18.464,0,0,0-.189,3.818c-.043,2.8,0,5.6-.017,8.393a3.718,3.718,0,0,1-4,4.043c-3.147.016-6.3-.074-9.441.033a10.283,10.283,0,0,0-5.492,1.335c-1.475.958-2.029,2.472-2.794,3.883a11.761,11.761,0,0,1,3.464-8.518q7.424-7.57,14.992-15A11.912,11.912,0,0,1-7196.877,3468.98Z" transform="translate(-0.009 -26.283)" fill="#d8e6eb"/>
    <path id="Trazado_168437" data-name="Trazado 168437" d="M-6911.8,3468.98c-4.1,1.87-5.262,5.231-4.924,9.453.153,1.914.026,3.851.026,5.777,0,.876.012,1.752,0,2.627a3.708,3.708,0,0,1-3.832,3.865c-3.036.025-6.073.074-9.106-.01-4.084-.114-7.318,1.074-8.788,5.266a11.552,11.552,0,0,1,3.551-8.609c4.885-4.989,9.838-9.91,14.8-14.818A12.063,12.063,0,0,1-6911.8,3468.98Z" transform="translate(-151.515 -26.283)" fill="#d8e6eb"/>
    <path id="Trazado_168438" data-name="Trazado 168438" d="M-7083.744,3794.454l57.58.028a3.216,3.216,0,0,1-1.878.232q-27.851.023-55.7.028c-.113-.063-.151-.128-.113-.192S-7083.782,3794.454-7083.744,3794.454Z" transform="translate(-74.218 -199.262)" fill="#7a8b97"/>
    <path id="Trazado_168439" data-name="Trazado 168439" d="M-7116.477,3720.376c.325.079.936.16.936.238-.008,1.993,1.86,3.63,1.1,5.751A6.457,6.457,0,0,1-7116.477,3720.376Z" transform="translate(-56.855 -159.892)" fill="#7a8b97"/>
    <path id="Trazado_168440" data-name="Trazado 168440" d="M-7110.836,3679.247l1.068,0a38.542,38.542,0,0,1-5.907,4.884,6.21,6.21,0,0,1,3.44-4.022C-7111.756,3679.847-7111.095,3679.868-7110.836,3679.247Z" transform="translate(-57.316 -138.033)" fill="#7a8b97"/>
    <path id="Trazado_168441" data-name="Trazado 168441" d="M-6954.32,3741.079a3.049,3.049,0,0,1-3.572-2.8A4.224,4.224,0,0,1-6954.32,3741.079Z" transform="translate(-141.172 -169.408)" fill="#7a8b97"/>
    <path id="Trazado_168442" data-name="Trazado 168442" d="M-7105.884,3735.624l-1.15-.026c-.576-.529-1.513-.333-2.018-1a2.637,2.637,0,0,1,2.985-.377C-7104.99,3734.631-7105.264,3735.067-7105.884,3735.624Z" transform="translate(-60.836 -167.095)" fill="#7a8b97"/>
    <path id="Trazado_168443" data-name="Trazado 168443" d="M-7093.544,3794.412v.289l-8.768,0c2.14-.631,4.331-.138,6.493-.287.632-.043,1.268-.013,1.9-.016Z" transform="translate(-64.418 -199.219)" fill="#7a8b97"/>
    <path id="Trazado_168444" data-name="Trazado 168444" d="M-7116.218,3690.351c1.341,1.787,1.322,1.952-.271,2.5C-7116.5,3692.006-7116.771,3691.134-7116.218,3690.351Z" transform="translate(-56.843 -143.935)" fill="#7a8b97"/>
    <path id="Trazado_168445" data-name="Trazado 168445" d="M-6952.868,3786.921l.351-.35a2.538,2.538,0,0,1,1.357-.342,2.859,2.859,0,0,1-1.38,1.993C-6953.173,3787.92-6953.147,3787.453-6952.868,3786.921Z" transform="translate(-143.743 -194.884)" fill="#7a8b97"/>
    <path id="Trazado_168446" data-name="Trazado 168446" d="M-6948.756,3781.364a1.989,1.989,0,0,0-.307-1.108c-.745-.9.15-.671.561-.767A2.554,2.554,0,0,1-6948.756,3781.364Z" transform="translate(-145.712 -191.308)" fill="#7a8b97"/>
    <path id="Trazado_168447" data-name="Trazado 168447" d="M-6953.066,3787.72a1.917,1.917,0,0,0,.327,1.3l-.678.449C-6953.333,3788.881-6953.652,3788.209-6953.066,3787.72Z" transform="translate(-143.543 -195.683)" fill="#7a8b97"/>
    <path id="Trazado_168448" data-name="Trazado 168448" d="M-6950.55,3785.836a2.155,2.155,0,0,1-1.358.342,1.925,1.925,0,0,1,1.352-.7Z" transform="translate(-144.353 -194.491)" fill="#7a8b97"/>
    <path id="Trazado_168449" data-name="Trazado 168449" d="M-6904.369,3562.865c-3.154,0-6.31.01-9.464,0-2.216-.01-3.576-1.082-3.571-2.77,0-1.6,1.493-2.762,3.6-2.765q9.551-.015,19.1,0c1.989,0,3.441,1.152,3.5,2.693.057,1.6-1.451,2.83-3.523,2.841C-6897.942,3562.875-6901.156,3562.865-6904.369,3562.865Z" transform="translate(-162.69 -73.232)" fill="#8d9ca8"/>
    <path id="Trazado_168450" data-name="Trazado 168450" d="M-6904.128,3535.479c3.271,0,6.542-.017,9.813.006,1.89.014,3.071,1.049,3.09,2.622s-1.175,2.672-3.041,2.678q-9.989.034-19.979,0c-1.967,0-3.215-1.111-3.173-2.718.041-1.547,1.246-2.573,3.125-2.584C-6910.9,3535.463-6907.517,3535.479-6904.128,3535.479Z" transform="translate(-162.683 -61.622)" fill="#8c9ba7"/>
    <path id="Trazado_168451" data-name="Trazado 168451" d="M-7001.676,3765.637c-2.8,0-5.6.031-8.394-.015a2.952,2.952,0,0,1-2.915-1.532,2.615,2.615,0,0,1,.436-2.934,3.329,3.329,0,0,1,2.825-1.1c5.48-.031,10.959-.047,16.438,0,2.179.019,3.246,1.145,3.167,3.079-.064,1.6-1.23,2.487-3.336,2.5C-6996.2,3765.646-6998.936,3765.637-7001.676,3765.637Z" transform="translate(-111.744 -180.966)" fill="#596c76"/>
    <path id="Trazado_168452" data-name="Trazado 168452" d="M-7001.643,3645.516c2.914,0,5.828-.017,8.742.006,1.941.015,2.77.8,2.792,2.556a2.6,2.6,0,0,1-2.776,2.692q-8.828.059-17.658,0a2.634,2.634,0,0,1-2.7-2.634,2.686,2.686,0,0,1,2.861-2.611C-7007.471,3645.505-7004.558,3645.516-7001.643,3645.516Z" transform="translate(-111.753 -120.103)" fill="#596c76"/>
    <path id="Trazado_168453" data-name="Trazado 168453" d="M-7051.923,3753.9c4.016-.009,5.879,1.147,6.778,4.171.651,2.194-.124,3.982-1.534,5.6a2.522,2.522,0,0,1-1.327,1.331,2.76,2.76,0,0,1-.937.341,5.1,5.1,0,0,0-.778-.061,11.467,11.467,0,0,0-2.144.219,1.665,1.665,0,0,1-.758-.335l-1.757-1.1c-1.141.13-.97-.942-1.367-1.493l-.437-1.692a6.821,6.821,0,0,1,.009-2.763c-.013-1.4,1.126-2.139,1.811-3.139C-7053.794,3754.071-7053.084,3753.476-7051.923,3753.9Z" transform="translate(-88.86 -177.634)" fill="#fd646f"/>
    <path id="Trazado_168454" data-name="Trazado 168454" d="M-7095.6,3763.072a7.941,7.941,0,0,1,.01-6.9,6.036,6.036,0,0,1,10.321,1.736,3.8,3.8,0,0,1-.929,5.2l-2.092,1.808a1.663,1.663,0,0,1-1.535.758c-1.145-.175-2.458.367-3.374-.787C-7094.355,3764.757-7094.693,3763.54-7095.6,3763.072Z" transform="translate(-67.569 -177.747)" fill="#fee077"/>
    <path id="Trazado_168455" data-name="Trazado 168455" d="M-7095.655,3647.545a6.45,6.45,0,0,1,.04-6.227c2.942-2.924,5.977-3.344,8.474-1.173a5.743,5.743,0,0,1,.491,8.282,5.869,5.869,0,0,1-8.441-.223C-7095.284,3647.989-7095.467,3647.765-7095.655,3647.545Z" transform="translate(-67.54 -116.523)" fill="#fee077"/>
    <path id="Trazado_168456" data-name="Trazado 168456" d="M-7050.555,3650.068c-3.336-.019-5.453-2.237-5.423-5.687a5.546,5.546,0,0,1,5.7-5.56,5.7,5.7,0,0,1,5.547,5.613A5.577,5.577,0,0,1-7050.555,3650.068Z" transform="translate(-89.042 -116.548)" fill="#9ae59c"/>
    <path id="Trazado_168457" data-name="Trazado 168457" d="M-7096.03,3698.888c1.687-1.776,3.593-3,6.19-2.346a5.583,5.583,0,0,1,4.3,5.122,5.718,5.718,0,0,1-3.376,5.61,5.632,5.632,0,0,1-6.722-1.8,2.286,2.286,0,0,0-.411-.32l-.014.009a1.236,1.236,0,0,1-.673-1.41l-.063-.709C-7097.143,3701.546-7097.642,3700.022-7096.03,3698.888Z" transform="translate(-67.16 -147.13)" fill="#9ae59c"/>
    <path id="Trazado_168458" data-name="Trazado 168458" d="M-7090.772,3679.967a8.16,8.16,0,0,0-4.917,6.308,2.923,2.923,0,0,1-.3-3.553c.823-1.394,1.659-2.868,3.654-2.764C-7091.818,3679.984-7091.295,3679.965-7090.772,3679.967Z" transform="translate(-67.529 -138.408)" fill="#7a8b97"/>
    <path id="Trazado_168459" data-name="Trazado 168459" d="M-7095.877,3723.368a8.305,8.305,0,0,0,4.57,6.3c-2.7.021-3.43-.622-4.675-3.388C-7096.48,3725.179-7097.619,3724.3-7095.877,3723.368Z" transform="translate(-67.343 -161.482)" fill="#7a8b97"/>
    <path id="Trazado_168460" data-name="Trazado 168460" d="M-7074.646,3767.527a6.458,6.458,0,0,0,.931-5.2l1.185-.047a2.044,2.044,0,0,1,0,1.752c-.726.985.256,2.158-.351,3.156-.528.325-1.033.756-1.716.373Z" transform="translate(-79.121 -182.162)" fill="#7a8b97"/>
    <path id="Trazado_168461" data-name="Trazado 168461" d="M-7096.8,3701.311a8.078,8.078,0,0,0-.767,4.154,5.935,5.935,0,0,1-1.031-2.512c0-1.242.376-2.05,1.768-2.031Z" transform="translate(-66.392 -149.553)" fill="#7a8b97"/>
    <path id="Trazado_168462" data-name="Trazado 168462" d="M-7085.707,3777.712l1.427-.372c-.134,1.173-.419,2.09-1.932,1.377-.851-.4-1.753,1.015-2.625-.02C-7087.94,3777.9-7086.785,3777.93-7085.707,3777.712Z" transform="translate(-71.579 -190.166)" fill="#7a8b97"/>
    <path id="Trazado_168463" data-name="Trazado 168463" d="M-7040.467,3775.955l1.415-1.036c.023.863.167,1.767-.764,2.313-.847.5-1.4-.158-2.025-.522-.114-.066-.152-.131-.114-.2s.075-.1.114-.1l.677-.111A.551.551,0,0,0-7040.467,3775.955Z" transform="translate(-96.487 -188.88)" fill="#7a8b97"/>
    <path id="Trazado_168464" data-name="Trazado 168464" d="M-7086.106,3777.68c-1.059.281-1.941,1.123-3.132.985-.51-.362-.3-.907-.351-1.386A10.853,10.853,0,0,0-7086.106,3777.68Z" transform="translate(-71.179 -190.134)" fill="#7a8b97"/>
    <path id="Trazado_168465" data-name="Trazado 168465" d="M-7049.722,3753.25l-2.441,1.084a1.476,1.476,0,0,1,.891-1.662A1.084,1.084,0,0,1-7049.722,3753.25Z" transform="translate(-91.062 -176.987)" fill="#7a8b97"/>
    <path id="Trazado_168466" data-name="Trazado 168466" d="M-7097.036,3712.13l.674,1.41c-.539.006-1.1,0-1.307-.622C-7097.848,3712.391-7097.516,3712.178-7097.036,3712.13Z" transform="translate(-66.86 -155.509)" fill="#7a8b97"/>
    <path id="Trazado_168467" data-name="Trazado 168467" d="M-7071.228,3769.176a6.034,6.034,0,0,0-.21-2.2c-.23-.528-.057-.889.561-.957C-7071.033,3767.068-7070.525,3768.189-7071.228,3769.176Z" transform="translate(-80.775 -184.15)" fill="#7a8b97"/>
    <path id="Trazado_168468" data-name="Trazado 168468" d="M-7055.1,3772.575l1.368,1.493C-7055,3774.438-7055.088,3774.342-7055.1,3772.575Z" transform="translate(-89.511 -187.634)" fill="#7a8b97"/>
    <path id="Trazado_168469" data-name="Trazado 168469" d="M-7048.429,3778.087l.714-.018c.289.29.765-.018,1.038.326C-7047.465,3779.452-7048.048,3779.343-7048.429,3778.087Z" transform="translate(-93.055 -190.554)" fill="#7a8b97"/>
    <path id="Trazado_168470" data-name="Trazado 168470" d="M-7056.421,3763.068q0,1.381-.008,2.763A2.843,2.843,0,0,1-7056.421,3763.068Z" transform="translate(-88.615 -182.581)" fill="#7a8b97"/>
    <path id="Trazado_168471" data-name="Trazado 168471" d="M-7045.868,3778.4c-.371-.029-.777.055-1.038-.326l2.441.02v.295Z" transform="translate(-93.864 -190.554)" fill="#7a8b97"/>
    <path id="Trazado_168472" data-name="Trazado 168472" d="M-7074.541,3773.127l1.715-.373C-7073.266,3773.483-7073.807,3773.746-7074.541,3773.127Z" transform="translate(-79.177 -187.729)" fill="#7a8b97"/>
    <path id="Trazado_168473" data-name="Trazado 168473" d="M-7070.131,3764.032v-1.752A1.179,1.179,0,0,1-7070.131,3764.032Z" transform="translate(-81.521 -182.162)" fill="#7a8b97"/>
    <path id="Trazado_168474" data-name="Trazado 168474" d="M-7046.6,3486.183c3.212,0,6.423-.014,9.635,0,2.079.012,3.215.947,3.252,2.612.038,1.713-.967,2.846-3.038,2.872q-9.984.125-19.969-.006c-2.064-.029-3.052-1.188-2.988-2.914.06-1.65,1.2-2.554,3.3-2.564C-7053.144,3486.171-7049.874,3486.183-7046.6,3486.183Z" transform="translate(-87.057 -35.423)" fill="#8d9ca8"/>
    <path id="Trazado_168475" data-name="Trazado 168475" d="M-7046.718,3508.519c3.325,0,6.649-.014,9.974.006,2.035.012,2.995.85,3.027,2.567.032,1.7-1.087,2.731-3.109,2.738q-9.886.03-19.772,0c-2.027-.006-3.143-1.03-3.114-2.733.029-1.768,1-2.566,3.2-2.574C-7053.25,3508.51-7049.984,3508.519-7046.718,3508.519Z" transform="translate(-87.058 -47.295)" fill="#8c9ba7"/>
    <path id="Trazado_168476" data-name="Trazado 168476" d="M-7189.358,3562.862c-3.212,0-6.424.013-9.636,0-1.971-.011-3.431-1.184-3.461-2.725s1.438-2.8,3.38-2.806q9.724-.027,19.447,0c1.941.005,3.407,1.27,3.372,2.812s-1.491,2.707-3.466,2.718C-7182.934,3562.875-7186.146,3562.862-7189.358,3562.862Z" transform="translate(-11.195 -73.229)" fill="#8d9ca8"/>
    <path id="Trazado_168477" data-name="Trazado 168477" d="M-7189.392,3540.8c-3.271,0-6.542.014-9.813-.006-2.011-.011-3.239-1.053-3.227-2.672s1.232-2.631,3.257-2.634q9.814-.017,19.628,0c2.036,0,3.261.979,3.31,2.578.05,1.659-1.228,2.722-3.34,2.731C-7182.85,3540.807-7186.121,3540.8-7189.392,3540.8Z" transform="translate(-11.208 -61.624)" fill="#8c9ba7"/>
    <path id="Trazado_168478" data-name="Trazado 168478" d="M-7001.817,3708.031c-2.679,0-5.359.007-8.038,0-2.063-.008-3.281-.916-3.382-2.494-.1-1.617,1.319-3,3.337-3.057,2.5-.073,5.008-.02,7.514-.02,2.912,0,5.826-.052,8.737.022,1.531.039,3.095.256,3.51,2.175s-.8,3.337-2.94,3.365C-6995.992,3708.061-6998.9,3708.031-7001.817,3708.031Z" transform="translate(-111.756 -150.359)" fill="#596c76"/>
    <path id="Trazado_168479" data-name="Trazado 168479" d="M-7050.535,3707.7a5.367,5.367,0,0,1-5.5-5.681,5.557,5.557,0,0,1,5.685-5.587,5.691,5.691,0,0,1,5.588,5.745A5.607,5.607,0,0,1-7050.535,3707.7Z" transform="translate(-89.012 -147.165)" fill="#fee077"/>
    <path id="Trazado_168480" data-name="Trazado 168480" d="M-7039.554,3777.13c.086.294.418.655-.008.863-.409.2-.536-.231-.689-.513Z" transform="translate(-97.401 -190.055)" fill="#7a8b97"/>
  </g>
</svg>
