<svg xmlns="http://www.w3.org/2000/svg" width="451.826" height="319.416" viewBox="0 0 451.826 319.416">
  <g id="Grupo_120684" data-name="Grupo 120684" transform="translate(-6466.174 5959.43)">
    <g id="Grupo_120682" data-name="Grupo 120682" transform="translate(5655 -11402)">
      <g id="Grupo_120683" data-name="Grupo 120683">
        <rect id="BG" width="451.826" height="319.416" transform="translate(811.174 5442.57)" fill="#e8e8e8" opacity="0.949"/>
      </g>
    </g>
    <g id="Grupo_119083" data-name="Grupo 119083" transform="translate(6628.166 -5790.861)">
      <g id="Grupo_119082" data-name="Grupo 119082">
        <g id="Grupo_119078" data-name="Grupo 119078" transform="translate(42.665)">
          <path id="Trazado_168572" data-name="Trazado 168572" d="M795.709,1118.964l-49.955-21.021-38.971,26.3,20.692,8.706a8.942,8.942,0,0,1-1.395.909,11.446,11.446,0,0,1-2.552.743c-1.741.321-3.877.268-5.117,1.1-1.938,1.309-.413,3.684,3.4,5.385.11.05.223.1.337.147,4.061,1.708,8.971,2,10.965.656,1.62-1.093.374-2.829,1.341-4.1a9.829,9.829,0,0,1,1.615-1.227l20.666,8.7,16.124-10.879c-.066-.031-.135-.063-.207-.095a19.135,19.135,0,0,0-2.122-.777c-2.4-.529-5.657.112-7.734-.762-2.546-1.133-2.026-3.7,1.107-5.818,3.167-2.137,7.808-3,10.366-1.923,1.587.707,1.525,1.82,2.14,2.733a4.7,4.7,0,0,0,1.429,1.366c.076.046.364.191.729.354.305.136.665.285,1,.4Z" transform="translate(-706.783 -1097.943)" fill="#98a7d3"/>
        </g>
        <path id="Trazado_168573" data-name="Trazado 168573" d="M533.613,1469.368c-1.26-.852-3.433-.8-5.2-1.123a11.555,11.555,0,0,1-2.6-.757,9.05,9.05,0,0,1-1.416-.923l21.03-8.85-16.386-11.057c.067-.033.138-.066.211-.1a19.479,19.479,0,0,1,2.156-.791c2.442-.537,5.748.115,7.945-.81,2.5-1.116,1.974-3.729-1.211-5.877-3.22-2.173-7.937-3.048-10.613-1.92-1.534.685-1.472,1.816-2.1,2.743a4.784,4.784,0,0,1-1.454,1.389c-.077.047-.373.2-.746.362-.309.138-.672.287-1.009.4l-16.406-11.071-50.775,21.366,39.61,26.727,21.007-8.838a10.152,10.152,0,0,1,1.641,1.246c.982,1.292-.284,3.056,1.362,4.168,2.029,1.368,7.018,1.068,11.145-.668.116-.049.231-.1.343-.149C534.031,1473.111,535.583,1470.7,533.613,1469.368Z" transform="translate(-455.045 -1374.543)" fill="#98a7d3"/>
        <g id="Grupo_119079" data-name="Grupo 119079" transform="translate(117.842 23.623)">
          <path id="Trazado_168574" data-name="Trazado 168574" d="M1150.352,1258.693l21-8.839A10.085,10.085,0,0,1,1173,1251.1c.982,1.293-.284,3.057,1.363,4.169,2.028,1.368,7.017,1.068,11.145-.668.115-.049.229-.1.34-.147,3.879-1.73,5.434-4.145,3.462-5.476-1.26-.849-3.432-.8-5.2-1.123a11.56,11.56,0,0,1-2.595-.756,9.2,9.2,0,0,1-1.417-.923l21.031-8.849,39.61,26.728-50.775,21.366-16.387-11.058c.065-.032.133-.063.2-.094a19.849,19.849,0,0,1,2.163-.794c2.444-.536,5.75.116,7.861-.773,2.587-1.153,2.059-3.766-1.125-5.914-3.22-2.173-7.937-3.048-10.536-1.954-1.613.718-1.55,1.85-2.175,2.777a4.79,4.79,0,0,1-1.454,1.389c-.077.045-.373.195-.746.361-.309.138-.671.288-1.008.4Z" transform="translate(-1150.352 -1237.328)" fill="#98a7d3"/>
        </g>
        <g id="Grupo_119081" data-name="Grupo 119081" transform="translate(96.577 82.013)">
          <g id="Grupo_119080" data-name="Grupo 119080">
            <path id="Trazado_168575" data-name="Trazado 168575" d="M1113.806,1602.867l-20.668-8.7a9.918,9.918,0,0,0-1.614,1.226c-.966,1.272.28,3.008-1.34,4.1-2,1.346-6.9,1.052-10.965-.656q-.172-.073-.338-.146c-3.815-1.7-5.342-4.077-3.4-5.385,1.24-.837,3.378-.783,5.116-1.1a11.357,11.357,0,0,0,2.553-.744,8.932,8.932,0,0,0,1.394-.908l-20.691-8.708-16.141,10.892c-.334-.113-.693-.261-1-.4-.365-.162-.652-.307-.727-.354a4.716,4.716,0,0,1-1.432-1.366c-.615-.913-.553-2.026-2.062-2.7-2.635-1.11-7.275-.249-10.443,1.889-3.133,2.114-3.651,4.685-1.19,5.782,2.162.911,5.413.268,7.817.8a19.065,19.065,0,0,1,2.121.777q.109.048.208.1l-16.123,10.878,49.957,21.021Z" transform="translate(-1024.879 -1581.846)" fill="#98a7d3"/>
          </g>
        </g>
      </g>
    </g>
    <g id="Grupo_119195" data-name="Grupo 119195" transform="translate(6596.613 -5941.43)">
      <g id="Grupo_119113" data-name="Grupo 119113" transform="translate(42.47 0)">
        <path id="Trazado_168576" data-name="Trazado 168576" d="M576.529,1136.348c0,7.012-12.775,12.7-28.534,12.7s-28.533-5.684-28.533-12.7,12.775-12.7,28.533-12.7S576.529,1129.335,576.529,1136.348Z" transform="translate(-519.461 -968.725)" fill="#98a7d3"/>
        <g id="Grupo_119112" data-name="Grupo 119112" transform="translate(14.081)">
          <g id="Grupo_119086" data-name="Grupo 119086" transform="translate(21.053 156.757)">
            <path id="Trazado_168577" data-name="Trazado 168577" d="M731.705,1166.731l.468-.087.468-3.929-1.229-1.455Z" transform="translate(-730.624 -1156.717)" fill="#401427"/>
            <g id="Grupo_119085" data-name="Grupo 119085">
              <path id="Trazado_168578" data-name="Trazado 168578" d="M727.279,1160.6l.564.319-.088-6.431-.993-.226Z" transform="translate(-726.762 -1150.905)" fill="#161c29"/>
              <g id="Grupo_119084" data-name="Grupo 119084" transform="translate(0)">
                <path id="Trazado_168579" data-name="Trazado 168579" d="M731.882,1136.057l1.044,3.448a23.218,23.218,0,0,0,2.592,4.633s2.115,2.9-1.842,2.706c0,0-4.22-.225-4.156-2.932.055-2.329-2.085-5.219-2.085-5.219a2.355,2.355,0,0,1,.276-2.78l.732-.836,3.549-.62Z" transform="translate(-727.04 -1134.457)" fill="#e28262"/>
                <path id="Trazado_168580" data-name="Trazado 168580" d="M735.471,1148.247a5.318,5.318,0,0,1-4.6-1.391c-1.1-1.081-2.35-5.036-1.934-3.722.172.543-1.118-4.265-.774-5.016l-.732.836a2.456,2.456,0,0,0-.348,2.853s2.212,2.817,2.157,5.146c-.064,2.708,4.156,2.932,4.156,2.932,2.375.116,2.562-.883,2.332-1.7A2.486,2.486,0,0,1,735.471,1148.247Z" transform="translate(-726.764 -1137.497)" fill="#161c29"/>
                <path id="Trazado_168581" data-name="Trazado 168581" d="M748.829,1181.106s.6,1.126-1.295,1.126c0,0-7.081-.45-7.078-3.493l0-2.451s.557,3.5,4.93,3.506c0,0,1.942,0,.939-1.237Z" transform="translate(-738.133 -1169.199)" fill="#161c29"/>
              </g>
            </g>
          </g>
          <g id="Grupo_119111" data-name="Grupo 119111">
            <path id="Trazado_168582" data-name="Trazado 168582" d="M676.431,214.25a4.713,4.713,0,1,1-4.712-4.713A4.712,4.712,0,0,1,676.431,214.25Z" transform="translate(-656.08 -209.537)" fill="#151e40"/>
            <path id="Trazado_168583" data-name="Trazado 168583" d="M714.555,299.9h9.282c-.422-1.351-1.3-4.849.057-7.23l-9.378-6.158S716.183,296.843,714.555,299.9Z" transform="translate(-695.538 -273.464)" fill="#f39672"/>
            <path id="Trazado_168584" data-name="Trazado 168584" d="M715.6,294.067a4.077,4.077,0,0,0,2.922,2.577,9.792,9.792,0,0,0,4.713.349,7.336,7.336,0,0,1,.663-4.325l-9.378-6.158s.508,3.152.689,6.488C715.332,293.355,715.456,293.712,715.6,294.067Z" transform="translate(-695.538 -273.464)" fill="#db765e"/>
            <path id="Trazado_168585" data-name="Trazado 168585" d="M712.844,236.54l.493-1.4,1.2-4.107a4.142,4.142,0,0,0,.021-2.18,6.592,6.592,0,0,1-.191-3.409c.764-3.738-.894-5.688-.894-5.688-2.181-3.436-7.329-3.419-7.329-3.419-6.365.33-6.885,6.493-6.885,6.493-1.022,4.1,2.248,7.505,2.253,7.511a4.546,4.546,0,0,1,.658,1.662,5.119,5.119,0,0,0,.934,1.558,11.444,11.444,0,0,0,3.263,2.619,12.6,12.6,0,0,0,4.907,1.157C711.924,237.333,712.562,237.342,712.844,236.54Z" transform="translate(-682.704 -215.187)" fill="#f39672"/>
            <g id="Grupo_119089" data-name="Grupo 119089" transform="translate(0 158.716)">
              <path id="Trazado_168586" data-name="Trazado 168586" d="M605.084,1172.041l.472.067,1.7-3.571-.7-1.773Z" transform="translate(-604.653 -1163.246)" fill="#401427"/>
              <g id="Grupo_119088" data-name="Grupo 119088">
                <path id="Trazado_168587" data-name="Trazado 168587" d="M602.541,1164.816l.431.484,1.98-6.122-.868-.532Z" transform="translate(-602.541 -1156.505)" fill="#161c29"/>
                <g id="Grupo_119087" data-name="Grupo 119087" transform="translate(1.493)">
                  <path id="Trazado_168588" data-name="Trazado 168588" d="M616.985,1148.041c-.094,2.874-.307,6.1.852,8.82,0,0,1.073,3.425-2.613,1.973,0,0-3.925-1.567-3-4.11.8-2.188-.3-5.612-.3-5.612a2.356,2.356,0,0,1,1.153-2.544l.962-.557h3.689Z" transform="translate(-611.785 -1146.01)" fill="#f39672"/>
                  <path id="Trazado_168589" data-name="Trazado 168589" d="M617.277,1157.948a5.318,5.318,0,0,1-3.907-2.792c-.693-1.376-.61-5.525-.638-4.146-.011.57.308-4.4.876-5l-.962.557a2.457,2.457,0,0,0-1.245,2.59s1.192,3.378.392,5.566c-.929,2.543,3,4.11,3,4.11,2.213.872,2.709-.014,2.754-.861A2.425,2.425,0,0,1,617.277,1157.948Z" transform="translate(-611.351 -1146.01)" fill="#161c29"/>
                  <path id="Trazado_168590" data-name="Trazado 168590" d="M619.609,1191.152s.2,1.257-1.588.651c0,0-6.563-2.7-5.584-5.579l.784-2.323s-.6,3.492,3.544,4.9c0,0,1.839.623,1.286-.871Z" transform="translate(-612.171 -1177.48)" fill="#161c29"/>
                </g>
              </g>
            </g>
            <path id="Trazado_168591" data-name="Trazado 168591" d="M630.723,886.815c-4.707,8.691-5.54,12.228-6.377,18.837-.488,3.844-.326,20.034-.83,22.45-.21,1,3.595.452,3.595.452.7-1.694,11.777-38.894,11.777-38.894s1.239-3.853.21-4.523C633.931,881.771,632.774,883.027,630.723,886.815Z" transform="translate(-619.954 -769.011)" fill="#f39672"/>
            <path id="Trazado_168592" data-name="Trazado 168592" d="M622.585,929.33c.7-1.694,11.662-39.67,11.662-39.67s1.239-3.853.21-4.523c-5.167-3.366-6.324-2.11-8.375,1.678-4.707,8.691-5.54,12.228-6.377,18.837-.488,3.844-1.281,19.476-1.786,21.891C617.92,927.543,620.735,930.9,622.585,929.33Z" transform="translate(-615.313 -769.011)" fill="#1d2127"/>
            <path id="Trazado_168593" data-name="Trazado 168593" d="M677.654,522.986s3.617,15.309,3.132,16.981c-1.4,4.817-14.376,11.577-26.209,1.719a87.624,87.624,0,0,1,8.323-20.9S664.963,522.917,677.654,522.986Z" transform="translate(-645.757 -468.034)" fill="#1d2127"/>
            <path id="Trazado_168594" data-name="Trazado 168594" d="M692.021,349.218s4.734,9.152,6.848,14.173c-.886,5.885-4.083,14.617-5.369,16.458-2.816,4.035-15.693.433-15.693.433L674.1,367.89c10.834-3.89,5.129-15.306,5.129-15.306l1.7-1.072s1.733,5.611,8.784,5.411c0,0,2.316-1.508.612-7.908A9.916,9.916,0,0,1,692.021,349.218Z" transform="translate(-661.969 -325.375)" fill="#4c3887"/>
            <path id="Trazado_168595" data-name="Trazado 168595" d="M710.328,616.289s1.246,24.7,5.815,37.981c.68,1.98,8.489-.651,8.489-.651s3.94-21.25,3.7-30.055c-.134-4.976-1.914-15.706-1.914-15.706S711.779,605.944,710.328,616.289Z" transform="translate(-692.06 -540.234)" fill="#e28262"/>
            <path id="Trazado_168596" data-name="Trazado 168596" d="M727.992,879.106l8.264-.563s-5.078,42.161-5.538,43.933c0,0-3.553,1.285-3.481.264.172-2.462-2.792-21.382-2.882-25.256C724.21,891.261,724.454,887.331,727.992,879.106Z" transform="translate(-703.685 -765.158)" fill="#e28262"/>
            <path id="Trazado_168597" data-name="Trazado 168597" d="M710.328,616.289s1.246,24.7,5.815,37.981c.68,1.98,8.489-.651,8.489-.651s3.94-21.25,3.7-30.055c-.134-4.976-1.914-15.706-1.914-15.706S711.779,605.944,710.328,616.289Z" transform="translate(-692.06 -540.234)" fill="#181b21"/>
            <path id="Trazado_168598" data-name="Trazado 168598" d="M731.742,922.74c.838-1.628,4.515-44.2,4.515-44.2l-8.264.563c-3.538,8.225-3.783,12.156-3.637,18.379.09,3.874,1.966,22.794,1.794,25.256C726.149,922.74,730.641,924.878,731.742,922.74Z" transform="translate(-703.685 -765.158)" fill="#181b21"/>
            <g id="Grupo_119096" data-name="Grupo 119096" transform="translate(29.493 24.886)">
              <g id="Grupo_119090" data-name="Grupo 119090">
                <path id="Trazado_168599" data-name="Trazado 168599" d="M792.067,385.31,785.8,362.6c-2.255-6.076-5.621-6.225-5.621-6.225-6.452.976-2.322,12.3-2.322,12.3l7.963,18.867" transform="translate(-776.557 -356.371)" fill="#e28262"/>
              </g>
              <g id="Grupo_119095" data-name="Grupo 119095" transform="translate(8.576 26.316)">
                <g id="Grupo_119091" data-name="Grupo 119091" transform="translate(21.38 13.527)">
                  <path id="Trazado_168600" data-name="Trazado 168600" d="M957.018,597.526c-2.708-2.01-2.9-2.556-3.306-3.373-1.766-3.507,2.739-2.738,3.838-2.312.631.246.442,1.8,2.187,4,0,0,2.91,2.319,3.713,2.3,0,0,.8.237.713.826C964.164,598.969,961.733,599.96,957.018,597.526Z" transform="translate(-953.307 -591.459)" fill="#e28262"/>
                </g>
                <g id="Grupo_119094" data-name="Grupo 119094">
                  <g id="Grupo_119092" data-name="Grupo 119092" transform="translate(2.846)">
                    <path id="Trazado_168601" data-name="Trazado 168601" d="M843.949,511.645" transform="translate(-843.949 -511.645)" fill="#e28262"/>
                  </g>
                  <g id="Grupo_119093" data-name="Grupo 119093" transform="translate(0 0.11)">
                    <path id="Trazado_168602" data-name="Trazado 168602" d="M833.606,513.488l18.348,13.881c.507,2.53-.653,2.711-.653,2.711l-14.8-6.734c-6.336-2.742-8.542-5.9-8.542-5.9s-2.589-2.426,1.533-4.858C829.492,512.589,831.365,511.511,833.606,513.488Z" transform="translate(-827.156 -512.296)" fill="#e28262"/>
                  </g>
                </g>
                <path id="Trazado_168603" data-name="Trazado 168603" d="M974.533,588.62s-.8,1.553,1.294,1.453l2.219-1.224a.793.793,0,0,0,.536-.864s-.189-.374-.875-.132Z" transform="translate(-949.43 -574.87)" fill="#e28262"/>
              </g>
            </g>
            <path id="Trazado_168604" data-name="Trazado 168604" d="M650.7,640.156s.1,24.707,3.354,38.371c.485,2.037,7.929,1.413,7.929,1.413s4.857-23.366,5.476-32.151c.35-4.966,1.344-13.656,1.344-13.656S651.374,632.405,650.7,640.156Z" transform="translate(-642.535 -562.035)" fill="#f39672"/>
            <path id="Trazado_168605" data-name="Trazado 168605" d="M660.438,354.932a5.713,5.713,0,0,0-1.856,6.952l7.173,17.421s11.632,3.956,14.448-.078c1.286-1.841,2.476-6.726,4.037-13.769,1.061-4.786,1.134-13.148-1.561-15.624-1.554-1.429-6.583-1.4-6.62-1.569l-8.148,2.625Z" transform="translate(-648.671 -324.752)" fill="#f39672"/>
            <path id="Trazado_168606" data-name="Trazado 168606" d="M674.953,517.792c.689-.125,4.408,1.344,4.408,1.344s2.678,11.416,2.831,13.151-11.785,10.72-25.12,5.6c0,0,6.734-15.883,7.718-19.2C665.92,514.875,674.953,517.792,674.953,517.792Z" transform="translate(-647.83 -464.663)" fill="#f39672"/>
            <path id="Trazado_168607" data-name="Trazado 168607" d="M789.73,391.881s3.936,4.635,4.266,8.078c.184,1.918-2.237,5.127-3.448,6.309C789.69,407.107,784.606,395.08,789.73,391.881Z" transform="translate(-756.131 -360.977)" fill="#4c3887"/>
            <path id="Trazado_168608" data-name="Trazado 168608" d="M655.252,614.888s-4.7,1.044-4.278,9.663c.414,8.417,15.738,10.167,17.706,1.687C670.8,617.11,663.62,611.759,655.252,614.888Z" transform="translate(-642.743 -545.442)" fill="#1d2127"/>
            <path id="Trazado_168609" data-name="Trazado 168609" d="M690.107,229.567a11.785,11.785,0,0,1,.041-2.728c.068-.85,1.734.981,1.7-.125-.158-5.064,1.682-7.475,2.4-7.865a8.91,8.91,0,0,1,5.649-1.071c2.561.455,2.463,3.864,2.463,3.864,2.182-12.481-11.737-8.493-11.737-8.493a7.714,7.714,0,0,0-6.081,8.169c-.831,6.86,5.669,10.823,5.669,10.823Z" transform="translate(-670.585 -212.034)" fill="#1b2a59"/>
            <g id="Grupo_119105" data-name="Grupo 119105" transform="translate(17.256 12.751)">
              <g id="Grupo_119101" data-name="Grupo 119101">
                <g id="Grupo_119100" data-name="Grupo 119100">
                  <g id="Grupo_119099" data-name="Grupo 119099">
                    <g id="Grupo_119098" data-name="Grupo 119098">
                      <g id="Grupo_119097" data-name="Grupo 119097">
                        <path id="Trazado_168610" data-name="Trazado 168610" d="M707.068,288.563a1.361,1.361,0,0,1-.883.268,2,2,0,0,1-1.828-2.058,1.841,1.841,0,0,1,1.74-2,1.733,1.733,0,0,1,1.222.557,2.5,2.5,0,0,1,.376,2.039A1.885,1.885,0,0,1,707.068,288.563Z" transform="translate(-704.356 -284.769)" fill="#f3906b"/>
                      </g>
                    </g>
                  </g>
                </g>
              </g>
              <g id="Grupo_119104" data-name="Grupo 119104" transform="translate(0.919 0.644)">
                <g id="Grupo_119102" data-name="Grupo 119102">
                  <path id="Trazado_168611" data-name="Trazado 168611" d="M711,288.969c-.058-.589-1.25-.027-1.069.305a1.815,1.815,0,0,0,.477.465.864.864,0,0,1,.366.644c0,.033.011.135-.024.159-.154.107-.66-.467-.77-.589a.984.984,0,0,1-.143-.941.589.589,0,0,1,.653-.441c.268.016.54.034.525.366,0,.006-.013.062-.016.032Z" transform="translate(-709.777 -288.569)" fill="#e47a5d"/>
                </g>
                <g id="Grupo_119103" data-name="Grupo 119103" transform="translate(0.153 0.955)">
                  <path id="Trazado_168612" data-name="Trazado 168612" d="M711.367,294.258c.125-.124.243-.02.369.07a.567.567,0,0,1,.213.347,1.384,1.384,0,0,1-.148.984.743.743,0,0,1-.64.34c-.359-.01-.465-.327-.479-.631,0-.081-.01-.272.069-.323s.147.078.2.136a.508.508,0,0,0,.3.115.651.651,0,0,0,.533-.239.286.286,0,0,0,.054-.092c0,.2-.011.242-.031.133a.558.558,0,0,0-.068-.14c-.083-.137-.224-.231-.316-.362-.044-.061-.128-.274-.066-.338Z" transform="translate(-710.681 -294.201)" fill="#e47a5d"/>
                </g>
              </g>
            </g>
            <g id="Grupo_119107" data-name="Grupo 119107" transform="translate(23.504 9.487)">
              <path id="Trazado_168613" data-name="Trazado 168613" d="M749.4,278.645c.035.353-.132.658-.371.681s-.461-.243-.495-.6.132-.657.371-.68S749.367,278.293,749.4,278.645Z" transform="translate(-747.292 -275.924)" fill="#341e13"/>
              <path id="Trazado_168614" data-name="Trazado 168614" d="M778.3,274.619c.013.354-.171.648-.411.656s-.445-.27-.458-.624.171-.648.411-.656S778.283,274.265,778.3,274.619Z" transform="translate(-771.29 -272.558)" fill="#341e13"/>
              <path id="Trazado_168615" data-name="Trazado 168615" d="M741.221,270.462c.92-.967,3.084-.89,3.084-.89s.145-.008.106-.449c0,0-.011-.39-.323-.352C744.088,268.771,741.335,268.588,741.221,270.462Z" transform="translate(-741.221 -268.215)" fill="#1b2a59"/>
              <path id="Trazado_168616" data-name="Trazado 168616" d="M775.388,265.912c-.961-.778-2.728-.171-2.728-.171-.311.045-.219.424-.219.424.078.436.22.4.22.4a5.973,5.973,0,0,1,2.605-.185C775.307,266.228,775.351,266.071,775.388,265.912Z" transform="translate(-767.139 -265.516)" fill="#1b2a59"/>
              <g id="Grupo_119106" data-name="Grupo 119106" transform="translate(2.699 7.192)">
                <path id="Trazado_168617" data-name="Trazado 168617" d="M760.832,307.954l-3.487.645c-.183.034-.256.143-.158.241a2.206,2.206,0,0,0,3.829-.717C761.066,308.009,760.981,307.943,760.832,307.954Z" transform="translate(-757.144 -307.953)" fill="#fff"/>
              </g>
              <path id="Trazado_168618" data-name="Trazado 168618" d="M764.131,289.047c1.827-.132,1.927-.611,1.927-.611l-.958-1.926S765.32,288.436,764.131,289.047Z" transform="translate(-760.248 -282.952)" fill="#e47a5d"/>
            </g>
            <path id="Trazado_168619" data-name="Trazado 168619" d="M650.7,640.156s.1,24.707,3.354,38.371c.485,2.037,7.929,1.413,7.929,1.413s4.857-23.366,5.476-32.151c.35-4.966,1.344-13.656,1.344-13.656S651.374,632.405,650.7,640.156Z" transform="translate(-642.535 -562.035)" fill="#1d2127"/>
            <path id="Trazado_168620" data-name="Trazado 168620" d="M677.654,522.986s3.617,15.309,3.132,16.981c-1.4,4.817-14.376,11.577-26.209,1.719a87.624,87.624,0,0,1,8.323-20.9S664.963,522.917,677.654,522.986Z" transform="translate(-645.757 -468.034)" fill="#1d2127"/>
            <path id="Trazado_168621" data-name="Trazado 168621" d="M678.983,380.281s13.242,4.08,16.058.045c1.286-1.842,4.118-11.051,5-16.936-2.113-5.02-6.848-14.173-6.848-14.173a9.916,9.916,0,0,0-1.7-.2c1.7,6.4-.612,7.908-.612,7.908-7.051.2-8.784-5.411-8.784-5.411l-1.7,1.072s5.253,10.91-4.885,15.9C675.515,368.484,675.272,380.188,678.983,380.281Z" transform="translate(-663.145 -325.375)" fill="#4c3887"/>
            <path id="Trazado_168622" data-name="Trazado 168622" d="M714.721,305.409a.6.6,0,1,1-.6-.6A.6.6,0,0,1,714.721,305.409Z" transform="translate(-694.706 -288.659)" fill="#fff"/>
            <g id="Grupo_119110" data-name="Grupo 119110" transform="translate(6.166 29.909)">
              <path id="Trazado_168623" data-name="Trazado 168623" d="M659.458,387.87a5.443,5.443,0,0,1-.236,7.695c-2.19,2.06-9.073,5.989-9.137,2.982-.126-5.908.1-9.118,2.294-11.178S657.4,385.68,659.458,387.87Z" transform="translate(-648.17 -386.009)" fill="#f39672"/>
              <path id="Trazado_168624" data-name="Trazado 168624" d="M650.456,413.028l-4.757-2.743-4.781,2.991s-2.8,17.828-1.768,21.909c1.1,4.348,3.1,1.145,4.04-.044C643.191,435.141,650.994,416.492,650.456,413.028Z" transform="translate(-638.922 -406.171)" fill="#f39672"/>
              <path id="Trazado_168625" data-name="Trazado 168625" d="M644.531,539.038a108.333,108.333,0,0,0,16.147,9.432s2.508-1.054,1.254-2.213c-2.13-1.969-11.442-10.886-13.592-12.859C644.531,532.1,644.531,539.038,644.531,539.038Z" transform="translate(-643.58 -508.283)" fill="#f39672"/>
              <g id="Grupo_119109" data-name="Grupo 119109" transform="translate(16.689 37.904)">
                <g id="Grupo_119108" data-name="Grupo 119108" transform="translate(0 0.001)">
                  <path id="Trazado_168626" data-name="Trazado 168626" d="M742.132,615.349c-3.1-1.338-3.4-1.827-3.989-2.528-2.521-3.011,2.04-3.293,3.209-3.128.67.1.842,1.656,3.043,3.393,0,0,3.362,1.591,4.141,1.393,0,0,.832.047.882.641C749.418,615.119,747.279,616.64,742.132,615.349Z" transform="translate(-737.395 -609.656)" fill="#f39672"/>
                </g>
                <path id="Trazado_168627" data-name="Trazado 168627" d="M757.759,609.652s-1.326,1.139.655,1.833l2.516-.3s.71.028.821-.6c0,0-.035-.417-.762-.45Z" transform="translate(-753.947 -609.652)" fill="#f39672"/>
              </g>
            </g>
          </g>
        </g>
      </g>
      <g id="Grupo_119115" data-name="Grupo 119115" transform="translate(70.124 51.568)" style="isolation: isolate">
        <path id="Trazado_168628" data-name="Trazado 168628" d="M994.126,655.241l-.112-.025c-.057-.012-.114-.026-.172-.037-.041-.008-.083-.015-.125-.022l-.121-.021-.085,9.736-16.124,10.879.1-11.619,13.358-9.012q-.294.034-.593.084c-.043.006-.086.014-.129.022l-.228.041-.153.031q-.111.022-.222.047c-.046.009-.093.021-.139.031-.116.027-.234.055-.35.084l-.093.023q-.216.056-.432.12l-.076.023q-.3.088-.6.189l-.021.008q-.3.1-.593.217l-.042.017q-.334.132-.66.279l-.031.013q-.33.149-.65.315l-.021.011c-.216.111-.427.229-.635.351l-.011.007q-.316.185-.616.389c-1.78,1.2-2.716,2.55-2.726,3.7l.1-11.618c.01-1.149.946-2.5,2.726-3.7.2-.135.406-.264.616-.389l.011-.006c.207-.123.419-.239.635-.352l.022-.01c.213-.111.429-.215.648-.315l.033-.014c.216-.1.435-.19.656-.278l.014,0,.037-.014q.289-.113.582-.214l.028-.01c.2-.067.391-.128.588-.187l.051-.017.033-.009q.214-.062.429-.118l.1-.025c.115-.029.23-.057.345-.083l.069-.017.077-.016.212-.045.162-.032.215-.039.114-.021.028,0c.2-.033.4-.06.59-.084L991,643.5l.038,0q.257-.029.509-.046l.043,0,.057,0c.158-.01.316-.018.471-.021h.014c.146,0,.29,0,.433,0h.058l.049,0c.144.005.286.012.425.023h.012l.032,0c.145.013.286.029.426.048.016,0,.032,0,.048.006l.032.005c.056.008.11.018.165.028s.089.015.133.024.107.021.159.034c.037.008.074.014.11.023l.014,0c.125.031.246.065.364.1l.082.027c.119.039.236.081.347.128.09.041.172.082.252.124l.069.038.085.047.068.044.084.055c.044.03.086.06.126.091l.071.055.024.018c.048.039.093.081.136.122l.017.017c.034.033.067.066.1.1v0h0v0c.01.01.018.022.028.032l.044.052c.03.036.059.072.087.109l.039.052.02.026c.013.02.024.039.037.058.024.036.047.072.07.11l.047.08c.021.037.041.074.061.112.006.011.013.021.018.033l.018.038c.033.065.063.13.094.2,0,.01.01.022.015.032.039.089.078.178.115.267l.076.173.035.079c.035.076.07.153.108.228.019.039.04.076.06.113.011.021.022.042.034.062.033.058.068.115.107.171.024.036.051.072.077.108s.074.1.114.152c.017.021.034.044.052.066.053.067.11.133.171.2l.01.013c.063.068.13.135.2.2.02.02.041.038.062.057.051.048.1.094.157.14l.079.066c.055.044.111.088.17.131l.077.057c.085.06.172.119.263.175l.016.009.027.016.017.008.039.022.028.014.046.023.033.017.054.027.044.022.057.028.069.033.042.019.081.037.043.021.131.059c.305.136.665.285,1,.4l16.139-10.891-.1,11.618-16.14,10.891c-.334-.113-.694-.26-1-.4l-.132-.06-.023-.01-.1-.048a.388.388,0,0,1-.038-.017l-.075-.035-.046-.021-.056-.028-.035-.017-.053-.027-.026-.014-.047-.024c-.008,0-.013-.008-.021-.011l-.036-.02-.014-.008a.189.189,0,0,1-.023-.013l0,0c-.091-.056-.177-.115-.262-.174l-.08-.059c-.057-.042-.112-.084-.166-.129l-.043-.033-.039-.034c-.053-.045-.1-.091-.153-.136-.021-.021-.044-.04-.065-.061-.069-.066-.135-.133-.2-.2l0,0-.012-.014c-.06-.064-.115-.13-.169-.2l-.052-.066c-.04-.051-.078-.1-.116-.154l-.028-.037c-.017-.024-.032-.046-.048-.07-.038-.056-.073-.113-.106-.171-.016-.027-.029-.053-.044-.08s-.033-.059-.048-.089l0,0c-.039-.077-.075-.155-.11-.232l-.028-.065q-.046-.1-.09-.207c-.034-.079-.069-.16-.1-.24l-.02-.044q-.042-.093-.088-.186l-.038-.075q-.028-.054-.06-.108c-.016-.028-.031-.056-.047-.083s-.046-.072-.07-.109-.036-.056-.056-.082l-.039-.053c-.027-.036-.056-.072-.086-.107l-.046-.054c-.039-.044-.08-.088-.124-.131l-.018-.018c-.049-.047-.1-.094-.16-.14l-.07-.054c-.04-.031-.082-.061-.126-.091l-.084-.056q-.073-.046-.152-.091l-.07-.038c-.079-.042-.162-.085-.251-.124-.112-.047-.228-.089-.347-.128l-.083-.027C994.373,655.305,994.252,655.271,994.126,655.241Z" transform="translate(-927.431 -616.817)" fill="#0082bc"/>
        <path id="Trazado_168629" data-name="Trazado 168629" d="M682.631,680.584l.1-11.619,20.692,8.706-.085,9.669.02,0,.134.016c.165.019.329.035.492.048l.049,0c.119.009.238.017.355.024l.133.007.265.012.1,0c.208.005.414.007.614,0l.08,0c.168,0,.332-.01.494-.02l.038,0c.151-.01.3-.025.443-.04l.109-.013c.124-.014.245-.032.364-.05l.043-.006c.129-.022.253-.046.376-.073l.093-.021q.172-.04.334-.087l.047-.012.067-.022c.059-.018.118-.037.175-.056l.088-.032c.049-.019.1-.036.145-.056l.08-.033.137-.062.075-.036.135-.071.062-.034c.062-.036.123-.073.181-.113a2.081,2.081,0,0,0,.913-1.894c0-.189,0-.377,0-.566a2.582,2.582,0,0,1,.423-1.64,9.806,9.806,0,0,1,1.615-1.227l20.666,8.7-.1,11.619-20.666-8.7a9.763,9.763,0,0,0-1.615,1.226,2.392,2.392,0,0,0-.42,1.466q0,.282-.005.564a2.184,2.184,0,0,1-.917,2.072c-.058.039-.118.077-.18.113l-.063.034c-.043.024-.088.048-.133.07l-.077.037c-.044.02-.09.041-.136.061l-.079.034-.044.018-.1.037-.086.032-.172.056-.072.023-.012,0-.031.007c-.11.032-.224.061-.34.088l-.049.013-.041.007c-.124.027-.249.052-.379.074l-.007,0-.029,0c-.121.02-.246.036-.373.052l-.054.007-.05.005c-.146.016-.293.029-.445.039h-.04c-.162.011-.327.018-.495.022l-.051,0H705.4c-.2,0-.405,0-.614,0h-.049l-.051,0c-.087,0-.176-.006-.264-.011-.044,0-.088,0-.133-.006-.126-.007-.253-.015-.38-.027h-.022c-.164-.013-.329-.031-.5-.048l-.13-.016c-.146-.017-.294-.036-.442-.058l-.054-.007-.019,0q-.206-.031-.412-.065l-.071-.014c-.116-.02-.231-.04-.347-.062l-.155-.032-.265-.054-.174-.039c-.082-.017-.166-.037-.248-.057l-.066-.014-.057-.015c-.224-.055-.448-.112-.672-.175l-.088-.025c-.228-.065-.455-.133-.68-.206l-.069-.023c-.232-.076-.463-.156-.692-.241-.014-.005-.027-.011-.041-.015-.238-.089-.475-.183-.708-.281-.115-.048-.227-.1-.337-.145q-.235-.105-.458-.214l-.151-.074c-.1-.049-.192-.1-.286-.146-.056-.029-.11-.059-.164-.088l-.253-.141-.155-.09-.094-.055c-.052-.031-.1-.063-.152-.1s-.09-.055-.133-.083c-.091-.059-.179-.117-.267-.177l-.085-.058q-.168-.118-.323-.236l-.077-.062c-.061-.047-.123-.1-.181-.144l-.032-.028c-.076-.064-.147-.128-.217-.192-.031-.029-.064-.057-.094-.086-.1-.093-.19-.185-.276-.278h0c-.075-.082-.144-.163-.209-.244-.021-.027-.039-.053-.059-.078-.034-.044-.07-.09-.1-.134l-.024-.036c-.016-.022-.029-.045-.044-.068-.037-.057-.072-.114-.1-.17-.013-.024-.027-.047-.04-.071s-.016-.027-.023-.04c-.031-.06-.058-.118-.083-.178,0-.009-.007-.019-.012-.03-.017-.042-.034-.083-.047-.124s-.016-.053-.023-.078-.009-.027-.012-.04c-.016-.06-.03-.119-.04-.178,0-.012,0-.023-.005-.036s0-.025,0-.037a1.5,1.5,0,0,1-.015-.2v-.021q.036-4.136.073-8.27Z" transform="translate(-682.631 -642.668)" fill="#2ca1df"/>
        <g id="Grupo_119114" data-name="Grupo 119114" transform="translate(0.102)">
          <path id="Trazado_168630" data-name="Trazado 168630" d="M772.158,534.828,722.2,513.807l-38.971,26.3,20.692,8.706a8.915,8.915,0,0,1-1.394.909,11.439,11.439,0,0,1-2.553.743c-1.741.321-3.877.268-5.117,1.1-1.939,1.308-.413,3.683,3.4,5.385.11.05.223.1.337.147,4.061,1.708,8.971,2,10.965.656,1.62-1.093.374-2.829,1.341-4.1a9.816,9.816,0,0,1,1.616-1.227l20.666,8.7,16.124-10.879-.207-.1a19.355,19.355,0,0,0-2.122-.777c-2.4-.528-5.657.113-7.734-.762-2.546-1.133-2.026-3.7,1.107-5.818,3.167-2.137,7.808-3,10.366-1.923,1.587.707,1.525,1.82,2.14,2.733a4.706,4.706,0,0,0,1.429,1.365c.076.047.364.191.729.354.305.136.665.285,1,.4Z" transform="translate(-683.232 -513.807)" fill="#77b5e5"/>
        </g>
      </g>
      <g id="Grupo_119117" data-name="Grupo 119117" transform="translate(27.561 108.013)" style="isolation: isolate">
        <g id="Grupo_119116" data-name="Grupo 119116" transform="translate(73.999 11.877)">
          <path id="Trazado_168631" data-name="Trazado 168631" d="M897.89,916.93c0,.029,0,.057,0,.086s0,.062,0,.092-.006.05-.008.075-.007.059-.011.088-.01.057-.016.086-.009.043-.013.065-.016.059-.024.087-.012.041-.018.062l-.014.035a1.822,1.822,0,0,1-.1.237l0,.005a1.934,1.934,0,0,1-.13.216c-.008.012-.015.024-.023.035a2.091,2.091,0,0,1-.161.2c-.016.019-.032.036-.049.054s-.037.039-.056.057-.044.042-.068.063-.041.038-.062.056l-.06.049-.113.087-.062.043c-.042.029-.086.057-.131.084l-.059.037c-.039.024-.079.044-.121.066l-.068.038c-.065.032-.132.065-.2.1a5.493,5.493,0,0,1-.835.269q-.348.084-.719.136c-.234.034-.475.06-.718.081-.341.027-.689.043-1.04.053-.771.023-1.561.015-2.329.036-.346.01-.688.026-1.021.052l.1,11.81c.334-.027.675-.043,1.022-.053.768-.021,1.558-.014,2.328-.036.352-.009.7-.026,1.04-.054.244-.019.484-.046.719-.079s.486-.081.719-.137a5.36,5.36,0,0,0,.835-.269c.069-.031.137-.063.2-.1.019-.009.036-.02.055-.03.046-.024.09-.049.134-.074l.013-.007.038-.024c.047-.028.093-.058.137-.088l.062-.043.113-.087.035-.027.026-.023c.021-.019.042-.036.062-.056s.046-.04.067-.062l.057-.057c.011-.014.023-.025.034-.036s.009-.011.015-.017a2.172,2.172,0,0,0,.16-.2l.01-.012c0-.007.008-.015.013-.022a1.989,1.989,0,0,0,.13-.217h0v0a1.911,1.911,0,0,0,.1-.239.128.128,0,0,0,.008-.019l0-.013c.008-.024.014-.047.02-.07s.015-.052.022-.078l.014-.071c0-.019.009-.039.013-.058l0-.021c0-.031.009-.063.012-.1s.006-.045.007-.067,0-.071,0-.106c0-.018,0-.034,0-.051v-.024Z" transform="translate(-886.001 -916.93)" fill="#6d1e3a"/>
          <path id="Trazado_168632" data-name="Trazado 168632" d="M870.478,933.177a.038.038,0,0,0-.012,0,19.478,19.478,0,0,0-2.144.787c-.073.032-.144.065-.211.1l.1,11.809c.066-.033.137-.065.211-.1a20.268,20.268,0,0,1,2.143-.788.046.046,0,0,0,.012,0c.186-.04.377-.074.571-.1.232-.033.471-.059.713-.078l-.1-11.81c-.243.02-.481.046-.713.08C870.854,933.1,870.663,933.137,870.478,933.177Z" transform="translate(-868.111 -930.271)" fill="#6d1e3a"/>
        </g>
        <path id="Trazado_168633" data-name="Trazado 168633" d="M716.085,1016.365l-.1-11.81-21.03,8.85.086,9.827c-2.442.292-4.636.063-5.821-.736a2.112,2.112,0,0,1-.927-1.921q0-.291-.005-.584a2.622,2.622,0,0,0-.429-1.663,10.16,10.16,0,0,0-1.641-1.247l-21.007,8.839.1,11.81,21.007-8.84a10.1,10.1,0,0,1,1.64,1.247,2.429,2.429,0,0,1,.426,1.481q0,.293,0,.585a2.215,2.215,0,0,0,.931,2.1c2.028,1.369,7.017,1.069,11.145-.668q.174-.073.343-.148c2.746-1.223,4.326-2.792,4.315-4.075q-.037-4.2-.075-8.4Z" transform="translate(-625.597 -977.827)" fill="#922b58"/>
        <path id="Trazado_168634" data-name="Trazado 168634" d="M878.423,929.293l.1,11.809c-2.2.926-5.5.275-7.946.81a19.726,19.726,0,0,0-2.155.791c-.074.033-.145.065-.211.1l-.1-11.809c.067-.033.138-.066.211-.1a19.651,19.651,0,0,1,2.156-.791C872.92,929.566,876.226,930.218,878.423,929.293Z" transform="translate(-794.112 -915.32)" fill="#6d1e3a"/>
        <path id="Trazado_168635" data-name="Trazado 168635" d="M471.1,999.643l-39.61-26.727.1,11.809,39.611,26.728Z" transform="translate(-431.494 -951.55)" fill="#6d1e3a"/>
        <path id="Trazado_168636" data-name="Trazado 168636" d="M510.062,885.23c-1.26-.852-3.433-.8-5.2-1.123a11.56,11.56,0,0,1-2.6-.757,9.074,9.074,0,0,1-1.416-.923l21.03-8.85-16.386-11.057c.067-.033.138-.066.211-.1a19.61,19.61,0,0,1,2.156-.791c2.442-.536,5.748.115,7.946-.81,2.5-1.116,1.974-3.729-1.211-5.877-3.219-2.173-7.936-3.048-10.613-1.92-1.534.685-1.472,1.816-2.1,2.743a4.783,4.783,0,0,1-1.454,1.389c-.077.046-.372.195-.746.362-.309.138-.672.287-1.009.4L482.269,846.85l-50.775,21.366,39.61,26.727,21.007-8.839a10.171,10.171,0,0,1,1.641,1.247c.982,1.292-.284,3.056,1.362,4.168,2.029,1.368,7.018,1.068,11.145-.668.116-.049.231-.1.342-.149C510.48,888.974,512.032,886.56,510.062,885.23Z" transform="translate(-431.494 -846.85)" fill="#bd2f64"/>
      </g>
      <g id="Grupo_119139" data-name="Grupo 119139" transform="translate(177.002 11.374)">
        <path id="Trazado_168637" data-name="Trazado 168637" d="M1515.729,1278.188c0,7.012,12.775,12.7,28.534,12.7s28.533-5.683,28.533-12.7-12.775-12.7-28.533-12.7S1515.729,1271.176,1515.729,1278.188Z" transform="translate(-1481.412 -1097.901)" fill="#98a7d3"/>
        <g id="Grupo_119138" data-name="Grupo 119138">
          <g id="Grupo_119119" data-name="Grupo 119119" transform="translate(43.214 172.335)">
            <g id="Grupo_119118" data-name="Grupo 119118" transform="translate(0.001)">
              <path id="Trazado_168638" data-name="Trazado 168638" d="M1578.249,1298.587a15.53,15.53,0,0,1-5.338,3.114,4.557,4.557,0,0,1-4.449-1.152.852.852,0,0,1,.13-1.3c5.906-4.491,7.674-5.763,7.674-5.763h5.422a12.339,12.339,0,0,1,.118,3.059,4.7,4.7,0,0,1-2.975,1.8c-.111.018-.32-.146-.425-.1Z" transform="translate(-1568.225 -1293.482)" fill="#191818"/>
            </g>
            <path id="Trazado_168639" data-name="Trazado 168639" d="M1568.563,1309.015a1.519,1.519,0,0,0,.114.371,2.971,2.971,0,0,0,2.745,1.374,7.951,7.951,0,0,0,3.376-1.146,15.058,15.058,0,0,0,2.8-1.9,8.406,8.406,0,0,1,2.114-1.057,10.8,10.8,0,0,0,2.132-1.437c0,.584-.037,1.069-.037,1.069a4.7,4.7,0,0,1-2.975,1.8c-.111.018-.32-.146-.425-.1l-.157.345a15.536,15.536,0,0,1-5.339,3.114,4.557,4.557,0,0,1-4.449-1.152A.85.85,0,0,1,1568.563,1309.015Z" transform="translate(-1568.221 -1303.233)" fill="#060401"/>
          </g>
          <g id="Grupo_119120" data-name="Grupo 119120" transform="translate(48.089 83.812)">
            <path id="Trazado_168640" data-name="Trazado 168640" d="M1606.175,815.717c-6.03,6.657-8.419-.384-8.419-.384l-.747-40.919c-.078.609-.279-4.127,7.333-3.1,7.591,1.023,9.512,3.982,9.512,3.982s-4.176,28.263-7.679,40.423" transform="translate(-1596.988 -771.167)" fill="#e28262"/>
            <path id="Trazado_168641" data-name="Trazado 168641" d="M1601.289,1012.43s3.059,43.093,3.309,44.605c0,0,3.719.823,3.735-.034.042-2.064,4.289-27.282,4.343-30.525.138-8.212-1.978-9.764-4.09-15.3C1608.586,1011.18,1601.273,1005.772,1601.289,1012.43Z" transform="translate(-1600.56 -968.781)" fill="#e28262"/>
          </g>
          <g id="Grupo_119122" data-name="Grupo 119122" transform="translate(47.024 83.812)">
            <g id="Grupo_119121" data-name="Grupo 119121">
              <path id="Trazado_168642" data-name="Trazado 168642" d="M1602.771,817.267c3.5-12.16,5.864-41.972,5.864-41.972s-1.922-2.959-9.513-3.982c-7.612-1.025-7.412,3.711-7.333,3.1,0,0-2.306,22.189-.194,42.355C1591.594,816.769,1598.1,820.223,1602.771,817.267Z" transform="translate(-1590.704 -771.167)" fill="#00315e"/>
            </g>
          </g>
          <path id="Trazado_168643" data-name="Trazado 168643" d="M1619.442,648.1c1.076,3.829,5.515,18.44,5.515,18.44-15.892,19.013-27.865,2.376-28.023.642-.19-2.076,2.128-10,2.548-18.55C1599.482,648.631,1603.815,641.96,1619.442,648.1Z" transform="translate(-1548.845 -582.988)" fill="#f39672"/>
          <path id="Trazado_168644" data-name="Trazado 168644" d="M1596.551,725.734c-.753-5.122.808-10.286,1.612-15.461h23.279c1.49,4.962,3.039,10.06,3.039,10.06s.995,11.739-8.974,13.145C1615.508,733.477,1598.135,736.489,1596.551,725.734Z" transform="translate(-1548.37 -636.782)" fill="#00315e"/>
          <g id="Grupo_119123" data-name="Grupo 119123" transform="translate(58.206 84.954)">
            <path id="Trazado_168645" data-name="Trazado 168645" d="M1673.141,822.211c-4.977,7.477-8.383.867-8.383.867l-8.073-39.862c.012.614.242-5.192,7.922-5.305,7.659-.114,10,2.528,10,2.528s.2,29.228-1.462,41.773" transform="translate(-1656.684 -777.907)" fill="#f39672"/>
            <path id="Trazado_168646" data-name="Trazado 168646" d="M1703.217,1023.43s8,45.41,8.466,46.869c0,0,3.8.262,3.689-.587-.264-2.048.422-30.682-.005-33.9-1.08-8.142-2.209-9.542-5.116-14.7C1710.25,1021.113,1702.217,1016.849,1703.217,1023.43Z" transform="translate(-1695.259 -978.766)" fill="#f39672"/>
          </g>
          <g id="Grupo_119124" data-name="Grupo 119124" transform="translate(72.018 174.679)">
            <path id="Trazado_168647" data-name="Trazado 168647" d="M1740.425,1308.244l-2.249,6.858s.464,6.139,5.388,2.335l1.467-1.421a1.57,1.57,0,0,0,.529-1.507l-.437-2.628-.522-3.636S1741.515,1306.15,1740.425,1308.244Z" transform="translate(-1738.176 -1307.313)" fill="#191818"/>
            <path id="Trazado_168648" data-name="Trazado 168648" d="M1743.564,1351.065l1.467-1.42a1.532,1.532,0,0,0,.5-.786l.026.154a1.57,1.57,0,0,1-.529,1.507l-1.467,1.421c-4.924,3.8-5.388-2.335-5.388-2.335l.088-.267C1738.54,1350.788,1739.625,1354.109,1743.564,1351.065Z" transform="translate(-1738.176 -1341.818)" fill="#060401"/>
          </g>
          <g id="Grupo_119126" data-name="Grupo 119126" transform="translate(57.197 80.706)">
            <g id="Grupo_119125" data-name="Grupo 119125">
              <path id="Trazado_168649" data-name="Trazado 168649" d="M1760.053,1040.236" transform="translate(-1741.525 -991.528)" fill="#161c29"/>
              <path id="Trazado_168650" data-name="Trazado 168650" d="M1658.826,803.362c-2.8-8.231-8.1-42.273-8.1-42.273.012.613,1.585-8.13,9.265-8.243,7.659-.114,9.649,2.841,9.649,2.841s2.4,33.318.735,45.863C1670.378,801.55,1664.984,807.78,1658.826,803.362Z" transform="translate(-1650.729 -752.842)" fill="#003980"/>
            </g>
          </g>
          <path id="Trazado_168651" data-name="Trazado 168651" d="M1502.915,472.562s-13,15.293-19.471,20.36c0,0-4.345-1.606-4.211-4.559,0,0,9.521-14.084,15.5-22.416C1494.731,465.947,1502.813,463.619,1502.915,472.562Z" transform="translate(-1451.099 -433.638)" fill="#e28262"/>
          <path id="Trazado_168652" data-name="Trazado 168652" d="M1390.372,590.121s-14.2,8.266-20.081,11.03c0,0-1.056,1.651.647,1.808,2.847.26,22.633-6.441,23.116-8C1396.309,587.711,1390.372,590.121,1390.372,590.121Z" transform="translate(-1360.355 -536.674)" fill="#e28262"/>
          <path id="Trazado_168653" data-name="Trazado 168653" d="M1565.25,461.552a5.3,5.3,0,0,0,6.774,3.136,5.227,5.227,0,0,0,3.074-6.756,5.3,5.3,0,0,0-6.776-3.135A5.227,5.227,0,0,0,1565.25,461.552Z" transform="translate(-1522.259 -424.336)" fill="#e28262"/>
          <path id="Trazado_168654" data-name="Trazado 168654" d="M1511.3,453.274a6.945,6.945,0,0,0-7.822,2.924l-11.342,16.453a18.732,18.732,0,0,0,7.858,8.1S1520.3,462.048,1511.3,453.274Z" transform="translate(-1461.817 -423.105)" fill="#781b3e"/>
          <path id="Trazado_168655" data-name="Trazado 168655" d="M1755.022,1061.723" transform="translate(-1680.149 -928.667)" fill="#f39672"/>
          <path id="Trazado_168656" data-name="Trazado 168656" d="M1659.454,326.19s.936-1.8,3-5.256c0,0,4.4-4.513,1.932-10.187,0,0-1.352-4.742-9.647-4.054C1654.741,306.693,1653.947,319.749,1659.454,326.19Z" transform="translate(-1596.831 -301.544)" fill="#f3906b"/>
          <path id="Trazado_168657" data-name="Trazado 168657" d="M1639.094,378.447s-1.4,13.013,1.581,14l-10.612-.632s1.668-3.931-.272-6.832Z" transform="translate(-1576.142 -361.194)" fill="#f39672"/>
          <path id="Trazado_168658" data-name="Trazado 168658" d="M1630.645,389.539c.177-2.973-.2-3.576-.854-4.559l9.3-6.532a63.308,63.308,0,0,0-.293,8.014A10.065,10.065,0,0,1,1630.645,389.539Z" transform="translate(-1576.142 -361.194)" fill="#db765e"/>
          <path id="Trazado_168659" data-name="Trazado 168659" d="M1576.319,449.275c-2.364,1.726-2.635,5.854-1.791,8.434.968,2.962,1.352,6.742,2.323,11.025,1.314,5.8,2.2,10.275,3.669,16.04,1.213,4.767,20.371.926,20.371.926l6.866-23.463s1.183-6.126-4.366-8.164a83.021,83.021,0,0,0-10.125-4.605,18.469,18.469,0,0,0-9.028-1.161A44.847,44.847,0,0,0,1576.319,449.275Z" transform="translate(-1529.883 -419.132)" fill="#f39672"/>
          <path id="Trazado_168660" data-name="Trazado 168660" d="M1603.533,312.85c-.547,2.5-1.168,3.8-.479,6.089.62,2.055.477,4.215,1.374,6.207,1.28,2.841,2.946,2.47,4.22-.144,1.3-2.675,2.662-6.29-.281-8.272-1.89-1.272-2.571-3.461-4.834-3.88Z" transform="translate(-1553.684 -306.715)" fill="#23140a"/>
          <path id="Trazado_168661" data-name="Trazado 168661" d="M1609.015,326.913l-.441-1.471s-1.117-5.439-1.117-5.44a5.511,5.511,0,0,1,.087-2.26,5.552,5.552,0,0,0,.193-2.322,6.745,6.745,0,0,1,1.453-5.933c2.431-3.454,7.766-3.183,7.766-3.183,6.582.657,6.816,7.071,6.816,7.071.858,4.3-2.7,7.667-2.706,7.674-.284.268-.216,1.673-.317,2.067-.433,1.677-2.108,2.637-3.58,3.282a15.862,15.862,0,0,1-5.344,1.525C1611.151,327.951,1609.268,327.757,1609.015,326.913Z" transform="translate(-1557.527 -301.274)" fill="#f3906b"/>
          <path id="Trazado_168662" data-name="Trazado 168662" d="M1607.789,376.957c.865.78,2.042.424,2.963.99a1.557,1.557,0,0,0,1.56.153,2.448,2.448,0,0,1,1.488.05c.549.159,1.546.637,2.079.851a1.966,1.966,0,0,0,2.36-.545,4.668,4.668,0,0,0,1.224-1.938c.572-1.78,2.371-1.887,3.609-.889a10.678,10.678,0,0,1-1.809,2.476c-.284.268-.216,2.834-.317,3.228-.433,1.677-2.107,2.637-3.58,3.282a18.087,18.087,0,0,1-5.862.88,2.814,2.814,0,0,1-2.292-1.528l-.442-1.471-1.117-5.44c-.02-.095-.027-.2-.039-.3A1.648,1.648,0,0,0,1607.789,376.957Z" transform="translate(-1557.725 -358.329)" fill="#23140a"/>
          <path id="Trazado_168663" data-name="Trazado 168663" d="M1596.02,285.106c1.49,0,1.473,1.248,2.614,1.942,2.447,1.489,6.245-.694,8.217,1.72a4.721,4.721,0,0,1,.5.765,11.289,11.289,0,0,1,.941,3.607c.055.356-.21,1.266.115,1.538.185.157.507.11.847,0,.066.545-.373.964-.56,1.465s-.483.93-.217,1.438c.687,1.306.16,1.09.222,3.713a11.128,11.128,0,0,1,1.8-1.666,13.342,13.342,0,0,0,2.548-2.818,17.858,17.858,0,0,0,1.547-3.4,9.567,9.567,0,0,0,.551-5.974s-.45-4.651-4.341-5.15c0,0,.495-3-6.617-3.788,0,0-5.615.088-5.923-1.85a2.757,2.757,0,0,0-.854,2.467,2.759,2.759,0,0,1-3.347-1.938S1592.142,284.137,1596.02,285.106Z" transform="translate(-1546.076 -276.65)" fill="#23140a"/>
          <g id="Grupo_119135" data-name="Grupo 119135" transform="translate(62.161 17.029)">
            <g id="Grupo_119131" data-name="Grupo 119131">
              <g id="Grupo_119130" data-name="Grupo 119130">
                <g id="Grupo_119129" data-name="Grupo 119129">
                  <g id="Grupo_119128" data-name="Grupo 119128">
                    <g id="Grupo_119127" data-name="Grupo 119127">
                      <path id="Trazado_168664" data-name="Trazado 168664" d="M1680.378,380.971a1.171,1.171,0,0,0,.747.444c.885.163,1.772-.662,1.981-1.841a1.97,1.97,0,0,0-1.223-2.426,1.43,1.43,0,0,0-1.188.368,2.989,2.989,0,0,0-.678,2.08A2.234,2.234,0,0,0,1680.378,380.971Z" transform="translate(-1680.016 -377.128)" fill="#f3906b"/>
                    </g>
                  </g>
                </g>
              </g>
            </g>
            <g id="Grupo_119134" data-name="Grupo 119134" transform="translate(0.887 0.7)">
              <g id="Grupo_119132" data-name="Grupo 119132" transform="translate(0.416)">
                <path id="Trazado_168665" data-name="Trazado 168665" d="M1687.719,381.626c.137-.618,1.33.132,1.1.46a1.921,1.921,0,0,1-.567.432.929.929,0,0,0-.471.637c-.009.036-.029.144,0,.174.151.133.76-.413.894-.527a1.054,1.054,0,0,0,.272-.981.634.634,0,0,0-.639-.553c-.285-.018-.577-.033-.6.323,0,.007.005.067.012.036Z" transform="translate(-1687.707 -381.259)" fill="#e47a5d"/>
              </g>
              <g id="Grupo_119133" data-name="Grupo 119133" transform="translate(0 0.986)">
                <path id="Trazado_168666" data-name="Trazado 168666" d="M1686.005,387.157c-.116-.149-.254-.054-.4.028a.6.6,0,0,0-.271.341,1.479,1.479,0,0,0,.032,1.063.8.8,0,0,0,.635.444c.382.034.536-.289.59-.609.014-.086.046-.29-.032-.353s-.166.065-.234.118a.531.531,0,0,1-.337.083.692.692,0,0,1-.537-.321.367.367,0,0,1-.046-.1q-.037.316.017.146a.583.583,0,0,1,.09-.14c.105-.135.267-.218.382-.345.055-.058.171-.275.113-.35Z" transform="translate(-1685.25 -387.079)" fill="#e47a5d"/>
              </g>
            </g>
          </g>
          <path id="Trazado_168667" data-name="Trazado 168667" d="M1624.688,372.239l1.794.692s-2.42.151-2.513-.552c0,0,.366-1.373.762-2.672C1624.731,369.707,1624.422,372.136,1624.688,372.239Z" transform="translate(-1571.307 -353.935)" fill="#e47a5d"/>
          <g id="Grupo_119136" data-name="Grupo 119136" transform="translate(50.082 13.059)">
            <path id="Trazado_168668" data-name="Trazado 168668" d="M1646.684,366.349c0,.38.209.686.467.686s.465-.306.465-.686-.209-.685-.465-.685S1646.684,365.971,1646.684,366.349Z" transform="translate(-1640.255 -363.637)" fill="#23140a"/>
            <path id="Trazado_168669" data-name="Trazado 168669" d="M1616.154,362.956c0,.38.21.685.466.685s.466-.305.466-.685-.209-.685-.466-.685S1616.154,362.578,1616.154,362.956Z" transform="translate(-1614.899 -360.819)" fill="#23140a"/>
            <path id="Trazado_168670" data-name="Trazado 168670" d="M1642.7,357.877c-.167.034-.208-.191-.208-.191a.781.781,0,0,1,.011-.4.388.388,0,0,1,.2-.2,5.676,5.676,0,0,1,1.982.259c.393.118,1.031.409,1.072.773.012.108.023.3-.1.328A16.165,16.165,0,0,0,1642.7,357.877Z" transform="translate(-1636.754 -356.495)" fill="#23140a"/>
            <path id="Trazado_168671" data-name="Trazado 168671" d="M1608.808,354.5a14.064,14.064,0,0,1,2.313.242c.152.079.252-.126.253-.126a.786.786,0,0,0,.1-.39.385.385,0,0,0-.136-.249,4.194,4.194,0,0,0-1.715-.268,3.372,3.372,0,0,0-.862.116A1.663,1.663,0,0,0,1608.808,354.5Z" transform="translate(-1608.748 -353.705)" fill="#23140a"/>
          </g>
          <g id="Grupo_119137" data-name="Grupo 119137" transform="translate(52.192 20.494)">
            <path id="Trazado_168672" data-name="Trazado 168672" d="M1621.384,397.57c-.147,0-.226.067-.17.174a2.213,2.213,0,0,0,3.828.462c.09-.1.011-.2-.172-.223C1624.87,397.983,1622.919,397.734,1621.384,397.57Z" transform="translate(-1621.196 -397.57)" fill="#fff"/>
          </g>
          <path id="Trazado_168673" data-name="Trazado 168673" d="M1671.686,734.446a14.453,14.453,0,0,1,0,13.955c-4.077,7.376-16.525,4.687-16.561-4.866C1655.087,734.1,1663.676,730.49,1671.686,734.446Z" transform="translate(-1597.182 -655.542)" fill="#003980"/>
          <path id="Trazado_168674" data-name="Trazado 168674" d="M1584.237,448.793a44.848,44.848,0,0,0-7.919.968c-2.364,1.726-2.635,5.854-1.791,8.434.968,2.962,1.352,6.742,2.323,11.025,1.314,5.8-.343,10.048,1.122,15.813,1.213,4.767,26.564,0,26.564,0l3.22-22.311s1.183-6.126-4.366-8.164a76.654,76.654,0,0,0-9.86-4.513s.668,4.513-6.689,3.267C1586.841,453.313,1582.345,452.229,1584.237,448.793Z" transform="translate(-1529.883 -419.618)" fill="#781b3e"/>
          <path id="Trazado_168675" data-name="Trazado 168675" d="M1616.584,645.936c1.075,3.829,1.927,16.74,1.927,16.74-2.915,12.086-29.726,3.391-29.885,1.656-.189-2.076.633-11.952,1.053-20.5C1589.678,643.832,1600.956,639.8,1616.584,645.936Z" transform="translate(-1541.931 -580.521)" fill="#781b3e"/>
          <path id="Trazado_168676" data-name="Trazado 168676" d="M1705.042,497.855c1.75,3.558,8.243,21.516,10.33,24.355.555.754,5.907,4.2,7.112-.5-2.95-18.641-7.412-29.274-7.412-29.274s-5.211-4.345-9.374-.329C1705.7,492.109,1703.807,495.39,1705.042,497.855Z" transform="translate(-1638.292 -454.178)" fill="#f39672"/>
          <path id="Trazado_168677" data-name="Trazado 168677" d="M1702.305,489.964a6.272,6.272,0,1,0,7.227-5.141A6.271,6.271,0,0,0,1702.305,489.964Z" transform="translate(-1636.293 -449.468)" fill="#f39672"/>
          <path id="Trazado_168678" data-name="Trazado 168678" d="M1699.687,478.77s5.39,2.022,6.666,6.4l3.327,11.9s-4.359,6.34-10.856,6.129L1692.4,488.94S1688.085,480.932,1699.687,478.77Z" transform="translate(-1627.49 -444.514)" fill="#781b3e"/>
          <path id="Trazado_168679" data-name="Trazado 168679" d="M1316.446,647.042l1.66-.045s-3.028.777-4-.207c0,0-.25-.155.138-.507a23.015,23.015,0,0,0,3.855-.43,16.812,16.812,0,0,1-4.536.45.494.494,0,0,1,.057-.925c-.6-.233-.088-.63-.088-.63a10.523,10.523,0,0,1,1.8-.7,42.985,42.985,0,0,0,4.133-1.611s-1.748-1.144-1.093-2.065l2.7,1.421,2.439,1.568.324,1.65-2.537,1.764a15.818,15.818,0,0,1-3.862,1.038S1313.426,647.676,1316.446,647.042Z" transform="translate(-1313.247 -578.732)" fill="#e28262"/>
          <path id="Trazado_168680" data-name="Trazado 168680" d="M1698.506,1025.2l6.973,43.454s2.31,2.226,7.67,0l.89-21.232s1.574-14.027-3.981-24.033C1710.058,1023.385,1699.115,1014.554,1698.506,1025.2Z" transform="translate(-1633.212 -893.971)" fill="#003980"/>
          <path id="Trazado_168681" data-name="Trazado 168681" d="M1606.717,1022.173s2.969,4.294.309,20.412L1604.3,1064.6a7.257,7.257,0,0,1-6.654.085l-2.194-43.849S1597.423,1013.388,1606.717,1022.173Z" transform="translate(-1547.626 -892.261)" fill="#00315e"/>
        </g>
      </g>
      <g id="Grupo_119142" data-name="Grupo 119142" transform="translate(145.403 75.191)" style="isolation: isolate">
        <path id="Trazado_168682" data-name="Trazado 168682" d="M1312.369,709.6a1.7,1.7,0,0,0-.855-1.4,3.152,3.152,0,0,0-.289-.169c-.031-.017-.064-.031-.1-.047-.072-.035-.146-.069-.222-.1-.019-.008-.036-.017-.055-.025l-.05-.017c-.122-.046-.246-.09-.375-.128l-.006,0h0c-.131-.038-.266-.071-.4-.1-.015,0-.03-.01-.046-.013l-.058-.011c-.161-.035-.327-.066-.5-.1l-.013,0-.042-.006q-.261-.042-.528-.076l-.056-.008c-.187-.025-.375-.045-.563-.067l-.033,0-.457-.052c-.18-.021-.358-.041-.536-.064-.032-.005-.064-.008-.1-.013-.174-.023-.345-.048-.515-.075-.088-.015-.176-.029-.263-.045-.177-.032-.356-.069-.534-.107l-.1-.022c-.13-.029-.259-.06-.388-.092l-.009,0c-.13-.033-.257-.068-.384-.1l-.122-.037c-.088-.026-.175-.054-.26-.082-.042-.014-.084-.028-.126-.043-.089-.03-.175-.062-.261-.094-.032-.014-.066-.025-.1-.037-.109-.043-.216-.088-.318-.134a9.182,9.182,0,0,1-1.416-.924l.1,11.809a9.037,9.037,0,0,0,1.417.924c.1.046.208.091.317.135.008,0,.015.006.024.009l.074.027c.086.033.173.065.263.1l.122.042c.088.029.177.057.268.085l.074.022.038.011c.128.037.258.073.388.106h0l.4.094.038.008.054.011c.179.039.358.077.537.109l.22.039a.434.434,0,0,1,.043.006c.169.027.34.05.513.074l.1.014.526.063h.005l.347.039c.047.005.093.012.14.016l.57.069c.015,0,.03.005.045.006.18.024.358.049.534.078l.056.008c.169.028.333.06.495.094l.1.024c.138.031.274.065.4.1s.258.084.381.13l.1.041c.077.031.151.065.224.1l.095.046a2.99,2.99,0,0,1,.289.17,1.692,1.692,0,0,1,.855,1.4Z" transform="translate(-1272.557 -696.552)" fill="#2d3a61"/>
        <path id="Trazado_168683" data-name="Trazado 168683" d="M1149.5,796.94l.121-.027c.055-.012.109-.025.165-.036l.136-.024.116-.02.087,9.9,16.387,11.058-.1-11.809-13.574-9.16c.2.024.4.052.6.085.047.007.092.015.139.024.074.014.149.026.225.041.053.009.108.021.162.032l.215.044.151.034c.116.027.233.055.35.084l.1.025c.146.037.292.077.437.12l.084.025c.2.06.4.123.6.191l.03.01c.2.068.4.141.593.217l.048.019c.225.088.448.183.668.282l.033.014c.223.1.443.207.66.32l.021.01c.22.114.436.233.646.357l.011.006c.215.127.424.258.627.4,1.809,1.221,2.76,2.592,2.771,3.759q-.052-5.905-.1-11.81c-.01-1.166-.962-2.537-2.77-3.758q-.3-.206-.626-.4l-.012-.007c-.21-.124-.426-.243-.645-.356l-.023-.011c-.216-.112-.436-.219-.659-.32l-.032-.014q-.331-.15-.668-.283l-.013-.005-.035-.012c-.2-.077-.4-.151-.6-.22l-.023-.008c-.2-.069-.4-.132-.605-.192-.016,0-.031-.01-.046-.016l-.031-.008c-.147-.043-.294-.083-.442-.122l-.089-.021q-.18-.047-.36-.087l-.067-.016-.075-.016-.225-.047-.155-.031c-.076-.014-.151-.028-.227-.04-.037-.007-.074-.015-.11-.02l-.028,0c-.2-.034-.4-.062-.6-.086l-.047-.006-.035,0c-.175-.018-.349-.035-.521-.048l-.042,0c-.019,0-.038,0-.057,0-.321-.02-.633-.027-.939-.019h-.055l-.047,0c-.148,0-.3.012-.438.024h-.01l-.025,0c-.15.012-.3.029-.441.05l-.046,0-.033.005-.176.03-.125.023c-.061.011-.12.026-.18.038-.031.007-.064.013-.095.021l-.014,0c-.127.031-.252.067-.373.1l-.082.028c-.122.04-.241.083-.354.13-.091.04-.175.084-.256.126l-.071.04c-.028.016-.059.031-.086.047l-.067.043-.087.057c-.044.03-.087.061-.128.093l-.072.055-.026.02c-.048.041-.094.081-.137.123a.129.129,0,0,1-.016.015c-.035.034-.069.069-.1.1-.01.01-.018.021-.027.032l-.046.053c-.031.037-.06.073-.088.111-.013.017-.026.034-.039.052l-.021.028c-.014.02-.025.039-.038.059-.024.036-.048.072-.07.11s-.033.056-.049.084-.04.073-.06.108c-.006.012-.014.024-.02.038s-.014.028-.02.041c-.031.063-.062.127-.09.19-.006.015-.013.028-.019.042-.038.085-.074.169-.111.254-.028.065-.055.131-.084.2l-.033.074c-.035.077-.071.155-.11.231-.021.041-.043.081-.065.12l-.03.057c-.034.058-.069.116-.108.173l-.076.107c-.038.052-.077.1-.118.157l-.053.066c-.055.067-.112.133-.172.2a.134.134,0,0,0-.014.016c-.063.068-.132.136-.2.2l-.062.059c-.052.047-.1.095-.159.141l-.082.068c-.055.044-.112.089-.17.131l-.08.061c-.086.06-.174.12-.266.177l-.03.016-.012.008-.038.019-.021.011-.044.022-.031.016-.048.024-.043.021c-.015.008-.032.015-.048.023l-.056.028c-.017.007-.036.018-.054.025l-.061.029c-.027.013-.057.027-.086.039-.013.006-.026.014-.04.02-.044.02-.089.04-.136.06-.309.138-.671.288-1.008.4L1126.8,779.25l.1,11.811,16.407,11.07c.336-.115.7-.264,1.008-.4l.254-.116s0,0,0,0c.037-.016.072-.033.107-.049a.022.022,0,0,1,.008,0l.075-.036.03-.016.055-.027c.012-.005.025-.012.035-.017l.042-.021.035-.018.029-.015.03-.016.019-.01.018-.01,0,0c.093-.057.181-.118.268-.179.026-.018.052-.038.078-.058.058-.043.116-.088.173-.134.013-.01.028-.021.042-.032l.038-.034c.055-.048.107-.094.158-.142l.065-.06c.069-.067.137-.135.2-.2l0,0,.014-.016c.06-.066.116-.131.17-.2l.054-.069c.04-.051.078-.1.115-.154.01-.014.021-.027.031-.041l.046-.066c.038-.058.074-.116.108-.175.012-.021.023-.042.035-.063.02-.036.04-.071.057-.107a.012.012,0,0,0,0-.005c.038-.077.075-.155.111-.233.01-.025.021-.049.032-.072.028-.065.056-.129.084-.194.036-.087.074-.172.112-.259.005-.013.012-.024.017-.036.029-.066.061-.13.093-.2.013-.026.026-.05.038-.075s.04-.075.061-.111.031-.056.048-.084.046-.073.071-.109.037-.058.057-.087l.04-.052c.028-.036.057-.074.087-.11.016-.017.031-.036.047-.054.04-.046.082-.09.127-.133a.209.209,0,0,1,.017-.018c.051-.049.106-.1.164-.142.022-.019.047-.037.07-.055.041-.032.084-.063.129-.094l.086-.056c.049-.031.1-.062.154-.093l.071-.038c.08-.043.165-.086.256-.127.113-.047.232-.09.354-.13l.082-.027C1149.252,797.006,1149.375,796.971,1149.5,796.94Z" transform="translate(-1126.801 -757.885)" fill="#2f3672"/>
        <g id="Grupo_119140" data-name="Grupo 119140" transform="translate(39.61 26.728)">
          <path id="Trazado_168684" data-name="Trazado 168684" d="M1411.287,810.894l.1,11.809-50.776,21.366-.1-11.809Z" transform="translate(-1360.512 -810.894)" fill="#3d4794"/>
        </g>
        <g id="Grupo_119141" data-name="Grupo 119141">
          <path id="Trazado_168685" data-name="Trazado 168685" d="M1126.8,674.556l21-8.839a10.094,10.094,0,0,1,1.643,1.246c.982,1.293-.284,3.057,1.363,4.169,2.029,1.368,7.017,1.068,11.145-.668.115-.049.229-.1.34-.147,3.879-1.73,5.434-4.145,3.462-5.476-1.26-.849-3.432-.8-5.2-1.123a11.58,11.58,0,0,1-2.595-.756,9.174,9.174,0,0,1-1.416-.924l21.031-8.849,39.611,26.728-50.776,21.366-16.387-11.057c.065-.032.133-.063.2-.094a19.747,19.747,0,0,1,2.163-.794c2.444-.537,5.75.115,7.861-.773,2.587-1.153,2.059-3.765-1.125-5.914-3.22-2.173-7.937-3.048-10.536-1.954-1.613.718-1.551,1.85-2.175,2.777a4.789,4.789,0,0,1-1.454,1.389c-.077.045-.373.2-.746.361-.309.138-.671.288-1.008.4Z" transform="translate(-1126.801 -653.191)" fill="#4860a8"/>
        </g>
      </g>
      <g id="Grupo_119155" data-name="Grupo 119155" transform="translate(0 74.309)">
        <path id="Trazado_168686" data-name="Trazado 168686" d="M523.41,988.49s1.738-1.127.069-3.207a32,32,0,0,1-9.382-2.6c-6.339-1.994-15.241-11.806-19.293-16.27-4.551-5.013-11.443-.758-7.744,4.966,6.92,10.71,25.105,17.77,36.259,17.352" transform="translate(-449.208 -910.597)" fill="#f3906b"/>
        <path id="Trazado_168687" data-name="Trazado 168687" d="M362.386,1184.022c2.649-12.374,3.442-41.034,3.442-41.034s-2.122-2.818-9.766-3.309c-7.665-.494-7.135,4.216-7.1,3.6a266.477,266.477,0,0,0,3.517,40.252S357.929,1187.3,362.386,1184.022Z" transform="translate(-335.372 -1056.315)" fill="#002d58"/>
        <path id="Trazado_168688" data-name="Trazado 168688" d="M348.536,1093.645c-.754-5.121.807-10.286,1.612-15.461h23.279c1.49,4.963,3.038,10.059,3.038,10.059s1,11.739-8.974,13.146C367.491,1101.389,350.118,1104.4,348.536,1093.645Z" transform="translate(-334.869 -1005.273)" fill="#006d97"/>
        <path id="Trazado_168689" data-name="Trazado 168689" d="M268.877,1609.084c0,9.87,17.981,17.87,40.163,17.87s40.161-8,40.161-17.87-17.981-17.869-40.161-17.869S268.877,1599.215,268.877,1609.084Z" transform="translate(-268.877 -1431.354)" fill="#98a7d3"/>
        <g id="Grupo_119143" data-name="Grupo 119143" transform="translate(55.831 171.395)">
          <path id="Trazado_168690" data-name="Trazado 168690" d="M605.991,1664.962l-1.326-.076c-.452-.07-.449.641-.51.665a14.438,14.438,0,0,1-3.141,1s-2.453-.319-2.717-1.062l.347-4.553c2.734-.23,5.588-.759,5.588-.759l6.01-.844c2.892-.3,3.418.744,3.418.744S615.431,1662.717,605.991,1664.962Z" transform="translate(-598.297 -1659.273)" fill="#191818"/>
          <path id="Trazado_168691" data-name="Trazado 168691" d="M602.343,1666.942a7.2,7.2,0,0,1,1.554-.506c2.964-.519,5.865-.813,8.333-2.719a2.442,2.442,0,0,0,1.072-1.735,1.076,1.076,0,0,1,.358.34s1.771,2.645-7.669,4.889l-1.326-.076c-.452-.07-.449.641-.51.665a14.429,14.429,0,0,1-3.141,1s-2.453-.319-2.717-1.062l.085-1.11A4.735,4.735,0,0,0,602.343,1666.942Z" transform="translate(-598.297 -1661.523)" fill="#100f0f"/>
        </g>
        <g id="Grupo_119144" data-name="Grupo 119144" transform="translate(15.681 170.267)">
          <path id="Trazado_168692" data-name="Trazado 168692" d="M369.091,1658.307l-1.326-.077c-.452-.07-.449.64-.511.665a14.479,14.479,0,0,1-3.14,1s-2.453-.319-2.715-1.063l.345-4.552c2.735-.23,5.589-.759,5.589-.759l6.01-.845c2.892-.3,3.417.745,3.417.745S378.531,1656.062,369.091,1658.307Z" transform="translate(-361.398 -1652.618)" fill="#191818"/>
          <path id="Trazado_168693" data-name="Trazado 168693" d="M365.442,1660.292a7.241,7.241,0,0,1,1.554-.506c2.966-.519,5.865-.813,8.334-2.719a2.441,2.441,0,0,0,1.071-1.734,1.076,1.076,0,0,1,.358.34s1.771,2.645-7.669,4.889l-1.326-.076c-.452-.07-.449.64-.511.665a14.479,14.479,0,0,1-3.14,1s-2.453-.319-2.715-1.063l.084-1.108A4.74,4.74,0,0,0,365.442,1660.292Z" transform="translate(-361.398 -1654.872)" fill="#100f0f"/>
        </g>
        <path id="Trazado_168694" data-name="Trazado 168694" d="M363.695,1425.364c.985-1.174,4.215-44.342,4.215-44.342.536-6.636-10.5-3.85-10.5-3.85-1.607,6.607-1.347,7.85-1.852,16.047-.2,3.238.316,30.055.2,32.117C355.756,1425.336,360.878,1428.729,363.695,1425.364Z" transform="translate(-340.83 -1253.106)" fill="#002d58"/>
        <path id="Trazado_168695" data-name="Trazado 168695" d="M367,1106.19s6.625,11.281,2.548,18.655-21.255-.651-20.2-9.191C350.512,1106.287,359,1102.232,367,1106.19Z" transform="translate(-335.675 -1027.279)" fill="#193c76"/>
        <path id="Trazado_168696" data-name="Trazado 168696" d="M371.421,1016.008c1.077,3.829,5.515,18.44,5.515,18.44-12.164,11.472-27.863,2.376-28.023.642-.189-2.076,2.127-10,2.549-18.55C351.462,1016.541,355.794,1009.87,371.421,1016.008Z" transform="translate(-335.34 -951.478)" fill="#f39672"/>
        <path id="Trazado_168697" data-name="Trazado 168697" d="M512.031,1408.147" transform="translate(-470.821 -1279.313)" fill="#161c29"/>
        <path id="Trazado_168698" data-name="Trazado 168698" d="M427.465,1163.685c-1.291-12.589-10.259-44.7-10.259-44.7s-2.621-2.413-10.045-.527c-7.443,1.891-8.246,11.577-8.4,10.983a295.12,295.12,0,0,0,20.134,38.235S424.446,1170.516,427.465,1163.685Z" transform="translate(-376.747 -1038.12)" fill="#193c76"/>
        <path id="Trazado_168699" data-name="Trazado 168699" d="M528.29,1421.308c-.218-1.517-11.413-46.623-11.413-46.623-2.635-5.562-10.2.3-10.2.3a47.938,47.938,0,0,0,2.741,16.695c1.029,3.076,10.547,30.932,11.209,32.887C520.624,1424.563,526.248,1426.345,528.29,1421.308Z" transform="translate(-466.372 -1249.531)" fill="#193c76"/>
        <g id="Grupo_119145" data-name="Grupo 119145" transform="translate(6.664 30.469)">
          <path id="Trazado_168700" data-name="Trazado 168700" d="M308.891,844.579s-1.2,20.259-.436,28.438c0,0,0,3.717,6.546,5.58,0,0,2.381-22.556,4.32-32.626C319.321,845.971,315.455,838.5,308.891,844.579Z" transform="translate(-308.2 -839.752)" fill="#e28262"/>
          <path id="Trazado_168701" data-name="Trazado 168701" d="M319.346,837.824a5.3,5.3,0,0,1-6.935-2.761,5.227,5.227,0,0,1,2.791-6.878,5.3,5.3,0,0,1,6.935,2.762A5.226,5.226,0,0,1,319.346,837.824Z" transform="translate(-311.345 -827.763)" fill="#e28262"/>
        </g>
        <path id="Trazado_168702" data-name="Trazado 168702" d="M310.715,822.416a6.943,6.943,0,0,0-5.041,6.656l-.774,19.969a18.731,18.731,0,0,0,10.972,2.634S323.015,825.008,310.715,822.416Z" transform="translate(-298.795 -792.853)" fill="#ffcd64"/>
        <path id="Trazado_168703" data-name="Trazado 168703" d="M507,1429.633" transform="translate(-466.642 -1297.158)" fill="#f39672"/>
        <path id="Trazado_168704" data-name="Trazado 168704" d="M400.214,747.617s.042,7.131.666,14.236l-9.408-1.559a6.962,6.962,0,0,0-.561-6.144Z" transform="translate(-370.228 -730.731)" fill="#f39672"/>
        <path id="Trazado_168705" data-name="Trazado 168705" d="M328.3,817.186c-2.363,1.727-2.634,5.856-1.791,8.434.969,2.962,1.353,6.742,2.323,11.025,1.314,5.8,2.2,10.275,3.669,16.04,1.213,4.767,20.37.926,20.37.926l6.867-23.463s1.182-6.125-4.367-8.163a82.961,82.961,0,0,0-10.124-4.606,18.466,18.466,0,0,0-9.027-1.161A44.852,44.852,0,0,0,328.3,817.186Z" transform="translate(-316.381 -787.623)" fill="#f39672"/>
        <path id="Trazado_168706" data-name="Trazado 168706" d="M423.664,1102.359a14.45,14.45,0,0,1,0,13.954c-4.077,7.376-16.524,4.687-16.561-4.866C407.066,1102.011,415.655,1098.4,423.664,1102.359Z" transform="translate(-383.676 -1024.035)" fill="#193c76"/>
        <path id="Trazado_168707" data-name="Trazado 168707" d="M336.37,816.7a44.86,44.86,0,0,0-7.92.968c-2.458,1.8-2.415,5.325-1.94,8,.906,5.105,1.826,10.263,2.3,15.428.211,2.288.781,6.946.951,9.236.166,2.223.869,3.448,3.144,4.622,1.729.892,3.014.184,4.9.234a94.863,94.863,0,0,0,14.266-.981c.2-.024,7.609,4.974,5.171,1.3l2.65-24.869s1.182-6.125-4.367-8.163a44.632,44.632,0,0,0-8.182-3.892S339.9,818.768,336.37,816.7Z" transform="translate(-316.53 -788.11)" fill="#ffcd64"/>
        <path id="Trazado_168708" data-name="Trazado 168708" d="M378.974,692.422l.4-1.549s.952-5.71.952-5.711a5.738,5.738,0,0,0-.178-2.351,5.8,5.8,0,0,1-.292-2.41,7.029,7.029,0,0,0-1.745-6.123c-2.666-3.5-8.212-3.014-8.214-3.013-2.877.436-5.389,1.625-6.819,4.249a10.7,10.7,0,0,0-1.234,7.937,16.081,16.081,0,0,0,4.635,7.252c1.382,1.321,2.794,1.483,4.6,2.145a18.761,18.761,0,0,0,5.007.738C376.79,693.587,378.743,693.311,378.974,692.422Z" transform="translate(-345.822 -667.299)" fill="#f3906b"/>
        <path id="Trazado_168709" data-name="Trazado 168709" d="M373.631,670.656l-.884,3.546a1.724,1.724,0,0,0-1.275,2.158l.32,2.928-.8.306c.066-1.172-1.56-1.189-1.56-1.189-1.189-.068-1.392.945-1.323,1.921.176,2.534-.746,6.558-2.87,7.266-.839.28-2.421.571-2.686-.565-.324-1.39-2.956-4.149-2.956-4.149-3.161-3.062-3.954-8.287-2.46-12.28a9.664,9.664,0,0,1,2.27-3.355,12.251,12.251,0,0,1,7.07-3.154s3.6-.439,5.631.983a11.719,11.719,0,0,1,2.616,2.393A2.725,2.725,0,0,1,373.631,670.656Z" transform="translate(-341.574 -661.306)" fill="#351709"/>
        <g id="Grupo_119150" data-name="Grupo 119150" transform="translate(26.127 16.79)">
          <g id="Grupo_119149" data-name="Grupo 119149">
            <g id="Grupo_119148" data-name="Grupo 119148">
              <g id="Grupo_119147" data-name="Grupo 119147">
                <g id="Grupo_119146" data-name="Grupo 119146">
                  <path id="Trazado_168710" data-name="Trazado 168710" d="M426.061,751.038a1.46,1.46,0,0,1-.924.348,2.145,2.145,0,0,1-2.09-2.073,1.966,1.966,0,0,1,1.722-2.257,1.855,1.855,0,0,1,1.342.512,2.669,2.669,0,0,1,.54,2.15A2.008,2.008,0,0,1,426.061,751.038Z" transform="translate(-423.038 -747.053)" fill="#f3906b"/>
                </g>
              </g>
            </g>
          </g>
        </g>
        <g id="Grupo_119153" data-name="Grupo 119153" transform="translate(27.075 17.487)">
          <g id="Grupo_119151" data-name="Grupo 119151">
            <path id="Trazado_168711" data-name="Trazado 168711" d="M429.907,751.559c-.1-.624-1.336.056-1.121.4a1.92,1.92,0,0,0,.541.463.929.929,0,0,1,.435.661c.007.037.021.146-.015.173-.157.125-.735-.455-.862-.576a1.058,1.058,0,0,1-.218-1,.635.635,0,0,1,.669-.516c.286,0,.579,0,.584.356,0,.007-.009.067-.014.035Z" transform="translate(-428.627 -751.167)" fill="#e47a5d"/>
          </g>
          <g id="Grupo_119152" data-name="Grupo 119152" transform="translate(0.249 1)">
            <path id="Trazado_168712" data-name="Trazado 168712" d="M430.763,757.137c.124-.143.257-.04.4.049a.6.6,0,0,1,.251.356,1.479,1.479,0,0,1-.091,1.059.793.793,0,0,1-.66.407c-.383.013-.518-.318-.554-.641-.009-.086-.031-.292.052-.35s.162.074.227.132a.546.546,0,0,0,.332.1.7.7,0,0,0,.554-.29.4.4,0,0,0,.051-.1c.013.212,0,.259-.025.145a.534.534,0,0,0-.082-.145c-.1-.141-.254-.233-.362-.366-.05-.061-.155-.283-.092-.355Z" transform="translate(-430.098 -757.066)" fill="#e47a5d"/>
          </g>
        </g>
        <g id="Grupo_119154" data-name="Grupo 119154" transform="translate(72.78 74.037)">
          <path id="Trazado_168713" data-name="Trazado 168713" d="M706.367,1086.531c-.487-.722-.061-1.1-1.048-1.129-1.124-.037-2.131-.592-2.894-.571-1.329.037-6.348,1.207-2.98,4.081.784.67,3.027,3.669,4.581,2.78,2.295-1.315,1.514-.83,2.681-3.684Z" transform="translate(-698.301 -1084.831)" fill="#f39672"/>
        </g>
        <path id="Trazado_168714" data-name="Trazado 168714" d="M465.117,864.145a5.891,5.891,0,1,0,8.139-1.772A5.891,5.891,0,0,0,465.117,864.145Z" transform="translate(-431.081 -825.262)" fill="#f39672"/>
        <path id="Trazado_168715" data-name="Trazado 168715" d="M371.266,994.9c.764,8.032,1.259,27.7,1.259,27.7-2.851,7.607-30.042,1.187-30.2-.547-.19-2.076.367-16.693.787-25.242A32.782,32.782,0,0,1,371.266,994.9Z" transform="translate(-329.845 -934.192)" fill="#ffcd64"/>
        <path id="Trazado_168716" data-name="Trazado 168716" d="M456.55,846.795c7.162,2.016,8.052,10.683,8.052,10.683l3.234,14.234s-8.137,6.453-13.1,4.638A105.659,105.659,0,0,1,449.43,854.9S449.481,847.028,456.55,846.795Z" transform="translate(-418.829 -813.1)" fill="#ffcd64"/>
        <path id="Trazado_168717" data-name="Trazado 168717" d="M362.935,657.255c-.809.652-1.839.224-2.764.009-1.261,1.48.248,2.958-1.662,3.676a21.184,21.184,0,0,1-3.629.669c-.9.144-1.8-.063-2.44.606-.693.724-.037,2.978-.855,3.409-1.432.756-2.554-3.163-4.379-2.852-1.557.264-1.832,2.734-1.287,3.949a1.92,1.92,0,0,0-.408-.277c-.742-1.934-1.69-1.968-2.508-3.344-1.268-2.132-1.054-1.623-1.307-3.671,0-.018.25-.9.253-.908.6-2.179,1.614-2.551,2.1-3.475a18.358,18.358,0,0,1,1.974-2.52,25.229,25.229,0,0,1,1.617-2.568,7.573,7.573,0,0,1,4.269-1.807c1.576-.208,3.075.771,4.636.5.641-.113,1.24-.694,1.882-.657.784.044,1.326.822,2,1.126,1.259.567,3.244.337,4.319,1.224,1.189.98.934,2.4.2,3.6-.411.673-1.243,1.06-1.613,1.758C363.239,655.885,362.961,657.234,362.935,657.255Z" transform="translate(-329.353 -647.986)" fill="#351709"/>
      </g>
      <g id="Grupo_119156" data-name="Grupo 119156" transform="translate(236.115 77.404)">
        <path id="Trazado_168718" data-name="Trazado 168718" d="M1715.336,666.7a221.64,221.64,0,0,0-11.686,24.288s.1,2.449,1.9,1.692,16.356-21.369,16.371-23.246C1721.958,664.607,1715.336,666.7,1715.336,666.7Z" transform="translate(-1696.597 -666.246)" fill="#f39672"/>
        <path id="Trazado_168719" data-name="Trazado 168719" d="M1665.606,807.135l1.572-.534s-2.662,1.638-3.885.989c0,0-.284-.075-.018-.525a23.073,23.073,0,0,0,3.556-1.551,16.87,16.87,0,0,1-4.2,1.772s-.85-.245-.219-.9c-.642-.044-.269-.575-.269-.575a10.45,10.45,0,0,1,1.517-1.2,42.825,42.825,0,0,0,3.472-2.762s-2.008-.576-1.655-1.65l2.995.559,2.794.776.8,1.481-1.9,2.435a15.843,15.843,0,0,1-3.382,2.136S1662.91,808.636,1665.606,807.135Z" transform="translate(-1662.035 -777.496)" fill="#f39672"/>
      </g>
      <g id="Grupo_119162" data-name="Grupo 119162" transform="translate(124.036 133.581)" style="isolation: isolate">
        <path id="Trazado_168720" data-name="Trazado 168720" d="M1294.412,1053.216a1.665,1.665,0,0,1,.841-1.375,2.835,2.835,0,0,1,.284-.167c.031-.017.063-.031.1-.046.071-.034.143-.067.217-.1.019-.007.036-.017.055-.024s.034-.011.051-.017c.119-.046.24-.088.367-.125l.006,0h0c.128-.037.26-.07.4-.1.016,0,.031-.01.047-.012l.06-.011q.235-.051.481-.093l.016,0,.052-.008c.163-.026.328-.05.495-.072l.066-.008c.18-.024.361-.044.542-.065l.031,0,.123-.015.366-.041q.255-.029.508-.062l.1-.012c.168-.023.334-.046.5-.073.087-.014.174-.028.259-.043.175-.033.351-.069.527-.108l.1-.021q.19-.042.377-.09l.012,0c.127-.032.252-.067.377-.1l.115-.034c.086-.026.172-.053.256-.081l.125-.042c.084-.029.167-.059.248-.091l.1-.038c.108-.043.213-.088.314-.133a8.869,8.869,0,0,0,1.394-.908l-.1,11.618a8.821,8.821,0,0,1-1.394.908c-.1.047-.208.091-.316.134l-.023.01c-.023.008-.048.016-.071.026-.084.032-.169.063-.257.093-.04.015-.08.028-.122.042q-.126.042-.256.08l-.078.025-.04.01c-.123.036-.247.07-.374.1l-.016,0c-.123.032-.248.061-.372.09l-.042.009-.061.012c-.175.038-.35.074-.525.106l-.216.038-.046.007c-.161.026-.325.049-.491.071l-.111.014c-.163.021-.326.041-.491.06h-.015l-.349.04-.174.019c-.179.021-.358.042-.536.065l-.064.008c-.167.022-.333.045-.5.072l-.067.01c-.165.028-.325.059-.483.093l-.1.022c-.135.031-.27.064-.4.1h0c-.128.038-.251.08-.372.127l-.1.041c-.075.031-.147.063-.218.1l-.095.045c-.1.053-.194.107-.284.167a1.667,1.667,0,0,0-.84,1.375Z" transform="translate(-1244.553 -1040.377)" fill="#003c74"/>
        <path id="Trazado_168721" data-name="Trazado 168721" d="M1026.9,1078.757c-.005-.022-.009-.044-.014-.066s-.009-.04-.013-.06a.167.167,0,0,0,0-.021c0-.031-.008-.062-.011-.092s-.005-.046-.008-.069,0-.065,0-.1,0-.036,0-.056v-.023l.1-11.619c0,.027,0,.053,0,.079s0,.065,0,.1.005.046.008.069.007.061.011.092.01.054.016.08.009.045.014.067.015.054.023.082.012.042.019.063.008.022.012.033a1.942,1.942,0,0,0,.1.234.019.019,0,0,1,0,.005,2,2,0,0,0,.128.213l.023.034a2.271,2.271,0,0,0,.157.195l.049.052.055.056.066.062.062.054.06.049c.036.029.073.057.112.084.02.014.04.029.06.042.043.03.089.059.134.087l.052.032c.041.025.084.048.127.071l.058.032c.064.032.13.064.2.095.132.056.27.105.41.151.047.014.1.026.144.04.1.028.192.056.29.079l.079.016c.112.026.224.049.339.068l.138.023c.106.017.215.033.324.046l.107.013c.142.017.285.031.431.042.09.007.183.013.274.018l.232.014c.094.005.189.007.283.011l.228.008c.182.005.364.008.547.01h.015l.647.007.412.005.2,0,.35.007.089,0,.152.005.265.01.247.014.254.016.086.006v0h0v0c.095.007.189.017.282.027l.057.005c.123.013.243.028.363.045l.042.008c.178.026.353.057.523.094l.016,0,.017,0,.024.006.037.011.03.009.049.015.037.012.061.02.039.012.073.024.044.015.08.027.047.016.089.03.051.018.091.032.059.021.086.031.071.026.084.031.075.028.087.032.077.029.087.034.078.03.087.033.077.031.086.035.075.031.091.038.066.028c.051.022.1.043.15.066.073.032.143.064.208.1l-.1,11.618-.207-.1-.152-.066-.05-.021-.107-.046-.062-.025-.1-.04-.069-.028-.094-.037-.073-.028-.092-.035-.075-.029-.087-.033-.074-.027-.088-.032-.069-.024-.084-.03-.075-.027-.071-.025-.074-.026-.067-.023-.066-.023-.063-.021-.058-.02-.059-.019-.052-.017-.049-.016-.046-.013a.308.308,0,0,0-.041-.012l-.035-.011-.033-.01-.025-.006-.033-.008c-.171-.038-.346-.068-.525-.1-.132-.019-.265-.038-.4-.052l-.069-.006q-.178-.019-.36-.032l-.252-.017-.249-.013c-.086,0-.173-.007-.26-.01l-.248-.008-.34-.006-.213,0-.408,0c-.177,0-.356,0-.533-.006h-.135c-.18,0-.36-.006-.539-.011h-.026l-.223-.008-.266-.01-.24-.016-.265-.016-.03,0c-.136-.011-.271-.025-.4-.04l-.1-.012-.2-.026v0h0v0l-.129-.021-.136-.023c-.115-.02-.228-.043-.339-.068l-.08-.016-.023-.005c-.093-.023-.181-.05-.271-.075-.047-.013-.095-.025-.14-.039-.141-.046-.277-.1-.41-.151-.069-.031-.135-.063-.2-.1l-.066-.036c-.04-.022-.08-.043-.119-.066l-.015-.008-.042-.028c-.044-.027-.087-.055-.128-.083-.022-.014-.042-.03-.063-.045-.038-.028-.074-.054-.109-.083l-.036-.027v0h0v0l-.026-.022-.059-.053c-.023-.022-.046-.042-.068-.064s-.037-.036-.054-.055l-.035-.035a.217.217,0,0,0-.014-.017,2.253,2.253,0,0,1-.158-.2s-.007-.008-.009-.012-.008-.014-.013-.021a2.226,2.226,0,0,1-.129-.213v0s0,0,0,0a1.841,1.841,0,0,1-.1-.23c0-.007-.006-.013-.008-.021v0h0v0l0-.016c-.006-.02-.012-.04-.018-.062S1026.906,1078.786,1026.9,1078.757Z" transform="translate(-1022.418 -1054.969)" fill="#003c74"/>
        <g id="Grupo_119158" data-name="Grupo 119158" transform="translate(0 26.297)">
          <g id="Grupo_119157" data-name="Grupo 119157">
            <path id="Trazado_168722" data-name="Trazado 168722" d="M1000.829,1152.867l-.1,11.619,49.957,21.021.1-11.619Z" transform="translate(-1000.727 -1152.867)" fill="#004b8f"/>
          </g>
        </g>
        <g id="Grupo_119159" data-name="Grupo 119159" transform="translate(49.957 21.021)">
          <path id="Trazado_168723" data-name="Trazado 168723" d="M1295.59,1148.037l-.1,11.619,38.971-26.3.1-11.619Z" transform="translate(-1295.488 -1121.74)" fill="#003c74"/>
        </g>
        <g id="Grupo_119161" data-name="Grupo 119161" transform="translate(0.102)">
          <g id="Grupo_119160" data-name="Grupo 119160">
            <path id="Trazado_168724" data-name="Trazado 168724" d="M1090.257,1018.73l-20.667-8.7a9.927,9.927,0,0,0-1.615,1.226c-.967,1.272.28,3.008-1.34,4.1-2,1.346-6.9,1.052-10.965-.656q-.172-.072-.338-.146c-3.815-1.7-5.342-4.077-3.4-5.385,1.24-.837,3.378-.784,5.117-1.1a11.349,11.349,0,0,0,2.553-.745,8.88,8.88,0,0,0,1.394-.908l-20.691-8.707L1024.16,1008.6c-.334-.113-.693-.261-1-.4-.365-.162-.652-.308-.727-.354a4.717,4.717,0,0,1-1.432-1.366c-.615-.913-.553-2.026-2.062-2.7-2.635-1.109-7.274-.248-10.443,1.889-3.133,2.114-3.651,4.685-1.19,5.782,2.162.912,5.413.268,7.816.8a19.09,19.09,0,0,1,2.121.777c.073.032.143.064.208.1l-16.123,10.878,49.956,21.021Z" transform="translate(-1001.33 -997.709)" fill="#005b9c"/>
          </g>
        </g>
      </g>
      <g id="Grupo_119194" data-name="Grupo 119194" transform="translate(175.331 110.68)">
        <path id="Trazado_168725" data-name="Trazado 168725" d="M1416.668,1774.667c0,7.012-12.775,12.7-28.534,12.7s-28.533-5.683-28.533-12.7,12.775-12.7,28.533-12.7S1416.668,1767.655,1416.668,1774.667Z" transform="translate(-1350.073 -1609.541)" fill="#98a7d3"/>
        <g id="Grupo_119193" data-name="Grupo 119193">
          <g id="Grupo_119164" data-name="Grupo 119164" transform="translate(16.921 162.067)">
            <g id="Grupo_119163" data-name="Grupo 119163" transform="translate(4.351)">
              <path id="Trazado_168726" data-name="Trazado 168726" d="M1431.227,1821.505s-3.027-.554-2.175,1.917c0,0,7.066,3.034,12,2.35a3.091,3.091,0,0,0,2.925-3.88l.058-3.058-4.653.881.264,2.906Z" transform="translate(-1428.901 -1818.834)" fill="#e28262"/>
            </g>
            <path id="Trazado_168727" data-name="Trazado 168727" d="M1422.655,1833.325a1.959,1.959,0,0,1-.464,1.312c-1.218,1.4-3.612,1.446-5.3,1.339a56.963,56.963,0,0,1-8.06-1.127c-.577-.122-.737-.31-.744-.48a2.352,2.352,0,0,1,1.813-1.43l-2.577-.33a6.494,6.494,0,0,0-4.012.82c-.658,1.881,2.546,3.137,2.546,3.137a52.141,52.141,0,0,0,7.5,2.094s9.045,2.133,10.138-.649Z" transform="translate(-1403.226 -1830.267)" fill="#411323"/>
          </g>
          <g id="Grupo_119166" data-name="Grupo 119166" transform="translate(34.889 157.863)">
            <g id="Grupo_119165" data-name="Grupo 119165" transform="translate(4.351)">
              <path id="Trazado_168728" data-name="Trazado 168728" d="M1537.244,1796.7s-3.027-.553-2.175,1.916c0,0,7.066,3.034,12,2.351a3.091,3.091,0,0,0,2.925-3.88l.058-3.058-4.653.88.264,2.907Z" transform="translate(-1534.918 -1794.029)" fill="#e28262"/>
            </g>
            <path id="Trazado_168729" data-name="Trazado 168729" d="M1528.673,1808.521a1.953,1.953,0,0,1-.464,1.311c-1.218,1.405-3.612,1.447-5.3,1.34a57.192,57.192,0,0,1-8.06-1.127c-.577-.122-.737-.311-.744-.48a2.354,2.354,0,0,1,1.814-1.431l-2.576-.329a6.492,6.492,0,0,0-4.012.82c-.658,1.88,2.546,3.135,2.546,3.135a52.2,52.2,0,0,0,7.5,2.1s9.045,2.133,10.138-.649Z" transform="translate(-1509.244 -1805.463)" fill="#411323"/>
          </g>
          <g id="Grupo_119170" data-name="Grupo 119170" transform="translate(21.424 61.429)">
            <g id="Grupo_119167" data-name="Grupo 119167" transform="translate(19.25 8.791)">
              <path id="Trazado_168730" data-name="Trazado 168730" d="M1543.7,1285.541a8.637,8.637,0,1,0,8.637-8.637A8.638,8.638,0,0,0,1543.7,1285.541Z" transform="translate(-1543.642 -1276.904)" fill="#003273"/>
              <path id="Trazado_168731" data-name="Trazado 168731" d="M1557.5,1363.655s-.12,2.171-4.021,2.225c0,0-3.692,1.259-5.286-3.548-6.282-18.934-4.621-38.693-4.621-38.693s8.869-4.94,17.13-1.561C1560.7,1322.077,1559.368,1346.93,1557.5,1363.655Z" transform="translate(-1543.375 -1313.439)" fill="#003273"/>
            </g>
            <path id="Trazado_168732" data-name="Trazado 168732" d="M1571.815,1565.381s3.043,40.922,3.327,42.385a5.076,5.076,0,0,0,5.592-.052c-.015-2.008,2.172-18.741,2.4-21.884.388-5.4,1.037-12.225-2.376-19.987Z" transform="translate(-1547.745 -1507.698)" fill="#003273"/>
            <g id="Grupo_119168" data-name="Grupo 119168" transform="translate(0 8.789)">
              <path id="Trazado_168733" data-name="Trazado 168733" d="M1438.139,1360.022s-.833,2.008-4.531.766c0,0-3.9-.034-3.812-5.1.345-19.946,9.086-40.618,9.086-40.618s9.844-.94,16.52,4.984C1455.4,1320.056,1445.439,1344.859,1438.139,1360.022Z" transform="translate(-1429.794 -1308.556)" fill="#003d8d"/>
              <path id="Trazado_168734" data-name="Trazado 168734" d="M1482.315,1282.671a8.637,8.637,0,1,0,11.01-5.288A8.637,8.637,0,0,0,1482.315,1282.671Z" transform="translate(-1473.007 -1276.894)" fill="#003d8d"/>
            </g>
            <path id="Trazado_168735" data-name="Trazado 168735" d="M1510.166,1241.206c-1.044-9.6-5.862-14.062-5.862-14.062l-16.7-2.109s-4.6,8.008-5.084,16.171c2,5.444,9.109,7.03,9.109,7.03l5.4,1.6S1509.276,1247.979,1510.166,1241.206Z" transform="translate(-1473.588 -1225.035)" fill="#003d8d"/>
            <g id="Grupo_119169" data-name="Grupo 119169" transform="translate(0.44 55.676)">
              <path id="Trazado_168736" data-name="Trazado 168736" d="M1432.721,1557.762s8.281,42.989,8.779,44.393c-.218-.105,3.914,1.9,5.744-.688-.312-1.983-.486-23.818-.728-26.96-.415-5.4-.358-10.438-4.882-17.609C1441.634,1556.9,1430.327,1548.8,1432.721,1557.762Z" transform="translate(-1432.388 -1553.543)" fill="#003d8d"/>
            </g>
          </g>
          <path id="Trazado_168737" data-name="Trazado 168737" d="M1520.746,1759.455" transform="translate(-1483.908 -1607.452)" fill="#2c130d"/>
          <g id="Grupo_119173" data-name="Grupo 119173" transform="translate(48.732 22.988)">
            <g id="Grupo_119171" data-name="Grupo 119171" transform="translate(1.415 23.065)">
              <path id="Trazado_168738" data-name="Trazado 168738" d="M1608.363,1134.316s-3.041,3.582-9.09,12.228l1.045,1.772s10.361-5.219,13.666-11.077Z" transform="translate(-1599.273 -1134.316)" fill="#e28262"/>
            </g>
            <g id="Grupo_119172" data-name="Grupo 119172">
              <path id="Trazado_168739" data-name="Trazado 168739" d="M1592.865,1008.476s7.8,17.018,12.483,16.371c0,0,1.616.1,1.94-1.117,0,0,3.308-2.934-10.447-24.095a4.239,4.239,0,0,0-4.1-1.333S1588.567,1001.062,1592.865,1008.476Z" transform="translate(-1590.923 -998.225)" fill="#e28262"/>
            </g>
          </g>
          <g id="Grupo_119174" data-name="Grupo 119174" transform="translate(38.061 19.918)">
            <rect id="Rectngulo_42959" data-name="Rectngulo 42959" width="8.431" height="8.96" fill="#f5ae80"/>
          </g>
          <g id="Grupo_119175" data-name="Grupo 119175" transform="translate(31.876 1.246)">
            <path id="Trazado_168740" data-name="Trazado 168740" d="M1492.436,888.812l-.317-1.433-.631-5.247A4.778,4.778,0,0,1,1491.8,880a4.849,4.849,0,0,0,.429-2.18,6.146,6.146,0,0,1,2.1-5.485c2.878-3.053,8.422-2.322,8.423-2.322,2.866.545,5.321,1.757,6.61,4.219a8.941,8.941,0,0,1,.79,7.29,14.809,14.809,0,0,1-5.067,6.365c-1.464,1.132-2.892,1.208-4.747,1.717a20.727,20.727,0,0,1-5.072.414C1494.564,889.986,1492.618,889.635,1492.436,888.812Z" transform="translate(-1491.466 -869.937)" fill="#f39672"/>
          </g>
          <g id="Grupo_119176" data-name="Grupo 119176" transform="translate(36.685 15.265)">
            <path id="Trazado_168741" data-name="Trazado 168741" d="M1519.842,952.654" transform="translate(-1519.842 -952.654)" fill="#2c130d"/>
          </g>
          <g id="Grupo_119177" data-name="Grupo 119177" transform="translate(32.623)">
            <path id="Trazado_168742" data-name="Trazado 168742" d="M1499.935,877.852c.416-.59,1.931-.955,1.932-.955,1.83,0,1.591,2.443,1.764,3.5.056.345.123.7.2,1.051.872,3.106,3.482,3.079,5.713,3.455.082-.049.17-.1.261-.148a8.929,8.929,0,0,1,1.688-2.807c3.351-2.9,4.444-8.1,3.168-12.2a9.7,9.7,0,0,0-2.09-3.5,12.329,12.329,0,0,0-6.924-3.57c-2.594-.488-11.873.77-9.341,6.406,0,0,3.818,4.405,3.629,8.763" transform="translate(-1495.873 -862.587)" fill="#2c130d"/>
          </g>
          <g id="Grupo_119185" data-name="Grupo 119185" transform="translate(36.685 13.822)">
            <g id="Grupo_119181" data-name="Grupo 119181">
              <g id="Grupo_119178" data-name="Grupo 119178" transform="translate(0 0.17)">
                <path id="Trazado_168743" data-name="Trazado 168743" d="M1519.842,946.418a1.756,1.756,0,0,1,2.066-1.209,1.382,1.382,0,0,1,1.01,1.49c-.014.151-.047.3-.062.45a3.172,3.172,0,0,1-1.961,2.22" transform="translate(-1519.842 -945.145)" fill="#f7ae80"/>
              </g>
              <g id="Grupo_119179" data-name="Grupo 119179" transform="translate(0.543 0.882)">
                <path id="Trazado_168744" data-name="Trazado 168744" d="M1524.4,949.458a.927.927,0,0,0-.407-.11c-.614-.039-1.11.908-.5,1.077a.35.35,0,0,1-.008.486c-.212.23-.5.561-.432.885.039.192.252.3.445.343.155.038.185-.082.063-.14a.693.693,0,0,1-.234-.192c-.005-.011-.012-.021-.018-.033a.088.088,0,0,1-.015-.024.2.2,0,0,1-.007-.141.38.38,0,0,0,.477-.005c.117-.14.028-.36.068-.52a1.218,1.218,0,0,1,.142-.318.328.328,0,0,0-.226-.549,1.352,1.352,0,0,0-.187.014c-.258-.133.03-.521.187-.582a.5.5,0,0,1,.536.094.763.763,0,0,1,.171.543,1.79,1.79,0,0,1-.167.65c-.056.116-.126.252-.183.369s.089.19.153.057a3.857,3.857,0,0,0,.439-1.07A.813.813,0,0,0,1524.4,949.458Z" transform="translate(-1523.044 -949.347)" fill="#dc9472"/>
              </g>
              <g id="Grupo_119180" data-name="Grupo 119180">
                <path id="Trazado_168745" data-name="Trazado 168745" d="M1519.842,945.584s.073-.105.194-.3a2.447,2.447,0,0,1,.255-.294,2,2,0,0,1,.389-.3,1.615,1.615,0,0,1,.525-.19,1.353,1.353,0,0,1,.6.042,1.622,1.622,0,0,1,.3.129,1.434,1.434,0,0,1,.242.186,1.161,1.161,0,0,1,.321.546,1.644,1.644,0,0,1,.01.678l-.023.185,0,.024v0c0-.011,0,.027,0-.023v0l0,.011-.009.046-.018.091a2.015,2.015,0,0,1-.088.325,2.606,2.606,0,0,1-.286.569,3.385,3.385,0,0,1-.369.457,4.127,4.127,0,0,1-.694.576c-.184.122-.3.184-.3.184a2.136,2.136,0,0,0,.336-.11,3.487,3.487,0,0,0,.818-.469,2.8,2.8,0,0,0,.46-.45,2.42,2.42,0,0,0,.38-.627,2.349,2.349,0,0,0,.124-.368l.023-.089.011-.046,0-.011.006-.036,0-.024.027-.185a2.021,2.021,0,0,0-.008-.826,1.584,1.584,0,0,0-.451-.736,2.107,2.107,0,0,0-.166-.135l-.194-.108a1.731,1.731,0,0,0-.371-.131,1.548,1.548,0,0,0-.76.01,1.673,1.673,0,0,0-.6.3,1.72,1.72,0,0,0-.372.4,2.648,2.648,0,0,0-.208.358C1519.882,945.462,1519.842,945.584,1519.842,945.584Z" transform="translate(-1519.842 -944.142)" fill="#dc9472"/>
              </g>
            </g>
            <g id="Grupo_119184" data-name="Grupo 119184" transform="translate(0.032 3.489)">
              <g id="Grupo_119182" data-name="Grupo 119182">
                <path id="Trazado_168746" data-name="Trazado 168746" d="M1521.053,965.241a.511.511,0,1,1-.511-.511A.511.511,0,0,1,1521.053,965.241Z" transform="translate(-1520.031 -964.73)" fill="#fff"/>
              </g>
              <g id="Grupo_119183" data-name="Grupo 119183">
                <path id="Trazado_168747" data-name="Trazado 168747" d="M1520.664,965.514a.4.4,0,0,1-.4-.4.4.4,0,0,1,.281-.379h0a.51.51,0,1,0,.511.511c0-.012,0-.025,0-.036A.4.4,0,0,1,1520.664,965.514Z" transform="translate(-1520.031 -964.73)" fill="#e8e8e8"/>
              </g>
            </g>
          </g>
          <g id="Grupo_119186" data-name="Grupo 119186" transform="translate(27.076 23.002)">
            <path id="Trazado_168748" data-name="Trazado 168748" d="M1496.1,1042.848c-.032-.048-9.307-13.354-9.307-13.354-.434-1.963.544-5.868.544-5.868l2.975-20.465c-.353-2.345-.515-5.323-3.689-4.79a19.645,19.645,0,0,0-4.062,1.132c.4,1.9-2.876,3.121-2.876,3.121-4.512,1.949-5.555.665-5.555.665a66.858,66.858,0,0,0-6.316,3.545c-1.1.9-1.757,2.3-1.413,4.665l3.248,19.4-.572,4.818-5.932,15.041a12.753,12.753,0,0,1,5.78-.69c1.845.221,3.434,1.308,5.266,1.512,2.769.3,4.823-.695,6.912-2.019a33.319,33.319,0,0,0,8-2.812h.174c2.071.011,4.416-.025,5.943-1.646C1495.545,1044.759,1496.492,1043.411,1496.1,1042.848Z" transform="translate(-1463.147 -998.309)" fill="#411323"/>
          </g>
          <g id="Grupo_119187" data-name="Grupo 119187" transform="translate(27.911 31.494)">
            <path id="Trazado_168749" data-name="Trazado 168749" d="M1468.07,1079.5l.054-23.562c.573-6.456,3.78-7.487,3.78-7.487,6.481-.76,5.483,11.251,5.483,11.251l-2.706,20.3" transform="translate(-1468.07 -1048.411)" fill="#f39672"/>
          </g>
          <g id="Grupo_119188" data-name="Grupo 119188" transform="translate(0 69.642)">
            <path id="Trazado_168750" data-name="Trazado 168750" d="M1310.667,1279.317c2.973-1.591,3.239-2.1,3.763-2.853,2.26-3.211-2.309-3.11-3.459-2.849-.66.151-.7,1.72-2.749,3.636,0,0-3.218,1.867-4.011,1.735,0,0-.825.118-.825.712C1303.387,1279.7,1305.646,1281.035,1310.667,1279.317Z" transform="translate(-1303.387 -1273.499)" fill="#f39672"/>
          </g>
          <g id="Grupo_119191" data-name="Grupo 119191" transform="translate(7.885 59.289)">
            <g id="Grupo_119189" data-name="Grupo 119189" transform="translate(24.268 0.045)">
              <path id="Trazado_168751" data-name="Trazado 168751" d="M1493.1,1212.678" transform="translate(-1493.1 -1212.678)" fill="#f7ae80"/>
            </g>
            <g id="Grupo_119190" data-name="Grupo 119190">
              <path id="Trazado_168752" data-name="Trazado 168752" d="M1370.423,1213.216l-20.182,11.046c-.872,2.429.249,2.778.249,2.778l15.625-4.5c6.67-1.786,9.313-4.586,9.313-4.586s2.917-2.021-.806-5.03C1374.623,1212.929,1372.928,1211.588,1370.423,1213.216Z" transform="translate(-1349.909 -1212.41)" fill="#f39672"/>
            </g>
          </g>
          <g id="Grupo_119192" data-name="Grupo 119192" transform="translate(34.144 0.285)">
            <path id="Trazado_168753" data-name="Trazado 168753" d="M1505.6,877.8c.523,3.908-.066,9.08,1.881,13.351.867,1.9,1.823,2.843,1.3,5.049-.425,1.805-1.279,3.508-1.742,5.378-1.023,4.126.367,8.156,5.175,6.663,2.305-.716,2.563-.705,4.662.109a6.1,6.1,0,0,0,5.174.021c2.718-1.325,1.9-3.325,3.423-5.329,1.16-1.528,2.8-1.49,3.676-3.542,1.055-2.477-.2-3.8-1.488-5.9a7.73,7.73,0,0,1-1.112-6.272c.37-2.218-.178-3.339-.912-5.378-.753-2.089-.425-3.91-.781-6.005-.705-4.143-2.969-9.766-7.31-10.982-2.127-.6-4.877-1.061-6.923-.309-2.788,1.022-5.892,2.111-5.771,5.54A56.681,56.681,0,0,0,1505.6,877.8Z" transform="translate(-1504.849 -864.267)" fill="#2c130d"/>
          </g>
          <path id="Trazado_168754" data-name="Trazado 168754" d="M1331.908,1266.987s.567,1.655-1.493,1.249l-2.016-1.536a.793.793,0,0,1-.4-.933s.241-.342.885,0Z" transform="translate(-1323.784 -1197.308)" fill="#f39672"/>
        </g>
      </g>
    </g>
  </g>
</svg>
