<svg xmlns="http://www.w3.org/2000/svg" width="124" height="124" viewBox="0 0 124 124">
  <g id="Grupo_120575" data-name="Grupo 120575" transform="translate(-580.5 -4365.018)">
    <g id="Elipse_6812" data-name="Elipse 6812" transform="translate(580.5 4365.018)" fill="#fff" stroke="#2631a0" stroke-width="4">
      <circle cx="62" cy="62" r="62" stroke="none"/>
      <circle cx="62" cy="62" r="60" fill="none"/>
    </g>
    <g id="Grupo_119075" data-name="Grupo 119075" transform="translate(7568.689 2206.945)">
      <path id="Trazado_168502" data-name="Trazado 168502" d="M-6870.894,2183.368h20.181c1.5,0,1.911.4,1.911,1.884q0,9.245.011,18.489a1.485,1.485,0,0,1-.489,1.171q-3.873,3.828-7.7,7.7a1.53,1.53,0,0,1-1.171.492,56.367,56.367,0,0,0-6.911.136,7.313,7.313,0,0,0-4.142,2.09,1.519,1.519,0,0,1-1.179.473c-6.051-.015-12.1,0-18.153-.026-.664,0-.82.169-.818.823q.032,16.759,0,33.517c0,.658.161.822.82.821,9.344-.023,18.688-.006,28.032-.035.737,0,.936.161.911.907-.062,1.812-.02,1.814-1.842,1.814q-14.86,0-29.721.019c-.744,0-.908-.175-.906-.91q.039-19.08.015-38.16a14.82,14.82,0,0,0-11.32-14.548,7.025,7.025,0,0,0-1.489-.271c-.607-.019-.717-.286-.713-.835.016-2.041,0-2.041,2.03-2.041,2.42,0,4.841.009,7.261,0a4.051,4.051,0,0,0,4.232-4.256c.01-2.814.023-5.629-.014-8.442-.008-.648.145-.83.815-.827C-6884.459,2183.378-6877.676,2183.368-6870.894,2183.368Z" transform="translate(-46.313 0)" fill="#e5e8ec" stroke="#e5e8ec" stroke-miterlimit="10" stroke-width="6"/>
      <path id="Trazado_168503" data-name="Trazado 168503" d="M-6965.37,2279.359a12.179,12.179,0,0,1,12.228-12.132,12.184,12.184,0,0,1,12.092,12.186,12.187,12.187,0,0,1-12.229,12.133A12.185,12.185,0,0,1-6965.37,2279.359Z" transform="translate(-0.009 -64.944)" fill="#fbd670" stroke="#ebf2f4" stroke-miterlimit="10" stroke-width="1"/>
      <path id="Trazado_168504" data-name="Trazado 168504" d="M-6941.057,2359.054v21.418q0,6.46,0,12.92a4.069,4.069,0,0,1-4.367,4.381q-7.9.008-15.792,0a4.021,4.021,0,0,1-4.157-4.161q-.014-16.974,0-33.947v-.585a20.446,20.446,0,0,0,2.541,2.729c.26.215.157.524.157.793.007,2.617,0,5.235.006,7.853a2.718,2.718,0,0,0,2.973,3q6.5.009,13.005,0a2.71,2.71,0,0,0,2.936-2.953q.011-3.969-.006-7.937a1.144,1.144,0,0,1,.441-1.014A16.219,16.219,0,0,0-6941.057,2359.054Z" transform="translate(0 -136.044)" fill="#959ea9" stroke="#ebf2f4" stroke-miterlimit="10" stroke-width="1"/>
      <path id="Trazado_168505" data-name="Trazado 168505" d="M-6719.991,2357.7c0-1.969.034-3.94-.019-5.908-.02-.758.246-.769.826-.569a2.718,2.718,0,0,1,1.89,2.7c.011,2.87.021,5.74-.011,8.609-.007.592.143.834.736.724a.482.482,0,0,1,.084,0c.591-.006,1.33.2,1.73-.076.437-.3.146-1.092.153-1.666a1.061,1.061,0,0,1,.4-.786c2.807-2.8,5.624-5.6,8.407-8.423.474-.481.6-.306.842.173a36.779,36.779,0,0,1,3.847,14.555c.03.52-.172.667-.609.784q-6.016,1.618-12.021,3.279a.957.957,0,0,1-.986-.216c-.91-.753-1.854-1.464-2.761-2.22a6.67,6.67,0,0,1-2.505-5.3C-6720,2361.467-6719.991,2359.582-6719.991,2357.7Z" transform="translate(-189.986 -129.893)" fill="#efcfb3" stroke="#efcfb3" stroke-linecap="round" stroke-linejoin="round" stroke-width="5"/>
      <path id="Trazado_168506" data-name="Trazado 168506" d="M-6702.382,2301.581c0-1.217-.015-2.217,0-3.216a5.311,5.311,0,0,0-1.634-4.1c-.341-.329-.287-.482.009-.777,4.462-4.445,8.9-8.912,13.375-13.346a3.36,3.36,0,0,1,4.84.054,3.374,3.374,0,0,1-.086,4.844q-7.167,7.208-14.37,14.381C-6700.911,2300.088-6701.571,2300.761-6702.382,2301.581Z" transform="translate(-202.191 -74.168)" fill="#fe816e"/>
      <path id="Trazado_168507" data-name="Trazado 168507" d="M-6682.74,2449.854c-2.221,0-4.441-.017-6.661.012-.516.007-.663-.124-.657-.65q.041-4.258,0-8.515a.679.679,0,0,1,.608-.8q5.607-1.5,11.2-3.051c.471-.13.649-.119.741.461.625,3.935,1.3,7.863,1.974,11.79.1.555.031.781-.629.768C-6678.354,2449.826-6680.548,2449.854-6682.74,2449.854Z" transform="translate(-213.177 -196.23)" fill="#b3dc7f" stroke="#ebf2f4" stroke-miterlimit="10" stroke-width="1"/>
      <path id="Trazado_168508" data-name="Trazado 168508" d="M-6806.679,2344.439c-4.914,0-9.752,0-14.591.008-.393,0-.459-.151-.457-.494q.022-2.237,0-4.475c0-.308.062-.45.414-.449,4.948.01,9.9.007,14.9.007A11.815,11.815,0,0,0-6806.679,2344.439Z" transform="translate(-111.229 -120.539)" fill="#fee9a6" stroke="#ebf2f4" stroke-miterlimit="10" stroke-width="1"/>
      <path id="Trazado_168509" data-name="Trazado 168509" d="M-6927.944,2379.756c0,2.271-.012,4.4.01,6.536,0,.435-.168.5-.543.5q-6.237-.016-12.475,0c-.321,0-.516-.028-.513-.439.018-2.155.008-4.31.008-6.587A14.97,14.97,0,0,0-6927.944,2379.756Z" transform="translate(-18.518 -152.073)" fill="#69d5f3" stroke="#ebf2f4" stroke-miterlimit="10" stroke-width="1"/>
      <path id="Trazado_168510" data-name="Trazado 168510" d="M-6806.042,2374.931c-1.855,1.838-3.55,3.51-5.232,5.194a.947.947,0,0,1-.775.21c-3.008,0-6.017-.016-9.025.015-.566.006-.7-.165-.683-.7.038-1.376.023-2.755.006-4.132-.005-.393.032-.6.525-.6C-6816.253,2374.939-6811.279,2374.931-6806.042,2374.931Z" transform="translate(-111.205 -148.329)" fill="#fee9a6" stroke="#ebf2f4" stroke-miterlimit="10" stroke-width="1"/>
      <path id="Trazado_168511" data-name="Trazado 168511" d="M-6761.891,2378.634a27.21,27.21,0,0,0,.148,4.126c.059.3-.108.465-.291.648-1.174,1.169-2.353,2.333-3.506,3.523-.308.317-.493.32-.8,0q-2-2.049-4.05-4.05c-.315-.308-.321-.489,0-.8q3.77-3.735,7.51-7.5c.25-.251.564-.489.885-.329.253.126.1.507.106.772C-6761.884,2376.145-6761.891,2377.269-6761.891,2378.634Z" transform="translate(-150.789 -147.77)" fill="#fe816e"/>
      <path id="Trazado_168512" data-name="Trazado 168512" d="M-6808.215,2447.961c0,1.333-.014,2.541.009,3.749.007.382-.128.467-.484.466q-6.286-.016-12.57,0c-.371,0-.478-.109-.474-.476q.029-2.235,0-4.471c0-.374.114-.476.479-.472,1.546.018,3.093.021,4.64,0,.357-.005.465.167.595.439a3.55,3.55,0,0,0,4.889,1.924C-6810.194,2448.755-6809.264,2448.377-6808.215,2447.961Z" transform="translate(-111.222 -203.949)" fill="#fee9a6" stroke="#ebf2f4" stroke-miterlimit="10" stroke-width="1"/>
      <path id="Trazado_168513" data-name="Trazado 168513" d="M-6744.5,2431.7c0,1.459-.016,2.919.009,4.378.007.433-.105.575-.556.566-1.431-.029-2.864-.025-4.294,0-.424.007-.585-.083-.576-.547.031-1.431.009-2.863.015-4.294,0-.184-.071-.4.151-.528,1.815-1.03,2.957-2.794,4.5-4.122.2-.17.333-.574.629-.433.265.126.114.507.117.771C-6744.49,2428.889-6744.5,2430.292-6744.5,2431.7Z" transform="translate(-166.833 -188.41)" fill="#fee9a6" stroke="#ebf2f4" stroke-miterlimit="10" stroke-width="1"/>
      <path id="Trazado_168514" data-name="Trazado 168514" d="M-6886.618,2193.811c0,2.194.01,4.581,0,6.968a1.319,1.319,0,0,1-1.363,1.485c-2.437.026-4.875.009-7.085.009Z" transform="translate(-54.44 -8.099)" fill="#b3dc7e" stroke="#b3dc7e" stroke-miterlimit="10" stroke-width="4"/>
      <path id="Trazado_168515" data-name="Trazado 168515" d="M-6813.727,2410.856c-.7,1.756-1.38,3.41-2.026,5.075-.122.313-.313.332-.579.332-1.63,0-3.26-.015-4.89.006-.409.005-.523-.119-.516-.521.021-1.461.013-2.923,0-4.384,0-.313.01-.52.43-.517C-6818.812,2410.865-6816.322,2410.856-6813.727,2410.856Z" transform="translate(-111.22 -176.147)" fill="#fee9a6" stroke="#ebf2f4" stroke-miterlimit="10" stroke-width="1"/>
      <path id="Trazado_168516" data-name="Trazado 168516" d="M-6735.567,2327.188c-.8.772-1.617,1.535-2.407,2.322a.916.916,0,0,1-.771.2,2.7,2.7,0,0,0-2.926,2.856,10.846,10.846,0,0,1-.024,1.347,1.265,1.265,0,0,1-1.233,1.173,1.266,1.266,0,0,1-1.392-.985,5.743,5.743,0,0,1,4.1-6.944,31.471,31.471,0,0,1,4.527-.186Z" transform="translate(-171.009 -111.204)" fill="#efcfb3" stroke="#efcfb3" stroke-linecap="round" stroke-linejoin="round" stroke-width="6"/>
      <path id="Trazado_168517" data-name="Trazado 168517" d="M-6780.035,2425.964c-1.575.627-2.979,1.179-4.377,1.746a.9.9,0,0,1-1.076-.21.862.862,0,0,1-.172-1.008c.527-1.3,1.057-2.594,1.555-3.9.16-.421.3-.372.568-.105C-6782.411,2423.615-6781.274,2424.735-6780.035,2425.964Z" transform="translate(-139.086 -184.998)" fill="#a9b1bc"/>
      <path id="Trazado_168518" data-name="Trazado 168518" d="M-6713.942,2440.114c.885.706,1.62,1.31,2.375,1.887a.79.79,0,0,1,.333.714c-.014,1.266-.021,2.531,0,3.8.007.4-.1.51-.513.527-2.2.092-2.2.1-2.2-2.041Z" transform="translate(-194.685 -198.807)" fill="#fee9a6" stroke="#ebf2f4" stroke-miterlimit="10" stroke-width="1"/>
      <path id="Trazado_168519" data-name="Trazado 168519" d="M-6814.9,2203.46c-6.022,0-12.045-.011-18.068.017-.633,0-.79-.151-.778-.781.042-2.222.037-4.446,0-6.669-.009-.561.156-.686.7-.686q18.237.023,36.475,0c.553,0,.7.143.69.692-.032,2.223-.041,4.447,0,6.669.013.643-.164.776-.785.773C-6802.743,2203.45-6808.822,2203.46-6814.9,2203.46Z" transform="translate(-101.921 -9.284)" stroke="#ebf2f4" stroke-miterlimit="10" stroke-width="1"/>
      <path id="Trazado_168520" data-name="Trazado 168520" d="M-6814.739,2243.229c6.022,0,12.045.011,18.068-.016.629,0,.793.144.78.778-.038,1.939-.007,1.94-1.965,1.94q-17.52,0-35.039.017c-.7,0-.887-.158-.867-.864.054-1.854.016-1.855,1.883-1.855Z" transform="translate(-101.909 -46.35)" stroke="#ebf2f4" stroke-miterlimit="10" stroke-width="1"/>
      <path id="Trazado_168521" data-name="Trazado 168521" d="M-6814.739,2267.172c6.022,0,12.045.01,18.068-.016.629,0,.793.143.78.778-.038,1.939-.007,1.94-1.965,1.94q-17.52,0-35.039.017c-.7,0-.887-.157-.867-.864.054-1.855.016-1.856,1.883-1.856Z" transform="translate(-101.909 -64.889)" stroke="#ebf2f4" stroke-miterlimit="10" stroke-width="1"/>
      <path id="Trazado_168522" data-name="Trazado 168522" d="M-6823,2293.816c-3.349,0-6.7-.013-10.046.013-.553,0-.694-.142-.692-.692.011-2.023-.01-2.023,2.048-2.023,6.275,0,12.55.01,18.825-.017.632,0,.791.149.779.78-.038,1.938-.007,1.939-1.966,1.939Z" transform="translate(-101.931 -83.426)" stroke="#ebf2f4" stroke-miterlimit="10" stroke-width="1"/>
      <path id="Trazado_168523" data-name="Trazado 168523" d="M-6925.473,2279.2c1.322,0,1.322,0,1.323,1.3a4.7,4.7,0,0,1-.005.674,1.093,1.093,0,0,0,.741,1.277,4.25,4.25,0,0,1,1.972,4.575c-.052.211-.139.277-.331.275-.253,0-.506,0-.759,0-.5-.009-1.136.157-1.476-.084-.375-.266-.1-.938-.142-1.431a1.154,1.154,0,0,0-1.093-1.177c-.7-.087-1.329.081-1.555.832a1.15,1.15,0,0,0,.747,1.427c.8.4,1.609.8,2.406,1.208a3.716,3.716,0,0,1,2.182,3.524,3.645,3.645,0,0,1-2.219,3.406c-.374.182-.519.373-.471.757a2.673,2.673,0,0,1,0,.337c0,2.26-.018,2.269-2.307,2.017-.271-.03-.427-.077-.4-.382.014-.139-.008-.282,0-.422.1-1.187.042-2.137-1.268-2.879-1.509-.856-1.523-2.563-1.437-4.153.012-.223.131-.28.324-.278.253,0,.506,0,.76,0,.5.009,1.135-.158,1.477.083.376.266.1.938.142,1.43a1.155,1.155,0,0,0,1.092,1.178,1.257,1.257,0,0,0,1.555-.834,1.149,1.149,0,0,0-.748-1.426c-.778-.388-1.559-.772-2.334-1.166a3.758,3.758,0,0,1-2.252-3.568,3.652,3.652,0,0,1,2.221-3.405.674.674,0,0,0,.473-.757c-.024-.308-.005-.619-.005-.928C-6926.854,2279.2-6926.854,2279.2-6925.473,2279.2Z" transform="translate(-27.716 -74.213)" stroke="#ebf2f4" stroke-miterlimit="10" stroke-width="1"/>
      <path id="Trazado_168524" data-name="Trazado 168524" d="M-6943.925,2434.821c2.167,0,4.335-.007,6.5,0a2.71,2.71,0,0,1,2.929,2.959q.01,6.5,0,13a2.707,2.707,0,0,1-2.939,2.949q-6.5.011-13,0a2.718,2.718,0,0,1-2.97-3q-.007-6.46,0-12.919a2.73,2.73,0,0,1,2.981-2.99C-6948.26,2434.816-6946.092,2434.821-6943.925,2434.821Z" transform="translate(-9.268 -194.707)" stroke="#ebf2f4" stroke-miterlimit="10" stroke-width="1"/>
      <path id="Trazado_168525" data-name="Trazado 168525" d="M-6805.461,2207.315c5.118,0,10.237.012,15.354-.016.629,0,.8.148.786.783-.034,1.934,0,1.935-1.9,1.935q-14.848,0-29.7.017c-.7,0-.892-.162-.872-.869.051-1.849.014-1.85,1.9-1.85Z" transform="translate(-111.182 -18.543)" fill="#fe816e" stroke="#ebf2f4" stroke-miterlimit="10" stroke-width="1"/>
      <path id="Trazado_168526" data-name="Trazado 168526" d="M-6890.869,2474.8c0,1.151-.014,2.3.008,3.451.007.4-.108.512-.515.532-2.2.106-2.2.119-2.2-2.042,0-1.824.014-3.648-.01-5.471-.006-.466.119-.609.6-.618,2.112-.038,2.112-.055,2.112,2.044Z" transform="translate(-55.592 -222.448)" fill="#fe816e" stroke="#ebf2f4" stroke-miterlimit="10" stroke-width="1"/>
      <path id="Trazado_168527" data-name="Trazado 168527" d="M-6938.727,2448.191c0,1.311,0,1.311-1.308,1.311-1.4,0-1.4,0-1.4-1.392,0-1.311,0-1.311,1.308-1.311C-6938.727,2446.8-6938.727,2446.8-6938.727,2448.191Z" transform="translate(-18.545 -203.984)" fill="#fe816e" stroke="#ebf2f4" stroke-miterlimit="10" stroke-width="1"/>
      <path id="Trazado_168528" data-name="Trazado 168528" d="M-6914.781,2448.218c0,1.284,0,1.284-1.335,1.284-1.368,0-1.368,0-1.368-1.335,0-1.368,0-1.368,1.335-1.368C-6914.781,2446.8-6914.781,2446.8-6914.781,2448.218Z" transform="translate(-37.086 -203.984)" fill="#fe816e" stroke="#ebf2f4" stroke-miterlimit="10" stroke-width="1"/>
      <path id="Trazado_168529" data-name="Trazado 168529" d="M-6892.137,2446.8c1.3,0,1.3,0,1.3,1.317,0,1.385,0,1.385-1.4,1.385-1.3,0-1.3,0-1.3-1.317C-6893.538,2446.8-6893.538,2446.8-6892.137,2446.8Z" transform="translate(-55.627 -203.984)" fill="#fe816e" stroke="#ebf2f4" stroke-miterlimit="10" stroke-width="1"/>
      <path id="Trazado_168530" data-name="Trazado 168530" d="M-6941.43,2472.017c0-1.274,0-1.274,1.261-1.274,1.442,0,1.442,0,1.442,1.428,0,1.274,0,1.274-1.261,1.274C-6941.43,2473.445-6941.43,2473.445-6941.43,2472.017Z" transform="translate(-18.545 -222.523)" fill="#fe816e" stroke="#ebf2f4" stroke-miterlimit="10" stroke-width="1"/>
      <path id="Trazado_168531" data-name="Trazado 168531" d="M-6914.781,2472.128c0,1.317,0,1.317-1.3,1.317-1.4,0-1.4,0-1.4-1.385,0-1.317,0-1.317,1.3-1.317C-6914.781,2470.743-6914.781,2470.743-6914.781,2472.128Z" transform="translate(-37.086 -222.523)" fill="#fe816e" stroke="#ebf2f4" stroke-miterlimit="10" stroke-width="1"/>
      <path id="Trazado_168532" data-name="Trazado 168532" d="M-6940.113,2497.389c-1.317,0-1.317,0-1.317-1.3,0-1.4,0-1.4,1.386-1.4,1.317,0,1.317,0,1.317,1.3C-6938.727,2497.389-6938.727,2497.389-6940.113,2497.389Z" transform="translate(-18.545 -241.062)" fill="#fe816e" stroke="#ebf2f4" stroke-miterlimit="10" stroke-width="1"/>
      <path id="Trazado_168533" data-name="Trazado 168533" d="M-6916.129,2494.687c1.349,0,1.349,0,1.349,1.354s0,1.349-1.354,1.349-1.349,0-1.349-1.354S-6917.483,2494.687-6916.129,2494.687Z" transform="translate(-37.086 -241.062)" fill="#fe816e" stroke="#ebf2f4" stroke-miterlimit="10" stroke-width="1"/>
    </g>
  </g>
</svg>
