<svg xmlns="http://www.w3.org/2000/svg" width="124" height="124" viewBox="0 0 124 124">
  <g id="Grupo_120581" data-name="Grupo 120581" transform="translate(-580.5 -7503.017)">
    <g id="Elipse_6830" data-name="Elipse 6830" transform="translate(580.5 7503.017)" fill="#fff" stroke="#2631a0" stroke-width="4">
      <circle cx="62" cy="62" r="62" stroke="none"/>
      <circle cx="62" cy="62" r="60" fill="none"/>
    </g>
    <g id="Grupo_119207" data-name="Grupo 119207" transform="translate(5416.41 7001.062)">
      <g id="Grupo_119205" data-name="Grupo 119205" transform="translate(-4818.558 515.611)">
        <path id="Trazado_168775" data-name="Trazado 168775" d="M-4733.922,887.068c.123-.258.247-.2.369,0Z" transform="translate(4754.81 -795.262)" fill="#646464"/>
        <path id="Trazado_168776" data-name="Trazado 168776" d="M-4719.7,887.082c.123-.194.246-.251.369,0Z" transform="translate(4744.101 -795.277)" fill="#585858"/>
        <path id="Trazado_168777" data-name="Trazado 168777" d="M-4755.034,527.248c.318.183.641.36.955.551a2.986,2.986,0,0,0,3.232.076,29.7,29.7,0,0,1,6.79-2.823,2.937,2.937,0,0,0,2.218-2.344c.469-2.067.979-4.124,1.434-6.194.136-.62.335-.927,1.067-.9,1.845.064,3.693.045,5.539.008.6-.012.852.167.98.774.44,2.073.961,4.128,1.424,6.2a3.113,3.113,0,0,0,2.4,2.508,26.619,26.619,0,0,1,6.449,2.683,3.2,3.2,0,0,0,3.638-.11c1.729-1.118,3.505-2.165,5.234-3.285.522-.339.846-.376,1.312.12,1.265,1.344,2.576,2.647,3.915,3.918a.847.847,0,0,1,.163,1.306c-1.146,1.748-2.212,3.549-3.338,5.31a3.187,3.187,0,0,0-.087,3.562,27.262,27.262,0,0,1,2.625,6.273,4.7,4.7,0,0,0,1,1.912c-3.091,0-6-.008-8.905.007-.579,0-.58-.432-.712-.791a19.654,19.654,0,0,0-11.124-11.792,20.006,20.006,0,0,0-27.5,14.972c-.058.333-.125.665-.188,1-.435,0-.54-.357-.673-.658A20.293,20.293,0,0,1-4758.836,539a33.706,33.706,0,0,1,2.311-9.453C-4756.178,528.711-4756.052,527.675-4755.034,527.248Z" transform="translate(4773.663 -515.611)" fill="#528ed7"/>
        <path id="Trazado_168778" data-name="Trazado 168778" d="M-4713.439,614.924q13.061.014,26.121.006a1.474,1.474,0,0,0,1.558-.912,1.467,1.467,0,0,0-.488-1.656q-2.492-2.468-4.963-4.957c-.8-.8-.792-1.088.018-1.9.888-.9,1.788-1.78,2.672-2.679a.977.977,0,0,1,1.59-.012c4.347,4.354,8.714,8.689,13.039,13.066a3.025,3.025,0,0,1-.094,4.461c-4.291,4.324-8.612,8.617-12.915,12.929a1.015,1.015,0,0,1-1.661-.018c-.9-.922-1.815-1.839-2.743-2.738a1.032,1.032,0,0,1,0-1.721c1.628-1.591,3.219-3.22,4.838-4.82.55-.543,1.038-1.092.688-1.929s-1.108-.842-1.869-.842q-24.552.007-49.1,0c-1.415,0-1.266.174-1.431-1.232a19.889,19.889,0,0,1,.021-4.14c.063-.7.278-.919,1-.914,5.477.032,10.953.019,16.429.016C-4719.449,614.927-4714.56,614.922-4713.439,614.924Z" transform="translate(4758.097 -580.985)" fill="#fee077"/>
        <path id="Trazado_168779" data-name="Trazado 168779" d="M-4799.928,553.124a16.681,16.681,0,0,0-2.279,5.284,28.539,28.539,0,0,0-1.351,10.051,16.971,16.971,0,0,0,2.159,7.6,19.785,19.785,0,0,0,.2,6.052c.077.38-.068.529-.451.622a24.429,24.429,0,0,0-7.049,2.875c-.372.227-.5.107-.673-.243a2.931,2.931,0,0,0-2.142-1.582c-2.064-.469-4.116-1-6.188-1.426-.7-.145-.866-.448-.851-1.109.042-1.813.048-3.629,0-5.441a.867.867,0,0,1,.822-1.043c2.1-.457,4.184-.973,6.278-1.449a2.938,2.938,0,0,0,2.339-2.22,29.143,29.143,0,0,1,2.781-6.7,3.109,3.109,0,0,0-.129-3.469c-1.139-1.787-2.23-3.606-3.375-5.389a.764.764,0,0,1,.125-1.164c1.376-1.318,2.71-2.68,4.051-4.036.3-.3.528-.526,1-.215C-4803.1,551.145-4801.51,552.125-4799.928,553.124Z" transform="translate(4818.558 -541.487)" fill="#0573cd"/>
        <path id="Trazado_168780" data-name="Trazado 168780" d="M-4802.249,698.986a21.485,21.485,0,0,1,12.459-7.341,22.7,22.7,0,0,1,27.146,18.259c1.493,8.189-1.02,15.233-7.07,20.982a3.406,3.406,0,0,1-.367.267,18.151,18.151,0,0,1-7.376,2.083,15.038,15.038,0,0,1-2.1.2,1.926,1.926,0,0,1-1.239-.225c-.127-.638.264-1.169.364-1.762,1.2-.291,2.282-.923,3.5-1.168,1.106.777,2.009.347,2.984-.364a19.183,19.183,0,0,0,8.146-13.892,18.674,18.674,0,0,0-4.308-14.354A18.655,18.655,0,0,0-4783,694.711a19.18,19.18,0,0,0-19.249,10.2,20.893,20.893,0,0,0-1.46,3.383c-.092.278-.124.619-.487.725a.84.84,0,0,1-.319-.9,26.893,26.893,0,0,1,1.446-7.487C-4802.848,700.058-4802.524,699.535-4802.249,698.986Z" transform="translate(4807.99 -647.839)" fill="#98e5fb"/>
        <path id="Trazado_168781" data-name="Trazado 168781" d="M-4614.231,808.212q-3.863-.022-7.726-.038c-.04-.047-.1-.109-.082-.153a8.617,8.617,0,0,1,1.559-2.954c3.351-.011,6.7-.029,10.053-.032q9.779-.008,19.558,0c.774,0,1.486-.058,1.833-.9.336-.82-.146-1.332-.666-1.845-.941-.929-1.856-1.885-2.815-2.794-.384-.364-.519-.612-.039-1.008a9.716,9.716,0,0,0,1.3-1.3c.391-.474.638-.35,1.012.028,2.682,2.711,5.39,5.4,8.077,8.1a1.617,1.617,0,0,1-.006,2.641c-2.708,2.728-5.439,5.432-8.146,8.162-.334.336-.554.392-.872.005-.541-.657-1.626-1.131-1.619-1.879.006-.58.988-1.155,1.544-1.724s1.125-1.137,1.7-1.7a1.454,1.454,0,0,0,.529-1.716,1.542,1.542,0,0,0-1.655-.9c-1.814.009-3.628,0-5.443,0q-5.4,0-10.793,0C-4608.074,808.217-4613.015,808.219-4614.231,808.212Z" transform="translate(4670.542 -727.461)" fill="#baeb6c"/>
        <path id="Trazado_168782" data-name="Trazado 168782" d="M-4791.354,756.928a10.928,10.928,0,0,0,3.978-.157,20.248,20.248,0,0,0,6.312-1.7,1.441,1.441,0,0,1,.451-.047,21.154,21.154,0,0,1-10.117,5.172,22.835,22.835,0,0,1-27.531-19.069,22.384,22.384,0,0,1,5.084-17.9,3.947,3.947,0,0,1,.4-.374c-.357,1.509-1.048,2.91-1.381,4.431-.338,1.55-.418,3.127-.632,4.69a1.142,1.142,0,0,0,.119.887c.346.328.122.7.041,1.031a15.438,15.438,0,0,0-.447,3.741,19.641,19.641,0,0,0,1.453,7.549,19.6,19.6,0,0,0,9.155,9.977,19.03,19.03,0,0,0,6.94,2.04,19.161,19.161,0,0,0,5.848-.353A.315.315,0,0,1-4791.354,756.928Z" transform="translate(4818.523 -671.705)" fill="#62dafa"/>
        <path id="Trazado_168783" data-name="Trazado 168783" d="M-4618.848,699.7a21.241,21.241,0,0,0,6.026-7.694,4.557,4.557,0,0,0,.417-1.02c.194-1.148.866-1.354,1.943-1.316,2.541.09,5.087.029,7.616.029a54.77,54.77,0,0,1-3.6,8.7,2.623,2.623,0,0,0,.082,2.573c.21.409.453.8.682,1.2.15.411-.173.551-.428.7a9.63,9.63,0,0,1-12.314-2.2C-4618.648,700.4-4618.969,700.138-4618.848,699.7Z" transform="translate(4668.156 -646.712)" fill="#528ed7"/>
        <path id="Trazado_168784" data-name="Trazado 168784" d="M-4628.627,730.329a9.377,9.377,0,0,0,7.831,4.248,9.62,9.62,0,0,0,5.063-1.436c.117-.067.181-.228.27-.345,1,1.581,1.989,3.168,3,4.738a.625.625,0,0,1-.087.94q-2.144,2.094-4.237,4.24c-.367.378-.632.308-1.019.06-1.657-1.058-3.368-2.035-4.989-3.143a3.625,3.625,0,0,0-4.37-.154c-.593.376-1.26.634-1.882.968-.379.2-.562.109-.61-.308a24.539,24.539,0,0,0-2.133-7.4c-.133-.29-.085-.422.184-.582C-4630.6,731.563-4629.618,730.941-4628.627,730.329Z" transform="translate(4677.935 -677.337)" fill="#0573cd"/>
        <path id="Trazado_168785" data-name="Trazado 168785" d="M-4634,829.951l-1.477,3.107h-4.514c.572-1,1.12-1.964,1.665-2.925.154-.273.415-.214.651-.213C-4636.447,829.927-4635.223,829.94-4634,829.951Z" transform="translate(4684.059 -752.344)" fill="#a1e52e"/>
      </g>
      <g id="Grupo_119206" data-name="Grupo 119206" transform="translate(-4809.916 567.39)">
        <path id="Trazado_168786" data-name="Trazado 168786" d="M-4755.023,737.507a.507.507,0,0,0-.464-.589q-.979-.216-1.947-.479a.7.7,0,0,1-.557-.376c-.91-1.911-.921-1.906.157-3.732.062-.1.12-.207.179-.311l.291-.505a2,2,0,0,0-.175-.237c-1.1-1.1-2.2-2.2-3.3-3.307-.2-.207-.36-.137-.562-.015-.613.372-1.241.72-1.851,1.1a.858.858,0,0,1-.721.049,2.934,2.934,0,0,1-2.489-2.971c0-.047-.022-.093-.028-.141-.057-.413-.25-.584-.708-.572-1.364.036-2.731.048-4.094,0-.544-.021-.7.2-.787.657-.11.562-.292,1.109-.414,1.669a1.133,1.133,0,0,1-.631.762,2.784,2.784,0,0,1-3.665-.338c-.087-.077-.216-.107-.307-.183-.286-.238-.489-.143-.727.1q-1.534,1.565-3.1,3.1a.452.452,0,0,0-.083.674c.376.582.7,1.2,1.069,1.783a.892.892,0,0,1,.051.789,2.916,2.916,0,0,1-2.917,2.459,2.618,2.618,0,0,0-.282.056.485.485,0,0,0-.462.575c.026,1.461.02,2.922,0,4.383,0,.322.091.463.413.533.677.147,1.34.353,2.015.509a.911.911,0,0,1,.605.518,2.811,2.811,0,0,1-.28,3.728c-.079.086-.112.212-.185.306a.471.471,0,0,0,.07.733q1.57,1.528,3.1,3.1a.489.489,0,0,0,.733.079c.542-.349,1.118-.647,1.656-1a1.1,1.1,0,0,1,.977-.057,2.775,2.775,0,0,1,2.323,2.776c.008.094.048.186.06.28.051.393.237.552.666.543,1.412-.029,2.826-.031,4.238,0,.436.01.586-.165.668-.542.139-.63.323-1.25.458-1.88.068-.318.267-.433.524-.6a2.874,2.874,0,0,1,3.787.321c.072.062.17.091.243.151.271.222.475.186.728-.074q1.526-1.572,3.1-3.1a.486.486,0,0,0,.08-.732c-.376-.582-.706-1.194-1.078-1.778a.829.829,0,0,1-.04-.723,2.952,2.952,0,0,1,2.976-2.481c.094-.007.184-.055.277-.069.324-.047.407-.238.4-.55C-4755.039,740.429-4755.042,738.968-4755.023,737.507Zm-14.266,11.676a9.518,9.518,0,0,1-9.491-9.506,9.554,9.554,0,0,1,9.521-9.492,9.514,9.514,0,0,1,9.474,9.521A9.483,9.483,0,0,1-4769.289,749.184Z" transform="translate(4783.542 -725.412)" fill="#fbd670"/>
        <path id="Trazado_168787" data-name="Trazado 168787" d="M-4747.426,754.468a7.1,7.1,0,0,0-7.111,7.111,7.136,7.136,0,0,0,7.113,7.126,7.163,7.163,0,0,0,7.124-7.127A7.129,7.129,0,0,0-4747.426,754.468Zm.031,11.845a4.754,4.754,0,0,1-4.786-4.7,4.8,4.8,0,0,1,4.724-4.785,4.748,4.748,0,0,1,4.764,4.723A4.706,4.706,0,0,1-4747.4,766.313Z" transform="translate(4761.696 -747.297)" fill="#fee9a6"/>
      </g>
    </g>
  </g>
</svg>
