<svg xmlns="http://www.w3.org/2000/svg" width="124" height="124" viewBox="0 0 124 124">
  <g id="Grupo_120576" data-name="Grupo 120576" transform="translate(-895.5 -4365.018)">
    <g id="Elipse_6813" data-name="Elipse 6813" transform="translate(895.5 4365.018)" fill="#fff" stroke="#2631a0" stroke-width="4">
      <circle cx="62" cy="62" r="62" stroke="none"/>
      <circle cx="62" cy="62" r="60" fill="none"/>
    </g>
    <g id="Grupo_119076" data-name="Grupo 119076" transform="translate(7007.006 3043.378)">
      <path id="Trazado_168534" data-name="Trazado 168534" d="M-5824.516,1559.522a4.246,4.246,0,0,1,1.411.193,1.728,1.728,0,0,1,.974,1.693c0,1.49.028,2.98-.016,4.469-.016.562.175.755.7.921a14.465,14.465,0,0,1,10.138,13.65,14.511,14.511,0,0,1-12.237,14.383c-.171.025-.384-.05-.5.165h-1.437a15.658,15.658,0,0,1-5.135-2.091,14.233,14.233,0,0,1-6.737-12,14.3,14.3,0,0,1,5.357-11.682,10.375,10.375,0,0,1,3.317-2.034,2.663,2.663,0,0,0,2.043-3.131,15.5,15.5,0,0,1,0-2.55,1.932,1.932,0,0,1,.733-1.641,10.2,10.2,0,0,1-1.591.026c-.265-.015-.611.081-.724-.314.383-.415.886-.242,1.347-.277C-5826.081,1559.35-5825.267,1559.093-5824.516,1559.522Z" transform="translate(-195.699 -169.691)" fill="#736572"/>
      <path id="Trazado_168535" data-name="Trazado 168535" d="M-5839.42,1561.215h2.672a2.681,2.681,0,0,0-.9,2.332c.026.983-.009,1.968.01,2.952a1.894,1.894,0,0,1-1.211,1.952,16.328,16.328,0,0,0-5.78,3.973,13.886,13.886,0,0,0-3.536,7.173,14.121,14.121,0,0,0,1.186,8.755,14.16,14.16,0,0,0,6.1,6.395,13.662,13.662,0,0,0,3.473,1.358c.267.061.6.085.726.421h-2.236a3.466,3.466,0,0,0-1.412-.4,14.373,14.373,0,0,1-10-8.6c-.084-.194-.175-.385-.263-.578a1.941,1.941,0,0,1-.514-1.058,14.616,14.616,0,0,1,9.405-17.643,1.22,1.22,0,0,0,.98-1.381c-.046-1.408-.043-2.819,0-4.228C-5840.7,1561.711-5840.219,1561.223-5839.42,1561.215Z" transform="translate(-184.488 -171.222)" fill="#605560"/>
      <path id="Trazado_168536" data-name="Trazado 168536" d="M-6003.1,1438.33l-.011,6.564a1.624,1.624,0,0,1-.621.6,7.4,7.4,0,0,0-3.62,6.679c0,2.526-.016,5.051.008,7.577a3.867,3.867,0,0,1-1.012,2.767,5.022,5.022,0,0,0-1.391,3.786,3.914,3.914,0,0,1-2.148,3.856,17.078,17.078,0,0,0-8.471,12.584,16.824,16.824,0,0,0,.262,6.4c.07.3.228.607.078.932l-39.94-.006c-1.93-.464-2.8-1.612-2.8-3.758q-.01-16.611,0-33.221,0-6.708,0-13.416a2.041,2.041,0,0,1,.245-1.384,1.778,1.778,0,0,1,1.151-.226q28.567-.007,57.133,0A1.546,1.546,0,0,1-6003.1,1438.33Z" transform="translate(-18.404 -74.36)" fill="#d6e5ef"/>
      <path id="Trazado_168537" data-name="Trazado 168537" d="M-6011.069,1388.125q-10.33.006-20.661.012-18.866,0-37.732,0c-.344,0-.688.032-1.032.049a.615.615,0,0,1-.158-.249,10.064,10.064,0,0,1-.07-1.985c-.007-2.681,0-5.363,0-8.044a3.819,3.819,0,0,1,1.067-2.825,1.606,1.606,0,0,1,1.017-.572,20.483,20.483,0,0,1-3.539.1.837.837,0,0,1-.726-.25,1.175,1.175,0,0,1,.769-.126q5.532,0,11.063.018c.283.242.227.578.233.889.014.664.026,1.329,0,1.991a3.238,3.238,0,0,0,4.377,3.3,3.242,3.242,0,0,0,2.053-3.209c.009-.69-.007-1.381.006-2.072.006-.311-.049-.647.231-.891h21.55c.292.309.2.7.211,1.06a24.457,24.457,0,0,0,.127,2.54,3.181,3.181,0,0,0,4.261,2.571,3.013,3.013,0,0,0,2.051-3.165c-.031-.716-.021-1.435,0-2.152.011-.334-.037-.715.39-.872,3.563,0,7.127.042,10.69-.014a3.552,3.552,0,0,1,3.86,3.838C-6011.138,1381.421-6011.065,1384.774-6011.069,1388.125Z" transform="translate(-10.431 -24.155)" fill="#fe7e91"/>
      <path id="Trazado_168538" data-name="Trazado 168538" d="M-6080.925,1438.231q.007,14.81.012,29.62c0,5.961.054,11.923-.029,17.884-.028,2.042.681,3.423,2.576,4.177-1.437,0-2.875.015-4.312.009a3.352,3.352,0,0,1-3.487-3.375c-.008-.186,0-.372,0-.559q0-23.4,0-46.794c0-.345.031-.69.047-1.034a11.419,11.419,0,0,1,5.2,0Z" transform="translate(0 -74.198)" fill="#a4c2db"/>
      <path id="Trazado_168539" data-name="Trazado 168539" d="M-5865.23,1515.244a15.485,15.485,0,0,1-.688-5.855,18.635,18.635,0,0,1,1.323-5.856,17.262,17.262,0,0,1,3.2-5,18.71,18.71,0,0,1,4.58-3.64,3.035,3.035,0,0,0,1.64-2.965,5.877,5.877,0,0,1,1.721-4.7,2.734,2.734,0,0,0,.691-1.984c-.01-2.633,0-5.266,0-7.9a7.638,7.638,0,0,1,4.459-7.289c.006,1.029.007,2.059.022,3.088,0,.254-.085.534.141.749a.863.863,0,0,1-.271.717,4.088,4.088,0,0,0-.755,2.543q.018,5.491,0,10.982a1.6,1.6,0,0,1-.253,1.211c-.421.1-.885-.119-1.282.17a1.5,1.5,0,0,0-1.132,1.615c.006,1.543-.016,3.086.01,4.628.008.483-.162.675-.623.834-5.908,2.046-9.332,6.175-10.168,12.374a14.581,14.581,0,0,0,.733,6.284Z" transform="translate(-173.197 -99.524)" fill="#a4c2db"/>
      <path id="Trazado_168540" data-name="Trazado 168540" d="M-6080.836,1388.6h-5.2c-.008-3.5-.053-7-.011-10.5a3.152,3.152,0,0,1,2.791-3.246h4.655a3.656,3.656,0,0,0-2.154,2.6,5.318,5.318,0,0,0-.072.867Q-6080.837,1383.461-6080.836,1388.6Z" transform="translate(-0.084 -24.644)" fill="#fe5f7a"/>
      <path id="Trazado_168541" data-name="Trazado 168541" d="M-5788.546,1498.682c0-3.95.038-7.9-.013-11.848a4.665,4.665,0,0,1,1.291-3.606,4.516,4.516,0,0,1,3.479-1.284,18.225,18.225,0,0,1,3.492.133,4.328,4.328,0,0,1,3.431,4.225c.012,1.089-.006,2.178-.01,3.267a.286.286,0,0,1-.364-.007c-.681-.48-1.351-.043-2.025.011-.005-1.009,0-2.018-.02-3.026a1.948,1.948,0,0,0-2.1-2.079q-1.354-.014-2.708,0a1.925,1.925,0,0,0-2.048,2.116c-.009,4.035,0,8.07,0,12.106Z" transform="translate(-234.079 -108.859)" fill="#7ad6ed"/>
      <path id="Trazado_168542" data-name="Trazado 168542" d="M-6001.5,1350.76c-.006,1.091,0,2.182-.02,3.273a3.329,3.329,0,0,1-2.227,3.086,2.821,2.821,0,0,1-2.115-2.673c-.088-2.47-.116-4.946.011-7.413a3.026,3.026,0,0,1,2.077-2.686,3.678,3.678,0,0,1,2.267,3.953C-6001.556,1349.117-6001.509,1349.94-6001.5,1350.76Z" transform="translate(-63.102 -0.649)" fill="#d6e5ef"/>
      <path id="Trazado_168543" data-name="Trazado 168543" d="M-5868.151,1350.7a13.829,13.829,0,0,0-.144,3.294,3.216,3.216,0,0,1-2.248,3.1,3.165,3.165,0,0,1-2.138-2.889c-.079-2.286-.1-4.579.008-6.862a3.3,3.3,0,0,1,2.1-3.047,3.472,3.472,0,0,1,2.27,3.529A7.054,7.054,0,0,0-5868.151,1350.7Z" transform="translate(-167.861 -0.61)" fill="#d6e5ef"/>
      <path id="Trazado_168544" data-name="Trazado 168544" d="M-5756.8,1515.91a1.683,1.683,0,0,1,2.389,0,3.612,3.612,0,0,0,2.371,2.577,1.285,1.285,0,0,1,.826,1.413,1.341,1.341,0,0,1-.962,1.326,2.811,2.811,0,0,0-1.992,1.984,1.384,1.384,0,0,1-1.469,1,1.4,1.4,0,0,1-1.389-1,2.858,2.858,0,0,0-2-1.988,1.368,1.368,0,0,1-.97-1.328,1.271,1.271,0,0,1,.83-1.409A3.544,3.544,0,0,0-5756.8,1515.91Z" transform="translate(-256.542 -135.196)" fill="#fecf5b"/>
      <path id="Trazado_168545" data-name="Trazado 168545" d="M-6012.889,1343.7c-.271.245-.546.485-.813.734a3.2,3.2,0,0,0-1.1,2.532c.041,1.884.082,3.772-.009,5.653a3.782,3.782,0,0,0,1.949,3.853,3.392,3.392,0,0,1-4.638-3.187c.005-1.06-.011-2.121-.017-3.181.006-.872.077-1.749.006-2.614A3.519,3.519,0,0,1-6012.889,1343.7Z" transform="translate(-53.991)" fill="#a4c2db"/>
      <path id="Trazado_168546" data-name="Trazado 168546" d="M-5879.584,1343.747c0,.184-.111.276-.259.362a3.32,3.32,0,0,0-1.644,3.06c-.021,1.724.074,3.453-.027,5.172a4.258,4.258,0,0,0,1.962,4.2c-2.428.847-4.55-.795-4.625-3.589-.025-.928-.02-1.857-.027-2.785.094-1.16-.066-2.323.12-3.487A3.418,3.418,0,0,1-5879.584,1343.747Z" transform="translate(-158.852 -0.06)" fill="#a4c2db"/>
      <path id="Trazado_168547" data-name="Trazado 168547" d="M-5807.141,1626.112a8.951,8.951,0,0,1-8.949,9,9.053,9.053,0,0,1-8.954-8.953,8.926,8.926,0,0,1,8.986-8.952A8.843,8.843,0,0,1-5807.141,1626.112Z" transform="translate(-205.383 -215.261)" fill="#fecf5b"/>
      <path id="Trazado_168548" data-name="Trazado 168548" d="M-5916.074,1607.809c-2.661.16-3.53-.5-3.364-3.341.026-.451-.007-.9.007-1.356a2,2,0,0,1,2.03-2.107c.9-.036,1.809-.037,2.712,0a1.929,1.929,0,0,1,2.01,1.865,17.969,17.969,0,0,1,.007,3.024,1.958,1.958,0,0,1-2.126,1.914C-5915.223,1607.818-5915.648,1607.809-5916.074,1607.809Z" transform="translate(-131.124 -202.496)" fill="#736572"/>
      <path id="Trazado_168549" data-name="Trazado 168549" d="M-6036.972,1604.426c0,.425.01.851,0,1.276a1.957,1.957,0,0,1-1.958,2.076,27.508,27.508,0,0,1-2.87,0,1.933,1.933,0,0,1-1.91-2.035q-.026-1.355,0-2.711a1.927,1.927,0,0,1,1.914-2.033,26.31,26.31,0,0,1,2.869,0,1.955,1.955,0,0,1,1.955,2.079C-6036.962,1603.522-6036.972,1603.974-6036.972,1604.426Z" transform="translate(-33.384 -202.477)" fill="#736572"/>
      <path id="Trazado_168550" data-name="Trazado 168550" d="M-5915.939,1488.486c.451,0,.9-.012,1.354,0a1.823,1.823,0,0,1,1.938,1.724,12.269,12.269,0,0,1-.025,3.415,1.82,1.82,0,0,1-1.738,1.587c-1.035.045-2.074.046-3.108,0a1.952,1.952,0,0,1-1.866-2.006q-.038-1.354,0-2.711a1.937,1.937,0,0,1,2.01-2.012C-5916.9,1488.474-5916.418,1488.486-5915.939,1488.486Z" transform="translate(-131.166 -114.015)" fill="#736572"/>
      <path id="Trazado_168551" data-name="Trazado 168551" d="M-5853.773,1488.487c.425,0,.851-.008,1.275,0a1.962,1.962,0,0,1,2.089,2.025c.039.9.041,1.809,0,2.711a1.979,1.979,0,0,1-2.118,2.008q-1.276.018-2.552,0a2,2,0,0,1-2.132-2.078c-.03-.85-.026-1.7,0-2.552a1.989,1.989,0,0,1,2.164-2.114C-5854.624,1488.481-5854.2,1488.486-5853.773,1488.487Z" transform="translate(-180.065 -114.017)" fill="#736572"/>
      <path id="Trazado_168552" data-name="Trazado 168552" d="M-5853.842,1551.5c-.426,0-.851.009-1.276,0a1.966,1.966,0,0,1-2.105-2.01c-.042-.9-.039-1.808,0-2.71a1.978,1.978,0,0,1,2.1-2.025c.876-.015,1.754-.016,2.631,0a1.965,1.965,0,0,1,2.063,1.978c.046.928.047,1.862,0,2.79a1.955,1.955,0,0,1-2.058,1.975C-5852.938,1551.508-5853.391,1551.5-5853.842,1551.5Z" transform="translate(-180.049 -158.263)" fill="#736572"/>
      <path id="Trazado_168553" data-name="Trazado 168553" d="M-5974.791,1604.47c0,.425.009.851,0,1.276a1.954,1.954,0,0,1-1.964,2.067c-.928.045-1.861.041-2.79,0a1.964,1.964,0,0,1-1.988-2.052c-.018-.877-.015-1.754,0-2.631a1.988,1.988,0,0,1,2.093-2.114q1.274-.039,2.551,0a1.992,1.992,0,0,1,2.1,2.178C-5974.784,1603.619-5974.79,1604.045-5974.791,1604.47Z" transform="translate(-82.288 -202.512)" fill="#736572"/>
      <path id="Trazado_168554" data-name="Trazado 168554" d="M-5916.009,1551.476c-.479,0-.958.017-1.435,0a1.926,1.926,0,0,1-1.953-1.906c-.041-.981-.042-1.968,0-2.949a1.934,1.934,0,0,1,1.91-1.877c.982-.034,1.967-.031,2.949,0a1.848,1.848,0,0,1,1.854,1.644,12.837,12.837,0,0,1,.038,3.258,1.877,1.877,0,0,1-2.089,1.837c-.425.01-.851,0-1.275,0Z" transform="translate(-131.147 -158.246)" fill="#736572"/>
      <path id="Trazado_168555" data-name="Trazado 168555" d="M-5978.125,1488.509c.532,0,1.065-.031,1.593.007a1.773,1.773,0,0,1,1.692,1.7c.046,1.087.05,2.179,0,3.266a1.83,1.83,0,0,1-1.838,1.747c-1.008.04-2.021.042-3.027,0a1.912,1.912,0,0,1-1.841-1.852c-.04-1.008-.038-2.02,0-3.028a1.857,1.857,0,0,1,1.83-1.839c.53-.028,1.062,0,1.593,0Z" transform="translate(-82.267 -114.024)" fill="#736572"/>
      <path id="Trazado_168556" data-name="Trazado 168556" d="M-5974.817,1548.18c0,.478.02.957,0,1.434a1.812,1.812,0,0,1-1.8,1.849c-1.035.039-2.073.041-3.107,0a1.848,1.848,0,0,1-1.817-1.853q-.051-1.473,0-2.948a1.918,1.918,0,0,1,1.94-1.92c.928-.03,1.859-.026,2.789,0a1.912,1.912,0,0,1,2.006,2.007c.016.478,0,.956,0,1.435Z" transform="translate(-82.269 -158.249)" fill="#736572"/>
      <path id="Trazado_168557" data-name="Trazado 168557" d="M-6036.981,1491.78c0,.5.018,1.01,0,1.514a1.914,1.914,0,0,1-1.868,1.9c-.981.04-1.966.036-2.947,0a1.914,1.914,0,0,1-1.913-1.939q-.037-1.433,0-2.868a1.859,1.859,0,0,1,1.906-1.922c.928-.027,1.859-.022,2.788-.005a1.9,1.9,0,0,1,2.041,2.04c.01.425,0,.85,0,1.275Z" transform="translate(-33.378 -113.991)" fill="#736572"/>
      <path id="Trazado_168558" data-name="Trazado 168558" d="M-6040.285,1551.473c-.5,0-1.01.019-1.514,0a1.871,1.871,0,0,1-1.914-1.92c-.026-.956-.024-1.913,0-2.868a1.909,1.909,0,0,1,1.906-1.942c.955-.034,1.912-.031,2.868,0a1.921,1.921,0,0,1,1.957,1.977c.022.9.019,1.806,0,2.708a1.913,1.913,0,0,1-2.032,2.054c-.424.013-.849,0-1.274,0Z" transform="translate(-33.379 -158.243)" fill="#736572"/>
      <path id="Trazado_168559" data-name="Trazado 168559" d="M-5796.7,1635.819c0,.665.012,1.33,0,1.995a1.232,1.232,0,0,1-1.365,1.389c-.877.016-1.755.019-2.632,0-.842-.02-1.282-.448-1.286-1.2a1.2,1.2,0,0,1,1.28-1.229c1.571-.089,1.57-.089,1.571-1.678,0-.532-.016-1.065.009-1.6a1.125,1.125,0,0,1,1.193-1.206,1.2,1.2,0,0,1,1.222,1.209c.033.77.008,1.542.008,2.314Z" transform="translate(-223.515 -227.13)" fill="#736572"/>
    </g>
  </g>
</svg>
