<svg xmlns="http://www.w3.org/2000/svg" width="138" height="138" viewBox="0 0 138 138">
  <g id="Grupo_120534" data-name="Grupo 120534" transform="translate(-381 -820.962)">
    <g id="Elipse_6016" data-name="Elipse 6016" transform="translate(381 820.962)" fill="#fff" stroke="#2631a0" stroke-width="4">
      <circle cx="69" cy="69" r="69" stroke="none"/>
      <circle cx="69" cy="69" r="67" fill="none"/>
    </g>
    <g id="Grupo_118945" data-name="Grupo 118945" transform="translate(7749.433 1215.014)">
      <path id="Trazado_168173" data-name="Trazado 168173" d="M-7149.235-290.929v4.465c-.158.28-.47.292-.72.413a1.974,1.974,0,0,0-1.309,1.786,1.973,1.973,0,0,0,1.307,1.787c.25.121.562.133.721.412l0,4.692c-2,.779-2.147,2.412-2.062,4.243.087,1.869.033,3.746.015,5.619-.019,1.941-.644,2.578-2.617,2.6-3.062.03-6.125.008-9.187.009q-7.62,0-15.24,0a7.063,7.063,0,0,1-1.508-.083,1.7,1.7,0,0,1-1.481-1.619c-.036-.4-.032-.792-.033-1.188q0-14.537,0-29.074c0-.324-.007-.649.018-.972a1.671,1.671,0,0,1,1.545-1.779,13.19,13.19,0,0,1,3.34-.055.95.95,0,0,1,.922,1.006c.06.756.024,1.512.034,2.269a8.472,8.472,0,0,0,.09,1.508,1.9,1.9,0,0,0,1.86,1.764,1.954,1.954,0,0,0,1.867-1.889,26.654,26.654,0,0,0,.053-2.808c.024-1.673.22-1.889,1.854-1.9,2.377-.014,4.756-.025,7.133.005,1.338.017,1.577.269,1.618,1.584.033,1.008-.035,2.019.033,3.025.085,1.252.785,1.981,1.849,1.983s1.722-.746,1.768-2.019c.037-1.008-.021-2.018.027-3.026.055-1.154.375-1.484,1.5-1.541a17.6,17.6,0,0,1,2.484.016,1.959,1.959,0,0,1,2.06,2.149c.048,1.116.051,2.235.007,3.35-.056,1.388.27,2.5,1.741,2.983A.636.636,0,0,1-7149.235-290.929Z" transform="translate(-135.774 -63.638)" fill="#78cfa8"/>
      <path id="Trazado_168174" data-name="Trazado 168174" d="M-7164.307-354.567c-1.734-.191-2.335-.844-2.348-2.578-.01-1.4.012-2.81-.008-4.214a1.413,1.413,0,0,0-1.582-1.615c-1.043-.037-2.089.01-3.133-.016-.524-.013-.687.2-.678.7q.034,1.836,0,3.673a2.066,2.066,0,0,1-2.106,2.238,2.116,2.116,0,0,1-2.24-2.234c-.027-1.188-.031-2.378,0-3.565.017-.576-.106-.831-.762-.824q-4.213.051-8.428,0c-.7-.009-.852.255-.828.883.041,1.079.024,2.161.008,3.241-.024,1.579-.855,2.506-2.212,2.5s-2.165-.912-2.194-2.515c-.021-1.116-.025-2.234,0-3.349.015-.553-.168-.777-.741-.754-.9.036-1.8,0-2.7.011-1.5.016-1.924.435-1.926,1.936q-.01,8.428,0,16.856,0,6.645,0,13.29c0,1.569.409,1.966,2,1.967q12.75,0,25.5,0c1.638,0,2.024-.393,2.027-2.04,0-2.485-.006-4.97,0-7.456.007-1.73.606-2.378,2.346-2.585,1.609.4,2.025.9,2.035,2.547.016,2.593.023,5.186,0,7.778a5.762,5.762,0,0,1-6.168,6.123q-12.964.008-25.927,0a5.8,5.8,0,0,1-6.216-6.2q-.012-15.178,0-30.357a5.805,5.805,0,0,1,6.2-6.217c.937,0,1.875-.037,2.809.013.612.032.777-.162.781-.775a23.523,23.523,0,0,1,.3-5.8,9.411,9.411,0,0,1,10.059-7.029,9.371,9.371,0,0,1,8.365,8.968c.041,1.223.062,2.45.005,3.672-.033.731.134,1.031.929.973,1-.072,2.015-.027,3.023-.016a5.7,5.7,0,0,1,5.815,5.587c.073,1.581.042,3.168.021,4.752C-7162.295-355.452-7162.754-354.929-7164.307-354.567Z" transform="translate(-120.703)" fill="#019974"/>
      <path id="Trazado_168175" data-name="Trazado 168175" d="M-6985.18-287.405a2.1,2.1,0,0,1-2.043-1.468,1.907,1.907,0,0,1,.655-2.406c1.812-1.15,3.678-2.223,5.576-3.224a1.966,1.966,0,0,1,2.574.943,1.9,1.9,0,0,1-.385,2.7c-1.838,1.174-3.757,2.221-5.656,3.3A2.216,2.216,0,0,1-6985.18-287.405Z" transform="translate(-287.711 -67.6)" fill="#019974"/>
      <path id="Trazado_168176" data-name="Trazado 168176" d="M-7273.645-294.519a2.588,2.588,0,0,1,1.321.411c1.521.883,3.052,1.748,4.561,2.651a2.053,2.053,0,0,1,.909,3.077,2.054,2.054,0,0,1-3.064.708c-1.627-.913-3.237-1.859-4.847-2.8a1.978,1.978,0,0,1-.929-2.413A2.209,2.209,0,0,1-7273.645-294.519Z" transform="translate(-61.796 -67.741)" fill="#019974"/>
      <path id="Trazado_168177" data-name="Trazado 168177" d="M-7268.769-189.036a2.268,2.268,0,0,1,2.041,1.554,1.781,1.781,0,0,1-.611,2.309c-1.852,1.163-3.753,2.256-5.687,3.277a1.934,1.934,0,0,1-2.484-.941,1.955,1.955,0,0,1,.21-2.571,38.035,38.035,0,0,1,6.139-3.54A1.807,1.807,0,0,1-7268.769-189.036Z" transform="translate(-61.724 -150.368)" fill="#019974"/>
      <path id="Trazado_168178" data-name="Trazado 168178" d="M-6985.174-189.006a2.882,2.882,0,0,1,1.193.371c1.585.917,3.182,1.816,4.752,2.758a2.037,2.037,0,0,1,.868,3.013,2.063,2.063,0,0,1-3.052.748c-1.63-.91-3.245-1.85-4.852-2.8a1.929,1.929,0,0,1-.961-2.395A2.248,2.248,0,0,1-6985.174-189.006Z" transform="translate(-287.75 -150.392)" fill="#019974"/>
      <path id="Trazado_168179" data-name="Trazado 168179" d="M-6983.894-235.383c.971,0,1.942-.023,2.912.006a2.028,2.028,0,0,1,2.071,2.14,2.045,2.045,0,0,1-2.04,2.186q-2.964.061-5.931,0a2.06,2.06,0,0,1-2.023-2.207,2.039,2.039,0,0,1,2.1-2.118C-6985.836-235.4-6984.864-235.383-6983.894-235.383Z" transform="translate(-286.521 -114.057)" fill="#019974"/>
      <path id="Trazado_168180" data-name="Trazado 168180" d="M-7272.439-235.384c.971,0,1.942-.024,2.912.007a1.979,1.979,0,0,1,2.039,2.15,2,2,0,0,1-2.026,2.176c-1.941.041-3.883.037-5.824,0a2.069,2.069,0,0,1-2.121-2.221,2.041,2.041,0,0,1,2.108-2.111C-7274.381-235.407-7273.41-235.385-7272.439-235.384Z" transform="translate(-60.49 -114.055)" fill="#019974"/>
      <path id="Trazado_168181" data-name="Trazado 168181" d="M-7041.6-234.011c-1.452-.173-2.338-1-2.342-2.19,0-1.162.884-2,2.343-2.207,1.352.348,1.982,1.02,2.013,2.145C-7039.556-235.1-7040.182-234.4-7041.6-234.011Z" transform="translate(-243.41 -111.694)" fill="#fff"/>
      <path id="Trazado_168182" data-name="Trazado 168182" d="M-7133.839-222.062c-1.3,0-2.593.024-3.889-.006a2.043,2.043,0,0,1-2.164-2.173,2.017,2.017,0,0,1,2.158-2.165q3.888-.037,7.777,0a2.031,2.031,0,0,1,2.129,2.1,2.082,2.082,0,0,1-2.123,2.231C-7131.246-222.033-7132.543-222.063-7133.839-222.062Z" transform="translate(-168.25 -121.081)" fill="#fff"/>
      <path id="Trazado_168183" data-name="Trazado 168183" d="M-7130.243-351.491c-1.4,0-2.808-.017-4.211.009-.515.01-.779-.067-.752-.687.055-1.294-.018-2.592.039-3.886a4.974,4.974,0,0,1,4.966-4.707,5.021,5.021,0,0,1,4.979,4.6c.083,1.363,0,2.735.04,4.1.014.506-.2.586-.633.58C-7127.292-351.5-7128.768-351.491-7130.243-351.491Z" transform="translate(-171.918 -15.851)" fill="#78cfa8"/>
      <g id="Grupo_118944" data-name="Grupo 118944" transform="translate(-7354.681 -328.126)">
        <path id="Trazado_168184" data-name="Trazado 168184" d="M-7290.412-124.939a16.6,16.6,0,0,0-5.966,1.66,20.666,20.666,0,0,1-9.9,1.931,46.807,46.807,0,0,0-8.6.159c-2.153.3-4.388,2.9-4.144,4.787a4.9,4.9,0,0,1,2.2,2.281,3.23,3.23,0,0,0,3.185,1.59q5.516-.006,11.031,0,5.453,0,10.906,0a4.882,4.882,0,0,1,1.856.213,1.549,1.549,0,0,1,1.177,1.459,1.566,1.566,0,0,1-1.281,1.507,4.593,4.593,0,0,1-1.368.126q-12.033,0-24.067.009a5.978,5.978,0,0,1-3.089-.863q-16.537-9.586-33.083-19.154a3.914,3.914,0,0,0-1.579-.724c-2.291,1.887-1.932,6.049.367,7.842q13.739,10.722,27.489,21.43c2.267,1.766,4.515,3.557,6.813,5.281a12.093,12.093,0,0,0,7.5,2.342q12.537-.02,25.074-.021a2.1,2.1,0,0,0,1.1-.789q5.99-5.977,11.966-11.966c1.9-1.906,2.079-3.727.635-5.972a30.854,30.854,0,0,0-12.752-11.7C-7286.658-124.321-7288.387-125.244-7290.412-124.939Z" transform="translate(7354.681 131.48)" fill="#fecdbe"/>
        <path id="Trazado_168185" data-name="Trazado 168185" d="M-7000.923,6.4c.329-.373.64-.766.991-1.117,7.958-7.966,15.893-15.956,23.91-23.862a4.089,4.089,0,0,0,.254-5.683c-1.622-1.73-3.375-3.337-5.07-5-.617-.133-.894.369-1.227.7Q-6995.048-15.593-7008-2.605c-.367.368-1.041.682-.635,1.428Z" transform="translate(7083.715 52.614)" fill="#548db4"/>
        <path id="Trazado_168186" data-name="Trazado 168186" d="M-7347.534-135.462a11.238,11.238,0,0,0,2.921,1.859q11.781,6.825,23.558,13.656c2.808,1.63,5.6,3.28,8.408,4.918a4.6,4.6,0,0,0,2.375.66q12.529-.017,25.058-.009c1.643,0,2.682-.82,2.638-2.047-.038-1.068-1.187-1.951-2.654-1.953-7.559-.012-15.118-.027-22.677.011a3.179,3.179,0,0,1-3.423-2.131,1.877,1.877,0,0,0-2.088-1.408c-.562.481.26,1.021-.151,1.63-1.7-.958-3.418-1.914-5.124-2.9-3.718-2.142-7.427-4.3-11.144-6.443a1.456,1.456,0,0,1-.651-.559,61.227,61.227,0,0,1-6.318-3.483c-1.61-.868-3.154-1.863-4.777-2.706A4.9,4.9,0,0,0-7347.534-135.462Z" transform="translate(7349.083 136.985)" fill="#feaf9d"/>
        <path id="Trazado_168187" data-name="Trazado 168187" d="M-7055.171-108.993a8.984,8.984,0,0,0-2.9.47,21.078,21.078,0,0,1,9.319,4.011,32.643,32.643,0,0,1,8.7,9.365c1.28,2.041,1.157,3.7-.542,5.4q-6.021,6.03-12.046,12.054c-.322.323-.607.682-.91,1.024l-.005.062c2.539.191,5.084-.04,7.623.123a1.517,1.517,0,0,0,1.17-.628q6.918-6.891,13.807-13.813c.338-.34.782-.681.533-1.285a34.331,34.331,0,0,0-7.2-9.532C-7043.981-107.183-7051.239-109.142-7055.171-108.993Z" transform="translate(7122.334 115.064)" fill="#feaf9d"/>
        <path id="Trazado_168188" data-name="Trazado 168188" d="M-7018.233-19.852c-.06-.454.3-.664.556-.921q13.421-13.432,26.85-26.856a3.552,3.552,0,0,1,.4-.3l.535-.733c-.91-.159-1.271-1.01-1.9-1.522a12.3,12.3,0,0,1-.885-.874c-2.677-2.677-2.677-2.677-5.515-.379-.138.616.367.886.693,1.23,1.5,1.579,1.5,2.045-.066,3.612q-7.783,7.792-15.574,15.577-3.5,3.5-6.987,6.995c-.346.348-.786.639-.882,1.179Z" transform="translate(7093.31 71.289)" fill="#d7ebfd"/>
        <path id="Trazado_168189" data-name="Trazado 168189" d="M-7033.714-16.774c.342-.3.7-.588,1.023-.91q11.384-11.375,22.761-22.757c1.6-1.6,1.6-2.218.024-3.809-.35-.353-.663-.743-.993-1.115-1.022,1.049-1.839,2.316-3.2,3.006a2.273,2.273,0,0,1-.811,1.084q-6.854,6.862-13.7,13.727a2.361,2.361,0,0,1-1.863.78c-2.251-.036-4.5,0-6.755.012,1.383.424,2.8.124,4.2.19,1.026.048,2.056.01,3.5.01-1.723,1.7-3.192,3.143-4.65,4.6-2.4,2.4-2.393,2.694.148,4.988A2.122,2.122,0,0,0-7033.714-16.774Z" transform="translate(7106.011 65.217)" fill="#f4fbfe"/>
      </g>
    </g>
  </g>
</svg>
