<svg xmlns="http://www.w3.org/2000/svg" width="124" height="124" viewBox="0 0 124 124">
  <g id="Grupo_120574" data-name="Grupo 120574" transform="translate(-265.5 -4365.018)">
    <g id="Elipse_6016" data-name="Elipse 6016" transform="translate(265.5 4365.018)" fill="#fff" stroke="#2631a0" stroke-width="4">
      <circle cx="62" cy="62" r="62" stroke="none"/>
      <circle cx="62" cy="62" r="60" fill="none"/>
    </g>
    <g id="Grupo_119073" data-name="Grupo 119073" transform="translate(6562.438 1824.191)">
      <path id="Trazado_168495" data-name="Trazado 168495" d="M-6187.3,2549.96a12.361,12.361,0,0,1,5.16,2.417,9.928,9.928,0,0,1,.54,14.664,9.468,9.468,0,0,1-9.984,2.424,9.653,9.653,0,0,1-6.857-7.782,10.024,10.024,0,0,1,7.919-11.535,5.633,5.633,0,0,0,.6-.187Z" transform="translate(-45.728)" fill="#fecdbe"/>
      <path id="Trazado_168496" data-name="Trazado 168496" d="M-6209.662,2658.186c0-3.77.018-7.541-.021-11.31a3.073,3.073,0,0,0-.47-1.542c-1.778-2.78-3.625-5.517-5.4-8.3a3.085,3.085,0,0,1-.47-1.556q-.051-8.272-.016-16.544a8.842,8.842,0,0,1,6.711-8.9c.626-.185,1.269-.327,1.876-.561.924-.357,1.31.109,1.593.89q2.383,6.579,4.792,13.149a23.2,23.2,0,0,0,.957,2.527c.208.413.727.975,1.056.944a1.7,1.7,0,0,0,1.142-.968c1.912-5.095,3.761-10.214,5.626-15.327.544-1.491.681-1.558,2.168-1.106a12.527,12.527,0,0,1,5.25,2.51,8.066,8.066,0,0,1,2.821,5.81c.1,5.981.058,11.963.039,17.945a2.4,2.4,0,0,1-.457,1.189c-1.761,2.717-3.576,5.4-5.3,8.139a3.931,3.931,0,0,0-.578,1.974c-.04,7.415-.025,14.831-.025,22.246,0,1.485-.166,1.647-1.668,1.647h-18.04c-1.381,0-1.58-.194-1.581-1.546Q-6209.664,2663.841-6209.662,2658.186Z" transform="translate(-35.324 -35.429)" fill="#ff004c"/>
      <path id="Trazado_168497" data-name="Trazado 168497" d="M-6139.6,2694.552c0-1.989-.026-3.85.033-5.709.008-.232.428-.544.72-.659q7.419-2.925,14.856-5.806c.345-.135.684-.283,1.207-.5-1.268-.558-2.394-1.057-3.522-1.549a2.874,2.874,0,0,1-1.85-2.072,2.706,2.706,0,0,1,.831-2.724,2.678,2.678,0,0,1,2.866-.577c.7.26,1.373.585,2.057.884q3.889,1.7,7.777,3.4c2.049.9,2.6,2.331,1.71,4.38-1.345,3.078-2.7,6.15-4.042,9.23a3.068,3.068,0,0,1-2.239,2.048,2.786,2.786,0,0,1-3.2-3.711c.461-1.282,1.058-2.517,1.687-3.992Z" transform="translate(-80.94 -74.467)" fill="#febf10"/>
      <path id="Trazado_168498" data-name="Trazado 168498" d="M-6264.965,2747.425c1.391.621,2.619,1.131,3.812,1.713a2.742,2.742,0,0,1,1.591,3.073,2.719,2.719,0,0,1-2.494,2.274,3.556,3.556,0,0,1-1.62-.3q-4.845-2.074-9.654-4.229a2.813,2.813,0,0,1-1.585-4.058q2.092-4.838,4.239-9.65a2.835,2.835,0,0,1,3.815-1.67,2.857,2.857,0,0,1,1.38,3.931c-.476,1.138-.984,2.264-1.572,3.61l18.9-7.354c0,2.024.021,3.934-.034,5.841-.006.19-.463.426-.75.539q-7.551,2.971-15.112,5.914C-6264.282,2747.151-6264.512,2747.244-6264.965,2747.425Z" transform="translate(0 -110.009)" fill="#febf10"/>
      <path id="Trazado_168499" data-name="Trazado 168499" d="M-6123.5,2750.231l-12.032-5.288c-1.167-.512-2.341-1.009-3.5-1.543-.221-.1-.531-.344-.535-.528-.039-1.916-.024-3.833-.024-5.91l18.365,8.058c-.092-.346-.131-.569-.21-.778-.366-.958-.761-1.906-1.112-2.869a2.857,2.857,0,0,1,1.569-3.864,2.832,2.832,0,0,1,3.693,1.772c.546,1.321,1.047,2.66,1.567,3.992.759,1.94,1.528,3.874,2.271,5.82a2.866,2.866,0,0,1-1.75,4.078q-4.9,1.941-9.815,3.828a2.863,2.863,0,0,1-3.872-1.549,2.85,2.85,0,0,1,1.82-3.748c1.092-.448,2.2-.865,3.3-1.3A2.363,2.363,0,0,0-6123.5,2750.231Z" transform="translate(-80.95 -111.579)" fill="#febf10"/>
      <path id="Trazado_168500" data-name="Trazado 168500" d="M-6265.609,2684.171c.548,1.428,1.042,2.624,1.465,3.843a2.815,2.815,0,0,1-2.235,3.86,2.849,2.849,0,0,1-3.071-1.924c-.679-1.637-1.3-3.3-1.945-4.951-.634-1.622-1.28-3.24-1.9-4.868a2.865,2.865,0,0,1,1.766-4.073q4.86-1.923,9.737-3.8a2.861,2.861,0,0,1,3.945,1.534c.592,1.567-.17,3.061-1.936,3.77-1.123.451-2.253.886-3.542,1.392,1.726.763,3.305,1.462,4.886,2.159,3.5,1.542,7,3.1,10.516,4.606a1.115,1.115,0,0,1,.795,1.244c-.042,1.71-.015,3.421-.015,5.307Z" transform="translate(-0.998 -72.816)" fill="#febf10"/>
      <path id="Trazado_168501" data-name="Trazado 168501" d="M-6177.637,2609.244a11.951,11.951,0,0,1,1.4.009,1.176,1.176,0,0,1,.961,1.777.53.53,0,0,1-.09.162c-1.528,1.441-1.414,3.253-.946,5.012.567,2.127-.158,3.962-.938,5.823-.082.194-.321.322-.487.48-.156-.175-.375-.326-.456-.531-.381-.95-.741-1.91-1.067-2.88a2.263,2.263,0,0,1-.062-.908c.07-.742.143-1.487.284-2.217a5.206,5.206,0,0,0-.963-4.775c-.774-.9-.161-1.9,1.062-1.966.434-.024.87,0,1.305,0Z" transform="translate(-56.628 -35.358)"/>
    </g>
  </g>
</svg>
