<svg xmlns="http://www.w3.org/2000/svg" width="124" height="124" viewBox="0 0 124 124">
  <g id="Grupo_120577" data-name="Grupo 120577" transform="translate(-1210.5 -4365.018)">
    <g id="Elipse_6814" data-name="Elipse 6814" transform="translate(1210.5 4365.018)" fill="#fff" stroke="#2631a0" stroke-width="4">
      <circle cx="62" cy="62" r="62" stroke="none"/>
      <circle cx="62" cy="62" r="60" fill="none"/>
    </g>
    <g id="Grupo_119077" data-name="Grupo 119077" transform="translate(8156.756 3267.507)">
      <path id="Trazado_168560" data-name="Trazado 168560" d="M-6679.713,1300.987a12.011,12.011,0,0,0-3.383-6.5h0a3.51,3.51,0,0,0-.278-.338,12.679,12.679,0,0,0-11.309-3.531,12.969,12.969,0,0,0-9.307,18.819,12.035,12.035,0,0,0,4.37,4.8h0a4.747,4.747,0,0,0,.393.286,12.665,12.665,0,0,0,9.287,1.607A12.914,12.914,0,0,0-6679.713,1300.987Zm-3.662-.951c-1.026.863-2.042,1.739-3.059,2.613q-4.891,4.205-9.793,8.4a.88.88,0,0,1-1.244.024,4.358,4.358,0,0,1-.43-.4c-.915-.913-1.824-1.831-2.745-2.737-.134-.131-.251-.333-.474-.3-.018-.418-.415-.553-.641-.808-.576-.652-.592-.967.008-1.579.228-.232.47-.452.687-.694.169-.187.437-.3.47-.6,0-.011,0-.022,0-.033,1.119.426,1.753,1.436,2.6,2.193.268.24.5.513.768.758.394.367.562.372.974.04.6-.483,1.166-1,1.749-1.5q2.921-2.509,5.847-5.012c1.132-.967,2.252-1.946,3.4-2.9a.834.834,0,0,1,1.384.119c.223.26.455.515.671.781C-6682.633,1299.1-6682.667,1299.44-6683.375,1300.036Z" transform="translate(-166.388 -140.085)" fill="#4fb96f"/>
      <path id="Trazado_168561" data-name="Trazado 168561" d="M-6690.235,1330.829c-.3-.313-.612-.623-.913-.939a.866.866,0,0,1-.01-1.4,11.027,11.027,0,0,1,1.444-1.365,1.044,1.044,0,0,1,1.056.351c.835.852,1.692,1.683,2.523,2.539.217.222.346.236.589.026q5.5-4.735,11.012-9.452c.7-.6,1.091-.575,1.684.118.266.311.533.619.8.931a.9.9,0,0,1-.107,1.478q-2.877,2.481-5.768,4.948-3.573,3.063-7.147,6.125c-.808.694-1.086.683-1.854-.081Q-6688.582,1332.468-6690.235,1330.829Z" transform="translate(-177.271 -163.257)" fill="#fefefe"/>
      <path id="Trazado_168562" data-name="Trazado 168562" d="M-6840.267,1131.648a.884.884,0,0,0-.809-1.028q-1.708-.378-3.4-.836a1.222,1.222,0,0,1-.97-.656c-1.59-3.336-1.608-3.327.274-6.514.106-.18.208-.362.313-.542l.506-.881a3.583,3.583,0,0,0-.3-.414c-1.917-1.924-3.846-3.838-5.753-5.772-.356-.36-.629-.24-.982-.025-1.071.649-2.167,1.256-3.23,1.914a1.5,1.5,0,0,1-1.259.086c-2.828-.607-4.141-2.414-4.343-5.186-.006-.083-.038-.163-.05-.246-.1-.72-.435-1.019-1.237-1-2.381.063-4.767.084-7.146-.008-.95-.037-1.216.349-1.373,1.148-.192.98-.51,1.936-.721,2.913a1.975,1.975,0,0,1-1.1,1.329,4.857,4.857,0,0,1-6.395-.59c-.154-.135-.379-.188-.537-.319-.5-.415-.853-.248-1.269.176q-2.676,2.732-5.409,5.408a.788.788,0,0,0-.144,1.176c.657,1.015,1.213,2.095,1.867,3.112a1.558,1.558,0,0,1,.089,1.378,5.089,5.089,0,0,1-5.092,4.291,4.527,4.527,0,0,0-.491.1.848.848,0,0,0-.808,1c.047,2.549.035,5.1.007,7.649-.007.562.157.808.72.93,1.182.256,2.339.616,3.516.889a1.6,1.6,0,0,1,1.058.9c1.419,2.318,1.391,4.463-.488,6.506-.138.15-.2.37-.323.534a.823.823,0,0,0,.121,1.279q2.741,2.667,5.4,5.413a.853.853,0,0,0,1.28.138c.947-.61,1.952-1.129,2.889-1.752a1.912,1.912,0,0,1,1.7-.1c2.65.587,3.831,2.286,4.055,4.845.015.165.084.324.105.489.089.686.414.963,1.161.948,2.465-.05,4.932-.055,7.4,0,.76.017,1.022-.287,1.167-.946.241-1.1.563-2.181.8-3.281.119-.554.466-.755.915-1.045,2.377-1.535,4.54-1.229,6.608.561.125.108.3.159.426.264.472.388.828.325,1.269-.129q2.664-2.744,5.408-5.409a.847.847,0,0,0,.14-1.276c-.657-1.015-1.231-2.084-1.883-3.1a1.458,1.458,0,0,1-.069-1.262c.613-2.823,2.44-4.112,5.194-4.33.164-.013.321-.1.485-.12.567-.083.711-.416.706-.96C-6840.293,1136.748-6840.3,1134.2-6840.267,1131.648Zm-24.9,20.379a16.612,16.612,0,0,1-16.565-16.591,16.674,16.674,0,0,1,16.617-16.566,16.6,16.6,0,0,1,16.535,16.617A16.551,16.551,0,0,1-6865.165,1152.027Z" transform="translate(-22.652)" fill="#fbd670"/>
      <path id="Trazado_168563" data-name="Trazado 168563" d="M-6821.146,1167.12a12.387,12.387,0,0,0-12.411,12.411,12.454,12.454,0,0,0,12.413,12.437,12.5,12.5,0,0,0,12.433-12.439A12.441,12.441,0,0,0-6821.146,1167.12Zm.054,20.672a8.3,8.3,0,0,1-8.354-8.209,8.372,8.372,0,0,1,8.246-8.352,8.288,8.288,0,0,1,8.314,8.244A8.214,8.214,0,0,1-6821.092,1187.793Z" transform="translate(-66.642 -44.066)" fill="#fee9a6"/>
      <path id="Trazado_168564" data-name="Trazado 168564" d="M-6703.288,1376.19c.866-.842,1.741-1.675,2.6-2.528,2.67-2.661,5.407-5.26,7.975-8.017a4.191,4.191,0,0,1,7.194,1.823c.009.045.069.079.106.119v1.821a9.586,9.586,0,0,1-2.372,3.114c-3.776,3.751-7.61,7.45-11.267,11.316a15.165,15.165,0,0,1-7.11,4.231c-5.6,1.612-11.148,3.4-16.72,5.113a9.932,9.932,0,0,1-3.069.566,5.2,5.2,0,0,1-1.894,0c.17-.418.5-.5.8-.618a44.64,44.64,0,0,0,12.677-8.1,41.361,41.361,0,0,0,5.517-5.793,2.022,2.022,0,0,1,1.956-.938,2.748,2.748,0,0,0,1.3-.084,13.057,13.057,0,0,0,1.544-1.437C-6703.814,1376.554-6703.637,1376.259-6703.288,1376.19Z" transform="translate(-148.97 -197.61)" fill="#febc85"/>
      <path id="Trazado_168565" data-name="Trazado 168565" d="M-6794.764,1380.441a5.815,5.815,0,0,1-2.028.134.907.907,0,0,0-.786.33,44.813,44.813,0,0,1-5.807,6.191,45.081,45.081,0,0,1-8.169,5.947c-1.745.988-3.549,1.843-5.379,2.776h1.661a2.687,2.687,0,0,1-1.613.136c-4.234-.372-8.48-.572-12.721-.836-2.6-.162-5.2-.367-7.8-.486-1.616-.074-3.229-.214-4.843-.324a1.432,1.432,0,0,1-.28-1.089q-.009-9.909,0-19.817a1.54,1.54,0,0,1,.26-1.1c.216-.245.556-.362.7-.681a14.505,14.505,0,0,1,3.819-2.964,12.13,12.13,0,0,1,6.785-1.706c.438.026.88.006,1.32-.008a10.92,10.92,0,0,1,2.042.341,15.843,15.843,0,0,1,6.751,3.864,3.5,3.5,0,0,0,2.541.935c3.971-.05,7.942-.005,11.914-.005a4.29,4.29,0,0,1,3.843,5.293,1.144,1.144,0,0,1-.566.868,3.862,3.862,0,0,1-1.311.107c-5.373,0-10.746.064-16.117-.033-1.812-.033-2.637,1.135-3.576,2.26a.815.815,0,0,0,.1,1.135.959.959,0,0,0,1.155.1,1.892,1.892,0,0,0,.636-.52,2.8,2.8,0,0,1,2.419-.972c3.966.034,7.934.01,11.9.019a14.769,14.769,0,0,1,2.146,0c3.23.091,6.45-.357,9.682-.181C-6795.631,1380.179-6795.14,1380.052-6794.764,1380.441Z" transform="translate(-59.651 -199.682)" fill="#fdd1a3"/>
      <path id="Trazado_168566" data-name="Trazado 168566" d="M-6909.351,1406c-.259.231-.576.145-.871.144q-3.3,0-6.61-.029c-1.75-.013-2.3-.575-2.3-2.342q0-11.528,0-23.056c0-1.635.549-2.194,2.164-2.191,1.707,0,3.415.014,5.122.022.369.423.259.94.259,1.425q.011,11.86.005,23.72c0,.22,0,.441,0,.661.005,1.315.006,1.314,1.3,1.379A1.211,1.211,0,0,1-6909.351,1406Z" transform="translate(0 -208.713)" fill="#62a3fa"/>
      <path id="Trazado_168567" data-name="Trazado 168567" d="M-6863.833,1391.2q.01,11,.021,22l-6.126.015a1.345,1.345,0,0,1-.276-1.087q-.012-9.925,0-19.852a1.314,1.314,0,0,1,.283-1.083Z" transform="translate(-38.089 -218.58)" fill="#d2eefc"/>
      <path id="Trazado_168568" data-name="Trazado 168568" d="M-6882.4,1381.319c-.011,3.244-.029,6.488-.03,9.732,0,4.1.016,8.193.023,12.29a7.717,7.717,0,0,1-.054,1.229,1.538,1.538,0,0,1-1.27,1.421c-.634,0-1.268-.02-1.9,0-.409.011-.636-.119-.593-.564.011-.109,0-.22,0-.331q0-13.277,0-26.554c.632-.009,1.266-.029,1.9-.025a1.731,1.731,0,0,1,1.889,1.817C-6882.421,1380.66-6882.414,1380.99-6882.4,1381.319Z" transform="translate(-25.618 -208.7)" fill="#5391f8"/>
      <path id="Trazado_168569" data-name="Trazado 168569" d="M-6739.921,1417.39a3.565,3.565,0,0,1-2.3,2.181l-.492.3-8.755.007c-1.655,0-3.313.068-4.963-.023a2.84,2.84,0,0,0-2.718,1.136,1.267,1.267,0,0,1-1.125.564,1.03,1.03,0,0,1-1.07-.609,1.242,1.242,0,0,1,.123-1.331c.62-.665,1.273-1.3,1.931-1.928a1.664,1.664,0,0,1,1.253-.293Q-6748.981,1417.393-6739.921,1417.39Z" transform="translate(-122.774 -238.975)" fill="#febc86"/>
      <path id="Trazado_168570" data-name="Trazado 168570" d="M-6897.649,1398.629a1.472,1.472,0,0,1-1.384,1.368,1.422,1.422,0,0,1-1.373-1.446,1.4,1.4,0,0,1,1.409-1.313A1.427,1.427,0,0,1-6897.649,1398.629Z" transform="translate(-14.579 -223.282)" fill="#f5e266"/>
      <path id="Trazado_168571" data-name="Trazado 168571" d="M-6899,1424.864a1.4,1.4,0,0,1-1.4-1.324,1.417,1.417,0,0,1,1.38-1.437,1.459,1.459,0,0,1,1.376,1.372A1.431,1.431,0,0,1-6899,1424.864Z" transform="translate(-14.579 -242.648)" fill="#f5e266"/>
    </g>
  </g>
</svg>
