<svg xmlns="http://www.w3.org/2000/svg" width="162.001" height="169.241" viewBox="0 0 162.001 169.241">
  <g id="Grupo_119340" data-name="Grupo 119340" transform="translate(-529.532 1238.848)">
    <path id="Trazado_167170" data-name="Trazado 167170" d="M739.534-1238.848a3.262,3.262,0,0,1,1.706,3.238c-.044,9.74.007,19.481.028,29.222a4.778,4.778,0,0,1,.453,2.24q0,10.071-.008,20.141a4.414,4.414,0,0,1-.252,1.784c-.445.715-1.135.656-1.829.578-1.859-1.163-2.992-3.027-4.362-4.646q-11.406-13.483-22.789-26.987a21.957,21.957,0,0,0-1.7-2.016c-1.22-1.134-2-1.137-3.043.142-2.925,3.579-5.928,7.092-8.911,10.622-3.977,4.706-7.9,9.46-11.944,14.107-2.015,2.315-3.109,2.312-5.18-.13-2.953-3.482-5.925-6.949-8.8-10.494-2.688-3.637-3.272-3.594-6.185-.13-3.961,4.71-7.863,9.471-11.938,14.085-.422.477-.855,1.545-1.781.489a5.715,5.715,0,0,1-.264-2.285q-.009-22.96,0-45.92c0-1.627,0-3.258,1.851-4.041Z" transform="translate(-72.169)" fill="#69ccfe"/>
    <path id="Trazado_167171" data-name="Trazado 167171" d="M613.661-1238.848a5.109,5.109,0,0,0-1.351,3.882c.048,15.6.027,31.2.041,46.8,0,.629-.246,1.33.312,1.878.2.505-.154.827-.42,1.155q-2.67,3.3-5.486,6.485c-.359.406-.864,1.295-1.4.078-.387-2.906-.387-2.907-3.4-2.908-5.5,0-11,.009-16.508-.009a3.616,3.616,0,0,1-2.534-.472c.364-1.176,1.387-.862,2.173-.868,5.82-.046,11.639-.02,17.459-.025a10.749,10.749,0,0,0,1.643-.069c.557-.087.911-.342.878-.97-.029-.557-.4-.736-.864-.814a9.887,9.887,0,0,0-1.643-.071c-5.765,0-11.53.023-17.294-.026-.84-.007-1.925.358-2.385-.849a3.455,3.455,0,0,1,2.517-.5c5.931-.02,11.861-.005,17.792-.011,1.045,0,1.983-.038,2.015-1.5.038-1.686-.2-2.058-1.923-2.066-5.931-.029-11.861,0-17.792-.019a3.85,3.85,0,0,1-2.541-.446c.282-1.257,1.339-.891,2.1-.9,5.769-.053,11.54-.024,17.309-.029a14.256,14.256,0,0,0,1.647-.044c.586-.069,1.092-.224,1.064-.973-.025-.66-.493-.787-1.008-.855a12.438,12.438,0,0,0-1.646-.051c-5.715,0-11.43.023-17.145-.026-.841-.007-1.926.358-2.388-.849a3.456,3.456,0,0,1,2.518-.5c5.932-.02,11.864-.006,17.8-.011,1.049,0,1.98-.047,2.01-1.5.035-1.683-.207-2.051-1.932-2.06-5.932-.028-11.864,0-17.8-.019a3.764,3.764,0,0,1-2.537-.457c.311-1.225,1.353-.884,2.123-.891,5.494-.051,10.989-.017,16.483-.028,4.041-.008,3.618.262,3.655-3.641.019-2.032-.048-4.065.036-6.1-.095-4.006-.028-8.012-.035-12.017a2.9,2.9,0,0,1,.484-1.876c.019-4.051.09-8.1.028-12.154a4.568,4.568,0,0,1,1.336-3.68Z" transform="translate(-31.253)" fill="#52baee"/>
    <path id="Trazado_167172" data-name="Trazado 167172" d="M669.034-1136.138q.032-12.168.065-24.336a77.861,77.861,0,0,1,16.12,24.532,76.633,76.633,0,0,1,6.163,34.956c-1.851,28.729-15.114,50.83-39.618,65.927a75.649,75.649,0,0,1-44.441,11.251c-27-1.427-48.336-13.369-63.872-35.557a2.416,2.416,0,0,1,1.99-.552q9.116-.034,18.231,0a3.567,3.567,0,0,1,1.758.314c.648.512.592,1.267.626,1.965a1.83,1.83,0,0,0,1.953,1.986c4.885.054,9.772.286,14.651-.064a2.185,2.185,0,0,0,1.548-1.9c.114-.57.068-1.209.594-1.635a5.6,5.6,0,0,1,2.6-.278c16.188-.008,32.377-.041,48.565.03a8.006,8.006,0,0,0,6.159-2.565c4.506-4.6,9.1-9.122,13.648-13.683,2.328-2.334,2.817-4.586,1.539-6.963a6.768,6.768,0,0,0-7.383-3.716,3.522,3.522,0,0,1-.981.1c-1.682-1.073-3.6-1.048-5.486-1.161-2.814-1.434-5.018-.528-7.041,1.649-2.092,2.251-4.357,4.341-6.5,6.551a4.714,4.714,0,0,1-3.651,1.533c-6.92-.039-13.841-.012-20.762-.023a3.086,3.086,0,0,1-2.057-.409,3.092,3.092,0,0,1-.531-1.372c-.455-2.251.6-3.672,2.917-3.755,2.97-.108,5.945-.03,8.918-.034,5.309-.008,7.172-1.857,7.154-7.12a5.351,5.351,0,0,0-4.044-5.034,13.3,13.3,0,0,0-3.76-.436q-10.738.014-21.476,0c-2.679,0-5.317.111-7.288,2.334a.518.518,0,0,1-.738.088,4.385,4.385,0,0,1-.386-2.567c-.031-1.6.041-3.194-.031-4.789-.1-2.138-.583-2.611-2.693-2.64-2.807-.039-5.615.022-8.424-.022q-2.389.049-4.777.038c-1.282-.008-2.145.455-2.205,1.856-.065,1.527-.876,2.059-2.352,2.056-10.763-.021-21.525,0-32.288-.024-.644,0-1.346.068-1.768-.616a79.9,79.9,0,0,1,4.231-30.822,95.818,95.818,0,0,1,5.231-12.075c1.083.558.8,1.6.8,2.476.034,8.036.017,16.071.019,24.106,0,4.666.038,4.671,4.663,4.715,13.649.13,27.3.021,40.949.053a3.869,3.869,0,0,0,2.4-.364c.943-.616.845-1.6.851-2.515.022-3.776,0-7.553.018-11.329a3.082,3.082,0,0,1,.53-2.336,4.386,4.386,0,0,1,2.41-.377q18.227-.012,36.453,0a4.323,4.323,0,0,1,2.408.38c.7.783.538,1.757.54,2.673q.025,11.3.01,22.6,0,.907.027,1.814a1.752,1.752,0,0,0,1.947,1.936c1.7.021,3.409.025,5.113.038,12.985-.048,25.969-.009,38.954-.023,3.474,0,3.48-.009,3.48-3.487q0-14.606,0-29.214c0-.5.013-.991-.014-1.485-.092-1.675-.4-2.022-2.093-2.078-2.474-.081-4.951,0-7.427-.039C670.431-1135.575,669.62-1135.461,669.034-1136.138Z" transform="translate(0 -45.914)" fill="#4c53b5"/>
    <path id="Trazado_167173" data-name="Trazado 167173" d="M565.749-973.708l-22.093,0a74.881,74.881,0,0,1-10.594-22.125,76.044,76.044,0,0,1-3.178-17.913c.285-.73.926-.466,1.427-.466,11.059-.014,22.119.011,33.178-.039,1.34-.006,1.771.547,1.786,1.73.006.44.02.88.02,1.32q0,17.33-.01,34.66C566.284-975.579,566.505-974.543,565.749-973.708Z" transform="translate(-0.206 -131.569)" fill="#febf10"/>
    <path id="Trazado_167174" data-name="Trazado 167174" d="M605.282-1132.678q-.006,7.173-.013,14.345c0,.888.036,1.8-1.081,2.131a3.483,3.483,0,0,1-1.626.136q-19.072.012-38.145.006c-2.468,0-2.714-.235-2.717-2.927q-.026-20.31-.006-40.619c0-1.981-.059-3.964.038-5.943.049-1-.343-1.349-1.327-1.391-1.282-.055-2.657.391-3.817-.546.5-.491,1.139-.3,1.719-.3,4.048-.01,8.1,0,12.143.009a4.248,4.248,0,0,1,2.374-.548c5.059,0,10.117-.009,15.176.01.81,0,1.676-.107,2.3.63.014,2.919-.026,5.84.067,8.757.039,1.226-.454,1.444-1.542,1.438-6.5-.041-13-.024-19.5-.013a3.492,3.492,0,0,0-1.784.168c-2.519,2.289-2.518,2.512.026,4.838a3.078,3.078,0,0,0,1.77.186c6.483.013,12.968.038,19.451-.019,1.224-.01,1.594.328,1.6,1.568.008,1.269-.416,1.556-1.615,1.547-6.484-.054-12.967-.03-19.451-.018a3.332,3.332,0,0,0-1.776.175.61.61,0,0,1-.271.383c-2.045,1.425-2.08,2.472-.13,3.978a.989.989,0,0,1,.417.475,3.146,3.146,0,0,0,1.772.183c6.484.012,12.967.037,19.45-.019,1.217-.01,1.6.313,1.605,1.561.006,1.27-.418,1.556-1.616,1.546-6.483-.054-12.966-.03-19.45-.018a3.332,3.332,0,0,0-1.776.175c-.178.5-.658.724-.984,1.089a1.738,1.738,0,0,0,1.023,3.069,9.823,9.823,0,0,0,1.977.088q9.165,0,18.33.007a4.5,4.5,0,0,1,2.419.339c.558,2.9,2.6,3.249,5.052,2.989,1.032-.109,2.082.037,3.124-.045,1.622-.022,3.243-.031,4.863,0C604.032-1133.246,604.771-1133.318,605.282-1132.678Z" transform="translate(-15.849 -41.314)" fill="#d8e9fb"/>
    <path id="Trazado_167175" data-name="Trazado 167175" d="M554.336-1166.3h6.16a4.072,4.072,0,0,0-.539,2.461q.006,23.282,0,46.564c0,2.228.012,2.238,2.18,2.239q19.9.012,39.8.02c-.528.442-1.161.268-1.749.268q-22.058.027-44.117.032c-2.434,0-2.948-.521-2.95-3.041-.007-8.977,0-17.953-.018-26.93,0-.614.308-1.336-.36-1.838a4.813,4.813,0,0,0,.6-2.521c-.03-5.007-.005-10.014-.022-15.021C553.317-1164.99,553.368-1165.84,554.336-1166.3Z" transform="translate(-13.598 -42.501)" fill="#adc0ec"/>
    <path id="Trazado_167176" data-name="Trazado 167176" d="M565.749-979.532c0-12.884-.016-25.768.04-38.653.006-1.412-.447-1.733-1.783-1.727-10.793.049-21.586.026-32.379.032-.593,0-1.223-.142-1.743.305,0-.271,0-.543.006-.813a17.424,17.424,0,0,0,1.793.176c10.742.011,21.485-.016,32.227.037,1.382.007,2.05-.239,1.87-1.786-.173-1.48.575-2.272,2.125-2.242,1.817.035,3.635.032,5.452.046-.74,3.027-.444,6.11-.455,9.172-.031,7.976-.009,15.953-.012,23.93a17.657,17.657,0,0,1-.078,2.469,4.116,4.116,0,0,1-.458,1.376,4.157,4.157,0,0,0,.2,4.46,1.814,1.814,0,0,1,.349,1.065c-.042,1.206-.042,2.411-.029,3.617.014,1.363.673,1.981,2.04,1.973,2.138-.012,4.277-.022,6.415.011.7.011,1.446-.094,2,.516a1.223,1.223,0,0,1-.918.27c-4.768.006-9.535.034-14.3.005-1.711-.01-2.325-.708-2.35-2.433C565.749-978.326,565.752-978.929,565.749-979.532Z" transform="translate(-0.206 -125.745)" fill="#fae740"/>
    <path id="Trazado_167178" data-name="Trazado 167178" d="M661.73-1142.586l-7.017-.1a3.185,3.185,0,0,1-.8-5.151c3.046-3.606,6.069-7.232,9.132-10.824,2.813-3.3,5.57-6.646,8.392-9.938.477-.557.85-1.33,1.8-1.207,2.751,3.212,5.556,6.378,8.236,9.647,2.663,3.248,3.283,3.3,5.957.108q10.066-12.006,20.152-24c1.4-1.663,2.377-1.616,4,.295q6.47,7.6,12.886,15.239,7.02,8.319,14.026,16.649c.317.377.581.8.869,1.2-.63.734-1.5.6-2.309.6-8.76.011-17.519.031-26.277,0-1.694-.084-3.392-.042-5.087,0-1.733.039-2.128.449-2.206,2.146-.053,1.149.008,2.3-.029,3.449-.021.647.046,1.333-.525,1.827q-19.532,0-39.063.01C663.157-1142.633,662.443-1142.6,661.73-1142.586Z" transform="translate(-72.297 -31.406)" fill="#37c37a"/>
    <path id="Trazado_167179" data-name="Trazado 167179" d="M789.933-1101.639q13.332-.025,26.664-.052c.712,0,1.424-.038,2.136-.058l1.963.014c3.3.017,6.6.024,9.9.053,1.925.017,2.349.428,2.351,2.313q.011,16.42,0,32.84c0,1.851-.373,2.214-2.244,2.214q-20.382,0-40.764-.017c-1.5-.577-1.513-1.867-1.515-3.16q-.011-11.872,0-23.744c0-2.583-.01-5.167.008-7.75C788.437-1100.156,788.676-1101.183,789.933-1101.639Z" transform="translate(-151.663 -80.316)" fill="#f9e424"/>
    <path id="Trazado_167180" data-name="Trazado 167180" d="M664.285-1152.452c-2.592,2.377-4.618,5.25-6.9,7.9-3.324,3.851-6.558,7.779-9.839,11.668-.812.962-1.683,1.875-2.474,2.854-1.106,1.369-.875,2.8.692,4.7-1.528.019-3.056.052-4.584.052-2.636,0-3.206-.547-3.408-3.207a.673.673,0,0,1,.1-.85l6.891-8.2c4.618-5.446,9.22-10.907,13.863-16.333,2.01-2.348,2.572-2.324,4.633-.043C663.652-1153.467,664.169-1153.1,664.285-1152.452Z" transform="translate(-63.346 -48.756)" fill="#02ae8d"/>
    <path id="Trazado_167181" data-name="Trazado 167181" d="M834.028-1225.548a6.58,6.58,0,0,1,4.267,6.831,6.485,6.485,0,0,1-4.951,5.82,6.731,6.731,0,0,1-4.684-5.963,7.541,7.541,0,0,1,3.322-6.435A2.32,2.32,0,0,1,834.028-1225.548Z" transform="translate(-175.224 -7.709)" fill="#fefefe"/>
    <path id="Trazado_167182" data-name="Trazado 167182" d="M828.591-1226.2c-2.584.481-4.321,2.348-4.932,5.3-.451,2.184,1.009,5.2,3.2,6.6.362.232.835.308,1.046.75a6.508,6.508,0,0,1-7.513-2.85,6.757,6.757,0,0,1,.437-7.818C822.97-1226.713,825.842-1227.447,828.591-1226.2Z" transform="translate(-169.787 -7.061)" fill="#d8e9fb"/>
    <path id="Trazado_167183" data-name="Trazado 167183" d="M579.827-1136.951a2.321,2.321,0,0,1-2.3-2.487,2.314,2.314,0,0,1,2.272-2.35c6.928.03,13.856.129,20.782.042,1.747-.022,2.27.526,2.021,2.131a4.04,4.04,0,0,0,0,1.153c.163,1.186-.372,1.475-1.5,1.467-6.435-.046-12.87-.024-19.3-.019C581.143-1137.014,580.485-1136.973,579.827-1136.951Z" transform="translate(-28.117 -56.86)" fill="#445ea0"/>
    <path id="Trazado_167184" data-name="Trazado 167184" d="M579.827-1116.971a2.306,2.306,0,0,1-2.289-2.331,2.307,2.307,0,0,1,2.273-2.505c6.708.027,13.416.043,20.123.089,3.089.021,2.615-.439,2.665,2.741a3.688,3.688,0,0,0,0,.494c.18,1.19-.38,1.469-1.5,1.462-6.435-.044-12.869-.024-19.3-.018C581.143-1117.04,580.485-1117,579.827-1116.971Z" transform="translate(-28.122 -68.566)" fill="#445ea0"/>
    <path id="Trazado_167185" data-name="Trazado 167185" d="M602.59-1097.838q-.048.425-.1.85L581.509-1097c-.441,0-.881-.009-1.322-.005a2.438,2.438,0,0,1-2.7-2.133c-.239-1.273.632-2.259,2.272-2.715q10.158.041,20.315.087c2.831.016,2.433-.333,2.474,2.445C602.556-1098.828,602.576-1098.333,602.59-1097.838Z" transform="translate(-28.07 -80.254)" fill="#445ea0"/>
    <path id="Trazado_167186" data-name="Trazado 167186" d="M726.236-990.631a7.165,7.165,0,0,1,9.552,6.817A5.571,5.571,0,0,1,734.062-980q-7.408,7.427-14.832,14.839a7.559,7.559,0,0,1-5.685,2.14q-25.772-.057-51.545-.006a2.676,2.676,0,0,1-.506-2.022q-.026-11.948,0-23.9a4.148,4.148,0,0,1,.277-1.776,15.876,15.876,0,0,0,2.708-3.267,5.96,5.96,0,0,1,5.249-2.631q13.115-.161,26.232.011c1.469.02,3.2.059,3.675,2.069.226,2.4-.084,4.618-2.061,6.287a5.845,5.845,0,0,1-3.95,1.371c-3.3-.019-6.59-.006-9.886,0-2.944,0-3.542.725-2.973,3.57.065.322.089.652.132.978.849.734.651,1.831.959,2.754.518,2.323,1,2.765,3.333,2.771,8.032.022,16.064-.008,24.1.024a4.62,4.62,0,0,0,3.495-1.526q5.455-5.514,10.97-10.968C724.433-989.96,725.055-990.833,726.236-990.631Z" transform="translate(-77.3 -141.857)" fill="#fee1b7"/>
    <path id="Trazado_167187" data-name="Trazado 167187" d="M644.914-1006.984c-.029,6.54-.068,13.08-.082,19.62-.006,2.747.042,5.494.065,8.241-.212,1.33.381,3.016-1.579,3.574-2.972-.012-5.946-.082-8.917-.013-1.455.033-2.082-.656-2.016-1.952.074-1.451-.427-2.952.309-4.355.576-.251,1.058.111,1.573.245a3.661,3.661,0,0,0,4.013-1.516,3.547,3.547,0,0,0-.259-4.269,3.455,3.455,0,0,0-4.159-.965c-.481.186-.921.675-1.5.242,0-11.063.016-22.127-.025-33.19a3.6,3.6,0,0,1,1.015-2.816c2.97-.012,5.94-.034,8.909-.034,1.96,0,2.538.53,2.586,2.537.064,2.693.041,5.389.056,8.083A9.652,9.652,0,0,1,644.914-1006.984Z" transform="translate(-60.196 -125.763)" fill="#fece47"/>
    <path id="Trazado_167188" data-name="Trazado 167188" d="M781.278-1101.576a3.556,3.556,0,0,0-1.011,2.814q.062,15.755,0,31.511a3.855,3.855,0,0,0,1.015,2.982c-1.759.01-3.518.042-5.276.025-1.813-.017-2.318-.532-2.32-2.387q-.014-13.026-.006-26.052c0-.329-.024-.658-.037-.988.016-1.918.051-3.836.041-5.753-.008-1.481.631-2.253,2.169-2.216C777.662-1101.6,779.47-1101.6,781.278-1101.576Z" transform="translate(-143.008 -80.38)" fill="#febf10"/>
    <path id="Trazado_167189" data-name="Trazado 167189" d="M754.576-983.9a7.285,7.285,0,0,0-2.088,1.58c-3.8,3.82-7.631,7.61-11.415,11.446a3.975,3.975,0,0,1-3.063,1.277c-8.247-.038-16.5-.018-24.743-.02-2.568,0-3.329-.743-3.409-3.3.346-1.119,1.314-.773,2.04-.779,5.5-.042,11-.021,16.5-.022,2.256,0,4.512-.036,6.766.014a3.932,3.932,0,0,0,3.072-1.291c2.814-2.864,5.665-5.692,8.512-8.525a4.507,4.507,0,0,1,2.442-1.588C751.11-985.249,753.044-985.468,754.576-983.9Z" transform="translate(-105.64 -148.591)" fill="#fec887"/>
    <path id="Trazado_167190" data-name="Trazado 167190" d="M662.753-996.142q-.007-3.285-.014-6.569c1.429-2.2,3.587-2.933,6.066-2.938,8.291-.014,16.581-.033,24.872.006,4.1.019,6.668,2.321,6.692,5.85-.85-1.448-2.341-1.595-3.736-1.6-8.691-.054-17.384-.07-26.075,0a5.707,5.707,0,0,0-5.638,3.547C664.525-996.933,663.979-996.071,662.753-996.142Z" transform="translate(-78.036 -136.605)" fill="#fec886"/>
    <path id="Trazado_167191" data-name="Trazado 167191" d="M748.312-986.34c-3.856,3.444-7.371,7.235-11.037,10.871a3.186,3.186,0,0,1-2.468,1.008q-11.975-.053-23.95-.008c-.63,0-1.334-.248-1.88.32-.531-.822-.291-1.822-.622-2.69,7.929.021,15.858.031,23.786.079a2.219,2.219,0,0,0,1.665-.894c2.646-2.65,5.276-5.315,7.948-7.938C743.835-987.634,745.826-987.833,748.312-986.34Z" transform="translate(-104.759 -147.355)" fill="#fedc8c"/>
    <path id="Trazado_167192" data-name="Trazado 167192" d="M586.185-1077.122c-1.867,0-3.735.05-5.6-.013-1.966-.066-3.1-1.005-3.129-2.455s1.111-2.512,3.028-2.545q5.846-.1,11.695,0c1.848.032,2.917,1.024,2.95,2.445.034,1.481-1.074,2.483-3.015,2.552C590.14-1077.067,588.161-1077.122,586.185-1077.122Z" transform="translate(-28.074 -91.778)" fill="#455fa0"/>
    <path id="Trazado_167193" data-name="Trazado 167193" d="M630.939-938.636c1.471-.712,2.924-1.552,4.627-.664a4.011,4.011,0,0,1,1.93,5.409A3.952,3.952,0,0,1,632.007-932c-.249-.112-.488-.249-.732-.374C629.409-934.366,629.5-936.465,630.939-938.636Z" transform="translate(-58.777 -175.259)" fill="#febf10"/>
    <path id="Trazado_167194" data-name="Trazado 167194" d="M815.134-1070c0-2.368-.034-4.736.01-7.1.04-2.164,1.133-2.889,2.968-1.863q6.409,3.583,12.719,7.343c1.72,1.023,1.719,2.413-.007,3.438q-6.313,3.749-12.727,7.328c-1.838,1.022-2.918.291-2.954-1.875C815.1-1065.151,815.134-1067.574,815.134-1070Z" transform="translate(-167.306 -93.396)" fill="#fefefe"/>
  </g>
</svg>
