<svg xmlns="http://www.w3.org/2000/svg" width="138" height="138" viewBox="0 0 138 138">
  <g id="Grupo_120535" data-name="Grupo 120535" transform="translate(-732 -820.962)">
    <g id="Elipse_6826" data-name="Elipse 6826" transform="translate(732 820.962)" fill="#fff" stroke="#2631a0" stroke-width="4">
      <circle cx="69" cy="69" r="69" stroke="none"/>
      <circle cx="69" cy="69" r="67" fill="none"/>
    </g>
    <g id="Grupo_118949" data-name="Grupo 118949" transform="translate(4550.469 -2558.447)">
      <g id="Grupo_118947" data-name="Grupo 118947" transform="translate(-3781.765 3400.76)">
        <path id="Trazado_168195" data-name="Trazado 168195" d="M-3714.089,3451.156a23.91,23.91,0,0,1,.742-2.766,42.345,42.345,0,0,1,2.208-4.243c.966-1.815,2-3.6,3-5.392q2.51-4.511,5.013-9.024c1.209-2.186,2.4-4.382,3.606-6.567q2.483-4.489,4.984-8.968c1.05-1.889,2.057-3.8,3.158-5.662a10.968,10.968,0,0,1,7.714-5.232,6.459,6.459,0,0,1,1.935-.168.612.612,0,0,1,.17.4,20.018,20.018,0,0,1-.055,3.253.542.542,0,0,1-.516.3c-3.186.289-5.221,2.1-6.673,4.838-2.029,3.831-4.188,7.591-6.281,11.388q-3.8,6.883-7.6,13.758c-2.058,3.719-4.086,7.456-6.191,11.149-1.635,2.87-1.782,5.73.156,8.5a6.984,6.984,0,0,0,5.917,3.11c6.694.036,13.389.01,20.083.019.379,0,.818-.136,1.1.286a18.652,18.652,0,0,1,.065,3.269.613.613,0,0,1-.171.4c-7.2,0-14.392.052-21.587-.026a10.576,10.576,0,0,1-6.662-2.617,11.721,11.721,0,0,1-3.942-6.625c-.076-.322.1-.682-.164-.966Z" transform="translate(3714.089 -3403.111)" fill="#f2f4f8"/>
        <path id="Trazado_168196" data-name="Trazado 168196" d="M-3522.521,3407.006l0-3.768a11.325,11.325,0,0,1,8.36,3.635,18.214,18.214,0,0,1,2.6,4q2.923,5.259,5.831,10.526c1.411,2.556,2.806,5.12,4.22,7.675,1.871,3.381,3.761,6.751,5.628,10.133,1.523,2.759,3.134,5.476,4.509,8.306a10.855,10.855,0,0,1-1.431,12.253,10.843,10.843,0,0,1-7.238,4.028,10.863,10.863,0,0,1-1.566.1q-10.454,0-20.908,0,0-1.884,0-3.768l.063-.08a1.982,1.982,0,0,1,.992-.109q9.983-.005,19.966,0a7.446,7.446,0,0,0,6.441-11.051q-4.485-8.094-8.956-16.195c-2.94-5.3-5.862-10.616-8.814-15.912-1.087-1.949-2.126-3.926-3.255-5.85a7.261,7.261,0,0,0-5.888-3.734,1.021,1.021,0,0,1-.487-.111Z" transform="translate(3554.879 -3403.216)" fill="#e0e5ef"/>
        <path id="Trazado_168197" data-name="Trazado 168197" d="M-3663.045,3478.671c-2.379-.008-4.759-.019-7.138-.021-4.57,0-9.14,0-13.71,0a7.58,7.58,0,0,1-7.709-7.912,7.534,7.534,0,0,1,1.011-3.48q4.021-7.262,8.038-14.527,6.329-11.432,12.653-22.867a7.765,7.765,0,0,1,6.855-4.315l-.01.044a.816.816,0,0,1,.2.639q.017,3.168,0,6.337a1.148,1.148,0,0,1-.1.488c-.165.273-.458.281-.721.317a5.661,5.661,0,0,0-4.9,5.984c.068,4.773.016,9.547.018,14.32a5.52,5.52,0,0,0,4.757,5.77c.282.055.6.04.813.29a12.876,12.876,0,0,1,.055,3.6c-.182.377-.565.327-.879.38a5.526,5.526,0,0,0-3.837,2.413,5.509,5.509,0,0,0,3.382,8.417c.451.1.991-.012,1.326.45a19.2,19.2,0,0,1,.058,3.244.539.539,0,0,1-.177.39Z" transform="translate(3695.403 -3421.758)" fill="#fede40"/>
        <path id="Trazado_168198" data-name="Trazado 168198" d="M-3522.559,3433.341q-.005-3.768-.011-7.536a7.068,7.068,0,0,1,6.522,3.7c2.37,4.094,4.61,8.263,6.9,12.4q7.117,12.86,14.231,25.722a7.649,7.649,0,0,1-5.8,11.221,4.575,4.575,0,0,1-.5.014h-20.91c-.147,0-.294-.014-.441-.021q.006-1.872.011-3.745l.057-.078a1.354,1.354,0,0,1,.611-.124,5.585,5.585,0,0,0,4.85-5.51,5.584,5.584,0,0,0-4.85-5.509,1.365,1.365,0,0,1-.612-.123l-.057-.079v-3.743l.069-.085a1.273,1.273,0,0,1,.546-.132,5.567,5.567,0,0,0,4.885-5.6c0-4.945-.065-9.891.027-14.833a5.715,5.715,0,0,0-4.975-5.73,1.057,1.057,0,0,1-.484-.124Z" transform="translate(3554.918 -3421.972)" fill="#febd40"/>
        <path id="Trazado_168199" data-name="Trazado 168199" d="M-3550.529,3497.015c-2.884-.263-4.851-1.8-5.505-4.292a6.82,6.82,0,0,1-.19-1.748q.008-7.159,0-14.319c0-3.664,2.045-5.9,5.692-6.229l-.011.049a1.052,1.052,0,0,1,.208.832q.008,12.413,0,24.827a1.054,1.054,0,0,1-.208.832Z" transform="translate(3582.887 -3459.057)" fill="#4d3535"/>
        <path id="Trazado_168200" data-name="Trazado 168200" d="M-3550.491,3661.433c-2.8-.255-4.736-1.695-5.438-4.038a5.69,5.69,0,0,1,5.125-7.353c.1-.007.208-.021.313-.032l-.011.049a1.055,1.055,0,0,1,.207.832q.009,4.83,0,9.661a1.055,1.055,0,0,1-.207.832Z" transform="translate(3582.85 -3608.309)" fill="#4d3535"/>
        <path id="Trazado_168201" data-name="Trazado 168201" d="M-3522.568,3497.174v-26.491a5.6,5.6,0,0,1,5.679,5.263q.056,7.982,0,15.964A5.6,5.6,0,0,1-3522.568,3497.174Z" transform="translate(3554.916 -3459.265)" fill="#331e1e"/>
        <path id="Trazado_168202" data-name="Trazado 168202" d="M-3522.568,3661.592v-11.325a5.66,5.66,0,0,1,5.687,5.126,5.712,5.712,0,0,1-4.747,6.167A2.917,2.917,0,0,1-3522.568,3661.592Z" transform="translate(3554.916 -3608.516)" fill="#331e1e"/>
      </g>
      <path id="Trazado_168203" data-name="Trazado 168203" d="M-3342.52,3431.649v14.81h10.234a4.214,4.214,0,0,1,4.214,4.214v29.5a4.214,4.214,0,0,1-4.214,4.214h-8.79v5.391" transform="translate(-376.487 -26.069)" fill="none" stroke="#a1a6a6" stroke-linecap="round" stroke-linejoin="round" stroke-width="2"/>
      <g id="Grupo_118948" data-name="Grupo 118948" transform="translate(-3802.199 3457.231)">
        <path id="Trazado_168206" data-name="Trazado 168206" d="M-3757.343,3833.233c-.811.121-1.822-.341-2.394.223-.51.5-.588,1.449-.845,2.2a2.577,2.577,0,0,1-3.163,1.322c-.051-.025-.1-.055-.152-.08-2.06-1.013-2.455-.784-4.072.865a2.6,2.6,0,0,0-.365,3.717,2.416,2.416,0,0,1-1.333,3.218c-2.268.758-2.282.758-2.26,3.161.008.82-.325,1.8.151,2.42.448.584,1.441.591,2.192.854a2.543,2.543,0,0,1,1.31,3.118c-.012.026-.023.052-.036.077-1.057,2.172-.855,2.48.911,4.224a2.383,2.383,0,0,0,3.443.418,2.4,2.4,0,0,1,3.461,1.416c.711,2.13.711,2.13,2.979,2.174.056,0,.114.008.17.013.81-.117,1.82.34,2.391-.221.51-.5.59-1.445.847-2.2a2.334,2.334,0,0,1,3.128-1.313c1.474.958,2.719,1.089,3.819-.484a2.06,2.06,0,0,1,.436-.4c1.331-1.039,1.247-2.174.423-3.534a2.311,2.311,0,0,1,1.4-3.352c2.141-.71,2.154-.71,2.135-3-.007-.851.319-1.861-.135-2.511s-1.533-.632-2.329-.933a2.548,2.548,0,0,1-1.25-2.954c.049-.1.1-.205.149-.308.967-1.989.849-2.542-.861-4.022-1.632-1.414-1.632-1.414-3.625-.436a2.423,2.423,0,0,1-3.328-1.336c-.267-.745-.263-1.727-.868-2.176S-3756.553,3833.32-3757.343,3833.233Z" transform="translate(3775.998 -3823.705)" fill="#ff004c"/>
        <path id="Trazado_168207" data-name="Trazado 168207" d="M-3725.242,3871.758a7.267,7.267,0,0,0,7.357-7.286c0-4.124-3.582-7.542-7.357-7.272a1.534,1.534,0,0,0-.274,1.132q-.01,6.146,0,12.295A1.524,1.524,0,0,0-3725.242,3871.758Z" transform="translate(3743.896 -3840.281)" fill="#878b8b"/>
        <path id="Trazado_168208" data-name="Trazado 168208" d="M-3740.931,3871.784v-14.559a7.2,7.2,0,0,0-7.323,7.321A7.215,7.215,0,0,0-3740.931,3871.784Z" transform="translate(3759.587 -3840.307)" fill="#a0a5a5"/>
      </g>
      <g id="Grupo_118950" data-name="Grupo 118950" transform="translate(-3735.654 3457.231)">
        <path id="Trazado_168206-2" data-name="Trazado 168206" d="M-3757.343,3833.233c-.811.121-1.822-.341-2.394.223-.51.5-.588,1.449-.845,2.2a2.577,2.577,0,0,1-3.163,1.322c-.051-.025-.1-.055-.152-.08-2.06-1.013-2.455-.784-4.072.865a2.6,2.6,0,0,0-.365,3.717,2.416,2.416,0,0,1-1.333,3.218c-2.268.758-2.282.758-2.26,3.161.008.82-.325,1.8.151,2.42.448.584,1.441.591,2.192.854a2.543,2.543,0,0,1,1.31,3.118c-.012.026-.023.052-.036.077-1.057,2.172-.855,2.48.911,4.224a2.383,2.383,0,0,0,3.443.418,2.4,2.4,0,0,1,3.461,1.416c.711,2.13.711,2.13,2.979,2.174.056,0,.114.008.17.013.81-.117,1.82.34,2.391-.221.51-.5.59-1.445.847-2.2a2.334,2.334,0,0,1,3.128-1.313c1.474.958,2.719,1.089,3.819-.484a2.06,2.06,0,0,1,.436-.4c1.331-1.039,1.247-2.174.423-3.534a2.311,2.311,0,0,1,1.4-3.352c2.141-.71,2.154-.71,2.135-3-.007-.851.319-1.861-.135-2.511s-1.533-.632-2.329-.933a2.548,2.548,0,0,1-1.25-2.954c.049-.1.1-.205.149-.308.967-1.989.849-2.542-.861-4.022-1.632-1.414-1.632-1.414-3.625-.436a2.423,2.423,0,0,1-3.328-1.336c-.267-.745-.263-1.727-.868-2.176S-3756.553,3833.32-3757.343,3833.233Z" transform="translate(3775.998 -3823.705)" fill="#242ca3"/>
        <path id="Trazado_168207-2" data-name="Trazado 168207" d="M-3725.242,3871.758a7.267,7.267,0,0,0,7.357-7.286c0-4.124-3.582-7.542-7.357-7.272a1.534,1.534,0,0,0-.274,1.132q-.01,6.146,0,12.295A1.524,1.524,0,0,0-3725.242,3871.758Z" transform="translate(3743.896 -3840.281)" fill="#878b8b"/>
        <path id="Trazado_168208-2" data-name="Trazado 168208" d="M-3740.931,3871.784v-14.559a7.2,7.2,0,0,0-7.323,7.321A7.215,7.215,0,0,0-3740.931,3871.784Z" transform="translate(3759.587 -3840.307)" fill="#a0a5a5"/>
      </g>
      <path id="Trazado_168209" data-name="Trazado 168209" d="M-3774.329,3431.649v14.81h-10.234a4.214,4.214,0,0,0-4.214,4.214v29.5a4.214,4.214,0,0,0,4.214,4.214h8.79v5.391" transform="translate(-5.602 -26.069)" fill="none" stroke="#a1a6a6" stroke-linecap="round" stroke-linejoin="round" stroke-width="2"/>
      <path id="Trazado_168210" data-name="Trazado 168210" d="M-3731.748,3407.566l4.9-7.284,4.732,7.255Z" transform="translate(-53)" fill="#a1a6a6"/>
      <path id="Trazado_168211" data-name="Trazado 168211" d="M-3372.46,3407.566l4.9-7.284,4.732,7.255Z" transform="translate(-351.603)" fill="#a1a6a6"/>
    </g>
  </g>
</svg>
