<svg xmlns="http://www.w3.org/2000/svg" width="88" height="88" viewBox="0 0 88 88">
  <g id="Grupo_120550" data-name="Grupo 120550" transform="translate(-0.174 -0.237)">
    <g id="Elipse_6755" data-name="Elipse 6755" transform="translate(0.174 0.237)" fill="#fff" stroke="#2631a0" stroke-width="4">
      <circle cx="44" cy="44" r="44" stroke="none"/>
      <circle cx="44" cy="44" r="42" fill="none"/>
    </g>
    <g id="Grupo_118955" data-name="Grupo 118955" transform="translate(16.41 10.663)">
      <path id="Trazado_168243" data-name="Trazado 168243" d="M-6008.626,3348.067a31.624,31.624,0,0,1-6.091-2.414c-7.937-4.413-12.93-11.041-14.357-20.021-1.629-10.256,1.657-18.914,9.463-25.75a26.2,26.2,0,0,1,14.828-6.382,26.967,26.967,0,0,1,19.441,5.164,26.662,26.662,0,0,1,11.169,19.013c1.152,9.994-2.253,18.3-9.856,24.85a26.2,26.2,0,0,1-9.92,5.27c-.28.082-.556.18-.834.27a1.248,1.248,0,0,1-.654.326,27.851,27.851,0,0,1-12.327.031A1.672,1.672,0,0,1-6008.626,3348.067Z" transform="translate(6029.481 -3293.325)" fill="#398dcb"/>
      <path id="Trazado_168244" data-name="Trazado 168244" d="M-5886.125,3669.638c.812.157,1.619.355,2.437.464a31.625,31.625,0,0,0,6.7.266c1.6-.128,3.137-.49,4.705-.729l-.014,6.51a.5.5,0,0,1-.188.067c-3.558.164-7.121.185-10.678.094a19.486,19.486,0,0,1-2.948-.161Z" transform="translate(5906.979 -3614.896)" fill="#3584be"/>
      <path id="Trazado_168245" data-name="Trazado 168245" d="M-5861.128,3714.943c0,1.715-.023,3.43,0,5.144.007.473-.132.61-.605.606q-4.028-.032-8.055,0c-.473,0-.612-.133-.605-.606.022-1.715,0-3.43,0-5.144a.683.683,0,0,1,.456-.071q4.178,0,8.357,0A.683.683,0,0,1-5861.128,3714.943Z" transform="translate(5893.539 -3653.545)" fill="#398dcb"/>
      <path id="Trazado_168258" data-name="Trazado 168258" d="M-5874.484,3714.539h-9.268a8.444,8.444,0,0,1-2.273-.145h13.814A8.456,8.456,0,0,1-5874.484,3714.539Z" transform="translate(5906.894 -3653.141)" fill="#5599cb"/>
      <path id="Trazado_168259" data-name="Trazado 168259" d="M-5974.558,3325.317a23.047,23.047,0,0,1,23.112,23.1,23.057,23.057,0,0,1-23.278,23.17,23.065,23.065,0,0,1-23.046-23.2A23.053,23.053,0,0,1-5974.558,3325.317Z" transform="translate(6002.383 -3320.662)" fill="#7ebae5"/>
      <path id="Trazado_168260" data-name="Trazado 168260" d="M-5926.554,3372.059c-.105.226-.2.431-.3.635-.35.734-.68,1.478-1.056,2.2a.963.963,0,0,0,.019,1.014,3.357,3.357,0,0,1,.427.992,1.684,1.684,0,0,0,1.491,1.406c.722.169,1.411.478,2.128.67.439.117.545.346.539.772-.025,1.537-.029,3.075,0,4.612.01.459-.112.684-.573.81-.869.24-1.72.547-2.578.827a3.673,3.673,0,0,0-.384.131,5.419,5.419,0,0,0-1.1,3.016c.39.84.778,1.681,1.194,2.508a.7.7,0,0,1-.064.855,19.293,19.293,0,0,1-3.441,3.443.659.659,0,0,1-.8.07c-.808-.4-1.631-.776-2.448-1.162-.7-.328-2.984.653-3.228,1.387-.291.879-.589,1.755-.859,2.64-.111.369-.267.551-.7.543-1.6-.028-3.209-.026-4.814,0a.587.587,0,0,1-.662-.5c-.294-.949-.629-1.884-.922-2.833a.807.807,0,0,0-.557-.614.25.25,0,0,1-.064-.023,3.545,3.545,0,0,0-4.116.109c-1.324.8-1.376.686-2.547-.32a20.208,20.208,0,0,1-2.471-2.6.839.839,0,0,1-.143-1.082c.422-.771.758-1.589,1.149-2.378a1.187,1.187,0,0,0,.032-.9,3.5,3.5,0,0,0-2.935-2.8c-1.745-.39-1.714-.527-1.714-2.308,0-1.108.04-2.218-.016-3.323-.03-.574.184-.786.7-.927.869-.24,1.712-.575,2.578-.828a1.262,1.262,0,0,0,.747-.694,3.247,3.247,0,0,0-.1-3.934,1.861,1.861,0,0,1,.33-2.792,31.442,31.442,0,0,1,2.739-2.522.6.6,0,0,1,.727-.077c.849.424,1.718.806,2.563,1.236a1.133,1.133,0,0,0,.887.026,3.523,3.523,0,0,0,2.789-2.939c.405-1.762.537-1.731,2.377-1.731,1.13,0,2.261.016,3.391-.009a.623.623,0,0,1,.728.515c.268.909.583,1.8.88,2.7.25.752,2.512,1.727,3.223,1.391.837-.4,1.678-.784,2.508-1.192a.548.548,0,0,1,.669.047,17.725,17.725,0,0,1,3.576,3.591A3.625,3.625,0,0,1-5926.554,3372.059Z" transform="translate(5968.457 -3354.287)" fill="#fe6b6b"/>
      <path id="Trazado_168261" data-name="Trazado 168261" d="M-5883.656,3429.907a9.172,9.172,0,0,1-9.227,9.215,9.237,9.237,0,0,1-9.263-9.33,9.271,9.271,0,0,1,9.31-9.207A9.217,9.217,0,0,1-5883.656,3429.907Z" transform="translate(5920.67 -3402.072)" fill="#fee25b"/>
      <path id="Trazado_168262" data-name="Trazado 168262" d="M-5844.353,3448c0,.971-.014,1.944.006,2.915.007.4-.117.545-.54.556-1.831.049-1.831.063-1.831-1.769,0-1.537.013-3.074-.009-4.611,0-.439.125-.577.577-.581,1.8-.018,1.8-.035,1.8,1.726Z" transform="translate(5873.312 -3422.515)" fill="#646363"/>
      <path id="Trazado_168263" data-name="Trazado 168263" d="M-5845.521,3510.513c-1.151,0-1.151,0-1.151-1.188,0-1.124,0-1.124,1.148-1.124,1.217,0,1.217,0,1.217,1.189a1.933,1.933,0,0,0,0,.337c.119.671-.18.9-.814.79A2.476,2.476,0,0,0-5845.521,3510.513Z" transform="translate(5873.265 -3476.943)" fill="#646463"/>
    </g>
  </g>
</svg>
