<svg xmlns="http://www.w3.org/2000/svg" width="80" height="80" viewBox="0 0 80 80">
  <g id="Grupo_119342" data-name="Grupo 119342" transform="translate(-284.705 -1538.5)">
    <g id="Elipse_6755" data-name="Elipse 6755" transform="translate(284.705 1538.5)" fill="#fff" stroke="#2631a0" stroke-width="4">
      <circle cx="40" cy="40" r="40" stroke="none"/>
      <circle cx="40" cy="40" r="38" fill="none"/>
    </g>
    <g id="Grupo_119214" data-name="Grupo 119214" transform="translate(860.389 1454.856)">
      <path id="Trazado_168828" data-name="Trazado 168828" d="M-513.375,284.52l-2.885,1.029a.82.82,0,0,1-.627-.417c-2.248-2.839-4.576-5.613-6.813-8.46-.2-.248-.409-.489-.591-.751a4.956,4.956,0,0,0-.565-.512c-.449-.472-.755-1.057-1.215-1.521-.166-.167-.318-.359-.1-.6a34.6,34.6,0,0,1,2.209-3.177,12.478,12.478,0,0,1,6.9-4.242c.137-.031.269-.084.4-.127a2.812,2.812,0,0,1,1.5-.343,20.711,20.711,0,0,1,9.874,1.813,15.918,15.918,0,0,0,5.048,1.038,19.723,19.723,0,0,0,2.8.133,37.254,37.254,0,0,0,3.874-.139,2.8,2.8,0,0,1,1.46.152c.358.181.755.271,1.1.481a1.75,1.75,0,0,1,.512,2.729,5.306,5.306,0,0,1-1.411,1.175,16.833,16.833,0,0,1-10.4,2.652,28.407,28.407,0,0,0-3.257-.092,5.3,5.3,0,0,1-.984-.034,5.248,5.248,0,0,0,.968.039c2.714-.053,5.411.279,8.124.322a10.2,10.2,0,0,0,6.747-2.677c.4-.327.761-.707,1.181-1.012,1.659-1.051,3.136-2.354,4.761-3.453,1.251-.846,2.463-1.752,3.793-2.477a6.8,6.8,0,0,0,1.615-.857,15.079,15.079,0,0,1,3.217-1.435c.55-.152,1.15-.339,1.6.146.488.531.232,1.142,0,1.715-1.448,2.994-3.9,5.141-6.282,7.323a43.709,43.709,0,0,1-8.237,5.911,30.206,30.206,0,0,1-9.376,3.6,21.624,21.624,0,0,1-4.458.255,24.723,24.723,0,0,0-8.263,1.133A16.871,16.871,0,0,0-513.375,284.52Z" transform="translate(-31.697 -138.819)" fill="#fec29b"/>
      <path id="Trazado_168829" data-name="Trazado 168829" d="M-477.112,167.6a8.2,8.2,0,0,1,.088-3.571c.784-4.456,2.952-8.295,5.446-11.977a25.441,25.441,0,0,1,4.126-4.944,4.125,4.125,0,0,0,.774-.662,12.389,12.389,0,0,1,6.375-2.729,7,7,0,0,1,6.174,1.986,39.138,39.138,0,0,1,8.855,12.747,24.571,24.571,0,0,1,1.909,7.757,12.711,12.711,0,0,1-.2,2.259,1.21,1.21,0,0,1-.6.845c-1.506,1.029-2.96,2.129-4.424,3.216a1.048,1.048,0,0,1-.643.269.392.392,0,0,1-.346-.4c.3-1.4-.113-2.128-1.507-2.451a8.5,8.5,0,0,0-3.24-.225c-.535.082-1.127.257-1.621-.189.006-.34.295-.463.5-.642a4.162,4.162,0,0,0-.736-7.05,8.142,8.142,0,0,0-2.976-.884,5.214,5.214,0,0,1-2.029-.6,1.764,1.764,0,0,1-.262-3.02,3.621,3.621,0,0,1,4.519.1,6.74,6.74,0,0,0,.679.625,1.276,1.276,0,0,0,1.521-.023,1.166,1.166,0,0,0,.17-1.55,4.74,4.74,0,0,0-2.616-1.966c-.533-.165-.813-.425-.783-1a1.414,1.414,0,0,0-.2-.818,1.151,1.151,0,0,0-1.158-.666,1.177,1.177,0,0,0-1.044.93,1.468,1.468,0,0,0-.058.492.931.931,0,0,1-.792,1.065,4.727,4.727,0,0,0-2.822,2.249,4.074,4.074,0,0,0,1.391,5.49,6.837,6.837,0,0,0,3,1.024,5.534,5.534,0,0,1,2.553.786,1.677,1.677,0,0,1,.343,2.68,3.41,3.41,0,0,1-4.63.249c-.266-.235-.495-.511-.771-.735a1.155,1.155,0,0,0-1.557-.01,1.133,1.133,0,0,0-.264,1.418,3.592,3.592,0,0,0,.635.849c.166.2.472.363.252.706a1.674,1.674,0,0,1-1.171-.115,35.342,35.342,0,0,1-3.331-1.207,19.017,19.017,0,0,0-8.082-1.092C-476.262,166.852-476.849,166.938-477.112,167.6Z" transform="translate(-71.385 -41.664)" fill="#f1ce8a"/>
      <path id="Trazado_168830" data-name="Trazado 168830" d="M-557.869,311.41c.2.669.836,1.028,1.142,1.621.081.157.308.222.288.447.115.2.333.291.459.476a7.9,7.9,0,0,0,.633.849c2.205,2.9,4.291,5.894,6.435,8.842a1.44,1.44,0,0,1-.191,2.2c-.828.874-1.759,1.648-2.511,2.6l-.206.177a.658.658,0,0,0-.5.431.582.582,0,0,1-.083.113c-1.473,1.231-1.794,1.175-3-.327q-4.689-5.837-9.417-11.643c-.841-1.036-.811-1.547.2-2.371l4.522-3.664C-559.19,310.429-558.667,310.488-557.869,311.41Z" transform="translate(0 -176.941)" fill="#6bb2d8"/>
      <path id="Trazado_168831" data-name="Trazado 168831" d="M-427.013,102.453a4.353,4.353,0,0,1-1.533-2.476c-.369-.97-.694-1.958-1.144-2.9a4.083,4.083,0,0,0-1.486-1.767.657.657,0,0,1-.186-1.08,5.694,5.694,0,0,1,2.79-1.97,2.273,2.273,0,0,1,1.7.332,10.594,10.594,0,0,0,6.688.684,28.327,28.327,0,0,1,5.206-.474,4.142,4.142,0,0,1,1.724.32c.4.191.645.489.347.958a9.263,9.263,0,0,1-1.67,1.31,5.726,5.726,0,0,0-2.224,2.78q-.553,1.385-1,2.807c-.306.968-.558,1.112-1.5.808a8.261,8.261,0,0,0-6.408.518C-426.113,102.508-426.53,102.835-427.013,102.453Z" transform="translate(-108.41)" fill="#f1ce8a"/>
      <path id="Trazado_168832" data-name="Trazado 168832" d="M-419.253,110.493a1.722,1.722,0,0,0,1.086-.231,8.616,8.616,0,0,1,4.493-1.038,9.181,9.181,0,0,1,2.278.455c.815.247.871.233,1.14-.6.361-1.122.758-2.228,1.21-3.318a6.468,6.468,0,0,1,2.778-2.926c.374-.235.626-.672,1.124-.707a10.674,10.674,0,0,1-1.332,1.91,19.06,19.06,0,0,0-2.176,4.984,1.768,1.768,0,0,1-.862,1.135c.71.615,1.416,1.19,2.081,1.808a35.583,35.583,0,0,1,10.426,16.675,20.359,20.359,0,0,1,.514,6.633,3.453,3.453,0,0,1-1.221.938c-2.195,1.424-4.287,2.989-6.369,4.569a1.556,1.556,0,0,1-.787.443c.107-.715.294-1.413.426-2.123l3.834-2.776c.057-.041.1-.112.162-.136,1.733-.674,1.743-2.18,1.669-3.643a19.84,19.84,0,0,0-1.024-5.323,35.112,35.112,0,0,0-6.585-11.633,30.939,30.939,0,0,0-3.981-4.113,6.554,6.554,0,0,0-5.157-1.186,14.36,14.36,0,0,0-6.411,2.641q-.066-.048-.043-.094c.015-.031.03-.046.045-.046A30.617,30.617,0,0,1-419.253,110.493Z" transform="translate(-116.17 -8.039)" fill="#d1b674"/>
      <path id="Trazado_168833" data-name="Trazado 168833" d="M-458.378,292.99a12.215,12.215,0,0,1,3.082-1.127,21.469,21.469,0,0,1,7.059-.858c5.206.285,9.833-1.437,14.262-3.952a48.92,48.92,0,0,0,11.681-9.344,13.767,13.767,0,0,0,2.494-3.419c.038-.081.017-.339.257-.2a14.272,14.272,0,0,1-2.527,4.647,41.973,41.973,0,0,1-12.215,11.4c-3.251,1.96-6.705,3.329-10.589,3.106-1.551-.089-3.095-.353-4.636-.577a21.715,21.715,0,0,0-8.655.3A1.185,1.185,0,0,1-458.378,292.99Z" transform="translate(-86.693 -147.289)" fill="#fca98d"/>
      <path id="Trazado_168834" data-name="Trazado 168834" d="M-476.411,265.311c-.01-.474,0-.805.675-.889a19.723,19.723,0,0,1,10.415,1.571,8.667,8.667,0,0,0,3.041.864c.2-.123.36-.007.526.081a4.744,4.744,0,0,0,1.259.605c.808.272.934.592.612,1.442a17.11,17.11,0,0,1-6.346-1.507,19,19,0,0,0-6.253-1.339,27.759,27.759,0,0,0-3.787.155Z" transform="translate(-72.086 -139.37)" fill="#d1b674"/>
      <path id="Trazado_168835" data-name="Trazado 168835" d="M-509.28,345.531c-.19-.312.114-.418.258-.568.69-.714,1.4-1.413,2.095-2.119.77-.779.788-1.227.163-2.093q-3.19-4.414-6.359-8.843c-.058-.144,0-.171.132-.136q3.356,4.125,6.713,8.249c.208.255.438.493.657.739.637,1.078.589,1.385-.41,2.193C-507.107,343.822-508.2,344.673-509.28,345.531Z" transform="translate(-42.334 -194.03)" fill="#477ea8"/>
      <path id="Trazado_168836" data-name="Trazado 168836" d="M-424.842,158.221q0,.07,0,.14c-.183.266-.356.546-.731.561A2.6,2.6,0,0,1-424.842,158.221Z" transform="translate(-113.262 -53.474)" fill="#ddc58b"/>
      <path id="Trazado_168837" data-name="Trazado 168837" d="M-496.557,405.595c-.078-.424.231-.4.5-.431Z" transform="translate(-55.76 -253.485)" fill="#5e98be"/>
      <path id="Trazado_168838" data-name="Trazado 168838" d="M-400.822,290.587a2.8,2.8,0,0,1-.426,2.123,11.817,11.817,0,0,1-6.411,3.756,19.959,19.959,0,0,1-4.459.053c-1.782-.106-3.552-.389-5.343-.395q-.071-.046-.047-.093t.047-.047c1.585,0,3.17.008,4.756,0a16.333,16.333,0,0,0,9.563-3.189,1.826,1.826,0,0,0,.878-2.234,1.771,1.771,0,0,0-1.055-.977c-.21-.1-.467-.09-.633-.284a2.435,2.435,0,0,1,2.847,1Z" transform="translate(-119.792 -159.529)" fill="#fca98d"/>
      <path id="Trazado_168839" data-name="Trazado 168839" d="M-367.241,282.248a3.637,3.637,0,0,0-2.847-1,5.88,5.88,0,0,0-2.218-.055,19.676,19.676,0,0,1-3.223.028c-.365-1.017-.208-1.3.936-1.679a1.725,1.725,0,0,0,.475-.218c.154-.061.3-.169.475-.041a3.03,3.03,0,0,0,1.661.056,7.666,7.666,0,0,1,3.88.441A1.606,1.606,0,0,1-367.241,282.248Z" transform="translate(-153.655 -151.481)" fill="#d1b674"/>
      <path id="Trazado_168840" data-name="Trazado 168840" d="M-394.1,278.6c-1.1.407-1.1.407-1.15,1.562a9.877,9.877,0,0,1-2.786-.128,1.051,1.051,0,0,0-1-1.389,2.063,2.063,0,0,1-1.022-.581c.321-.287.647-.082.972-.011a1.887,1.887,0,0,0,.758.1,2.355,2.355,0,0,1,.452.058,4.165,4.165,0,0,0,1.166.07c.666,0,1.332,0,2,0C-394.48,278.345-394.166,278.23-394.1,278.6Z" transform="translate(-133.932 -150.424)" fill="#54b546"/>
      <path id="Trazado_168841" data-name="Trazado 168841" d="M-515.381,328.592l-.132.136c-.2-.277-.508-.485-.582-.85a.084.084,0,0,1,.149,0Z" transform="translate(-39.945 -190.85)" fill="#5b8aab"/>
      <path id="Trazado_168842" data-name="Trazado 168842" d="M-421.384,325.066c0,.047,0,.093,0,.139h-.97l0-.139Z" transform="translate(-115.867 -188.61)" fill="#fdb494"/>
      <path id="Trazado_168843" data-name="Trazado 168843" d="M-517.643,325.98h-.148a.75.75,0,0,1-.4-.491A.792.792,0,0,1-517.643,325.98Z" transform="translate(-38.248 -188.953)" fill="#5f8eaf"/>
      <path id="Trazado_168844" data-name="Trazado 168844" d="M-407.15,204.406l-.429,0c-.213-.172-.5.023-.712-.139l-1-.139-.38-.158a13.165,13.165,0,0,1-1-1.1,1.374,1.374,0,0,1,.163-1.97,1.323,1.323,0,0,1,2,.261,3.377,3.377,0,0,0,4.345.823,1.869,1.869,0,0,0,1.076-1.645,1.74,1.74,0,0,0-1.138-1.506,4.376,4.376,0,0,0-1.28-.4c-.582-.1-1.174-.154-1.747-.289a5.077,5.077,0,0,1-3.9-2.975,4.539,4.539,0,0,1,3.074-5.949c.644-.214.833-.476.809-1.123a1.346,1.346,0,0,1,1.324-1.464,1.383,1.383,0,0,1,1.438,1.432.991.991,0,0,0,.856,1.164,4.7,4.7,0,0,1,2.47,1.826,1.4,1.4,0,0,1-.109,1.975,1.456,1.456,0,0,1-2.028-.225,3.286,3.286,0,0,0-3.976-.944,1.986,1.986,0,0,0-1.4,1.787,1.87,1.87,0,0,0,1.4,1.613,12.236,12.236,0,0,0,2.358.465,6.956,6.956,0,0,1,2.669,1.1,4.322,4.322,0,0,1,.179,7.091c-.168.131-.344.25-.517.375l-.408.138c-.293.126-.6.017-.9.05h-2.083A4.386,4.386,0,0,1-407.15,204.406Z" transform="translate(-124.695 -76.48)" fill="#54e246"/>
      <path id="Trazado_168845" data-name="Trazado 168845" d="M-371.813,280.19l.869.014a.46.46,0,0,1-.327.238c-.15-.183-.359-.092-.543-.12q-.072-.045-.047-.089C-371.845,280.2-371.829,280.19-371.813,280.19Z" transform="translate(-156.762 -152.263)" fill="#7bc654"/>
      <path id="Trazado_168846" data-name="Trazado 168846" d="M-380.907,280.186q0,.066,0,.133l-2.134,0q-.07-.044-.048-.089c.015-.031.03-.046.045-.046Z" transform="translate(-147.668 -152.259)" fill="#6ed34f"/>
      <path id="Trazado_168847" data-name="Trazado 168847" d="M-387.654,280.182q0,.068,0,.135c-.377-.055-.784.14-1.135-.136Z" transform="translate(-143.059 -152.255)" fill="#73bf51"/>
      <path id="Trazado_168848" data-name="Trazado 168848" d="M-394.789,279.4c.241.028.511-.094.712.139C-394.317,279.5-394.588,279.631-394.789,279.4Z" transform="translate(-138.197 -151.615)" fill="#6bbf4f"/>
    </g>
  </g>
</svg>
