<svg xmlns="http://www.w3.org/2000/svg" width="88" height="88" viewBox="0 0 88 88">
  <g id="Grupo_120551" data-name="Grupo 120551" transform="translate(-495 -1343)">
    <g id="Elipse_6756" data-name="Elipse 6756" transform="translate(495 1343)" fill="#fff" stroke="#2631a0" stroke-width="4">
      <circle cx="44" cy="44" r="44" stroke="none"/>
      <circle cx="44" cy="44" r="42" fill="none"/>
    </g>
    <g id="Grupo_118956" data-name="Grupo 118956" transform="translate(510.709 1352.398)">
      <path id="Trazado_168264" data-name="Trazado 168264" d="M-5949.751,3452.371a1.219,1.219,0,0,1,.629,1.24c-.033,1.114-.006,2.231-.01,3.346,0,.728-.351,1.156-.916,1.145s-.891-.437-.894-1.178c0-1.1.024-2.192-.011-3.286a1.329,1.329,0,0,1,.6-1.266Z" transform="translate(5986.589 -3452.371)" fill="#dc636e"/>
      <path id="Trazado_168265" data-name="Trazado 168265" d="M-6012.575,3621.508a18.142,18.142,0,0,0,2.98-.489c3.833-.714,7.655-1.489,11.488-2.205a2.912,2.912,0,0,1,3.212,1.388c-.077.922-.746,1.356-1.461,1.719a17.779,17.779,0,0,1-2.238.83c-4.118,1.432-8.225,2.893-12.342,4.328-3.251,1.133-6.488,2.3-9.75,3.408a25.031,25.031,0,0,1-9.416,1.236,25.417,25.417,0,0,1-6.211-1.133,5.33,5.33,0,0,1-3.723-4.591,21.743,21.743,0,0,1-.1-2.323q0-4.24,0-8.48a1.255,1.255,0,0,1,.161-.86c1.774-.894,3.507-1.891,5.335-2.659a8.6,8.6,0,0,1,8.3.843q1.868,1.173,3.774,2.285a8.133,8.133,0,0,0,4.777,1.136c1.206-.088,2.413-.149,3.619-.25a3.085,3.085,0,0,1,3.16,2.3,2.958,2.958,0,0,1-1.56,3.447,2.411,2.411,0,0,0-2.034-.242c-2.45.437-4.9.913-7.364,1.234a19.449,19.449,0,0,1-5.589-.068c-.885-.14-1.771-.278-2.649-.453a2.3,2.3,0,0,0-.593-.063c-.389.026-.726.164-.79.587a.7.7,0,0,0,.614.818c.756.185,1.527.286,2.291.415a23.048,23.048,0,0,0,4.988.427,43.842,43.842,0,0,0,5.438-.758c1.413-.25,2.821-.513,4.237-.732C-6013.31,3622.492-6012.766,3622.258-6012.575,3621.508Z" transform="translate(6054.687 -3573.477)" fill="#f0cfa4"/>
      <path id="Trazado_168266" data-name="Trazado 168266" d="M-5984.746,3517.45c-.1-2.521.317-1.9-1.8-3.645a10.155,10.155,0,0,1-1.248-13.8,10,10,0,0,1,6.711-3.813c.182-.11.358.041.539.008a8.62,8.62,0,0,1,4.116,1.773,10.216,10.216,0,0,1,3.771,10.993,9.641,9.641,0,0,1-3.768,5.5,2.129,2.129,0,0,0-1.025,2.114.933.933,0,0,1-.177.844.614.614,0,0,1-.225.076c-1.062.128-1.232-.018-1.233-1.081,0-1.531.012-3.064-.008-4.6a1.191,1.191,0,0,1,.706-1.24,2.581,2.581,0,0,0,1.436-2.134c.063-.576-.177-.963-.581-1.032s-.706.2-.857.794a1.4,1.4,0,0,1-2.259.953,1.76,1.76,0,0,1-.562-1.026.892.892,0,0,0-.508-.693c-.5-.191-.993.267-.937.892a2.667,2.667,0,0,0,1.343,2.145,1.451,1.451,0,0,1,.786,1.456c-.031,1.552,0,3.1-.013,4.655,0,.831-.1.919-.93.925-1.035.007-2.069-.01-3.1.01A.225.225,0,0,1-5984.746,3517.45Z" transform="translate(6016.346 -3485.803)" fill="#f5e166"/>
      <path id="Trazado_168267" data-name="Trazado 168267" d="M-6092.93,3633.72c-2.389.006-4.779.027-7.167.011-1.015-.007-1.577-.689-1.578-1.832q0-9.7,0-19.412c0-.358-.007-.717,0-1.075a1.522,1.522,0,0,1,1.62-1.6c1.394-.017,2.787,0,4.182-.008,1.57-.01,3.142-.036,4.716-.047a1.2,1.2,0,0,1,.644.061c-.517.385-1.116.108-1.7.226a2.426,2.426,0,0,1,.662,1.9q0,9.857,0,19.715a2.785,2.785,0,0,1-.1.886A1.476,1.476,0,0,1-6092.93,3633.72Z" transform="translate(6101.679 -3572.535)" fill="#365e7d"/>
      <path id="Trazado_168268" data-name="Trazado 168268" d="M-6046.618,3625.2c0,3.545-.007,7.091.014,10.637a6.033,6.033,0,0,0,.918,3.4,5.848,5.848,0,0,0,3.679,2.333,27.206,27.206,0,0,0,8.312.858,29.768,29.768,0,0,0,8.482-1.959c2.09-.761,4.2-1.476,6.293-2.218q7.893-2.79,15.78-5.586a2.9,2.9,0,0,0,1.6-1.6,2.906,2.906,0,0,1-1.279,4.344c-1.534.652-3.131,1.154-4.706,1.706q-9.9,3.471-19.807,6.927a24.578,24.578,0,0,1-9.949,1.111,27.136,27.136,0,0,1-9.041-2.451c-.763-.339-1.541-.642-2.313-.961a.95.95,0,0,1-.205-.781q-.008-7,0-14.006a.961.961,0,0,1,.2-.782Z" transform="translate(6061.333 -3584.336)" fill="#f0b885"/>
      <path id="Trazado_168269" data-name="Trazado 168269" d="M-6060.725,3614.606c-.008,2.525-.024,5.051-.023,7.575,0,2.665.019,5.329.026,7.994-.01.656-.021,1.311-.029,1.968a1.64,1.64,0,0,1-1.834,1.837c-.7,0-1.392-.012-2.089-.019a1.952,1.952,0,0,0,1.2-1.937q-.015-10,0-19.993a2.1,2.1,0,0,0-.945-1.975h2.172a1.56,1.56,0,0,1,1.5,1.706C-6060.735,3612.71-6060.733,3613.658-6060.725,3614.606Z" transform="translate(6073.423 -3572.776)" fill="#2b4d66"/>
      <path id="Trazado_168270" data-name="Trazado 168270" d="M-5947.511,3517.11c0-.02,0-.04,0-.06,0-2.543-.09-1.9,1.743-3.464a9.456,9.456,0,0,0,3.121-5.157,10,10,0,0,0-1.969-8.827,10.32,10.32,0,0,0-5.465-3.492,2.224,2.224,0,0,0-.412-.043c-.073-.131.035-.167.115-.216a10.091,10.091,0,0,1,10.718,8.5,9.743,9.743,0,0,1-3.91,9.714,2.518,2.518,0,0,0-1.162,2.363c.021.237,0,.477,0,.717A5.361,5.361,0,0,1-5947.511,3517.11Z" transform="translate(5986.254 -3485.552)" fill="#ebbd6b"/>
      <path id="Trazado_168271" data-name="Trazado 168271" d="M-5968.08,3585.659a.288.288,0,0,1,.085.021,8.061,8.061,0,0,1,1.428-.045,23.255,23.255,0,0,0,3.032-.118c.825-.14,1.653.205,2.49.116.312.09.271.363.275.586.017.873.039,1.747,0,2.618a3.131,3.131,0,0,1-2.663,3.047,9.586,9.586,0,0,1-2.135-.073,3.138,3.138,0,0,1-2.516-3C-5968.114,3587.764-5968.083,3586.711-5968.08,3585.659Z" transform="translate(5999.68 -3554.012)" fill="#365e7d"/>
      <path id="Trazado_168272" data-name="Trazado 168272" d="M-5985.755,3653.306c.095.636-.054.949-.688,1.093-1.058.242-2.133.416-3.2.6-1.52.262-3.037.532-4.561.756a20.354,20.354,0,0,1-4.726.241c-1.741-.148-3.445-.474-5.16-.752-.627-.1-.981-.514-.914-1.036a.932.932,0,0,1,1.119-.747c1.039.131,2.068.325,3.1.5a18.937,18.937,0,0,0,6.08.04c2.636-.4,5.254-.914,7.882-1.371a1.049,1.049,0,0,1,1.076.6A.394.394,0,0,0-5985.755,3653.306Z" transform="translate(6027.868 -3605.275)" fill="#f0b885"/>
      <path id="Trazado_168273" data-name="Trazado 168273" d="M-5960.6,3553.126l-7.063-.018a22.885,22.885,0,0,1,3.271-.055c.514,0,.722-.094.707-.676-.044-1.73-.026-3.462-.008-5.194a.669.669,0,0,0-.432-.732,2.965,2.965,0,0,1-1.705-2.364.984.984,0,0,1,.73-1.243c.556-.1.938.229,1.065.917a1.294,1.294,0,0,0,1.251,1.212c.659-.005,1.1-.465,1.236-1.277a.912.912,0,0,1,1.02-.859.89.89,0,0,1,.778,1.019,2.855,2.855,0,0,1-1.7,2.6.668.668,0,0,0-.451.717c.018,1.731.034,3.463-.007,5.194-.015.577.185.745.71.67.2-.027.4-.029.592-.042l2.783.032a.05.05,0,0,1-.024.058.483.483,0,0,1-.36.188A5.606,5.606,0,0,1-5960.6,3553.126Z" transform="translate(5999.348 -3521.441)" fill="#4a80a9"/>
      <path id="Trazado_168274" data-name="Trazado 168274" d="M-5945.872,3586.274l2.754-.037a18.866,18.866,0,0,1-.027,3.687,3.135,3.135,0,0,1-2.905,2.549c-.777.024-1.552-.006-2.327-.012a3.357,3.357,0,0,0,2.5-3.337Z" transform="translate(5984.621 -3554.588)" fill="#2b4d66"/>
      <path id="Trazado_168275" data-name="Trazado 168275" d="M-6003.011,3479.493a.858.858,0,0,1-.537.875.872.872,0,0,1-1.036-.229c-.546-.522-1.074-1.066-1.611-1.6-.364-.365-.744-.72-1.092-1.1a.89.89,0,0,1-.03-1.286.888.888,0,0,1,1.289-.014c.946.912,1.865,1.851,2.791,2.785A.762.762,0,0,1-6003.011,3479.493Z" transform="translate(6029.824 -3470.311)" fill="#dc636e"/>
      <path id="Trazado_168276" data-name="Trazado 168276" d="M-5884.363,3532.6c.638,0,1.275-.013,1.912,0a.906.906,0,0,1,.951.865.914.914,0,0,1-.905.93c-1.313.028-2.627.03-3.939,0a.872.872,0,0,1-.879-.939.87.87,0,0,1,.951-.854C-5885.637,3532.588-5885,3532.6-5884.363,3532.6Z" transform="translate(5937.926 -3513.629)" fill="#dc636e"/>
      <path id="Trazado_168277" data-name="Trazado 168277" d="M-5901.348,3476.794a.9.9,0,0,1-.316.719c-.875.871-1.741,1.751-2.623,2.615a.9.9,0,0,1-1.372.06.89.89,0,0,1,.092-1.326c.877-.9,1.772-1.776,2.657-2.665a.9.9,0,0,1,1.04-.222A.805.805,0,0,1-5901.348,3476.794Z" transform="translate(5952.197 -3470.335)" fill="#dc636e"/>
      <path id="Trazado_168278" data-name="Trazado 168278" d="M-6028.161,3534.406c-.6,0-1.193.014-1.789,0a.9.9,0,0,1-.994-.943c.014-.548.347-.859.991-.865q1.849-.02,3.7,0c.646.006.979.316.992.861a.9.9,0,0,1-.989.948C-6026.888,3534.421-6027.525,3534.406-6028.161,3534.406Z" transform="translate(6047.667 -3513.619)" fill="#dc636e"/>
      <path id="Trazado_168279" data-name="Trazado 168279" d="M-5951.9,3495.881l-.116.216-.5-.126A.787.787,0,0,1-5951.9,3495.881Z" transform="translate(5987.784 -3485.579)" fill="#f0d075"/>
      <path id="Trazado_168280" data-name="Trazado 168280" d="M-6072.708,3677.372c0-.378-.021-.758.006-1.134a.894.894,0,0,1,.91-.912.864.864,0,0,1,.9.908c.032.755.032,1.514,0,2.269a.856.856,0,0,1-.9.91.9.9,0,0,1-.917-.967c-.02-.357,0-.716,0-1.075Z" transform="translate(6079.563 -3622.614)" fill="#fdf4f2"/>
    </g>
  </g>
</svg>
