<svg xmlns="http://www.w3.org/2000/svg" width="124" height="124" viewBox="0 0 124 124">
  <g id="Grupo_119357" data-name="Grupo 119357" transform="translate(-265.5 -3538.594)">
    <g id="Elipse_6016" data-name="Elipse 6016" transform="translate(265.5 3538.594)" fill="#fff" stroke="#2631a0" stroke-width="4">
      <circle cx="62" cy="62" r="62" stroke="none"/>
      <circle cx="62" cy="62" r="60" fill="none"/>
    </g>
    <g id="Grupo_119350" data-name="Grupo 119350" transform="translate(174.371 4076.516)">
      <path id="Trazado_169285" data-name="Trazado 169285" d="M323.172-464.5v28.673a4.282,4.282,0,0,1-4.444,3.776c-.691.04-.873.338-.868.963.015,1.974.007,3.948,0,5.922,0,2.021-.251,2.195-2.017,1.282q-6.018-3.111-12.017-6.26a23.531,23.531,0,0,1-2.649-1.408c-.744-.521-1.665-.363-2.444-.724a1.907,1.907,0,0,1-.535-.766,3.875,3.875,0,0,0-3.807-2.254c-6.806.035-13.612.019-20.418.007-.529,0-1.1.122-1.555-.3a2.024,2.024,0,0,1-.27-1.3c-.024-2.041.035-4.082-.045-6.122.065-4.517.072-9.035-.007-13.552-.062-2.171.052-6.212.052-6.212a7.07,7.07,0,0,1,.253-2.6,4.626,4.626,0,0,1,4.056-3.2c2.575-.05,5.123.118,7.7.108,1.34-.005,2.369-.006,3.746,0q8.487.007,16.974,0c4.572,0,9.145.012,13.716-.007a4.994,4.994,0,0,1,3.661,1.566A4.454,4.454,0,0,1,323.172-464.5Z" transform="translate(-123.635 -34.688)" fill="#fed05c"/>
      <path id="Trazado_169286" data-name="Trazado 169286" d="M218.89-321.994c.023.514.065,1.027.065,1.541q.006,13.076,0,26.152c0,3.088-1.812,4.9-4.9,4.9-4.373,0-8.746.012-13.118-.012a1.472,1.472,0,0,0-1.35.67c-1.826,2.488-3.69,4.947-5.548,7.412-.179.237-.288.586-.691.556q-3.079-4.229-6.151-8.462c-.3-.411-.687-.341-1.076-.341-4.291,0-8.583-.073-12.872.022a4.765,4.765,0,0,1-5.026-5.016q.152-12.914,0-25.831a4.738,4.738,0,0,1,4.917-4.925c6.091.114,12.186.036,18.279.033.371,0,.742-.025,1.113-.038,2.111.013,4.223.036,6.334.038q7.578.009,15.155,0C216.749-325.29,217.866-324.532,218.89-321.994Z" transform="translate(-43.611 -145.079)" fill="#66c5b8"/>
      <path id="Trazado_169287" data-name="Trazado 169287" d="M148.471-477.722c-4.378,0-8.5.009-12.873-.006a3.354,3.354,0,0,0-1.633.393q-7.746,4.063-15.508,8.094c-.274.143-.554.273-.976.48v-2.024c0-2.06-.022-4.121.013-6.18.01-.6-.165-.813-.77-.762a4.543,4.543,0,0,1-3.384-.943,4.342,4.342,0,0,1-1.708-3.5q-.005-13.477,0-26.953a4.393,4.393,0,0,1,4.451-4.482q20.987-.019,41.974,0c2.439,0,4.112,1.729,4.273,4.327-.015,1.886-.032,5.655-.032,5.655l-.017.451c-2.543-.029-5.906.066-8.445-.035a5.377,5.377,0,0,0-5.046,3.145c-.29.271-.325.539-.647.775a4.4,4.4,0,0,0-.111,7.162.825.825,0,0,1,.439.678Z" fill="#f2705a"/>
      <path id="Trazado_169288" data-name="Trazado 169288" d="M367.813-408.941a4.666,4.666,0,0,1,4.734,4.713,4.676,4.676,0,0,1-4.769,4.767,4.746,4.746,0,0,1-4.719-4.761A4.739,4.739,0,0,1,367.813-408.941Z" transform="translate(-193.738 -80.654)" fill="#fefefe"/>
      <path id="Trazado_169289" data-name="Trazado 169289" d="M426.871-408.942a4.666,4.666,0,0,1,4.761,4.686,4.677,4.677,0,0,1-4.743,4.795,4.733,4.733,0,0,1-4.74-4.735A4.718,4.718,0,0,1,426.871-408.942Z" transform="translate(-239.269 -80.653)" fill="#fefefe"/>
      <path id="Trazado_169290" data-name="Trazado 169290" d="M308.707-408.941a4.7,4.7,0,0,1,4.777,4.686,4.709,4.709,0,0,1-4.757,4.794,4.763,4.763,0,0,1-4.752-4.733A4.748,4.748,0,0,1,308.707-408.941Z" transform="translate(-148.211 -80.653)" fill="#fefefe"/>
      <path id="Trazado_169291" data-name="Trazado 169291" d="M262.664-445.793a4.767,4.767,0,0,1-.7-8.343,1.835,1.835,0,0,1,1.009-.414A73.317,73.317,0,0,0,262.664-445.793Z" transform="translate(-114.184 -45.51)" fill="#fefefd"/>
      <path id="Trazado_169292" data-name="Trazado 169292" d="M204.1-267.641a4.758,4.758,0,0,1,4.812,4.673,4.787,4.787,0,0,1-4.773,4.818,4.809,4.809,0,0,1-4.774-4.738A4.768,4.768,0,0,1,204.1-267.641Z" transform="translate(-67.607 -189.531)" fill="#fefefe"/>
      <path id="Trazado_169293" data-name="Trazado 169293" d="M321.476-267.643a4.753,4.753,0,0,1,4.789,4.7,4.8,4.8,0,0,1-4.711,4.8,4.787,4.787,0,0,1-4.828-4.76A4.74,4.74,0,0,1,321.476-267.643Z" transform="translate(-158.037 -189.53)" fill="#fefefe"/>
      <path id="Trazado_169294" data-name="Trazado 169294" d="M263.169-258.152a4.807,4.807,0,0,1-4.731-4.777,4.766,4.766,0,0,1,4.859-4.713,4.766,4.766,0,0,1,4.689,4.8A4.806,4.806,0,0,1,263.169-258.152Z" transform="translate(-113.122 -189.53)" fill="#fefefe"/>
      <path id="Trazado_169295" data-name="Trazado 169295" d="M147.643-446.571a4.694,4.694,0,0,1-4.774-4.686,4.694,4.694,0,0,1,4.659-4.8,4.734,4.734,0,0,1,4.832,4.728A4.73,4.73,0,0,1,147.643-446.571Z" transform="translate(-24.072 -44.349)" fill="#fefefe"/>
      <path id="Trazado_169296" data-name="Trazado 169296" d="M206.639-446.574a4.7,4.7,0,0,1-4.72-4.742,4.7,4.7,0,0,1,4.806-4.742,4.742,4.742,0,0,1,4.693,4.786A4.747,4.747,0,0,1,206.639-446.574Z" transform="translate(-69.572 -44.347)" fill="#fefefe"/>
    </g>
  </g>
</svg>
