<svg xmlns="http://www.w3.org/2000/svg" width="88" height="88" viewBox="0 0 88 88">
  <g id="Grupo_120568" data-name="Grupo 120568" transform="translate(-495 -1426)">
    <g id="Elipse_6757" data-name="Elipse 6757" transform="translate(495 1426)" fill="#fff" stroke="#2631a0" stroke-width="4">
      <circle cx="44" cy="44" r="44" stroke="none"/>
      <circle cx="44" cy="44" r="42" fill="none"/>
    </g>
    <g id="Grupo_118957" data-name="Grupo 118957" transform="translate(513.854 1436.634)">
      <path id="Trazado_168281" data-name="Trazado 168281" d="M-5687.652,3408.245c.166-.375.354-.7.691-.676.831-.083,1.663-.014,2.495-.038a.838.838,0,0,0,.5-.074,3.5,3.5,0,0,1,.981-.043c1.625.013,3.25-.035,4.875-.029.227,0,.459-.041.662.178l3.438-.007a.493.493,0,0,1,.447-.165c1.184,0,2.367-.025,3.552.01.708-.032,1.417-.011,2.125-.01a.515.515,0,0,1,.446.164l3.449,0a.374.374,0,0,1,.15-.114c2.006-.053,4.014-.047,6.021-.052a.467.467,0,0,1,.4.168l3.438.01a.523.523,0,0,1,.486-.181c1.168,0,2.336-.025,3.5.013.736-.025,1.473,0,2.21-.009a.475.475,0,0,1,.371.1c.143.148.3.078.458.08.842.009,1.684-.007,2.526.014.367.009.634.428.627.944-.007.555-.216.877-.566.978a1.389,1.389,0,0,1-.385.017q-20.977,0-41.954.009a.9.9,0,0,1-.953-.645Z" transform="translate(5689.309 -3347.24)" fill="#678d98"/>
      <path id="Trazado_168282" data-name="Trazado 168282" d="M-5576.919,3274.66a4.265,4.265,0,0,1,.066,1.609,11.44,11.44,0,0,1-1.456,4.873,14.183,14.183,0,0,1-1.292,1.805,1.724,1.724,0,0,1-.878.933,6.329,6.329,0,0,0-.887.661,11,11,0,0,1-5.488,2.015,10.619,10.619,0,0,1-8.738-3.268,10.374,10.374,0,0,1-3.021-6.569,2.518,2.518,0,0,1-.067-.765,15.444,15.444,0,0,1,.361-1.715,10.885,10.885,0,0,1,4.989-6.327,10.609,10.609,0,0,1,5.742-1.519,10.856,10.856,0,0,1,6.872,2.561,10.845,10.845,0,0,1,3.579,5.544,2.715,2.715,0,0,1,.114.5c.015.171.029.342.054.49C-5576.962,3275.228-5577.131,3274.933-5576.919,3274.66Z" transform="translate(5628.672 -3251.132)" fill="#ca96e6"/>
      <path id="Trazado_168283" data-name="Trazado 168283" d="M-5665.186,3361.27h-6.08v-19.088c0-1.96.746-2.7,2.714-2.7.605,0,1.211.007,1.816.011a2.014,2.014,0,0,1,1.609,1.664,5.193,5.193,0,0,1,.146,1.351q0,8.889,0,17.776C-5664.984,3360.621-5664.915,3360.983-5665.186,3361.27Z" transform="translate(5678.139 -3300.955)" fill="#ffd54f"/>
      <path id="Trazado_168284" data-name="Trazado 168284" d="M-5583.268,3361.286l-6.1,0q.007-9.555.014-19.11c0-1.966.735-2.693,2.719-2.692.606,0,1.212.005,1.818.008a2.026,2.026,0,0,1,1.623,2.255q.014,7.4,0,14.809,0,2.013,0,4.026A1.421,1.421,0,0,1-5583.268,3361.286Z" transform="translate(5622.311 -3300.958)" fill="#ff5e8e"/>
      <path id="Trazado_168285" data-name="Trazado 168285" d="M-5573.524,3361.266a1.348,1.348,0,0,1-.123-.821c0-6.108-.03-12.217.023-18.325a2.627,2.627,0,0,0-1.447-2.646c1.039-.006,2.078-.019,3.117-.017a2.167,2.167,0,0,1,2.311,2.313c.013,1.407,0,2.814,0,4.223q0,7.6-.008,15.2A28.13,28.13,0,0,1-5573.524,3361.266Z" transform="translate(5612.567 -3300.938)" fill="#ff004c"/>
      <path id="Trazado_168286" data-name="Trazado 168286" d="M-5581.8,3263.006l1.275.955a12.384,12.384,0,0,1,2.865,3.933,13.292,13.292,0,0,1,.73,2.678c.025.2.034.4.049.6v1.028a14.526,14.526,0,0,0-.958-2.882,10.825,10.825,0,0,0-2.712-3.594,11.078,11.078,0,0,0-3.361-2.009,12.186,12.186,0,0,0-2.824-.638,10.433,10.433,0,0,0-4.461.514,10.419,10.419,0,0,0-4.526,2.912,10.458,10.458,0,0,0-2.758,5.686.312.312,0,0,1-.162.279q0-.3,0-.6c.088-.225-.026-.47.068-.695a10.262,10.262,0,0,1,2.3-5.76,10.67,10.67,0,0,1,6.922-4.009,10.686,10.686,0,0,1,7.065,1.333C-5582.128,3262.828-5581.965,3262.917-5581.8,3263.006Z" transform="translate(5628.637 -3247.643)" fill="#bc80e0"/>
      <path id="Trazado_168287" data-name="Trazado 168287" d="M-5655.484,3361.245q0-9.446,0-18.892a2.881,2.881,0,0,0-1.554-2.887c1.126-.006,2.253-.038,3.378-.012a2.133,2.133,0,0,1,2.059,2.3q.01,5.685,0,11.37,0,4.062,0,8.122Z" transform="translate(5668.437 -3300.93)" fill="#ffc328"/>
      <path id="Trazado_168288" data-name="Trazado 168288" d="M-5624.182,3352.4h-6.079q0-11.36,0-22.719c0-2.333.746-3.217,2.714-3.215.605,0,1.211.009,1.816.013a2.255,2.255,0,0,1,1.609,1.981,7.333,7.333,0,0,1,.146,1.607q0,10.579,0,21.158A1.758,1.758,0,0,1-5624.182,3352.4Z" transform="translate(5650.188 -3292.08)" fill="#88c3e0"/>
      <path id="Trazado_168289" data-name="Trazado 168289" d="M-5614.48,3352.366q0-11.243,0-22.485a3.614,3.614,0,0,0-1.553-3.435c1.125-.008,2.252-.046,3.377-.015,1.211.034,2.057,1.173,2.059,2.733q.009,6.768,0,13.534,0,4.833,0,9.667Z" transform="translate(5640.485 -3292.051)" fill="#43809f"/>
      <path id="Trazado_168290" data-name="Trazado 168290" d="M-5525.846,3337.032c-.381.384-.751.781-1.146,1.15a1.113,1.113,0,0,1-1.646-.027q-2.625-2.615-5.236-5.246a.652.652,0,0,1,.127-.4,5.369,5.369,0,0,1,1.335-1.318,1.175,1.175,0,0,1,1.56.225c.788.768,1.56,1.554,2.338,2.332q1.107,1.107,2.215,2.214A1.386,1.386,0,0,1-5525.846,3337.032Z" transform="translate(5584.484 -3295.165)" fill="#678c97"/>
      <path id="Trazado_168291" data-name="Trazado 168291" d="M-5527.881,3331.656a3.33,3.33,0,0,0-1.192-1.662q-1.907-1.912-3.819-3.819a1.161,1.161,0,0,0-1.833-.028,5.335,5.335,0,0,0-1.182,1.386c-.187-.176-.381-.346-.559-.531a1.124,1.124,0,0,1,.006-1.712l.412-.436a2.4,2.4,0,0,1,.932-.935c.105-.1.214-.188.315-.288a1.188,1.188,0,0,1,1.988.012q2.646,2.641,5.287,5.286c.141.142.287.28.418.431a1.081,1.081,0,0,1-.009,1.546C-5527.356,3331.169-5527.625,3331.406-5527.881,3331.656Z" transform="translate(5586.519 -3289.788)" fill="#537982"/>
      <path id="Trazado_168292" data-name="Trazado 168292" d="M-5538.257,3320.713a7.919,7.919,0,0,1-.932.936l-2.277-2.319.878-.933Z" transform="translate(5589.66 -3286.583)" fill="#678d97"/>
      <path id="Trazado_168293" data-name="Trazado 168293" d="M-5573.368,3285.115a7.18,7.18,0,0,1-1.659,3.75,7.675,7.675,0,0,1-4.9,2.825,7.766,7.766,0,0,1-6.368-1.735,7.709,7.709,0,0,1-2.68-4.376c-.036-.151-.043-.31-.064-.464a2.353,2.353,0,0,1,.154-1.258,7.928,7.928,0,0,1,6.424-5.434,7.834,7.834,0,0,1,6.458,1.786,8.13,8.13,0,0,1,2.467,3.606A2.559,2.559,0,0,1-5573.368,3285.115Z" transform="translate(5622.109 -3259.252)" fill="#dbf3f6"/>
      <path id="Trazado_168294" data-name="Trazado 168294" d="M-5573.655,3279.811a6.607,6.607,0,0,0-1.062-2.909,7.673,7.673,0,0,0-5.562-3.685,7.7,7.7,0,0,0-6.343,1.786,7.839,7.839,0,0,0-2.646,4.342,2.862,2.862,0,0,0-.057.466,6.209,6.209,0,0,1,.033-2.959,7.942,7.942,0,0,1,6.543-6.232,7.993,7.993,0,0,1,8.223,3.994,8.306,8.306,0,0,1,1.025,4.023A3.686,3.686,0,0,1-5573.655,3279.811Z" transform="translate(5622.396 -3253.948)" fill="#b8eff0"/>
      <path id="Trazado_168295" data-name="Trazado 168295" d="M-5676.9,3304.227a2.049,2.049,0,0,1-1.725-.779c-1.323-1.334-2.687-2.63-3.973-4-.624-.665-1.04-.7-1.687-.015-1.516,1.6-3.1,3.148-4.674,4.695-1.134,1.112-2.3,1.212-3.227.329-.971-.929-.888-2.159.272-3.332q3.322-3.357,6.679-6.679c1.243-1.226,2.3-1.23,3.544-.026,1.382,1.342,2.753,2.7,4.082,4.092.5.526.807.545,1.326.011,1.963-2.023,3.968-4.006,5.969-5.992,1.25-1.24,2.456-1.349,3.429-.344.9.929.758,2.12-.436,3.319q-3.877,3.9-7.774,7.777A2.249,2.249,0,0,1-5676.9,3304.227Z" transform="translate(5692.856 -3268.253)" fill="#fd5693"/>
      <path id="Trazado_168296" data-name="Trazado 168296" d="M-5659.609,3223.377c-.07.151-.132.287-.2.422-.232.489-.453.983-.7,1.463a.641.641,0,0,0,.012.675,2.214,2.214,0,0,1,.283.659,1.123,1.123,0,0,0,.992.935c.48.113.938.317,1.416.445.292.079.362.23.357.514-.016,1.022-.018,2.045,0,3.068.006.305-.075.455-.381.539-.579.159-1.144.364-1.715.55a2.344,2.344,0,0,0-.255.087,3.6,3.6,0,0,0-.734,2.006c.259.559.517,1.118.794,1.668a.467.467,0,0,1-.043.569,12.831,12.831,0,0,1-2.29,2.29.438.438,0,0,1-.532.046c-.538-.269-1.084-.516-1.628-.772a2.508,2.508,0,0,0-2.146.923c-.193.584-.392,1.167-.571,1.756-.075.245-.178.366-.465.361q-1.6-.028-3.2,0a.39.39,0,0,1-.44-.333c-.2-.631-.419-1.253-.613-1.885a.536.536,0,0,0-.371-.407.159.159,0,0,1-.042-.016,2.359,2.359,0,0,0-2.738.072c-.881.534-.915.456-1.694-.213a13.387,13.387,0,0,1-1.643-1.729.557.557,0,0,1-.1-.719c.281-.513.5-1.057.764-1.582a.8.8,0,0,0,.021-.6,2.326,2.326,0,0,0-1.952-1.861c-1.16-.26-1.14-.351-1.14-1.535,0-.737.026-1.476-.012-2.21-.019-.381.123-.522.465-.617.578-.159,1.139-.382,1.714-.55a.839.839,0,0,0,.5-.462,2.161,2.161,0,0,0-.064-2.617,1.238,1.238,0,0,1,.219-1.857,20.7,20.7,0,0,1,1.822-1.677.4.4,0,0,1,.483-.052c.564.282,1.142.536,1.7.822a.753.753,0,0,0,.59.017,2.345,2.345,0,0,0,1.855-1.955c.269-1.172.357-1.152,1.581-1.152.752,0,1.5.011,2.256-.005a.414.414,0,0,1,.483.342c.179.6.387,1.2.586,1.8a2.46,2.46,0,0,0,2.144.925c.557-.263,1.115-.522,1.668-.794a.365.365,0,0,1,.445.032,11.805,11.805,0,0,1,2.378,2.389A2.424,2.424,0,0,1-5659.609,3223.377Z" transform="translate(5684.482 -3218.459)" fill="#fe6b6b"/>
      <path id="Trazado_168297" data-name="Trazado 168297" d="M-5651.275,3241.657a6.1,6.1,0,0,1-6.137,6.129,6.144,6.144,0,0,1-6.16-6.206,6.166,6.166,0,0,1,6.191-6.125A6.13,6.13,0,0,1-5651.275,3241.657Z" transform="translate(5672.895 -3230.045)" fill="#fee25b"/>
    </g>
  </g>
</svg>
