<svg xmlns="http://www.w3.org/2000/svg" width="80" height="80" viewBox="0 0 80 80">
  <g id="Grupo_119344" data-name="Grupo 119344" transform="translate(-284.705 -1802.5)">
    <g id="Elipse_6757" data-name="Elipse 6757" transform="translate(284.705 1802.5)" fill="#fff" stroke="#2631a0" stroke-width="4">
      <circle cx="40" cy="40" r="40" stroke="none"/>
      <circle cx="40" cy="40" r="38" fill="none"/>
    </g>
    <g id="Grupo_119216" data-name="Grupo 119216" transform="translate(940.826 2584.566)">
      <path id="Trazado_168877" data-name="Trazado 168877" d="M-565.953-767.789h14.47a1.28,1.28,0,0,1,.169.915q.006,6.8,0,13.6,0,5.946,0,11.893a1.784,1.784,0,0,1-.11.886c-.236.259-.554.2-.847.2-2.257.006-4.515,0-6.772,0a3.383,3.383,0,0,0-.7.04,1.371,1.371,0,0,0-1.111,1.308,1.365,1.365,0,0,0,1.065,1.293,3.093,3.093,0,0,0,.749.051c2.257,0,4.515,0,6.772,0a1.127,1.127,0,0,1,.815.163.836.836,0,0,1,.131.524q.013,2.247,0,4.494a1.071,1.071,0,0,1-.076.44.354.354,0,0,1-.137.143,1.706,1.706,0,0,1-.739.09q-6.991,0-13.982,0a1.331,1.331,0,0,1-.825-.14,1,1,0,0,1-.147-.672q-.006-12.853,0-25.7a2.177,2.177,0,0,1,.018-.25c-.021-1-.028-2,0-3-.019-1.519-.012-3.038,0-4.558A1.526,1.526,0,0,1-565.953-767.789Z" transform="translate(-64.342 0)" fill="#fefaf3"/>
      <path id="Trazado_168878" data-name="Trazado 168878" d="M-450-731.926q0-2.747.007-5.494l.058-.072a1.459,1.459,0,0,1,.785-.107q3.339-.005,6.677,0a3.8,3.8,0,0,0,.751-.039,1.345,1.345,0,0,0,1.1-1.313,1.34,1.34,0,0,0-1.107-1.306,3.656,3.656,0,0,0-.7-.038q-3.338,0-6.677,0a2.276,2.276,0,0,1-.747-.06.293.293,0,0,1-.139-.119l0-27.312h6.431a.427.427,0,0,1,.2.2,2.4,2.4,0,0,1,.064.8c0,2.039,0,4.078,0,6.117,0,1.264.5,1.767,1.756,1.769,2.072,0,4.145,0,6.217,0a1.888,1.888,0,0,1,.791.089.5.5,0,0,1,.234.313,2.482,2.482,0,0,1,.052.7q0,12.517,0,25.035a1.442,1.442,0,0,1-.138.877,1.078,1.078,0,0,1-.72.151q-7.094.005-14.187,0C-449.542-731.747-449.8-731.712-450-731.926Z" transform="translate(-165.829 0)" fill="#e1def3"/>
      <path id="Trazado_168879" data-name="Trazado 168879" d="M-425.349-688.93c-.164.146-.135.365-.193.548a4.512,4.512,0,0,1-4.291,3.169q-7.106.009-14.212,0a.891.891,0,0,1-.662.165q-2.852.007-5.7,0a1.018,1.018,0,0,1-.671-.147,1.026,1.026,0,0,1-.16-.717q-.007-3.059,0-6.118a.91.91,0,0,1,.174-.709l-.011-.025,15.577-.005a1.142,1.142,0,0,1,.772-.15c1.826,0,3.651,0,5.477,0,.687,0,.719-.029.72-.7q0-11.983,0-23.967c0-1.153-.471-1.618-1.621-1.625-1.524-.011-3.048,0-4.572-.005a1.022,1.022,0,0,1-.764-.168l-.113-.2c-.735-.859-1.571-1.621-2.346-2.441-.116-.122-.349-.288-.039-.471a2.26,2.26,0,0,1,.7-.054q3.663,0,7.326,0a4.671,4.671,0,0,1,4.262,2.531,4.66,4.66,0,0,1,.356,1.442Z" transform="translate(-164.751 -39.166)" fill="#002659"/>
      <path id="Trazado_168880" data-name="Trazado 168880" d="M-615.818-691.733q0,3.755.006,7.51l-.069.073a1.393,1.393,0,0,1-.734.108q-2.7,0-5.408,0a1.046,1.046,0,0,1-.765-.152q-6.352-.007-12.7-.018a12.851,12.851,0,0,1-2.3-.073,4.488,4.488,0,0,1-3.75-4.439c-.016-3.883-.005-7.766-.005-11.65q0-8.085,0-16.169a4.535,4.535,0,0,1,4.823-4.846c1.774,0,3.548.007,5.322.01q0,1.5,0,2.992a.983.983,0,0,1-.76.177c-1.456,0-2.912,0-4.368,0-1.339,0-1.829.482-1.83,1.8q0,11.849,0,23.7c0,.78.012.792.776.793,1.808,0,3.615,0,5.423,0a1.146,1.146,0,0,1,.772.15l7.163.016Z" transform="translate(0 -40.168)" fill="#17669f"/>
      <path id="Trazado_168881" data-name="Trazado 168881" d="M-611.977-672.406c-2.276.005-4.552.008-6.829.02-.241,0-.337-.079-.311-.317a2.8,2.8,0,0,0,0-.3q0-12.077,0-24.155c0-1.31.548-1.859,1.854-1.861l5.272-.011q0,9.344.008,18.687Z" transform="translate(-19.419 -59.525)" fill="#bdeaf9"/>
      <path id="Trazado_168882" data-name="Trazado 168882" d="M-513.866-696.015c-.752-.023-1.137-.372-1.108-1.106.02-.489-.127-.659-.626-.714a4.355,4.355,0,0,1-2.045-.894.98.98,0,0,1-.263-1.413,1.032,1.032,0,0,1,1.392-.233,4.423,4.423,0,0,0,1.128.535c.257.071.409.01.406-.309-.011-1.321-.014-2.643,0-3.964,0-.33-.194-.413-.428-.528a3.7,3.7,0,0,1-2.185-2.139,3.584,3.584,0,0,1,2.182-4.427c.408-.14.432-.368.429-.71a1,1,0,0,1,1.114-1.157.928.928,0,0,1,.159.668q.005,7.862,0,15.724A.927.927,0,0,1-513.866-696.015Z" transform="translate(-106.872 -47.367)" fill="#fef07c"/>
      <path id="Trazado_168883" data-name="Trazado 168883" d="M-486.717-696.015c-.008-.15-.023-.3-.023-.45q0-8.079,0-16.158c0-.15.015-.3.023-.45a.987.987,0,0,1,.878,1.141c-.012.36.109.491.445.564a3.214,3.214,0,0,1,1.609.876,1,1,0,0,1,.106,1.439.994.994,0,0,1-1.434.078,1.831,1.831,0,0,0-.714-.4v2.663c0,.888,0,.888.81,1.226a3.67,3.67,0,0,1,2.421,3.579,4.2,4.2,0,0,1-2.687,3.884.7.7,0,0,0-.556.818A1,1,0,0,1-486.717-696.015Z" transform="translate(-134.021 -47.367)" fill="#fecc00"/>
      <path id="Trazado_168884" data-name="Trazado 168884" d="M-511.522-561.358q-3.862-.011-7.723-.023a2.929,2.929,0,0,1-.647-.043,1.511,1.511,0,0,1-1.171-1.639,1.506,1.506,0,0,1,1.517-1.327c2.491-.01,4.983,0,7.474-.005.183,0,.367-.013.55-.02l-.006.041a.342.342,0,0,1,.124.212,14.868,14.868,0,0,1,0,2.551.341.341,0,0,1-.124.212Z" transform="translate(-104.299 -176.062)" fill="#17669f"/>
      <path id="Trazado_168885" data-name="Trazado 168885" d="M-334-698.968l5.522,0a1.478,1.478,0,0,1,1.606,1.623q0,12.249.01,24.5c0,.421-.107.523-.522.518-2.208-.027-4.417-.021-6.625-.027q0-12.931,0-25.863C-334.006-698.466-334-698.717-334-698.968Z" transform="translate(-266.243 -59.579)" fill="#8bbbfe"/>
      <path id="Trazado_168886" data-name="Trazado 168886" d="M-401.32-766.984a2.187,2.187,0,0,1,.812.566q2.579,2.589,5.167,5.169c.141.14.3.263.449.393.588.746,1.321,1.352,1.969,2.041a1.741,1.741,0,0,1,.532.767q-3.641,0-7.282,0a1.544,1.544,0,0,1-1.655-1.654Q-401.326-763.343-401.32-766.984Z" transform="translate(-207.965 -0.697)" fill="#b3b8f0"/>
      <path id="Trazado_168887" data-name="Trazado 168887" d="M-449.993-561.234v-2.976c2.724-.006,5.448-.023,8.171-.01a1.452,1.452,0,0,1,1.378,1.5,1.453,1.453,0,0,1-1.378,1.5C-444.545-561.21-447.269-561.228-449.993-561.234Z" transform="translate(-165.835 -176.227)" fill="#002659"/>
      <path id="Trazado_168888" data-name="Trazado 168888" d="M-434.707-654.067c.8,0,1.605-.006,2.407,0a1.513,1.513,0,0,1,1.6,1.5,1.509,1.509,0,0,1-1.6,1.508q-2.432.011-4.865,0a1.51,1.51,0,0,1-1.576-1.528,1.514,1.514,0,0,1,1.57-1.482C-436.346-654.074-435.526-654.067-434.707-654.067Z" transform="translate(-175.581 -98.448)" fill="#002659"/>
      <path id="Trazado_168889" data-name="Trazado 168889" d="M-434.767-606.162c-.786,0-1.572.005-2.357,0a1.519,1.519,0,0,1-1.61-1.495,1.51,1.51,0,0,1,1.586-1.516q2.432-.012,4.865,0a1.507,1.507,0,0,1,1.585,1.518,1.516,1.516,0,0,1-1.611,1.493C-433.129-606.157-433.948-606.162-434.767-606.162Z" transform="translate(-175.581 -137.309)" fill="#002659"/>
      <path id="Trazado_168890" data-name="Trazado 168890" d="M-451.059-444.631l7.016.016c.134,1.089.507,2.122.738,3.189.133.615.317,1.218.478,1.827a.8.8,0,0,1-.657.173q-3.458.009-6.917,0a1.05,1.05,0,0,1-.674-.143.92.92,0,0,1-.164-.664q-.009-1.878,0-3.757a.837.837,0,0,1,.153-.616Z" transform="translate(-164.753 -279.76)" fill="#17669f"/>
      <path id="Trazado_168891" data-name="Trazado 168891" d="M-503.06-444.431q.007,2.506.015,5.012l-.073.068a1.509,1.509,0,0,1-.737.1q-3.308,0-6.616,0c-.277,0-.575.057-.809-.169l1.271-5.006Z" transform="translate(-112.778 -279.933)" fill="#2188d9"/>
      <path id="Trazado_168892" data-name="Trazado 168892" d="M-451.077-407.166l8.244-.007c.636,0,1.273-.01,1.908.011a1.473,1.473,0,0,1,1.4,1.48,1.459,1.459,0,0,1-1.408,1.523c-3.381.009-6.763,0-10.145-.009a.488.488,0,0,1-.153-.356q-.044-1.141,0-2.283a.549.549,0,0,1,.151-.359Z" transform="translate(-164.747 -312.186)" fill="#002659"/>
      <path id="Trazado_168893" data-name="Trazado 168893" d="M-524.454-407.149q0,1.5,0,3c-3.359.005-6.719.018-10.078.009a1.49,1.49,0,0,1-1.48-1.518,1.51,1.51,0,0,1,1.516-1.486c.6-.014,1.2-.005,1.805-.007Z" transform="translate(-91.37 -312.203)" fill="#17669f"/>
      <path id="Trazado_168894" data-name="Trazado 168894" d="M-499.776-682.519c0,.282.006.565,0,.847,0,.107.061.255-.079.309-.125.049-.208-.079-.3-.143-.67-.478-.343-1.7.16-2.113.188-.156.216.007.218.154C-499.774-683.15-499.776-682.835-499.776-682.519Z" transform="translate(-122.082 -72.811)" fill="#fefaf0"/>
      <path id="Trazado_168895" data-name="Trazado 168895" d="M-479.641-642.157a1.55,1.55,0,0,1,1.165,1.38,2.2,2.2,0,0,1-1.165,2.139Z" transform="translate(-140.168 -108.76)" fill="#fefaf2"/>
    </g>
  </g>
</svg>
