<svg xmlns="http://www.w3.org/2000/svg" width="88" height="88" viewBox="0 0 88 88">
  <g id="Grupo_120569" data-name="Grupo 120569" transform="translate(-495 -1511)">
    <g id="Elipse_6759" data-name="Elipse 6759" transform="translate(495 1511)" fill="#fff" stroke="#2631a0" stroke-width="4">
      <circle cx="44" cy="44" r="44" stroke="none"/>
      <circle cx="44" cy="44" r="42" fill="none"/>
    </g>
    <g id="Grupo_118958" data-name="Grupo 118958" transform="translate(507.608 1524.076)">
      <path id="Trazado_168298" data-name="Trazado 168298" d="M-5926.956,3290.138h-3.3c-.734-.161-1.487-.115-2.228-.2a23.175,23.175,0,0,1-5.756-1.532,30.979,30.979,0,0,1-11.643-7.933,30.458,30.458,0,0,1-6.294-10.213,26.008,26.008,0,0,1-1.707-8.62c-.035-2.216-.051-4.43.108-6.637a24.216,24.216,0,0,1,1.759-7.011,30.7,30.7,0,0,1,8.251-11.854,30.384,30.384,0,0,1,15.247-7.457,33.649,33.649,0,0,1,4.9-.487c.324-.01.667-.012.831.367a1.767,1.767,0,0,1,.105.778q.012,4.047,0,8.094a1.83,1.83,0,0,1-.1.777c-.135.347-.439.381-.751.4a23.652,23.652,0,0,0-5.225.842,20.956,20.956,0,0,0-7.983,4.427,20.516,20.516,0,0,0-4.848,6.356,20.365,20.365,0,0,0-2.013,7.18,20.1,20.1,0,0,0,2.03,11,20.351,20.351,0,0,0,11.417,10.336,19.029,19.029,0,0,0,6.126,1.24c.452.015.952.014,1.241.492a1.989,1.989,0,0,1,.1.841q.012,3.9,0,7.8C-5926.681,3289.48-5926.617,3289.868-5926.956,3290.138Z" transform="translate(5957.907 -3227.726)" fill="#fb5356"/>
      <path id="Trazado_168299" data-name="Trazado 168299" d="M-5909.334,3299.748v-9.759l.041-.088a2.449,2.449,0,0,1,1.405-.288,20.131,20.131,0,0,0,11.46-4.491,20.217,20.217,0,0,0,6.553-9.153,21.418,21.418,0,0,0,1.185-5.89,20.533,20.533,0,0,0-2.646-11.351c-.156-.285-.375-.547-.2-.9.437-.288.9-.11,1.351-.057,1.143.133,2.279.33,3.425.436a2.032,2.032,0,0,0,1.7-.634c.809-.795,1.491-1.708,2.338-2.466.225-.2.42-.45.77-.427.349.066.475.353.614.625a30.171,30.171,0,0,1,2.695,8.264,28.75,28.75,0,0,1,.459,5.152,31.277,31.277,0,0,1-1.363,9.372,30.783,30.783,0,0,1-5.484,10.336,31.4,31.4,0,0,1-8.89,7.6,29.279,29.279,0,0,1-8.972,3.406c-1.074.211-2.177.147-3.258.313Z" transform="translate(5940.285 -3237.335)" fill="#f60b57"/>
      <path id="Trazado_168300" data-name="Trazado 168300" d="M-5876.239,3244.892c-.968.983-1.95,1.952-2.9,2.954a2.26,2.26,0,0,1-2.125.763c-1.5-.225-3.016-.4-4.525-.589-.2.232-.455.2-.726.173-.924-.1-1.839-.283-2.77-.338a3.639,3.639,0,0,0-1-.193,2.324,2.324,0,0,1-1.843-2.148,1.657,1.657,0,0,0-.122-.586c-.172-1.241-.453-2.465-.582-3.713-.207-1.156-.344-2.33-.624-3.465a3.325,3.325,0,0,1,1.12-3.6c.732-.643,1.393-1.37,2.08-2.064a1.275,1.275,0,0,1,.77-.454c1.144-1.158,2.281-2.321,3.431-3.472a1.841,1.841,0,0,1,2.268-.49,1.932,1.932,0,0,1,1.057,1.542c.4,2.365.807,4.729,1.186,7.1.063.388.19.536.594.586,2.28.286,4.55.641,6.832.9a2.3,2.3,0,0,1,2.134,1.513v.855a2.739,2.739,0,0,1-.886,1.589c-.918.851-1.676,1.859-2.6,2.709A1.141,1.141,0,0,1-5876.239,3244.892Z" transform="translate(5934.575 -3227.461)" fill="#fed230"/>
      <path id="Trazado_168301" data-name="Trazado 168301" d="M-5921.31,3286.149a27.447,27.447,0,0,1-5.778-.852,20.941,20.941,0,0,1-9.224-5.5,20.5,20.5,0,0,1-5.543-10.274,20.567,20.567,0,0,1,1.346-12.944,20.729,20.729,0,0,1,8.775-9.7,20.688,20.688,0,0,1,9.637-2.753c.263-.011.527-.027.791-.042l.1.07a1.012,1.012,0,0,1,.174.7q.022,4.514,0,9.028a1.31,1.31,0,0,1-.092.6c-.135.349-.438.387-.75.4a9.947,9.947,0,0,0-6.655,2.947,9.9,9.9,0,0,0-3.019,6.986,9.865,9.865,0,0,0,2.193,6.632,10.081,10.081,0,0,0,6.672,3.793c.322.045.639.121.966.139a.619.619,0,0,1,.586.37,1.98,1.98,0,0,1,.1.839q.012,4.258,0,8.514c0,.352.078.746-.283,1Z" transform="translate(5952.259 -3233.494)" fill="#fefefe"/>
      <path id="Trazado_168302" data-name="Trazado 168302" d="M-5895.2,3232.055c-1.013,1.052-2.009,2.118-3.042,3.148a2.408,2.408,0,0,0-.747,2.3,33.351,33.351,0,0,1,.627,4.078c-.3.219-.552.016-.788-.118a22.2,22.2,0,0,0-8.559-2.661,9.59,9.59,0,0,0-.977-.026.812.812,0,0,1-.658-.257l.008-.038q0-4.923,0-9.844a30.029,30.029,0,0,1,12.109,2.448C-5896.539,3231.381-5895.875,3231.732-5895.2,3232.055Z" transform="translate(5940.288 -3227.889)" fill="#f60b57"/>
      <path id="Trazado_168303" data-name="Trazado 168303" d="M-5909.344,3291.521l0-10.454c.012-.029.023-.059.036-.088.391-.338.893-.237,1.338-.3a10.345,10.345,0,0,0,8.5-7.5,9.886,9.886,0,0,0-.767-7.272,5.223,5.223,0,0,1-.542-1.155.931.931,0,0,1,.385-.787c1.505-1.51,3.017-3.012,4.519-4.526a1.4,1.4,0,0,1,.847-.433l3.526.458a20.981,20.981,0,0,1,2.717,6.845,20.84,20.84,0,0,1,.134,7.62,20.622,20.622,0,0,1-7.176,12.625,20.266,20.266,0,0,1-10.607,4.752A18.918,18.918,0,0,1-5909.344,3291.521Z" transform="translate(5940.288 -3238.906)" fill="#c7fcf9"/>
      <path id="Trazado_168304" data-name="Trazado 168304" d="M-5909.342,3244.15a20.32,20.32,0,0,1,10.393,2.746c.194.109.391.211.587.316a29.9,29.9,0,0,1,.666,3.778,1.508,1.508,0,0,1-.488.885c-1.427,1.509-3,2.865-4.464,4.335a.992.992,0,0,1-.785.406c-.874-.275-1.6-.865-2.48-1.142a11.258,11.258,0,0,0-2.789-.565.833.833,0,0,1-.573-.157.212.212,0,0,1-.06-.177Z" transform="translate(5940.288 -3233.515)" fill="#c7fcf9"/>
      <path id="Trazado_168305" data-name="Trazado 168305" d="M-5903.5,3260.4l5.641-5.51c.01.017.029.034.029.052a2.447,2.447,0,0,0,2.639,2.574l-5.65,5.623c.034.426-.264.664-.533.9-2.165,1.931-4.126,4.068-6.2,6.089a3.71,3.71,0,0,1-.994.789.88.88,0,0,1-1.027-.005.584.584,0,0,1-.093-.184,19.609,19.609,0,0,1,0-4.076c0-.065,0-.131,0-.2a3.668,3.668,0,0,1,.772-.992c1.534-1.535,3.061-3.076,4.6-4.6A1.158,1.158,0,0,1-5903.5,3260.4Z" transform="translate(5940.454 -3237.411)" fill="#2a3b3b"/>
      <path id="Trazado_168306" data-name="Trazado 168306" d="M-5915.337,3268.362l-.038.132c-.125.646-.649,1-1.055,1.446a1.567,1.567,0,0,0,.355,2.519,1.857,1.857,0,0,1,.715.438l.017.039a.817.817,0,0,1,.276.764q.023,3.554,0,7.106a.817.817,0,0,1-.276.764v.043a10.993,10.993,0,0,1-6.556-2.3,10.58,10.58,0,0,1-3.655-10.874,10.51,10.51,0,0,1,8.522-7.744c.563-.079,1.13-.121,1.694-.181l.022.027-.018.028a.917.917,0,0,1,.27.777q.021,3.05,0,6.1A1.574,1.574,0,0,1-5915.337,3268.362Z" transform="translate(5946.291 -3239.452)" fill="#fb5356"/>
      <path id="Trazado_168307" data-name="Trazado 168307" d="M-5909.339,3284.225v-8.634a2.216,2.216,0,0,0,1.534-.769q3.289-3.256,6.59-6.5c.175-.17.359-.328.538-.491a10,10,0,0,1,.527,10.922A10.028,10.028,0,0,1-5909.339,3284.225Z" transform="translate(5940.287 -3242.108)" fill="#f60b57"/>
      <path id="Trazado_168308" data-name="Trazado 168308" d="M-5909.33,3268.393q0-3.9,0-7.795a9.988,9.988,0,0,1,6,1.869Q-5906.277,3265.485-5909.33,3268.393Z" transform="translate(5940.283 -3239.482)" fill="#f60b57"/>
      <path id="Trazado_168309" data-name="Trazado 168309" d="M-5910.427,3277.442a1.712,1.712,0,0,1-1.706-1.119,1.765,1.765,0,0,1,.391-2.016c.42-.435.866-.847,1.3-1.268Q-5910.434,3275.24-5910.427,3277.442Z" transform="translate(5941.357 -3243.997)" fill="#45676d"/>
    </g>
  </g>
</svg>
