<svg xmlns="http://www.w3.org/2000/svg" width="80" height="80" viewBox="0 0 80 80">
  <g id="Grupo_119345" data-name="Grupo 119345" transform="translate(-284.705 -1920.5)">
    <g id="Elipse_6759" data-name="Elipse 6759" transform="translate(284.705 1920.5)" fill="#fff" stroke="#2631a0" stroke-width="4">
      <circle cx="40" cy="40" r="40" stroke="none"/>
      <circle cx="40" cy="40" r="38" fill="none"/>
    </g>
    <g id="Grupo_119217" data-name="Grupo 119217" transform="translate(538.301 3059.216)">
      <path id="Trazado_168896" data-name="Trazado 168896" d="M-218.3-1129.215h9.041c1.592.291,2.153.968,2.168,2.614,0,.573.01,1.146,0,1.718a.735.735,0,0,0,.595.813,6.948,6.948,0,0,1,2.189.855c.448.781,1.007,1.491,1.486,2.255a39.043,39.043,0,0,1,4.33,9.828.84.84,0,0,1-.022.742.478.478,0,0,1-.558.032c-1.159-.641-2.385-1.154-3.53-1.821a.469.469,0,0,1-.086-.081c-.689-.338-1.376-.68-2.065-1.018-.869-.426-1.7-.912-2.561-1.361-2.028-.93-3.96-2.052-5.965-3.027a1.057,1.057,0,0,0-1.009.005c-1.407.676-2.76,1.456-4.16,2.145a4.5,4.5,0,0,0-1.506.792c-1.2.648-2.421,1.259-3.635,1.88-2.148,1.1-4.269,2.251-6.443,3.3a3.588,3.588,0,0,0-1.126.753,4.323,4.323,0,0,0-.2,1.4c0,5.868.011,11.735-.013,17.6a1.679,1.679,0,0,0,1.057,1.727c2.152,1.012,4.242,2.15,6.354,3.242,2.921,1.511,5.862,2.982,8.759,4.54a7,7,0,0,0,1.35.611,5.782,5.782,0,0,0,1.949-.84q2.969-1.569,5.969-3.08c1.1-.553,2.156-1.177,3.268-1.7.8-.343,1.536-.805,2.325-1.165.306-.139.6-.306.908-.444a.667.667,0,0,1,.679-.021.766.766,0,0,1,.08.836,38.7,38.7,0,0,1-5.277,10.953c-.224.322-.583.54-.708.936a4.79,4.79,0,0,1-1.8.726.754.754,0,0,0-.638.843c.017.653.013,1.308,0,1.962a2.157,2.157,0,0,1-2.183,2.374c-3.068.078-6.14.124-9.207-.028a2.1,2.1,0,0,1-1.964-2.083c-.042-.712-.03-1.427-.011-2.14a.812.812,0,0,0-.672-.939,24.7,24.7,0,0,1-5.415-2.259.659.659,0,0,0-.9.13c-.474.479-.947.959-1.432,1.426a2.588,2.588,0,0,1-3.464.232,11.755,11.755,0,0,1-1.4-1.282c-1.433-1.426-2.869-2.848-4.284-4.291a3.183,3.183,0,0,1-1.106-2.288,2.5,2.5,0,0,1,.707-1.773c.493-.515,1-1.015,1.509-1.518a.658.658,0,0,0,.11-.9,24.05,24.05,0,0,1-2.258-5.416.779.779,0,0,0-.888-.657c-.633.02-1.268.013-1.9,0a2.151,2.151,0,0,1-2.387-2.167c-.094-3.048-.124-6.1.018-9.148a2.12,2.12,0,0,1,2.249-2.048c.693-.022,1.387-.015,2.081-.006a.722.722,0,0,0,.808-.6,24.705,24.705,0,0,1,2.306-5.523.629.629,0,0,0-.137-.852c-.476-.476-.957-.948-1.426-1.432a2.548,2.548,0,0,1-.212-3.5,35.733,35.733,0,0,1,3.217-3.332,28.424,28.424,0,0,1,3-2.877,2.557,2.557,0,0,1,3.459.222c.486.467.958.948,1.432,1.426a.658.658,0,0,0,.9.131,24.185,24.185,0,0,1,5.415-2.259.809.809,0,0,0,.673-.938c-.022-.594-.011-1.189,0-1.783A2.208,2.208,0,0,1-218.3-1129.215Z" transform="translate(0)" fill="#375e7d"/>
      <path id="Trazado_168897" data-name="Trazado 168897" d="M26.125-1067.353a2.754,2.754,0,0,1-3.083,1.839c-.571-.043-1.149,0-1.723-.011a.411.411,0,0,0-.491.362,24.847,24.847,0,0,1-2.556,6.154.379.379,0,0,0,.087.554c.556.537,1.105,1.081,1.64,1.638a2.414,2.414,0,0,1-.007,3.593q-2.754,2.794-5.547,5.549a2.416,2.416,0,0,1-3.593.012c-.485-.467-.978-.93-1.423-1.434a.683.683,0,0,0-1.033-.162,17.583,17.583,0,0,1-3.643,1.678c-.137-.3.151-.427.27-.592a37.869,37.869,0,0,0,5.55-11.392,3.359,3.359,0,0,0,.073-.582c-.026-.346.227-.479.474-.61.438-.231.881-.451,1.324-.671a1.329,1.329,0,0,0,.788-1.229c.009-.277.01-.554.01-.831.005-6.1-.01-12.194.008-18.291a.572.572,0,0,0-.025-.173c-.209-.415-.664-.469-1.012-.676-.305-.182-.641-.31-.947-.492-.2-.117-.445-.214-.371-.528a42.28,42.28,0,0,0-2.907-7.586,33.983,33.983,0,0,0-2.76-4.571c-.1-.138-.266-.261-.138-.468.251-.257.508-.11.766-.012a19.181,19.181,0,0,1,2.566,1.242.691.691,0,0,0,.982-.155c.451-.473.913-.937,1.388-1.386a2.608,2.608,0,0,1,3.741-.02q2.9,2.814,5.717,5.718a2.628,2.628,0,0,1-.046,3.833c-.456.468-.921.929-1.386,1.389a.613.613,0,0,0-.138.838,25.293,25.293,0,0,1,2.283,5.469.7.7,0,0,0,.775.568,15.1,15.1,0,0,1,2.193.074,2.243,2.243,0,0,1,2.19,2.084Z" transform="translate(-209.45 -26.769)" fill="#2b4d66"/>
      <path id="Trazado_168898" data-name="Trazado 168898" d="M-146.417-972.526a1.826,1.826,0,0,1-.935-.337q-8.053-4.145-16.106-8.29a1.248,1.248,0,0,1-.769-1.258c.011-6.184,0-12.368.012-18.551a1.47,1.47,0,0,1,.292-1.172,3.118,3.118,0,0,1,1.519.6c1.382.754,2.8,1.439,4.2,2.151a1.768,1.768,0,0,1,.736.572.66.66,0,0,1,.043.182,9.323,9.323,0,0,1,.091,2.011q.014,1.989,0,3.977a.9.9,0,0,0,.576.932c.957.429,1.839,1.006,2.79,1.449.19.089.372.25.6.115a1.467,1.467,0,0,0,.226-.964c0-1.521,0-3.042,0-4.564,0-.725.259-.917.912-.6,1.914.941,3.788,1.962,5.7,2.9a.587.587,0,0,1,.352.379,2.213,2.213,0,0,1,.026.533q0,9.381,0,18.762C-146.145-973.292-146.051-972.852-146.417-972.526Z" transform="translate(-67.364 -106.876)" fill="#fdd0a2"/>
      <path id="Trazado_168899" data-name="Trazado 168899" d="M-52.212-959.8q0-9.837,0-19.673a1.431,1.431,0,0,1,.129-.866c.1-.431.489-.547.811-.716,1.35-.705,2.714-1.382,4.065-2.085,2.351-1.222,4.716-2.419,7.061-3.653.294-.155.6-.346.934-.072a1.778,1.778,0,0,1,.345,1.05,43.431,43.431,0,0,1,.5,5.9,38.58,38.58,0,0,1-1.2,11.029c-.2.746-.429,1.481-.668,2.214a2.806,2.806,0,0,1-.785,1.234Q-46.3-962.7-51.6-959.972A1.033,1.033,0,0,1-52.212-959.8Z" transform="translate(-161.569 -119.605)" fill="#f4a86c"/>
      <path id="Trazado_168900" data-name="Trazado 168900" d="M18.245-978.174A33.831,33.831,0,0,0,20.508-988a49.4,49.4,0,0,0,.078-6.437,27.131,27.131,0,0,0-.683-5.154.348.348,0,0,1,.154-.314c1.318-.8,2.714-1.447,4.088-2.138a.831.831,0,0,1,.63-.063c.169.186.1.415.1.625,0,6.242-.008,12.484.014,18.726a1.7,1.7,0,0,1-1.09,1.771c-.612.271-1.188.625-1.78.941Z" transform="translate(-220.827 -106.868)" fill="#e99958"/>
      <path id="Trazado_168901" data-name="Trazado 168901" d="M-155.98-1033.014q-3.041-1.551-6.08-3.107a1.239,1.239,0,0,1-.254-.243.98.98,0,0,1,.488-.412q5.363-2.763,10.731-5.517a8.635,8.635,0,0,1,4.374-.481,20.039,20.039,0,0,1,5.635,1.09,1.14,1.14,0,0,1,.694.422c.143.3-.038.485-.241.657a2.448,2.448,0,0,1-.514.3c-3.528,1.744-6.994,3.61-10.5,5.389-1.146.581-2.285,1.176-3.432,1.756A.991.991,0,0,1-155.98-1033.014Z" transform="translate(-68.973 -72.647)" fill="#fee4c0"/>
      <path id="Trazado_168902" data-name="Trazado 168902" d="M-81.042-1055.171a17.4,17.4,0,0,0-5.094-1.3,20,20,0,0,0-4.967-.009c-.215.025-.428.073-.642.109q2.986-1.56,5.971-3.121a.674.674,0,0,1,.674.02q3.091,1.611,6.184,3.218c.014.309-.205.447-.431.573a6.4,6.4,0,0,1-1.452.62A.281.281,0,0,1-81.042-1055.171Z" transform="translate(-128.322 -58.566)" fill="#fdd0a2"/>
      <path id="Trazado_168903" data-name="Trazado 168903" d="M12.792-1020.321c-1.534.816-3.071,1.626-4.648,2.356a.769.769,0,0,1-.523-.347,15.552,15.552,0,0,0-3.3-3.743c-.224-.18-.4-.387-.288-.709a3.263,3.263,0,0,1,2.195-1.033l4.065,2.037c.668.356,1.337.709,2,1.072C12.473-1020.589,12.707-1020.554,12.792-1020.321Z" transform="translate(-208.844 -88.657)" fill="#fdd0a2"/>
      <path id="Trazado_168904" data-name="Trazado 168904" d="M-16.544-1036.332l-2.108,1.111a.946.946,0,0,1-.156.09.729.729,0,0,1-.6-.182,25.232,25.232,0,0,0-3.206-1.8c-.214-.107-.505-.178-.454-.527l1.906-1.067C-19.591-1037.978-18.063-1037.165-16.544-1036.332Z" transform="translate(-186.074 -76.122)" fill="#d8edfe"/>
      <path id="Trazado_168905" data-name="Trazado 168905" d="M-79.975-1016.874q.057,0,.114.012c.083.371.436.5.681.7a15.593,15.593,0,0,1,3.345,4.018l-.224.159q-4.143,2.128-8.286,4.256-2.217,1.137-4.438,2.265a1.734,1.734,0,0,1-.776-.271q-2.639-1.349-5.278-2.7c-.576-.293-.615-.267-.616.384,0,1.819,0,3.637,0,5.456,0,.231.06.48-.126.679a1.339,1.339,0,0,1-.256-.71c0-2.006-.064-4.012.038-6.016a.892.892,0,0,1,.516-.541c.66-.32,1.283-.709,1.939-1.035,3.442-1.71,6.819-3.545,10.258-5.261.566-.283,1.107-.616,1.678-.892A3.518,3.518,0,0,1-79.975-1016.874Z" transform="translate(-124.864 -94.481)" fill="#fee4c0"/>
      <path id="Trazado_168906" data-name="Trazado 168906" d="M-102.361-1029.589a20.539,20.539,0,0,1-2.91,1.585c-4.011,2.107-8.049,4.164-12.078,6.236-.192.1-.4.173-.6.258a.661.661,0,0,1-.724-.063c-1.1-.571-2.183-1.178-3.3-1.709a1.273,1.273,0,0,1-.489-.5c0-.04-.009-.079-.013-.119q7.5-3.844,14.993-7.69a6.914,6.914,0,0,0,.6-.385l.219-.021A34.372,34.372,0,0,1-102.361-1029.589Z" transform="translate(-102.479 -81.767)" fill="#eef5fe"/>
      <path id="Trazado_168907" data-name="Trazado 168907" d="M-122.547-980.316c1.568.631,3,1.541,4.517,2.267q-.012,3.441-.024,6.883c-1.371-.7-2.741-1.411-4.116-2.108a.591.591,0,0,1-.406-.579C-122.558-976.008-122.554-978.162-122.547-980.316Z" transform="translate(-102.394 -125.227)" fill="#d8edfe"/>
      <path id="Trazado_168908" data-name="Trazado 168908" d="M-144.607-896.626a1.248,1.248,0,0,1,.624.169c1.652.858,3.306,1.712,4.954,2.577a.939.939,0,0,1,.525,1.274.945.945,0,0,1-1.379.334c-1.694-.862-3.382-1.738-5.073-2.606a.9.9,0,0,1-.561-1.061A.827.827,0,0,1-144.607-896.626Z" transform="translate(-83.076 -195.611)" fill="#9eabb9"/>
    </g>
  </g>
</svg>
